G04 DipTrace 2.4.0.2*
%INGround.gbr*%
%MOIN*%
%ADD13C,0.008*%
%ADD14C,0.024*%
%ADD19C,0.08*%
%ADD22C,0.05*%
%ADD27C,0.025*%
%ADD28C,0.013*%
%ADD47R,0.1X0.1*%
%ADD48C,0.1*%
%ADD49C,0.059*%
%ADD50C,0.125*%
%ADD51R,0.0591X0.0591*%
%ADD52C,0.0591*%
%ADD53R,0.0669X0.0669*%
%ADD54C,0.0669*%
%ADD55C,0.25*%
%ADD76C,0.035*%
%FSLAX44Y44*%
G04*
G70*
G90*
G75*
G01*
%LNInner1*%
%LPD*%
X12830Y16040D2*
D13*
X12200D1*
X11520Y16720D1*
X11530D1*
X11000Y17250D1*
X10960D1*
X10585Y17625D1*
X10710Y21250D2*
X11080Y20880D1*
Y20480D1*
X10585Y19985D1*
Y18940D1*
Y17625D1*
X9529Y19985D2*
X10585D1*
X17877Y41975D2*
D19*
X16227D1*
X15750Y23710D2*
D13*
X15585D1*
Y22950D1*
Y22700D1*
X14675Y21790D1*
X13860D1*
X7480Y21120D2*
X7060Y21540D1*
Y23670D1*
X7970Y24580D1*
X7960D1*
X8190Y24810D1*
X9380D1*
X12670D1*
Y24290D1*
X12240Y23860D1*
Y22560D1*
X12680Y22120D1*
Y20880D1*
X11080D1*
X15460Y19110D2*
X15335Y19235D1*
X14880D1*
X14585Y18940D1*
X10585D1*
X6910Y21490D2*
X7060D1*
Y21540D1*
X6910Y21490D2*
Y21300D1*
X6583Y21628D1*
X6252D1*
X5565Y19878D2*
X6252Y20565D1*
Y21628D1*
X23780Y32240D2*
Y31730D1*
Y31240D1*
X17785Y8035D2*
X17910D1*
Y9110D1*
X17750D1*
X17790Y9150D1*
X12231Y42679D2*
X12960Y41950D1*
X14552D1*
X14577Y41975D1*
X11280Y39870D2*
Y41200D1*
X10751D1*
X12231Y42679D1*
X10330Y39220D2*
Y39200D1*
X10610D1*
X11280Y39870D1*
X10330Y39200D2*
Y38750D1*
X20141Y39819D2*
Y39319D1*
Y38810D2*
Y39319D1*
X8815Y41190D2*
X10191D1*
X11128D1*
X11290D1*
X11280Y41200D1*
X11128Y41503D2*
Y41190D1*
X12570Y41207D2*
X13810D1*
X14577Y41975D1*
D19*
X16227D1*
X23187Y34733D2*
D13*
X22230Y35690D1*
X20660D1*
X20180Y36170D1*
X23187Y34733D2*
Y34230D1*
X24490D1*
X19931Y33199D2*
X20214D1*
X20221Y33206D1*
X20533D1*
X20827D1*
X20828Y33207D1*
X21140D1*
X21434D1*
X21435D1*
X21747D1*
X22041D1*
X22042Y33208D1*
X19931Y33199D2*
X19618D1*
X19324D1*
X19319Y33195D1*
X19007D1*
X18696D1*
X18695Y33194D1*
Y32882D1*
Y32569D1*
X19007Y33195D2*
Y32882D1*
Y32570D1*
X19319Y33195D2*
Y32882D1*
Y32570D1*
X19618Y33199D2*
Y32887D1*
Y32574D1*
X19931Y33199D2*
Y32887D1*
Y32574D1*
X20221Y33206D2*
Y32893D1*
Y32581D1*
X20533Y33206D2*
Y32893D1*
Y32581D1*
X20828Y33207D2*
Y32894D1*
Y32582D1*
X21140Y33207D2*
Y32894D1*
Y32582D1*
X21435Y33207D2*
Y32895D1*
Y32582D1*
X21747Y33207D2*
Y32895D1*
Y32582D1*
X22042Y33208D2*
Y32896D1*
Y32583D1*
X18130Y27420D2*
Y28830D1*
Y30350D1*
Y30773D1*
X19931Y32574D1*
X22520Y33060D2*
X22510D1*
Y33051D2*
X22042Y32583D1*
X20180Y36170D2*
X19670D1*
Y37018D1*
Y38880D1*
X18740D1*
Y41112D1*
X17877Y41975D1*
X21140Y32582D2*
X22390Y31332D1*
X22570Y31152D1*
Y28830D1*
X22175D1*
X21525D1*
X19425D2*
X18130D1*
X18155D1*
X23187Y34733D2*
Y32833D1*
X23780Y32240D1*
X22570Y28830D2*
X22580Y28840D1*
Y25140D1*
Y25130D1*
Y24060D1*
X22610D1*
Y21070D1*
X13860Y21790D2*
X12940Y20870D1*
X11070D1*
X10690Y21250D1*
X10710D1*
X6290Y34820D2*
Y34450D1*
X17877Y41975D2*
D22*
X18072Y42170D1*
D13*
X13420D1*
X12950Y42640D1*
X18130Y27420D2*
Y27310D1*
X18610Y26830D1*
Y24940D1*
Y24899D1*
Y23940D1*
Y23904D1*
Y23610D1*
X18280D1*
Y22590D1*
X19330Y22640D2*
X19380D1*
Y23610D1*
X18610D1*
X19310D2*
Y23339D1*
X19380Y23610D1*
X19320Y11850D2*
X19400D1*
Y16110D1*
X20115D1*
X19320Y11850D2*
Y11800D1*
X18220D1*
X18200Y10850D2*
Y11820D1*
X18220Y11800D1*
X18200Y10850D2*
X19300D1*
X20113Y17012D2*
X20426D1*
X20738D1*
X20426D2*
Y17610D1*
Y19054D1*
X20240Y19240D1*
X19810Y18810D1*
X17070D1*
X16770Y19110D1*
X15460D1*
X19330Y22640D2*
Y20877D1*
Y20310D1*
Y20150D1*
X19920Y19560D1*
X20240Y19240D1*
X20426Y17012D2*
Y16718D1*
X20427Y16717D1*
Y16405D1*
Y16111D1*
X20428Y16110D1*
Y15798D1*
Y15372D1*
X20450Y15350D1*
Y15482D1*
X20428Y15503D1*
Y15191D1*
Y14907D1*
X20435Y14901D1*
Y14588D1*
Y14294D1*
X20440Y14289D1*
Y13977D1*
Y13666D1*
Y13665D1*
X20427Y16717D2*
X20114D1*
X20427Y16405D2*
X20114D1*
X20428Y16110D2*
X20115D1*
X20428Y15798D2*
X20115D1*
X20428Y15503D2*
X20116D1*
X20428Y15191D2*
X20116D1*
X20435Y14901D2*
X20123D1*
X20435Y14588D2*
X20123D1*
X20440Y14289D2*
X20127D1*
X20440Y13977D2*
X20127D1*
X20440Y13665D2*
X20128D1*
X20440D2*
X20753D1*
X20440Y13977D2*
X20752D1*
X20440Y14289D2*
X20752D1*
X20435Y14588D2*
X20748D1*
X20435Y14901D2*
X20748D1*
X20428Y15191D2*
X20741D1*
X20428Y15503D2*
X20741D1*
X20428Y15798D2*
X20740D1*
X20428Y16110D2*
X20740D1*
X20427Y16405D2*
X20739D1*
X20427Y16717D2*
X20739D1*
X20440Y13665D2*
Y12960D1*
Y12330D1*
X20220Y12110D1*
Y9388D1*
X20551Y9057D1*
Y8763D1*
X20552Y8762D1*
Y8450D1*
Y8156D1*
X20553Y8155D1*
Y7843D1*
Y7549D1*
X20554Y7548D1*
Y7236D1*
Y6952D1*
X20560Y6946D1*
Y6633D1*
Y6339D1*
X20565Y6334D1*
Y6022D1*
Y5711D1*
Y5710D1*
X20551Y9057D2*
X20238D1*
X20551D2*
X20863D1*
X20552Y8762D2*
X20864D1*
X20239D2*
X20552D1*
X20239Y8450D2*
X20552D1*
X20864D1*
X20240Y8155D2*
X20553D1*
X20865D1*
X20240Y7843D2*
X20553D1*
X20865D1*
X20241Y7548D2*
X20554D1*
X20866D1*
X20241Y7236D2*
X20554D1*
X20866D1*
X20248Y6946D2*
X20560D1*
X20873D1*
X20248Y6633D2*
X20560D1*
X20873D1*
X20252Y6334D2*
X20565D1*
X20877D1*
X20252Y6022D2*
X20565D1*
X20877D1*
X20253Y5710D2*
X20565D1*
X20878D1*
X10320Y17920D2*
X10615Y17625D1*
X10585D1*
X9900Y18390D2*
Y18340D1*
X10320Y17920D1*
X8480Y16430D2*
Y16970D1*
X9900Y18390D1*
X8850Y15800D2*
X8490Y16160D1*
Y16430D1*
X8480D1*
X8850Y15800D2*
Y15790D1*
X9370Y15270D1*
X9930Y14940D2*
X9700D1*
X9370Y15270D1*
X9380Y23080D2*
Y24810D1*
X15570Y22950D2*
X15585D1*
X17060Y17240D2*
Y17510D1*
X15460Y19110D1*
X22351Y25130D2*
X22580D1*
Y25140D2*
X23445D1*
X24309D1*
Y25150D1*
X24970D1*
X27020D1*
X22550Y24030D2*
X22580Y24060D1*
X26700Y24290D2*
X26020D1*
X25760Y24030D1*
X22550D1*
X22580D1*
Y23230D1*
X21700Y30380D2*
Y30642D1*
X22390Y31332D1*
X21700Y30380D2*
Y29810D1*
X17900Y30350D2*
X18130D1*
X17900D2*
Y29820D1*
X5540Y32692D2*
Y32740D1*
X5980Y32300D1*
X7980D1*
X9900D1*
X10690D1*
Y32750D1*
X10680D1*
Y32300D2*
X12670D1*
Y29790D1*
Y27320D1*
Y26420D1*
Y25930D1*
Y25520D1*
Y24810D1*
X11430Y26980D2*
X11770Y27320D1*
X12670D1*
X9950Y25930D2*
X12670D1*
X7210Y29370D2*
X8227D1*
X8556Y29698D1*
X9790D1*
X12680D1*
Y27320D1*
X12670D1*
X8556Y29698D2*
Y30468D1*
X8560Y30473D1*
X9800Y28030D2*
X9740D1*
X9490Y27780D1*
X8160D1*
X7990Y27950D1*
X5570D1*
X5505Y27885D1*
X5480Y27910D1*
X14230Y32280D2*
X14240Y32290D1*
X12810D1*
Y34510D1*
X12595Y34725D1*
X11830Y33960D1*
X7110D1*
X6280Y34790D1*
X6220D1*
Y34450D1*
X6290D1*
X9890Y30888D2*
X9900Y30898D1*
Y32300D1*
X6028Y12476D2*
Y12668D1*
X6340Y12980D1*
X7970D1*
X9930Y14940D1*
X14320Y14310D2*
X12830D1*
Y16040D1*
X12180Y11970D2*
X12839D1*
X13540D1*
X15110Y10400D1*
Y10450D1*
X6230Y7830D2*
Y12273D1*
X6028Y12476D1*
X6230Y7830D2*
Y7340D1*
X17790Y9150D2*
Y10440D1*
X18200Y10850D1*
X23315Y20815D2*
X22865D1*
X22610Y21070D1*
X23315Y20815D2*
X23628D1*
X23940D1*
X24253D1*
X24565D1*
X24878D1*
Y21128D1*
Y20815D2*
X25190D1*
X25503D1*
X25815D1*
X26128D1*
X26440D1*
X22610Y21070D2*
X22668Y21128D1*
X23628D1*
X23940D1*
X24253D1*
X24565D1*
X25200D1*
X25503D1*
X25815D1*
X26128D1*
X26440D1*
Y20815D1*
X22610Y21070D2*
Y20833D1*
X22940Y20503D1*
X23315D1*
X23628D1*
X23940D1*
X24253D1*
X24565D1*
X24878D1*
X25190D1*
X25503D1*
X25815D1*
X26128D1*
X26440D1*
Y20815D1*
X24565Y21128D2*
D3*
X24253D2*
D3*
X23940D2*
D3*
X23628D2*
D3*
X23315Y20503D2*
D3*
X23628D2*
D3*
X23940D2*
D3*
X24253D2*
D3*
X24565D2*
D3*
X24878D2*
D3*
X25190D2*
D3*
X25503D2*
D3*
X25815D2*
D3*
X26128D2*
D3*
X26440Y21128D2*
D3*
X26128D2*
D3*
X25815D2*
D3*
X25503D2*
D3*
X25200Y21130D2*
Y21128D1*
X24878Y17690D2*
Y17664D1*
X23711D1*
X23534D1*
X23110Y17240D1*
X20967D1*
X20738Y17012D1*
X24878Y17664D2*
Y16270D1*
Y14396D2*
Y16270D1*
Y14396D2*
Y13050D1*
X22920Y12960D2*
X20440D1*
X22920D2*
Y12930D1*
X23670D1*
X22930Y17690D2*
X22970D1*
Y17225D1*
X23110Y17240D1*
X23711Y17664D2*
Y17721D1*
X23690Y17700D1*
X24950Y10399D2*
Y10888D1*
Y11940D1*
Y11963D1*
Y13122D1*
X24878Y13050D1*
X24950Y10399D2*
Y9800D1*
Y9120D1*
X25040Y9030D1*
X24290Y5508D2*
D14*
Y6822D1*
D13*
X24300D1*
Y8290D1*
X25040Y9030D1*
X24300Y6822D2*
X24802D1*
X24950Y6970D1*
X23820Y9800D2*
X24950D1*
X23820D2*
Y9780D1*
X23050D1*
X10191Y41194D2*
Y41190D1*
X11310Y25520D2*
X12670D1*
X26510Y22990D2*
X22580D1*
Y23230D1*
X18610Y20310D2*
X19330D1*
X23590Y35790D2*
Y35136D1*
X23187Y34733D1*
X21620Y19560D2*
X19920D1*
X16440Y6940D2*
Y5940D1*
Y6940D2*
X15440D1*
X14440D1*
X13440D1*
X12440D1*
X15440D2*
Y7940D1*
X14440D1*
X13440D1*
X12440D1*
X19400Y16110D2*
X17560D1*
X17390Y15940D1*
X16440D1*
X17390D2*
Y14990D1*
X17440Y14940D1*
Y13940D1*
Y12940D1*
Y11940D1*
Y10940D1*
Y9940D1*
X16440Y14940D2*
X17440D1*
X18390D1*
X15650Y14930D2*
X16440D1*
Y14940D1*
X15540Y13940D2*
X16440D1*
X17440D1*
X18440D1*
X16440Y12940D2*
X17440D1*
X18440D1*
X19440D1*
X20440D2*
X21440D1*
X21490Y12890D1*
X23670Y12930D2*
X24430D1*
X24440Y12940D1*
X25440Y11940D2*
X24950D1*
Y11963D2*
X24463D1*
X24440Y11940D1*
X23440D1*
X22440D1*
Y10940D2*
X23440D1*
X24440D1*
X24898D1*
X24950Y10888D1*
X25388D1*
X25440Y10940D1*
X26440Y12940D2*
X25691D1*
X24988D1*
X24878Y13050D1*
X24950Y6970D2*
X26410D1*
X26440Y6940D1*
X18440Y24940D2*
X18610D1*
Y24899D2*
X19399D1*
X19440Y24940D1*
X20440D1*
X21440D1*
X18440D2*
X17440D1*
Y23940D2*
X18610D1*
Y23904D2*
X21404D1*
X21440Y23940D1*
X17480Y22940D2*
X17930D1*
X18280Y22590D1*
X17440Y21940D2*
X17630D1*
X18280Y22590D1*
X18440Y21940D2*
Y22430D1*
X18280Y22590D1*
X20440Y21940D2*
X19440D1*
X21440D2*
X20440D1*
Y20940D2*
X19393D1*
X19330Y20877D1*
X21440Y20940D2*
X20440D1*
X21620Y19560D2*
Y19760D1*
X21440Y19940D1*
X22440D1*
X9790Y30320D2*
Y29698D1*
X26442Y35625D2*
X26188D1*
X25753Y35190D1*
X24190D1*
X23590Y35790D1*
X26442Y35625D2*
Y35185D1*
X23640Y25160D2*
X23465D1*
X23445Y25140D1*
X8650Y12410D2*
X8568D1*
X7998Y12980D1*
X7970D1*
X13419Y29790D2*
X12670D1*
X14160Y31520D2*
Y31580D1*
X16550D1*
X12830Y14310D2*
X12839Y11970D1*
X16440Y12940D2*
X15570D1*
X16440Y11940D2*
X17440D1*
X19670Y36170D2*
Y35183D1*
Y33460D1*
X19931Y33199D1*
X12595Y34725D2*
Y37128D1*
Y38440D1*
Y39993D1*
X12776Y40173D1*
X14577Y41975D1*
X22010Y35100D2*
Y35150D1*
X19703D1*
X19670Y35183D1*
Y38880D2*
X20071D1*
X20141Y38810D1*
X13920Y37270D2*
X13778Y37128D1*
X12595D1*
X13920Y37270D2*
X15090D1*
X7980Y30828D2*
Y32300D1*
X10020Y36630D2*
Y37830D1*
X10000D1*
Y38420D1*
X10330Y38750D1*
X13930Y36420D2*
X13900D1*
Y37290D1*
X13920Y37270D1*
X15090D2*
Y36410D1*
X11940Y38440D2*
X12595D1*
X18400Y37200D2*
X19488D1*
X19670Y37018D1*
X18680Y38820D2*
X18740Y38880D1*
X11430Y26980D2*
X10850D1*
X9800Y28030D1*
X10815Y37690D2*
X10160D1*
X10020Y37830D1*
X12810Y32290D2*
X12670Y32300D1*
X14230Y32280D2*
Y31590D1*
X14160Y31520D1*
X13419Y29790D2*
X13772Y30143D1*
X16010D1*
X14130Y26420D2*
X12670D1*
X16000Y21930D2*
X17430D1*
X17440Y21940D1*
X15585Y23710D2*
X13180D1*
X12670Y24220D1*
Y24290D1*
X25440Y12940D2*
X25691D1*
X25440Y11940D2*
X26440D1*
X12579Y40370D2*
X12776Y40173D1*
X5150Y34820D2*
Y34450D1*
X5030Y7830D2*
X4961D1*
Y7366D1*
X5034D1*
X5040Y7360D1*
X4961Y10598D2*
Y7899D1*
X5030Y7830D1*
X5440Y41940D2*
X4490D1*
X4690Y41740D1*
Y34830D1*
Y15609D1*
X4961Y15338D1*
Y10598D1*
X5040Y7360D2*
Y5840D1*
X5440Y5440D1*
X5628D1*
X6815Y4253D1*
X25253D1*
X26440Y5440D1*
Y6127D1*
X27003Y6690D1*
Y7190D1*
X27440Y7628D1*
Y11378D1*
X27690Y11628D1*
Y26940D1*
Y35127D1*
X27627Y35190D1*
X27690D1*
Y35690D1*
Y40690D1*
X26440Y41940D1*
X27625Y35625D2*
X27690Y35690D1*
X27560Y26920D2*
Y26940D1*
X27690D1*
X5150Y34820D2*
X4690Y34830D1*
D27*
X14253Y38003D3*
X14100Y34080D3*
X13590Y36010D3*
D76*
X6760Y29870D3*
D27*
X13950Y21300D3*
X10980Y21509D3*
X9503Y18940D3*
X15095Y18960D3*
X9503Y18940D3*
X10970Y17600D3*
X11520Y17410D3*
X14620Y24940D3*
D3*
X8460Y14840D3*
X11520Y17410D3*
X10230Y28020D3*
X10420Y30870D3*
X15920Y16100D3*
X15095Y18960D3*
X15920Y16100D3*
X18860Y16481D3*
X13950Y21300D3*
X10810Y25520D3*
X8130Y30473D3*
X8003Y28565D3*
X13860Y13800D3*
D3*
X15130Y15250D3*
X17530Y8570D3*
X17430Y19080D3*
X10810Y25520D3*
X8460Y23850D3*
X18940Y20610D3*
X10420Y30870D3*
X8130Y30473D3*
X9190Y36440D3*
D3*
D3*
X12517Y34128D3*
X10870Y23090D3*
X12130Y18330D3*
X15550Y33210D3*
X11090Y33020D3*
X11280Y28480D3*
X8940Y28080D3*
X11780Y33390D3*
X13350Y33270D3*
X13600Y25360D3*
X12880Y17410D3*
X14637Y16460D3*
X14140Y25500D3*
X13160Y22410D3*
X12170Y13200D3*
D3*
X14580Y22780D3*
X13645Y16905D3*
X13690Y17430D3*
X13920Y24910D3*
X14390Y18340D3*
X15400Y21770D3*
X14180Y24440D3*
X13800Y18270D3*
X12830Y16040D3*
X10585Y17625D3*
X10710Y21250D3*
X9529Y19985D3*
X15750Y23710D3*
X13860Y21790D3*
X7480Y21120D3*
X15460Y19110D3*
X6910Y21490D3*
X6252Y21628D3*
X6910Y21490D3*
X5565Y19878D3*
D76*
X23780Y32240D3*
Y31240D3*
D27*
X17785Y8035D3*
X17790Y9150D3*
X12231Y42679D3*
X11280Y39870D3*
X12231Y42679D3*
X10330Y39220D3*
X11280Y39870D3*
X10330Y38750D3*
D76*
X20141Y39819D3*
Y39319D3*
Y38810D3*
D27*
X10330Y38750D3*
X8815Y41190D3*
X11128Y41503D3*
X12570Y41207D3*
X23187Y34733D3*
X20180Y36170D3*
X24490Y34230D3*
X23187Y34733D3*
X22520Y33060D3*
X21525Y28830D3*
X19425D3*
X18155D3*
D76*
X23780Y31730D3*
D27*
X23187Y34733D3*
D76*
X23780Y32240D3*
D27*
X22610Y21070D3*
X10710Y21250D3*
X6290Y34820D3*
Y34450D3*
D76*
X18280Y23610D3*
Y22590D3*
X19330Y22640D3*
X19310Y23610D3*
X19320Y11850D3*
X18220Y11800D3*
X19320Y11850D3*
X18200Y10850D3*
X19300D3*
X18200D3*
D27*
X15460Y19110D3*
D76*
X19330Y22640D3*
D27*
X11000Y17250D3*
X11520Y16720D3*
X10320Y17920D3*
X9900Y18390D3*
X10320Y17920D3*
X8480Y16430D3*
X9900Y18390D3*
X8850Y15800D3*
X8480Y16430D3*
X9370Y15270D3*
X8850Y15800D3*
X9930Y14940D3*
X9380Y23080D3*
X15570Y22950D3*
X17060Y17240D3*
X15460Y19110D3*
X22351Y25130D3*
X27020Y25150D3*
X22550Y24030D3*
X26700Y24290D3*
X22550Y24030D3*
X22580Y23230D3*
X22550Y24030D3*
X21700Y30380D3*
Y29810D3*
Y30380D3*
X17900Y30350D3*
Y29820D3*
Y30350D3*
X11430Y26980D3*
X9950Y25930D3*
X7210Y29370D3*
X8560Y30473D3*
X9800Y28030D3*
X7990Y27950D3*
D3*
X14230Y32280D3*
X10690Y32750D3*
X9890Y30888D3*
X17070Y18810D3*
X20426Y17610D3*
X9930Y14940D3*
X14320Y14310D3*
X12830Y16040D3*
X12180Y11970D3*
X6230Y7830D3*
Y7340D3*
Y7830D3*
D76*
X18200Y10850D3*
D27*
X24878Y17690D3*
Y16270D3*
Y14396D3*
Y13050D3*
Y14396D3*
X22920Y12960D3*
X23670Y12930D3*
X22920Y12960D3*
X22930Y17690D3*
X23690Y17700D3*
X24950Y10399D3*
X25040Y9030D3*
X24950Y10399D3*
D76*
X24290Y5508D3*
D27*
X24950Y6970D3*
X23820Y9800D3*
X23050Y9780D3*
X23820Y9800D3*
X11310Y25520D3*
X7960Y24580D3*
X26510Y22990D3*
X18610Y20310D3*
X23590Y35790D3*
X23187Y34733D3*
X21620Y19560D3*
D3*
X9790Y30320D3*
X26442Y35625D3*
X23590Y35790D3*
X26442Y35185D3*
Y35625D3*
X24970Y25150D3*
X22175Y28830D3*
X23640Y25160D3*
X8650Y12410D3*
X13419Y29790D3*
X14160Y31520D3*
X16550Y31580D3*
X22010Y35100D3*
D76*
X20141Y38810D3*
D27*
X13920Y37270D3*
X15090D3*
X13920D3*
X7980Y30828D3*
X10020Y36630D3*
Y37830D3*
X13930Y36420D3*
X13920Y37270D3*
X15090Y36410D3*
X11940Y38440D3*
X18400Y37200D3*
X18680Y38820D3*
X11430Y26980D3*
X9800Y28030D3*
X10815Y37690D3*
X14230Y32280D3*
X14160Y31520D3*
X16010Y30143D3*
X13419Y29790D3*
X16000Y21930D3*
X12579Y40370D3*
X5150Y34820D3*
Y34450D3*
X5030Y7830D3*
X5040Y7360D3*
X5030Y7830D3*
X27625Y35625D3*
X27627Y35190D3*
D76*
X27560Y26920D3*
D27*
X5150Y34820D3*
X7320Y23430D3*
X6440Y25350D3*
X6390Y23150D3*
X6420Y24850D3*
X15640Y17420D3*
X17050Y19770D3*
X16150Y21330D3*
X14740Y18350D3*
X12500Y22840D3*
X12630Y18060D3*
X13140Y14930D3*
X8150Y16480D3*
X8530Y18010D3*
X22564Y9925D3*
X22439Y17762D3*
X14110Y36020D3*
X14160Y33290D3*
X9237Y41487D3*
X10135Y39875D3*
D3*
X14630Y34320D3*
X14530Y36000D3*
X16820Y8900D3*
X15290Y8930D3*
X13040Y16360D3*
X16830Y21330D3*
X12750Y23570D3*
X12670Y16820D3*
X8600Y26900D3*
X12110Y26980D3*
X14360Y16120D3*
X16400Y19500D3*
X10324Y32866D3*
X13650Y33530D3*
X10324Y32866D3*
X12170Y13780D3*
X11910Y23760D3*
X9150Y28840D3*
X8660Y28350D3*
X8840Y30838D3*
X6050Y23530D3*
X6670Y22890D3*
X11300Y22000D3*
X11630Y14770D3*
X10990Y14100D3*
X11540Y21310D3*
X10850Y14860D3*
X10680Y20800D3*
X11910Y22200D3*
X11940Y14250D3*
D76*
X22130Y16435D3*
X22300Y8460D3*
D27*
X22482Y12650D3*
D76*
X22130Y14355D3*
X22300Y6421D3*
D27*
X12550Y40780D3*
D76*
X19290Y31200D3*
X21370D3*
X23830Y22510D3*
X25890D3*
D27*
X17830Y31190D3*
D76*
X19290Y31200D3*
X21890Y23600D3*
X20640D3*
X21850Y11820D3*
X21890Y23600D3*
X22130Y16435D3*
X20640Y22650D3*
X21890D3*
X20640D3*
X20760Y11820D3*
Y10820D3*
Y11820D3*
X21860Y10820D3*
X23830Y22510D3*
X25890D3*
D27*
X11325Y42405D3*
X12550Y40780D3*
D76*
X23410Y37400D3*
D27*
X16480Y37310D3*
X17610D3*
X16480D3*
X16460Y36410D3*
X16480Y37310D3*
X17630Y36430D3*
D76*
X25850Y29570D3*
D27*
X10910Y28040D3*
X11060Y26550D3*
X25087Y32151D3*
X25399D3*
X25712D3*
X26024D3*
X26337D3*
X25087Y31838D3*
X25399D3*
X25712D3*
X26024D3*
X26337D3*
X25087Y31526D3*
X25399D3*
X25712D3*
X26024D3*
X26337D3*
X25087Y31213D3*
X25399D3*
X25712D3*
X26024D3*
X26337D3*
X25087Y30901D3*
X25399D3*
X25712D3*
X26024D3*
X26337D3*
X24878Y20815D3*
Y21128D3*
X25190Y20815D3*
X25503D3*
X25815D3*
X26128D3*
X21140Y32894D3*
X26440Y20815D3*
X24565D3*
X24253D3*
X23940D3*
X23628D3*
X23315D3*
X24565Y21128D3*
X24253D3*
X23940D3*
X23628D3*
X23315D3*
Y20503D3*
X23628D3*
X23940D3*
X24253D3*
X24565D3*
X24878D3*
X25190D3*
X25503D3*
X25815D3*
X26128D3*
X26440D3*
Y21128D3*
X26128D3*
X25815D3*
X25503D3*
X25200Y21130D3*
X22115Y39063D3*
Y39375D3*
Y39688D3*
X21802Y39375D3*
X21490D3*
X21802Y39063D3*
X21490D3*
X22115Y38750D3*
X21802D3*
X21490D3*
Y38437D3*
X21802D3*
X22115D3*
X21802Y39688D3*
X21490D3*
X22428D3*
Y39375D3*
Y39063D3*
Y38750D3*
Y38437D3*
X22740Y39688D3*
Y39375D3*
Y39063D3*
Y38750D3*
Y38437D3*
X8190Y36440D3*
Y35440D3*
Y34440D3*
Y33440D3*
X7190Y37440D3*
Y36440D3*
X6190Y37440D3*
X5190D3*
X4315D3*
Y36440D3*
Y35440D3*
Y34440D3*
Y33440D3*
X5190D3*
X6190D3*
X7190D3*
X9190D3*
X10190Y34440D3*
X20828Y32894D3*
X20533Y32893D3*
X20221D3*
X20533Y33206D3*
Y32581D3*
X20221Y33206D3*
X11190Y34440D3*
X20221Y32581D3*
X23440Y42440D3*
X11190Y35440D3*
X10190D3*
X26440Y18940D3*
X25440Y17940D3*
X20553Y8155D3*
Y7843D3*
X20554Y7548D3*
Y7236D3*
X20241Y7548D3*
X25440Y12940D3*
X20866Y7548D3*
X20241Y7236D3*
X20866D3*
X20240Y8155D3*
X20865D3*
X20240Y7843D3*
X20865D3*
X20552Y8762D3*
Y8450D3*
X20239Y8762D3*
X20864D3*
X20239Y8450D3*
X20864D3*
X20551Y9057D3*
X20238D3*
X20863D3*
X20560Y6946D3*
Y6633D3*
X20248Y6946D3*
X11253Y36440D3*
Y37440D3*
X20873Y6946D3*
X20248Y6633D3*
X20873D3*
X20565Y6334D3*
Y6022D3*
X20252Y6334D3*
X20877D3*
X20252Y6022D3*
X20877D3*
X20565Y5710D3*
X20253D3*
X20878D3*
X5190Y36440D3*
X6190D3*
X5190Y35440D3*
X6190D3*
X7190D3*
Y34440D3*
X19440Y41440D3*
X20440D3*
X21440D3*
X22440D3*
X23440D3*
X24440D3*
X19440Y42440D3*
X16440Y11940D3*
X15570Y12940D3*
X20440Y42440D3*
X21440D3*
X22440D3*
X8190Y34940D3*
X10191Y40882D3*
Y41194D3*
X10504D3*
Y40882D3*
X9879Y41194D3*
Y40882D3*
Y40569D3*
X10191D3*
X10504D3*
X22440Y40440D3*
X23440Y39440D3*
X24440D3*
X25440D3*
X26440D3*
X27440D3*
X21440Y40440D3*
X20440D3*
X20428Y16110D3*
Y15798D3*
Y15503D3*
X21140Y33207D3*
Y32582D3*
X20828Y33207D3*
Y32582D3*
X21747Y32895D3*
X21435D3*
X21747Y33207D3*
Y32582D3*
X21435Y33207D3*
Y32582D3*
X22042Y32896D3*
Y33208D3*
Y32583D3*
X19931Y32887D3*
X19618D3*
X19931Y33199D3*
Y32574D3*
X19618Y33199D3*
Y32574D3*
X19440Y40440D3*
X27440Y38440D3*
Y37440D3*
Y36440D3*
X19440Y39440D3*
X9190Y34440D3*
X23440Y40440D3*
X24440D3*
X25440D3*
X26440D3*
X27440D3*
X26440Y38440D3*
X25440D3*
X24440D3*
X23440D3*
X19319Y32882D3*
X24440Y37440D3*
Y36440D3*
X19007Y32882D3*
X19319Y33195D3*
Y32570D3*
X19007Y33195D3*
Y32570D3*
X18695Y32882D3*
Y33194D3*
Y32569D3*
X20428Y15191D3*
X20116Y15503D3*
X20741D3*
X20116Y15191D3*
X20741D3*
X20115Y16110D3*
X20740D3*
X20115Y15798D3*
X20740D3*
X20427Y16717D3*
Y16405D3*
X20114Y16717D3*
X20739D3*
X20114Y16405D3*
X20739D3*
X20426Y17012D3*
X20113D3*
X20738D3*
X20435Y14901D3*
Y14588D3*
X20123Y14901D3*
X20748D3*
X20123Y14588D3*
X20748D3*
X20440Y14289D3*
Y13977D3*
X20127Y14289D3*
X20752D3*
X20127Y13977D3*
X20752D3*
X20440Y13665D3*
X20128D3*
X20753D3*
X26440Y37440D3*
Y36440D3*
X25315Y36378D3*
Y37690D3*
X8690Y34940D3*
X9190D3*
X9690D3*
X10190D3*
X9690Y34440D3*
X8690D3*
X9690Y35440D3*
X9190D3*
X8690D3*
X21940Y37440D3*
X20730Y37880D3*
X23440Y36500D3*
X22440D3*
X21440Y36510D3*
X27440Y34690D3*
Y33690D3*
Y32690D3*
Y31690D3*
Y30690D3*
Y29690D3*
Y28815D3*
X24440Y35690D3*
X25440D3*
Y34690D3*
X26440D3*
X24410Y33690D3*
X25440D3*
X26440D3*
X24440Y32690D3*
X25440D3*
X26440D3*
X24440Y30190D3*
X23440Y30440D3*
Y29690D3*
X23627Y28190D3*
X24530D3*
X25590D3*
X26600D3*
X24190Y29190D3*
X25440Y30190D3*
X26440Y30315D3*
X27440Y27940D3*
Y23940D3*
Y21940D3*
Y20940D3*
Y19940D3*
Y18940D3*
Y17940D3*
X26440D3*
X27440Y12940D3*
Y11940D3*
X26440D3*
X22440D3*
X23440D3*
X24440D3*
X25440D3*
X26440Y12940D3*
X24440D3*
X22440Y10940D3*
X23440D3*
X24440D3*
X25440D3*
X27440Y6940D3*
X26440D3*
X24440Y4940D3*
X23440D3*
X21440D3*
X20440D3*
X15440D3*
X16440D3*
X17440D3*
X18440D3*
X19440D3*
X14440D3*
Y5940D3*
Y6940D3*
X12440Y7940D3*
X13440D3*
X14440D3*
X13440Y6940D3*
X12440D3*
X13440Y5890D3*
X12430Y5920D3*
X15440Y5940D3*
X16440D3*
X17440D3*
X18440D3*
X15440Y6940D3*
X16440D3*
X15440Y7940D3*
X17440Y11940D3*
Y10940D3*
Y9940D3*
Y12940D3*
X16440D3*
X15540Y13940D3*
X16440D3*
Y14940D3*
Y15940D3*
X17390D3*
X17440Y14940D3*
Y13940D3*
X18440Y12940D3*
X19440D3*
X20440D3*
X21490Y12890D3*
X18440Y13940D3*
X18390Y14940D3*
X15650Y14930D3*
X21440Y23940D3*
Y24940D3*
X20440D3*
X19440D3*
X18440D3*
X17440D3*
Y23940D3*
X17480Y22940D3*
X17440Y21940D3*
X18440D3*
X19440D3*
X20440D3*
X21440D3*
Y20940D3*
Y19940D3*
X22440D3*
X20440Y20940D3*
X6529Y42945D2*
X12472D1*
X13428D2*
X25351D1*
X6717Y42697D2*
X11128D1*
X11522D2*
X12382D1*
X13518D2*
X19194D1*
X19686D2*
X20194D1*
X20686D2*
X21194D1*
X21686D2*
X22194D1*
X22686D2*
X23194D1*
X23686D2*
X25163D1*
X6838Y42448D2*
X10964D1*
X11686D2*
X12413D1*
X13486D2*
X14019D1*
X15135D2*
X15671D1*
X16787D2*
X17319D1*
X18436D2*
X19077D1*
X19803D2*
X20077D1*
X20803D2*
X21077D1*
X21803D2*
X22077D1*
X22803D2*
X23077D1*
X23803D2*
X25042D1*
X6904Y42199D2*
X11030D1*
X11619D2*
X12601D1*
X13299D2*
X13874D1*
X15279D2*
X15526D1*
X16928D2*
X17175D1*
X18580D2*
X19179D1*
X19701D2*
X20179D1*
X20701D2*
X21179D1*
X21701D2*
X22179D1*
X22701D2*
X23179D1*
X23701D2*
X24976D1*
X6928Y41951D2*
X13839D1*
X15315D2*
X15491D1*
X16963D2*
X17140D1*
X18615D2*
X24952D1*
X6908Y41702D2*
X8952D1*
X9522D2*
X13894D1*
X15260D2*
X15546D1*
X16912D2*
X17194D1*
X18561D2*
X19202D1*
X19678D2*
X20202D1*
X20678D2*
X21202D1*
X21678D2*
X22202D1*
X22678D2*
X23202D1*
X23678D2*
X24202D1*
X24678D2*
X24972D1*
X6846Y41453D2*
X8878D1*
X9600D2*
X14065D1*
X15088D2*
X15718D1*
X16736D2*
X17366D1*
X18389D2*
X19077D1*
X19803D2*
X20077D1*
X20803D2*
X21077D1*
X21803D2*
X22077D1*
X22803D2*
X23077D1*
X23803D2*
X24077D1*
X24803D2*
X25034D1*
X6729Y41205D2*
X9026D1*
X9447D2*
X19171D1*
X19709D2*
X20171D1*
X20709D2*
X21171D1*
X21709D2*
X22171D1*
X22709D2*
X23171D1*
X23709D2*
X24171D1*
X24709D2*
X25151D1*
X6549Y40956D2*
X12237D1*
X12865D2*
X25331D1*
X6252Y40707D2*
X12194D1*
X12904D2*
X19210D1*
X19670D2*
X20210D1*
X20670D2*
X21210D1*
X21670D2*
X22210D1*
X22670D2*
X23210D1*
X23670D2*
X24210D1*
X24670D2*
X25210D1*
X5842Y40459D2*
X12421D1*
X12681D2*
X14245D1*
X14908D2*
X15897D1*
X16561D2*
X17140D1*
X18615D2*
X19077D1*
X19803D2*
X20077D1*
X20803D2*
X21077D1*
X21803D2*
X22077D1*
X22803D2*
X23077D1*
X23803D2*
X24077D1*
X24803D2*
X25077D1*
X25803D2*
X26077D1*
X5842Y40210D2*
X13960D1*
X15197D2*
X15608D1*
X16846D2*
X17140D1*
X18615D2*
X19167D1*
X19713D2*
X20167D1*
X20713D2*
X21167D1*
X21713D2*
X22167D1*
X22713D2*
X23167D1*
X23713D2*
X24167D1*
X24713D2*
X25167D1*
X25713D2*
X26167D1*
X5842Y39961D2*
X9784D1*
X10486D2*
X13854D1*
X15299D2*
X15503D1*
X16951D2*
X17140D1*
X18615D2*
X21269D1*
X22963D2*
X26167D1*
X5842Y39713D2*
X9815D1*
X10455D2*
X13847D1*
X15307D2*
X15495D1*
X16959D2*
X17140D1*
X18615D2*
X19214D1*
X19666D2*
X21128D1*
X23104D2*
X23212D1*
X23666D2*
X24214D1*
X24666D2*
X25214D1*
X25838D2*
X26167D1*
X5842Y39464D2*
X13933D1*
X15225D2*
X15581D1*
X16873D2*
X17140D1*
X18615D2*
X19077D1*
X19803D2*
X21140D1*
X23803D2*
X24077D1*
X24803D2*
X25077D1*
X5842Y39215D2*
X14167D1*
X14986D2*
X15819D1*
X16639D2*
X17140D1*
X18615D2*
X19163D1*
X19717D2*
X21163D1*
X23065D2*
X23163D1*
X23717D2*
X24163D1*
X24717D2*
X24983D1*
X5842Y38966D2*
X21140D1*
X23088D2*
X24952D1*
X5842Y38718D2*
X21128D1*
X23100D2*
X23226D1*
X23658D2*
X24222D1*
X24658D2*
X25015D1*
X5842Y38469D2*
X21128D1*
X23803D2*
X24077D1*
X24803D2*
X25077D1*
X5842Y38220D2*
X13968D1*
X14537D2*
X21206D1*
X23026D2*
X23156D1*
X23721D2*
X24159D1*
X24721D2*
X25159D1*
X25721D2*
X26159D1*
X5842Y37972D2*
X13890D1*
X14615D2*
X20378D1*
X21080D2*
X25104D1*
X25526D2*
X26167D1*
X5842Y37723D2*
X5982D1*
X6401D2*
X6979D1*
X7401D2*
X11042D1*
X11463D2*
X14038D1*
X14467D2*
X20405D1*
X21053D2*
X21729D1*
X22151D2*
X23171D1*
X23651D2*
X24229D1*
X24651D2*
X24952D1*
X25920D2*
X26167D1*
X6553Y37474D2*
X6827D1*
X7553D2*
X10890D1*
X11615D2*
X16159D1*
X16799D2*
X17288D1*
X17932D2*
X21577D1*
X22303D2*
X23003D1*
X23815D2*
X24077D1*
X24803D2*
X25030D1*
X6475Y37226D2*
X6905D1*
X7475D2*
X10968D1*
X11537D2*
X16128D1*
X16830D2*
X17257D1*
X17963D2*
X21655D1*
X22225D2*
X23038D1*
X23783D2*
X24155D1*
X24725D2*
X24976D1*
X5842Y36977D2*
X16397D1*
X16561D2*
X17526D1*
X17691D2*
X24956D1*
X5842Y36728D2*
X5990D1*
X6393D2*
X6987D1*
X7393D2*
X7987D1*
X8393D2*
X8987D1*
X9393D2*
X11050D1*
X11455D2*
X16323D1*
X16600D2*
X17448D1*
X17815D2*
X21155D1*
X21725D2*
X22167D1*
X22713D2*
X23167D1*
X23713D2*
X24237D1*
X24643D2*
X25022D1*
X6549Y36480D2*
X6831D1*
X7549D2*
X7831D1*
X8549D2*
X8831D1*
X9549D2*
X10894D1*
X11611D2*
X16104D1*
X16815D2*
X17272D1*
X17990D2*
X21077D1*
X21803D2*
X22077D1*
X22803D2*
X23077D1*
X23803D2*
X24081D1*
X24799D2*
X24968D1*
X6479Y36231D2*
X6901D1*
X7479D2*
X7901D1*
X8479D2*
X8901D1*
X9479D2*
X10964D1*
X11541D2*
X13308D1*
X14803D2*
X16147D1*
X16772D2*
X17331D1*
X17928D2*
X21226D1*
X21654D2*
X22210D1*
X22670D2*
X23210D1*
X23670D2*
X24151D1*
X24729D2*
X24987D1*
X25643D2*
X26151D1*
X5842Y35982D2*
X13229D1*
X14893D2*
X24245D1*
X24635D2*
X25245D1*
X25635D2*
X26167D1*
X5842Y35734D2*
X5997D1*
X6381D2*
X6999D1*
X7381D2*
X7999D1*
X8381D2*
X8498D1*
X8881D2*
X8998D1*
X9381D2*
X9498D1*
X9881D2*
X9998D1*
X10381D2*
X10999D1*
X11381D2*
X13370D1*
X13811D2*
X13908D1*
X14764D2*
X24081D1*
X24799D2*
X25081D1*
X25799D2*
X26167D1*
X6549Y35485D2*
X6831D1*
X7549D2*
X7831D1*
X10549D2*
X10831D1*
X11549D2*
X24147D1*
X24733D2*
X25147D1*
X25733D2*
X26167D1*
X6483Y35236D2*
X6897D1*
X7483D2*
X7897D1*
X10483D2*
X10897D1*
X11483D2*
X26167D1*
X5842Y34987D2*
X7831D1*
X10549D2*
X25253D1*
X25627D2*
X26167D1*
X5842Y34739D2*
X7007D1*
X7373D2*
X7894D1*
X10486D2*
X11007D1*
X11373D2*
X25081D1*
X25799D2*
X26081D1*
X5842Y34490D2*
X6831D1*
X7549D2*
X7831D1*
X10549D2*
X10831D1*
X11549D2*
X14311D1*
X14947D2*
X25144D1*
X25736D2*
X26144D1*
X5842Y34241D2*
X6894D1*
X7486D2*
X7894D1*
X10486D2*
X10894D1*
X11486D2*
X12175D1*
X12861D2*
X13776D1*
X14983D2*
X26167D1*
X5842Y33993D2*
X12183D1*
X12854D2*
X13749D1*
X14740D2*
X24233D1*
X24584D2*
X25265D1*
X25615D2*
X26167D1*
X5842Y33744D2*
X6021D1*
X6361D2*
X7019D1*
X7361D2*
X8019D1*
X8361D2*
X9019D1*
X9361D2*
X13362D1*
X13936D2*
X14038D1*
X14161D2*
X24050D1*
X24768D2*
X25081D1*
X25799D2*
X26081D1*
X6549Y33495D2*
X6831D1*
X7549D2*
X7831D1*
X8549D2*
X8831D1*
X9549D2*
X11433D1*
X12127D2*
X13073D1*
X14455D2*
X15343D1*
X15756D2*
X24108D1*
X24713D2*
X25140D1*
X25740D2*
X26140D1*
X6490Y33247D2*
X6890D1*
X7490D2*
X7890D1*
X8490D2*
X8890D1*
X9490D2*
X10815D1*
X11365D2*
X11452D1*
X12111D2*
X12987D1*
X14522D2*
X15190D1*
X15912D2*
X26167D1*
X6018Y32998D2*
X9987D1*
X11451D2*
X13124D1*
X13576D2*
X13964D1*
X14354D2*
X15261D1*
X15838D2*
X24276D1*
X24604D2*
X25276D1*
X25604D2*
X26167D1*
X6111Y32749D2*
X9983D1*
X10666D2*
X10862D1*
X11319D2*
X24081D1*
X24799D2*
X25081D1*
X25799D2*
X26081D1*
X6076Y32501D2*
X24136D1*
X24744D2*
X25136D1*
X25744D2*
X26136D1*
X5889Y32252D2*
X24741D1*
X6018Y32003D2*
X24757D1*
X6108Y31755D2*
X24733D1*
X6080Y31506D2*
X17686D1*
X17975D2*
X19026D1*
X19553D2*
X21108D1*
X21635D2*
X24726D1*
X5897Y31257D2*
X17476D1*
X18186D2*
X18882D1*
X19697D2*
X20960D1*
X21779D2*
X24726D1*
X6111Y31008D2*
X8522D1*
X9158D2*
X10085D1*
X10752D2*
X17519D1*
X18139D2*
X18929D1*
X19651D2*
X21007D1*
X21733D2*
X24741D1*
X6111Y30760D2*
X7929D1*
X8334D2*
X8487D1*
X9194D2*
X10077D1*
X10764D2*
X23308D1*
X23572D2*
X24753D1*
X6111Y30511D2*
X7769D1*
X8490D2*
X8729D1*
X8950D2*
X23085D1*
X23795D2*
X24311D1*
X24572D2*
X25311D1*
X25572D2*
X26140D1*
X6111Y30262D2*
X7839D1*
X8420D2*
X23128D1*
X23752D2*
X24085D1*
X24795D2*
X25085D1*
X25795D2*
X26081D1*
X5842Y30014D2*
X6374D1*
X7147D2*
X23319D1*
X23559D2*
X24128D1*
X24752D2*
X25128D1*
X25752D2*
X26167D1*
X5842Y29765D2*
X6362D1*
X7158D2*
X23085D1*
X23795D2*
X25491D1*
X5842Y29516D2*
X6577D1*
X6944D2*
X23124D1*
X23756D2*
X24077D1*
X24303D2*
X25440D1*
X5920Y29268D2*
X23835D1*
X24545D2*
X25581D1*
X6041Y29019D2*
X8839D1*
X9463D2*
X23874D1*
X24506D2*
X26167D1*
X6033Y28770D2*
X7710D1*
X8295D2*
X8796D1*
X9506D2*
X11081D1*
X11479D2*
X26167D1*
X5893Y28522D2*
X7644D1*
X9287D2*
X10921D1*
X11639D2*
X23538D1*
X23717D2*
X24440D1*
X24620D2*
X25499D1*
X25681D2*
X26167D1*
X6053Y28273D2*
X7808D1*
X8197D2*
X8308D1*
X9244D2*
X9979D1*
X10479D2*
X10639D1*
X11572D2*
X23276D1*
X23979D2*
X24179D1*
X24881D2*
X25237D1*
X25944D2*
X26167D1*
X6053Y28024D2*
X8546D1*
X9299D2*
X9866D1*
X11272D2*
X23308D1*
X23947D2*
X24210D1*
X24850D2*
X25272D1*
X25908D2*
X26167D1*
X6053Y27775D2*
X8769D1*
X9111D2*
X9972D1*
X10486D2*
X10675D1*
X11147D2*
X13741D1*
X14518D2*
X14741D1*
X15518D2*
X15741D1*
X16518D2*
X16741D1*
X17518D2*
X17741D1*
X18518D2*
X18741D1*
X19518D2*
X19741D1*
X20518D2*
X20741D1*
X21518D2*
X21741D1*
X22518D2*
X22741D1*
X23518D2*
X23741D1*
X24518D2*
X24741D1*
X25518D2*
X25741D1*
X6053Y27527D2*
X13608D1*
X5842Y27278D2*
X11925D1*
X12295D2*
X13616D1*
X5842Y27029D2*
X8265D1*
X8936D2*
X11749D1*
X12471D2*
X13780D1*
X14479D2*
X14780D1*
X15479D2*
X15780D1*
X16479D2*
X16780D1*
X17479D2*
X17780D1*
X18479D2*
X18780D1*
X19479D2*
X19780D1*
X20479D2*
X20780D1*
X21479D2*
X21780D1*
X22479D2*
X22780D1*
X23479D2*
X23780D1*
X24479D2*
X24780D1*
X25479D2*
X25780D1*
X5842Y26781D2*
X8261D1*
X8940D2*
X10788D1*
X11330D2*
X11811D1*
X12408D2*
X13597D1*
X14662D2*
X14748D1*
X15514D2*
X15749D1*
X16514D2*
X16749D1*
X17514D2*
X17749D1*
X18514D2*
X18749D1*
X19514D2*
X19749D1*
X20514D2*
X20749D1*
X21514D2*
X21749D1*
X22514D2*
X22749D1*
X23514D2*
X23749D1*
X24514D2*
X24749D1*
X25514D2*
X25749D1*
X5842Y26532D2*
X10698D1*
X11424D2*
X13597D1*
X5842Y26283D2*
X10827D1*
X11291D2*
X13597D1*
X5842Y26035D2*
X13597D1*
X14662D2*
X14776D1*
X15486D2*
X15772D1*
X16486D2*
X16772D1*
X17486D2*
X17772D1*
X18486D2*
X18772D1*
X19486D2*
X19772D1*
X20486D2*
X20772D1*
X21486D2*
X21772D1*
X22486D2*
X22772D1*
X23486D2*
X23772D1*
X24486D2*
X24772D1*
X25486D2*
X25772D1*
X5842Y25786D2*
X10577D1*
X11045D2*
X13936D1*
X14346D2*
X26167D1*
X5842Y25537D2*
X6136D1*
X6744D2*
X10448D1*
X11174D2*
X13288D1*
X14502D2*
X26167D1*
X5842Y25289D2*
X6081D1*
X6799D2*
X10538D1*
X11080D2*
X13245D1*
X14428D2*
X26167D1*
X5842Y25040D2*
X6116D1*
X6725D2*
X13468D1*
X14967D2*
X26167D1*
X5842Y24791D2*
X6061D1*
X6779D2*
X13577D1*
X14947D2*
X26167D1*
X5842Y24543D2*
X6257D1*
X6584D2*
X13835D1*
X14526D2*
X26167D1*
X5842Y24294D2*
X13851D1*
X14510D2*
X26167D1*
X5842Y24045D2*
X8159D1*
X8760D2*
X11702D1*
X12115D2*
X26167D1*
X6283Y23796D2*
X8101D1*
X8819D2*
X11550D1*
X12272D2*
X12476D1*
X13026D2*
X20280D1*
X20998D2*
X21530D1*
X22248D2*
X26167D1*
X6412Y23548D2*
X6979D1*
X7662D2*
X8284D1*
X8635D2*
X11624D1*
X12197D2*
X12390D1*
X13111D2*
X20229D1*
X21049D2*
X21479D1*
X22299D2*
X26167D1*
X6717Y23299D2*
X6983D1*
X7658D2*
X10581D1*
X11162D2*
X12522D1*
X12979D2*
X20370D1*
X20908D2*
X21620D1*
X22158D2*
X26167D1*
X5842Y23050D2*
X6042D1*
X6994D2*
X10511D1*
X11229D2*
X12210D1*
X12791D2*
X14351D1*
X14807D2*
X26167D1*
X5842Y22802D2*
X6319D1*
X7022D2*
X10667D1*
X11072D2*
X12140D1*
X12861D2*
X14218D1*
X14944D2*
X20257D1*
X21022D2*
X21507D1*
X22272D2*
X23550D1*
X24111D2*
X25608D1*
X5842Y22553D2*
X6620D1*
X6721D2*
X12296D1*
X12705D2*
X12827D1*
X13490D2*
X14304D1*
X14854D2*
X20241D1*
X21041D2*
X21491D1*
X22291D2*
X23421D1*
X24240D2*
X25479D1*
X5842Y22304D2*
X11128D1*
X11471D2*
X11562D1*
X12256D2*
X12815D1*
X13506D2*
X20440D1*
X20842D2*
X21690D1*
X22092D2*
X23476D1*
X24186D2*
X25538D1*
X5842Y22056D2*
X10940D1*
X12240D2*
X15194D1*
X15604D2*
X26167D1*
X5842Y21807D2*
X10796D1*
X11604D2*
X15038D1*
X15760D2*
X26167D1*
X5842Y21558D2*
X10620D1*
X11795D2*
X13706D1*
X14194D2*
X15112D1*
X15690D2*
X15878D1*
X16424D2*
X16558D1*
X17104D2*
X26167D1*
X5842Y21310D2*
X10683D1*
X11904D2*
X13589D1*
X14315D2*
X15788D1*
X17194D2*
X26167D1*
X5842Y21061D2*
X10440D1*
X10920D2*
X11288D1*
X11795D2*
X13686D1*
X14213D2*
X15921D1*
X16381D2*
X16601D1*
X17061D2*
X26167D1*
X5842Y20812D2*
X10319D1*
X11041D2*
X18644D1*
X19236D2*
X26167D1*
X5842Y20564D2*
X10413D1*
X10947D2*
X18581D1*
X19299D2*
X26167D1*
X5842Y20315D2*
X18749D1*
X19131D2*
X26167D1*
X5842Y20066D2*
X16862D1*
X17236D2*
X26167D1*
X5842Y19817D2*
X16261D1*
X16541D2*
X16690D1*
X17408D2*
X26167D1*
X5842Y19569D2*
X16046D1*
X17346D2*
X26167D1*
X5842Y19320D2*
X16089D1*
X16709D2*
X17167D1*
X17694D2*
X26167D1*
X5842Y19071D2*
X9167D1*
X9838D2*
X14753D1*
X15440D2*
X17065D1*
X17791D2*
X26167D1*
X5842Y18823D2*
X9159D1*
X9846D2*
X14761D1*
X15428D2*
X17186D1*
X17674D2*
X26167D1*
X5842Y18574D2*
X11870D1*
X12389D2*
X13628D1*
X13971D2*
X14123D1*
X15018D2*
X26167D1*
X5842Y18325D2*
X8386D1*
X8678D2*
X11769D1*
X12865D2*
X13440D1*
X15104D2*
X26167D1*
X5842Y18077D2*
X8175D1*
X8885D2*
X11882D1*
X12994D2*
X13499D1*
X14963D2*
X22292D1*
X22586D2*
X26167D1*
X5842Y17828D2*
X8222D1*
X8838D2*
X10694D1*
X11244D2*
X12358D1*
X12901D2*
X22081D1*
X22795D2*
X26167D1*
X5842Y17579D2*
X10608D1*
X11838D2*
X12561D1*
X13197D2*
X13362D1*
X14018D2*
X15315D1*
X15963D2*
X22132D1*
X22748D2*
X26167D1*
X5842Y17331D2*
X10741D1*
X11873D2*
X12526D1*
X13233D2*
X13339D1*
X14037D2*
X15288D1*
X15990D2*
X26167D1*
X5842Y17082D2*
X11413D1*
X11627D2*
X12433D1*
X12986D2*
X13331D1*
X13959D2*
X25933D1*
X5842Y16833D2*
X12308D1*
X13033D2*
X13288D1*
X14002D2*
X25851D1*
X5842Y16585D2*
X7804D1*
X8498D2*
X12401D1*
X13319D2*
X13515D1*
X13776D2*
X14300D1*
X14975D2*
X18515D1*
X19205D2*
X21749D1*
X22514D2*
X25890D1*
X5842Y16336D2*
X7819D1*
X8479D2*
X12679D1*
X13401D2*
X14073D1*
X14979D2*
X15651D1*
X16186D2*
X18530D1*
X19190D2*
X21729D1*
X22529D2*
X26089D1*
X5842Y16087D2*
X12815D1*
X13264D2*
X13999D1*
X14721D2*
X15558D1*
X16283D2*
X21933D1*
X22326D2*
X25936D1*
X5842Y15838D2*
X14147D1*
X14572D2*
X15683D1*
X16158D2*
X25851D1*
X5842Y15590D2*
X25886D1*
X5842Y15341D2*
X14780D1*
X15479D2*
X26081D1*
X5842Y15092D2*
X8210D1*
X8709D2*
X10581D1*
X11119D2*
X11503D1*
X11756D2*
X12819D1*
X13463D2*
X14808D1*
X15455D2*
X25940D1*
X5842Y14844D2*
X8097D1*
X8822D2*
X10487D1*
X11986D2*
X12788D1*
X13490D2*
X25851D1*
X5842Y14595D2*
X8202D1*
X8717D2*
X10616D1*
X11084D2*
X11315D1*
X11944D2*
X21800D1*
X22459D2*
X25886D1*
X5842Y14346D2*
X10733D1*
X11244D2*
X11593D1*
X12287D2*
X21718D1*
X22541D2*
X26077D1*
X5842Y14098D2*
X10628D1*
X11354D2*
X11612D1*
X12311D2*
X13675D1*
X14045D2*
X21815D1*
X22444D2*
X25851D1*
X6381Y13849D2*
X6465D1*
X7166D2*
X10737D1*
X11240D2*
X11815D1*
X12526D2*
X13499D1*
X14221D2*
X25851D1*
X7326Y13600D2*
X11858D1*
X12483D2*
X13561D1*
X14158D2*
X25851D1*
X7338Y13352D2*
X11843D1*
X12498D2*
X25851D1*
X7201Y13103D2*
X11823D1*
X12518D2*
X26167D1*
X7178Y12854D2*
X22186D1*
X22776D2*
X26167D1*
X7330Y12606D2*
X22120D1*
X22842D2*
X26167D1*
X7334Y12357D2*
X22288D1*
X22674D2*
X26167D1*
X7190Y12108D2*
X20476D1*
X21045D2*
X21565D1*
X22135D2*
X26167D1*
X5842Y11859D2*
X20351D1*
X21170D2*
X21440D1*
X22260D2*
X26167D1*
X5842Y11611D2*
X20409D1*
X21111D2*
X21499D1*
X22201D2*
X26112D1*
X5842Y11362D2*
X25925D1*
X5842Y11113D2*
X20479D1*
X21037D2*
X21581D1*
X22139D2*
X25894D1*
X5842Y10865D2*
X10792D1*
X11428D2*
X11792D1*
X12428D2*
X12792D1*
X13428D2*
X13792D1*
X14428D2*
X14577D1*
X15643D2*
X20351D1*
X21170D2*
X21448D1*
X22272D2*
X25983D1*
X5842Y10616D2*
X10604D1*
X15643D2*
X20405D1*
X21115D2*
X21507D1*
X22213D2*
X26120D1*
X5842Y10367D2*
X10585D1*
X15643D2*
X25925D1*
X5842Y10119D2*
X10698D1*
X11522D2*
X11698D1*
X12522D2*
X12698D1*
X13522D2*
X13698D1*
X15643D2*
X22261D1*
X22865D2*
X25890D1*
X5842Y9870D2*
X10800D1*
X11420D2*
X11800D1*
X12420D2*
X12800D1*
X13420D2*
X13800D1*
X14420D2*
X14800D1*
X15420D2*
X22206D1*
X22924D2*
X25979D1*
X5842Y9621D2*
X10608D1*
X15611D2*
X22390D1*
X22736D2*
X26128D1*
X5842Y9373D2*
X10581D1*
X15639D2*
X25929D1*
X5842Y9124D2*
X10694D1*
X11526D2*
X11694D1*
X12526D2*
X12694D1*
X13526D2*
X13694D1*
X14526D2*
X14694D1*
X15592D2*
X16542D1*
X17100D2*
X25890D1*
X5842Y8875D2*
X14933D1*
X15647D2*
X16460D1*
X17182D2*
X17358D1*
X17701D2*
X25976D1*
X5842Y8627D2*
X15116D1*
X15463D2*
X16597D1*
X17045D2*
X17171D1*
X17889D2*
X21925D1*
X22674D2*
X25890D1*
X5842Y8378D2*
X17226D1*
X17834D2*
X21897D1*
X22705D2*
X25890D1*
X5842Y8129D2*
X22073D1*
X22526D2*
X25890D1*
X5842Y7880D2*
X25890D1*
X5842Y7632D2*
X25890D1*
X5842Y7383D2*
X26167D1*
X5842Y7134D2*
X26167D1*
X5842Y6886D2*
X26167D1*
X17289Y40528D2*
X18590D1*
Y39102D1*
X17164D1*
Y40528D1*
X17289D1*
X16930Y39691D2*
X16897Y39570D1*
X16844Y39457D1*
X16772Y39355D1*
X16684Y39267D1*
X16581Y39196D1*
X16468Y39144D1*
X16347Y39112D1*
X16222Y39102D1*
X16098Y39114D1*
X15978Y39147D1*
X15865Y39201D1*
X15764Y39274D1*
X15676Y39363D1*
X15606Y39466D1*
X15554Y39580D1*
X15524Y39701D1*
X15515Y39825D1*
X15527Y39949D1*
X15561Y40069D1*
X15616Y40182D1*
X15689Y40283D1*
X15779Y40369D1*
X15883Y40439D1*
X15997Y40490D1*
X16118Y40520D1*
X16243Y40528D1*
X16367Y40514D1*
X16486Y40479D1*
X16598Y40424D1*
X16699Y40350D1*
X16785Y40259D1*
X16854Y40155D1*
X16904Y40041D1*
X16933Y39920D1*
X16940Y39815D1*
X16930Y39691D1*
X15280D2*
X15247Y39570D1*
X15194Y39457D1*
X15122Y39355D1*
X15034Y39267D1*
X14931Y39196D1*
X14818Y39144D1*
X14697Y39112D1*
X14572Y39102D1*
X14448Y39114D1*
X14328Y39147D1*
X14215Y39201D1*
X14114Y39274D1*
X14026Y39363D1*
X13956Y39466D1*
X13904Y39580D1*
X13874Y39701D1*
X13865Y39825D1*
X13877Y39949D1*
X13911Y40069D1*
X13966Y40182D1*
X14039Y40283D1*
X14129Y40369D1*
X14233Y40439D1*
X14347Y40490D1*
X14468Y40520D1*
X14593Y40528D1*
X14717Y40514D1*
X14836Y40479D1*
X14948Y40424D1*
X15049Y40350D1*
X15135Y40259D1*
X15204Y40155D1*
X15254Y40041D1*
X15283Y39920D1*
X15290Y39815D1*
X15280Y39691D1*
X18590Y41950D2*
X18575Y41826D1*
X18538Y41707D1*
X18481Y41596D1*
X18406Y41496D1*
X18314Y41411D1*
X18209Y41344D1*
X18094Y41296D1*
X17972Y41268D1*
X17847Y41263D1*
X17724Y41279D1*
X17605Y41316D1*
X17494Y41374D1*
X17395Y41450D1*
X17311Y41542D1*
X17244Y41648D1*
X17197Y41763D1*
X17170Y41885D1*
X17165Y42010D1*
X17182Y42134D1*
X17221Y42253D1*
X17279Y42363D1*
X17356Y42461D1*
X17449Y42545D1*
X17555Y42611D1*
X17671Y42657D1*
X17793Y42683D1*
X17918Y42687D1*
X18041Y42669D1*
X18160Y42630D1*
X18270Y42571D1*
X18367Y42493D1*
X18450Y42400D1*
X18516Y42293D1*
X18561Y42177D1*
X18586Y42055D1*
X18590Y41950D1*
X16940D2*
X16925Y41826D1*
X16888Y41707D1*
X16831Y41596D1*
X16756Y41496D1*
X16664Y41411D1*
X16559Y41344D1*
X16444Y41296D1*
X16322Y41268D1*
X16197Y41263D1*
X16074Y41279D1*
X15955Y41316D1*
X15844Y41374D1*
X15745Y41450D1*
X15661Y41542D1*
X15594Y41648D1*
X15547Y41763D1*
X15520Y41885D1*
X15515Y42010D1*
X15532Y42134D1*
X15571Y42253D1*
X15629Y42363D1*
X15706Y42461D1*
X15799Y42545D1*
X15905Y42611D1*
X16021Y42657D1*
X16143Y42683D1*
X16268Y42687D1*
X16391Y42669D1*
X16510Y42630D1*
X16620Y42571D1*
X16717Y42493D1*
X16800Y42400D1*
X16866Y42293D1*
X16911Y42177D1*
X16936Y42055D1*
X16940Y41950D1*
X15290D2*
X15275Y41826D1*
X15238Y41707D1*
X15181Y41596D1*
X15106Y41496D1*
X15014Y41411D1*
X14909Y41344D1*
X14794Y41296D1*
X14672Y41268D1*
X14547Y41263D1*
X14424Y41279D1*
X14305Y41316D1*
X14194Y41374D1*
X14095Y41450D1*
X14011Y41542D1*
X13944Y41648D1*
X13897Y41763D1*
X13870Y41885D1*
X13865Y42010D1*
X13882Y42134D1*
X13921Y42253D1*
X13979Y42363D1*
X14056Y42461D1*
X14149Y42545D1*
X14255Y42611D1*
X14371Y42657D1*
X14493Y42683D1*
X14618Y42687D1*
X14741Y42669D1*
X14860Y42630D1*
X14970Y42571D1*
X15067Y42493D1*
X15150Y42400D1*
X15216Y42293D1*
X15261Y42177D1*
X15286Y42055D1*
X15290Y41950D1*
X26105Y36463D2*
X26044Y36421D1*
X25930Y36369D1*
X25809Y36337D1*
X25650Y36330D1*
X25630Y36255D1*
X25565Y36150D1*
X25465Y36075D1*
X25346Y36041D1*
X25222Y36053D1*
X25111Y36108D1*
X25027Y36200D1*
X24983Y36316D1*
Y36440D1*
X25028Y36556D1*
X25104Y36639D1*
X25068Y36691D1*
X25017Y36805D1*
X24986Y36926D1*
X24977Y37050D1*
X24990Y37174D1*
X25024Y37294D1*
X25099Y37435D1*
X25027Y37513D1*
X24983Y37628D1*
Y37753D1*
X25028Y37869D1*
X25112Y37960D1*
X25223Y38015D1*
X25347Y38026D1*
X25467Y37992D1*
X25566Y37917D1*
X25631Y37811D1*
X25641Y37754D1*
X25829Y37739D1*
X25949Y37704D1*
X26061Y37649D1*
X26139Y37591D1*
X26192Y37662D1*
Y38210D1*
X26152Y38263D1*
X26108Y38378D1*
Y38429D1*
X25930Y38339D1*
X25809Y38307D1*
X25751Y38302D1*
X25690Y38212D1*
X25590Y38137D1*
X25471Y38103D1*
X25347Y38115D1*
X25236Y38171D1*
X25152Y38263D1*
X25108Y38378D1*
Y38503D1*
X25132Y38564D1*
X25068Y38661D1*
X25017Y38775D1*
X24986Y38896D1*
X24977Y39020D1*
X24990Y39144D1*
X25024Y39264D1*
X25104Y39411D1*
X25108Y39503D1*
X25153Y39619D1*
X25237Y39710D1*
X25348Y39765D1*
X25472Y39776D1*
X25592Y39742D1*
X25619Y39721D1*
X25705Y39723D1*
X25829Y39709D1*
X25949Y39674D1*
X26061Y39619D1*
X26127Y39570D1*
X26153Y39619D1*
X26192Y39662D1*
Y40210D1*
X26152Y40263D1*
X26108Y40378D1*
X26112Y40514D1*
X25878Y40589D1*
X25656Y40705D1*
X25458Y40856D1*
X25288Y41039D1*
X25151Y41248D1*
X25052Y41477D1*
X24994Y41720D1*
X24977Y41969D1*
X25003Y42217D1*
X25072Y42457D1*
X25179Y42683D1*
X25324Y42886D1*
X25501Y43062D1*
X25689Y43195D1*
X6196Y43194D1*
X6349Y43086D1*
X6531Y42915D1*
X6681Y42715D1*
X6794Y42493D1*
X6869Y42255D1*
X6901Y42007D1*
X6898Y41815D1*
X6855Y41569D1*
X6772Y41334D1*
X6649Y41116D1*
X6491Y40923D1*
X6303Y40759D1*
X6090Y40629D1*
X5857Y40538D1*
X5816Y40527D1*
X5815Y33167D1*
X5920Y33087D1*
X5999Y32991D1*
X6055Y32880D1*
X6084Y32758D1*
X6088Y32692D1*
X6073Y32569D1*
X6032Y32451D1*
X5964Y32346D1*
X5875Y32259D1*
X5818Y32225D1*
X5815Y32167D1*
X5920Y32087D1*
X5999Y31991D1*
X6055Y31880D1*
X6084Y31758D1*
X6088Y31692D1*
X6073Y31569D1*
X6032Y31451D1*
X5964Y31346D1*
X5845Y31241D1*
X6088Y31240D1*
Y30145D1*
X5818D1*
X5815Y29346D1*
X5939Y29209D1*
X5995Y29097D1*
X6024Y28976D1*
X6028Y28910D1*
X6013Y28786D1*
X5972Y28669D1*
X5904Y28564D1*
X5818Y28479D1*
X5932Y28458D1*
X6028D1*
Y27362D1*
X5813D1*
X5815Y25819D1*
Y23776D1*
X5958Y23855D1*
X6082Y23866D1*
X6202Y23832D1*
X6301Y23757D1*
X6366Y23651D1*
X6388Y23530D1*
X6380Y23488D1*
X6422Y23486D1*
X6542Y23452D1*
X6641Y23377D1*
X6706Y23271D1*
X6715Y23222D1*
X6822Y23192D1*
X6921Y23117D1*
X6986Y23011D1*
X7008Y22890D1*
X6985Y22768D1*
X6920Y22662D1*
X6820Y22587D1*
X6701Y22553D1*
X6577Y22565D1*
X6466Y22621D1*
X6382Y22713D1*
X6342Y22818D1*
X6297Y22825D1*
X6186Y22881D1*
X6102Y22973D1*
X6058Y23088D1*
Y23193D1*
X5957Y23205D1*
X5846Y23261D1*
X5817Y23292D1*
X5815Y20319D1*
Y13925D1*
X5886Y13948D1*
X6009Y13968D1*
X6133Y13957D1*
X6251Y13916D1*
X6355Y13848D1*
X6421Y13777D1*
X6459Y13823D1*
X6558Y13898D1*
X6673Y13948D1*
X6796Y13968D1*
X6920Y13957D1*
X7038Y13916D1*
X7143Y13848D1*
X7227Y13757D1*
X7287Y13647D1*
X7319Y13527D1*
X7323Y13460D1*
X7308Y13336D1*
X7263Y13220D1*
X7191Y13118D1*
X7096Y13037D1*
X6985Y12981D1*
X6935Y12970D1*
X7038Y12932D1*
X7143Y12864D1*
X7227Y12772D1*
X7287Y12663D1*
X7319Y12542D1*
X7323Y12476D1*
X7308Y12352D1*
X7263Y12236D1*
X7191Y12134D1*
X7096Y12053D1*
X6985Y11997D1*
X6863Y11970D1*
X6738Y11974D1*
X6618Y12007D1*
X6510Y12069D1*
X6420Y12153D1*
X6329Y12067D1*
X6221Y12006D1*
X6100Y11973D1*
X5976Y11970D1*
X5854Y11998D1*
X5814Y12015D1*
X5815Y6854D1*
X6029Y6779D1*
X6198Y6690D1*
X22022D1*
X22106Y6757D1*
X22222Y6802D1*
X22346Y6807D1*
X22466Y6772D1*
X22576Y6692D1*
X25440Y6690D1*
X25678D1*
X25816Y6763D1*
X26051Y6850D1*
X26192Y6881D1*
X26190Y7624D1*
X25914Y7622D1*
Y8718D1*
X26152D1*
X26104Y8755D1*
X26019Y8847D1*
X25958Y8956D1*
X25922Y9075D1*
X25915Y9200D1*
X25936Y9323D1*
X25984Y9438D1*
X26057Y9539D1*
X26151Y9621D1*
X26188Y9641D1*
X26190Y9694D1*
X26104Y9755D1*
X26019Y9847D1*
X25958Y9956D1*
X25922Y10075D1*
X25915Y10200D1*
X25936Y10323D1*
X25984Y10438D1*
X26057Y10539D1*
X26151Y10621D1*
X26188Y10641D1*
X26190Y10694D1*
X26104Y10755D1*
X26019Y10847D1*
X25958Y10956D1*
X25922Y11075D1*
X25915Y11200D1*
X25936Y11323D1*
X25984Y11438D1*
X26057Y11539D1*
X26151Y11621D1*
X26188Y11641D1*
X26190Y13241D1*
X25874Y13242D1*
Y14337D1*
X26112D1*
X26064Y14375D1*
X25979Y14467D1*
X25918Y14575D1*
X25882Y14695D1*
X25875Y14819D1*
X25896Y14942D1*
X25944Y15057D1*
X26017Y15159D1*
X26111Y15241D1*
X26190Y15283D1*
X26064Y15375D1*
X25979Y15467D1*
X25918Y15575D1*
X25882Y15695D1*
X25875Y15819D1*
X25896Y15942D1*
X25944Y16057D1*
X26017Y16159D1*
X26111Y16241D1*
X26190Y16283D1*
X26064Y16375D1*
X25979Y16467D1*
X25918Y16575D1*
X25882Y16695D1*
X25875Y16819D1*
X25896Y16942D1*
X25944Y17057D1*
X26017Y17159D1*
X26111Y17241D1*
X26190Y17283D1*
X26191Y22264D1*
X26110Y22191D1*
X25998Y22137D1*
X25874Y22122D1*
X25753Y22147D1*
X25645Y22209D1*
X25562Y22302D1*
X25513Y22417D1*
X25503Y22541D1*
X25533Y22662D1*
X25599Y22767D1*
X25696Y22846D1*
X25812Y22890D1*
X25936Y22895D1*
X26056Y22861D1*
X26159Y22790D1*
X26189Y22750D1*
X26191Y25315D1*
Y25913D1*
X26054Y25917D1*
X25934Y25951D1*
X25825Y26013D1*
X25736Y26099D1*
X25669Y26205D1*
X25631Y26328D1*
X25578Y26180D1*
X25506Y26078D1*
X25412Y25997D1*
X25300Y25941D1*
X25178Y25914D1*
X25054Y25917D1*
X24934Y25951D1*
X24825Y26013D1*
X24736Y26099D1*
X24669Y26205D1*
X24631Y26328D1*
X24578Y26180D1*
X24506Y26078D1*
X24412Y25997D1*
X24300Y25941D1*
X24178Y25914D1*
X24054Y25917D1*
X23934Y25951D1*
X23825Y26013D1*
X23736Y26099D1*
X23669Y26205D1*
X23631Y26328D1*
X23578Y26180D1*
X23506Y26078D1*
X23412Y25997D1*
X23300Y25941D1*
X23178Y25914D1*
X23054Y25917D1*
X22934Y25951D1*
X22825Y26013D1*
X22736Y26099D1*
X22669Y26205D1*
X22631Y26328D1*
X22578Y26180D1*
X22506Y26078D1*
X22412Y25997D1*
X22300Y25941D1*
X22178Y25914D1*
X22054Y25917D1*
X21934Y25951D1*
X21825Y26013D1*
X21736Y26099D1*
X21669Y26205D1*
X21631Y26328D1*
X21578Y26180D1*
X21506Y26078D1*
X21412Y25997D1*
X21300Y25941D1*
X21178Y25914D1*
X21054Y25917D1*
X20934Y25951D1*
X20825Y26013D1*
X20736Y26099D1*
X20669Y26205D1*
X20631Y26328D1*
X20578Y26180D1*
X20506Y26078D1*
X20412Y25997D1*
X20300Y25941D1*
X20178Y25914D1*
X20054Y25917D1*
X19934Y25951D1*
X19825Y26013D1*
X19736Y26099D1*
X19669Y26205D1*
X19631Y26328D1*
X19578Y26180D1*
X19506Y26078D1*
X19412Y25997D1*
X19300Y25941D1*
X19178Y25914D1*
X19054Y25917D1*
X18934Y25951D1*
X18825Y26013D1*
X18736Y26099D1*
X18669Y26205D1*
X18631Y26328D1*
X18578Y26180D1*
X18506Y26078D1*
X18412Y25997D1*
X18300Y25941D1*
X18178Y25914D1*
X18054Y25917D1*
X17934Y25951D1*
X17825Y26013D1*
X17736Y26099D1*
X17669Y26205D1*
X17631Y26328D1*
X17578Y26180D1*
X17506Y26078D1*
X17412Y25997D1*
X17300Y25941D1*
X17178Y25914D1*
X17054Y25917D1*
X16934Y25951D1*
X16825Y26013D1*
X16736Y26099D1*
X16669Y26205D1*
X16631Y26328D1*
X16578Y26180D1*
X16506Y26078D1*
X16412Y25997D1*
X16300Y25941D1*
X16178Y25914D1*
X16054Y25917D1*
X15934Y25951D1*
X15825Y26013D1*
X15736Y26099D1*
X15669Y26205D1*
X15631Y26328D1*
X15578Y26180D1*
X15506Y26078D1*
X15412Y25997D1*
X15300Y25941D1*
X15178Y25914D1*
X15054Y25917D1*
X14934Y25951D1*
X14825Y26013D1*
X14736Y26099D1*
X14669Y26205D1*
X14639Y26298D1*
X14638Y25912D1*
X13622D1*
Y26928D1*
X14002D1*
X13934Y26951D1*
X13825Y27013D1*
X13736Y27099D1*
X13669Y27205D1*
X13631Y27324D1*
X13623Y27448D1*
X13645Y27571D1*
X13696Y27685D1*
X13773Y27782D1*
X13872Y27858D1*
X13987Y27908D1*
X14110Y27928D1*
X14234Y27918D1*
X14352Y27877D1*
X14457Y27809D1*
X14542Y27718D1*
X14602Y27609D1*
X14629Y27507D1*
X14645Y27571D1*
X14696Y27685D1*
X14773Y27782D1*
X14872Y27858D1*
X14987Y27908D1*
X15110Y27928D1*
X15234Y27918D1*
X15352Y27877D1*
X15457Y27809D1*
X15542Y27718D1*
X15602Y27609D1*
X15629Y27507D1*
X15645Y27571D1*
X15696Y27685D1*
X15773Y27782D1*
X15872Y27858D1*
X15987Y27908D1*
X16110Y27928D1*
X16234Y27918D1*
X16352Y27877D1*
X16457Y27809D1*
X16542Y27718D1*
X16602Y27609D1*
X16629Y27507D1*
X16645Y27571D1*
X16696Y27685D1*
X16773Y27782D1*
X16872Y27858D1*
X16987Y27908D1*
X17110Y27928D1*
X17234Y27918D1*
X17352Y27877D1*
X17457Y27809D1*
X17542Y27718D1*
X17602Y27609D1*
X17629Y27507D1*
X17662Y27618D1*
X17724Y27726D1*
X17811Y27815D1*
X17917Y27881D1*
X18035Y27919D1*
X18160Y27927D1*
X18282Y27905D1*
X18396Y27853D1*
X18493Y27775D1*
X18569Y27676D1*
X18618Y27562D1*
X18630Y27511D1*
X18645Y27571D1*
X18696Y27685D1*
X18773Y27782D1*
X18872Y27858D1*
X18987Y27908D1*
X19110Y27928D1*
X19234Y27918D1*
X19352Y27877D1*
X19457Y27809D1*
X19542Y27718D1*
X19602Y27609D1*
X19629Y27507D1*
X19645Y27571D1*
X19696Y27685D1*
X19773Y27782D1*
X19872Y27858D1*
X19987Y27908D1*
X20110Y27928D1*
X20234Y27918D1*
X20352Y27877D1*
X20457Y27809D1*
X20542Y27718D1*
X20602Y27609D1*
X20629Y27507D1*
X20645Y27571D1*
X20696Y27685D1*
X20773Y27782D1*
X20872Y27858D1*
X20987Y27908D1*
X21110Y27928D1*
X21234Y27918D1*
X21352Y27877D1*
X21457Y27809D1*
X21542Y27718D1*
X21602Y27609D1*
X21629Y27507D1*
X21645Y27571D1*
X21696Y27685D1*
X21773Y27782D1*
X21872Y27858D1*
X21987Y27908D1*
X22110Y27928D1*
X22234Y27918D1*
X22352Y27877D1*
X22457Y27809D1*
X22542Y27718D1*
X22602Y27609D1*
X22629Y27507D1*
X22645Y27571D1*
X22696Y27685D1*
X22773Y27782D1*
X22872Y27858D1*
X22987Y27908D1*
X23110Y27928D1*
X23234Y27918D1*
X23352Y27877D1*
X23457Y27809D1*
X23542Y27718D1*
X23602Y27609D1*
X23629Y27507D1*
X23645Y27571D1*
X23696Y27685D1*
X23773Y27782D1*
X23872Y27858D1*
X23987Y27908D1*
X24110Y27928D1*
X24234Y27918D1*
X24352Y27877D1*
X24457Y27809D1*
X24542Y27718D1*
X24602Y27609D1*
X24629Y27507D1*
X24645Y27571D1*
X24696Y27685D1*
X24773Y27782D1*
X24872Y27858D1*
X24987Y27908D1*
X25110Y27928D1*
X25234Y27918D1*
X25352Y27877D1*
X25457Y27809D1*
X25542Y27718D1*
X25602Y27609D1*
X25629Y27507D1*
X25645Y27571D1*
X25696Y27685D1*
X25773Y27782D1*
X25872Y27858D1*
X25987Y27908D1*
X26110Y27928D1*
X26191Y27921D1*
Y29389D1*
X26160Y29337D1*
X26070Y29251D1*
X25958Y29197D1*
X25834Y29182D1*
X25713Y29207D1*
X25605Y29269D1*
X25522Y29362D1*
X25473Y29477D1*
X25463Y29601D1*
X25493Y29722D1*
X25559Y29827D1*
X25656Y29906D1*
X25772Y29950D1*
X25896Y29955D1*
X26016Y29921D1*
X26119Y29850D1*
X26191Y29754D1*
X26192Y30085D1*
X26152Y30138D1*
X26108Y30253D1*
Y30378D1*
X26153Y30494D1*
X26192Y30537D1*
Y30592D1*
X26175Y30598D1*
X26055Y30564D1*
X25931Y30576D1*
X25872Y30605D1*
X25743Y30564D1*
X25619Y30576D1*
X25560Y30605D1*
X25430Y30564D1*
X25306Y30576D1*
X25247Y30605D1*
X25118Y30564D1*
X24994Y30576D1*
X24883Y30631D1*
X24799Y30723D1*
X24754Y30839D1*
X24755Y30964D1*
X24790Y31054D1*
X24754Y31152D1*
X24755Y31276D1*
X24790Y31367D1*
X24754Y31464D1*
X24755Y31589D1*
X24790Y31679D1*
X24754Y31777D1*
X24755Y31901D1*
X24790Y31992D1*
X24754Y32089D1*
X24755Y32214D1*
X24800Y32330D1*
X24884Y32421D1*
X24995Y32476D1*
X25119Y32487D1*
X25182Y32469D1*
X25152Y32513D1*
X25108Y32628D1*
Y32753D1*
X25153Y32869D1*
X25237Y32960D1*
X25348Y33015D1*
X25472Y33026D1*
X25592Y32992D1*
X25691Y32917D1*
X25756Y32811D1*
X25778Y32690D1*
X25755Y32568D1*
X25708Y32492D1*
X25866Y32451D1*
X25933Y32476D1*
X26056Y32487D1*
X26179Y32451D1*
X26108Y32628D1*
Y32753D1*
X26153Y32869D1*
X26192Y32912D1*
Y33460D1*
X26152Y33513D1*
X26108Y33628D1*
Y33753D1*
X26153Y33869D1*
X26192Y33912D1*
Y34460D1*
X26152Y34513D1*
X26108Y34628D1*
Y34753D1*
X26153Y34869D1*
X26192Y34912D1*
Y36210D1*
X26152Y36263D1*
X26108Y36378D1*
Y36460D1*
X6697Y12969D2*
X6618Y12992D1*
X6510Y13054D1*
X6423Y13137D1*
X6309Y13037D1*
X6197Y12981D1*
X6148Y12970D1*
X6251Y12932D1*
X6355Y12864D1*
X6421Y12797D1*
X6459Y12839D1*
X6558Y12914D1*
X6692Y12967D1*
X14258Y26928D2*
X14638D1*
Y26548D1*
X14696Y26685D1*
X14773Y26782D1*
X14872Y26858D1*
X14987Y26908D1*
X15052Y26918D1*
X14934Y26951D1*
X14825Y27013D1*
X14736Y27099D1*
X14669Y27205D1*
X14631Y27328D1*
X14578Y27180D1*
X14506Y27078D1*
X14412Y26997D1*
X14300Y26941D1*
X14243Y26928D1*
X15215Y26919D2*
X15352Y26877D1*
X15457Y26809D1*
X15542Y26718D1*
X15602Y26609D1*
X15629Y26507D1*
X15645Y26571D1*
X15696Y26685D1*
X15773Y26782D1*
X15872Y26858D1*
X15987Y26908D1*
X16052Y26918D1*
X15934Y26951D1*
X15825Y27013D1*
X15736Y27099D1*
X15669Y27205D1*
X15631Y27328D1*
X15578Y27180D1*
X15506Y27078D1*
X15412Y26997D1*
X15300Y26941D1*
X15213Y26922D1*
X16215Y26919D2*
X16352Y26877D1*
X16457Y26809D1*
X16542Y26718D1*
X16602Y26609D1*
X16629Y26507D1*
X16645Y26571D1*
X16696Y26685D1*
X16773Y26782D1*
X16872Y26858D1*
X16987Y26908D1*
X17052Y26918D1*
X16934Y26951D1*
X16825Y27013D1*
X16736Y27099D1*
X16669Y27205D1*
X16631Y27328D1*
X16578Y27180D1*
X16506Y27078D1*
X16412Y26997D1*
X16300Y26941D1*
X16213Y26922D1*
X17215Y26919D2*
X17352Y26877D1*
X17457Y26809D1*
X17542Y26718D1*
X17602Y26609D1*
X17629Y26507D1*
X17645Y26571D1*
X17696Y26685D1*
X17773Y26782D1*
X17872Y26858D1*
X17987Y26908D1*
X18052Y26918D1*
X17957Y26942D1*
X17846Y26999D1*
X17752Y27080D1*
X17680Y27183D1*
X17636Y27299D1*
X17630Y27329D1*
X17578Y27180D1*
X17506Y27078D1*
X17412Y26997D1*
X17300Y26941D1*
X17213Y26922D1*
X18215Y26919D2*
X18352Y26877D1*
X18457Y26809D1*
X18542Y26718D1*
X18602Y26609D1*
X18629Y26507D1*
X18645Y26571D1*
X18696Y26685D1*
X18773Y26782D1*
X18872Y26858D1*
X18987Y26908D1*
X19052Y26918D1*
X18934Y26951D1*
X18825Y27013D1*
X18736Y27099D1*
X18669Y27205D1*
X18628Y27321D1*
X18589Y27202D1*
X18522Y27097D1*
X18432Y27011D1*
X18323Y26950D1*
X18221Y26920D1*
X19215Y26919D2*
X19352Y26877D1*
X19457Y26809D1*
X19542Y26718D1*
X19602Y26609D1*
X19629Y26507D1*
X19645Y26571D1*
X19696Y26685D1*
X19773Y26782D1*
X19872Y26858D1*
X19987Y26908D1*
X20052Y26918D1*
X19934Y26951D1*
X19825Y27013D1*
X19736Y27099D1*
X19669Y27205D1*
X19631Y27328D1*
X19578Y27180D1*
X19506Y27078D1*
X19412Y26997D1*
X19300Y26941D1*
X19213Y26922D1*
X20215Y26919D2*
X20352Y26877D1*
X20457Y26809D1*
X20542Y26718D1*
X20602Y26609D1*
X20629Y26507D1*
X20645Y26571D1*
X20696Y26685D1*
X20773Y26782D1*
X20872Y26858D1*
X20987Y26908D1*
X21052Y26918D1*
X20934Y26951D1*
X20825Y27013D1*
X20736Y27099D1*
X20669Y27205D1*
X20631Y27328D1*
X20578Y27180D1*
X20506Y27078D1*
X20412Y26997D1*
X20300Y26941D1*
X20213Y26922D1*
X21215Y26919D2*
X21352Y26877D1*
X21457Y26809D1*
X21542Y26718D1*
X21602Y26609D1*
X21629Y26507D1*
X21645Y26571D1*
X21696Y26685D1*
X21773Y26782D1*
X21872Y26858D1*
X21987Y26908D1*
X22052Y26918D1*
X21934Y26951D1*
X21825Y27013D1*
X21736Y27099D1*
X21669Y27205D1*
X21631Y27328D1*
X21578Y27180D1*
X21506Y27078D1*
X21412Y26997D1*
X21300Y26941D1*
X21213Y26922D1*
X22215Y26919D2*
X22352Y26877D1*
X22457Y26809D1*
X22542Y26718D1*
X22602Y26609D1*
X22629Y26507D1*
X22645Y26571D1*
X22696Y26685D1*
X22773Y26782D1*
X22872Y26858D1*
X22987Y26908D1*
X23052Y26918D1*
X22934Y26951D1*
X22825Y27013D1*
X22736Y27099D1*
X22669Y27205D1*
X22631Y27328D1*
X22578Y27180D1*
X22506Y27078D1*
X22412Y26997D1*
X22300Y26941D1*
X22213Y26922D1*
X23215Y26919D2*
X23352Y26877D1*
X23457Y26809D1*
X23542Y26718D1*
X23602Y26609D1*
X23629Y26507D1*
X23645Y26571D1*
X23696Y26685D1*
X23773Y26782D1*
X23872Y26858D1*
X23987Y26908D1*
X24052Y26918D1*
X23934Y26951D1*
X23825Y27013D1*
X23736Y27099D1*
X23669Y27205D1*
X23631Y27328D1*
X23578Y27180D1*
X23506Y27078D1*
X23412Y26997D1*
X23300Y26941D1*
X23213Y26922D1*
X24215Y26919D2*
X24352Y26877D1*
X24457Y26809D1*
X24542Y26718D1*
X24602Y26609D1*
X24629Y26507D1*
X24645Y26571D1*
X24696Y26685D1*
X24773Y26782D1*
X24872Y26858D1*
X24987Y26908D1*
X25052Y26918D1*
X24934Y26951D1*
X24825Y27013D1*
X24736Y27099D1*
X24669Y27205D1*
X24631Y27328D1*
X24578Y27180D1*
X24506Y27078D1*
X24412Y26997D1*
X24300Y26941D1*
X24213Y26922D1*
X25215Y26919D2*
X25352Y26877D1*
X25457Y26809D1*
X25542Y26718D1*
X25602Y26609D1*
X25629Y26507D1*
X25645Y26571D1*
X25696Y26685D1*
X25773Y26782D1*
X25872Y26858D1*
X25987Y26908D1*
X26052Y26918D1*
X25934Y26951D1*
X25825Y27013D1*
X25736Y27099D1*
X25669Y27205D1*
X25631Y27328D1*
X25578Y27180D1*
X25506Y27078D1*
X25412Y26997D1*
X25300Y26941D1*
X25213Y26922D1*
X14627Y10958D2*
X15618D1*
Y9942D1*
X15238D1*
X15332Y9907D1*
X15437Y9839D1*
X15522Y9748D1*
X15582Y9639D1*
X15614Y9518D1*
X15618Y9450D1*
X15603Y9326D1*
X15558Y9210D1*
X15529Y9169D1*
X15606Y9051D1*
X15628Y8930D1*
X15605Y8808D1*
X15540Y8702D1*
X15440Y8627D1*
X15321Y8593D1*
X15197Y8605D1*
X15086Y8661D1*
X15002Y8753D1*
X14958Y8868D1*
Y8966D1*
X14805Y9043D1*
X14716Y9129D1*
X14649Y9235D1*
X14611Y9358D1*
X14558Y9210D1*
X14486Y9108D1*
X14392Y9027D1*
X14280Y8971D1*
X14158Y8944D1*
X14034Y8947D1*
X13914Y8981D1*
X13805Y9043D1*
X13716Y9129D1*
X13649Y9235D1*
X13611Y9358D1*
X13558Y9210D1*
X13486Y9108D1*
X13392Y9027D1*
X13280Y8971D1*
X13158Y8944D1*
X13034Y8947D1*
X12914Y8981D1*
X12805Y9043D1*
X12716Y9129D1*
X12649Y9235D1*
X12611Y9358D1*
X12558Y9210D1*
X12486Y9108D1*
X12392Y9027D1*
X12280Y8971D1*
X12158Y8944D1*
X12034Y8947D1*
X11914Y8981D1*
X11805Y9043D1*
X11716Y9129D1*
X11649Y9235D1*
X11611Y9358D1*
X11558Y9210D1*
X11486Y9108D1*
X11392Y9027D1*
X11280Y8971D1*
X11158Y8944D1*
X11034Y8947D1*
X10914Y8981D1*
X10805Y9043D1*
X10716Y9129D1*
X10649Y9235D1*
X10611Y9354D1*
X10603Y9478D1*
X10625Y9601D1*
X10676Y9715D1*
X10753Y9812D1*
X10852Y9888D1*
X10967Y9938D1*
X11032Y9948D1*
X10914Y9981D1*
X10805Y10043D1*
X10716Y10129D1*
X10649Y10235D1*
X10611Y10354D1*
X10603Y10478D1*
X10625Y10601D1*
X10676Y10715D1*
X10753Y10812D1*
X10852Y10888D1*
X10967Y10938D1*
X11090Y10958D1*
X11214Y10948D1*
X11332Y10907D1*
X11437Y10839D1*
X11522Y10748D1*
X11582Y10639D1*
X11609Y10537D1*
X11625Y10601D1*
X11676Y10715D1*
X11753Y10812D1*
X11852Y10888D1*
X11967Y10938D1*
X12090Y10958D1*
X12214Y10948D1*
X12332Y10907D1*
X12437Y10839D1*
X12522Y10748D1*
X12582Y10639D1*
X12609Y10537D1*
X12625Y10601D1*
X12676Y10715D1*
X12753Y10812D1*
X12852Y10888D1*
X12967Y10938D1*
X13090Y10958D1*
X13214Y10948D1*
X13332Y10907D1*
X13437Y10839D1*
X13522Y10748D1*
X13582Y10639D1*
X13609Y10537D1*
X13625Y10601D1*
X13676Y10715D1*
X13753Y10812D1*
X13852Y10888D1*
X13967Y10938D1*
X14090Y10958D1*
X14214Y10948D1*
X14332Y10907D1*
X14437Y10839D1*
X14522Y10748D1*
X14582Y10639D1*
X14603Y10560D1*
X14602Y10958D1*
X14627D1*
X14982Y9942D2*
X14602D1*
Y10322D1*
X14558Y10210D1*
X14486Y10108D1*
X14392Y10027D1*
X14280Y9971D1*
X14193Y9952D1*
X14332Y9907D1*
X14437Y9839D1*
X14522Y9748D1*
X14582Y9639D1*
X14609Y9537D1*
X14625Y9601D1*
X14676Y9715D1*
X14753Y9812D1*
X14852Y9888D1*
X14994Y9942D1*
X14022Y9951D2*
X13914Y9981D1*
X13805Y10043D1*
X13716Y10129D1*
X13649Y10235D1*
X13611Y10358D1*
X13558Y10210D1*
X13486Y10108D1*
X13392Y10027D1*
X13280Y9971D1*
X13193Y9952D1*
X13332Y9907D1*
X13437Y9839D1*
X13522Y9748D1*
X13582Y9639D1*
X13609Y9537D1*
X13625Y9601D1*
X13676Y9715D1*
X13753Y9812D1*
X13852Y9888D1*
X13967Y9938D1*
X14032Y9948D1*
X13022Y9951D2*
X12914Y9981D1*
X12805Y10043D1*
X12716Y10129D1*
X12649Y10235D1*
X12611Y10358D1*
X12558Y10210D1*
X12486Y10108D1*
X12392Y10027D1*
X12280Y9971D1*
X12193Y9952D1*
X12332Y9907D1*
X12437Y9839D1*
X12522Y9748D1*
X12582Y9639D1*
X12609Y9537D1*
X12625Y9601D1*
X12676Y9715D1*
X12753Y9812D1*
X12852Y9888D1*
X12967Y9938D1*
X13032Y9948D1*
X12022Y9951D2*
X11914Y9981D1*
X11805Y10043D1*
X11716Y10129D1*
X11649Y10235D1*
X11611Y10358D1*
X11558Y10210D1*
X11486Y10108D1*
X11392Y10027D1*
X11280Y9971D1*
X11193Y9952D1*
X11332Y9907D1*
X11437Y9839D1*
X11522Y9748D1*
X11582Y9639D1*
X11609Y9537D1*
X11625Y9601D1*
X11676Y9715D1*
X11753Y9812D1*
X11852Y9888D1*
X11967Y9938D1*
X12032Y9948D1*
X13497Y42615D2*
X13477Y42492D1*
X13430Y42376D1*
X13358Y42275D1*
X13265Y42192D1*
X13155Y42132D1*
X13035Y42099D1*
X12910Y42094D1*
X12788Y42117D1*
X12674Y42167D1*
X12574Y42242D1*
X12493Y42338D1*
X12437Y42449D1*
X12407Y42570D1*
X12405Y42694D1*
X12432Y42816D1*
X12485Y42929D1*
X12562Y43027D1*
X12660Y43105D1*
X12773Y43158D1*
X12894Y43185D1*
X13019Y43183D1*
X13140Y43154D1*
X13251Y43097D1*
X13347Y43017D1*
X13422Y42917D1*
X13473Y42803D1*
X13496Y42681D1*
X13497Y42615D1*
X21964Y39984D2*
X22023Y40013D1*
X22147Y40024D1*
X22270Y39987D1*
X22336Y40013D1*
X22460Y40024D1*
X22582Y39987D1*
X22648Y40013D1*
X22772Y40024D1*
X22892Y39990D1*
X22991Y39914D1*
X23056Y39808D1*
X23078Y39688D1*
X23055Y39565D1*
X23037Y39536D1*
X23056Y39496D1*
X23078Y39375D1*
X23055Y39253D1*
X23037Y39223D1*
X23056Y39183D1*
X23078Y39063D1*
X23055Y38940D1*
X23037Y38911D1*
X23056Y38871D1*
X23078Y38750D1*
X23055Y38628D1*
X23037Y38598D1*
X23056Y38558D1*
X23078Y38437D1*
X23055Y38315D1*
X22990Y38210D1*
X22890Y38135D1*
X22771Y38101D1*
X22647Y38112D1*
X22588Y38142D1*
X22458Y38101D1*
X22335Y38112D1*
X22276Y38142D1*
X22146Y38101D1*
X22022Y38112D1*
X21963Y38142D1*
X21833Y38101D1*
X21710Y38112D1*
X21651Y38142D1*
X21521Y38101D1*
X21397Y38112D1*
X21286Y38168D1*
X21202Y38260D1*
X21158Y38376D1*
Y38500D1*
X21193Y38591D1*
X21158Y38688D1*
Y38813D1*
X21193Y38903D1*
X21158Y39001D1*
Y39125D1*
X21193Y39216D1*
X21158Y39313D1*
Y39438D1*
X21193Y39528D1*
X21158Y39626D1*
Y39750D1*
X21203Y39866D1*
X21287Y39958D1*
X21398Y40013D1*
X21522Y40024D1*
X21645Y39987D1*
X21711Y40013D1*
X21835Y40024D1*
X21957Y39987D1*
X8505Y36318D2*
X8440Y36212D1*
X8340Y36137D1*
X8221Y36103D1*
X8097Y36115D1*
X7986Y36171D1*
X7902Y36263D1*
X7858Y36378D1*
Y36503D1*
X7903Y36619D1*
X7987Y36710D1*
X8098Y36765D1*
X8222Y36776D1*
X8342Y36742D1*
X8441Y36667D1*
X8506Y36561D1*
X8528Y36440D1*
X8505Y36318D1*
X7968Y35191D2*
X7902Y35263D1*
X7858Y35378D1*
Y35503D1*
X7903Y35619D1*
X7987Y35710D1*
X8098Y35765D1*
X8222Y35776D1*
X8342Y35742D1*
X8437Y35669D1*
X8487Y35710D1*
X8598Y35765D1*
X8722Y35776D1*
X8842Y35742D1*
X8937Y35669D1*
X8987Y35710D1*
X9098Y35765D1*
X9222Y35776D1*
X9342Y35742D1*
X9437Y35669D1*
X9487Y35710D1*
X9598Y35765D1*
X9722Y35776D1*
X9842Y35742D1*
X9937Y35669D1*
X9987Y35710D1*
X10098Y35765D1*
X10222Y35776D1*
X10342Y35742D1*
X10441Y35667D1*
X10506Y35561D1*
X10528Y35440D1*
X10505Y35318D1*
X10440Y35212D1*
X10412Y35191D1*
X10441Y35167D1*
X10506Y35061D1*
X10528Y34940D1*
X10505Y34818D1*
X10440Y34712D1*
X10412Y34691D1*
X10441Y34667D1*
X10506Y34561D1*
X10528Y34440D1*
X10505Y34318D1*
X10440Y34212D1*
X10340Y34137D1*
X10221Y34103D1*
X10097Y34115D1*
X9986Y34171D1*
X9942Y34219D1*
X9840Y34137D1*
X9721Y34103D1*
X9597Y34115D1*
X9486Y34171D1*
X9442Y34219D1*
X9340Y34137D1*
X9221Y34103D1*
X9097Y34115D1*
X8986Y34171D1*
X8942Y34219D1*
X8840Y34137D1*
X8721Y34103D1*
X8597Y34115D1*
X8486Y34171D1*
X8442Y34219D1*
X8340Y34137D1*
X8221Y34103D1*
X8097Y34115D1*
X7986Y34171D1*
X7902Y34263D1*
X7858Y34378D1*
Y34503D1*
X7903Y34619D1*
X7963Y34684D1*
X7902Y34763D1*
X7858Y34878D1*
Y35003D1*
X7903Y35119D1*
X7963Y35184D1*
X8505Y33318D2*
X8440Y33212D1*
X8340Y33137D1*
X8221Y33103D1*
X8097Y33115D1*
X7986Y33171D1*
X7902Y33263D1*
X7858Y33378D1*
Y33503D1*
X7903Y33619D1*
X7987Y33710D1*
X8098Y33765D1*
X8222Y33776D1*
X8342Y33742D1*
X8441Y33667D1*
X8506Y33561D1*
X8528Y33440D1*
X8505Y33318D1*
X7505Y37318D2*
X7440Y37212D1*
X7340Y37137D1*
X7221Y37103D1*
X7097Y37115D1*
X6986Y37171D1*
X6902Y37263D1*
X6858Y37378D1*
Y37503D1*
X6903Y37619D1*
X6987Y37710D1*
X7098Y37765D1*
X7222Y37776D1*
X7342Y37742D1*
X7441Y37667D1*
X7506Y37561D1*
X7528Y37440D1*
X7505Y37318D1*
Y36318D2*
X7440Y36212D1*
X7340Y36137D1*
X7221Y36103D1*
X7097Y36115D1*
X6986Y36171D1*
X6902Y36263D1*
X6858Y36378D1*
Y36503D1*
X6903Y36619D1*
X6987Y36710D1*
X7098Y36765D1*
X7222Y36776D1*
X7342Y36742D1*
X7441Y36667D1*
X7506Y36561D1*
X7528Y36440D1*
X7505Y36318D1*
X6505Y37318D2*
X6440Y37212D1*
X6340Y37137D1*
X6221Y37103D1*
X6097Y37115D1*
X5986Y37171D1*
X5902Y37263D1*
X5858Y37378D1*
Y37503D1*
X5903Y37619D1*
X5987Y37710D1*
X6098Y37765D1*
X6222Y37776D1*
X6342Y37742D1*
X6441Y37667D1*
X6506Y37561D1*
X6528Y37440D1*
X6505Y37318D1*
Y33318D2*
X6440Y33212D1*
X6340Y33137D1*
X6221Y33103D1*
X6097Y33115D1*
X5986Y33171D1*
X5902Y33263D1*
X5858Y33378D1*
Y33503D1*
X5903Y33619D1*
X5987Y33710D1*
X6098Y33765D1*
X6222Y33776D1*
X6342Y33742D1*
X6441Y33667D1*
X6506Y33561D1*
X6528Y33440D1*
X6505Y33318D1*
X7505D2*
X7440Y33212D1*
X7340Y33137D1*
X7221Y33103D1*
X7097Y33115D1*
X6986Y33171D1*
X6902Y33263D1*
X6858Y33378D1*
Y33503D1*
X6903Y33619D1*
X6987Y33710D1*
X7098Y33765D1*
X7222Y33776D1*
X7342Y33742D1*
X7441Y33667D1*
X7506Y33561D1*
X7528Y33440D1*
X7505Y33318D1*
X9505D2*
X9440Y33212D1*
X9340Y33137D1*
X9221Y33103D1*
X9097Y33115D1*
X8986Y33171D1*
X8902Y33263D1*
X8858Y33378D1*
Y33503D1*
X8903Y33619D1*
X8987Y33710D1*
X9098Y33765D1*
X9222Y33776D1*
X9342Y33742D1*
X9441Y33667D1*
X9506Y33561D1*
X9528Y33440D1*
X9505Y33318D1*
X11505Y34318D2*
X11440Y34212D1*
X11340Y34137D1*
X11221Y34103D1*
X11097Y34115D1*
X10986Y34171D1*
X10902Y34263D1*
X10858Y34378D1*
Y34503D1*
X10903Y34619D1*
X10987Y34710D1*
X11098Y34765D1*
X11222Y34776D1*
X11342Y34742D1*
X11441Y34667D1*
X11506Y34561D1*
X11528Y34440D1*
X11505Y34318D1*
X23755Y42318D2*
X23690Y42212D1*
X23590Y42137D1*
X23471Y42103D1*
X23347Y42115D1*
X23236Y42171D1*
X23152Y42263D1*
X23108Y42378D1*
Y42503D1*
X23153Y42619D1*
X23237Y42710D1*
X23348Y42765D1*
X23472Y42776D1*
X23592Y42742D1*
X23691Y42667D1*
X23756Y42561D1*
X23778Y42440D1*
X23755Y42318D1*
X11505Y35318D2*
X11440Y35212D1*
X11340Y35137D1*
X11221Y35103D1*
X11097Y35115D1*
X10986Y35171D1*
X10902Y35263D1*
X10858Y35378D1*
Y35503D1*
X10903Y35619D1*
X10987Y35710D1*
X11098Y35765D1*
X11222Y35776D1*
X11342Y35742D1*
X11441Y35667D1*
X11506Y35561D1*
X11528Y35440D1*
X11505Y35318D1*
X11568Y36318D2*
X11502Y36212D1*
X11403Y36137D1*
X11283Y36103D1*
X11160Y36115D1*
X11048Y36171D1*
X10965Y36263D1*
X10920Y36378D1*
Y36503D1*
X10966Y36619D1*
X11049Y36710D1*
X11161Y36765D1*
X11285Y36776D1*
X11404Y36742D1*
X11503Y36667D1*
X11568Y36561D1*
X11591Y36440D1*
X11568Y36318D1*
Y37318D2*
X11502Y37212D1*
X11403Y37137D1*
X11283Y37103D1*
X11160Y37115D1*
X11048Y37171D1*
X10965Y37263D1*
X10920Y37378D1*
Y37503D1*
X10966Y37619D1*
X11049Y37710D1*
X11161Y37765D1*
X11285Y37776D1*
X11404Y37742D1*
X11503Y37667D1*
X11568Y37561D1*
X11591Y37440D1*
X11568Y37318D1*
X6505Y36318D2*
X6440Y36212D1*
X6340Y36137D1*
X6221Y36103D1*
X6097Y36115D1*
X5986Y36171D1*
X5902Y36263D1*
X5858Y36378D1*
Y36503D1*
X5903Y36619D1*
X5987Y36710D1*
X6098Y36765D1*
X6222Y36776D1*
X6342Y36742D1*
X6441Y36667D1*
X6506Y36561D1*
X6528Y36440D1*
X6505Y36318D1*
Y35318D2*
X6440Y35212D1*
X6340Y35137D1*
X6221Y35103D1*
X6097Y35115D1*
X5986Y35171D1*
X5902Y35263D1*
X5858Y35378D1*
Y35503D1*
X5903Y35619D1*
X5987Y35710D1*
X6098Y35765D1*
X6222Y35776D1*
X6342Y35742D1*
X6441Y35667D1*
X6506Y35561D1*
X6528Y35440D1*
X6505Y35318D1*
X7505D2*
X7440Y35212D1*
X7340Y35137D1*
X7221Y35103D1*
X7097Y35115D1*
X6986Y35171D1*
X6902Y35263D1*
X6858Y35378D1*
Y35503D1*
X6903Y35619D1*
X6987Y35710D1*
X7098Y35765D1*
X7222Y35776D1*
X7342Y35742D1*
X7441Y35667D1*
X7506Y35561D1*
X7528Y35440D1*
X7505Y35318D1*
Y34318D2*
X7440Y34212D1*
X7340Y34137D1*
X7221Y34103D1*
X7097Y34115D1*
X6986Y34171D1*
X6902Y34263D1*
X6858Y34378D1*
Y34503D1*
X6903Y34619D1*
X6987Y34710D1*
X7098Y34765D1*
X7222Y34776D1*
X7342Y34742D1*
X7441Y34667D1*
X7506Y34561D1*
X7528Y34440D1*
X7505Y34318D1*
X19755Y41318D2*
X19690Y41212D1*
X19590Y41137D1*
X19471Y41103D1*
X19347Y41115D1*
X19236Y41171D1*
X19152Y41263D1*
X19108Y41378D1*
Y41503D1*
X19153Y41619D1*
X19237Y41710D1*
X19348Y41765D1*
X19472Y41776D1*
X19592Y41742D1*
X19691Y41667D1*
X19756Y41561D1*
X19778Y41440D1*
X19755Y41318D1*
X20755D2*
X20690Y41212D1*
X20590Y41137D1*
X20471Y41103D1*
X20347Y41115D1*
X20236Y41171D1*
X20152Y41263D1*
X20108Y41378D1*
Y41503D1*
X20153Y41619D1*
X20237Y41710D1*
X20348Y41765D1*
X20472Y41776D1*
X20592Y41742D1*
X20691Y41667D1*
X20756Y41561D1*
X20778Y41440D1*
X20755Y41318D1*
X21755D2*
X21690Y41212D1*
X21590Y41137D1*
X21471Y41103D1*
X21347Y41115D1*
X21236Y41171D1*
X21152Y41263D1*
X21108Y41378D1*
Y41503D1*
X21153Y41619D1*
X21237Y41710D1*
X21348Y41765D1*
X21472Y41776D1*
X21592Y41742D1*
X21691Y41667D1*
X21756Y41561D1*
X21778Y41440D1*
X21755Y41318D1*
X22755D2*
X22690Y41212D1*
X22590Y41137D1*
X22471Y41103D1*
X22347Y41115D1*
X22236Y41171D1*
X22152Y41263D1*
X22108Y41378D1*
Y41503D1*
X22153Y41619D1*
X22237Y41710D1*
X22348Y41765D1*
X22472Y41776D1*
X22592Y41742D1*
X22691Y41667D1*
X22756Y41561D1*
X22778Y41440D1*
X22755Y41318D1*
X23755D2*
X23690Y41212D1*
X23590Y41137D1*
X23471Y41103D1*
X23347Y41115D1*
X23236Y41171D1*
X23152Y41263D1*
X23108Y41378D1*
Y41503D1*
X23153Y41619D1*
X23237Y41710D1*
X23348Y41765D1*
X23472Y41776D1*
X23592Y41742D1*
X23691Y41667D1*
X23756Y41561D1*
X23778Y41440D1*
X23755Y41318D1*
X24755D2*
X24690Y41212D1*
X24590Y41137D1*
X24471Y41103D1*
X24347Y41115D1*
X24236Y41171D1*
X24152Y41263D1*
X24108Y41378D1*
Y41503D1*
X24153Y41619D1*
X24237Y41710D1*
X24348Y41765D1*
X24472Y41776D1*
X24592Y41742D1*
X24691Y41667D1*
X24756Y41561D1*
X24778Y41440D1*
X24755Y41318D1*
X19755Y42318D2*
X19690Y42212D1*
X19590Y42137D1*
X19471Y42103D1*
X19347Y42115D1*
X19236Y42171D1*
X19152Y42263D1*
X19108Y42378D1*
Y42503D1*
X19153Y42619D1*
X19237Y42710D1*
X19348Y42765D1*
X19472Y42776D1*
X19592Y42742D1*
X19691Y42667D1*
X19756Y42561D1*
X19778Y42440D1*
X19755Y42318D1*
X20755D2*
X20690Y42212D1*
X20590Y42137D1*
X20471Y42103D1*
X20347Y42115D1*
X20236Y42171D1*
X20152Y42263D1*
X20108Y42378D1*
Y42503D1*
X20153Y42619D1*
X20237Y42710D1*
X20348Y42765D1*
X20472Y42776D1*
X20592Y42742D1*
X20691Y42667D1*
X20756Y42561D1*
X20778Y42440D1*
X20755Y42318D1*
X21755D2*
X21690Y42212D1*
X21590Y42137D1*
X21471Y42103D1*
X21347Y42115D1*
X21236Y42171D1*
X21152Y42263D1*
X21108Y42378D1*
Y42503D1*
X21153Y42619D1*
X21237Y42710D1*
X21348Y42765D1*
X21472Y42776D1*
X21592Y42742D1*
X21691Y42667D1*
X21756Y42561D1*
X21778Y42440D1*
X21755Y42318D1*
X22755D2*
X22690Y42212D1*
X22590Y42137D1*
X22471Y42103D1*
X22347Y42115D1*
X22236Y42171D1*
X22152Y42263D1*
X22108Y42378D1*
Y42503D1*
X22153Y42619D1*
X22237Y42710D1*
X22348Y42765D1*
X22472Y42776D1*
X22592Y42742D1*
X22691Y42667D1*
X22756Y42561D1*
X22778Y42440D1*
X22755Y42318D1*
Y40318D2*
X22690Y40212D1*
X22590Y40137D1*
X22471Y40103D1*
X22347Y40115D1*
X22236Y40171D1*
X22152Y40263D1*
X22108Y40378D1*
Y40503D1*
X22153Y40619D1*
X22237Y40710D1*
X22348Y40765D1*
X22472Y40776D1*
X22592Y40742D1*
X22691Y40667D1*
X22756Y40561D1*
X22778Y40440D1*
X22755Y40318D1*
X23755Y39318D2*
X23690Y39212D1*
X23590Y39137D1*
X23471Y39103D1*
X23347Y39115D1*
X23236Y39171D1*
X23152Y39263D1*
X23108Y39378D1*
Y39503D1*
X23153Y39619D1*
X23237Y39710D1*
X23348Y39765D1*
X23472Y39776D1*
X23592Y39742D1*
X23691Y39667D1*
X23756Y39561D1*
X23778Y39440D1*
X23755Y39318D1*
X24755D2*
X24690Y39212D1*
X24590Y39137D1*
X24471Y39103D1*
X24347Y39115D1*
X24236Y39171D1*
X24152Y39263D1*
X24108Y39378D1*
Y39503D1*
X24153Y39619D1*
X24237Y39710D1*
X24348Y39765D1*
X24472Y39776D1*
X24592Y39742D1*
X24691Y39667D1*
X24756Y39561D1*
X24778Y39440D1*
X24755Y39318D1*
X21755Y40318D2*
X21690Y40212D1*
X21590Y40137D1*
X21471Y40103D1*
X21347Y40115D1*
X21236Y40171D1*
X21152Y40263D1*
X21108Y40378D1*
Y40503D1*
X21153Y40619D1*
X21237Y40710D1*
X21348Y40765D1*
X21472Y40776D1*
X21592Y40742D1*
X21691Y40667D1*
X21756Y40561D1*
X21778Y40440D1*
X21755Y40318D1*
X20755D2*
X20690Y40212D1*
X20590Y40137D1*
X20471Y40103D1*
X20347Y40115D1*
X20236Y40171D1*
X20152Y40263D1*
X20108Y40378D1*
Y40503D1*
X20153Y40619D1*
X20237Y40710D1*
X20348Y40765D1*
X20472Y40776D1*
X20592Y40742D1*
X20691Y40667D1*
X20756Y40561D1*
X20778Y40440D1*
X20755Y40318D1*
X19755D2*
X19690Y40212D1*
X19590Y40137D1*
X19471Y40103D1*
X19347Y40115D1*
X19236Y40171D1*
X19152Y40263D1*
X19108Y40378D1*
Y40503D1*
X19153Y40619D1*
X19237Y40710D1*
X19348Y40765D1*
X19472Y40776D1*
X19592Y40742D1*
X19691Y40667D1*
X19756Y40561D1*
X19778Y40440D1*
X19755Y40318D1*
Y39318D2*
X19690Y39212D1*
X19590Y39137D1*
X19471Y39103D1*
X19347Y39115D1*
X19236Y39171D1*
X19152Y39263D1*
X19108Y39378D1*
Y39503D1*
X19153Y39619D1*
X19237Y39710D1*
X19348Y39765D1*
X19472Y39776D1*
X19592Y39742D1*
X19691Y39667D1*
X19756Y39561D1*
X19778Y39440D1*
X19755Y39318D1*
X23755Y40318D2*
X23690Y40212D1*
X23590Y40137D1*
X23471Y40103D1*
X23347Y40115D1*
X23236Y40171D1*
X23152Y40263D1*
X23108Y40378D1*
Y40503D1*
X23153Y40619D1*
X23237Y40710D1*
X23348Y40765D1*
X23472Y40776D1*
X23592Y40742D1*
X23691Y40667D1*
X23756Y40561D1*
X23778Y40440D1*
X23755Y40318D1*
X24755D2*
X24690Y40212D1*
X24590Y40137D1*
X24471Y40103D1*
X24347Y40115D1*
X24236Y40171D1*
X24152Y40263D1*
X24108Y40378D1*
Y40503D1*
X24153Y40619D1*
X24237Y40710D1*
X24348Y40765D1*
X24472Y40776D1*
X24592Y40742D1*
X24691Y40667D1*
X24756Y40561D1*
X24778Y40440D1*
X24755Y40318D1*
X25755D2*
X25690Y40212D1*
X25590Y40137D1*
X25471Y40103D1*
X25347Y40115D1*
X25236Y40171D1*
X25152Y40263D1*
X25108Y40378D1*
Y40503D1*
X25153Y40619D1*
X25237Y40710D1*
X25348Y40765D1*
X25472Y40776D1*
X25592Y40742D1*
X25691Y40667D1*
X25756Y40561D1*
X25778Y40440D1*
X25755Y40318D1*
X24755Y38318D2*
X24690Y38212D1*
X24590Y38137D1*
X24471Y38103D1*
X24347Y38115D1*
X24236Y38171D1*
X24152Y38263D1*
X24108Y38378D1*
Y38503D1*
X24153Y38619D1*
X24237Y38710D1*
X24348Y38765D1*
X24472Y38776D1*
X24592Y38742D1*
X24691Y38667D1*
X24756Y38561D1*
X24778Y38440D1*
X24755Y38318D1*
X23755D2*
X23690Y38212D1*
X23590Y38137D1*
X23471Y38103D1*
X23347Y38115D1*
X23236Y38171D1*
X23152Y38263D1*
X23108Y38378D1*
Y38503D1*
X23153Y38619D1*
X23237Y38710D1*
X23348Y38765D1*
X23472Y38776D1*
X23592Y38742D1*
X23691Y38667D1*
X23756Y38561D1*
X23778Y38440D1*
X23755Y38318D1*
X24755Y37318D2*
X24690Y37212D1*
X24590Y37137D1*
X24471Y37103D1*
X24347Y37115D1*
X24236Y37171D1*
X24152Y37263D1*
X24108Y37378D1*
Y37503D1*
X24153Y37619D1*
X24237Y37710D1*
X24348Y37765D1*
X24472Y37776D1*
X24592Y37742D1*
X24691Y37667D1*
X24756Y37561D1*
X24778Y37440D1*
X24755Y37318D1*
Y36318D2*
X24690Y36212D1*
X24590Y36137D1*
X24471Y36103D1*
X24347Y36115D1*
X24236Y36171D1*
X24152Y36263D1*
X24108Y36378D1*
Y36503D1*
X24153Y36619D1*
X24237Y36710D1*
X24348Y36765D1*
X24472Y36776D1*
X24592Y36742D1*
X24691Y36667D1*
X24756Y36561D1*
X24778Y36440D1*
X24755Y36318D1*
X22255Y37318D2*
X22190Y37212D1*
X22090Y37137D1*
X21971Y37103D1*
X21847Y37115D1*
X21736Y37171D1*
X21652Y37263D1*
X21608Y37378D1*
Y37503D1*
X21653Y37619D1*
X21737Y37710D1*
X21848Y37765D1*
X21972Y37776D1*
X22092Y37742D1*
X22191Y37667D1*
X22256Y37561D1*
X22278Y37440D1*
X22255Y37318D1*
X21045Y37758D2*
X20980Y37652D1*
X20880Y37577D1*
X20761Y37543D1*
X20637Y37555D1*
X20526Y37611D1*
X20442Y37703D1*
X20398Y37818D1*
Y37943D1*
X20443Y38059D1*
X20527Y38150D1*
X20638Y38205D1*
X20762Y38216D1*
X20882Y38182D1*
X20981Y38107D1*
X21046Y38001D1*
X21068Y37880D1*
X21045Y37758D1*
X23755Y36378D2*
X23690Y36272D1*
X23590Y36197D1*
X23471Y36163D1*
X23347Y36175D1*
X23236Y36231D1*
X23152Y36323D1*
X23108Y36438D1*
Y36563D1*
X23153Y36679D1*
X23237Y36770D1*
X23348Y36825D1*
X23472Y36836D1*
X23592Y36802D1*
X23691Y36727D1*
X23756Y36621D1*
X23778Y36500D1*
X23755Y36378D1*
X22755D2*
X22690Y36272D1*
X22590Y36197D1*
X22471Y36163D1*
X22347Y36175D1*
X22236Y36231D1*
X22152Y36323D1*
X22108Y36438D1*
Y36563D1*
X22153Y36679D1*
X22237Y36770D1*
X22348Y36825D1*
X22472Y36836D1*
X22592Y36802D1*
X22691Y36727D1*
X22756Y36621D1*
X22778Y36500D1*
X22755Y36378D1*
X21755Y36388D2*
X21690Y36282D1*
X21590Y36207D1*
X21471Y36173D1*
X21347Y36185D1*
X21236Y36241D1*
X21152Y36333D1*
X21108Y36448D1*
Y36573D1*
X21153Y36689D1*
X21237Y36780D1*
X21348Y36835D1*
X21472Y36846D1*
X21592Y36812D1*
X21691Y36737D1*
X21756Y36631D1*
X21778Y36510D1*
X21755Y36388D1*
X24755Y35568D2*
X24690Y35462D1*
X24590Y35387D1*
X24471Y35353D1*
X24347Y35365D1*
X24236Y35421D1*
X24152Y35513D1*
X24108Y35628D1*
Y35753D1*
X24153Y35869D1*
X24237Y35960D1*
X24348Y36015D1*
X24472Y36026D1*
X24592Y35992D1*
X24691Y35917D1*
X24756Y35811D1*
X24778Y35690D1*
X24755Y35568D1*
X25755D2*
X25690Y35462D1*
X25590Y35387D1*
X25471Y35353D1*
X25347Y35365D1*
X25236Y35421D1*
X25152Y35513D1*
X25108Y35628D1*
Y35753D1*
X25153Y35869D1*
X25237Y35960D1*
X25348Y36015D1*
X25472Y36026D1*
X25592Y35992D1*
X25691Y35917D1*
X25756Y35811D1*
X25778Y35690D1*
X25755Y35568D1*
Y34568D2*
X25690Y34462D1*
X25590Y34387D1*
X25471Y34353D1*
X25347Y34365D1*
X25236Y34421D1*
X25152Y34513D1*
X25108Y34628D1*
Y34753D1*
X25153Y34869D1*
X25237Y34960D1*
X25348Y35015D1*
X25472Y35026D1*
X25592Y34992D1*
X25691Y34917D1*
X25756Y34811D1*
X25778Y34690D1*
X25755Y34568D1*
X24725Y33568D2*
X24660Y33462D1*
X24560Y33387D1*
X24441Y33353D1*
X24317Y33365D1*
X24206Y33421D1*
X24122Y33513D1*
X24078Y33628D1*
Y33753D1*
X24123Y33869D1*
X24207Y33960D1*
X24318Y34015D1*
X24442Y34026D1*
X24562Y33992D1*
X24661Y33917D1*
X24726Y33811D1*
X24748Y33690D1*
X24725Y33568D1*
X25755D2*
X25690Y33462D1*
X25590Y33387D1*
X25471Y33353D1*
X25347Y33365D1*
X25236Y33421D1*
X25152Y33513D1*
X25108Y33628D1*
Y33753D1*
X25153Y33869D1*
X25237Y33960D1*
X25348Y34015D1*
X25472Y34026D1*
X25592Y33992D1*
X25691Y33917D1*
X25756Y33811D1*
X25778Y33690D1*
X25755Y33568D1*
X24755Y32568D2*
X24690Y32462D1*
X24590Y32387D1*
X24471Y32353D1*
X24347Y32365D1*
X24236Y32421D1*
X24152Y32513D1*
X24108Y32628D1*
Y32753D1*
X24153Y32869D1*
X24237Y32960D1*
X24348Y33015D1*
X24472Y33026D1*
X24592Y32992D1*
X24691Y32917D1*
X24756Y32811D1*
X24778Y32690D1*
X24755Y32568D1*
Y30068D2*
X24690Y29962D1*
X24590Y29887D1*
X24471Y29853D1*
X24347Y29865D1*
X24236Y29921D1*
X24152Y30013D1*
X24108Y30128D1*
Y30253D1*
X24153Y30369D1*
X24237Y30460D1*
X24348Y30515D1*
X24472Y30526D1*
X24592Y30492D1*
X24691Y30417D1*
X24756Y30311D1*
X24778Y30190D1*
X24755Y30068D1*
X23755Y30318D2*
X23690Y30212D1*
X23590Y30137D1*
X23471Y30103D1*
X23347Y30115D1*
X23236Y30171D1*
X23152Y30263D1*
X23108Y30378D1*
Y30503D1*
X23153Y30619D1*
X23237Y30710D1*
X23348Y30765D1*
X23472Y30776D1*
X23592Y30742D1*
X23691Y30667D1*
X23756Y30561D1*
X23778Y30440D1*
X23755Y30318D1*
Y29568D2*
X23690Y29462D1*
X23590Y29387D1*
X23471Y29353D1*
X23347Y29365D1*
X23236Y29421D1*
X23152Y29513D1*
X23108Y29628D1*
Y29753D1*
X23153Y29869D1*
X23237Y29960D1*
X23348Y30015D1*
X23472Y30026D1*
X23592Y29992D1*
X23691Y29917D1*
X23756Y29811D1*
X23778Y29690D1*
X23755Y29568D1*
X23943Y28068D2*
X23877Y27962D1*
X23778Y27887D1*
X23658Y27853D1*
X23535Y27865D1*
X23423Y27921D1*
X23340Y28013D1*
X23295Y28128D1*
Y28253D1*
X23341Y28369D1*
X23424Y28460D1*
X23536Y28515D1*
X23660Y28526D1*
X23779Y28492D1*
X23878Y28417D1*
X23943Y28311D1*
X23965Y28190D1*
X23943Y28068D1*
X24845D2*
X24780Y27962D1*
X24680Y27887D1*
X24561Y27853D1*
X24437Y27865D1*
X24326Y27921D1*
X24242Y28013D1*
X24198Y28128D1*
Y28253D1*
X24243Y28369D1*
X24327Y28460D1*
X24438Y28515D1*
X24562Y28526D1*
X24682Y28492D1*
X24781Y28417D1*
X24846Y28311D1*
X24868Y28190D1*
X24845Y28068D1*
X25905D2*
X25840Y27962D1*
X25740Y27887D1*
X25621Y27853D1*
X25497Y27865D1*
X25386Y27921D1*
X25302Y28013D1*
X25258Y28128D1*
Y28253D1*
X25303Y28369D1*
X25387Y28460D1*
X25498Y28515D1*
X25622Y28526D1*
X25742Y28492D1*
X25841Y28417D1*
X25906Y28311D1*
X25928Y28190D1*
X25905Y28068D1*
X24505Y29068D2*
X24440Y28962D1*
X24340Y28887D1*
X24221Y28853D1*
X24097Y28865D1*
X23986Y28921D1*
X23902Y29013D1*
X23858Y29128D1*
Y29253D1*
X23903Y29369D1*
X23987Y29460D1*
X24098Y29515D1*
X24222Y29526D1*
X24342Y29492D1*
X24441Y29417D1*
X24506Y29311D1*
X24528Y29190D1*
X24505Y29068D1*
X25755Y30068D2*
X25690Y29962D1*
X25590Y29887D1*
X25471Y29853D1*
X25347Y29865D1*
X25236Y29921D1*
X25152Y30013D1*
X25108Y30128D1*
Y30253D1*
X25153Y30369D1*
X25237Y30460D1*
X25348Y30515D1*
X25472Y30526D1*
X25592Y30492D1*
X25691Y30417D1*
X25756Y30311D1*
X25778Y30190D1*
X25755Y30068D1*
X14568Y37880D2*
X14502Y37775D1*
X14403Y37700D1*
X14283Y37666D1*
X14160Y37678D1*
X14048Y37733D1*
X13965Y37825D1*
X13920Y37941D1*
Y38065D1*
X13966Y38181D1*
X14049Y38273D1*
X14161Y38328D1*
X14285Y38339D1*
X14404Y38305D1*
X14503Y38229D1*
X14568Y38123D1*
X14591Y38003D1*
X14568Y37880D1*
X14432Y34046D2*
X14415Y33958D1*
X14350Y33852D1*
X14250Y33777D1*
X14131Y33743D1*
X14007Y33755D1*
X13896Y33811D1*
X13812Y33903D1*
X13768Y34018D1*
Y34143D1*
X13813Y34259D1*
X13897Y34350D1*
X14008Y34405D1*
X14132Y34416D1*
X14252Y34382D1*
X14292Y34352D1*
X14343Y34499D1*
X14427Y34590D1*
X14538Y34645D1*
X14662Y34656D1*
X14782Y34622D1*
X14881Y34547D1*
X14946Y34441D1*
X14968Y34320D1*
X14945Y34198D1*
X14880Y34092D1*
X14780Y34017D1*
X14661Y33983D1*
X14537Y33995D1*
X14436Y34045D1*
X13850Y35799D2*
X13740Y35707D1*
X13621Y35673D1*
X13497Y35685D1*
X13386Y35741D1*
X13302Y35833D1*
X13258Y35948D1*
Y36073D1*
X13303Y36189D1*
X13387Y36280D1*
X13498Y36335D1*
X13622Y36346D1*
X13742Y36312D1*
X13847Y36227D1*
X13907Y36290D1*
X14018Y36345D1*
X14142Y36356D1*
X14262Y36322D1*
X14327Y36273D1*
X14438Y36325D1*
X14562Y36336D1*
X14682Y36302D1*
X14781Y36227D1*
X14846Y36121D1*
X14868Y36000D1*
X14845Y35878D1*
X14780Y35772D1*
X14680Y35697D1*
X14561Y35663D1*
X14437Y35675D1*
X14326Y35731D1*
X14308Y35751D1*
X14260Y35717D1*
X14141Y35683D1*
X14017Y35695D1*
X13906Y35751D1*
X13856Y35805D1*
X7128Y29747D2*
X7070Y29637D1*
X6980Y29551D1*
X6868Y29497D1*
X6744Y29482D1*
X6623Y29507D1*
X6515Y29569D1*
X6432Y29662D1*
X6383Y29777D1*
X6373Y29901D1*
X6403Y30022D1*
X6469Y30127D1*
X6566Y30206D1*
X6682Y30250D1*
X6806Y30255D1*
X6926Y30221D1*
X7029Y30150D1*
X7103Y30051D1*
X7143Y29933D1*
X7148Y29870D1*
X7128Y29747D1*
X14265Y21178D2*
X14200Y21072D1*
X14100Y20997D1*
X13981Y20963D1*
X13857Y20975D1*
X13746Y21031D1*
X13662Y21123D1*
X13618Y21238D1*
Y21363D1*
X13663Y21479D1*
X13747Y21570D1*
X13858Y21625D1*
X13982Y21636D1*
X14102Y21602D1*
X14201Y21527D1*
X14266Y21421D1*
X14288Y21300D1*
X14265Y21178D1*
X11208Y21265D2*
X11130Y21207D1*
X11011Y21173D1*
X10887Y21184D1*
X10776Y21240D1*
X10692Y21332D1*
X10648Y21448D1*
Y21572D1*
X10693Y21688D1*
X10777Y21780D1*
X10888Y21835D1*
X11001Y21845D1*
X10968Y21938D1*
Y22063D1*
X11013Y22179D1*
X11097Y22270D1*
X11208Y22325D1*
X11332Y22336D1*
X11452Y22302D1*
X11551Y22227D1*
X11573Y22190D1*
X11578Y22263D1*
X11623Y22379D1*
X11707Y22470D1*
X11818Y22525D1*
X11942Y22536D1*
X12062Y22502D1*
X12161Y22427D1*
X12226Y22321D1*
X12248Y22200D1*
X12225Y22078D1*
X12160Y21972D1*
X12060Y21897D1*
X11941Y21863D1*
X11817Y21875D1*
X11706Y21931D1*
X11635Y22008D1*
X11615Y21878D1*
X11550Y21772D1*
X11450Y21697D1*
X11331Y21663D1*
X11281Y21668D1*
X11309Y21559D1*
X11448Y21635D1*
X11572Y21646D1*
X11692Y21612D1*
X11791Y21537D1*
X11856Y21431D1*
X11878Y21310D1*
X11855Y21188D1*
X11790Y21082D1*
X11690Y21007D1*
X11571Y20973D1*
X11447Y20985D1*
X11336Y21041D1*
X11252Y21133D1*
X11208Y21260D1*
X9818Y18818D2*
X9752Y18712D1*
X9653Y18637D1*
X9533Y18603D1*
X9410Y18615D1*
X9298Y18671D1*
X9215Y18763D1*
X9170Y18879D1*
Y19003D1*
X9216Y19119D1*
X9299Y19210D1*
X9411Y19265D1*
X9535Y19276D1*
X9654Y19242D1*
X9753Y19167D1*
X9818Y19061D1*
X9841Y18940D1*
X9818Y18818D1*
X15410Y18838D2*
X15345Y18732D1*
X15245Y18657D1*
X15126Y18623D1*
X15002Y18635D1*
X14891Y18691D1*
X14807Y18783D1*
X14763Y18898D1*
Y19023D1*
X14808Y19139D1*
X14892Y19230D1*
X15003Y19285D1*
X15127Y19296D1*
X15247Y19262D1*
X15346Y19187D1*
X15411Y19081D1*
X15433Y18960D1*
X15410Y18838D1*
X9818Y18818D2*
X9752Y18712D1*
X9653Y18637D1*
X9533Y18603D1*
X9410Y18615D1*
X9298Y18671D1*
X9215Y18763D1*
X9170Y18879D1*
Y19003D1*
X9216Y19119D1*
X9299Y19210D1*
X9411Y19265D1*
X9535Y19276D1*
X9654Y19242D1*
X9753Y19167D1*
X9818Y19061D1*
X9841Y18940D1*
X9818Y18818D1*
X14935Y24818D2*
X14870Y24712D1*
X14770Y24637D1*
X14651Y24603D1*
X14527Y24615D1*
X14433Y24662D1*
X14496Y24561D1*
X14518Y24440D1*
X14495Y24318D1*
X14430Y24212D1*
X14330Y24137D1*
X14211Y24103D1*
X14087Y24115D1*
X13976Y24171D1*
X13892Y24263D1*
X13848Y24378D1*
Y24503D1*
X13875Y24572D1*
X13827Y24585D1*
X13716Y24641D1*
X13632Y24733D1*
X13588Y24848D1*
Y24973D1*
X13606Y25020D1*
X13507Y25035D1*
X13396Y25091D1*
X13312Y25183D1*
X13268Y25298D1*
Y25423D1*
X13313Y25539D1*
X13397Y25630D1*
X13508Y25685D1*
X13632Y25696D1*
X13752Y25662D1*
X13823Y25608D1*
X13853Y25679D1*
X13937Y25770D1*
X14048Y25825D1*
X14172Y25836D1*
X14292Y25802D1*
X14391Y25727D1*
X14456Y25621D1*
X14478Y25500D1*
X14455Y25378D1*
X14390Y25272D1*
X14290Y25197D1*
X14171Y25163D1*
X14144Y25166D1*
X14236Y25031D1*
X14258Y24910D1*
X14225Y24771D1*
X14332Y24763D1*
X14288Y24878D1*
Y25003D1*
X14333Y25119D1*
X14417Y25210D1*
X14528Y25265D1*
X14652Y25276D1*
X14772Y25242D1*
X14871Y25167D1*
X14936Y25061D1*
X14958Y24940D1*
X14935Y24818D1*
X14870Y24712D1*
X14770Y24637D1*
X14651Y24603D1*
X14527Y24615D1*
X14433Y24662D1*
X14372Y24712D1*
X14332Y24763D1*
X14288Y24878D1*
Y25003D1*
X14333Y25119D1*
X14417Y25210D1*
X14528Y25265D1*
X14652Y25276D1*
X14772Y25242D1*
X14871Y25167D1*
X14936Y25061D1*
X14958Y24940D1*
X14935Y24818D1*
X8775Y14718D2*
X8710Y14612D1*
X8610Y14537D1*
X8491Y14503D1*
X8367Y14515D1*
X8256Y14571D1*
X8172Y14663D1*
X8128Y14778D1*
Y14903D1*
X8173Y15019D1*
X8257Y15110D1*
X8368Y15165D1*
X8492Y15176D1*
X8612Y15142D1*
X8711Y15067D1*
X8776Y14961D1*
X8798Y14840D1*
X8775Y14718D1*
X11304Y17666D2*
X11428Y17735D1*
X11552Y17746D1*
X11672Y17712D1*
X11771Y17637D1*
X11836Y17531D1*
X11858Y17410D1*
X11835Y17288D1*
X11770Y17182D1*
X11670Y17107D1*
X11551Y17073D1*
X11427Y17085D1*
X11316Y17141D1*
X11232Y17233D1*
X11186Y17346D1*
X11120Y17297D1*
X11001Y17263D1*
X10877Y17275D1*
X10766Y17331D1*
X10682Y17423D1*
X10638Y17538D1*
Y17663D1*
X10683Y17779D1*
X10767Y17870D1*
X10878Y17925D1*
X11002Y17936D1*
X11122Y17902D1*
X11221Y17827D1*
X11286Y17721D1*
X11296Y17664D1*
X11428Y17735D1*
X11552Y17746D1*
X11672Y17712D1*
X11771Y17637D1*
X11836Y17531D1*
X11858Y17410D1*
X11835Y17288D1*
X11770Y17182D1*
X11670Y17107D1*
X11551Y17073D1*
X11427Y17085D1*
X11316Y17141D1*
X11232Y17233D1*
X11189Y17345D1*
X10545Y27898D2*
X10480Y27792D1*
X10380Y27717D1*
X10261Y27683D1*
X10137Y27695D1*
X10026Y27751D1*
X9942Y27843D1*
X9898Y27958D1*
Y28083D1*
X9943Y28199D1*
X10027Y28290D1*
X10138Y28345D1*
X10262Y28356D1*
X10382Y28322D1*
X10481Y28247D1*
X10546Y28141D1*
X10568Y28020D1*
X10545Y27898D1*
X10735Y30748D2*
X10670Y30642D1*
X10570Y30567D1*
X10451Y30533D1*
X10327Y30545D1*
X10216Y30601D1*
X10132Y30693D1*
X10088Y30808D1*
Y30933D1*
X10133Y31049D1*
X10217Y31140D1*
X10328Y31195D1*
X10452Y31206D1*
X10572Y31172D1*
X10671Y31097D1*
X10736Y30991D1*
X10758Y30870D1*
X10735Y30748D1*
X16235Y15978D2*
X16170Y15872D1*
X16070Y15797D1*
X15951Y15763D1*
X15827Y15775D1*
X15716Y15831D1*
X15632Y15923D1*
X15588Y16038D1*
Y16163D1*
X15633Y16279D1*
X15717Y16370D1*
X15828Y16425D1*
X15952Y16436D1*
X16072Y16402D1*
X16171Y16327D1*
X16236Y16221D1*
X16258Y16100D1*
X16235Y15978D1*
X15410Y18838D2*
X15345Y18732D1*
X15245Y18657D1*
X15126Y18623D1*
X15002Y18635D1*
X14891Y18691D1*
X14807Y18783D1*
X14763Y18898D1*
Y19023D1*
X14808Y19139D1*
X14892Y19230D1*
X15003Y19285D1*
X15127Y19296D1*
X15247Y19262D1*
X15346Y19187D1*
X15411Y19081D1*
X15433Y18960D1*
X15410Y18838D1*
X16235Y15978D2*
X16170Y15872D1*
X16070Y15797D1*
X15951Y15763D1*
X15827Y15775D1*
X15716Y15831D1*
X15632Y15923D1*
X15588Y16038D1*
Y16163D1*
X15633Y16279D1*
X15717Y16370D1*
X15828Y16425D1*
X15952Y16436D1*
X16072Y16402D1*
X16171Y16327D1*
X16236Y16221D1*
X16258Y16100D1*
X16235Y15978D1*
X19175Y16359D2*
X19110Y16253D1*
X19010Y16178D1*
X18891Y16144D1*
X18767Y16156D1*
X18656Y16211D1*
X18572Y16303D1*
X18528Y16419D1*
Y16544D1*
X18573Y16660D1*
X18657Y16751D1*
X18768Y16806D1*
X18892Y16817D1*
X19012Y16783D1*
X19111Y16708D1*
X19176Y16602D1*
X19198Y16481D1*
X19175Y16359D1*
X14265Y21178D2*
X14200Y21072D1*
X14100Y20997D1*
X13981Y20963D1*
X13857Y20975D1*
X13746Y21031D1*
X13662Y21123D1*
X13618Y21238D1*
Y21363D1*
X13663Y21479D1*
X13747Y21570D1*
X13858Y21625D1*
X13982Y21636D1*
X14102Y21602D1*
X14201Y21527D1*
X14266Y21421D1*
X14288Y21300D1*
X14265Y21178D1*
X11125Y25398D2*
X11060Y25292D1*
X10960Y25217D1*
X10841Y25183D1*
X10717Y25195D1*
X10606Y25251D1*
X10522Y25343D1*
X10478Y25458D1*
Y25583D1*
X10523Y25699D1*
X10607Y25790D1*
X10718Y25845D1*
X10842Y25856D1*
X10962Y25822D1*
X11061Y25747D1*
X11126Y25641D1*
X11148Y25520D1*
X11125Y25398D1*
X8445Y30350D2*
X8380Y30245D1*
X8280Y30170D1*
X8161Y30136D1*
X8037Y30148D1*
X7926Y30203D1*
X7842Y30295D1*
X7798Y30411D1*
Y30535D1*
X7843Y30651D1*
X7927Y30743D1*
X8038Y30798D1*
X8162Y30809D1*
X8282Y30775D1*
X8381Y30699D1*
X8446Y30593D1*
X8468Y30473D1*
X8445Y30350D1*
X8318Y28443D2*
X8252Y28337D1*
X8153Y28262D1*
X8033Y28228D1*
X7910Y28240D1*
X7798Y28296D1*
X7715Y28388D1*
X7670Y28503D1*
Y28628D1*
X7716Y28744D1*
X7799Y28835D1*
X7911Y28890D1*
X8035Y28901D1*
X8154Y28867D1*
X8253Y28792D1*
X8318Y28686D1*
X8341Y28565D1*
X8318Y28443D1*
X14175Y13678D2*
X14110Y13572D1*
X14010Y13497D1*
X13891Y13463D1*
X13767Y13475D1*
X13656Y13531D1*
X13572Y13623D1*
X13528Y13738D1*
Y13863D1*
X13573Y13979D1*
X13657Y14070D1*
X13768Y14125D1*
X13892Y14136D1*
X14012Y14102D1*
X14111Y14027D1*
X14176Y13921D1*
X14198Y13800D1*
X14175Y13678D1*
X14110Y13572D1*
X14010Y13497D1*
X13891Y13463D1*
X13767Y13475D1*
X13656Y13531D1*
X13572Y13623D1*
X13528Y13738D1*
Y13863D1*
X13573Y13979D1*
X13657Y14070D1*
X13768Y14125D1*
X13892Y14136D1*
X14012Y14102D1*
X14111Y14027D1*
X14176Y13921D1*
X14198Y13800D1*
X14175Y13678D1*
X15445Y15128D2*
X15380Y15022D1*
X15280Y14947D1*
X15161Y14913D1*
X15037Y14925D1*
X14926Y14981D1*
X14842Y15073D1*
X14798Y15188D1*
Y15313D1*
X14843Y15429D1*
X14927Y15520D1*
X15038Y15575D1*
X15162Y15586D1*
X15282Y15552D1*
X15381Y15477D1*
X15446Y15371D1*
X15468Y15250D1*
X15445Y15128D1*
X17845Y8448D2*
X17780Y8342D1*
X17680Y8267D1*
X17561Y8233D1*
X17437Y8245D1*
X17326Y8301D1*
X17242Y8393D1*
X17198Y8508D1*
Y8633D1*
X17243Y8749D1*
X17327Y8840D1*
X17438Y8895D1*
X17562Y8906D1*
X17682Y8872D1*
X17781Y8797D1*
X17846Y8691D1*
X17868Y8570D1*
X17845Y8448D1*
X17745Y18958D2*
X17680Y18852D1*
X17580Y18777D1*
X17461Y18743D1*
X17337Y18755D1*
X17226Y18811D1*
X17142Y18903D1*
X17098Y19018D1*
Y19143D1*
X17143Y19259D1*
X17227Y19350D1*
X17338Y19405D1*
X17462Y19416D1*
X17582Y19382D1*
X17681Y19307D1*
X17746Y19201D1*
X17768Y19080D1*
X17745Y18958D1*
X11125Y25398D2*
X11060Y25292D1*
X10960Y25217D1*
X10841Y25183D1*
X10717Y25195D1*
X10606Y25251D1*
X10522Y25343D1*
X10478Y25458D1*
Y25583D1*
X10523Y25699D1*
X10607Y25790D1*
X10718Y25845D1*
X10842Y25856D1*
X10962Y25822D1*
X11061Y25747D1*
X11126Y25641D1*
X11148Y25520D1*
X11125Y25398D1*
X8775Y23728D2*
X8710Y23622D1*
X8610Y23547D1*
X8491Y23513D1*
X8367Y23525D1*
X8256Y23581D1*
X8172Y23673D1*
X8128Y23788D1*
Y23913D1*
X8173Y24029D1*
X8257Y24120D1*
X8368Y24175D1*
X8492Y24186D1*
X8612Y24152D1*
X8711Y24077D1*
X8776Y23971D1*
X8798Y23850D1*
X8775Y23728D1*
X19255Y20488D2*
X19190Y20382D1*
X19090Y20307D1*
X18971Y20273D1*
X18847Y20285D1*
X18736Y20341D1*
X18652Y20433D1*
X18608Y20548D1*
Y20673D1*
X18653Y20789D1*
X18737Y20880D1*
X18848Y20935D1*
X18972Y20946D1*
X19092Y20912D1*
X19191Y20837D1*
X19256Y20731D1*
X19278Y20610D1*
X19255Y20488D1*
X10735Y30748D2*
X10670Y30642D1*
X10570Y30567D1*
X10451Y30533D1*
X10327Y30545D1*
X10216Y30601D1*
X10132Y30693D1*
X10088Y30808D1*
Y30933D1*
X10133Y31049D1*
X10217Y31140D1*
X10328Y31195D1*
X10452Y31206D1*
X10572Y31172D1*
X10671Y31097D1*
X10736Y30991D1*
X10758Y30870D1*
X10735Y30748D1*
X8445Y30350D2*
X8380Y30245D1*
X8280Y30170D1*
X8161Y30136D1*
X8037Y30148D1*
X7926Y30203D1*
X7842Y30295D1*
X7798Y30411D1*
Y30535D1*
X7843Y30651D1*
X7927Y30743D1*
X8038Y30798D1*
X8162Y30809D1*
X8282Y30775D1*
X8381Y30699D1*
X8446Y30593D1*
X8468Y30473D1*
X8445Y30350D1*
X9505Y36318D2*
X9440Y36212D1*
X9340Y36137D1*
X9221Y36103D1*
X9097Y36115D1*
X8986Y36171D1*
X8902Y36263D1*
X8858Y36378D1*
Y36503D1*
X8903Y36619D1*
X8987Y36710D1*
X9098Y36765D1*
X9222Y36776D1*
X9342Y36742D1*
X9441Y36667D1*
X9506Y36561D1*
X9528Y36440D1*
X9505Y36318D1*
X9440Y36212D1*
X9340Y36137D1*
X9221Y36103D1*
X9097Y36115D1*
X8986Y36171D1*
X8902Y36263D1*
X8858Y36378D1*
Y36503D1*
X8903Y36619D1*
X8987Y36710D1*
X9098Y36765D1*
X9222Y36776D1*
X9342Y36742D1*
X9441Y36667D1*
X9506Y36561D1*
X9528Y36440D1*
X9505Y36318D1*
X9440Y36212D1*
X9340Y36137D1*
X9221Y36103D1*
X9097Y36115D1*
X8986Y36171D1*
X8902Y36263D1*
X8858Y36378D1*
Y36503D1*
X8903Y36619D1*
X8987Y36710D1*
X9098Y36765D1*
X9222Y36776D1*
X9342Y36742D1*
X9441Y36667D1*
X9506Y36561D1*
X9528Y36440D1*
X9505Y36318D1*
X12833Y34005D2*
X12767Y33900D1*
X12668Y33825D1*
X12548Y33791D1*
X12425Y33803D1*
X12313Y33858D1*
X12230Y33950D1*
X12185Y34066D1*
Y34190D1*
X12231Y34306D1*
X12314Y34398D1*
X12426Y34453D1*
X12550Y34464D1*
X12669Y34430D1*
X12768Y34354D1*
X12833Y34248D1*
X12855Y34128D1*
X12833Y34005D1*
X11185Y22968D2*
X11120Y22862D1*
X11020Y22787D1*
X10901Y22753D1*
X10777Y22765D1*
X10666Y22821D1*
X10582Y22913D1*
X10538Y23028D1*
Y23153D1*
X10583Y23269D1*
X10667Y23360D1*
X10778Y23415D1*
X10902Y23426D1*
X11022Y23392D1*
X11121Y23317D1*
X11186Y23211D1*
X11208Y23090D1*
X11185Y22968D1*
X12296Y18039D2*
X12161Y17993D1*
X12037Y18005D1*
X11926Y18061D1*
X11842Y18153D1*
X11798Y18268D1*
Y18393D1*
X11843Y18509D1*
X11927Y18600D1*
X12038Y18655D1*
X12162Y18666D1*
X12282Y18632D1*
X12381Y18557D1*
X12446Y18451D1*
X12463Y18356D1*
X12538Y18385D1*
X12662Y18396D1*
X12782Y18362D1*
X12881Y18287D1*
X12946Y18181D1*
X12968Y18060D1*
X12945Y17938D1*
X12880Y17832D1*
X12780Y17757D1*
X12661Y17723D1*
X12537Y17735D1*
X12426Y17791D1*
X12342Y17883D1*
X12298Y17998D1*
Y18033D1*
X15865Y33088D2*
X15800Y32982D1*
X15700Y32907D1*
X15581Y32873D1*
X15457Y32885D1*
X15346Y32941D1*
X15262Y33033D1*
X15218Y33148D1*
Y33273D1*
X15263Y33389D1*
X15347Y33480D1*
X15458Y33535D1*
X15582Y33546D1*
X15702Y33512D1*
X15801Y33437D1*
X15866Y33331D1*
X15888Y33210D1*
X15865Y33088D1*
X11405Y32898D2*
X11340Y32792D1*
X11240Y32717D1*
X11121Y32683D1*
X10997Y32695D1*
X10886Y32751D1*
X10802Y32843D1*
X10758Y32958D1*
Y33083D1*
X10803Y33199D1*
X10887Y33290D1*
X10998Y33345D1*
X11122Y33356D1*
X11242Y33322D1*
X11341Y33247D1*
X11406Y33141D1*
X11428Y33020D1*
X11405Y32898D1*
X11595Y28358D2*
X11530Y28252D1*
X11430Y28177D1*
X11311Y28143D1*
X11230Y28151D1*
X11248Y28040D1*
X11225Y27918D1*
X11160Y27812D1*
X11060Y27737D1*
X10941Y27703D1*
X10817Y27715D1*
X10706Y27771D1*
X10622Y27863D1*
X10578Y27978D1*
Y28103D1*
X10623Y28219D1*
X10707Y28310D1*
X10818Y28365D1*
X10961Y28371D1*
X10948Y28418D1*
Y28543D1*
X10993Y28659D1*
X11077Y28750D1*
X11188Y28805D1*
X11312Y28816D1*
X11432Y28782D1*
X11531Y28707D1*
X11596Y28601D1*
X11618Y28480D1*
X11595Y28358D1*
X9255Y27958D2*
X9190Y27852D1*
X9090Y27777D1*
X8971Y27743D1*
X8847Y27755D1*
X8736Y27811D1*
X8652Y27903D1*
X8609Y28015D1*
X8567Y28025D1*
X8456Y28081D1*
X8372Y28173D1*
X8328Y28288D1*
Y28413D1*
X8373Y28529D1*
X8457Y28620D1*
X8568Y28675D1*
X8692Y28686D1*
X8812Y28652D1*
X8911Y28577D1*
X8976Y28471D1*
X8986Y28414D1*
X9092Y28382D1*
X9191Y28307D1*
X9256Y28201D1*
X9278Y28080D1*
X9255Y27958D1*
X12095Y33268D2*
X12030Y33162D1*
X11930Y33087D1*
X11811Y33053D1*
X11687Y33065D1*
X11576Y33121D1*
X11492Y33213D1*
X11448Y33328D1*
Y33453D1*
X11493Y33569D1*
X11577Y33660D1*
X11688Y33715D1*
X11812Y33726D1*
X11932Y33692D1*
X12031Y33617D1*
X12096Y33511D1*
X12118Y33390D1*
X12095Y33268D1*
X13673Y33190D2*
X13665Y33148D1*
X13600Y33042D1*
X13500Y32967D1*
X13381Y32933D1*
X13257Y32945D1*
X13146Y33001D1*
X13062Y33093D1*
X13018Y33208D1*
Y33333D1*
X13063Y33449D1*
X13147Y33540D1*
X13258Y33595D1*
X13316Y33601D1*
X13363Y33709D1*
X13447Y33800D1*
X13558Y33855D1*
X13682Y33866D1*
X13802Y33832D1*
X13901Y33757D1*
X13966Y33651D1*
X13979Y33579D1*
X14068Y33615D1*
X14192Y33626D1*
X14312Y33592D1*
X14411Y33517D1*
X14476Y33411D1*
X14498Y33290D1*
X14475Y33168D1*
X14410Y33062D1*
X14310Y32987D1*
X14191Y32953D1*
X14067Y32965D1*
X13956Y33021D1*
X13872Y33113D1*
X13828Y33240D1*
X13677Y33194D1*
X13195Y17288D2*
X13130Y17182D1*
X13030Y17107D1*
X12892Y17075D1*
X12921Y17047D1*
X12986Y16941D1*
X13008Y16820D1*
X12983Y16695D1*
X13072Y16696D1*
X13192Y16662D1*
X13291Y16587D1*
X13356Y16481D1*
X13378Y16360D1*
X13355Y16238D1*
X13290Y16132D1*
X13190Y16057D1*
X13071Y16023D1*
X12947Y16035D1*
X12836Y16091D1*
X12752Y16183D1*
X12708Y16298D1*
Y16423D1*
X12735Y16492D1*
X12701Y16483D1*
X12577Y16495D1*
X12466Y16551D1*
X12382Y16643D1*
X12338Y16758D1*
Y16883D1*
X12383Y16999D1*
X12467Y17090D1*
X12578Y17145D1*
X12660Y17153D1*
X12592Y17233D1*
X12548Y17348D1*
Y17473D1*
X12593Y17589D1*
X12677Y17680D1*
X12788Y17735D1*
X12912Y17746D1*
X13032Y17712D1*
X13131Y17637D1*
X13196Y17531D1*
X13218Y17410D1*
X13195Y17288D1*
X14953Y16338D2*
X14887Y16232D1*
X14788Y16157D1*
X14695Y16131D1*
X14675Y15998D1*
X14610Y15892D1*
X14510Y15817D1*
X14391Y15783D1*
X14267Y15795D1*
X14156Y15851D1*
X14072Y15943D1*
X14028Y16058D1*
Y16183D1*
X14073Y16299D1*
X14157Y16390D1*
X14268Y16445D1*
X14303Y16448D1*
X14305Y16523D1*
X14351Y16639D1*
X14434Y16730D1*
X14546Y16785D1*
X14670Y16796D1*
X14789Y16762D1*
X14888Y16687D1*
X14953Y16581D1*
X14975Y16460D1*
X14953Y16338D1*
X13475Y22288D2*
X13410Y22182D1*
X13310Y22107D1*
X13191Y22073D1*
X13067Y22085D1*
X12956Y22141D1*
X12872Y22233D1*
X12828Y22348D1*
Y22473D1*
X12873Y22589D1*
X12957Y22680D1*
X13068Y22735D1*
X13192Y22746D1*
X13312Y22712D1*
X13411Y22637D1*
X13476Y22531D1*
X13498Y22410D1*
X13475Y22288D1*
X12337Y13490D2*
X12421Y13427D1*
X12486Y13321D1*
X12508Y13200D1*
X12485Y13078D1*
X12420Y12972D1*
X12320Y12897D1*
X12201Y12863D1*
X12077Y12875D1*
X11966Y12931D1*
X11882Y13023D1*
X11838Y13138D1*
Y13263D1*
X11883Y13379D1*
X11967Y13470D1*
X11998Y13486D1*
X11882Y13603D1*
X11838Y13718D1*
Y13843D1*
X11868Y13919D1*
X11736Y13981D1*
X11652Y14073D1*
X11608Y14188D1*
Y14313D1*
X11656Y14431D1*
X11537Y14445D1*
X11426Y14501D1*
X11342Y14593D1*
X11298Y14708D1*
Y14833D1*
X11343Y14949D1*
X11427Y15040D1*
X11538Y15095D1*
X11662Y15106D1*
X11782Y15072D1*
X11881Y14997D1*
X11946Y14891D1*
X11968Y14770D1*
X11945Y14648D1*
X11906Y14585D1*
X11972Y14586D1*
X12092Y14552D1*
X12191Y14477D1*
X12256Y14371D1*
X12278Y14250D1*
X12245Y14111D1*
X12322Y14082D1*
X12421Y14007D1*
X12486Y13901D1*
X12508Y13780D1*
X12485Y13658D1*
X12420Y13552D1*
X12342Y13494D1*
X12421Y13427D1*
X12486Y13321D1*
X12508Y13200D1*
X12485Y13078D1*
X12420Y12972D1*
X12320Y12897D1*
X12201Y12863D1*
X12077Y12875D1*
X11966Y12931D1*
X11882Y13023D1*
X11838Y13138D1*
Y13263D1*
X11883Y13379D1*
X11967Y13470D1*
X11998Y13486D1*
X14895Y22658D2*
X14830Y22552D1*
X14730Y22477D1*
X14611Y22443D1*
X14487Y22455D1*
X14376Y22511D1*
X14292Y22603D1*
X14248Y22718D1*
Y22843D1*
X14293Y22959D1*
X14377Y23050D1*
X14488Y23105D1*
X14612Y23116D1*
X14732Y23082D1*
X14831Y23007D1*
X14896Y22901D1*
X14918Y22780D1*
X14895Y22658D1*
X13960Y16783D2*
X13895Y16677D1*
X13795Y16602D1*
X13676Y16568D1*
X13552Y16580D1*
X13441Y16636D1*
X13357Y16728D1*
X13313Y16843D1*
Y16968D1*
X13358Y17084D1*
X13459Y17184D1*
X13402Y17253D1*
X13358Y17368D1*
Y17493D1*
X13403Y17609D1*
X13487Y17700D1*
X13598Y17755D1*
X13722Y17766D1*
X13842Y17732D1*
X13941Y17657D1*
X14006Y17551D1*
X14028Y17430D1*
X14005Y17308D1*
X13940Y17202D1*
X13875Y17153D1*
X13961Y17026D1*
X13983Y16905D1*
X13960Y16783D1*
X14568Y18058D2*
X14540Y18037D1*
X14421Y18003D1*
X14297Y18015D1*
X14186Y18071D1*
X14115Y18148D1*
X14050Y18042D1*
X13950Y17967D1*
X13831Y17933D1*
X13707Y17945D1*
X13596Y18001D1*
X13512Y18093D1*
X13468Y18208D1*
Y18333D1*
X13513Y18449D1*
X13597Y18540D1*
X13708Y18595D1*
X13832Y18606D1*
X13952Y18572D1*
X14051Y18497D1*
X14073Y18460D1*
X14103Y18519D1*
X14187Y18610D1*
X14298Y18665D1*
X14422Y18676D1*
X14557Y18630D1*
X14648Y18675D1*
X14772Y18686D1*
X14892Y18652D1*
X14991Y18577D1*
X15056Y18471D1*
X15078Y18350D1*
X15055Y18228D1*
X14990Y18122D1*
X14890Y18047D1*
X14771Y18013D1*
X14647Y18025D1*
X14581Y18058D1*
X15715Y21648D2*
X15650Y21542D1*
X15550Y21467D1*
X15431Y21433D1*
X15307Y21445D1*
X15196Y21501D1*
X15112Y21593D1*
X15068Y21708D1*
Y21833D1*
X15113Y21949D1*
X15197Y22040D1*
X15308Y22095D1*
X15432Y22106D1*
X15552Y22072D1*
X15651Y21997D1*
X15716Y21891D1*
X15738Y21770D1*
X15715Y21648D1*
X7635Y23308D2*
X7570Y23202D1*
X7470Y23127D1*
X7351Y23093D1*
X7227Y23105D1*
X7116Y23161D1*
X7032Y23253D1*
X6988Y23368D1*
Y23493D1*
X7033Y23609D1*
X7117Y23700D1*
X7228Y23755D1*
X7352Y23766D1*
X7472Y23732D1*
X7571Y23657D1*
X7636Y23551D1*
X7658Y23430D1*
X7635Y23308D1*
X6755Y25228D2*
X6690Y25122D1*
X6656Y25096D1*
X6736Y24971D1*
X6758Y24850D1*
X6735Y24728D1*
X6670Y24622D1*
X6570Y24547D1*
X6451Y24513D1*
X6327Y24525D1*
X6216Y24581D1*
X6132Y24673D1*
X6088Y24788D1*
Y24913D1*
X6133Y25029D1*
X6204Y25106D1*
X6152Y25173D1*
X6108Y25288D1*
Y25413D1*
X6153Y25529D1*
X6237Y25620D1*
X6348Y25675D1*
X6472Y25686D1*
X6592Y25652D1*
X6691Y25577D1*
X6756Y25471D1*
X6778Y25350D1*
X6755Y25228D1*
X15955Y17298D2*
X15890Y17192D1*
X15790Y17117D1*
X15671Y17083D1*
X15547Y17095D1*
X15436Y17151D1*
X15352Y17243D1*
X15308Y17358D1*
Y17483D1*
X15353Y17599D1*
X15437Y17690D1*
X15548Y17745D1*
X15672Y17756D1*
X15792Y17722D1*
X15891Y17647D1*
X15956Y17541D1*
X15978Y17420D1*
X15955Y17298D1*
X17365Y19648D2*
X17300Y19542D1*
X17200Y19467D1*
X17081Y19433D1*
X16957Y19445D1*
X16846Y19501D1*
X16762Y19593D1*
X16718Y19708D1*
Y19833D1*
X16763Y19949D1*
X16847Y20040D1*
X16958Y20095D1*
X17082Y20106D1*
X17202Y20072D1*
X17301Y19997D1*
X17366Y19891D1*
X17388Y19770D1*
X17365Y19648D1*
X16465Y21208D2*
X16400Y21102D1*
X16300Y21027D1*
X16181Y20993D1*
X16057Y21005D1*
X15946Y21061D1*
X15862Y21153D1*
X15818Y21268D1*
Y21393D1*
X15863Y21509D1*
X15947Y21600D1*
X16058Y21655D1*
X16182Y21666D1*
X16302Y21632D1*
X16401Y21557D1*
X16466Y21451D1*
X16488Y21330D1*
X16465Y21208D1*
X12815Y22718D2*
X12750Y22612D1*
X12650Y22537D1*
X12531Y22503D1*
X12407Y22515D1*
X12296Y22571D1*
X12212Y22663D1*
X12168Y22778D1*
Y22903D1*
X12213Y23019D1*
X12297Y23110D1*
X12408Y23165D1*
X12532Y23176D1*
X12652Y23142D1*
X12751Y23067D1*
X12816Y22961D1*
X12838Y22840D1*
X12815Y22718D1*
X13455Y14808D2*
X13390Y14702D1*
X13290Y14627D1*
X13171Y14593D1*
X13047Y14605D1*
X12936Y14661D1*
X12852Y14753D1*
X12808Y14868D1*
Y14993D1*
X12853Y15109D1*
X12937Y15200D1*
X13048Y15255D1*
X13172Y15266D1*
X13292Y15232D1*
X13391Y15157D1*
X13456Y15051D1*
X13478Y14930D1*
X13455Y14808D1*
X8465Y16358D2*
X8400Y16252D1*
X8300Y16177D1*
X8181Y16143D1*
X8057Y16155D1*
X7946Y16211D1*
X7862Y16303D1*
X7818Y16418D1*
Y16543D1*
X7863Y16659D1*
X7947Y16750D1*
X8058Y16805D1*
X8182Y16816D1*
X8302Y16782D1*
X8401Y16707D1*
X8466Y16601D1*
X8488Y16480D1*
X8465Y16358D1*
X8845Y17888D2*
X8780Y17782D1*
X8680Y17707D1*
X8561Y17673D1*
X8437Y17685D1*
X8326Y17741D1*
X8242Y17833D1*
X8198Y17948D1*
Y18073D1*
X8243Y18189D1*
X8327Y18280D1*
X8438Y18335D1*
X8562Y18346D1*
X8682Y18312D1*
X8781Y18237D1*
X8846Y18131D1*
X8868Y18010D1*
X8845Y17888D1*
X22879Y9803D2*
X22814Y9697D1*
X22715Y9622D1*
X22595Y9588D1*
X22471Y9600D1*
X22360Y9655D1*
X22277Y9747D1*
X22232Y9863D1*
Y9988D1*
X22277Y10103D1*
X22361Y10195D1*
X22473Y10250D1*
X22596Y10261D1*
X22716Y10227D1*
X22815Y10152D1*
X22880Y10046D1*
X22902Y9925D1*
X22879Y9803D1*
X22754Y17640D2*
X22689Y17535D1*
X22590Y17460D1*
X22470Y17426D1*
X22346Y17437D1*
X22235Y17493D1*
X22151Y17585D1*
X22107Y17701D1*
Y17825D1*
X22152Y17941D1*
X22236Y18033D1*
X22348Y18088D1*
X22471Y18099D1*
X22591Y18064D1*
X22690Y17989D1*
X22755Y17883D1*
X22777Y17762D1*
X22754Y17640D1*
X9553Y41365D2*
X9487Y41260D1*
X9388Y41185D1*
X9268Y41151D1*
X9145Y41162D1*
X9033Y41218D1*
X8950Y41310D1*
X8905Y41426D1*
Y41550D1*
X8951Y41666D1*
X9034Y41758D1*
X9146Y41813D1*
X9270Y41824D1*
X9389Y41790D1*
X9488Y41714D1*
X9553Y41608D1*
X9575Y41487D1*
X9553Y41365D1*
X10450Y39753D2*
X10385Y39647D1*
X10286Y39572D1*
X10166Y39539D1*
X10042Y39550D1*
X9931Y39606D1*
X9847Y39698D1*
X9803Y39814D1*
Y39938D1*
X9848Y40054D1*
X9932Y40145D1*
X10044Y40200D1*
X10167Y40212D1*
X10287Y40177D1*
X10386Y40102D1*
X10451Y39996D1*
X10473Y39875D1*
X10450Y39753D1*
X10385Y39647D1*
X10286Y39572D1*
X10166Y39539D1*
X10042Y39550D1*
X9931Y39606D1*
X9847Y39698D1*
X9803Y39814D1*
Y39938D1*
X9848Y40054D1*
X9932Y40145D1*
X10044Y40200D1*
X10167Y40212D1*
X10287Y40177D1*
X10386Y40102D1*
X10451Y39996D1*
X10473Y39875D1*
X10450Y39753D1*
X17135Y8778D2*
X17070Y8672D1*
X16970Y8597D1*
X16851Y8563D1*
X16727Y8575D1*
X16616Y8631D1*
X16532Y8723D1*
X16488Y8838D1*
Y8963D1*
X16533Y9079D1*
X16617Y9170D1*
X16728Y9225D1*
X16852Y9236D1*
X16972Y9202D1*
X17071Y9127D1*
X17136Y9021D1*
X17158Y8900D1*
X17135Y8778D1*
X17145Y21208D2*
X17080Y21102D1*
X16980Y21027D1*
X16861Y20993D1*
X16737Y21005D1*
X16626Y21061D1*
X16542Y21153D1*
X16498Y21268D1*
Y21393D1*
X16543Y21509D1*
X16627Y21600D1*
X16738Y21655D1*
X16862Y21666D1*
X16982Y21632D1*
X17081Y21557D1*
X17146Y21451D1*
X17168Y21330D1*
X17145Y21208D1*
X13065Y23448D2*
X13000Y23342D1*
X12900Y23267D1*
X12781Y23233D1*
X12657Y23245D1*
X12546Y23301D1*
X12462Y23393D1*
X12418Y23508D1*
Y23633D1*
X12463Y23749D1*
X12547Y23840D1*
X12658Y23895D1*
X12782Y23906D1*
X12902Y23872D1*
X13001Y23797D1*
X13066Y23691D1*
X13088Y23570D1*
X13065Y23448D1*
X8915Y26778D2*
X8850Y26672D1*
X8750Y26597D1*
X8631Y26563D1*
X8507Y26575D1*
X8396Y26631D1*
X8312Y26723D1*
X8268Y26838D1*
Y26963D1*
X8313Y27079D1*
X8397Y27170D1*
X8508Y27225D1*
X8632Y27236D1*
X8752Y27202D1*
X8851Y27127D1*
X8916Y27021D1*
X8938Y26900D1*
X8915Y26778D1*
X12425Y26858D2*
X12360Y26752D1*
X12260Y26677D1*
X12141Y26643D1*
X12017Y26655D1*
X11906Y26711D1*
X11822Y26803D1*
X11778Y26918D1*
Y27043D1*
X11823Y27159D1*
X11907Y27250D1*
X12018Y27305D1*
X12142Y27316D1*
X12262Y27282D1*
X12361Y27207D1*
X12426Y27101D1*
X12448Y26980D1*
X12425Y26858D1*
X16715Y19378D2*
X16650Y19272D1*
X16550Y19197D1*
X16431Y19163D1*
X16307Y19175D1*
X16196Y19231D1*
X16112Y19323D1*
X16068Y19438D1*
Y19563D1*
X16113Y19679D1*
X16197Y19770D1*
X16308Y19825D1*
X16432Y19836D1*
X16552Y19802D1*
X16651Y19727D1*
X16716Y19621D1*
X16738Y19500D1*
X16715Y19378D1*
X10639Y32744D2*
X10574Y32638D1*
X10474Y32563D1*
X10355Y32529D1*
X10231Y32541D1*
X10120Y32597D1*
X10036Y32689D1*
X9992Y32804D1*
Y32929D1*
X10037Y33045D1*
X10121Y33136D1*
X10232Y33191D1*
X10356Y33202D1*
X10476Y33168D1*
X10575Y33093D1*
X10640Y32987D1*
X10662Y32866D1*
X10639Y32744D1*
X10574Y32638D1*
X10474Y32563D1*
X10355Y32529D1*
X10231Y32541D1*
X10120Y32597D1*
X10036Y32689D1*
X9992Y32804D1*
Y32929D1*
X10037Y33045D1*
X10121Y33136D1*
X10232Y33191D1*
X10356Y33202D1*
X10476Y33168D1*
X10575Y33093D1*
X10640Y32987D1*
X10662Y32866D1*
X10639Y32744D1*
X12225Y23638D2*
X12160Y23532D1*
X12060Y23457D1*
X11941Y23423D1*
X11817Y23435D1*
X11706Y23491D1*
X11622Y23583D1*
X11578Y23698D1*
Y23823D1*
X11623Y23939D1*
X11707Y24030D1*
X11818Y24085D1*
X11942Y24096D1*
X12062Y24062D1*
X12161Y23987D1*
X12226Y23881D1*
X12248Y23760D1*
X12225Y23638D1*
X9465Y28718D2*
X9400Y28612D1*
X9300Y28537D1*
X9181Y28503D1*
X9057Y28515D1*
X8946Y28571D1*
X8862Y28663D1*
X8818Y28778D1*
Y28903D1*
X8863Y29019D1*
X8947Y29110D1*
X9058Y29165D1*
X9182Y29176D1*
X9302Y29142D1*
X9401Y29067D1*
X9466Y28961D1*
X9488Y28840D1*
X9465Y28718D1*
X9155Y30715D2*
X9090Y30610D1*
X8990Y30535D1*
X8871Y30501D1*
X8747Y30513D1*
X8636Y30568D1*
X8552Y30660D1*
X8508Y30776D1*
Y30900D1*
X8553Y31016D1*
X8637Y31108D1*
X8748Y31163D1*
X8872Y31174D1*
X8992Y31140D1*
X9091Y31064D1*
X9156Y30958D1*
X9178Y30838D1*
X9155Y30715D1*
X11305Y13978D2*
X11240Y13872D1*
X11140Y13797D1*
X11021Y13763D1*
X10897Y13775D1*
X10786Y13831D1*
X10702Y13923D1*
X10658Y14038D1*
Y14163D1*
X10703Y14279D1*
X10787Y14370D1*
X10898Y14425D1*
X11022Y14436D1*
X11142Y14402D1*
X11241Y14327D1*
X11306Y14221D1*
X11328Y14100D1*
X11305Y13978D1*
X11165Y14738D2*
X11100Y14632D1*
X11000Y14557D1*
X10881Y14523D1*
X10757Y14535D1*
X10646Y14591D1*
X10562Y14683D1*
X10518Y14798D1*
Y14923D1*
X10563Y15039D1*
X10647Y15130D1*
X10758Y15185D1*
X10882Y15196D1*
X11002Y15162D1*
X11101Y15087D1*
X11166Y14981D1*
X11188Y14860D1*
X11165Y14738D1*
X10995Y20678D2*
X10930Y20572D1*
X10830Y20497D1*
X10711Y20463D1*
X10587Y20475D1*
X10476Y20531D1*
X10392Y20623D1*
X10348Y20738D1*
Y20863D1*
X10393Y20979D1*
X10477Y21070D1*
X10588Y21125D1*
X10712Y21136D1*
X10832Y21102D1*
X10931Y21027D1*
X10996Y20921D1*
X11018Y20800D1*
X10995Y20678D1*
X22498Y16312D2*
X22440Y16202D1*
X22350Y16116D1*
X22238Y16062D1*
X22114Y16047D1*
X21993Y16072D1*
X21885Y16134D1*
X21802Y16227D1*
X21753Y16342D1*
X21743Y16466D1*
X21773Y16587D1*
X21839Y16692D1*
X21936Y16771D1*
X22052Y16815D1*
X22176Y16820D1*
X22296Y16786D1*
X22399Y16715D1*
X22473Y16616D1*
X22513Y16498D1*
X22518Y16435D1*
X22498Y16312D1*
X22668Y8337D2*
X22610Y8227D1*
X22520Y8141D1*
X22408Y8087D1*
X22284Y8072D1*
X22163Y8097D1*
X22055Y8159D1*
X21972Y8252D1*
X21923Y8367D1*
X21913Y8491D1*
X21943Y8612D1*
X22009Y8717D1*
X22106Y8796D1*
X22222Y8840D1*
X22346Y8845D1*
X22466Y8811D1*
X22569Y8740D1*
X22643Y8641D1*
X22683Y8523D1*
X22688Y8460D1*
X22668Y8337D1*
X22797Y12528D2*
X22731Y12422D1*
X22632Y12347D1*
X22513Y12313D1*
X22389Y12325D1*
X22278Y12381D1*
X22194Y12473D1*
X22149Y12588D1*
X22150Y12713D1*
X22195Y12829D1*
X22279Y12920D1*
X22390Y12975D1*
X22514Y12986D1*
X22633Y12952D1*
X22732Y12877D1*
X22797Y12771D1*
X22820Y12650D1*
X22797Y12528D1*
X22498Y14232D2*
X22440Y14122D1*
X22350Y14036D1*
X22238Y13982D1*
X22114Y13967D1*
X21993Y13992D1*
X21885Y14054D1*
X21802Y14147D1*
X21753Y14262D1*
X21743Y14386D1*
X21773Y14507D1*
X21839Y14612D1*
X21936Y14691D1*
X22052Y14735D1*
X22176Y14740D1*
X22296Y14706D1*
X22399Y14635D1*
X22473Y14536D1*
X22513Y14418D1*
X22518Y14355D1*
X22498Y14232D1*
X12865Y40658D2*
X12800Y40552D1*
X12700Y40477D1*
X12581Y40443D1*
X12457Y40455D1*
X12346Y40511D1*
X12262Y40603D1*
X12218Y40718D1*
Y40843D1*
X12263Y40959D1*
X12347Y41050D1*
X12458Y41105D1*
X12582Y41116D1*
X12702Y41082D1*
X12801Y41007D1*
X12866Y40901D1*
X12888Y40780D1*
X12865Y40658D1*
X19658Y31077D2*
X19600Y30967D1*
X19510Y30881D1*
X19398Y30827D1*
X19274Y30812D1*
X19153Y30837D1*
X19045Y30899D1*
X18962Y30992D1*
X18913Y31107D1*
X18903Y31231D1*
X18933Y31352D1*
X18999Y31457D1*
X19096Y31536D1*
X19212Y31580D1*
X19336Y31585D1*
X19456Y31551D1*
X19559Y31480D1*
X19633Y31381D1*
X19673Y31263D1*
X19678Y31200D1*
X19658Y31077D1*
X21738D2*
X21680Y30967D1*
X21590Y30881D1*
X21478Y30827D1*
X21354Y30812D1*
X21233Y30837D1*
X21125Y30899D1*
X21042Y30992D1*
X20993Y31107D1*
X20983Y31231D1*
X21013Y31352D1*
X21079Y31457D1*
X21176Y31536D1*
X21292Y31580D1*
X21416Y31585D1*
X21536Y31551D1*
X21639Y31480D1*
X21713Y31381D1*
X21753Y31263D1*
X21758Y31200D1*
X21738Y31077D1*
X24198Y22387D2*
X24140Y22277D1*
X24050Y22191D1*
X23938Y22137D1*
X23814Y22122D1*
X23693Y22147D1*
X23585Y22209D1*
X23502Y22302D1*
X23453Y22417D1*
X23443Y22541D1*
X23473Y22662D1*
X23539Y22767D1*
X23636Y22846D1*
X23752Y22890D1*
X23876Y22895D1*
X23996Y22861D1*
X24099Y22790D1*
X24173Y22691D1*
X24213Y22573D1*
X24218Y22510D1*
X24198Y22387D1*
X18145Y31068D2*
X18080Y30962D1*
X17980Y30887D1*
X17861Y30853D1*
X17737Y30865D1*
X17626Y30921D1*
X17542Y31013D1*
X17498Y31128D1*
Y31253D1*
X17543Y31369D1*
X17627Y31460D1*
X17738Y31515D1*
X17862Y31526D1*
X17982Y31492D1*
X18081Y31417D1*
X18146Y31311D1*
X18168Y31190D1*
X18145Y31068D1*
X19658Y31077D2*
X19600Y30967D1*
X19510Y30881D1*
X19398Y30827D1*
X19274Y30812D1*
X19153Y30837D1*
X19045Y30899D1*
X18962Y30992D1*
X18913Y31107D1*
X18903Y31231D1*
X18933Y31352D1*
X18999Y31457D1*
X19096Y31536D1*
X19212Y31580D1*
X19336Y31585D1*
X19456Y31551D1*
X19559Y31480D1*
X19633Y31381D1*
X19673Y31263D1*
X19678Y31200D1*
X19658Y31077D1*
X22258Y23477D2*
X22200Y23367D1*
X22110Y23281D1*
X21998Y23227D1*
X21874Y23212D1*
X21753Y23237D1*
X21645Y23299D1*
X21562Y23392D1*
X21513Y23507D1*
X21503Y23631D1*
X21533Y23752D1*
X21599Y23857D1*
X21696Y23936D1*
X21812Y23980D1*
X21936Y23985D1*
X22056Y23951D1*
X22159Y23880D1*
X22233Y23781D1*
X22273Y23663D1*
X22278Y23600D1*
X22258Y23477D1*
X21008D2*
X20950Y23367D1*
X20860Y23281D1*
X20748Y23227D1*
X20624Y23212D1*
X20503Y23237D1*
X20395Y23299D1*
X20312Y23392D1*
X20263Y23507D1*
X20253Y23631D1*
X20283Y23752D1*
X20349Y23857D1*
X20446Y23936D1*
X20562Y23980D1*
X20686Y23985D1*
X20806Y23951D1*
X20909Y23880D1*
X20983Y23781D1*
X21023Y23663D1*
X21028Y23600D1*
X21008Y23477D1*
X22218Y11697D2*
X22160Y11587D1*
X22070Y11501D1*
X21958Y11447D1*
X21834Y11432D1*
X21713Y11457D1*
X21605Y11519D1*
X21522Y11612D1*
X21473Y11727D1*
X21463Y11851D1*
X21493Y11972D1*
X21559Y12077D1*
X21656Y12156D1*
X21772Y12200D1*
X21896Y12205D1*
X22016Y12171D1*
X22119Y12100D1*
X22193Y12001D1*
X22233Y11883D1*
X22238Y11820D1*
X22218Y11697D1*
X22258Y23477D2*
X22200Y23367D1*
X22110Y23281D1*
X21998Y23227D1*
X21874Y23212D1*
X21753Y23237D1*
X21645Y23299D1*
X21562Y23392D1*
X21513Y23507D1*
X21503Y23631D1*
X21533Y23752D1*
X21599Y23857D1*
X21696Y23936D1*
X21812Y23980D1*
X21936Y23985D1*
X22056Y23951D1*
X22159Y23880D1*
X22233Y23781D1*
X22273Y23663D1*
X22278Y23600D1*
X22258Y23477D1*
X22498Y16312D2*
X22440Y16202D1*
X22350Y16116D1*
X22238Y16062D1*
X22114Y16047D1*
X21993Y16072D1*
X21885Y16134D1*
X21802Y16227D1*
X21753Y16342D1*
X21743Y16466D1*
X21773Y16587D1*
X21839Y16692D1*
X21936Y16771D1*
X22052Y16815D1*
X22176Y16820D1*
X22296Y16786D1*
X22399Y16715D1*
X22473Y16616D1*
X22513Y16498D1*
X22518Y16435D1*
X22498Y16312D1*
X21008Y22527D2*
X20950Y22417D1*
X20860Y22331D1*
X20748Y22277D1*
X20624Y22262D1*
X20503Y22287D1*
X20395Y22349D1*
X20312Y22442D1*
X20263Y22557D1*
X20253Y22681D1*
X20283Y22802D1*
X20349Y22907D1*
X20446Y22986D1*
X20562Y23030D1*
X20686Y23035D1*
X20806Y23001D1*
X20909Y22930D1*
X20983Y22831D1*
X21023Y22713D1*
X21028Y22650D1*
X21008Y22527D1*
X22258D2*
X22200Y22417D1*
X22110Y22331D1*
X21998Y22277D1*
X21874Y22262D1*
X21753Y22287D1*
X21645Y22349D1*
X21562Y22442D1*
X21513Y22557D1*
X21503Y22681D1*
X21533Y22802D1*
X21599Y22907D1*
X21696Y22986D1*
X21812Y23030D1*
X21936Y23035D1*
X22056Y23001D1*
X22159Y22930D1*
X22233Y22831D1*
X22273Y22713D1*
X22278Y22650D1*
X22258Y22527D1*
X21008D2*
X20950Y22417D1*
X20860Y22331D1*
X20748Y22277D1*
X20624Y22262D1*
X20503Y22287D1*
X20395Y22349D1*
X20312Y22442D1*
X20263Y22557D1*
X20253Y22681D1*
X20283Y22802D1*
X20349Y22907D1*
X20446Y22986D1*
X20562Y23030D1*
X20686Y23035D1*
X20806Y23001D1*
X20909Y22930D1*
X20983Y22831D1*
X21023Y22713D1*
X21028Y22650D1*
X21008Y22527D1*
X21128Y11697D2*
X21070Y11587D1*
X20980Y11501D1*
X20868Y11447D1*
X20744Y11432D1*
X20623Y11457D1*
X20515Y11519D1*
X20432Y11612D1*
X20383Y11727D1*
X20373Y11851D1*
X20403Y11972D1*
X20469Y12077D1*
X20566Y12156D1*
X20682Y12200D1*
X20806Y12205D1*
X20926Y12171D1*
X21029Y12100D1*
X21103Y12001D1*
X21143Y11883D1*
X21148Y11820D1*
X21128Y11697D1*
Y10697D2*
X21070Y10587D1*
X20980Y10501D1*
X20868Y10447D1*
X20744Y10432D1*
X20623Y10457D1*
X20515Y10519D1*
X20432Y10612D1*
X20383Y10727D1*
X20373Y10851D1*
X20403Y10972D1*
X20469Y11077D1*
X20566Y11156D1*
X20682Y11200D1*
X20806Y11205D1*
X20926Y11171D1*
X21029Y11100D1*
X21103Y11001D1*
X21143Y10883D1*
X21148Y10820D1*
X21128Y10697D1*
Y11697D2*
X21070Y11587D1*
X20980Y11501D1*
X20868Y11447D1*
X20744Y11432D1*
X20623Y11457D1*
X20515Y11519D1*
X20432Y11612D1*
X20383Y11727D1*
X20373Y11851D1*
X20403Y11972D1*
X20469Y12077D1*
X20566Y12156D1*
X20682Y12200D1*
X20806Y12205D1*
X20926Y12171D1*
X21029Y12100D1*
X21103Y12001D1*
X21143Y11883D1*
X21148Y11820D1*
X21128Y11697D1*
X22228Y10697D2*
X22170Y10587D1*
X22080Y10501D1*
X21968Y10447D1*
X21844Y10432D1*
X21723Y10457D1*
X21615Y10519D1*
X21532Y10612D1*
X21483Y10727D1*
X21473Y10851D1*
X21503Y10972D1*
X21569Y11077D1*
X21666Y11156D1*
X21782Y11200D1*
X21906Y11205D1*
X22026Y11171D1*
X22129Y11100D1*
X22203Y11001D1*
X22243Y10883D1*
X22248Y10820D1*
X22228Y10697D1*
X24198Y22387D2*
X24140Y22277D1*
X24050Y22191D1*
X23938Y22137D1*
X23814Y22122D1*
X23693Y22147D1*
X23585Y22209D1*
X23502Y22302D1*
X23453Y22417D1*
X23443Y22541D1*
X23473Y22662D1*
X23539Y22767D1*
X23636Y22846D1*
X23752Y22890D1*
X23876Y22895D1*
X23996Y22861D1*
X24099Y22790D1*
X24173Y22691D1*
X24213Y22573D1*
X24218Y22510D1*
X24198Y22387D1*
X26192Y22269D2*
X26110Y22191D1*
X25998Y22137D1*
X25874Y22122D1*
X25753Y22147D1*
X25645Y22209D1*
X25562Y22302D1*
X25513Y22417D1*
X25503Y22541D1*
X25533Y22662D1*
X25599Y22767D1*
X25696Y22846D1*
X25812Y22890D1*
X25936Y22895D1*
X26056Y22861D1*
X26159Y22790D1*
X26189Y22750D1*
X11640Y42283D2*
X11575Y42177D1*
X11475Y42102D1*
X11356Y42068D1*
X11232Y42080D1*
X11121Y42136D1*
X11037Y42228D1*
X10993Y42343D1*
Y42468D1*
X11038Y42584D1*
X11122Y42675D1*
X11233Y42730D1*
X11357Y42741D1*
X11477Y42707D1*
X11576Y42632D1*
X11641Y42526D1*
X11663Y42405D1*
X11640Y42283D1*
X12865Y40658D2*
X12800Y40552D1*
X12700Y40477D1*
X12581Y40443D1*
X12457Y40455D1*
X12346Y40511D1*
X12262Y40603D1*
X12218Y40718D1*
Y40843D1*
X12263Y40959D1*
X12347Y41050D1*
X12458Y41105D1*
X12582Y41116D1*
X12702Y41082D1*
X12801Y41007D1*
X12866Y40901D1*
X12888Y40780D1*
X12865Y40658D1*
X23778Y37277D2*
X23720Y37167D1*
X23630Y37081D1*
X23518Y37027D1*
X23394Y37012D1*
X23273Y37037D1*
X23165Y37099D1*
X23082Y37192D1*
X23033Y37307D1*
X23023Y37431D1*
X23053Y37552D1*
X23119Y37657D1*
X23216Y37736D1*
X23332Y37780D1*
X23456Y37785D1*
X23576Y37751D1*
X23679Y37680D1*
X23753Y37581D1*
X23793Y37463D1*
X23798Y37400D1*
X23778Y37277D1*
X16795Y37188D2*
X16730Y37082D1*
X16630Y37007D1*
X16511Y36973D1*
X16387Y36985D1*
X16276Y37041D1*
X16192Y37133D1*
X16148Y37248D1*
Y37373D1*
X16193Y37489D1*
X16277Y37580D1*
X16388Y37635D1*
X16512Y37646D1*
X16632Y37612D1*
X16731Y37537D1*
X16796Y37431D1*
X16818Y37310D1*
X16795Y37188D1*
X17925D2*
X17860Y37082D1*
X17760Y37007D1*
X17641Y36973D1*
X17517Y36985D1*
X17406Y37041D1*
X17322Y37133D1*
X17278Y37248D1*
Y37373D1*
X17323Y37489D1*
X17407Y37580D1*
X17518Y37635D1*
X17642Y37646D1*
X17762Y37612D1*
X17861Y37537D1*
X17926Y37431D1*
X17948Y37310D1*
X17925Y37188D1*
X16795D2*
X16730Y37082D1*
X16630Y37007D1*
X16511Y36973D1*
X16387Y36985D1*
X16276Y37041D1*
X16192Y37133D1*
X16148Y37248D1*
Y37373D1*
X16193Y37489D1*
X16277Y37580D1*
X16388Y37635D1*
X16512Y37646D1*
X16632Y37612D1*
X16731Y37537D1*
X16796Y37431D1*
X16818Y37310D1*
X16795Y37188D1*
X16775Y36288D2*
X16710Y36182D1*
X16610Y36107D1*
X16491Y36073D1*
X16367Y36085D1*
X16256Y36141D1*
X16172Y36233D1*
X16128Y36348D1*
Y36473D1*
X16173Y36589D1*
X16257Y36680D1*
X16368Y36735D1*
X16492Y36746D1*
X16612Y36712D1*
X16711Y36637D1*
X16776Y36531D1*
X16798Y36410D1*
X16775Y36288D1*
X16795Y37188D2*
X16730Y37082D1*
X16630Y37007D1*
X16511Y36973D1*
X16387Y36985D1*
X16276Y37041D1*
X16192Y37133D1*
X16148Y37248D1*
Y37373D1*
X16193Y37489D1*
X16277Y37580D1*
X16388Y37635D1*
X16512Y37646D1*
X16632Y37612D1*
X16731Y37537D1*
X16796Y37431D1*
X16818Y37310D1*
X16795Y37188D1*
X17945Y36308D2*
X17880Y36202D1*
X17780Y36127D1*
X17661Y36093D1*
X17537Y36105D1*
X17426Y36161D1*
X17342Y36253D1*
X17298Y36368D1*
Y36493D1*
X17343Y36609D1*
X17427Y36700D1*
X17538Y36755D1*
X17662Y36766D1*
X17782Y36732D1*
X17881Y36657D1*
X17946Y36551D1*
X17968Y36430D1*
X17945Y36308D1*
X11375Y26428D2*
X11310Y26322D1*
X11210Y26247D1*
X11091Y26213D1*
X10967Y26225D1*
X10856Y26281D1*
X10772Y26373D1*
X10728Y26488D1*
Y26613D1*
X10773Y26729D1*
X10857Y26820D1*
X10968Y26875D1*
X11092Y26886D1*
X11212Y26852D1*
X11311Y26777D1*
X11376Y26671D1*
X11398Y26550D1*
X11375Y26428D1*
X17877Y42688D2*
D28*
Y41262D1*
X17165Y41975D2*
X18590D1*
X16227Y42688D2*
Y41262D1*
X15515Y41975D2*
X16940D1*
X14577Y42688D2*
Y41262D1*
X13865Y41975D2*
X15290D1*
X6028Y12476D2*
Y11968D1*
X14130Y26420D2*
Y25912D1*
X13622Y26420D2*
X14130D1*
X18130Y27928D2*
Y26912D1*
X17622Y27420D2*
X18638D1*
X15110Y10958D2*
Y10450D1*
X15618D1*
X12950Y43187D2*
Y42093D1*
X12403Y42640D2*
X13497D1*
X4215Y42945D2*
D27*
X5476D1*
X26529D2*
X27792D1*
X4215Y42697D2*
X5476D1*
X26529D2*
X27792D1*
X4215Y42448D2*
X5476D1*
X26529D2*
X27792D1*
X4215Y42199D2*
X5476D1*
X26529D2*
X27792D1*
X4215Y41951D2*
X5476D1*
X26529D2*
X27792D1*
X4215Y41702D2*
X5476D1*
X26529D2*
X27792D1*
X4215Y41453D2*
X5476D1*
X26529D2*
X27792D1*
X4215Y41205D2*
X5476D1*
X26529D2*
X27792D1*
X4215Y40956D2*
X5476D1*
X26529D2*
X27792D1*
X4215Y40707D2*
X5472D1*
X26748D2*
X27132D1*
X4215Y40459D2*
X5472D1*
X26854D2*
X27029D1*
X4215Y40210D2*
X5472D1*
X26779D2*
X27101D1*
X4215Y39961D2*
X5472D1*
X26529D2*
X27792D1*
X4215Y39713D2*
X5472D1*
X26744D2*
X27136D1*
X4215Y39464D2*
X5472D1*
X26854D2*
X27029D1*
X4215Y39215D2*
X5472D1*
X26783D2*
X27097D1*
X4215Y38966D2*
X5472D1*
X26529D2*
X27792D1*
X4215Y38718D2*
X5472D1*
X26740D2*
X27140D1*
X4215Y38469D2*
X5468D1*
X26854D2*
X27029D1*
X4215Y38220D2*
X5468D1*
X26787D2*
X27093D1*
X4215Y37972D2*
X5468D1*
X26529D2*
X27792D1*
X4608Y37723D2*
X4897D1*
X26733D2*
X27147D1*
X26854Y37474D2*
X27029D1*
X4666Y37226D2*
X4839D1*
X26791D2*
X27089D1*
X4215Y36977D2*
X5468D1*
X26529D2*
X27792D1*
X4604Y36728D2*
X4901D1*
X26729D2*
X27151D1*
X26854Y36480D2*
X27029D1*
X4670Y36231D2*
X4835D1*
X26795D2*
X27085D1*
X4215Y35982D2*
X5464D1*
X26623D2*
X27792D1*
X4596Y35734D2*
X4909D1*
X26842D2*
X27792D1*
X26830Y35485D2*
X27792D1*
X4674Y35236D2*
X4831D1*
X26854D2*
X27792D1*
X4215Y34987D2*
X5464D1*
X26803D2*
X27163D1*
X27717D2*
X27795D1*
X4592Y34739D2*
X5464D1*
X26854D2*
X27029D1*
X4725Y34490D2*
X5464D1*
X26799D2*
X27081D1*
X4674Y34241D2*
X5464D1*
X26529D2*
X27792D1*
X4215Y33993D2*
X5460D1*
X26709D2*
X27171D1*
X27709D2*
X27792D1*
X4584Y33744D2*
X4921D1*
X26850D2*
X27029D1*
X26803Y33495D2*
X27077D1*
X4678Y33247D2*
X4827D1*
X26529D2*
X27792D1*
X4215Y32998D2*
X4999D1*
X26705D2*
X27175D1*
X27705D2*
X27792D1*
X4215Y32749D2*
X4917D1*
X26850D2*
X27029D1*
X4215Y32501D2*
X4948D1*
X26807D2*
X27073D1*
X4215Y32252D2*
X5108D1*
X26736D2*
X27792D1*
X4215Y32003D2*
X5003D1*
X26721D2*
X27183D1*
X27697D2*
X27792D1*
X4215Y31755D2*
X4917D1*
X26744D2*
X27030D1*
X4215Y31506D2*
X4944D1*
X26752D2*
X27073D1*
X4215Y31257D2*
X4917D1*
X26748D2*
X27792D1*
X4215Y31008D2*
X4917D1*
X26736D2*
X27190D1*
X27690D2*
X27792D1*
X4215Y30760D2*
X4917D1*
X26725D2*
X27030D1*
X4215Y30511D2*
X4917D1*
X26803D2*
X27069D1*
X4215Y30262D2*
X4917D1*
X26850D2*
X27792D1*
X4215Y30014D2*
X5456D1*
X26713D2*
X27198D1*
X27682D2*
X27792D1*
X4215Y29765D2*
X5456D1*
X26529D2*
X27034D1*
X4215Y29516D2*
X5456D1*
X26529D2*
X27065D1*
X4215Y29268D2*
X4976D1*
X26529D2*
X27792D1*
X4215Y29019D2*
X4866D1*
X26529D2*
X27081D1*
X4215Y28770D2*
X4870D1*
X26529D2*
X27026D1*
X4215Y28522D2*
X4999D1*
X26830D2*
X27159D1*
X4215Y28273D2*
X4854D1*
X27006D2*
X27214D1*
X27666D2*
X27792D1*
X4215Y28024D2*
X4854D1*
X4215Y27775D2*
X4854D1*
X26588D2*
X27061D1*
X4215Y27527D2*
X4854D1*
X26705D2*
X27792D1*
X4215Y27278D2*
X5452D1*
X26697D2*
X27792D1*
X4215Y27029D2*
X5448D1*
X26557D2*
X27792D1*
X4215Y26781D2*
X5448D1*
X26584D2*
X27792D1*
X4215Y26532D2*
X5448D1*
X26705D2*
X27792D1*
X4215Y26283D2*
X5448D1*
X26697D2*
X27792D1*
X4215Y26035D2*
X5448D1*
X26561D2*
X27792D1*
X4215Y25786D2*
X5448D1*
X26529D2*
X27792D1*
X4215Y25537D2*
X5448D1*
X26529D2*
X27792D1*
X4215Y25289D2*
X5448D1*
X27408D2*
X27792D1*
X4215Y25040D2*
X5448D1*
X27420D2*
X27792D1*
X4215Y24791D2*
X5444D1*
X26529D2*
X26843D1*
X27197D2*
X27792D1*
X4215Y24543D2*
X5444D1*
X27022D2*
X27792D1*
X4215Y24294D2*
X5444D1*
X27115D2*
X27251D1*
X27627D2*
X27792D1*
X4215Y24045D2*
X5444D1*
X4215Y23796D2*
X5444D1*
X26529D2*
X27054D1*
X4215Y23548D2*
X5444D1*
X26529D2*
X27792D1*
X4215Y23299D2*
X5444D1*
X26772D2*
X27792D1*
X4215Y23050D2*
X5444D1*
X26920D2*
X27792D1*
X4215Y22802D2*
X5444D1*
X26877D2*
X27792D1*
X4215Y22553D2*
X5444D1*
X26529D2*
X27792D1*
X4215Y22304D2*
X5440D1*
X26529D2*
X27276D1*
X27604D2*
X27792D1*
X4215Y22056D2*
X5440D1*
X26529D2*
X27042D1*
X4215Y21807D2*
X5440D1*
X26529D2*
X27050D1*
X4215Y21558D2*
X5440D1*
X26529D2*
X27335D1*
X27542D2*
X27792D1*
X4215Y21310D2*
X5440D1*
X26811D2*
X27292D1*
X27586D2*
X27792D1*
X4215Y21061D2*
X5440D1*
X26850D2*
X27046D1*
X4215Y20812D2*
X5440D1*
X26854D2*
X27046D1*
X4215Y20564D2*
X5440D1*
X26850D2*
X27315D1*
X27565D2*
X27792D1*
X4215Y20315D2*
X5440D1*
X26807D2*
X27308D1*
X27572D2*
X27792D1*
X4215Y20066D2*
X5198D1*
X26529D2*
X27046D1*
X4215Y19817D2*
X5155D1*
X26529D2*
X27046D1*
X4215Y19569D2*
X5304D1*
X26529D2*
X27296D1*
X27586D2*
X27792D1*
X4215Y19320D2*
X5436D1*
X26553D2*
X27327D1*
X27553D2*
X27792D1*
X4215Y19071D2*
X5436D1*
X26830D2*
X27050D1*
X4215Y18823D2*
X5436D1*
X26838D2*
X27042D1*
X4215Y18574D2*
X5436D1*
X26600D2*
X27280D1*
X27600D2*
X27792D1*
X4215Y18325D2*
X5436D1*
X26529D2*
X27354D1*
X27523D2*
X27792D1*
X4215Y18077D2*
X5436D1*
X26830D2*
X27050D1*
X4215Y17828D2*
X5433D1*
X26838D2*
X27042D1*
X4215Y17579D2*
X5433D1*
X26611D2*
X27269D1*
X27611D2*
X27792D1*
X4215Y17331D2*
X5433D1*
X26705D2*
X27792D1*
X4215Y17082D2*
X5433D1*
X26971D2*
X27792D1*
X4215Y16833D2*
X5433D1*
X27045D2*
X27792D1*
X4215Y16585D2*
X5433D1*
X27010D2*
X27792D1*
X4215Y16336D2*
X5433D1*
X26838D2*
X27792D1*
X4215Y16087D2*
X5433D1*
X26967D2*
X27792D1*
X4215Y15838D2*
X5433D1*
X27045D2*
X27792D1*
X4215Y15590D2*
X5429D1*
X27010D2*
X27792D1*
X4215Y15341D2*
X5429D1*
X26846D2*
X27792D1*
X4215Y15092D2*
X5429D1*
X26963D2*
X27792D1*
X4215Y14844D2*
X5429D1*
X27045D2*
X27792D1*
X4215Y14595D2*
X5429D1*
X27014D2*
X27792D1*
X4215Y14346D2*
X5429D1*
X27045D2*
X27792D1*
X4215Y14098D2*
X5429D1*
X27045D2*
X27792D1*
X4215Y13849D2*
X5429D1*
X27045D2*
X27792D1*
X4215Y13600D2*
X5429D1*
X27045D2*
X27792D1*
X4215Y13352D2*
X5429D1*
X27045D2*
X27792D1*
X4215Y13103D2*
X5425D1*
X26819D2*
X27061D1*
X4215Y12854D2*
X5425D1*
X26846D2*
X27036D1*
X4215Y12606D2*
X5425D1*
X26666D2*
X27214D1*
X27666D2*
X27792D1*
X4215Y12357D2*
X5425D1*
X26529D2*
X27792D1*
X4215Y12108D2*
X5425D1*
X26819D2*
X27061D1*
X4215Y11859D2*
X5425D1*
X26846D2*
X27036D1*
X4215Y11611D2*
X5425D1*
X26893D2*
X27206D1*
X27674D2*
X27792D1*
X4215Y11362D2*
X5425D1*
X27053D2*
X27792D1*
X4215Y11113D2*
X5425D1*
X27084D2*
X27792D1*
X4215Y10865D2*
X5421D1*
X27002D2*
X27792D1*
X4215Y10616D2*
X5421D1*
X26889D2*
X27792D1*
X4215Y10367D2*
X5421D1*
X27053D2*
X27792D1*
X4215Y10119D2*
X5421D1*
X27084D2*
X27792D1*
X4215Y9870D2*
X5421D1*
X27006D2*
X27792D1*
X4215Y9621D2*
X5421D1*
X26881D2*
X27792D1*
X4215Y9373D2*
X5421D1*
X27049D2*
X27792D1*
X4215Y9124D2*
X5421D1*
X27084D2*
X27792D1*
X4215Y8875D2*
X5421D1*
X27010D2*
X27792D1*
X4215Y8627D2*
X5417D1*
X27088D2*
X27792D1*
X4215Y8378D2*
X5417D1*
X27088D2*
X27792D1*
X4215Y8129D2*
X5417D1*
X27088D2*
X27792D1*
X4215Y7880D2*
X5417D1*
X27088D2*
X27792D1*
X4215Y7632D2*
X5417D1*
X27088D2*
X27792D1*
X4215Y7383D2*
X5417D1*
X26526D2*
X27792D1*
X4215Y7134D2*
X5417D1*
X26803D2*
X27077D1*
X4215Y6886D2*
X5417D1*
X26850D2*
X27029D1*
X4215Y6637D2*
X5417D1*
X26709D2*
X27171D1*
X27709D2*
X27792D1*
X4215Y6388D2*
X5413D1*
X26467D2*
X27792D1*
X4215Y6140D2*
X12081D1*
X12776D2*
X13116D1*
X13764D2*
X14081D1*
X14799D2*
X15081D1*
X15799D2*
X16081D1*
X16799D2*
X17081D1*
X17799D2*
X18081D1*
X18799D2*
X19854D1*
X21276D2*
X21936D1*
X22662D2*
X23882D1*
X24701D2*
X27792D1*
X4215Y5891D2*
X12015D1*
X12842D2*
X13028D1*
X13854D2*
X14029D1*
X14854D2*
X15029D1*
X15854D2*
X16029D1*
X16854D2*
X17029D1*
X17854D2*
X18029D1*
X18854D2*
X19858D1*
X21268D2*
X23882D1*
X24701D2*
X27792D1*
X4215Y5642D2*
X12132D1*
X12729D2*
X13112D1*
X13768D2*
X14163D1*
X14717D2*
X15163D1*
X15717D2*
X16163D1*
X16717D2*
X17163D1*
X17717D2*
X18163D1*
X18717D2*
X19843D1*
X21287D2*
X23847D1*
X24733D2*
X27792D1*
X4215Y5394D2*
X19999D1*
X21131D2*
X23839D1*
X24740D2*
X27792D1*
X4215Y5145D2*
X14085D1*
X14795D2*
X15085D1*
X15795D2*
X16085D1*
X16795D2*
X17085D1*
X17795D2*
X18085D1*
X18795D2*
X19085D1*
X19795D2*
X20085D1*
X20795D2*
X21085D1*
X21795D2*
X23085D1*
X23795D2*
X24019D1*
X24795D2*
X27792D1*
X4215Y4896D2*
X14026D1*
X14854D2*
X15029D1*
X15854D2*
X16029D1*
X16854D2*
X17029D1*
X17854D2*
X18029D1*
X18854D2*
X19029D1*
X19854D2*
X20029D1*
X20854D2*
X21029D1*
X21854D2*
X23026D1*
X23854D2*
X24029D1*
X24854D2*
X27792D1*
X4215Y4648D2*
X14155D1*
X14721D2*
X15155D1*
X15721D2*
X16155D1*
X16721D2*
X17155D1*
X17721D2*
X18155D1*
X18721D2*
X19155D1*
X19721D2*
X20155D1*
X20721D2*
X21155D1*
X21721D2*
X23155D1*
X23721D2*
X24155D1*
X24721D2*
X27792D1*
X4215Y4399D2*
X27792D1*
X26676Y26296D2*
X26635Y26178D1*
X26569Y26072D1*
X26506Y26009D1*
X26504Y25456D1*
X26779Y25455D1*
X26818Y25483D1*
X26933Y25530D1*
X27057Y25538D1*
X27178Y25507D1*
X27282Y25439D1*
X27360Y25342D1*
X27403Y25225D1*
X27410Y25150D1*
X27390Y25027D1*
X27333Y24917D1*
X27243Y24830D1*
X27131Y24776D1*
X27008Y24760D1*
X26885Y24784D1*
X26770Y24845D1*
X26500D1*
X26504Y24628D1*
X26613Y24670D1*
X26737Y24678D1*
X26858Y24647D1*
X26962Y24579D1*
X27040Y24482D1*
X27083Y24365D1*
X27090Y24290D1*
X27070Y24167D1*
X27013Y24057D1*
X26923Y23970D1*
X26811Y23916D1*
X26688Y23900D1*
X26565Y23924D1*
X26501Y23960D1*
X26504Y23378D1*
X26547D1*
X26668Y23347D1*
X26772Y23279D1*
X26850Y23182D1*
X26893Y23065D1*
X26900Y22990D1*
X26880Y22867D1*
X26823Y22757D1*
X26733Y22670D1*
X26621Y22616D1*
X26501Y22601D1*
X26503Y21511D1*
X26598Y21484D1*
X26702Y21416D1*
X26780Y21319D1*
X26823Y21202D1*
X26830Y21128D1*
X26810Y21005D1*
X26794Y20974D1*
X26823Y20890D1*
X26830Y20815D1*
X26810Y20692D1*
X26794Y20661D1*
X26823Y20577D1*
X26830Y20503D1*
X26810Y20380D1*
X26753Y20269D1*
X26663Y20183D1*
X26551Y20129D1*
X26501Y20122D1*
X26503Y19323D1*
X26598Y19297D1*
X26702Y19229D1*
X26780Y19132D1*
X26823Y19015D1*
X26830Y18940D1*
X26810Y18817D1*
X26753Y18707D1*
X26663Y18620D1*
X26551Y18566D1*
X26501Y18560D1*
X26503Y18323D1*
X26598Y18297D1*
X26702Y18229D1*
X26780Y18132D1*
X26823Y18015D1*
X26830Y17940D1*
X26810Y17817D1*
X26753Y17707D1*
X26663Y17620D1*
X26551Y17566D1*
X26501Y17560D1*
X26503Y17386D1*
X26593Y17364D1*
X26709Y17316D1*
X26811Y17246D1*
X26897Y17155D1*
X26963Y17049D1*
X27004Y16931D1*
X27021Y16790D1*
X27008Y16666D1*
X26970Y16547D1*
X26908Y16439D1*
X26825Y16346D1*
X26752Y16293D1*
X26811Y16246D1*
X26897Y16155D1*
X26963Y16049D1*
X27004Y15931D1*
X27021Y15790D1*
X27008Y15666D1*
X26970Y15547D1*
X26908Y15439D1*
X26825Y15346D1*
X26752Y15293D1*
X26811Y15246D1*
X26897Y15155D1*
X26963Y15049D1*
X27004Y14931D1*
X27021Y14790D1*
X27008Y14666D1*
X26970Y14547D1*
X26908Y14439D1*
X26864Y14389D1*
X27021D1*
Y13190D1*
X26736D1*
X26780Y13132D1*
X26823Y13015D1*
X26830Y12940D1*
X26810Y12817D1*
X26753Y12707D1*
X26663Y12620D1*
X26551Y12566D1*
X26501Y12560D1*
X26503Y12323D1*
X26598Y12297D1*
X26702Y12229D1*
X26780Y12132D1*
X26823Y12015D1*
X26830Y11940D1*
X26810Y11817D1*
X26744Y11699D1*
X26851Y11626D1*
X26937Y11535D1*
X27003Y11429D1*
X27044Y11311D1*
X27061Y11170D1*
X27048Y11046D1*
X27010Y10927D1*
X26948Y10819D1*
X26865Y10726D1*
X26792Y10673D1*
X26851Y10626D1*
X26937Y10535D1*
X27003Y10429D1*
X27044Y10311D1*
X27061Y10170D1*
X27048Y10046D1*
X27010Y9927D1*
X26948Y9819D1*
X26865Y9726D1*
X26792Y9673D1*
X26851Y9626D1*
X26937Y9535D1*
X27003Y9429D1*
X27044Y9311D1*
X27061Y9170D1*
X27048Y9046D1*
X27010Y8927D1*
X26948Y8819D1*
X26904Y8770D1*
X27061D1*
Y7570D1*
X26503Y7569D1*
Y7323D1*
X26598Y7297D1*
X26702Y7229D1*
X26780Y7132D1*
X26823Y7015D1*
X26830Y6940D1*
X26810Y6817D1*
X26753Y6707D1*
X26663Y6620D1*
X26551Y6566D1*
X26501Y6560D1*
X26503Y6502D1*
X26441Y6397D1*
X26378Y6377D1*
X24679Y6372D1*
X24675Y5822D1*
Y5724D1*
X24708Y5645D1*
X24730Y5508D1*
X24712Y5385D1*
X24653Y5263D1*
X24702Y5229D1*
X24780Y5132D1*
X24823Y5015D1*
X24830Y4940D1*
X24810Y4817D1*
X24753Y4707D1*
X24663Y4620D1*
X24551Y4566D1*
X24428Y4550D1*
X24305Y4574D1*
X24197Y4635D1*
X24113Y4727D1*
X24063Y4841D1*
X24051Y4965D1*
X24078Y5086D1*
X24097Y5116D1*
X24006Y5172D1*
X23923Y5265D1*
X23870Y5378D1*
X23850Y5501D1*
X23866Y5625D1*
X23904Y5714D1*
X23905Y6371D1*
X22733Y6367D1*
X22722Y6298D1*
X22671Y6185D1*
X22590Y6090D1*
X22485Y6022D1*
X22366Y5986D1*
X22241Y5985D1*
X22121Y6019D1*
X22016Y6085D1*
X21933Y6179D1*
X21880Y6291D1*
X21868Y6364D1*
X21265Y6362D1*
X21247Y6211D1*
X21231Y6180D1*
X21260Y6097D1*
X21267Y6022D1*
X21247Y5899D1*
X21231Y5868D1*
X21260Y5785D1*
X21268Y5710D1*
X21248Y5587D1*
X21190Y5477D1*
X21101Y5390D1*
X20989Y5336D1*
X20865Y5321D1*
X20726Y5354D1*
X20676Y5336D1*
X20553Y5321D1*
X20414Y5354D1*
X20364Y5336D1*
X20240Y5321D1*
X20118Y5344D1*
X20010Y5405D1*
X19926Y5497D1*
X19875Y5611D1*
X19863Y5735D1*
X19897Y5866D1*
X19875Y5922D1*
X19863Y6046D1*
X19897Y6178D1*
X19875Y6235D1*
X19863Y6355D1*
X18503Y6354D1*
X16741Y6349D1*
X16745Y6186D1*
X16780Y6132D1*
X16823Y6015D1*
X16830Y5940D1*
X16810Y5817D1*
X16753Y5707D1*
X16663Y5620D1*
X16551Y5566D1*
X16428Y5550D1*
X16305Y5574D1*
X16197Y5635D1*
X16113Y5727D1*
X16063Y5841D1*
X16051Y5965D1*
X16078Y6086D1*
X16135Y6190D1*
Y6350D1*
X15753Y6346D1*
X5565Y6315D1*
X5460Y6376D1*
X5440Y6440D1*
X5462Y19499D1*
X5322Y19572D1*
X5238Y19665D1*
X5188Y19778D1*
X5176Y19902D1*
X5203Y20024D1*
X5268Y20130D1*
X5363Y20211D1*
X5467Y20253D1*
X5464Y20815D1*
X5475Y27311D1*
X4880Y27310D1*
Y28510D1*
X5033D1*
X4935Y28659D1*
X4895Y28777D1*
X4880Y28901D1*
X4892Y29025D1*
X4928Y29145D1*
X4989Y29254D1*
X5071Y29348D1*
X5170Y29423D1*
X5283Y29476D1*
X5404Y29505D1*
X5479Y29507D1*
X5480Y30093D1*
X4940D1*
Y31292D1*
X5093D1*
X4995Y31442D1*
X4955Y31560D1*
X4940Y31684D1*
X4952Y31808D1*
X4988Y31927D1*
X5049Y32036D1*
X5131Y32131D1*
X5208Y32189D1*
X5144Y32243D1*
X5059Y32334D1*
X4995Y32442D1*
X4955Y32560D1*
X4940Y32684D1*
X4952Y32808D1*
X4988Y32927D1*
X5049Y33036D1*
X5077Y33069D1*
X4947Y33135D1*
X4863Y33227D1*
X4813Y33341D1*
X4801Y33465D1*
X4828Y33586D1*
X4893Y33693D1*
X4988Y33773D1*
X5103Y33820D1*
X5227Y33828D1*
X5348Y33797D1*
X5452Y33729D1*
X5488Y33683D1*
X5489Y35186D1*
X5413Y35120D1*
X5301Y35066D1*
X5178Y35050D1*
X5055Y35074D1*
X4947Y35135D1*
X4863Y35227D1*
X4813Y35341D1*
X4801Y35465D1*
X4828Y35586D1*
X4893Y35693D1*
X4988Y35773D1*
X5103Y35820D1*
X5227Y35828D1*
X5348Y35797D1*
X5452Y35729D1*
X5490Y35690D1*
X5491Y36194D1*
X5413Y36120D1*
X5301Y36066D1*
X5178Y36050D1*
X5055Y36074D1*
X4947Y36135D1*
X4863Y36227D1*
X4813Y36341D1*
X4801Y36465D1*
X4828Y36586D1*
X4893Y36693D1*
X4988Y36773D1*
X5103Y36820D1*
X5227Y36828D1*
X5348Y36797D1*
X5452Y36729D1*
X5493Y36677D1*
X5492Y37194D1*
X5413Y37120D1*
X5301Y37066D1*
X5178Y37050D1*
X5055Y37074D1*
X4947Y37135D1*
X4863Y37227D1*
X4813Y37341D1*
X4801Y37465D1*
X4828Y37586D1*
X4893Y37693D1*
X4988Y37773D1*
X5103Y37820D1*
X5227Y37828D1*
X5348Y37797D1*
X5452Y37729D1*
X5493Y37677D1*
X5502Y43194D1*
X4190D1*
Y37807D1*
X4228Y37820D1*
X4352Y37828D1*
X4473Y37797D1*
X4577Y37729D1*
X4655Y37632D1*
X4698Y37515D1*
X4705Y37440D1*
X4685Y37317D1*
X4628Y37207D1*
X4538Y37120D1*
X4426Y37066D1*
X4303Y37050D1*
X4190Y37069D1*
Y36807D1*
X4228Y36820D1*
X4352Y36828D1*
X4473Y36797D1*
X4577Y36729D1*
X4655Y36632D1*
X4698Y36515D1*
X4705Y36440D1*
X4685Y36317D1*
X4628Y36207D1*
X4538Y36120D1*
X4426Y36066D1*
X4303Y36050D1*
X4190Y36069D1*
Y35807D1*
X4228Y35820D1*
X4352Y35828D1*
X4473Y35797D1*
X4577Y35729D1*
X4655Y35632D1*
X4698Y35515D1*
X4705Y35440D1*
X4685Y35317D1*
X4628Y35207D1*
X4538Y35120D1*
X4426Y35066D1*
X4303Y35050D1*
X4190Y35069D1*
Y34807D1*
X4228Y34820D1*
X4352Y34828D1*
X4473Y34797D1*
X4577Y34729D1*
X4655Y34632D1*
X4698Y34515D1*
X4705Y34440D1*
X4685Y34317D1*
X4628Y34207D1*
X4538Y34120D1*
X4426Y34066D1*
X4303Y34050D1*
X4190Y34069D1*
Y33807D1*
X4228Y33820D1*
X4352Y33828D1*
X4473Y33797D1*
X4577Y33729D1*
X4655Y33632D1*
X4698Y33515D1*
X4705Y33440D1*
X4685Y33317D1*
X4628Y33207D1*
X4538Y33120D1*
X4426Y33066D1*
X4303Y33050D1*
X4190Y33069D1*
Y4190D1*
X27818D1*
Y6842D1*
X27753Y6707D1*
X27663Y6620D1*
X27551Y6566D1*
X27428Y6550D1*
X27305Y6574D1*
X27197Y6635D1*
X27113Y6727D1*
X27063Y6841D1*
X27051Y6965D1*
X27078Y7086D1*
X27143Y7193D1*
X27238Y7273D1*
X27353Y7320D1*
X27477Y7328D1*
X27598Y7297D1*
X27702Y7229D1*
X27780Y7132D1*
X27819Y7026D1*
X27818Y11842D1*
X27753Y11707D1*
X27663Y11620D1*
X27551Y11566D1*
X27428Y11550D1*
X27305Y11574D1*
X27197Y11635D1*
X27113Y11727D1*
X27063Y11841D1*
X27051Y11965D1*
X27078Y12086D1*
X27143Y12193D1*
X27238Y12273D1*
X27353Y12320D1*
X27477Y12328D1*
X27598Y12297D1*
X27702Y12229D1*
X27780Y12132D1*
X27819Y12026D1*
X27818Y12842D1*
X27753Y12707D1*
X27663Y12620D1*
X27551Y12566D1*
X27428Y12550D1*
X27305Y12574D1*
X27197Y12635D1*
X27113Y12727D1*
X27063Y12841D1*
X27051Y12965D1*
X27078Y13086D1*
X27143Y13193D1*
X27238Y13273D1*
X27353Y13320D1*
X27477Y13328D1*
X27598Y13297D1*
X27702Y13229D1*
X27780Y13132D1*
X27819Y13026D1*
X27818Y17842D1*
X27753Y17707D1*
X27663Y17620D1*
X27551Y17566D1*
X27428Y17550D1*
X27305Y17574D1*
X27197Y17635D1*
X27113Y17727D1*
X27063Y17841D1*
X27051Y17965D1*
X27078Y18086D1*
X27143Y18193D1*
X27238Y18273D1*
X27353Y18320D1*
X27477Y18328D1*
X27598Y18297D1*
X27702Y18229D1*
X27780Y18132D1*
X27819Y18026D1*
X27818Y18842D1*
X27753Y18707D1*
X27663Y18620D1*
X27551Y18566D1*
X27428Y18550D1*
X27305Y18574D1*
X27197Y18635D1*
X27113Y18727D1*
X27063Y18841D1*
X27051Y18965D1*
X27078Y19086D1*
X27143Y19193D1*
X27238Y19273D1*
X27353Y19320D1*
X27477Y19328D1*
X27598Y19297D1*
X27702Y19229D1*
X27780Y19132D1*
X27819Y19026D1*
X27818Y19842D1*
X27753Y19707D1*
X27663Y19620D1*
X27551Y19566D1*
X27428Y19550D1*
X27305Y19574D1*
X27197Y19635D1*
X27113Y19727D1*
X27063Y19841D1*
X27051Y19965D1*
X27078Y20086D1*
X27143Y20193D1*
X27238Y20273D1*
X27353Y20320D1*
X27477Y20328D1*
X27598Y20297D1*
X27702Y20229D1*
X27780Y20132D1*
X27819Y20026D1*
X27818Y20842D1*
X27753Y20707D1*
X27663Y20620D1*
X27551Y20566D1*
X27428Y20550D1*
X27305Y20574D1*
X27197Y20635D1*
X27113Y20727D1*
X27063Y20841D1*
X27051Y20965D1*
X27078Y21086D1*
X27143Y21193D1*
X27238Y21273D1*
X27353Y21320D1*
X27477Y21328D1*
X27598Y21297D1*
X27702Y21229D1*
X27780Y21132D1*
X27819Y21026D1*
X27818Y21842D1*
X27753Y21707D1*
X27663Y21620D1*
X27551Y21566D1*
X27428Y21550D1*
X27305Y21574D1*
X27197Y21635D1*
X27113Y21727D1*
X27063Y21841D1*
X27051Y21965D1*
X27078Y22086D1*
X27143Y22193D1*
X27238Y22273D1*
X27353Y22320D1*
X27477Y22328D1*
X27598Y22297D1*
X27702Y22229D1*
X27780Y22132D1*
X27819Y22026D1*
X27818Y23842D1*
X27753Y23707D1*
X27663Y23620D1*
X27551Y23566D1*
X27428Y23550D1*
X27305Y23574D1*
X27197Y23635D1*
X27113Y23727D1*
X27063Y23841D1*
X27051Y23965D1*
X27078Y24086D1*
X27143Y24193D1*
X27238Y24273D1*
X27353Y24320D1*
X27477Y24328D1*
X27598Y24297D1*
X27702Y24229D1*
X27780Y24132D1*
X27819Y24026D1*
X27818Y27842D1*
X27753Y27707D1*
X27663Y27620D1*
X27551Y27566D1*
X27428Y27550D1*
X27305Y27574D1*
X27197Y27635D1*
X27113Y27727D1*
X27063Y27841D1*
X27051Y27965D1*
X27078Y28086D1*
X27143Y28193D1*
X27238Y28273D1*
X27353Y28320D1*
X27477Y28328D1*
X27598Y28297D1*
X27702Y28229D1*
X27780Y28132D1*
X27819Y28026D1*
X27818Y28717D1*
X27753Y28582D1*
X27663Y28495D1*
X27551Y28441D1*
X27428Y28425D1*
X27305Y28449D1*
X27197Y28510D1*
X27113Y28602D1*
X27063Y28716D1*
X27051Y28840D1*
X27078Y28961D1*
X27143Y29068D1*
X27238Y29148D1*
X27353Y29195D1*
X27477Y29203D1*
X27598Y29172D1*
X27702Y29104D1*
X27780Y29007D1*
X27819Y28901D1*
X27818Y29592D1*
X27753Y29457D1*
X27663Y29370D1*
X27551Y29316D1*
X27428Y29300D1*
X27305Y29324D1*
X27197Y29385D1*
X27113Y29477D1*
X27063Y29591D1*
X27051Y29715D1*
X27078Y29836D1*
X27143Y29943D1*
X27238Y30023D1*
X27353Y30070D1*
X27477Y30078D1*
X27598Y30047D1*
X27702Y29979D1*
X27780Y29882D1*
X27819Y29776D1*
X27818Y30592D1*
X27753Y30457D1*
X27663Y30370D1*
X27551Y30316D1*
X27428Y30300D1*
X27305Y30324D1*
X27197Y30385D1*
X27113Y30477D1*
X27063Y30591D1*
X27051Y30715D1*
X27078Y30836D1*
X27143Y30943D1*
X27238Y31023D1*
X27353Y31070D1*
X27477Y31078D1*
X27598Y31047D1*
X27702Y30979D1*
X27780Y30882D1*
X27819Y30776D1*
X27818Y31592D1*
X27753Y31457D1*
X27663Y31370D1*
X27551Y31316D1*
X27428Y31300D1*
X27305Y31324D1*
X27197Y31385D1*
X27113Y31477D1*
X27063Y31591D1*
X27051Y31715D1*
X27078Y31836D1*
X27143Y31943D1*
X27238Y32023D1*
X27353Y32070D1*
X27477Y32078D1*
X27598Y32047D1*
X27702Y31979D1*
X27780Y31882D1*
X27819Y31776D1*
X27818Y32592D1*
X27753Y32457D1*
X27663Y32370D1*
X27551Y32316D1*
X27428Y32300D1*
X27305Y32324D1*
X27197Y32385D1*
X27113Y32477D1*
X27063Y32591D1*
X27051Y32715D1*
X27078Y32836D1*
X27143Y32943D1*
X27238Y33023D1*
X27353Y33070D1*
X27477Y33078D1*
X27598Y33047D1*
X27702Y32979D1*
X27780Y32882D1*
X27819Y32776D1*
X27818Y33592D1*
X27753Y33457D1*
X27663Y33370D1*
X27551Y33316D1*
X27428Y33300D1*
X27305Y33324D1*
X27197Y33385D1*
X27113Y33477D1*
X27063Y33591D1*
X27051Y33715D1*
X27078Y33836D1*
X27143Y33943D1*
X27238Y34023D1*
X27353Y34070D1*
X27477Y34078D1*
X27598Y34047D1*
X27702Y33979D1*
X27780Y33882D1*
X27819Y33776D1*
X27818Y34592D1*
X27753Y34457D1*
X27663Y34370D1*
X27551Y34316D1*
X27428Y34300D1*
X27305Y34324D1*
X27197Y34385D1*
X27113Y34477D1*
X27063Y34591D1*
X27051Y34715D1*
X27078Y34836D1*
X27143Y34943D1*
X27238Y35023D1*
X27353Y35070D1*
X27477Y35078D1*
X27598Y35047D1*
X27702Y34979D1*
X27780Y34882D1*
X27819Y34776D1*
X27818Y36342D1*
X27753Y36207D1*
X27663Y36120D1*
X27551Y36066D1*
X27428Y36050D1*
X27305Y36074D1*
X27197Y36135D1*
X27113Y36227D1*
X27063Y36341D1*
X27051Y36465D1*
X27078Y36586D1*
X27143Y36693D1*
X27238Y36773D1*
X27353Y36820D1*
X27477Y36828D1*
X27598Y36797D1*
X27702Y36729D1*
X27780Y36632D1*
X27819Y36526D1*
X27818Y37342D1*
X27753Y37207D1*
X27663Y37120D1*
X27551Y37066D1*
X27428Y37050D1*
X27305Y37074D1*
X27197Y37135D1*
X27113Y37227D1*
X27063Y37341D1*
X27051Y37465D1*
X27078Y37586D1*
X27143Y37693D1*
X27238Y37773D1*
X27353Y37820D1*
X27477Y37828D1*
X27598Y37797D1*
X27702Y37729D1*
X27780Y37632D1*
X27819Y37526D1*
X27818Y38342D1*
X27753Y38207D1*
X27663Y38120D1*
X27551Y38066D1*
X27428Y38050D1*
X27305Y38074D1*
X27197Y38135D1*
X27113Y38227D1*
X27063Y38341D1*
X27051Y38465D1*
X27078Y38586D1*
X27143Y38693D1*
X27238Y38773D1*
X27353Y38820D1*
X27477Y38828D1*
X27598Y38797D1*
X27702Y38729D1*
X27780Y38632D1*
X27819Y38526D1*
X27818Y39342D1*
X27753Y39207D1*
X27663Y39120D1*
X27551Y39066D1*
X27428Y39050D1*
X27305Y39074D1*
X27197Y39135D1*
X27113Y39227D1*
X27063Y39341D1*
X27051Y39465D1*
X27078Y39586D1*
X27143Y39693D1*
X27238Y39773D1*
X27353Y39820D1*
X27477Y39828D1*
X27598Y39797D1*
X27702Y39729D1*
X27780Y39632D1*
X27819Y39526D1*
X27818Y40342D1*
X27753Y40207D1*
X27663Y40120D1*
X27551Y40066D1*
X27428Y40050D1*
X27305Y40074D1*
X27197Y40135D1*
X27113Y40227D1*
X27063Y40341D1*
X27051Y40465D1*
X27078Y40586D1*
X27143Y40693D1*
X27238Y40773D1*
X27353Y40820D1*
X27477Y40828D1*
X27598Y40797D1*
X27702Y40729D1*
X27780Y40632D1*
X27819Y40526D1*
X27818Y43194D1*
X26505D1*
Y40823D1*
X26598Y40797D1*
X26702Y40729D1*
X26780Y40632D1*
X26823Y40515D1*
X26830Y40440D1*
X26810Y40317D1*
X26753Y40207D1*
X26663Y40120D1*
X26551Y40066D1*
X26501Y40060D1*
X26505Y39823D1*
X26598Y39797D1*
X26702Y39729D1*
X26780Y39632D1*
X26823Y39515D1*
X26830Y39440D1*
X26810Y39317D1*
X26753Y39207D1*
X26663Y39120D1*
X26551Y39066D1*
X26501Y39060D1*
X26505Y38823D1*
X26598Y38797D1*
X26702Y38729D1*
X26780Y38632D1*
X26823Y38515D1*
X26830Y38440D1*
X26810Y38317D1*
X26753Y38207D1*
X26663Y38120D1*
X26551Y38066D1*
X26501Y38060D1*
X26505Y37823D1*
X26598Y37797D1*
X26702Y37729D1*
X26780Y37632D1*
X26823Y37515D1*
X26830Y37440D1*
X26810Y37317D1*
X26753Y37207D1*
X26663Y37120D1*
X26551Y37066D1*
X26501Y37060D1*
X26504Y36823D1*
X26598Y36797D1*
X26702Y36729D1*
X26780Y36632D1*
X26823Y36515D1*
X26830Y36440D1*
X26810Y36317D1*
X26753Y36207D1*
X26663Y36120D1*
X26551Y36066D1*
X26501Y36060D1*
X26704Y35914D1*
X26782Y35817D1*
X26825Y35700D1*
X26832Y35625D1*
X26813Y35502D1*
X26764Y35409D1*
X26825Y35260D1*
X26832Y35185D1*
X26813Y35062D1*
X26741Y34938D1*
X26780Y34882D1*
X26823Y34765D1*
X26830Y34690D1*
X26810Y34567D1*
X26753Y34457D1*
X26663Y34370D1*
X26551Y34316D1*
X26501Y34310D1*
X26504Y34073D1*
X26598Y34047D1*
X26702Y33979D1*
X26780Y33882D1*
X26823Y33765D1*
X26830Y33690D1*
X26810Y33567D1*
X26753Y33457D1*
X26663Y33370D1*
X26551Y33316D1*
X26501Y33310D1*
X26504Y33073D1*
X26598Y33047D1*
X26702Y32979D1*
X26780Y32882D1*
X26823Y32765D1*
X26830Y32690D1*
X26810Y32567D1*
X26753Y32457D1*
X26660Y32368D1*
X26719Y32226D1*
X26727Y32151D1*
X26707Y32028D1*
X26691Y31997D1*
X26719Y31913D1*
X26727Y31838D1*
X26707Y31716D1*
X26691Y31685D1*
X26719Y31601D1*
X26727Y31526D1*
X26707Y31403D1*
X26691Y31372D1*
X26719Y31288D1*
X26727Y31213D1*
X26707Y31091D1*
X26691Y31060D1*
X26719Y30976D1*
X26727Y30901D1*
X26707Y30778D1*
X26635Y30654D1*
X26702Y30604D1*
X26780Y30507D1*
X26823Y30390D1*
X26830Y30315D1*
X26810Y30192D1*
X26753Y30082D1*
X26663Y29995D1*
X26551Y29941D1*
X26501Y29935D1*
X26504Y28694D1*
Y28565D1*
X26637Y28578D1*
X26758Y28547D1*
X26862Y28479D1*
X26940Y28382D1*
X26983Y28265D1*
X26990Y28190D1*
X26970Y28067D1*
X26913Y27957D1*
X26823Y27870D1*
X26711Y27816D1*
X26588Y27800D1*
X26530Y27811D1*
X26626Y27680D1*
X26672Y27564D1*
X26690Y27420D1*
X26676Y27296D1*
X26635Y27178D1*
X26569Y27072D1*
X26506Y27009D1*
X26504Y26839D1*
X26557Y26783D1*
X26626Y26680D1*
X26672Y26564D1*
X26690Y26420D1*
X26676Y26296D1*
X23810Y4817D2*
X23753Y4707D1*
X23663Y4620D1*
X23551Y4566D1*
X23428Y4550D1*
X23305Y4574D1*
X23197Y4635D1*
X23113Y4727D1*
X23063Y4841D1*
X23051Y4965D1*
X23078Y5086D1*
X23143Y5193D1*
X23238Y5273D1*
X23353Y5320D1*
X23477Y5328D1*
X23598Y5297D1*
X23702Y5229D1*
X23780Y5132D1*
X23823Y5015D1*
X23830Y4940D1*
X23810Y4817D1*
X21810D2*
X21753Y4707D1*
X21663Y4620D1*
X21551Y4566D1*
X21428Y4550D1*
X21305Y4574D1*
X21197Y4635D1*
X21113Y4727D1*
X21063Y4841D1*
X21051Y4965D1*
X21078Y5086D1*
X21143Y5193D1*
X21238Y5273D1*
X21353Y5320D1*
X21477Y5328D1*
X21598Y5297D1*
X21702Y5229D1*
X21780Y5132D1*
X21823Y5015D1*
X21830Y4940D1*
X21810Y4817D1*
X20810D2*
X20753Y4707D1*
X20663Y4620D1*
X20551Y4566D1*
X20428Y4550D1*
X20305Y4574D1*
X20197Y4635D1*
X20113Y4727D1*
X20063Y4841D1*
X20051Y4965D1*
X20078Y5086D1*
X20143Y5193D1*
X20238Y5273D1*
X20353Y5320D1*
X20477Y5328D1*
X20598Y5297D1*
X20702Y5229D1*
X20780Y5132D1*
X20823Y5015D1*
X20830Y4940D1*
X20810Y4817D1*
X15810D2*
X15753Y4707D1*
X15663Y4620D1*
X15551Y4566D1*
X15428Y4550D1*
X15305Y4574D1*
X15197Y4635D1*
X15113Y4727D1*
X15063Y4841D1*
X15051Y4965D1*
X15078Y5086D1*
X15143Y5193D1*
X15238Y5273D1*
X15353Y5320D1*
X15477Y5328D1*
X15598Y5297D1*
X15702Y5229D1*
X15780Y5132D1*
X15823Y5015D1*
X15830Y4940D1*
X15810Y4817D1*
X16810D2*
X16753Y4707D1*
X16663Y4620D1*
X16551Y4566D1*
X16428Y4550D1*
X16305Y4574D1*
X16197Y4635D1*
X16113Y4727D1*
X16063Y4841D1*
X16051Y4965D1*
X16078Y5086D1*
X16143Y5193D1*
X16238Y5273D1*
X16353Y5320D1*
X16477Y5328D1*
X16598Y5297D1*
X16702Y5229D1*
X16780Y5132D1*
X16823Y5015D1*
X16830Y4940D1*
X16810Y4817D1*
X17810D2*
X17753Y4707D1*
X17663Y4620D1*
X17551Y4566D1*
X17428Y4550D1*
X17305Y4574D1*
X17197Y4635D1*
X17113Y4727D1*
X17063Y4841D1*
X17051Y4965D1*
X17078Y5086D1*
X17143Y5193D1*
X17238Y5273D1*
X17353Y5320D1*
X17477Y5328D1*
X17598Y5297D1*
X17702Y5229D1*
X17780Y5132D1*
X17823Y5015D1*
X17830Y4940D1*
X17810Y4817D1*
X18810D2*
X18753Y4707D1*
X18663Y4620D1*
X18551Y4566D1*
X18428Y4550D1*
X18305Y4574D1*
X18197Y4635D1*
X18113Y4727D1*
X18063Y4841D1*
X18051Y4965D1*
X18078Y5086D1*
X18143Y5193D1*
X18238Y5273D1*
X18353Y5320D1*
X18477Y5328D1*
X18598Y5297D1*
X18702Y5229D1*
X18780Y5132D1*
X18823Y5015D1*
X18830Y4940D1*
X18810Y4817D1*
X19810D2*
X19753Y4707D1*
X19663Y4620D1*
X19551Y4566D1*
X19428Y4550D1*
X19305Y4574D1*
X19197Y4635D1*
X19113Y4727D1*
X19063Y4841D1*
X19051Y4965D1*
X19078Y5086D1*
X19143Y5193D1*
X19238Y5273D1*
X19353Y5320D1*
X19477Y5328D1*
X19598Y5297D1*
X19702Y5229D1*
X19780Y5132D1*
X19823Y5015D1*
X19830Y4940D1*
X19810Y4817D1*
X14810D2*
X14753Y4707D1*
X14663Y4620D1*
X14551Y4566D1*
X14428Y4550D1*
X14305Y4574D1*
X14197Y4635D1*
X14113Y4727D1*
X14063Y4841D1*
X14051Y4965D1*
X14078Y5086D1*
X14143Y5193D1*
X14238Y5273D1*
X14353Y5320D1*
X14477Y5328D1*
X14598Y5297D1*
X14702Y5229D1*
X14780Y5132D1*
X14823Y5015D1*
X14830Y4940D1*
X14810Y4817D1*
Y5817D2*
X14753Y5707D1*
X14663Y5620D1*
X14551Y5566D1*
X14428Y5550D1*
X14305Y5574D1*
X14197Y5635D1*
X14113Y5727D1*
X14063Y5841D1*
X14051Y5965D1*
X14078Y6086D1*
X14143Y6193D1*
X14238Y6273D1*
X14353Y6320D1*
X14477Y6328D1*
X14598Y6297D1*
X14702Y6229D1*
X14780Y6132D1*
X14823Y6015D1*
X14830Y5940D1*
X14810Y5817D1*
X13810Y5767D2*
X13753Y5657D1*
X13663Y5570D1*
X13551Y5516D1*
X13428Y5500D1*
X13305Y5524D1*
X13197Y5585D1*
X13113Y5677D1*
X13063Y5791D1*
X13051Y5915D1*
X13078Y6036D1*
X13143Y6143D1*
X13238Y6223D1*
X13353Y6270D1*
X13477Y6278D1*
X13598Y6247D1*
X13702Y6179D1*
X13780Y6082D1*
X13823Y5965D1*
X13830Y5890D1*
X13810Y5767D1*
X12800Y5797D2*
X12743Y5687D1*
X12653Y5600D1*
X12541Y5546D1*
X12418Y5530D1*
X12295Y5554D1*
X12187Y5615D1*
X12103Y5707D1*
X12053Y5821D1*
X12041Y5945D1*
X12068Y6066D1*
X12133Y6173D1*
X12228Y6253D1*
X12343Y6300D1*
X12467Y6308D1*
X12588Y6277D1*
X12692Y6209D1*
X12770Y6112D1*
X12813Y5995D1*
X12820Y5920D1*
X12800Y5797D1*
X15810Y5817D2*
X15753Y5707D1*
X15663Y5620D1*
X15551Y5566D1*
X15428Y5550D1*
X15305Y5574D1*
X15197Y5635D1*
X15113Y5727D1*
X15063Y5841D1*
X15051Y5965D1*
X15078Y6086D1*
X15143Y6193D1*
X15238Y6273D1*
X15353Y6320D1*
X15477Y6328D1*
X15598Y6297D1*
X15702Y6229D1*
X15780Y6132D1*
X15823Y6015D1*
X15830Y5940D1*
X15810Y5817D1*
X17810D2*
X17753Y5707D1*
X17663Y5620D1*
X17551Y5566D1*
X17428Y5550D1*
X17305Y5574D1*
X17197Y5635D1*
X17113Y5727D1*
X17063Y5841D1*
X17051Y5965D1*
X17078Y6086D1*
X17143Y6193D1*
X17238Y6273D1*
X17353Y6320D1*
X17477Y6328D1*
X17598Y6297D1*
X17702Y6229D1*
X17780Y6132D1*
X17823Y6015D1*
X17830Y5940D1*
X17810Y5817D1*
X18810D2*
X18753Y5707D1*
X18663Y5620D1*
X18551Y5566D1*
X18428Y5550D1*
X18305Y5574D1*
X18197Y5635D1*
X18113Y5727D1*
X18063Y5841D1*
X18051Y5965D1*
X18078Y6086D1*
X18143Y6193D1*
X18238Y6273D1*
X18353Y6320D1*
X18477Y6328D1*
X18598Y6297D1*
X18702Y6229D1*
X18780Y6132D1*
X18823Y6015D1*
X18830Y5940D1*
X18810Y5817D1*
X26506Y36006D2*
X26600Y35982D1*
X26704Y35914D1*
X26782Y35817D1*
X26825Y35700D1*
X26832Y35625D1*
X26813Y35502D1*
X26764Y35409D1*
D47*
X17877Y39815D3*
D48*
X16227D3*
X14577D3*
X17877Y41975D3*
X16227D3*
X14577D3*
X25690Y37040D3*
Y39010D3*
D49*
X6815Y13460D3*
Y12476D3*
X6028Y13460D3*
Y12476D3*
D50*
X4961Y15338D3*
Y10598D3*
D51*
X14130Y26420D3*
D52*
X15130D3*
X16130D3*
X17130D3*
X18130D3*
X19130D3*
X20130D3*
X21130D3*
X22130D3*
X23130D3*
X24130D3*
X25130D3*
X26130D3*
X14130Y27420D3*
X15130D3*
X16130D3*
X17130D3*
X18130D3*
X19130D3*
X20130D3*
X21130D3*
X22130D3*
X23130D3*
X24130D3*
X25130D3*
X26130D3*
D51*
X15110Y10450D3*
D52*
X14110D3*
X13110D3*
X12110D3*
X11110D3*
X15110Y9450D3*
X14110D3*
X13110D3*
X12110D3*
X11110D3*
D53*
X26422Y13790D3*
D54*
Y14790D3*
Y15790D3*
Y16790D3*
D53*
X26462Y8170D3*
D54*
Y9170D3*
Y10170D3*
Y11170D3*
D53*
X5540Y30692D3*
D54*
Y31692D3*
Y32692D3*
D53*
X5480Y27910D3*
D54*
Y28910D3*
X12950Y42640D3*
D55*
X5440Y41940D3*
Y5440D3*
X26440D3*
Y41940D3*
M02*
