G04 DipTrace 2.4.0.2*
%INPower.gbr*%
%MOIN*%
%ADD13C,0.008*%
%ADD26C,0.06*%
%ADD27C,0.025*%
%ADD28C,0.013*%
%ADD47R,0.1X0.1*%
%ADD48C,0.1*%
%ADD49C,0.059*%
%ADD50C,0.125*%
%ADD51R,0.0591X0.0591*%
%ADD52C,0.0591*%
%ADD53R,0.0669X0.0669*%
%ADD54C,0.0669*%
%ADD55C,0.25*%
%ADD76C,0.035*%
%FSLAX44Y44*%
G04*
G70*
G90*
G75*
G01*
%LNInner2*%
%LPD*%
X13950Y21300D2*
D13*
X13550Y21700D1*
Y23290D1*
X11770D1*
X10980Y22500D1*
Y21509D1*
X9503Y18940D2*
X9800Y19238D1*
Y20830D1*
X10479Y21509D1*
X10980D1*
X15095Y18960D2*
X10970D1*
Y18970D1*
X9503D1*
Y18940D1*
X10970Y18960D2*
Y17600D1*
X11520Y17410D2*
X11350Y17580D1*
X10950D1*
X10970Y17600D1*
X14620Y24940D2*
X14630Y24950D1*
Y24370D1*
X13550Y23290D1*
X14620Y24940D2*
Y25910D1*
X15130Y26420D1*
X11520Y17410D2*
X10660Y16550D1*
X10160D1*
X8450Y14840D1*
X8460D1*
X10420Y30870D2*
Y30437D1*
X10240Y30257D1*
Y28020D1*
X10230D1*
X15095Y18960D2*
Y18945D1*
X15920Y18120D1*
Y16100D1*
X18860Y16481D2*
Y20020D1*
X15630D1*
X15430Y19820D1*
X13950Y21300D1*
X10810Y25520D2*
Y26880D1*
X10230Y27460D1*
Y28020D1*
X8130Y30473D2*
Y28692D1*
X8003Y28565D1*
X13860Y13800D2*
X14210D1*
X15254Y14844D1*
X15204D1*
X16000Y15640D1*
Y16100D1*
X15920D1*
X13110Y10450D2*
X13090D1*
X13160Y10520D1*
Y13070D1*
X13870Y13780D1*
Y13810D1*
X13860Y13800D1*
X15130Y15250D2*
Y14967D1*
X15254Y14844D1*
X17530Y8570D2*
Y9350D1*
X17000Y9880D1*
Y13000D1*
X15156Y14844D1*
X15204D1*
X17430Y19080D2*
X16170D1*
X15430Y19820D1*
X10810Y25520D2*
Y23850D1*
X11210D1*
X11770Y23290D1*
X8460Y23850D2*
X10810D1*
X18940Y20610D2*
Y20020D1*
X18860D1*
X5540Y31692D2*
X8320D1*
X9190D1*
X9875D1*
X10378Y31190D1*
Y30870D1*
X10420D1*
X8130Y30473D2*
X8143D1*
X8320Y30650D1*
Y31692D1*
X9190Y36440D2*
Y33440D1*
X7190Y36440D2*
X8190D1*
X7190D2*
X6190D1*
X5190D1*
X4315D1*
X7190Y37440D2*
Y36440D1*
X6190Y37440D2*
Y36440D1*
X5190Y37440D2*
Y36440D1*
X4315Y37440D2*
Y36440D1*
X9190D2*
X8190D1*
X9190Y33440D2*
Y31692D1*
Y36440D2*
X9252Y36378D1*
X11190D1*
X11253Y36440D1*
Y37440D1*
X10190Y35440D2*
X11190D1*
X10190Y34440D2*
X11190D1*
X12205D1*
X12517Y34128D1*
X8190Y34440D2*
X7190D1*
X8190Y35440D2*
X7190D1*
X6190D1*
X5190D1*
X4315D1*
X9190Y33440D2*
X8190D1*
X7190D1*
X6190D1*
X5190D1*
X4315D1*
Y34440D1*
X8190Y35440D2*
X8690D1*
X9190D1*
X9690D1*
X9190Y34940D2*
X8690D1*
X8190D1*
X9190D2*
X9690D1*
X10190D1*
X9190Y34440D2*
X8690D1*
X8190D1*
X9190D2*
X9690D1*
X10190D1*
X9690Y35440D2*
X10190D1*
X17877Y39815D2*
D26*
X16227D1*
X14577D1*
X22130Y16435D2*
D13*
Y14355D1*
X22120D1*
Y12650D1*
Y11820D1*
Y11080D1*
X21890Y10850D1*
Y8800D1*
X22300Y8390D1*
Y8460D1*
X22482Y12650D2*
X22120D1*
X22300Y6421D2*
Y8390D1*
X12550Y40780D2*
X13540Y39790D1*
X17220D1*
X17245Y39815D1*
X14577D1*
X19290Y31200D2*
X21370D1*
X23830Y22510D2*
X25890D1*
X17830Y31190D2*
X19280D1*
X19290Y31200D1*
X21890Y23600D2*
X20760D1*
X20640D1*
X22120Y11820D2*
X21850D1*
X21890Y23600D2*
Y16675D1*
X22130Y16435D1*
X20640Y22650D2*
Y23600D1*
Y22650D2*
X21890D1*
X20760Y11820D2*
X21850D1*
X20760D2*
Y10820D1*
X21860D2*
X21890Y10850D1*
X23830Y22510D2*
X22030D1*
X21890Y22650D1*
X20760Y23600D2*
Y25790D1*
X20130Y26420D1*
X17877Y39815D2*
Y39053D1*
X18700Y38230D1*
X20940D1*
X21200Y37970D1*
X23410D1*
X24440Y36940D1*
X25790D1*
X25690Y37040D1*
X11325Y42405D2*
Y41775D1*
X12320Y40780D1*
X12550D1*
X18700Y38230D2*
X21130Y35800D1*
Y35280D1*
X22950Y33460D1*
Y31200D1*
X22960D1*
Y29330D1*
Y28180D1*
X22100Y27320D1*
Y27420D1*
X22130D1*
X23130Y26420D1*
X20130D2*
Y26430D1*
X20630Y26930D1*
X21640D1*
X22130Y27420D1*
X23410Y37400D2*
Y37970D1*
X16480Y37310D2*
X16440D1*
Y39602D1*
X16227Y39815D1*
X16480Y37310D2*
X17610D1*
X16460Y36410D2*
X16420D1*
Y37250D1*
X16480Y37310D1*
X17610D2*
Y36410D1*
X17630Y36430D1*
X21370Y31200D2*
X22950D1*
X25850Y29570D2*
X23980D1*
X23740Y29330D1*
X22960D1*
D27*
X14253Y38003D3*
X14100Y34080D3*
X13590Y36010D3*
D76*
X6760Y29870D3*
D27*
X13950Y21300D3*
X10980Y21509D3*
X9503Y18940D3*
X15095Y18960D3*
X9503Y18940D3*
X10970Y17600D3*
X11520Y17410D3*
X14620Y24940D3*
D3*
X8460Y14840D3*
X11520Y17410D3*
X10230Y28020D3*
X10420Y30870D3*
X15920Y16100D3*
X15095Y18960D3*
X15920Y16100D3*
X18860Y16481D3*
X13950Y21300D3*
X10810Y25520D3*
X8130Y30473D3*
X8003Y28565D3*
X13860Y13800D3*
D3*
X15130Y15250D3*
X17530Y8570D3*
X17430Y19080D3*
X10810Y25520D3*
X8460Y23850D3*
X18940Y20610D3*
X10420Y30870D3*
X8130Y30473D3*
X9190Y36440D3*
D3*
D3*
X12517Y34128D3*
X10870Y23090D3*
X12130Y18330D3*
X15550Y33210D3*
X11090Y33020D3*
X11280Y28480D3*
X8940Y28080D3*
X11780Y33390D3*
X13350Y33270D3*
X13600Y25360D3*
X12880Y17410D3*
X14637Y16460D3*
X14140Y25500D3*
X13160Y22410D3*
X12170Y13200D3*
D3*
X14580Y22780D3*
X13645Y16905D3*
X13690Y17430D3*
X13920Y24910D3*
X14390Y18340D3*
X15400Y21770D3*
X14180Y24440D3*
X13800Y18270D3*
X12830Y16040D3*
X10585Y17625D3*
X10710Y21250D3*
X9529Y19985D3*
X15750Y23710D3*
X13860Y21790D3*
X7480Y21120D3*
X15460Y19110D3*
X6910Y21490D3*
X6252Y21628D3*
X6910Y21490D3*
X5565Y19878D3*
D76*
X23780Y32240D3*
Y31240D3*
D27*
X17785Y8035D3*
X17790Y9150D3*
X12231Y42679D3*
X11280Y39870D3*
X12231Y42679D3*
X10330Y39220D3*
X11280Y39870D3*
X10330Y38750D3*
D76*
X20141Y39819D3*
Y39319D3*
Y38810D3*
D27*
X10330Y38750D3*
X8815Y41190D3*
X11128Y41503D3*
X12570Y41207D3*
X23187Y34733D3*
X20180Y36170D3*
X24490Y34230D3*
X23187Y34733D3*
X22520Y33060D3*
X21525Y28830D3*
X19425D3*
X18155D3*
D76*
X23780Y31730D3*
D27*
X23187Y34733D3*
D76*
X23780Y32240D3*
D27*
X22610Y21070D3*
X10710Y21250D3*
X6290Y34820D3*
Y34450D3*
D76*
X18280Y23610D3*
Y22590D3*
X19330Y22640D3*
X19310Y23610D3*
X19320Y11850D3*
X18220Y11800D3*
X19320Y11850D3*
X18200Y10850D3*
X19300D3*
X18200D3*
D27*
X15460Y19110D3*
D76*
X19330Y22640D3*
D27*
X11000Y17250D3*
X11520Y16720D3*
X10320Y17920D3*
X9900Y18390D3*
X10320Y17920D3*
X8480Y16430D3*
X9900Y18390D3*
X8850Y15800D3*
X8480Y16430D3*
X9370Y15270D3*
X8850Y15800D3*
X9930Y14940D3*
X9380Y23080D3*
X15570Y22950D3*
X17060Y17240D3*
X15460Y19110D3*
X22351Y25130D3*
X27020Y25150D3*
X22550Y24030D3*
X26700Y24290D3*
X22550Y24030D3*
X22580Y23230D3*
X22550Y24030D3*
X21700Y30380D3*
Y29810D3*
Y30380D3*
X17900Y30350D3*
Y29820D3*
Y30350D3*
X11430Y26980D3*
X9950Y25930D3*
X7210Y29370D3*
X8560Y30473D3*
X9800Y28030D3*
X7990Y27950D3*
D3*
X14230Y32280D3*
X10690Y32750D3*
X9890Y30888D3*
X17070Y18810D3*
X20426Y17610D3*
X9930Y14940D3*
X14320Y14310D3*
X12830Y16040D3*
X12180Y11970D3*
X6230Y7830D3*
Y7340D3*
Y7830D3*
D76*
X18200Y10850D3*
D27*
X24878Y17690D3*
Y16270D3*
Y14396D3*
Y13050D3*
Y14396D3*
X22920Y12960D3*
X23670Y12930D3*
X22920Y12960D3*
X22930Y17690D3*
X23690Y17700D3*
X24950Y10399D3*
X25040Y9030D3*
X24950Y10399D3*
D76*
X24290Y5508D3*
D27*
X24950Y6970D3*
X23820Y9800D3*
X23050Y9780D3*
X23820Y9800D3*
X11310Y25520D3*
X7960Y24580D3*
X26510Y22990D3*
X18610Y20310D3*
X23590Y35790D3*
X23187Y34733D3*
X21620Y19560D3*
D3*
X9790Y30320D3*
X26442Y35625D3*
X23590Y35790D3*
X26442Y35185D3*
Y35625D3*
X24970Y25150D3*
X22175Y28830D3*
X23640Y25160D3*
X8650Y12410D3*
X13419Y29790D3*
X14160Y31520D3*
X16550Y31580D3*
X22010Y35100D3*
D76*
X20141Y38810D3*
D27*
X13920Y37270D3*
X15090D3*
X13920D3*
X7980Y30828D3*
X10020Y36630D3*
Y37830D3*
X13930Y36420D3*
X13920Y37270D3*
X15090Y36410D3*
X11940Y38440D3*
X18400Y37200D3*
X18680Y38820D3*
X11430Y26980D3*
X9800Y28030D3*
X10815Y37690D3*
X14230Y32280D3*
X14160Y31520D3*
X16010Y30143D3*
X13419Y29790D3*
X16000Y21930D3*
X12579Y40370D3*
X5150Y34820D3*
Y34450D3*
X5030Y7830D3*
X5040Y7360D3*
X5030Y7830D3*
X27625Y35625D3*
X27627Y35190D3*
D76*
X27560Y26920D3*
D27*
X5150Y34820D3*
X7320Y23430D3*
X6440Y25350D3*
X6390Y23150D3*
X6420Y24850D3*
X15640Y17420D3*
X17050Y19770D3*
X16150Y21330D3*
X14740Y18350D3*
X12500Y22840D3*
X12630Y18060D3*
X13140Y14930D3*
X8150Y16480D3*
X8530Y18010D3*
X22564Y9925D3*
X22439Y17762D3*
X14110Y36020D3*
X14160Y33290D3*
X9237Y41487D3*
X10135Y39875D3*
D3*
X14630Y34320D3*
X14530Y36000D3*
X16820Y8900D3*
X15290Y8930D3*
X13040Y16360D3*
X16830Y21330D3*
X12750Y23570D3*
X12670Y16820D3*
X8600Y26900D3*
X12110Y26980D3*
X14360Y16120D3*
X16400Y19500D3*
X10324Y32866D3*
X13650Y33530D3*
X10324Y32866D3*
X12170Y13780D3*
X11910Y23760D3*
X9150Y28840D3*
X8660Y28350D3*
X8840Y30838D3*
X6050Y23530D3*
X6670Y22890D3*
X11300Y22000D3*
X11630Y14770D3*
X10990Y14100D3*
X11540Y21310D3*
X10850Y14860D3*
X10680Y20800D3*
X11910Y22200D3*
X11940Y14250D3*
D76*
X22130Y16435D3*
X22300Y8460D3*
D27*
X22482Y12650D3*
D76*
X22130Y14355D3*
X22300Y6421D3*
D27*
X12550Y40780D3*
D76*
X19290Y31200D3*
X21370D3*
X23830Y22510D3*
X25890D3*
D27*
X17830Y31190D3*
D76*
X19290Y31200D3*
X21890Y23600D3*
X20640D3*
X21850Y11820D3*
X21890Y23600D3*
X22130Y16435D3*
X20640Y22650D3*
X21890D3*
X20640D3*
X20760Y11820D3*
Y10820D3*
Y11820D3*
X21860Y10820D3*
X23830Y22510D3*
X25890D3*
D27*
X11325Y42405D3*
X12550Y40780D3*
D76*
X23410Y37400D3*
D27*
X16480Y37310D3*
X17610D3*
X16480D3*
X16460Y36410D3*
X16480Y37310D3*
X17630Y36430D3*
D76*
X25850Y29570D3*
D27*
X10910Y28040D3*
X11060Y26550D3*
X25087Y32151D3*
X25399D3*
X25712D3*
X26024D3*
X26337D3*
X25087Y31838D3*
X25399D3*
X25712D3*
X26024D3*
X26337D3*
X25087Y31526D3*
X25399D3*
X25712D3*
X26024D3*
X26337D3*
X25087Y31213D3*
X25399D3*
X25712D3*
X26024D3*
X26337D3*
X25087Y30901D3*
X25399D3*
X25712D3*
X26024D3*
X26337D3*
X24878Y20815D3*
Y21128D3*
X25190Y20815D3*
X25503D3*
X25815D3*
X26128D3*
X21140Y32894D3*
X26440Y20815D3*
X24565D3*
X24253D3*
X23940D3*
X23628D3*
X23315D3*
X24565Y21128D3*
X24253D3*
X23940D3*
X23628D3*
X23315D3*
Y20503D3*
X23628D3*
X23940D3*
X24253D3*
X24565D3*
X24878D3*
X25190D3*
X25503D3*
X25815D3*
X26128D3*
X26440D3*
Y21128D3*
X26128D3*
X25815D3*
X25503D3*
X25200Y21130D3*
X22115Y39063D3*
Y39375D3*
Y39688D3*
X21802Y39375D3*
X21490D3*
X21802Y39063D3*
X21490D3*
X22115Y38750D3*
X21802D3*
X21490D3*
Y38437D3*
X21802D3*
X22115D3*
X21802Y39688D3*
X21490D3*
X22428D3*
Y39375D3*
Y39063D3*
Y38750D3*
Y38437D3*
X22740Y39688D3*
Y39375D3*
Y39063D3*
Y38750D3*
Y38437D3*
X8190Y36440D3*
Y35440D3*
Y34440D3*
Y33440D3*
X7190Y37440D3*
Y36440D3*
X6190Y37440D3*
X5190D3*
X4315D3*
Y36440D3*
Y35440D3*
Y34440D3*
Y33440D3*
X5190D3*
X6190D3*
X7190D3*
X9190D3*
X10190Y34440D3*
X20828Y32894D3*
X20533Y32893D3*
X20221D3*
X20533Y33206D3*
Y32581D3*
X20221Y33206D3*
X11190Y34440D3*
X20221Y32581D3*
X23440Y42440D3*
X11190Y35440D3*
X10190D3*
X26440Y18940D3*
X25440Y17940D3*
X20553Y8155D3*
Y7843D3*
X20554Y7548D3*
Y7236D3*
X20241Y7548D3*
X25440Y12940D3*
X20866Y7548D3*
X20241Y7236D3*
X20866D3*
X20240Y8155D3*
X20865D3*
X20240Y7843D3*
X20865D3*
X20552Y8762D3*
Y8450D3*
X20239Y8762D3*
X20864D3*
X20239Y8450D3*
X20864D3*
X20551Y9057D3*
X20238D3*
X20863D3*
X20560Y6946D3*
Y6633D3*
X20248Y6946D3*
X11253Y36440D3*
Y37440D3*
X20873Y6946D3*
X20248Y6633D3*
X20873D3*
X20565Y6334D3*
Y6022D3*
X20252Y6334D3*
X20877D3*
X20252Y6022D3*
X20877D3*
X20565Y5710D3*
X20253D3*
X20878D3*
X5190Y36440D3*
X6190D3*
X5190Y35440D3*
X6190D3*
X7190D3*
Y34440D3*
X19440Y41440D3*
X20440D3*
X21440D3*
X22440D3*
X23440D3*
X24440D3*
X19440Y42440D3*
X16440Y11940D3*
X15570Y12940D3*
X20440Y42440D3*
X21440D3*
X22440D3*
X8190Y34940D3*
X10191Y40882D3*
Y41194D3*
X10504D3*
Y40882D3*
X9879Y41194D3*
Y40882D3*
Y40569D3*
X10191D3*
X10504D3*
X22440Y40440D3*
X23440Y39440D3*
X24440D3*
X25440D3*
X26440D3*
X27440D3*
X21440Y40440D3*
X20440D3*
X20428Y16110D3*
Y15798D3*
Y15503D3*
X21140Y33207D3*
Y32582D3*
X20828Y33207D3*
Y32582D3*
X21747Y32895D3*
X21435D3*
X21747Y33207D3*
Y32582D3*
X21435Y33207D3*
Y32582D3*
X22042Y32896D3*
Y33208D3*
Y32583D3*
X19931Y32887D3*
X19618D3*
X19931Y33199D3*
Y32574D3*
X19618Y33199D3*
Y32574D3*
X19440Y40440D3*
X27440Y38440D3*
Y37440D3*
Y36440D3*
X19440Y39440D3*
X9190Y34440D3*
X23440Y40440D3*
X24440D3*
X25440D3*
X26440D3*
X27440D3*
X26440Y38440D3*
X25440D3*
X24440D3*
X23440D3*
X19319Y32882D3*
X24440Y37440D3*
Y36440D3*
X19007Y32882D3*
X19319Y33195D3*
Y32570D3*
X19007Y33195D3*
Y32570D3*
X18695Y32882D3*
Y33194D3*
Y32569D3*
X20428Y15191D3*
X20116Y15503D3*
X20741D3*
X20116Y15191D3*
X20741D3*
X20115Y16110D3*
X20740D3*
X20115Y15798D3*
X20740D3*
X20427Y16717D3*
Y16405D3*
X20114Y16717D3*
X20739D3*
X20114Y16405D3*
X20739D3*
X20426Y17012D3*
X20113D3*
X20738D3*
X20435Y14901D3*
Y14588D3*
X20123Y14901D3*
X20748D3*
X20123Y14588D3*
X20748D3*
X20440Y14289D3*
Y13977D3*
X20127Y14289D3*
X20752D3*
X20127Y13977D3*
X20752D3*
X20440Y13665D3*
X20128D3*
X20753D3*
X26440Y37440D3*
Y36440D3*
X25315Y36378D3*
Y37690D3*
X8690Y34940D3*
X9190D3*
X9690D3*
X10190D3*
X9690Y34440D3*
X8690D3*
X9690Y35440D3*
X9190D3*
X8690D3*
X21940Y37440D3*
X20730Y37880D3*
X23440Y36500D3*
X22440D3*
X21440Y36510D3*
X27440Y34690D3*
Y33690D3*
Y32690D3*
Y31690D3*
Y30690D3*
Y29690D3*
Y28815D3*
X24440Y35690D3*
X25440D3*
Y34690D3*
X26440D3*
X24410Y33690D3*
X25440D3*
X26440D3*
X24440Y32690D3*
X25440D3*
X26440D3*
X24440Y30190D3*
X23440Y30440D3*
Y29690D3*
X23627Y28190D3*
X24530D3*
X25590D3*
X26600D3*
X24190Y29190D3*
X25440Y30190D3*
X26440Y30315D3*
X27440Y27940D3*
Y23940D3*
Y21940D3*
Y20940D3*
Y19940D3*
Y18940D3*
Y17940D3*
X26440D3*
X27440Y12940D3*
Y11940D3*
X26440D3*
X22440D3*
X23440D3*
X24440D3*
X25440D3*
X26440Y12940D3*
X24440D3*
X22440Y10940D3*
X23440D3*
X24440D3*
X25440D3*
X27440Y6940D3*
X26440D3*
X24440Y4940D3*
X23440D3*
X21440D3*
X20440D3*
X15440D3*
X16440D3*
X17440D3*
X18440D3*
X19440D3*
X14440D3*
Y5940D3*
Y6940D3*
X12440Y7940D3*
X13440D3*
X14440D3*
X13440Y6940D3*
X12440D3*
X13440Y5890D3*
X12430Y5920D3*
X15440Y5940D3*
X16440D3*
X17440D3*
X18440D3*
X15440Y6940D3*
X16440D3*
X15440Y7940D3*
X17440Y11940D3*
Y10940D3*
Y9940D3*
Y12940D3*
X16440D3*
X15540Y13940D3*
X16440D3*
Y14940D3*
Y15940D3*
X17390D3*
X17440Y14940D3*
Y13940D3*
X18440Y12940D3*
X19440D3*
X20440D3*
X21490Y12890D3*
X18440Y13940D3*
X18390Y14940D3*
X15650Y14930D3*
X21440Y23940D3*
Y24940D3*
X20440D3*
X19440D3*
X18440D3*
X17440D3*
Y23940D3*
X17480Y22940D3*
X17440Y21940D3*
X18440D3*
X19440D3*
X20440D3*
X21440D3*
Y20940D3*
Y19940D3*
X22440D3*
X20440Y20940D3*
X6584Y42883D2*
X11933D1*
X13467D2*
X25296D1*
X27584D2*
X27664D1*
X6756Y42634D2*
X11870D1*
X13526D2*
X14276D1*
X14877D2*
X15925D1*
X16529D2*
X17577D1*
X18178D2*
X19136D1*
X19744D2*
X20136D1*
X20744D2*
X21136D1*
X21744D2*
X22136D1*
X22744D2*
X23136D1*
X23744D2*
X25124D1*
X6861Y42386D2*
X12034D1*
X13463D2*
X13968D1*
X15190D2*
X15616D1*
X16838D2*
X17269D1*
X18486D2*
X19081D1*
X19799D2*
X20081D1*
X20799D2*
X21081D1*
X21799D2*
X22081D1*
X22799D2*
X23081D1*
X23799D2*
X25019D1*
X6916Y42137D2*
X12702D1*
X13197D2*
X13854D1*
X15299D2*
X15507D1*
X16947D2*
X17155D1*
X18600D2*
X19261D1*
X19619D2*
X20261D1*
X20619D2*
X21261D1*
X21619D2*
X22261D1*
X22619D2*
X23261D1*
X23619D2*
X24964D1*
X6928Y41888D2*
X13843D1*
X15311D2*
X15491D1*
X16963D2*
X17144D1*
X18611D2*
X24952D1*
X6901Y41640D2*
X8909D1*
X9565D2*
X10792D1*
X11463D2*
X13921D1*
X15233D2*
X15569D1*
X16885D2*
X17222D1*
X18533D2*
X19140D1*
X19740D2*
X20140D1*
X20740D2*
X21140D1*
X21740D2*
X22140D1*
X22740D2*
X23140D1*
X23740D2*
X24140D1*
X24740D2*
X24979D1*
X6822Y41391D2*
X8515D1*
X11475D2*
X12261D1*
X12881D2*
X14140D1*
X15014D2*
X15792D1*
X16666D2*
X17440D1*
X18315D2*
X19077D1*
X19803D2*
X20077D1*
X20803D2*
X21077D1*
X21803D2*
X22077D1*
X22803D2*
X23077D1*
X23803D2*
X24077D1*
X24803D2*
X25058D1*
X6694Y41142D2*
X8452D1*
X9178D2*
X9519D1*
X10865D2*
X12210D1*
X12928D2*
X19253D1*
X19627D2*
X20253D1*
X20627D2*
X21253D1*
X21627D2*
X22253D1*
X22627D2*
X23253D1*
X23627D2*
X24253D1*
X24627D2*
X25186D1*
X4279Y40893D2*
X4388D1*
X6490D2*
X8624D1*
X9006D2*
X9515D1*
X10869D2*
X12417D1*
X12725D2*
X25390D1*
X27490D2*
X27659D1*
X4279Y40645D2*
X4729D1*
X6151D2*
X9522D1*
X10861D2*
X12354D1*
X12803D2*
X19144D1*
X19736D2*
X20144D1*
X20736D2*
X21144D1*
X21736D2*
X22144D1*
X22736D2*
X23144D1*
X23736D2*
X24144D1*
X24736D2*
X25144D1*
X4279Y40396D2*
X9561D1*
X10822D2*
X12214D1*
X12944D2*
X14136D1*
X15018D2*
X15784D1*
X16670D2*
X17136D1*
X18619D2*
X19077D1*
X19803D2*
X20077D1*
X20803D2*
X21077D1*
X21803D2*
X22077D1*
X22803D2*
X23077D1*
X23803D2*
X24077D1*
X24803D2*
X25077D1*
X25803D2*
X26077D1*
X26803D2*
X27077D1*
X4279Y40147D2*
X9905D1*
X10365D2*
X11058D1*
X11502D2*
X12296D1*
X12861D2*
X13921D1*
X15236D2*
X15569D1*
X16885D2*
X17136D1*
X18619D2*
X19241D1*
X19639D2*
X19905D1*
X20639D2*
X21241D1*
X21639D2*
X22241D1*
X22639D2*
X23241D1*
X23639D2*
X24241D1*
X24639D2*
X25241D1*
X25639D2*
X26241D1*
X26639D2*
X27241D1*
X4279Y39899D2*
X9772D1*
X10498D2*
X10917D1*
X11643D2*
X13843D1*
X15311D2*
X15491D1*
X16963D2*
X17136D1*
X18619D2*
X19733D1*
X20549D2*
X21198D1*
X23029D2*
X27655D1*
X4279Y39650D2*
X9854D1*
X10416D2*
X10995D1*
X11565D2*
X13858D1*
X15299D2*
X15507D1*
X16947D2*
X17136D1*
X18619D2*
X19147D1*
X20518D2*
X21128D1*
X23733D2*
X24147D1*
X24733D2*
X25147D1*
X26033D2*
X26147D1*
X26733D2*
X27147D1*
X4279Y39401D2*
X10019D1*
X10643D2*
X13968D1*
X15186D2*
X15620D1*
X16834D2*
X17136D1*
X18619D2*
X19077D1*
X20549D2*
X21128D1*
X23803D2*
X24077D1*
X24803D2*
X25065D1*
X26803D2*
X27077D1*
X4279Y39153D2*
X9972D1*
X10690D2*
X14284D1*
X14873D2*
X15933D1*
X16522D2*
X17136D1*
X18776D2*
X19233D1*
X19647D2*
X19765D1*
X20518D2*
X21136D1*
X23092D2*
X23233D1*
X23647D2*
X24233D1*
X24647D2*
X24964D1*
X26647D2*
X27233D1*
X4279Y38904D2*
X10003D1*
X10658D2*
X18327D1*
X19033D2*
X19737D1*
X20545D2*
X21163D1*
X23069D2*
X24960D1*
X26420D2*
X27655D1*
X4279Y38655D2*
X9979D1*
X10682D2*
X11651D1*
X12229D2*
X18358D1*
X19002D2*
X19757D1*
X20526D2*
X21140D1*
X23729D2*
X24151D1*
X24729D2*
X25046D1*
X26729D2*
X27151D1*
X4279Y38407D2*
X11577D1*
X12303D2*
X21128D1*
X23803D2*
X24077D1*
X24803D2*
X25077D1*
X26803D2*
X27077D1*
X13190Y38158D2*
X13925D1*
X14580D2*
X20511D1*
X20951D2*
X21272D1*
X22959D2*
X23226D1*
X23654D2*
X24226D1*
X24654D2*
X25226D1*
X25654D2*
X26226D1*
X26654D2*
X27226D1*
X13326Y37909D2*
X13901D1*
X14604D2*
X20366D1*
X21092D2*
X25030D1*
X25600D2*
X27651D1*
X13463Y37660D2*
X20444D1*
X21014D2*
X21655D1*
X22225D2*
X24155D1*
X24725D2*
X24952D1*
X26069D2*
X26159D1*
X26725D2*
X27155D1*
X14252Y37412D2*
X14757D1*
X15424D2*
X18108D1*
X18690D2*
X21577D1*
X22303D2*
X24077D1*
X24803D2*
X25054D1*
X26803D2*
X27077D1*
X14268Y37163D2*
X14741D1*
X15436D2*
X18038D1*
X18764D2*
X21718D1*
X22162D2*
X24218D1*
X24662D2*
X24960D1*
X26662D2*
X27218D1*
X13877Y36914D2*
X18190D1*
X18608D2*
X24960D1*
X26420D2*
X27647D1*
X14190Y36666D2*
X14843D1*
X15338D2*
X21112D1*
X21768D2*
X22120D1*
X22760D2*
X23120D1*
X23760D2*
X24159D1*
X24721D2*
X25058D1*
X26721D2*
X27159D1*
X14295Y36417D2*
X14726D1*
X15455D2*
X19921D1*
X20440D2*
X21089D1*
X21791D2*
X22085D1*
X22795D2*
X23085D1*
X23795D2*
X24077D1*
X24803D2*
X24953D1*
X26803D2*
X27077D1*
X15354Y36168D2*
X19815D1*
X20545D2*
X22339D1*
X22541D2*
X23339D1*
X23541D2*
X24210D1*
X24670D2*
X25022D1*
X25608D2*
X26210D1*
X26670D2*
X27210D1*
X14885Y35920D2*
X19925D1*
X20436D2*
X23249D1*
X23928D2*
X24163D1*
X24717D2*
X25163D1*
X25717D2*
X26249D1*
X26635D2*
X27433D1*
X14639Y35671D2*
X23245D1*
X23932D2*
X24078D1*
X24803D2*
X25077D1*
X25803D2*
X26081D1*
X26803D2*
X27265D1*
X14709Y35422D2*
X21878D1*
X22142D2*
X24206D1*
X24674D2*
X25206D1*
X25674D2*
X26144D1*
X26740D2*
X27327D1*
X14846Y35174D2*
X21651D1*
X22365D2*
X26077D1*
X26807D2*
X27265D1*
X14983Y34925D2*
X21694D1*
X22326D2*
X22882D1*
X23494D2*
X25171D1*
X25709D2*
X26171D1*
X26709D2*
X27171D1*
X15123Y34676D2*
X22827D1*
X23549D2*
X25077D1*
X25803D2*
X26077D1*
X26803D2*
X27077D1*
X15260Y34428D2*
X23015D1*
X23361D2*
X24190D1*
X24791D2*
X25198D1*
X25682D2*
X26198D1*
X26682D2*
X27198D1*
X15401Y34179D2*
X24128D1*
X24850D2*
X27640D1*
X15537Y33930D2*
X24144D1*
X24674D2*
X25175D1*
X25705D2*
X26175D1*
X26705D2*
X27175D1*
X15674Y33681D2*
X24046D1*
X24776D2*
X25077D1*
X25803D2*
X26077D1*
X26803D2*
X27077D1*
X15830Y33433D2*
X18429D1*
X22322D2*
X24163D1*
X24658D2*
X25194D1*
X25686D2*
X26194D1*
X26686D2*
X27194D1*
X15951Y33184D2*
X18331D1*
X22861D2*
X27636D1*
X16088Y32935D2*
X18335D1*
X22861D2*
X24179D1*
X24701D2*
X25179D1*
X25701D2*
X26179D1*
X26701D2*
X27179D1*
X16229Y32687D2*
X18351D1*
X22389D2*
X24073D1*
X24807D2*
X25073D1*
X25807D2*
X26073D1*
X26807D2*
X27073D1*
X16365Y32438D2*
X18358D1*
X22373D2*
X23421D1*
X24694D2*
X24878D1*
X26694D2*
X27186D1*
X16502Y32189D2*
X23370D1*
X24194D2*
X24726D1*
X26701D2*
X27632D1*
X16643Y31941D2*
X23429D1*
X24135D2*
X24737D1*
X26686D2*
X27186D1*
X16897Y31692D2*
X23366D1*
X24194D2*
X24757D1*
X26670D2*
X27073D1*
X16920Y31443D2*
X23421D1*
X24139D2*
X24733D1*
X26690D2*
X27183D1*
X17057Y31195D2*
X23366D1*
X24194D2*
X24722D1*
X26701D2*
X27628D1*
X17194Y30946D2*
X23499D1*
X24061D2*
X24726D1*
X26697D2*
X27190D1*
X17334Y30697D2*
X21554D1*
X21846D2*
X23194D1*
X23686D2*
X24788D1*
X26635D2*
X27077D1*
X17471Y30449D2*
X17549D1*
X18252D2*
X21343D1*
X22057D2*
X23077D1*
X23803D2*
X24194D1*
X24686D2*
X25194D1*
X25686D2*
X26101D1*
X26779D2*
X27175D1*
X18229Y30200D2*
X21386D1*
X22014D2*
X23175D1*
X23705D2*
X24077D1*
X24803D2*
X25077D1*
X25803D2*
X26097D1*
X26783D2*
X27624D1*
X18240Y29951D2*
X21366D1*
X22033D2*
X23198D1*
X23682D2*
X24175D1*
X24705D2*
X25175D1*
X25705D2*
X27198D1*
X18244Y29702D2*
X21354D1*
X22049D2*
X23077D1*
X23803D2*
X27077D1*
X18026Y29454D2*
X23171D1*
X23709D2*
X23952D1*
X24428D2*
X27171D1*
X18162Y29205D2*
X23827D1*
X24553D2*
X27620D1*
X18494Y28956D2*
X19085D1*
X19768D2*
X21183D1*
X22518D2*
X23917D1*
X24463D2*
X27104D1*
X18498Y28708D2*
X19085D1*
X19768D2*
X21183D1*
X22518D2*
X27093D1*
X18576Y28459D2*
X23394D1*
X23861D2*
X24296D1*
X24764D2*
X25358D1*
X25822D2*
X26366D1*
X26834D2*
X27620D1*
X18713Y28210D2*
X23265D1*
X23990D2*
X24167D1*
X24893D2*
X25226D1*
X25955D2*
X26237D1*
X26963D2*
X27210D1*
X18776Y27962D2*
X23351D1*
X23904D2*
X24253D1*
X24807D2*
X25311D1*
X25865D2*
X26323D1*
X26877D2*
X27077D1*
X19572Y27713D2*
X19686D1*
X20572D2*
X20686D1*
X21572D2*
X21686D1*
X22572D2*
X22686D1*
X23572D2*
X23686D1*
X24572D2*
X24686D1*
X25572D2*
X25686D1*
X26572D2*
X27163D1*
X26662Y27464D2*
X27616D1*
X26623Y27216D2*
X27280D1*
X19389Y26967D2*
X19870D1*
X20389D2*
X20870D1*
X21389D2*
X21870D1*
X22389D2*
X22870D1*
X23389D2*
X23870D1*
X24389D2*
X24870D1*
X25389D2*
X25870D1*
X26389D2*
X27147D1*
X19569Y26718D2*
X19692D1*
X20569D2*
X20692D1*
X21569D2*
X21692D1*
X22569D2*
X22692D1*
X23569D2*
X23692D1*
X24569D2*
X24692D1*
X25569D2*
X25692D1*
X26569D2*
X27202D1*
X26662Y26470D2*
X27612D1*
X26623Y26221D2*
X27612D1*
X18776Y25972D2*
X18862D1*
X19401D2*
X19862D1*
X20401D2*
X20862D1*
X21401D2*
X21862D1*
X22401D2*
X22862D1*
X23401D2*
X23862D1*
X24401D2*
X24862D1*
X25401D2*
X25862D1*
X26401D2*
X27612D1*
X18776Y25723D2*
X27608D1*
X18776Y25475D2*
X23487D1*
X23791D2*
X24847D1*
X25096D2*
X26894D1*
X27143D2*
X27608D1*
X18776Y25226D2*
X19233D1*
X19647D2*
X20233D1*
X20647D2*
X21233D1*
X21647D2*
X21999D1*
X22701D2*
X23280D1*
X23998D2*
X24612D1*
X25326D2*
X26663D1*
X27377D2*
X27608D1*
X18889Y24977D2*
X19077D1*
X19803D2*
X20077D1*
X20803D2*
X21077D1*
X21803D2*
X22022D1*
X22678D2*
X23327D1*
X23951D2*
X24651D1*
X25287D2*
X26702D1*
X27338D2*
X27608D1*
X19733Y24729D2*
X20147D1*
X20733D2*
X21147D1*
X21733D2*
X27608D1*
X19307Y24480D2*
X26394D1*
X27006D2*
X27604D1*
X19518Y24231D2*
X21241D1*
X21639D2*
X22253D1*
X22850D2*
X26339D1*
X27061D2*
X27241D1*
X19729Y23983D2*
X21077D1*
X21803D2*
X22190D1*
X22912D2*
X26530D1*
X26869D2*
X27077D1*
X19776Y23734D2*
X21144D1*
X21736D2*
X22358D1*
X22740D2*
X27144D1*
X19776Y23485D2*
X22331D1*
X22830D2*
X27604D1*
X19776Y23237D2*
X22214D1*
X22944D2*
X26253D1*
X26768D2*
X27601D1*
X19776Y22988D2*
X22315D1*
X22842D2*
X26144D1*
X26873D2*
X27601D1*
X19776Y22739D2*
X26257D1*
X26764D2*
X27601D1*
X19776Y22491D2*
X27601D1*
X19776Y22242D2*
X20261D1*
X20619D2*
X21261D1*
X21619D2*
X27261D1*
X19799Y21993D2*
X20081D1*
X20799D2*
X21081D1*
X21799D2*
X27081D1*
X19776Y21744D2*
X20136D1*
X20744D2*
X21136D1*
X21744D2*
X27136D1*
X19776Y21496D2*
X27597D1*
X19776Y21247D2*
X20269D1*
X20611D2*
X21269D1*
X21611D2*
X22296D1*
X26783D2*
X27269D1*
X19776Y20998D2*
X20081D1*
X20799D2*
X21081D1*
X21799D2*
X22253D1*
X26779D2*
X27081D1*
X19776Y20750D2*
X20132D1*
X20748D2*
X21132D1*
X21748D2*
X22472D1*
X22748D2*
X22956D1*
X26799D2*
X27132D1*
X19776Y20501D2*
X22948D1*
X26807D2*
X27593D1*
X19776Y20252D2*
X21280D1*
X21600D2*
X22280D1*
X22600D2*
X23061D1*
X26694D2*
X27280D1*
X19776Y20004D2*
X21081D1*
X21799D2*
X22081D1*
X22799D2*
X27081D1*
X19776Y19755D2*
X21132D1*
X21924D2*
X22132D1*
X22748D2*
X27132D1*
X19776Y19506D2*
X21261D1*
X21979D2*
X27589D1*
X19776Y19258D2*
X21440D1*
X21799D2*
X26296D1*
X26584D2*
X27296D1*
X19776Y19009D2*
X26081D1*
X26799D2*
X27081D1*
X19776Y18760D2*
X26128D1*
X26752D2*
X27128D1*
X19776Y18512D2*
X27585D1*
X19776Y18263D2*
X25308D1*
X25572D2*
X26308D1*
X26572D2*
X27308D1*
X19776Y18014D2*
X22186D1*
X22694D2*
X22804D1*
X23057D2*
X23534D1*
X23846D2*
X24749D1*
X25002D2*
X25081D1*
X25795D2*
X26085D1*
X26795D2*
X27085D1*
X19776Y17765D2*
X20101D1*
X20752D2*
X22073D1*
X24049D2*
X24522D1*
X25756D2*
X26124D1*
X26756D2*
X27124D1*
X19776Y17517D2*
X20073D1*
X20779D2*
X22179D1*
X23248D2*
X23378D1*
X24002D2*
X24561D1*
X25194D2*
X27585D1*
X19776Y17268D2*
X19866D1*
X20986D2*
X26128D1*
X26717D2*
X27581D1*
X21104Y17019D2*
X25897D1*
X26947D2*
X27581D1*
X21100Y16771D2*
X25847D1*
X26994D2*
X27581D1*
X21084Y16522D2*
X24624D1*
X25131D2*
X25917D1*
X26928D2*
X27581D1*
X21076Y16273D2*
X24515D1*
X25244D2*
X26136D1*
X26709D2*
X27581D1*
X21096Y16025D2*
X24616D1*
X25139D2*
X25901D1*
X26944D2*
X27577D1*
X21104Y15776D2*
X25847D1*
X26994D2*
X27577D1*
X21104Y15527D2*
X25913D1*
X26928D2*
X27577D1*
X21096Y15279D2*
X26147D1*
X26697D2*
X27577D1*
X21088Y15030D2*
X25901D1*
X26940D2*
X27577D1*
X21092Y14781D2*
X25847D1*
X26994D2*
X27573D1*
X21108Y14533D2*
X24542D1*
X25213D2*
X25909D1*
X26932D2*
X27573D1*
X21115Y14284D2*
X24530D1*
X25225D2*
X25847D1*
X26994D2*
X27573D1*
X21111Y14035D2*
X25847D1*
X26994D2*
X27573D1*
X21096Y13786D2*
X25847D1*
X26994D2*
X27573D1*
X21092Y13538D2*
X25847D1*
X26994D2*
X27569D1*
X19776Y13289D2*
X22811D1*
X23029D2*
X24612D1*
X25143D2*
X25847D1*
X26994D2*
X27569D1*
X19791Y13040D2*
X20089D1*
X20791D2*
X21159D1*
X21819D2*
X22565D1*
X25791D2*
X26089D1*
X26791D2*
X27089D1*
X19776Y12792D2*
X20108D1*
X20772D2*
X21140D1*
X21842D2*
X22601D1*
X23240D2*
X23335D1*
X24006D2*
X24108D1*
X25772D2*
X26108D1*
X26772D2*
X27108D1*
X19776Y12543D2*
X27565D1*
X19776Y12294D2*
X27565D1*
X19776Y12046D2*
X22093D1*
X22787D2*
X23093D1*
X23787D2*
X24093D1*
X24787D2*
X25093D1*
X25787D2*
X26093D1*
X26787D2*
X27093D1*
X19776Y11797D2*
X22108D1*
X22772D2*
X23108D1*
X23772D2*
X24108D1*
X24772D2*
X25108D1*
X25772D2*
X26108D1*
X26772D2*
X27108D1*
X19776Y11548D2*
X26038D1*
X26885D2*
X27565D1*
X19776Y11300D2*
X25901D1*
X27022D2*
X27561D1*
X19776Y11051D2*
X22093D1*
X22787D2*
X23093D1*
X23787D2*
X24093D1*
X24787D2*
X25093D1*
X25787D2*
X25899D1*
X27022D2*
X27561D1*
X19776Y10802D2*
X22104D1*
X22776D2*
X23104D1*
X23776D2*
X24104D1*
X24776D2*
X25104D1*
X25776D2*
X26030D1*
X26897D2*
X27561D1*
X19776Y10554D2*
X24624D1*
X25279D2*
X26042D1*
X26881D2*
X27561D1*
X19776Y10305D2*
X24597D1*
X25303D2*
X25905D1*
X27018D2*
X27561D1*
X19776Y10056D2*
X22226D1*
X23272D2*
X23573D1*
X24069D2*
X25897D1*
X27026D2*
X27558D1*
X19776Y9807D2*
X22222D1*
X24186D2*
X26022D1*
X26901D2*
X27558D1*
X19776Y9559D2*
X22769D1*
X23334D2*
X23554D1*
X24084D2*
X26050D1*
X26873D2*
X27558D1*
X19776Y9310D2*
X19987D1*
X21115D2*
X24823D1*
X25256D2*
X25905D1*
X27018D2*
X27558D1*
X19776Y9061D2*
X19874D1*
X21229D2*
X24675D1*
X25404D2*
X25897D1*
X27026D2*
X27558D1*
X19776Y8813D2*
X19878D1*
X21225D2*
X24753D1*
X25326D2*
X26019D1*
X26904D2*
X27554D1*
X19776Y8564D2*
X19894D1*
X21209D2*
X25886D1*
X27037D2*
X27554D1*
X19776Y8315D2*
X19901D1*
X21201D2*
X25886D1*
X27037D2*
X27554D1*
X19776Y8067D2*
X19886D1*
X21217D2*
X25886D1*
X27037D2*
X27554D1*
X19776Y7818D2*
X19878D1*
X21229D2*
X25886D1*
X27037D2*
X27554D1*
X19776Y7569D2*
X19878D1*
X21229D2*
X27550D1*
X19776Y7321D2*
X19886D1*
X21221D2*
X27550D1*
X19776Y7072D2*
X19905D1*
X21213D2*
X24601D1*
X25299D2*
X26101D1*
X26779D2*
X27101D1*
X19776Y6823D2*
X19905D1*
X21213D2*
X24620D1*
X25283D2*
X25933D1*
X26947D2*
X27093D1*
X19776Y6575D2*
X19890D1*
X21233D2*
X25487D1*
X27393D2*
X27546D1*
X19776Y6326D2*
X19886D1*
X21240D2*
X25249D1*
X19776Y6077D2*
X19894D1*
X21236D2*
X25097D1*
X19776Y5828D2*
X19909D1*
X21221D2*
X24042D1*
X24537D2*
X25003D1*
X19776Y5580D2*
X19913D1*
X21217D2*
X23882D1*
X24697D2*
X24956D1*
X19776Y5331D2*
X23917D1*
X24662D2*
X24956D1*
X19776Y5082D2*
X20108D1*
X20776D2*
X21108D1*
X21776D2*
X23108D1*
X23776D2*
X24108D1*
X24776D2*
X24995D1*
X19787Y4834D2*
X20093D1*
X20787D2*
X21093D1*
X21787D2*
X23093D1*
X23787D2*
X24093D1*
X24787D2*
X25081D1*
X19776Y4585D2*
X25226D1*
X19776Y4336D2*
X25452D1*
X17187Y40530D2*
X18592D1*
Y39148D1*
X18703Y39159D1*
X18823Y39128D1*
X18924Y39056D1*
X18993Y38953D1*
X19020Y38820D1*
X18997Y38698D1*
X18932Y38592D1*
X18833Y38517D1*
X18714Y38482D1*
X18590Y38492D1*
X18478Y38546D1*
X18393Y38637D1*
X18347Y38752D1*
X18345Y38877D1*
X18387Y38993D1*
X18469Y39087D1*
X18493Y39100D1*
X17162D1*
Y40530D1*
X17187D1*
X16942Y39790D2*
X16927Y39666D1*
X16890Y39547D1*
X16833Y39436D1*
X16758Y39336D1*
X16667Y39251D1*
X16562Y39183D1*
X16447Y39135D1*
X16325Y39107D1*
X16201Y39100D1*
X16077Y39116D1*
X15957Y39153D1*
X15846Y39210D1*
X15747Y39285D1*
X15662Y39377D1*
X15595Y39482D1*
X15546Y39597D1*
X15519Y39719D1*
X15513Y39844D1*
X15529Y39968D1*
X15566Y40087D1*
X15624Y40198D1*
X15699Y40297D1*
X15791Y40381D1*
X15896Y40449D1*
X16012Y40497D1*
X16133Y40524D1*
X16258Y40529D1*
X16382Y40513D1*
X16501Y40476D1*
X16612Y40418D1*
X16711Y40342D1*
X16795Y40250D1*
X16862Y40145D1*
X16910Y40029D1*
X16937Y39907D1*
X16942Y39790D1*
X15292D2*
X15277Y39666D1*
X15240Y39547D1*
X15183Y39436D1*
X15108Y39336D1*
X15017Y39251D1*
X14912Y39183D1*
X14797Y39135D1*
X14675Y39107D1*
X14551Y39100D1*
X14427Y39116D1*
X14307Y39153D1*
X14196Y39210D1*
X14097Y39285D1*
X14012Y39377D1*
X13945Y39482D1*
X13896Y39597D1*
X13869Y39719D1*
X13863Y39844D1*
X13879Y39968D1*
X13916Y40087D1*
X13974Y40198D1*
X14049Y40297D1*
X14141Y40381D1*
X14246Y40449D1*
X14362Y40497D1*
X14483Y40524D1*
X14608Y40529D1*
X14732Y40513D1*
X14851Y40476D1*
X14962Y40418D1*
X15061Y40342D1*
X15145Y40250D1*
X15212Y40145D1*
X15260Y40029D1*
X15287Y39907D1*
X15292Y39790D1*
X18582Y41851D2*
X18549Y41730D1*
X18496Y41617D1*
X18425Y41515D1*
X18336Y41427D1*
X18234Y41355D1*
X18121Y41303D1*
X18000Y41271D1*
X17876Y41260D1*
X17751Y41271D1*
X17631Y41304D1*
X17518Y41357D1*
X17416Y41429D1*
X17328Y41518D1*
X17257Y41620D1*
X17204Y41734D1*
X17173Y41854D1*
X17163Y41979D1*
X17174Y42103D1*
X17207Y42223D1*
X17260Y42336D1*
X17333Y42438D1*
X17422Y42526D1*
X17524Y42597D1*
X17638Y42649D1*
X17759Y42680D1*
X17883Y42690D1*
X18007Y42678D1*
X18128Y42645D1*
X18240Y42591D1*
X18342Y42519D1*
X18429Y42429D1*
X18500Y42327D1*
X18552Y42213D1*
X18583Y42092D1*
X18592Y41975D1*
X18582Y41851D1*
X16932D2*
X16899Y41730D1*
X16846Y41617D1*
X16775Y41515D1*
X16686Y41427D1*
X16584Y41355D1*
X16471Y41303D1*
X16350Y41271D1*
X16226Y41260D1*
X16101Y41271D1*
X15981Y41304D1*
X15868Y41357D1*
X15766Y41429D1*
X15678Y41518D1*
X15607Y41620D1*
X15554Y41734D1*
X15523Y41854D1*
X15513Y41979D1*
X15524Y42103D1*
X15557Y42223D1*
X15610Y42336D1*
X15683Y42438D1*
X15772Y42526D1*
X15874Y42597D1*
X15988Y42649D1*
X16109Y42680D1*
X16233Y42690D1*
X16357Y42678D1*
X16478Y42645D1*
X16590Y42591D1*
X16692Y42519D1*
X16779Y42429D1*
X16850Y42327D1*
X16902Y42213D1*
X16933Y42092D1*
X16942Y41975D1*
X16932Y41851D1*
X15282D2*
X15249Y41730D1*
X15196Y41617D1*
X15125Y41515D1*
X15036Y41427D1*
X14934Y41355D1*
X14821Y41303D1*
X14700Y41271D1*
X14576Y41260D1*
X14451Y41271D1*
X14331Y41304D1*
X14218Y41357D1*
X14116Y41429D1*
X14028Y41518D1*
X13957Y41620D1*
X13904Y41734D1*
X13873Y41854D1*
X13863Y41979D1*
X13874Y42103D1*
X13907Y42223D1*
X13960Y42336D1*
X14033Y42438D1*
X14122Y42526D1*
X14224Y42597D1*
X14338Y42649D1*
X14459Y42680D1*
X14583Y42690D1*
X14707Y42678D1*
X14828Y42645D1*
X14940Y42591D1*
X15042Y42519D1*
X15129Y42429D1*
X15200Y42327D1*
X15252Y42213D1*
X15283Y42092D1*
X15292Y41975D1*
X15282Y41851D1*
X26405Y37015D2*
X26389Y36891D1*
X26351Y36768D1*
X26463Y36779D1*
X26583Y36748D1*
X26684Y36676D1*
X26753Y36573D1*
X26780Y36440D1*
X26757Y36318D1*
X26692Y36212D1*
X26593Y36137D1*
X26474Y36102D1*
X26350Y36112D1*
X26238Y36166D1*
X26153Y36257D1*
X26107Y36372D1*
X26105Y36462D1*
X26025Y36408D1*
X25910Y36360D1*
X25788Y36332D1*
X25651Y36326D1*
X25632Y36255D1*
X25567Y36149D1*
X25468Y36074D1*
X25349Y36039D1*
X25225Y36050D1*
X25113Y36104D1*
X25028Y36195D1*
X24982Y36310D1*
X24980Y36434D1*
X25022Y36551D1*
X25096Y36643D1*
X25035Y36752D1*
X24995Y36870D1*
X24976Y36994D1*
X24979Y37119D1*
X25004Y37241D1*
X25049Y37357D1*
X25092Y37432D1*
X25028Y37507D1*
X24982Y37622D1*
X24980Y37747D1*
X25022Y37863D1*
X25104Y37957D1*
X25214Y38015D1*
X25338Y38029D1*
X25458Y37998D1*
X25559Y37926D1*
X25628Y37823D1*
X25644Y37751D1*
X25746Y37753D1*
X25869Y37732D1*
X25986Y37691D1*
X26095Y37629D1*
X26138Y37597D1*
X26229Y37707D1*
X26339Y37765D1*
X26463Y37779D1*
X26583Y37748D1*
X26684Y37676D1*
X26753Y37573D1*
X26780Y37440D1*
X26757Y37318D1*
X26692Y37212D1*
X26593Y37137D1*
X26474Y37102D1*
X26400Y37108D1*
X26405Y37015D1*
X26394Y38886D2*
X26363Y38769D1*
X26463Y38779D1*
X26583Y38748D1*
X26684Y38676D1*
X26753Y38573D1*
X26780Y38440D1*
X26757Y38318D1*
X26692Y38212D1*
X26593Y38137D1*
X26474Y38102D1*
X26350Y38112D1*
X26238Y38166D1*
X26153Y38257D1*
X26107Y38372D1*
X26106Y38431D1*
X26046Y38390D1*
X25933Y38338D1*
X25813Y38306D1*
X25746Y38300D1*
X25692Y38212D1*
X25593Y38137D1*
X25474Y38102D1*
X25350Y38112D1*
X25238Y38166D1*
X25153Y38257D1*
X25107Y38372D1*
X25105Y38497D1*
X25130Y38566D1*
X25069Y38655D1*
X25017Y38769D1*
X24985Y38889D1*
X24975Y39014D1*
X24987Y39138D1*
X25020Y39258D1*
X25073Y39371D1*
X25102Y39413D1*
X25105Y39497D1*
X25147Y39613D1*
X25229Y39707D1*
X25339Y39765D1*
X25463Y39779D1*
X25583Y39748D1*
X25618Y39724D1*
X25820Y39713D1*
X25940Y39680D1*
X26053Y39626D1*
X26126Y39574D1*
X26147Y39613D1*
X26229Y39707D1*
X26339Y39765D1*
X26463Y39779D1*
X26583Y39748D1*
X26684Y39676D1*
X26753Y39573D1*
X26780Y39440D1*
X26757Y39318D1*
X26692Y39212D1*
X26593Y39137D1*
X26474Y39102D1*
X26400Y39108D1*
X26405Y39010D1*
X26394Y38886D1*
X19628Y26323D2*
X19580Y26180D1*
X19509Y26078D1*
X19414Y25996D1*
X19303Y25940D1*
X19181Y25912D1*
X19057Y25915D1*
X18937Y25948D1*
X18828Y26009D1*
X18751Y26081D1*
X18752Y25108D1*
X19724Y23954D1*
X19752Y23877D1*
X19753Y22073D1*
X19780Y21940D1*
X19751Y21808D1*
X19753Y13073D1*
X19780Y12940D1*
X19751Y12808D1*
X19753Y5073D1*
X19780Y4940D1*
X19751Y4808D1*
X19752Y4315D1*
X25499D1*
X25371Y4439D1*
X25216Y4635D1*
X25097Y4854D1*
X25017Y5091D1*
X24979Y5338D1*
X24982Y5587D1*
X25029Y5833D1*
X25116Y6067D1*
X25241Y6282D1*
X25402Y6474D1*
X25593Y6635D1*
X25808Y6762D1*
X26041Y6850D1*
X26106Y6865D1*
X26105Y6997D1*
X26147Y7113D1*
X26229Y7207D1*
X26339Y7265D1*
X26463Y7279D1*
X26583Y7248D1*
X26684Y7176D1*
X26753Y7073D1*
X26780Y6940D1*
X26767Y6867D1*
X26903Y6830D1*
X27133Y6731D1*
X27230Y6673D1*
X27153Y6757D1*
X27107Y6872D1*
X27105Y6997D1*
X27147Y7113D1*
X27229Y7207D1*
X27339Y7265D1*
X27463Y7279D1*
X27572Y7251D1*
X27578Y8065D1*
X27589Y11632D1*
X27474Y11602D1*
X27350Y11612D1*
X27238Y11666D1*
X27153Y11757D1*
X27107Y11872D1*
X27105Y11997D1*
X27147Y12113D1*
X27229Y12207D1*
X27339Y12265D1*
X27463Y12279D1*
X27593Y12242D1*
Y12640D1*
X27474Y12602D1*
X27350Y12612D1*
X27238Y12666D1*
X27153Y12757D1*
X27107Y12872D1*
X27105Y12997D1*
X27147Y13113D1*
X27229Y13207D1*
X27339Y13265D1*
X27463Y13279D1*
X27593Y13242D1*
X27607Y17065D1*
X27609Y17647D1*
X27474Y17602D1*
X27350Y17612D1*
X27238Y17666D1*
X27153Y17757D1*
X27107Y17872D1*
X27105Y17997D1*
X27147Y18113D1*
X27229Y18207D1*
X27339Y18265D1*
X27463Y18279D1*
X27583Y18248D1*
X27612Y18228D1*
Y18647D1*
X27474Y18602D1*
X27350Y18612D1*
X27238Y18666D1*
X27153Y18757D1*
X27107Y18872D1*
X27105Y18997D1*
X27147Y19113D1*
X27229Y19207D1*
X27339Y19265D1*
X27463Y19279D1*
X27583Y19248D1*
X27612Y19228D1*
X27615Y19647D1*
X27474Y19602D1*
X27350Y19612D1*
X27238Y19666D1*
X27153Y19757D1*
X27107Y19872D1*
X27105Y19997D1*
X27147Y20113D1*
X27229Y20207D1*
X27339Y20265D1*
X27463Y20279D1*
X27583Y20248D1*
X27618Y20224D1*
X27619Y20647D1*
X27474Y20602D1*
X27350Y20612D1*
X27238Y20666D1*
X27153Y20757D1*
X27107Y20872D1*
X27105Y20997D1*
X27147Y21113D1*
X27229Y21207D1*
X27339Y21265D1*
X27463Y21279D1*
X27583Y21248D1*
X27618Y21224D1*
X27622Y21655D1*
X27593Y21637D1*
X27474Y21602D1*
X27350Y21612D1*
X27238Y21666D1*
X27153Y21757D1*
X27107Y21872D1*
X27105Y21997D1*
X27147Y22113D1*
X27229Y22207D1*
X27339Y22265D1*
X27463Y22279D1*
X27583Y22248D1*
X27624Y22219D1*
X27629Y23655D1*
X27474Y23602D1*
X27350Y23612D1*
X27238Y23666D1*
X27153Y23757D1*
X27107Y23872D1*
X27105Y23997D1*
X27147Y24113D1*
X27229Y24207D1*
X27339Y24265D1*
X27463Y24279D1*
X27583Y24248D1*
X27631Y24215D1*
X27638Y26538D1*
X27548Y26530D1*
X27425Y26554D1*
X27317Y26615D1*
X27233Y26707D1*
X27183Y26821D1*
X27171Y26945D1*
X27198Y27066D1*
X27263Y27173D1*
X27358Y27253D1*
X27473Y27300D1*
X27597Y27308D1*
X27639Y27297D1*
X27642Y27663D1*
X27593Y27637D1*
X27474Y27602D1*
X27350Y27612D1*
X27238Y27666D1*
X27153Y27757D1*
X27107Y27872D1*
X27105Y27997D1*
X27147Y28113D1*
X27229Y28207D1*
X27339Y28265D1*
X27463Y28279D1*
X27583Y28248D1*
X27643Y28206D1*
X27644Y28546D1*
X27593Y28512D1*
X27474Y28477D1*
X27350Y28487D1*
X27238Y28541D1*
X27153Y28632D1*
X27107Y28747D1*
X27105Y28872D1*
X27147Y28988D1*
X27229Y29082D1*
X27339Y29140D1*
X27463Y29154D1*
X27583Y29123D1*
X27643Y29081D1*
X27647Y29421D1*
X27593Y29387D1*
X27474Y29352D1*
X27350Y29362D1*
X27238Y29416D1*
X27153Y29507D1*
X27107Y29622D1*
X27105Y29747D1*
X27147Y29863D1*
X27229Y29957D1*
X27339Y30015D1*
X27463Y30029D1*
X27583Y29998D1*
X27650Y29951D1*
X27651Y30421D1*
X27593Y30387D1*
X27474Y30352D1*
X27350Y30362D1*
X27238Y30416D1*
X27153Y30507D1*
X27107Y30622D1*
X27105Y30747D1*
X27147Y30863D1*
X27229Y30957D1*
X27339Y31015D1*
X27463Y31029D1*
X27583Y30998D1*
X27650Y30951D1*
X27654Y31429D1*
X27593Y31387D1*
X27474Y31352D1*
X27350Y31362D1*
X27238Y31416D1*
X27153Y31507D1*
X27107Y31622D1*
X27105Y31747D1*
X27147Y31863D1*
X27229Y31957D1*
X27339Y32015D1*
X27463Y32029D1*
X27583Y31998D1*
X27656Y31947D1*
X27657Y32429D1*
X27593Y32387D1*
X27474Y32352D1*
X27350Y32362D1*
X27238Y32416D1*
X27153Y32507D1*
X27107Y32622D1*
X27105Y32747D1*
X27147Y32863D1*
X27229Y32957D1*
X27339Y33015D1*
X27463Y33029D1*
X27583Y32998D1*
X27656Y32947D1*
X27660Y33429D1*
X27593Y33387D1*
X27474Y33352D1*
X27350Y33362D1*
X27238Y33416D1*
X27153Y33507D1*
X27107Y33622D1*
X27105Y33747D1*
X27147Y33863D1*
X27229Y33957D1*
X27339Y34015D1*
X27463Y34029D1*
X27583Y33998D1*
X27662Y33942D1*
X27664Y34436D1*
X27593Y34387D1*
X27474Y34352D1*
X27350Y34362D1*
X27238Y34416D1*
X27153Y34507D1*
X27107Y34622D1*
X27105Y34747D1*
X27147Y34863D1*
X27229Y34957D1*
X27336Y35013D1*
X27294Y35122D1*
X27292Y35247D1*
X27335Y35363D1*
X27368Y35401D1*
X27338Y35442D1*
X27292Y35557D1*
X27290Y35682D1*
X27332Y35798D1*
X27414Y35892D1*
X27524Y35950D1*
X27667Y35959D1*
X27669Y36186D1*
X27593Y36137D1*
X27474Y36102D1*
X27350Y36112D1*
X27238Y36166D1*
X27153Y36257D1*
X27107Y36372D1*
X27105Y36497D1*
X27147Y36613D1*
X27229Y36707D1*
X27339Y36765D1*
X27463Y36779D1*
X27583Y36748D1*
X27671Y36690D1*
X27673Y37194D1*
X27593Y37137D1*
X27474Y37102D1*
X27350Y37112D1*
X27238Y37166D1*
X27153Y37257D1*
X27107Y37372D1*
X27105Y37497D1*
X27147Y37613D1*
X27229Y37707D1*
X27339Y37765D1*
X27463Y37779D1*
X27583Y37748D1*
X27674Y37690D1*
X27676Y38194D1*
X27593Y38137D1*
X27474Y38102D1*
X27350Y38112D1*
X27238Y38166D1*
X27153Y38257D1*
X27107Y38372D1*
X27105Y38497D1*
X27147Y38613D1*
X27229Y38707D1*
X27339Y38765D1*
X27463Y38779D1*
X27583Y38748D1*
X27675Y38683D1*
X27679Y39202D1*
X27593Y39137D1*
X27474Y39102D1*
X27350Y39112D1*
X27238Y39166D1*
X27153Y39257D1*
X27107Y39372D1*
X27105Y39497D1*
X27147Y39613D1*
X27229Y39707D1*
X27339Y39765D1*
X27463Y39779D1*
X27583Y39748D1*
X27681Y39679D1*
X27683Y40202D1*
X27593Y40137D1*
X27474Y40102D1*
X27350Y40112D1*
X27238Y40166D1*
X27153Y40257D1*
X27107Y40372D1*
X27105Y40497D1*
X27147Y40613D1*
X27227Y40704D1*
X27092Y40628D1*
X26860Y40537D1*
X26773Y40514D1*
X26780Y40440D1*
X26757Y40318D1*
X26692Y40212D1*
X26593Y40137D1*
X26474Y40102D1*
X26350Y40112D1*
X26238Y40166D1*
X26153Y40257D1*
X26107Y40372D1*
X26111Y40515D1*
X25881Y40586D1*
X25659Y40701D1*
X25460Y40851D1*
X25289Y41033D1*
X25152Y41242D1*
X25052Y41471D1*
X24993Y41713D1*
X24975Y41963D1*
X25000Y42211D1*
X25067Y42452D1*
X25174Y42677D1*
X25318Y42882D1*
X25494Y43058D1*
X25589Y43133D1*
X13196Y43132D1*
X13323Y43044D1*
X13404Y42949D1*
X13462Y42839D1*
X13494Y42718D1*
X13500Y42640D1*
X13485Y42516D1*
X13444Y42399D1*
X13377Y42293D1*
X13287Y42206D1*
X13181Y42141D1*
X13063Y42102D1*
X12938Y42090D1*
X12815Y42107D1*
X12698Y42151D1*
X12594Y42221D1*
X12509Y42312D1*
X12448Y42416D1*
X12384Y42376D1*
X12265Y42341D1*
X12141Y42352D1*
X12029Y42406D1*
X11944Y42497D1*
X11897Y42612D1*
X11895Y42736D1*
X11938Y42853D1*
X12020Y42946D1*
X12130Y43004D1*
X12253Y43019D1*
X12374Y42988D1*
X12472Y42918D1*
X12538Y43004D1*
X12631Y43088D1*
X12710Y43131D1*
X6290Y43132D1*
X6437Y43014D1*
X6605Y42829D1*
X6739Y42618D1*
X6835Y42388D1*
X6891Y42144D1*
X6905Y41940D1*
X6884Y41691D1*
X6820Y41450D1*
X6717Y41222D1*
X6577Y41016D1*
X6403Y40836D1*
X6202Y40689D1*
X5978Y40577D1*
X5739Y40506D1*
X5491Y40476D1*
X5242Y40488D1*
X4998Y40543D1*
X4767Y40639D1*
X4556Y40772D1*
X4371Y40939D1*
X4250Y41087D1*
X4252Y38632D1*
Y38315D1*
X11624D1*
X11607Y38372D1*
X11605Y38497D1*
X11647Y38613D1*
X11729Y38707D1*
X11839Y38765D1*
X11963Y38779D1*
X12083Y38748D1*
X12184Y38676D1*
X12253Y38573D1*
X12280Y38440D1*
X12255Y38314D1*
X13003Y38315D1*
X13112Y38251D1*
X13596Y37380D1*
X13627Y37443D1*
X13709Y37537D1*
X13819Y37595D1*
X13943Y37609D1*
X14063Y37578D1*
X14164Y37506D1*
X14233Y37403D1*
X14260Y37270D1*
X14237Y37148D1*
X14172Y37042D1*
X14073Y36967D1*
X13954Y36932D1*
X13840Y36939D1*
X13941Y36758D1*
X14073Y36728D1*
X14174Y36656D1*
X14243Y36553D1*
X14270Y36420D1*
X14252Y36325D1*
X14429D1*
X14553Y36339D1*
X14673Y36308D1*
X14774Y36236D1*
X14843Y36133D1*
X14870Y36000D1*
X14847Y35878D1*
X14782Y35772D1*
X14683Y35697D1*
X14552Y35663D1*
X15115Y34645D1*
X15766Y33474D1*
X15794Y33446D1*
X15863Y33343D1*
X15879Y33271D1*
X16635Y31910D1*
X16693Y31888D1*
X16794Y31816D1*
X16863Y31713D1*
X16890Y31580D1*
X16875Y31476D1*
X17663Y30059D1*
X17567Y30282D1*
X17565Y30407D1*
X17607Y30523D1*
X17689Y30617D1*
X17799Y30675D1*
X17923Y30689D1*
X18043Y30658D1*
X18144Y30586D1*
X18213Y30483D1*
X18240Y30350D1*
X18217Y30228D1*
X18152Y30122D1*
X18106Y30087D1*
X18144Y30056D1*
X18213Y29953D1*
X18240Y29820D1*
X18217Y29698D1*
X18152Y29592D1*
X18053Y29517D1*
X17975Y29494D1*
X18156Y29171D1*
X18299Y29138D1*
X18400Y29066D1*
X18468Y28963D1*
X18495Y28830D1*
X18473Y28708D1*
X18442Y28658D1*
X18737Y28122D1*
X18752Y28065D1*
Y27764D1*
X18864Y27856D1*
X18978Y27907D1*
X19100Y27929D1*
X19225Y27921D1*
X19344Y27883D1*
X19450Y27818D1*
X19537Y27728D1*
X19599Y27621D1*
X19628Y27520D1*
X19690Y27679D1*
X19766Y27778D1*
X19864Y27856D1*
X19978Y27907D1*
X20100Y27929D1*
X20225Y27921D1*
X20344Y27883D1*
X20450Y27818D1*
X20537Y27728D1*
X20599Y27621D1*
X20628Y27520D1*
X20690Y27679D1*
X20766Y27778D1*
X20864Y27856D1*
X20978Y27907D1*
X21100Y27929D1*
X21225Y27921D1*
X21344Y27883D1*
X21450Y27818D1*
X21537Y27728D1*
X21599Y27621D1*
X21628Y27520D1*
X21667Y27635D1*
X21733Y27741D1*
X21823Y27827D1*
X21931Y27890D1*
X22051Y27924D1*
X22175Y27928D1*
X22297Y27902D1*
X22409Y27847D1*
X22504Y27767D1*
X22577Y27666D1*
X22624Y27550D1*
X22630Y27522D1*
X22690Y27679D1*
X22766Y27778D1*
X22864Y27856D1*
X22978Y27907D1*
X23100Y27929D1*
X23225Y27921D1*
X23344Y27883D1*
X23450Y27818D1*
X23537Y27728D1*
X23599Y27621D1*
X23628Y27520D1*
X23690Y27679D1*
X23766Y27778D1*
X23864Y27856D1*
X23978Y27907D1*
X24100Y27929D1*
X24225Y27921D1*
X24344Y27883D1*
X24450Y27818D1*
X24537Y27728D1*
X24599Y27621D1*
X24628Y27520D1*
X24690Y27679D1*
X24766Y27778D1*
X24864Y27856D1*
X24978Y27907D1*
X25100Y27929D1*
X25225Y27921D1*
X25344Y27883D1*
X25450Y27818D1*
X25537Y27728D1*
X25599Y27621D1*
X25628Y27520D1*
X25690Y27679D1*
X25766Y27778D1*
X25864Y27856D1*
X25978Y27907D1*
X26100Y27929D1*
X26225Y27921D1*
X26344Y27883D1*
X26450Y27818D1*
X26537Y27728D1*
X26599Y27621D1*
X26634Y27501D1*
X26640Y27420D1*
X26625Y27296D1*
X26580Y27180D1*
X26509Y27078D1*
X26414Y26996D1*
X26303Y26940D1*
X26223Y26922D1*
X26344Y26883D1*
X26450Y26818D1*
X26537Y26728D1*
X26599Y26621D1*
X26634Y26501D1*
X26640Y26420D1*
X26625Y26296D1*
X26580Y26180D1*
X26509Y26078D1*
X26414Y25996D1*
X26303Y25940D1*
X26181Y25912D1*
X26057Y25915D1*
X25937Y25948D1*
X25828Y26009D1*
X25737Y26094D1*
X25670Y26199D1*
X25630Y26322D1*
X25580Y26180D1*
X25509Y26078D1*
X25414Y25996D1*
X25303Y25940D1*
X25181Y25912D1*
X25057Y25915D1*
X24937Y25948D1*
X24828Y26009D1*
X24737Y26094D1*
X24670Y26199D1*
X24630Y26322D1*
X24580Y26180D1*
X24509Y26078D1*
X24414Y25996D1*
X24303Y25940D1*
X24181Y25912D1*
X24057Y25915D1*
X23937Y25948D1*
X23828Y26009D1*
X23737Y26094D1*
X23670Y26199D1*
X23630Y26322D1*
X23602Y26225D1*
X23540Y26117D1*
X23454Y26026D1*
X23349Y25959D1*
X23231Y25920D1*
X23107Y25910D1*
X22984Y25931D1*
X22869Y25981D1*
X22771Y26058D1*
X22694Y26155D1*
X22643Y26269D1*
X22630Y26318D1*
X22580Y26180D1*
X22509Y26078D1*
X22414Y25996D1*
X22303Y25940D1*
X22181Y25912D1*
X22057Y25915D1*
X21937Y25948D1*
X21828Y26009D1*
X21737Y26094D1*
X21670Y26199D1*
X21630Y26322D1*
X21580Y26180D1*
X21509Y26078D1*
X21414Y25996D1*
X21303Y25940D1*
X21181Y25912D1*
X21057Y25915D1*
X20937Y25948D1*
X20828Y26009D1*
X20737Y26094D1*
X20670Y26199D1*
X20630Y26322D1*
X20602Y26225D1*
X20540Y26117D1*
X20454Y26026D1*
X20349Y25959D1*
X20231Y25920D1*
X20107Y25910D1*
X19984Y25931D1*
X19869Y25981D1*
X19771Y26058D1*
X19694Y26155D1*
X19643Y26269D1*
X19630Y26318D1*
X19229Y26920D2*
X19344Y26883D1*
X19450Y26818D1*
X19537Y26728D1*
X19599Y26621D1*
X19628Y26520D1*
X19667Y26635D1*
X19733Y26741D1*
X19823Y26827D1*
X19931Y26890D1*
X20028Y26920D1*
X19937Y26948D1*
X19828Y27009D1*
X19737Y27094D1*
X19670Y27199D1*
X19630Y27322D1*
X19580Y27180D1*
X19509Y27078D1*
X19414Y26996D1*
X19303Y26940D1*
X19223Y26922D1*
X20232Y26920D2*
X20344Y26883D1*
X20450Y26818D1*
X20537Y26728D1*
X20599Y26621D1*
X20630Y26522D1*
X20690Y26679D1*
X20766Y26778D1*
X20864Y26856D1*
X20978Y26907D1*
X21035Y26918D1*
X20937Y26948D1*
X20828Y27009D1*
X20737Y27094D1*
X20670Y27199D1*
X20630Y27322D1*
X20580Y27180D1*
X20509Y27078D1*
X20414Y26996D1*
X20303Y26940D1*
X20223Y26922D1*
X21229Y26920D2*
X21344Y26883D1*
X21450Y26818D1*
X21537Y26728D1*
X21599Y26621D1*
X21628Y26520D1*
X21690Y26679D1*
X21766Y26778D1*
X21864Y26856D1*
X21978Y26907D1*
X22035Y26918D1*
X21914Y26958D1*
X21808Y27024D1*
X21722Y27114D1*
X21660Y27222D1*
X21630Y27318D1*
X21580Y27180D1*
X21509Y27078D1*
X21414Y26996D1*
X21303Y26940D1*
X21223Y26922D1*
X22229Y26920D2*
X22344Y26883D1*
X22450Y26818D1*
X22537Y26728D1*
X22599Y26621D1*
X22628Y26520D1*
X22667Y26635D1*
X22733Y26741D1*
X22823Y26827D1*
X22931Y26890D1*
X23028Y26920D1*
X22937Y26948D1*
X22828Y27009D1*
X22737Y27094D1*
X22670Y27199D1*
X22630Y27322D1*
X22602Y27225D1*
X22540Y27117D1*
X22454Y27026D1*
X22349Y26959D1*
X22232Y26920D1*
X23232D2*
X23344Y26883D1*
X23450Y26818D1*
X23537Y26728D1*
X23599Y26621D1*
X23630Y26522D1*
X23690Y26679D1*
X23766Y26778D1*
X23864Y26856D1*
X23978Y26907D1*
X24035Y26918D1*
X23937Y26948D1*
X23828Y27009D1*
X23737Y27094D1*
X23670Y27199D1*
X23630Y27322D1*
X23580Y27180D1*
X23509Y27078D1*
X23414Y26996D1*
X23303Y26940D1*
X23223Y26922D1*
X24229Y26920D2*
X24344Y26883D1*
X24450Y26818D1*
X24537Y26728D1*
X24599Y26621D1*
X24628Y26520D1*
X24690Y26679D1*
X24766Y26778D1*
X24864Y26856D1*
X24978Y26907D1*
X25035Y26918D1*
X24937Y26948D1*
X24828Y27009D1*
X24737Y27094D1*
X24670Y27199D1*
X24630Y27322D1*
X24580Y27180D1*
X24509Y27078D1*
X24414Y26996D1*
X24303Y26940D1*
X24223Y26922D1*
X25229Y26920D2*
X25344Y26883D1*
X25450Y26818D1*
X25537Y26728D1*
X25599Y26621D1*
X25628Y26520D1*
X25690Y26679D1*
X25766Y26778D1*
X25864Y26856D1*
X25978Y26907D1*
X26035Y26918D1*
X25937Y26948D1*
X25828Y27009D1*
X25737Y27094D1*
X25670Y27199D1*
X25630Y27322D1*
X25580Y27180D1*
X25509Y27078D1*
X25414Y26996D1*
X25303Y26940D1*
X25223Y26922D1*
X25997Y14339D2*
X26110D1*
X26066Y14371D1*
X25981Y14462D1*
X25918Y14569D1*
X25881Y14689D1*
X25872Y14813D1*
X25892Y14936D1*
X25939Y15052D1*
X26010Y15154D1*
X26103Y15238D1*
X26195Y15288D1*
X26066Y15371D1*
X25981Y15462D1*
X25918Y15569D1*
X25881Y15689D1*
X25872Y15813D1*
X25892Y15936D1*
X25939Y16052D1*
X26010Y16154D1*
X26103Y16238D1*
X26195Y16288D1*
X26066Y16371D1*
X25981Y16462D1*
X25918Y16569D1*
X25881Y16689D1*
X25872Y16813D1*
X25892Y16936D1*
X25939Y17052D1*
X26010Y17154D1*
X26103Y17238D1*
X26212Y17298D1*
X26332Y17332D1*
X26456Y17338D1*
X26579Y17316D1*
X26694Y17267D1*
X26795Y17194D1*
X26876Y17099D1*
X26934Y16989D1*
X26966Y16868D1*
X26971Y16790D1*
X26957Y16666D1*
X26915Y16548D1*
X26848Y16443D1*
X26759Y16356D1*
X26649Y16290D1*
X26795Y16194D1*
X26876Y16099D1*
X26934Y15989D1*
X26966Y15868D1*
X26971Y15790D1*
X26957Y15666D1*
X26915Y15548D1*
X26848Y15443D1*
X26759Y15356D1*
X26649Y15290D1*
X26795Y15194D1*
X26876Y15099D1*
X26934Y14989D1*
X26966Y14868D1*
X26971Y14790D1*
X26957Y14666D1*
X26915Y14548D1*
X26848Y14443D1*
X26729Y14338D1*
X26971Y14339D1*
Y13240D1*
X26600D1*
X26684Y13176D1*
X26753Y13073D1*
X26780Y12940D1*
X26757Y12818D1*
X26692Y12712D1*
X26593Y12637D1*
X26474Y12602D1*
X26350Y12612D1*
X26238Y12666D1*
X26153Y12757D1*
X26107Y12872D1*
X26105Y12997D1*
X26147Y13113D1*
X26229Y13207D1*
X26295Y13241D1*
X25872Y13240D1*
Y14339D1*
X25997D1*
X26037Y8720D2*
X26150D1*
X26106Y8751D1*
X26021Y8842D1*
X25958Y8950D1*
X25921Y9069D1*
X25912Y9193D1*
X25932Y9317D1*
X25979Y9432D1*
X26050Y9534D1*
X26143Y9618D1*
X26235Y9669D1*
X26106Y9751D1*
X26021Y9842D1*
X25958Y9950D1*
X25921Y10069D1*
X25912Y10193D1*
X25932Y10317D1*
X25979Y10432D1*
X26050Y10534D1*
X26143Y10618D1*
X26235Y10669D1*
X26106Y10751D1*
X26021Y10842D1*
X25958Y10950D1*
X25921Y11069D1*
X25912Y11193D1*
X25932Y11317D1*
X25979Y11432D1*
X26050Y11534D1*
X26143Y11618D1*
X26235Y11669D1*
X26153Y11757D1*
X26107Y11872D1*
X26105Y11997D1*
X26147Y12113D1*
X26229Y12207D1*
X26339Y12265D1*
X26463Y12279D1*
X26583Y12248D1*
X26684Y12176D1*
X26753Y12073D1*
X26780Y11940D1*
X26757Y11818D1*
X26692Y11712D1*
X26658Y11686D1*
X26734Y11648D1*
X26835Y11574D1*
X26916Y11479D1*
X26974Y11369D1*
X27006Y11248D1*
X27011Y11170D1*
X26997Y11046D1*
X26955Y10929D1*
X26888Y10824D1*
X26799Y10736D1*
X26689Y10670D1*
X26835Y10574D1*
X26916Y10479D1*
X26974Y10369D1*
X27006Y10248D1*
X27011Y10170D1*
X26997Y10046D1*
X26955Y9929D1*
X26888Y9824D1*
X26799Y9736D1*
X26689Y9670D1*
X26835Y9574D1*
X26916Y9479D1*
X26974Y9369D1*
X27006Y9248D1*
X27011Y9170D1*
X26997Y9046D1*
X26955Y8929D1*
X26888Y8824D1*
X26769Y8718D1*
X27011Y8720D1*
Y7620D1*
X25912D1*
Y8720D1*
X26037D1*
X24787Y32000D2*
X24753Y32083D1*
X24751Y32208D1*
X24794Y32324D1*
X24876Y32418D1*
X24986Y32476D1*
X25109Y32490D1*
X25181Y32472D1*
X25153Y32507D1*
X25107Y32622D1*
X25105Y32747D1*
X25147Y32863D1*
X25229Y32957D1*
X25339Y33015D1*
X25463Y33029D1*
X25583Y32998D1*
X25684Y32926D1*
X25753Y32823D1*
X25780Y32690D1*
X25757Y32568D1*
X25710Y32492D1*
X25855Y32459D1*
X25864Y32453D1*
X25924Y32476D1*
X26047Y32490D1*
X26177Y32453D1*
X26107Y32622D1*
X26105Y32747D1*
X26147Y32863D1*
X26229Y32957D1*
X26339Y33015D1*
X26463Y33029D1*
X26583Y32998D1*
X26684Y32926D1*
X26753Y32823D1*
X26780Y32690D1*
X26757Y32568D1*
X26692Y32462D1*
X26582Y32383D1*
X26650Y32284D1*
X26677Y32151D1*
X26654Y32029D1*
X26636Y31999D1*
X26677Y31850D1*
X26654Y31716D1*
X26636Y31686D1*
X26677Y31537D1*
X26654Y31404D1*
X26636Y31374D1*
X26677Y31225D1*
X26654Y31091D1*
X26636Y31061D1*
X26677Y30912D1*
X26654Y30779D1*
X26589Y30673D1*
X26543Y30638D1*
X26583Y30623D1*
X26684Y30551D1*
X26753Y30448D1*
X26780Y30315D1*
X26757Y30193D1*
X26692Y30087D1*
X26593Y30012D1*
X26474Y29977D1*
X26350Y29987D1*
X26238Y30041D1*
X26153Y30132D1*
X26107Y30247D1*
X26105Y30372D1*
X26147Y30488D1*
X26227Y30579D1*
X26178Y30597D1*
X26058Y30563D1*
X25934Y30573D1*
X25875Y30602D1*
X25746Y30563D1*
X25622Y30573D1*
X25562Y30602D1*
X25433Y30563D1*
X25309Y30573D1*
X25250Y30602D1*
X25121Y30563D1*
X24997Y30573D1*
X24885Y30627D1*
X24800Y30718D1*
X24754Y30833D1*
X24751Y30958D1*
X24788Y31056D1*
X24753Y31146D1*
X24751Y31270D1*
X24787Y31369D1*
X24753Y31458D1*
X24751Y31583D1*
X24787Y31681D1*
X24753Y31771D1*
X24751Y31895D1*
X24787Y31994D1*
X23475Y21425D2*
X23527Y21452D1*
X23650Y21467D1*
X23788Y21425D1*
X23839Y21452D1*
X23963Y21467D1*
X24100Y21425D1*
X24152Y21452D1*
X24275Y21467D1*
X24413Y21425D1*
X24464Y21452D1*
X24588Y21467D1*
X24725Y21425D1*
X24777Y21452D1*
X24900Y21467D1*
X25037Y21425D1*
X25099Y21455D1*
X25223Y21469D1*
X25353Y21432D1*
X25402Y21452D1*
X25525Y21467D1*
X25655Y21429D1*
X25714Y21452D1*
X25838Y21467D1*
X25968Y21429D1*
X26027Y21452D1*
X26150Y21467D1*
X26280Y21429D1*
X26339Y21452D1*
X26463Y21467D1*
X26583Y21436D1*
X26684Y21364D1*
X26753Y21260D1*
X26780Y21128D1*
X26757Y21005D1*
X26739Y20976D1*
X26780Y20826D1*
X26757Y20693D1*
X26739Y20663D1*
X26780Y20514D1*
X26757Y20380D1*
X26692Y20274D1*
X26593Y20199D1*
X26474Y20164D1*
X26350Y20175D1*
X26291Y20203D1*
X26162Y20164D1*
X26038Y20175D1*
X25978Y20203D1*
X25849Y20164D1*
X25725Y20175D1*
X25666Y20203D1*
X25537Y20164D1*
X25413Y20175D1*
X25353Y20203D1*
X25224Y20164D1*
X25100Y20175D1*
X25041Y20203D1*
X24912Y20164D1*
X24788Y20175D1*
X24728Y20203D1*
X24599Y20164D1*
X24475Y20175D1*
X24416Y20203D1*
X24287Y20164D1*
X24163Y20175D1*
X24103Y20203D1*
X23974Y20164D1*
X23850Y20175D1*
X23791Y20203D1*
X23662Y20164D1*
X23538Y20175D1*
X23478Y20203D1*
X23349Y20164D1*
X23225Y20175D1*
X23113Y20229D1*
X23028Y20320D1*
X22982Y20435D1*
X22980Y20559D1*
X23016Y20658D1*
X22982Y20747D1*
X22980Y20872D1*
X23016Y20970D1*
X22927Y20948D1*
X22862Y20842D1*
X22763Y20767D1*
X22644Y20732D1*
X22520Y20742D1*
X22408Y20796D1*
X22323Y20887D1*
X22277Y21002D1*
X22275Y21127D1*
X22317Y21243D1*
X22399Y21337D1*
X22509Y21395D1*
X22633Y21409D1*
X22753Y21378D1*
X22854Y21306D1*
X22923Y21203D1*
X22950Y21070D1*
X22927Y20948D1*
X23015Y20977D1*
X22982Y21060D1*
X22980Y21184D1*
X23022Y21301D1*
X23104Y21394D1*
X23214Y21452D1*
X23338Y21467D1*
X23468Y21429D1*
X21963Y39985D2*
X22014Y40012D1*
X22138Y40027D1*
X22268Y39989D1*
X22327Y40012D1*
X22450Y40027D1*
X22580Y39989D1*
X22639Y40012D1*
X22763Y40027D1*
X22883Y39996D1*
X22984Y39924D1*
X23053Y39820D1*
X23080Y39688D1*
X23057Y39565D1*
X23039Y39536D1*
X23080Y39386D1*
X23057Y39253D1*
X23039Y39223D1*
X23080Y39074D1*
X23057Y38940D1*
X23039Y38911D1*
X23080Y38761D1*
X23057Y38628D1*
X23039Y38598D1*
X23080Y38449D1*
X23057Y38315D1*
X22992Y38209D1*
X22893Y38134D1*
X22774Y38099D1*
X22650Y38110D1*
X22591Y38138D1*
X22462Y38099D1*
X22338Y38110D1*
X22278Y38138D1*
X22149Y38099D1*
X22025Y38110D1*
X21966Y38138D1*
X21837Y38099D1*
X21713Y38110D1*
X21653Y38138D1*
X21524Y38099D1*
X21400Y38110D1*
X21288Y38164D1*
X21203Y38255D1*
X21157Y38370D1*
X21155Y38494D1*
X21191Y38593D1*
X21157Y38682D1*
X21155Y38807D1*
X21191Y38905D1*
X21157Y38995D1*
X21155Y39119D1*
X21191Y39218D1*
X21157Y39307D1*
X21155Y39432D1*
X21191Y39530D1*
X21157Y39620D1*
X21155Y39744D1*
X21197Y39861D1*
X21279Y39954D1*
X21389Y40012D1*
X21513Y40027D1*
X21643Y39989D1*
X21702Y40012D1*
X21825Y40027D1*
X21955Y39989D1*
X20381Y33503D2*
X20433Y33530D1*
X20556Y33545D1*
X20680Y33512D1*
X20727Y33531D1*
X20851Y33546D1*
X20981Y33508D1*
X21040Y33531D1*
X21163Y33546D1*
X21287Y33513D1*
X21334Y33532D1*
X21458Y33547D1*
X21588Y33509D1*
X21647Y33532D1*
X21770Y33547D1*
X21894Y33514D1*
X21941Y33533D1*
X22065Y33547D1*
X22185Y33517D1*
X22286Y33445D1*
X22348Y33351D1*
X22419Y33385D1*
X22543Y33399D1*
X22663Y33368D1*
X22764Y33296D1*
X22833Y33193D1*
X22860Y33060D1*
X22837Y32938D1*
X22772Y32832D1*
X22673Y32757D1*
X22554Y32722D1*
X22430Y32732D1*
X22357Y32768D1*
X22355Y32716D1*
X22382Y32583D1*
X22359Y32461D1*
X22294Y32355D1*
X22195Y32280D1*
X22076Y32245D1*
X21952Y32255D1*
X21900Y32281D1*
X21781Y32244D1*
X21658Y32254D1*
X21598Y32283D1*
X21469Y32244D1*
X21345Y32254D1*
X21293Y32280D1*
X21174Y32243D1*
X21051Y32254D1*
X20991Y32282D1*
X20862Y32243D1*
X20738Y32254D1*
X20686Y32279D1*
X20567Y32242D1*
X20444Y32253D1*
X20384Y32282D1*
X20255Y32242D1*
X20131Y32253D1*
X20086Y32275D1*
X19965Y32236D1*
X19841Y32246D1*
X19782Y32275D1*
X19652Y32236D1*
X19528Y32246D1*
X19473Y32266D1*
X19353Y32231D1*
X19229Y32242D1*
X19170Y32270D1*
X19041Y32231D1*
X18917Y32242D1*
X18857Y32270D1*
X18730Y32231D1*
X18606Y32241D1*
X18494Y32295D1*
X18409Y32386D1*
X18362Y32501D1*
X18360Y32626D1*
X18396Y32724D1*
X18362Y32814D1*
X18360Y32938D1*
X18396Y33037D1*
X18362Y33126D1*
X18360Y33251D1*
X18403Y33367D1*
X18485Y33461D1*
X18595Y33519D1*
X18718Y33533D1*
X18848Y33496D1*
X18906Y33519D1*
X19030Y33534D1*
X19159Y33496D1*
X19219Y33519D1*
X19342Y33534D1*
X19466Y33501D1*
X19518Y33524D1*
X19641Y33538D1*
X19771Y33501D1*
X19830Y33524D1*
X19954Y33538D1*
X20070Y33508D1*
X20120Y33530D1*
X20244Y33545D1*
X20374Y33507D1*
X23757Y42318D2*
X23692Y42212D1*
X23593Y42137D1*
X23474Y42102D1*
X23350Y42112D1*
X23238Y42166D1*
X23153Y42257D1*
X23107Y42372D1*
X23105Y42497D1*
X23147Y42613D1*
X23229Y42707D1*
X23339Y42765D1*
X23463Y42779D1*
X23583Y42748D1*
X23684Y42676D1*
X23753Y42573D1*
X23780Y42440D1*
X23757Y42318D1*
X26757Y18818D2*
X26692Y18712D1*
X26593Y18637D1*
X26474Y18602D1*
X26350Y18612D1*
X26238Y18666D1*
X26153Y18757D1*
X26107Y18872D1*
X26105Y18997D1*
X26147Y19113D1*
X26229Y19207D1*
X26339Y19265D1*
X26463Y19279D1*
X26583Y19248D1*
X26684Y19176D1*
X26753Y19073D1*
X26780Y18940D1*
X26757Y18818D1*
X25757Y17818D2*
X25692Y17712D1*
X25593Y17637D1*
X25474Y17602D1*
X25350Y17612D1*
X25238Y17666D1*
X25220Y17686D1*
X25195Y17568D1*
X25130Y17462D1*
X25031Y17387D1*
X24912Y17352D1*
X24788Y17362D1*
X24676Y17416D1*
X24591Y17507D1*
X24544Y17622D1*
X24542Y17747D1*
X24585Y17863D1*
X24667Y17957D1*
X24777Y18015D1*
X24900Y18029D1*
X25021Y17998D1*
X25100Y17942D1*
X25105Y17997D1*
X25147Y18113D1*
X25229Y18207D1*
X25339Y18265D1*
X25463Y18279D1*
X25583Y18248D1*
X25684Y18176D1*
X25753Y18073D1*
X25780Y17940D1*
X25757Y17818D1*
X19941Y7398D2*
X19908Y7481D1*
X19906Y7605D1*
X19936Y7689D1*
X19907Y7775D1*
X19905Y7899D1*
X19941Y7998D1*
X19907Y8088D1*
X19905Y8212D1*
X19936Y8296D1*
X19906Y8382D1*
X19904Y8506D1*
X19940Y8605D1*
X19906Y8695D1*
X19904Y8819D1*
X19935Y8903D1*
X19905Y8989D1*
X19903Y9113D1*
X19946Y9230D1*
X20028Y9324D1*
X20138Y9381D1*
X20261Y9396D1*
X20391Y9358D1*
X20450Y9381D1*
X20574Y9396D1*
X20704Y9358D1*
X20763Y9381D1*
X20886Y9396D1*
X21007Y9365D1*
X21108Y9293D1*
X21176Y9189D1*
X21203Y9057D1*
X21181Y8934D1*
X21166Y8911D1*
X21204Y8773D1*
X21182Y8640D1*
X21163Y8610D1*
X21204Y8461D1*
X21182Y8327D1*
X21167Y8304D1*
X21205Y8167D1*
X21182Y8033D1*
X21164Y8003D1*
X21205Y7854D1*
X21182Y7721D1*
X21168Y7697D1*
X21206Y7560D1*
X21183Y7426D1*
X21165Y7396D1*
X21206Y7247D1*
X21177Y7104D1*
X21213Y6946D1*
X21190Y6823D1*
X21172Y6794D1*
X21212Y6644D1*
X21190Y6511D1*
X21180Y6494D1*
X21217Y6334D1*
X21194Y6212D1*
X21176Y6182D1*
X21217Y6033D1*
X21194Y5899D1*
X21176Y5870D1*
X21191Y5843D1*
X21218Y5710D1*
X21195Y5588D1*
X21130Y5482D1*
X21031Y5407D1*
X20912Y5372D1*
X20788Y5382D1*
X20728Y5411D1*
X20599Y5372D1*
X20475Y5382D1*
X20416Y5411D1*
X20287Y5372D1*
X20163Y5382D1*
X20051Y5437D1*
X19966Y5527D1*
X19919Y5643D1*
X19917Y5767D1*
X19953Y5865D1*
X19919Y5954D1*
X19917Y6078D1*
X19953Y6177D1*
X19919Y6266D1*
X19917Y6391D1*
X19948Y6475D1*
X19914Y6565D1*
X19912Y6690D1*
X19948Y6788D1*
X19914Y6878D1*
X19912Y7002D1*
X19940Y7079D1*
X19908Y7168D1*
X19906Y7292D1*
X19942Y7391D1*
X25757Y12818D2*
X25692Y12712D1*
X25593Y12637D1*
X25474Y12602D1*
X25350Y12612D1*
X25238Y12666D1*
X25153Y12757D1*
X25129Y12818D1*
X25031Y12747D1*
X24912Y12712D1*
X24788Y12722D1*
X24721Y12754D1*
X24692Y12712D1*
X24593Y12637D1*
X24474Y12602D1*
X24350Y12612D1*
X24238Y12666D1*
X24153Y12757D1*
X24107Y12872D1*
X24105Y12997D1*
X24147Y13113D1*
X24229Y13207D1*
X24339Y13265D1*
X24463Y13279D1*
X24593Y13242D1*
X24667Y13317D1*
X24777Y13375D1*
X24900Y13389D1*
X25021Y13358D1*
X25122Y13286D1*
X25193Y13171D1*
X25229Y13207D1*
X25339Y13265D1*
X25463Y13279D1*
X25583Y13248D1*
X25684Y13176D1*
X25753Y13073D1*
X25780Y12940D1*
X25757Y12818D1*
X19757Y41318D2*
X19692Y41212D1*
X19593Y41137D1*
X19474Y41102D1*
X19350Y41112D1*
X19238Y41166D1*
X19153Y41257D1*
X19107Y41372D1*
X19105Y41497D1*
X19147Y41613D1*
X19229Y41707D1*
X19339Y41765D1*
X19463Y41779D1*
X19583Y41748D1*
X19684Y41676D1*
X19753Y41573D1*
X19780Y41440D1*
X19757Y41318D1*
X20757D2*
X20692Y41212D1*
X20593Y41137D1*
X20474Y41102D1*
X20350Y41112D1*
X20238Y41166D1*
X20153Y41257D1*
X20107Y41372D1*
X20105Y41497D1*
X20147Y41613D1*
X20229Y41707D1*
X20339Y41765D1*
X20463Y41779D1*
X20583Y41748D1*
X20684Y41676D1*
X20753Y41573D1*
X20780Y41440D1*
X20757Y41318D1*
X21757D2*
X21692Y41212D1*
X21593Y41137D1*
X21474Y41102D1*
X21350Y41112D1*
X21238Y41166D1*
X21153Y41257D1*
X21107Y41372D1*
X21105Y41497D1*
X21147Y41613D1*
X21229Y41707D1*
X21339Y41765D1*
X21463Y41779D1*
X21583Y41748D1*
X21684Y41676D1*
X21753Y41573D1*
X21780Y41440D1*
X21757Y41318D1*
X22757D2*
X22692Y41212D1*
X22593Y41137D1*
X22474Y41102D1*
X22350Y41112D1*
X22238Y41166D1*
X22153Y41257D1*
X22107Y41372D1*
X22105Y41497D1*
X22147Y41613D1*
X22229Y41707D1*
X22339Y41765D1*
X22463Y41779D1*
X22583Y41748D1*
X22684Y41676D1*
X22753Y41573D1*
X22780Y41440D1*
X22757Y41318D1*
X23757D2*
X23692Y41212D1*
X23593Y41137D1*
X23474Y41102D1*
X23350Y41112D1*
X23238Y41166D1*
X23153Y41257D1*
X23107Y41372D1*
X23105Y41497D1*
X23147Y41613D1*
X23229Y41707D1*
X23339Y41765D1*
X23463Y41779D1*
X23583Y41748D1*
X23684Y41676D1*
X23753Y41573D1*
X23780Y41440D1*
X23757Y41318D1*
X24757D2*
X24692Y41212D1*
X24593Y41137D1*
X24474Y41102D1*
X24350Y41112D1*
X24238Y41166D1*
X24153Y41257D1*
X24107Y41372D1*
X24105Y41497D1*
X24147Y41613D1*
X24229Y41707D1*
X24339Y41765D1*
X24463Y41779D1*
X24583Y41748D1*
X24684Y41676D1*
X24753Y41573D1*
X24780Y41440D1*
X24757Y41318D1*
X19757Y42318D2*
X19692Y42212D1*
X19593Y42137D1*
X19474Y42102D1*
X19350Y42112D1*
X19238Y42166D1*
X19153Y42257D1*
X19107Y42372D1*
X19105Y42497D1*
X19147Y42613D1*
X19229Y42707D1*
X19339Y42765D1*
X19463Y42779D1*
X19583Y42748D1*
X19684Y42676D1*
X19753Y42573D1*
X19780Y42440D1*
X19757Y42318D1*
X20757D2*
X20692Y42212D1*
X20593Y42137D1*
X20474Y42102D1*
X20350Y42112D1*
X20238Y42166D1*
X20153Y42257D1*
X20107Y42372D1*
X20105Y42497D1*
X20147Y42613D1*
X20229Y42707D1*
X20339Y42765D1*
X20463Y42779D1*
X20583Y42748D1*
X20684Y42676D1*
X20753Y42573D1*
X20780Y42440D1*
X20757Y42318D1*
X21757D2*
X21692Y42212D1*
X21593Y42137D1*
X21474Y42102D1*
X21350Y42112D1*
X21238Y42166D1*
X21153Y42257D1*
X21107Y42372D1*
X21105Y42497D1*
X21147Y42613D1*
X21229Y42707D1*
X21339Y42765D1*
X21463Y42779D1*
X21583Y42748D1*
X21684Y42676D1*
X21753Y42573D1*
X21780Y42440D1*
X21757Y42318D1*
X22757D2*
X22692Y42212D1*
X22593Y42137D1*
X22474Y42102D1*
X22350Y42112D1*
X22238Y42166D1*
X22153Y42257D1*
X22107Y42372D1*
X22105Y42497D1*
X22147Y42613D1*
X22229Y42707D1*
X22339Y42765D1*
X22463Y42779D1*
X22583Y42748D1*
X22684Y42676D1*
X22753Y42573D1*
X22780Y42440D1*
X22757Y42318D1*
X10039Y41492D2*
X10091Y41519D1*
X10214Y41533D1*
X10344Y41496D1*
X10403Y41519D1*
X10527Y41533D1*
X10647Y41502D1*
X10748Y41430D1*
X10817Y41327D1*
X10844Y41194D1*
X10821Y41072D1*
X10803Y41042D1*
X10844Y40893D1*
X10821Y40759D1*
X10803Y40730D1*
X10844Y40580D1*
X10821Y40447D1*
X10756Y40341D1*
X10657Y40266D1*
X10538Y40231D1*
X10414Y40241D1*
X10355Y40270D1*
X10225Y40231D1*
X10102Y40241D1*
X10042Y40270D1*
X9913Y40231D1*
X9789Y40241D1*
X9677Y40295D1*
X9592Y40386D1*
X9546Y40501D1*
X9544Y40626D1*
X9580Y40724D1*
X9546Y40814D1*
X9544Y40938D1*
X9580Y41037D1*
X9546Y41126D1*
X9544Y41251D1*
X9586Y41367D1*
X9668Y41461D1*
X9778Y41519D1*
X9902Y41533D1*
X10032Y41496D1*
X22757Y40318D2*
X22692Y40212D1*
X22593Y40137D1*
X22474Y40102D1*
X22350Y40112D1*
X22238Y40166D1*
X22153Y40257D1*
X22107Y40372D1*
X22105Y40497D1*
X22147Y40613D1*
X22229Y40707D1*
X22339Y40765D1*
X22463Y40779D1*
X22583Y40748D1*
X22684Y40676D1*
X22753Y40573D1*
X22780Y40440D1*
X22757Y40318D1*
X23757Y39318D2*
X23692Y39212D1*
X23593Y39137D1*
X23474Y39102D1*
X23350Y39112D1*
X23238Y39166D1*
X23153Y39257D1*
X23107Y39372D1*
X23105Y39497D1*
X23147Y39613D1*
X23229Y39707D1*
X23339Y39765D1*
X23463Y39779D1*
X23583Y39748D1*
X23684Y39676D1*
X23753Y39573D1*
X23780Y39440D1*
X23757Y39318D1*
X24757D2*
X24692Y39212D1*
X24593Y39137D1*
X24474Y39102D1*
X24350Y39112D1*
X24238Y39166D1*
X24153Y39257D1*
X24107Y39372D1*
X24105Y39497D1*
X24147Y39613D1*
X24229Y39707D1*
X24339Y39765D1*
X24463Y39779D1*
X24583Y39748D1*
X24684Y39676D1*
X24753Y39573D1*
X24780Y39440D1*
X24757Y39318D1*
X21757Y40318D2*
X21692Y40212D1*
X21593Y40137D1*
X21474Y40102D1*
X21350Y40112D1*
X21238Y40166D1*
X21153Y40257D1*
X21107Y40372D1*
X21105Y40497D1*
X21147Y40613D1*
X21229Y40707D1*
X21339Y40765D1*
X21463Y40779D1*
X21583Y40748D1*
X21684Y40676D1*
X21753Y40573D1*
X21780Y40440D1*
X21757Y40318D1*
X20757D2*
X20692Y40212D1*
X20593Y40137D1*
X20474Y40102D1*
X20400Y40108D1*
X20481Y40010D1*
X20524Y39894D1*
X20531Y39819D1*
X20511Y39696D1*
X20440Y39572D1*
X20481Y39510D1*
X20524Y39394D1*
X20531Y39319D1*
X20511Y39196D1*
X20454Y39086D1*
X20434Y39067D1*
X20481Y39002D1*
X20524Y38885D1*
X20531Y38810D1*
X20511Y38687D1*
X20454Y38577D1*
X20364Y38490D1*
X20252Y38436D1*
X20129Y38420D1*
X20007Y38444D1*
X19898Y38505D1*
X19814Y38597D1*
X19764Y38711D1*
X19752Y38835D1*
X19780Y38956D1*
X19847Y39065D1*
X19814Y39106D1*
X19764Y39220D1*
X19755Y39309D1*
X19692Y39212D1*
X19593Y39137D1*
X19474Y39102D1*
X19350Y39112D1*
X19238Y39166D1*
X19153Y39257D1*
X19107Y39372D1*
X19105Y39497D1*
X19147Y39613D1*
X19229Y39707D1*
X19339Y39765D1*
X19463Y39779D1*
X19583Y39748D1*
X19684Y39676D1*
X19753Y39573D1*
X19780Y39465D1*
X19842Y39568D1*
X19814Y39606D1*
X19764Y39720D1*
X19752Y39844D1*
X19780Y39965D1*
X19844Y40071D1*
X19939Y40152D1*
X20054Y40199D1*
X20197Y40202D1*
X20153Y40257D1*
X20107Y40372D1*
X20105Y40497D1*
X20147Y40613D1*
X20229Y40707D1*
X20339Y40765D1*
X20463Y40779D1*
X20583Y40748D1*
X20684Y40676D1*
X20753Y40573D1*
X20780Y40440D1*
X20757Y40318D1*
X19757D2*
X19692Y40212D1*
X19593Y40137D1*
X19474Y40102D1*
X19350Y40112D1*
X19238Y40166D1*
X19153Y40257D1*
X19107Y40372D1*
X19105Y40497D1*
X19147Y40613D1*
X19229Y40707D1*
X19339Y40765D1*
X19463Y40779D1*
X19583Y40748D1*
X19684Y40676D1*
X19753Y40573D1*
X19780Y40440D1*
X19757Y40318D1*
X23757D2*
X23692Y40212D1*
X23593Y40137D1*
X23474Y40102D1*
X23350Y40112D1*
X23238Y40166D1*
X23153Y40257D1*
X23107Y40372D1*
X23105Y40497D1*
X23147Y40613D1*
X23229Y40707D1*
X23339Y40765D1*
X23463Y40779D1*
X23583Y40748D1*
X23684Y40676D1*
X23753Y40573D1*
X23780Y40440D1*
X23757Y40318D1*
X24757D2*
X24692Y40212D1*
X24593Y40137D1*
X24474Y40102D1*
X24350Y40112D1*
X24238Y40166D1*
X24153Y40257D1*
X24107Y40372D1*
X24105Y40497D1*
X24147Y40613D1*
X24229Y40707D1*
X24339Y40765D1*
X24463Y40779D1*
X24583Y40748D1*
X24684Y40676D1*
X24753Y40573D1*
X24780Y40440D1*
X24757Y40318D1*
X25757D2*
X25692Y40212D1*
X25593Y40137D1*
X25474Y40102D1*
X25350Y40112D1*
X25238Y40166D1*
X25153Y40257D1*
X25107Y40372D1*
X25105Y40497D1*
X25147Y40613D1*
X25229Y40707D1*
X25339Y40765D1*
X25463Y40779D1*
X25583Y40748D1*
X25684Y40676D1*
X25753Y40573D1*
X25780Y40440D1*
X25757Y40318D1*
X27240Y40712D2*
X27339Y40765D1*
X27463Y40779D1*
X27583Y40748D1*
X27681Y40679D1*
X27686Y41171D1*
X27577Y41016D1*
X27403Y40836D1*
X27202Y40689D1*
X24757Y38318D2*
X24692Y38212D1*
X24593Y38137D1*
X24474Y38102D1*
X24350Y38112D1*
X24238Y38166D1*
X24153Y38257D1*
X24107Y38372D1*
X24105Y38497D1*
X24147Y38613D1*
X24229Y38707D1*
X24339Y38765D1*
X24463Y38779D1*
X24583Y38748D1*
X24684Y38676D1*
X24753Y38573D1*
X24780Y38440D1*
X24757Y38318D1*
X23757D2*
X23692Y38212D1*
X23593Y38137D1*
X23474Y38102D1*
X23350Y38112D1*
X23238Y38166D1*
X23153Y38257D1*
X23107Y38372D1*
X23105Y38497D1*
X23147Y38613D1*
X23229Y38707D1*
X23339Y38765D1*
X23463Y38779D1*
X23583Y38748D1*
X23684Y38676D1*
X23753Y38573D1*
X23780Y38440D1*
X23757Y38318D1*
X24757Y37318D2*
X24692Y37212D1*
X24593Y37137D1*
X24474Y37102D1*
X24350Y37112D1*
X24238Y37166D1*
X24153Y37257D1*
X24107Y37372D1*
X24105Y37497D1*
X24147Y37613D1*
X24229Y37707D1*
X24339Y37765D1*
X24463Y37779D1*
X24583Y37748D1*
X24684Y37676D1*
X24753Y37573D1*
X24780Y37440D1*
X24757Y37318D1*
Y36318D2*
X24692Y36212D1*
X24593Y36137D1*
X24474Y36102D1*
X24350Y36112D1*
X24238Y36166D1*
X24153Y36257D1*
X24107Y36372D1*
X24105Y36497D1*
X24147Y36613D1*
X24229Y36707D1*
X24339Y36765D1*
X24463Y36779D1*
X24583Y36748D1*
X24684Y36676D1*
X24753Y36573D1*
X24780Y36440D1*
X24757Y36318D1*
X19816Y15353D2*
X19783Y15436D1*
X19781Y15560D1*
X19811Y15644D1*
X19782Y15730D1*
X19780Y15854D1*
X19816Y15953D1*
X19782Y16043D1*
X19780Y16167D1*
X19811Y16251D1*
X19781Y16337D1*
X19779Y16461D1*
X19815Y16560D1*
X19781Y16650D1*
X19779Y16774D1*
X19810Y16858D1*
X19780Y16944D1*
X19778Y17068D1*
X19821Y17185D1*
X19903Y17279D1*
X20013Y17336D1*
X20136Y17351D1*
X20245Y17323D1*
X20139Y17427D1*
X20093Y17542D1*
X20091Y17667D1*
X20133Y17783D1*
X20215Y17877D1*
X20325Y17935D1*
X20449Y17949D1*
X20569Y17918D1*
X20670Y17846D1*
X20739Y17743D1*
X20766Y17610D1*
X20743Y17488D1*
X20678Y17382D1*
X20601Y17323D1*
X20638Y17336D1*
X20761Y17351D1*
X20882Y17320D1*
X20983Y17248D1*
X21051Y17144D1*
X21078Y17012D1*
X21056Y16889D1*
X21041Y16866D1*
X21079Y16728D1*
X21057Y16595D1*
X21038Y16565D1*
X21079Y16416D1*
X21057Y16282D1*
X21042Y16259D1*
X21080Y16122D1*
X21057Y15988D1*
X21039Y15958D1*
X21080Y15809D1*
X21057Y15676D1*
X21043Y15652D1*
X21081Y15515D1*
X21058Y15381D1*
X21040Y15351D1*
X21081Y15202D1*
X21052Y15059D1*
X21088Y14901D1*
X21065Y14778D1*
X21047Y14749D1*
X21087Y14599D1*
X21065Y14466D1*
X21055Y14449D1*
X21092Y14289D1*
X21069Y14167D1*
X21051Y14137D1*
X21092Y13988D1*
X21069Y13854D1*
X21051Y13825D1*
X21066Y13798D1*
X21093Y13665D1*
X21070Y13543D1*
X21005Y13437D1*
X20906Y13362D1*
X20787Y13327D1*
X20663Y13337D1*
X20603Y13366D1*
X20474Y13327D1*
X20350Y13337D1*
X20291Y13366D1*
X20162Y13327D1*
X20038Y13337D1*
X19926Y13392D1*
X19841Y13482D1*
X19794Y13598D1*
X19792Y13722D1*
X19828Y13820D1*
X19794Y13909D1*
X19792Y14033D1*
X19828Y14132D1*
X19794Y14221D1*
X19792Y14346D1*
X19823Y14430D1*
X19789Y14520D1*
X19787Y14645D1*
X19823Y14743D1*
X19789Y14833D1*
X19787Y14957D1*
X19815Y15034D1*
X19783Y15123D1*
X19781Y15247D1*
X19817Y15346D1*
X22257Y37318D2*
X22192Y37212D1*
X22093Y37137D1*
X21974Y37102D1*
X21850Y37112D1*
X21738Y37166D1*
X21653Y37257D1*
X21607Y37372D1*
X21605Y37497D1*
X21647Y37613D1*
X21729Y37707D1*
X21839Y37765D1*
X21963Y37779D1*
X22083Y37748D1*
X22184Y37676D1*
X22253Y37573D1*
X22280Y37440D1*
X22257Y37318D1*
X21047Y37758D2*
X20982Y37652D1*
X20883Y37577D1*
X20764Y37542D1*
X20640Y37552D1*
X20528Y37606D1*
X20443Y37697D1*
X20397Y37812D1*
X20395Y37937D1*
X20437Y38053D1*
X20519Y38147D1*
X20629Y38205D1*
X20753Y38219D1*
X20873Y38188D1*
X20974Y38116D1*
X21043Y38013D1*
X21070Y37880D1*
X21047Y37758D1*
X23757Y36378D2*
X23692Y36272D1*
X23593Y36197D1*
X23474Y36162D1*
X23350Y36172D1*
X23238Y36226D1*
X23153Y36317D1*
X23107Y36432D1*
X23105Y36557D1*
X23147Y36673D1*
X23229Y36767D1*
X23339Y36825D1*
X23463Y36839D1*
X23583Y36808D1*
X23684Y36736D1*
X23753Y36633D1*
X23780Y36500D1*
X23757Y36378D1*
X22757D2*
X22692Y36272D1*
X22593Y36197D1*
X22474Y36162D1*
X22350Y36172D1*
X22238Y36226D1*
X22153Y36317D1*
X22107Y36432D1*
X22105Y36557D1*
X22147Y36673D1*
X22229Y36767D1*
X22339Y36825D1*
X22463Y36839D1*
X22583Y36808D1*
X22684Y36736D1*
X22753Y36633D1*
X22780Y36500D1*
X22757Y36378D1*
X21757Y36388D2*
X21692Y36282D1*
X21593Y36207D1*
X21474Y36172D1*
X21350Y36182D1*
X21238Y36236D1*
X21153Y36327D1*
X21107Y36442D1*
X21105Y36567D1*
X21147Y36683D1*
X21229Y36777D1*
X21339Y36835D1*
X21463Y36849D1*
X21583Y36818D1*
X21684Y36746D1*
X21753Y36643D1*
X21780Y36510D1*
X21757Y36388D1*
X24757Y35568D2*
X24692Y35462D1*
X24593Y35387D1*
X24474Y35352D1*
X24350Y35362D1*
X24238Y35416D1*
X24153Y35507D1*
X24107Y35622D1*
X24105Y35747D1*
X24147Y35863D1*
X24229Y35957D1*
X24339Y36015D1*
X24463Y36029D1*
X24583Y35998D1*
X24684Y35926D1*
X24753Y35823D1*
X24780Y35690D1*
X24757Y35568D1*
X25757D2*
X25692Y35462D1*
X25593Y35387D1*
X25474Y35352D1*
X25350Y35362D1*
X25238Y35416D1*
X25153Y35507D1*
X25107Y35622D1*
X25105Y35747D1*
X25147Y35863D1*
X25229Y35957D1*
X25339Y36015D1*
X25463Y36029D1*
X25583Y35998D1*
X25684Y35926D1*
X25753Y35823D1*
X25780Y35690D1*
X25757Y35568D1*
Y34568D2*
X25692Y34462D1*
X25593Y34387D1*
X25474Y34352D1*
X25350Y34362D1*
X25238Y34416D1*
X25153Y34507D1*
X25107Y34622D1*
X25105Y34747D1*
X25147Y34863D1*
X25229Y34957D1*
X25339Y35015D1*
X25463Y35029D1*
X25583Y34998D1*
X25684Y34926D1*
X25753Y34823D1*
X25780Y34690D1*
X25757Y34568D1*
X26757D2*
X26692Y34462D1*
X26593Y34387D1*
X26474Y34352D1*
X26350Y34362D1*
X26238Y34416D1*
X26153Y34507D1*
X26107Y34622D1*
X26105Y34747D1*
X26147Y34863D1*
X26211Y34936D1*
X26156Y35002D1*
X26109Y35117D1*
X26107Y35242D1*
X26150Y35358D1*
X26188Y35402D1*
X26156Y35442D1*
X26109Y35557D1*
X26107Y35682D1*
X26150Y35798D1*
X26232Y35892D1*
X26342Y35950D1*
X26465Y35964D1*
X26586Y35933D1*
X26687Y35861D1*
X26756Y35758D1*
X26782Y35625D1*
X26760Y35503D1*
X26701Y35407D1*
X26756Y35318D1*
X26782Y35185D1*
X26760Y35063D1*
X26695Y34957D1*
X26673Y34940D1*
X26753Y34823D1*
X26780Y34690D1*
X26757Y34568D1*
X24727Y33568D2*
X24662Y33462D1*
X24563Y33387D1*
X24444Y33352D1*
X24320Y33362D1*
X24208Y33416D1*
X24123Y33507D1*
X24077Y33622D1*
X24075Y33747D1*
X24117Y33863D1*
X24199Y33957D1*
X24251Y33984D1*
X24203Y34047D1*
X24157Y34162D1*
X24155Y34287D1*
X24197Y34403D1*
X24279Y34497D1*
X24389Y34555D1*
X24513Y34569D1*
X24633Y34538D1*
X24734Y34466D1*
X24803Y34363D1*
X24830Y34230D1*
X24807Y34108D1*
X24742Y34002D1*
X24646Y33929D1*
X24723Y33823D1*
X24750Y33690D1*
X24727Y33568D1*
X25757D2*
X25692Y33462D1*
X25593Y33387D1*
X25474Y33352D1*
X25350Y33362D1*
X25238Y33416D1*
X25153Y33507D1*
X25107Y33622D1*
X25105Y33747D1*
X25147Y33863D1*
X25229Y33957D1*
X25339Y34015D1*
X25463Y34029D1*
X25583Y33998D1*
X25684Y33926D1*
X25753Y33823D1*
X25780Y33690D1*
X25757Y33568D1*
X26757D2*
X26692Y33462D1*
X26593Y33387D1*
X26474Y33352D1*
X26350Y33362D1*
X26238Y33416D1*
X26153Y33507D1*
X26107Y33622D1*
X26105Y33747D1*
X26147Y33863D1*
X26229Y33957D1*
X26339Y34015D1*
X26463Y34029D1*
X26583Y33998D1*
X26684Y33926D1*
X26753Y33823D1*
X26780Y33690D1*
X26757Y33568D1*
X24757Y32568D2*
X24692Y32462D1*
X24593Y32387D1*
X24474Y32352D1*
X24350Y32362D1*
X24238Y32416D1*
X24153Y32507D1*
X24107Y32622D1*
X24105Y32747D1*
X24147Y32863D1*
X24229Y32957D1*
X24339Y33015D1*
X24463Y33029D1*
X24583Y32998D1*
X24684Y32926D1*
X24753Y32823D1*
X24780Y32690D1*
X24757Y32568D1*
Y30068D2*
X24692Y29962D1*
X24593Y29887D1*
X24474Y29852D1*
X24350Y29862D1*
X24238Y29916D1*
X24153Y30007D1*
X24107Y30122D1*
X24105Y30247D1*
X24147Y30363D1*
X24229Y30457D1*
X24339Y30515D1*
X24463Y30529D1*
X24583Y30498D1*
X24684Y30426D1*
X24753Y30323D1*
X24780Y30190D1*
X24757Y30068D1*
X23757Y30318D2*
X23692Y30212D1*
X23593Y30137D1*
X23474Y30102D1*
X23350Y30112D1*
X23238Y30166D1*
X23153Y30257D1*
X23107Y30372D1*
X23105Y30497D1*
X23147Y30613D1*
X23229Y30707D1*
X23339Y30765D1*
X23463Y30779D1*
X23583Y30748D1*
X23684Y30676D1*
X23753Y30573D1*
X23780Y30440D1*
X23757Y30318D1*
Y29568D2*
X23692Y29462D1*
X23593Y29387D1*
X23474Y29352D1*
X23350Y29362D1*
X23238Y29416D1*
X23153Y29507D1*
X23107Y29622D1*
X23105Y29747D1*
X23147Y29863D1*
X23229Y29957D1*
X23339Y30015D1*
X23463Y30029D1*
X23583Y29998D1*
X23684Y29926D1*
X23753Y29823D1*
X23780Y29690D1*
X23757Y29568D1*
X23945Y28068D2*
X23880Y27962D1*
X23781Y27887D1*
X23662Y27852D1*
X23538Y27862D1*
X23426Y27916D1*
X23341Y28007D1*
X23294Y28122D1*
X23292Y28247D1*
X23335Y28363D1*
X23417Y28457D1*
X23527Y28515D1*
X23650Y28529D1*
X23771Y28498D1*
X23872Y28426D1*
X23941Y28323D1*
X23967Y28190D1*
X23945Y28068D1*
X24847D2*
X24782Y27962D1*
X24683Y27887D1*
X24564Y27852D1*
X24440Y27862D1*
X24328Y27916D1*
X24243Y28007D1*
X24197Y28122D1*
X24195Y28247D1*
X24237Y28363D1*
X24319Y28457D1*
X24429Y28515D1*
X24553Y28529D1*
X24673Y28498D1*
X24774Y28426D1*
X24843Y28323D1*
X24870Y28190D1*
X24847Y28068D1*
X25907D2*
X25842Y27962D1*
X25743Y27887D1*
X25624Y27852D1*
X25500Y27862D1*
X25388Y27916D1*
X25303Y28007D1*
X25257Y28122D1*
X25255Y28247D1*
X25297Y28363D1*
X25379Y28457D1*
X25489Y28515D1*
X25613Y28529D1*
X25733Y28498D1*
X25834Y28426D1*
X25903Y28323D1*
X25930Y28190D1*
X25907Y28068D1*
X26917D2*
X26852Y27962D1*
X26753Y27887D1*
X26634Y27852D1*
X26510Y27862D1*
X26398Y27916D1*
X26313Y28007D1*
X26267Y28122D1*
X26265Y28247D1*
X26307Y28363D1*
X26389Y28457D1*
X26499Y28515D1*
X26623Y28529D1*
X26743Y28498D1*
X26844Y28426D1*
X26913Y28323D1*
X26940Y28190D1*
X26917Y28068D1*
X24507Y29068D2*
X24442Y28962D1*
X24343Y28887D1*
X24224Y28852D1*
X24100Y28862D1*
X23988Y28916D1*
X23903Y29007D1*
X23857Y29122D1*
X23855Y29247D1*
X23897Y29363D1*
X23979Y29457D1*
X24089Y29515D1*
X24213Y29529D1*
X24333Y29498D1*
X24434Y29426D1*
X24503Y29323D1*
X24530Y29190D1*
X24507Y29068D1*
X25757Y30068D2*
X25692Y29962D1*
X25593Y29887D1*
X25474Y29852D1*
X25350Y29862D1*
X25238Y29916D1*
X25153Y30007D1*
X25107Y30122D1*
X25105Y30247D1*
X25147Y30363D1*
X25229Y30457D1*
X25339Y30515D1*
X25463Y30529D1*
X25583Y30498D1*
X25684Y30426D1*
X25753Y30323D1*
X25780Y30190D1*
X25757Y30068D1*
X26757Y17818D2*
X26692Y17712D1*
X26593Y17637D1*
X26474Y17602D1*
X26350Y17612D1*
X26238Y17666D1*
X26153Y17757D1*
X26107Y17872D1*
X26105Y17997D1*
X26147Y18113D1*
X26229Y18207D1*
X26339Y18265D1*
X26463Y18279D1*
X26583Y18248D1*
X26684Y18176D1*
X26753Y18073D1*
X26780Y17940D1*
X26757Y17818D1*
X22757Y11818D2*
X22692Y11712D1*
X22593Y11637D1*
X22474Y11602D1*
X22350Y11612D1*
X22238Y11666D1*
X22153Y11757D1*
X22107Y11872D1*
X22105Y11997D1*
X22147Y12113D1*
X22229Y12207D1*
X22339Y12265D1*
X22463Y12279D1*
X22583Y12248D1*
X22684Y12176D1*
X22753Y12073D1*
X22780Y11940D1*
X22757Y11818D1*
X23757D2*
X23692Y11712D1*
X23593Y11637D1*
X23474Y11602D1*
X23350Y11612D1*
X23238Y11666D1*
X23153Y11757D1*
X23107Y11872D1*
X23105Y11997D1*
X23147Y12113D1*
X23229Y12207D1*
X23339Y12265D1*
X23463Y12279D1*
X23583Y12248D1*
X23684Y12176D1*
X23753Y12073D1*
X23780Y11940D1*
X23757Y11818D1*
X24757D2*
X24692Y11712D1*
X24593Y11637D1*
X24474Y11602D1*
X24350Y11612D1*
X24238Y11666D1*
X24153Y11757D1*
X24107Y11872D1*
X24105Y11997D1*
X24147Y12113D1*
X24229Y12207D1*
X24339Y12265D1*
X24463Y12279D1*
X24583Y12248D1*
X24684Y12176D1*
X24753Y12073D1*
X24780Y11940D1*
X24757Y11818D1*
X25757D2*
X25692Y11712D1*
X25593Y11637D1*
X25474Y11602D1*
X25350Y11612D1*
X25238Y11666D1*
X25153Y11757D1*
X25107Y11872D1*
X25105Y11997D1*
X25147Y12113D1*
X25229Y12207D1*
X25339Y12265D1*
X25463Y12279D1*
X25583Y12248D1*
X25684Y12176D1*
X25753Y12073D1*
X25780Y11940D1*
X25757Y11818D1*
X22757Y10818D2*
X22692Y10712D1*
X22593Y10637D1*
X22474Y10602D1*
X22350Y10612D1*
X22238Y10666D1*
X22153Y10757D1*
X22107Y10872D1*
X22105Y10997D1*
X22147Y11113D1*
X22229Y11207D1*
X22339Y11265D1*
X22463Y11279D1*
X22583Y11248D1*
X22684Y11176D1*
X22753Y11073D1*
X22780Y10940D1*
X22757Y10818D1*
X23757D2*
X23692Y10712D1*
X23593Y10637D1*
X23474Y10602D1*
X23350Y10612D1*
X23238Y10666D1*
X23153Y10757D1*
X23107Y10872D1*
X23105Y10997D1*
X23147Y11113D1*
X23229Y11207D1*
X23339Y11265D1*
X23463Y11279D1*
X23583Y11248D1*
X23684Y11176D1*
X23753Y11073D1*
X23780Y10940D1*
X23757Y10818D1*
X24757D2*
X24692Y10712D1*
X24593Y10637D1*
X24474Y10602D1*
X24350Y10612D1*
X24238Y10666D1*
X24153Y10757D1*
X24107Y10872D1*
X24105Y10997D1*
X24147Y11113D1*
X24229Y11207D1*
X24339Y11265D1*
X24463Y11279D1*
X24583Y11248D1*
X24684Y11176D1*
X24753Y11073D1*
X24780Y10940D1*
X24757Y10818D1*
X25757D2*
X25692Y10712D1*
X25593Y10637D1*
X25474Y10602D1*
X25350Y10612D1*
X25238Y10666D1*
X25153Y10757D1*
X25107Y10872D1*
X25105Y10997D1*
X25147Y11113D1*
X25229Y11207D1*
X25339Y11265D1*
X25463Y11279D1*
X25583Y11248D1*
X25684Y11176D1*
X25753Y11073D1*
X25780Y10940D1*
X25757Y10818D1*
X24757Y4818D2*
X24692Y4712D1*
X24593Y4637D1*
X24474Y4602D1*
X24350Y4612D1*
X24238Y4666D1*
X24153Y4757D1*
X24107Y4872D1*
X24105Y4997D1*
X24147Y5113D1*
X24170Y5140D1*
X24047Y5203D1*
X23963Y5295D1*
X23913Y5409D1*
X23901Y5533D1*
X23928Y5654D1*
X23993Y5761D1*
X24088Y5842D1*
X24203Y5888D1*
X24327Y5896D1*
X24448Y5865D1*
X24552Y5797D1*
X24630Y5700D1*
X24673Y5583D1*
X24680Y5508D1*
X24660Y5385D1*
X24603Y5275D1*
X24583Y5248D1*
X24684Y5176D1*
X24753Y5073D1*
X24780Y4940D1*
X24757Y4818D1*
X23757D2*
X23692Y4712D1*
X23593Y4637D1*
X23474Y4602D1*
X23350Y4612D1*
X23238Y4666D1*
X23153Y4757D1*
X23107Y4872D1*
X23105Y4997D1*
X23147Y5113D1*
X23229Y5207D1*
X23339Y5265D1*
X23463Y5279D1*
X23583Y5248D1*
X23684Y5176D1*
X23753Y5073D1*
X23780Y4940D1*
X23757Y4818D1*
X21757D2*
X21692Y4712D1*
X21593Y4637D1*
X21474Y4602D1*
X21350Y4612D1*
X21238Y4666D1*
X21153Y4757D1*
X21107Y4872D1*
X21105Y4997D1*
X21147Y5113D1*
X21229Y5207D1*
X21339Y5265D1*
X21463Y5279D1*
X21583Y5248D1*
X21684Y5176D1*
X21753Y5073D1*
X21780Y4940D1*
X21757Y4818D1*
X20757D2*
X20692Y4712D1*
X20593Y4637D1*
X20474Y4602D1*
X20350Y4612D1*
X20238Y4666D1*
X20153Y4757D1*
X20107Y4872D1*
X20105Y4997D1*
X20147Y5113D1*
X20229Y5207D1*
X20339Y5265D1*
X20463Y5279D1*
X20583Y5248D1*
X20684Y5176D1*
X20753Y5073D1*
X20780Y4940D1*
X20757Y4818D1*
Y12818D2*
X20692Y12712D1*
X20593Y12637D1*
X20474Y12602D1*
X20350Y12612D1*
X20238Y12666D1*
X20153Y12757D1*
X20107Y12872D1*
X20105Y12997D1*
X20147Y13113D1*
X20229Y13207D1*
X20339Y13265D1*
X20463Y13279D1*
X20583Y13248D1*
X20684Y13176D1*
X20753Y13073D1*
X20780Y12940D1*
X20757Y12818D1*
X21807Y12768D2*
X21742Y12662D1*
X21643Y12587D1*
X21524Y12552D1*
X21400Y12562D1*
X21288Y12616D1*
X21203Y12707D1*
X21157Y12822D1*
X21155Y12947D1*
X21197Y13063D1*
X21279Y13157D1*
X21389Y13215D1*
X21513Y13229D1*
X21633Y13198D1*
X21734Y13126D1*
X21803Y13023D1*
X21830Y12890D1*
X21807Y12768D1*
X21757Y23818D2*
X21692Y23712D1*
X21593Y23637D1*
X21474Y23602D1*
X21350Y23612D1*
X21238Y23666D1*
X21153Y23757D1*
X21107Y23872D1*
X21105Y23997D1*
X21147Y24113D1*
X21229Y24207D1*
X21339Y24265D1*
X21463Y24279D1*
X21583Y24248D1*
X21684Y24176D1*
X21753Y24073D1*
X21780Y23940D1*
X21757Y23818D1*
Y24818D2*
X21692Y24712D1*
X21593Y24637D1*
X21474Y24602D1*
X21350Y24612D1*
X21238Y24666D1*
X21153Y24757D1*
X21107Y24872D1*
X21105Y24997D1*
X21147Y25113D1*
X21229Y25207D1*
X21339Y25265D1*
X21463Y25279D1*
X21583Y25248D1*
X21684Y25176D1*
X21753Y25073D1*
X21780Y24940D1*
X21757Y24818D1*
X20757D2*
X20692Y24712D1*
X20593Y24637D1*
X20474Y24602D1*
X20350Y24612D1*
X20238Y24666D1*
X20153Y24757D1*
X20107Y24872D1*
X20105Y24997D1*
X20147Y25113D1*
X20229Y25207D1*
X20339Y25265D1*
X20463Y25279D1*
X20583Y25248D1*
X20684Y25176D1*
X20753Y25073D1*
X20780Y24940D1*
X20757Y24818D1*
X19757D2*
X19692Y24712D1*
X19593Y24637D1*
X19474Y24602D1*
X19350Y24612D1*
X19238Y24666D1*
X19153Y24757D1*
X19107Y24872D1*
X19105Y24997D1*
X19147Y25113D1*
X19229Y25207D1*
X19339Y25265D1*
X19463Y25279D1*
X19583Y25248D1*
X19684Y25176D1*
X19753Y25073D1*
X19780Y24940D1*
X19757Y24818D1*
X20757Y21818D2*
X20692Y21712D1*
X20593Y21637D1*
X20474Y21602D1*
X20350Y21612D1*
X20238Y21666D1*
X20153Y21757D1*
X20107Y21872D1*
X20105Y21997D1*
X20147Y22113D1*
X20229Y22207D1*
X20339Y22265D1*
X20463Y22279D1*
X20583Y22248D1*
X20684Y22176D1*
X20753Y22073D1*
X20780Y21940D1*
X20757Y21818D1*
X21757D2*
X21692Y21712D1*
X21593Y21637D1*
X21474Y21602D1*
X21350Y21612D1*
X21238Y21666D1*
X21153Y21757D1*
X21107Y21872D1*
X21105Y21997D1*
X21147Y22113D1*
X21229Y22207D1*
X21339Y22265D1*
X21463Y22279D1*
X21583Y22248D1*
X21684Y22176D1*
X21753Y22073D1*
X21780Y21940D1*
X21757Y21818D1*
Y20818D2*
X21692Y20712D1*
X21593Y20637D1*
X21474Y20602D1*
X21350Y20612D1*
X21238Y20666D1*
X21153Y20757D1*
X21107Y20872D1*
X21105Y20997D1*
X21147Y21113D1*
X21229Y21207D1*
X21339Y21265D1*
X21463Y21279D1*
X21583Y21248D1*
X21684Y21176D1*
X21753Y21073D1*
X21780Y20940D1*
X21757Y20818D1*
X22757Y19818D2*
X22692Y19712D1*
X22593Y19637D1*
X22474Y19602D1*
X22350Y19612D1*
X22238Y19666D1*
X22153Y19757D1*
X22107Y19872D1*
X22105Y19997D1*
X22147Y20113D1*
X22229Y20207D1*
X22339Y20265D1*
X22463Y20279D1*
X22583Y20248D1*
X22684Y20176D1*
X22753Y20073D1*
X22780Y19940D1*
X22757Y19818D1*
X20757Y20818D2*
X20692Y20712D1*
X20593Y20637D1*
X20474Y20602D1*
X20350Y20612D1*
X20238Y20666D1*
X20153Y20757D1*
X20107Y20872D1*
X20105Y20997D1*
X20147Y21113D1*
X20229Y21207D1*
X20339Y21265D1*
X20463Y21279D1*
X20583Y21248D1*
X20684Y21176D1*
X20753Y21073D1*
X20780Y20940D1*
X20757Y20818D1*
X27288Y43133D2*
X27437Y43014D1*
X27605Y42829D1*
X27690Y42703D1*
X27692Y43132D1*
X27290D1*
X14570Y37880D2*
X14505Y37774D1*
X14406Y37699D1*
X14287Y37664D1*
X14163Y37675D1*
X14051Y37729D1*
X13966Y37820D1*
X13919Y37935D1*
X13917Y38059D1*
X13960Y38176D1*
X14042Y38269D1*
X14152Y38327D1*
X14275Y38342D1*
X14396Y38311D1*
X14497Y38239D1*
X14566Y38135D1*
X14593Y38003D1*
X14570Y37880D1*
X11597Y39748D2*
X11532Y39642D1*
X11433Y39567D1*
X11314Y39532D1*
X11190Y39542D1*
X11078Y39596D1*
X10993Y39687D1*
X10947Y39802D1*
X10945Y39927D1*
X10987Y40043D1*
X11069Y40137D1*
X11179Y40195D1*
X11303Y40209D1*
X11423Y40178D1*
X11524Y40106D1*
X11593Y40003D1*
X11620Y39870D1*
X11597Y39748D1*
X12443Y42421D2*
X12384Y42376D1*
X12265Y42341D1*
X12141Y42352D1*
X12029Y42406D1*
X11944Y42497D1*
X11897Y42612D1*
X11895Y42736D1*
X11938Y42853D1*
X12020Y42946D1*
X12130Y43004D1*
X12253Y43019D1*
X12374Y42988D1*
X12472Y42918D1*
X10647Y39098D2*
X10573Y38985D1*
X10643Y38883D1*
X10670Y38750D1*
X10647Y38628D1*
X10582Y38522D1*
X10483Y38447D1*
X10364Y38412D1*
X10240Y38422D1*
X10128Y38476D1*
X10043Y38567D1*
X9997Y38682D1*
X9995Y38807D1*
X10037Y38923D1*
X10086Y38979D1*
X10043Y39037D1*
X9997Y39152D1*
X9995Y39277D1*
X10037Y39393D1*
X10119Y39487D1*
X10229Y39545D1*
X10353Y39559D1*
X10473Y39528D1*
X10574Y39456D1*
X10643Y39353D1*
X10670Y39220D1*
X10647Y39098D1*
X11597Y39748D2*
X11532Y39642D1*
X11433Y39567D1*
X11314Y39532D1*
X11190Y39542D1*
X11078Y39596D1*
X10993Y39687D1*
X10947Y39802D1*
X10945Y39927D1*
X10987Y40043D1*
X11069Y40137D1*
X11179Y40195D1*
X11303Y40209D1*
X11423Y40178D1*
X11524Y40106D1*
X11593Y40003D1*
X11620Y39870D1*
X11597Y39748D1*
X10577Y38983D2*
X10643Y38883D1*
X10670Y38750D1*
X10647Y38628D1*
X10582Y38522D1*
X10483Y38447D1*
X10364Y38412D1*
X10240Y38422D1*
X10128Y38476D1*
X10043Y38567D1*
X9997Y38682D1*
X9995Y38807D1*
X10037Y38923D1*
X10086Y38979D1*
X9149Y41156D2*
X9132Y41068D1*
X9067Y40962D1*
X8968Y40887D1*
X8849Y40852D1*
X8725Y40862D1*
X8613Y40916D1*
X8528Y41007D1*
X8482Y41122D1*
X8480Y41247D1*
X8522Y41363D1*
X8604Y41457D1*
X8714Y41515D1*
X8838Y41529D1*
X8902Y41513D1*
Y41544D1*
X8945Y41661D1*
X9027Y41754D1*
X9137Y41812D1*
X9260Y41827D1*
X9381Y41796D1*
X9482Y41724D1*
X9551Y41620D1*
X9577Y41487D1*
X9555Y41365D1*
X9490Y41259D1*
X9391Y41184D1*
X9272Y41149D1*
X9152Y41159D1*
X11445Y41380D2*
X11380Y41274D1*
X11281Y41199D1*
X11162Y41164D1*
X11038Y41175D1*
X10926Y41229D1*
X10841Y41320D1*
X10794Y41435D1*
X10792Y41559D1*
X10835Y41676D1*
X10917Y41769D1*
X11027Y41827D1*
X11150Y41842D1*
X11271Y41811D1*
X11372Y41739D1*
X11441Y41635D1*
X11468Y41503D1*
X11445Y41380D1*
X12887Y41085D2*
X12822Y40979D1*
X12723Y40904D1*
X12604Y40869D1*
X12480Y40880D1*
X12368Y40934D1*
X12283Y41025D1*
X12237Y41140D1*
X12235Y41264D1*
X12277Y41381D1*
X12359Y41474D1*
X12469Y41532D1*
X12593Y41547D1*
X12713Y41516D1*
X12814Y41444D1*
X12883Y41340D1*
X12910Y41207D1*
X12887Y41085D1*
X23504Y34611D2*
X23439Y34505D1*
X23340Y34430D1*
X23221Y34395D1*
X23097Y34405D1*
X22985Y34459D1*
X22900Y34550D1*
X22854Y34665D1*
X22852Y34790D1*
X22894Y34906D1*
X22976Y35000D1*
X23086Y35058D1*
X23210Y35072D1*
X23330Y35041D1*
X23431Y34969D1*
X23500Y34866D1*
X23527Y34733D1*
X23504Y34611D1*
X20497Y36048D2*
X20432Y35942D1*
X20333Y35867D1*
X20214Y35832D1*
X20090Y35842D1*
X19978Y35896D1*
X19893Y35987D1*
X19847Y36102D1*
X19845Y36227D1*
X19887Y36343D1*
X19969Y36437D1*
X20079Y36495D1*
X20203Y36509D1*
X20323Y36478D1*
X20424Y36406D1*
X20493Y36303D1*
X20520Y36170D1*
X20497Y36048D1*
X23504Y34611D2*
X23439Y34505D1*
X23340Y34430D1*
X23221Y34395D1*
X23097Y34405D1*
X22985Y34459D1*
X22900Y34550D1*
X22854Y34665D1*
X22852Y34790D1*
X22894Y34906D1*
X22976Y35000D1*
X23086Y35058D1*
X23210Y35072D1*
X23330Y35041D1*
X23431Y34969D1*
X23500Y34866D1*
X23527Y34733D1*
X23504Y34611D1*
X21848Y28742D2*
X21842Y28708D1*
X21777Y28602D1*
X21678Y28527D1*
X21559Y28492D1*
X21435Y28502D1*
X21323Y28556D1*
X21238Y28647D1*
X21191Y28762D1*
X21189Y28887D1*
X21232Y29003D1*
X21314Y29097D1*
X21424Y29155D1*
X21547Y29169D1*
X21668Y29138D1*
X21769Y29066D1*
X21838Y28963D1*
X21847Y28921D1*
X21883Y29003D1*
X21965Y29097D1*
X22075Y29155D1*
X22198Y29169D1*
X22319Y29138D1*
X22420Y29066D1*
X22488Y28963D1*
X22515Y28830D1*
X22493Y28708D1*
X22428Y28602D1*
X22329Y28527D1*
X22209Y28492D1*
X22086Y28502D1*
X21974Y28556D1*
X21889Y28647D1*
X21852Y28737D1*
X19743Y28708D2*
X19678Y28602D1*
X19579Y28527D1*
X19459Y28492D1*
X19336Y28502D1*
X19224Y28556D1*
X19139Y28647D1*
X19092Y28762D1*
X19090Y28887D1*
X19133Y29003D1*
X19215Y29097D1*
X19325Y29155D1*
X19448Y29169D1*
X19569Y29138D1*
X19670Y29066D1*
X19738Y28963D1*
X19765Y28830D1*
X19743Y28708D1*
X23504Y34611D2*
X23439Y34505D1*
X23340Y34430D1*
X23221Y34395D1*
X23097Y34405D1*
X22985Y34459D1*
X22900Y34550D1*
X22854Y34665D1*
X22852Y34790D1*
X22894Y34906D1*
X22976Y35000D1*
X23086Y35058D1*
X23210Y35072D1*
X23330Y35041D1*
X23431Y34969D1*
X23500Y34866D1*
X23527Y34733D1*
X23504Y34611D1*
X23487Y31990D2*
X23453Y32027D1*
X23403Y32141D1*
X23391Y32265D1*
X23418Y32386D1*
X23483Y32493D1*
X23578Y32573D1*
X23693Y32620D1*
X23817Y32628D1*
X23938Y32597D1*
X24042Y32529D1*
X24120Y32432D1*
X24163Y32315D1*
X24170Y32240D1*
X24150Y32117D1*
X24093Y32007D1*
X24073Y31988D1*
X24120Y31922D1*
X24163Y31805D1*
X24170Y31730D1*
X24150Y31607D1*
X24084Y31489D1*
X24120Y31432D1*
X24163Y31315D1*
X24170Y31240D1*
X24150Y31117D1*
X24093Y31007D1*
X24003Y30920D1*
X23891Y30866D1*
X23768Y30850D1*
X23645Y30874D1*
X23537Y30935D1*
X23453Y31027D1*
X23403Y31141D1*
X23391Y31265D1*
X23418Y31386D1*
X23477Y31483D1*
X23403Y31631D1*
X23391Y31755D1*
X23418Y31876D1*
X23486Y31985D1*
X23453Y32027D1*
X23403Y32141D1*
X23391Y32265D1*
X23418Y32386D1*
X23483Y32493D1*
X23578Y32573D1*
X23693Y32620D1*
X23817Y32628D1*
X23938Y32597D1*
X24042Y32529D1*
X24120Y32432D1*
X24163Y32315D1*
X24170Y32240D1*
X24150Y32117D1*
X24093Y32007D1*
X24073Y31988D1*
X22668Y25008D2*
X22603Y24902D1*
X22504Y24827D1*
X22385Y24792D1*
X22261Y24802D1*
X22149Y24856D1*
X22064Y24947D1*
X22018Y25062D1*
X22015Y25187D1*
X22058Y25303D1*
X22140Y25397D1*
X22250Y25455D1*
X22373Y25469D1*
X22494Y25438D1*
X22595Y25366D1*
X22664Y25263D1*
X22691Y25130D1*
X22668Y25008D1*
X27337Y25028D2*
X27272Y24922D1*
X27173Y24847D1*
X27054Y24812D1*
X26930Y24822D1*
X26818Y24876D1*
X26733Y24967D1*
X26687Y25082D1*
X26685Y25207D1*
X26727Y25323D1*
X26809Y25417D1*
X26919Y25475D1*
X27043Y25489D1*
X27163Y25458D1*
X27264Y25386D1*
X27333Y25283D1*
X27360Y25150D1*
X27337Y25028D1*
X22867Y23908D2*
X22802Y23802D1*
X22703Y23727D1*
X22584Y23692D1*
X22460Y23702D1*
X22348Y23756D1*
X22263Y23847D1*
X22217Y23962D1*
X22215Y24087D1*
X22257Y24203D1*
X22339Y24297D1*
X22449Y24355D1*
X22573Y24369D1*
X22693Y24338D1*
X22794Y24266D1*
X22863Y24163D1*
X22890Y24030D1*
X22867Y23908D1*
X27017Y24168D2*
X26952Y24062D1*
X26853Y23987D1*
X26734Y23952D1*
X26610Y23962D1*
X26498Y24016D1*
X26413Y24107D1*
X26367Y24222D1*
X26365Y24347D1*
X26407Y24463D1*
X26489Y24557D1*
X26599Y24615D1*
X26723Y24629D1*
X26843Y24598D1*
X26944Y24526D1*
X27013Y24423D1*
X27040Y24290D1*
X27017Y24168D1*
X22867Y23908D2*
X22802Y23802D1*
X22703Y23727D1*
X22584Y23692D1*
X22460Y23702D1*
X22348Y23756D1*
X22263Y23847D1*
X22217Y23962D1*
X22215Y24087D1*
X22257Y24203D1*
X22339Y24297D1*
X22449Y24355D1*
X22573Y24369D1*
X22693Y24338D1*
X22794Y24266D1*
X22863Y24163D1*
X22890Y24030D1*
X22867Y23908D1*
X22897Y23108D2*
X22832Y23002D1*
X22733Y22927D1*
X22614Y22892D1*
X22490Y22902D1*
X22378Y22956D1*
X22293Y23047D1*
X22247Y23162D1*
X22245Y23287D1*
X22287Y23403D1*
X22369Y23497D1*
X22479Y23555D1*
X22603Y23569D1*
X22723Y23538D1*
X22824Y23466D1*
X22893Y23363D1*
X22920Y23230D1*
X22897Y23108D1*
X22867Y23908D2*
X22802Y23802D1*
X22703Y23727D1*
X22584Y23692D1*
X22460Y23702D1*
X22348Y23756D1*
X22263Y23847D1*
X22217Y23962D1*
X22215Y24087D1*
X22257Y24203D1*
X22339Y24297D1*
X22449Y24355D1*
X22573Y24369D1*
X22693Y24338D1*
X22794Y24266D1*
X22863Y24163D1*
X22890Y24030D1*
X22867Y23908D1*
X21516Y30098D2*
X21413Y30197D1*
X21367Y30312D1*
X21365Y30437D1*
X21407Y30553D1*
X21489Y30647D1*
X21599Y30705D1*
X21723Y30719D1*
X21843Y30688D1*
X21944Y30616D1*
X22013Y30513D1*
X22040Y30380D1*
X22017Y30258D1*
X21952Y30152D1*
X21881Y30098D1*
X22017Y30258D1*
X21952Y30152D1*
X21881Y30098D1*
X21944Y30046D1*
X22013Y29943D1*
X22040Y29810D1*
X22017Y29688D1*
X21952Y29582D1*
X21853Y29507D1*
X21734Y29472D1*
X21610Y29482D1*
X21498Y29536D1*
X21413Y29627D1*
X21367Y29742D1*
X21365Y29867D1*
X21407Y29983D1*
X21489Y30077D1*
X21520Y30093D1*
X21413Y30197D1*
X21367Y30312D1*
X21365Y30437D1*
X21407Y30553D1*
X21489Y30647D1*
X21599Y30705D1*
X21723Y30719D1*
X21843Y30688D1*
X21944Y30616D1*
X22013Y30513D1*
X22040Y30380D1*
X22017Y30258D1*
X17690Y30085D2*
X17613Y30167D1*
X17567Y30282D1*
X17565Y30407D1*
X17607Y30523D1*
X17689Y30617D1*
X17799Y30675D1*
X17923Y30689D1*
X18043Y30658D1*
X18144Y30586D1*
X18213Y30483D1*
X18240Y30350D1*
X18217Y30228D1*
X18152Y30122D1*
X18106Y30087D1*
X25195Y16148D2*
X25130Y16042D1*
X25031Y15967D1*
X24912Y15932D1*
X24788Y15942D1*
X24676Y15996D1*
X24591Y16087D1*
X24544Y16202D1*
X24542Y16327D1*
X24585Y16443D1*
X24667Y16537D1*
X24777Y16595D1*
X24900Y16609D1*
X25021Y16578D1*
X25122Y16506D1*
X25191Y16403D1*
X25218Y16270D1*
X25195Y16148D1*
Y14274D2*
X25130Y14168D1*
X25031Y14092D1*
X24912Y14057D1*
X24788Y14068D1*
X24676Y14122D1*
X24591Y14213D1*
X24544Y14328D1*
X24542Y14452D1*
X24585Y14569D1*
X24667Y14663D1*
X24777Y14720D1*
X24900Y14735D1*
X25021Y14704D1*
X25122Y14632D1*
X25191Y14528D1*
X25218Y14396D1*
X25195Y14274D1*
X25130Y14168D1*
X25031Y14092D1*
X24912Y14057D1*
X24788Y14068D1*
X24676Y14122D1*
X24591Y14213D1*
X24544Y14328D1*
X24542Y14452D1*
X24585Y14569D1*
X24667Y14663D1*
X24777Y14720D1*
X24900Y14735D1*
X25021Y14704D1*
X25122Y14632D1*
X25191Y14528D1*
X25218Y14396D1*
X25195Y14274D1*
X23237Y12838D2*
X23172Y12732D1*
X23073Y12657D1*
X22954Y12622D1*
X22830Y12632D1*
X22718Y12686D1*
X22633Y12777D1*
X22587Y12892D1*
X22585Y13017D1*
X22627Y13133D1*
X22709Y13227D1*
X22819Y13285D1*
X22943Y13299D1*
X23063Y13268D1*
X23164Y13196D1*
X23233Y13093D1*
X23260Y12960D1*
X23237Y12838D1*
X23987Y12808D2*
X23922Y12702D1*
X23823Y12627D1*
X23704Y12592D1*
X23580Y12602D1*
X23468Y12656D1*
X23383Y12747D1*
X23337Y12862D1*
X23335Y12987D1*
X23377Y13103D1*
X23459Y13197D1*
X23569Y13255D1*
X23693Y13269D1*
X23813Y13238D1*
X23914Y13166D1*
X23983Y13063D1*
X24010Y12930D1*
X23987Y12808D1*
X23237Y12838D2*
X23172Y12732D1*
X23073Y12657D1*
X22954Y12622D1*
X22830Y12632D1*
X22718Y12686D1*
X22633Y12777D1*
X22587Y12892D1*
X22585Y13017D1*
X22627Y13133D1*
X22709Y13227D1*
X22819Y13285D1*
X22943Y13299D1*
X23063Y13268D1*
X23164Y13196D1*
X23233Y13093D1*
X23260Y12960D1*
X23237Y12838D1*
X23247Y17568D2*
X23182Y17462D1*
X23083Y17387D1*
X22964Y17352D1*
X22840Y17362D1*
X22728Y17416D1*
X22651Y17499D1*
X22592Y17459D1*
X22473Y17424D1*
X22349Y17434D1*
X22237Y17489D1*
X22153Y17579D1*
X22106Y17695D1*
X22104Y17819D1*
X22147Y17936D1*
X22228Y18029D1*
X22338Y18087D1*
X22462Y18102D1*
X22582Y18071D1*
X22684Y17999D1*
X22716Y17950D1*
X22829Y18015D1*
X22953Y18029D1*
X23073Y17998D1*
X23174Y17926D1*
X23243Y17823D1*
X23270Y17690D1*
X23247Y17568D1*
X24007Y17578D2*
X23942Y17472D1*
X23843Y17397D1*
X23724Y17362D1*
X23600Y17372D1*
X23488Y17426D1*
X23403Y17517D1*
X23357Y17632D1*
X23355Y17757D1*
X23397Y17873D1*
X23479Y17967D1*
X23589Y18025D1*
X23713Y18039D1*
X23833Y18008D1*
X23934Y17936D1*
X24003Y17833D1*
X24030Y17700D1*
X24007Y17578D1*
X25267Y10277D2*
X25202Y10171D1*
X25103Y10096D1*
X24984Y10061D1*
X24860Y10071D1*
X24748Y10126D1*
X24663Y10216D1*
X24617Y10332D1*
X24615Y10456D1*
X24657Y10573D1*
X24739Y10666D1*
X24849Y10724D1*
X24973Y10739D1*
X25093Y10708D1*
X25194Y10636D1*
X25263Y10532D1*
X25290Y10399D1*
X25267Y10277D1*
X25357Y8908D2*
X25292Y8802D1*
X25193Y8727D1*
X25074Y8692D1*
X24950Y8702D1*
X24838Y8756D1*
X24753Y8847D1*
X24707Y8962D1*
X24705Y9087D1*
X24747Y9203D1*
X24829Y9297D1*
X24939Y9355D1*
X25063Y9369D1*
X25183Y9338D1*
X25284Y9266D1*
X25353Y9163D1*
X25380Y9030D1*
X25357Y8908D1*
X25267Y10277D2*
X25202Y10171D1*
X25103Y10096D1*
X24984Y10061D1*
X24860Y10071D1*
X24748Y10126D1*
X24663Y10216D1*
X24617Y10332D1*
X24615Y10456D1*
X24657Y10573D1*
X24739Y10666D1*
X24849Y10724D1*
X24973Y10739D1*
X25093Y10708D1*
X25194Y10636D1*
X25263Y10532D1*
X25290Y10399D1*
X25267Y10277D1*
Y6848D2*
X25202Y6742D1*
X25103Y6667D1*
X24984Y6632D1*
X24860Y6642D1*
X24748Y6696D1*
X24663Y6787D1*
X24617Y6902D1*
X24615Y7027D1*
X24657Y7143D1*
X24739Y7237D1*
X24849Y7295D1*
X24973Y7309D1*
X25093Y7278D1*
X25194Y7206D1*
X25263Y7103D1*
X25290Y6970D1*
X25267Y6848D1*
X24137Y9678D2*
X24072Y9572D1*
X23973Y9497D1*
X23854Y9462D1*
X23730Y9472D1*
X23618Y9526D1*
X23533Y9617D1*
X23487Y9732D1*
X23485Y9857D1*
X23527Y9973D1*
X23609Y10067D1*
X23719Y10125D1*
X23843Y10139D1*
X23963Y10108D1*
X24064Y10036D1*
X24133Y9933D1*
X24160Y9800D1*
X24137Y9678D1*
X23367Y9658D2*
X23302Y9552D1*
X23203Y9477D1*
X23084Y9442D1*
X22960Y9452D1*
X22848Y9506D1*
X22763Y9597D1*
X22747Y9637D1*
X22598Y9587D1*
X22474Y9597D1*
X22362Y9651D1*
X22278Y9742D1*
X22231Y9857D1*
X22229Y9981D1*
X22272Y10098D1*
X22353Y10192D1*
X22463Y10250D1*
X22587Y10264D1*
X22707Y10233D1*
X22809Y10161D1*
X22871Y10067D1*
X22949Y10105D1*
X23073Y10119D1*
X23193Y10088D1*
X23294Y10016D1*
X23363Y9913D1*
X23390Y9780D1*
X23367Y9658D1*
X24137Y9678D2*
X24072Y9572D1*
X23973Y9497D1*
X23854Y9462D1*
X23730Y9472D1*
X23618Y9526D1*
X23533Y9617D1*
X23487Y9732D1*
X23485Y9857D1*
X23527Y9973D1*
X23609Y10067D1*
X23719Y10125D1*
X23843Y10139D1*
X23963Y10108D1*
X24064Y10036D1*
X24133Y9933D1*
X24160Y9800D1*
X24137Y9678D1*
X26827Y22868D2*
X26762Y22762D1*
X26663Y22687D1*
X26544Y22652D1*
X26420Y22662D1*
X26308Y22716D1*
X26223Y22807D1*
X26177Y22922D1*
X26175Y23047D1*
X26217Y23163D1*
X26299Y23257D1*
X26409Y23315D1*
X26533Y23329D1*
X26653Y23298D1*
X26754Y23226D1*
X26823Y23123D1*
X26850Y22990D1*
X26827Y22868D1*
X23907Y35668D2*
X23842Y35562D1*
X23743Y35487D1*
X23624Y35452D1*
X23500Y35462D1*
X23388Y35516D1*
X23303Y35607D1*
X23257Y35722D1*
X23255Y35847D1*
X23297Y35963D1*
X23379Y36057D1*
X23489Y36115D1*
X23613Y36129D1*
X23733Y36098D1*
X23834Y36026D1*
X23903Y35923D1*
X23930Y35790D1*
X23907Y35668D1*
X23504Y34611D2*
X23439Y34505D1*
X23340Y34430D1*
X23221Y34395D1*
X23097Y34405D1*
X22985Y34459D1*
X22900Y34550D1*
X22854Y34665D1*
X22852Y34790D1*
X22894Y34906D1*
X22976Y35000D1*
X23086Y35058D1*
X23210Y35072D1*
X23330Y35041D1*
X23431Y34969D1*
X23500Y34866D1*
X23527Y34733D1*
X23504Y34611D1*
X21773Y19862D2*
X21864Y19796D1*
X21933Y19693D1*
X21960Y19560D1*
X21937Y19438D1*
X21872Y19332D1*
X21773Y19257D1*
X21654Y19222D1*
X21530Y19232D1*
X21418Y19286D1*
X21333Y19377D1*
X21287Y19492D1*
X21291Y19635D1*
X21238Y19666D1*
X21153Y19757D1*
X21107Y19872D1*
X21105Y19997D1*
X21147Y20113D1*
X21229Y20207D1*
X21339Y20265D1*
X21463Y20279D1*
X21583Y20248D1*
X21684Y20176D1*
X21753Y20073D1*
X21780Y19940D1*
X21767Y19867D1*
X21864Y19796D1*
X21933Y19693D1*
X21960Y19560D1*
X21937Y19438D1*
X21872Y19332D1*
X21773Y19257D1*
X21654Y19222D1*
X21530Y19232D1*
X21418Y19286D1*
X21333Y19377D1*
X21287Y19492D1*
X21291Y19635D1*
X23907Y35668D2*
X23842Y35562D1*
X23743Y35487D1*
X23624Y35452D1*
X23500Y35462D1*
X23388Y35516D1*
X23303Y35607D1*
X23257Y35722D1*
X23255Y35847D1*
X23297Y35963D1*
X23379Y36057D1*
X23489Y36115D1*
X23613Y36129D1*
X23733Y36098D1*
X23834Y36026D1*
X23903Y35923D1*
X23930Y35790D1*
X23907Y35668D1*
X26185Y35411D2*
X26156Y35442D1*
X26109Y35557D1*
X26107Y35682D1*
X26150Y35798D1*
X26232Y35892D1*
X26342Y35950D1*
X26465Y35964D1*
X26586Y35933D1*
X26687Y35861D1*
X26756Y35758D1*
X26782Y35625D1*
X26760Y35503D1*
X26701Y35407D1*
X25287Y25028D2*
X25222Y24922D1*
X25123Y24847D1*
X25004Y24812D1*
X24880Y24822D1*
X24768Y24876D1*
X24683Y24967D1*
X24637Y25082D1*
X24635Y25207D1*
X24677Y25323D1*
X24759Y25417D1*
X24869Y25475D1*
X24993Y25489D1*
X25113Y25458D1*
X25214Y25386D1*
X25283Y25283D1*
X25310Y25150D1*
X25287Y25028D1*
X23957Y25038D2*
X23892Y24932D1*
X23793Y24857D1*
X23674Y24822D1*
X23550Y24832D1*
X23438Y24886D1*
X23353Y24977D1*
X23307Y25092D1*
X23305Y25217D1*
X23347Y25333D1*
X23429Y25427D1*
X23539Y25485D1*
X23663Y25499D1*
X23783Y25468D1*
X23884Y25396D1*
X23953Y25293D1*
X23980Y25160D1*
X23957Y25038D1*
X22327Y34978D2*
X22262Y34872D1*
X22163Y34797D1*
X22044Y34762D1*
X21920Y34772D1*
X21808Y34826D1*
X21723Y34917D1*
X21677Y35032D1*
X21675Y35157D1*
X21717Y35273D1*
X21799Y35367D1*
X21909Y35425D1*
X22033Y35439D1*
X22153Y35408D1*
X22254Y35336D1*
X22323Y35233D1*
X22350Y35100D1*
X22327Y34978D1*
X20435Y39059D2*
X20481Y39002D1*
X20524Y38885D1*
X20531Y38810D1*
X20511Y38687D1*
X20454Y38577D1*
X20364Y38490D1*
X20252Y38436D1*
X20129Y38420D1*
X20007Y38444D1*
X19898Y38505D1*
X19814Y38597D1*
X19764Y38711D1*
X19752Y38835D1*
X19780Y38956D1*
X19847Y39065D1*
X15407Y37148D2*
X15342Y37042D1*
X15243Y36967D1*
X15124Y36932D1*
X15000Y36942D1*
X14888Y36996D1*
X14803Y37087D1*
X14757Y37202D1*
X14755Y37327D1*
X14797Y37443D1*
X14879Y37537D1*
X14989Y37595D1*
X15113Y37609D1*
X15233Y37578D1*
X15334Y37506D1*
X15403Y37403D1*
X15430Y37270D1*
X15407Y37148D1*
X13599Y37367D2*
X13627Y37443D1*
X13709Y37537D1*
X13819Y37595D1*
X13943Y37609D1*
X14063Y37578D1*
X14164Y37506D1*
X14233Y37403D1*
X14260Y37270D1*
X14237Y37148D1*
X14172Y37042D1*
X14073Y36967D1*
X13954Y36932D1*
X13842Y36941D1*
X13599Y37367D2*
X13627Y37443D1*
X13709Y37537D1*
X13819Y37595D1*
X13943Y37609D1*
X14063Y37578D1*
X14164Y37506D1*
X14233Y37403D1*
X14260Y37270D1*
X14237Y37148D1*
X14172Y37042D1*
X14073Y36967D1*
X13954Y36932D1*
X13842Y36941D1*
X15407Y36288D2*
X15342Y36182D1*
X15243Y36107D1*
X15124Y36072D1*
X15000Y36082D1*
X14888Y36136D1*
X14803Y36227D1*
X14757Y36342D1*
X14755Y36467D1*
X14797Y36583D1*
X14879Y36677D1*
X14989Y36735D1*
X15113Y36749D1*
X15233Y36718D1*
X15334Y36646D1*
X15403Y36543D1*
X15430Y36410D1*
X15407Y36288D1*
X18717Y37078D2*
X18652Y36972D1*
X18553Y36897D1*
X18434Y36862D1*
X18310Y36872D1*
X18198Y36926D1*
X18113Y37017D1*
X18067Y37132D1*
X18065Y37257D1*
X18107Y37373D1*
X18189Y37467D1*
X18299Y37525D1*
X18423Y37539D1*
X18543Y37508D1*
X18644Y37436D1*
X18713Y37333D1*
X18740Y37200D1*
X18717Y37078D1*
X12896Y40248D2*
X12831Y40142D1*
X12732Y40067D1*
X12613Y40032D1*
X12489Y40042D1*
X12377Y40096D1*
X12292Y40187D1*
X12245Y40302D1*
X12243Y40427D1*
X12286Y40543D1*
X12368Y40637D1*
X12478Y40695D1*
X12601Y40709D1*
X12722Y40678D1*
X12823Y40606D1*
X12892Y40503D1*
X12919Y40370D1*
X12896Y40248D1*
X10452Y39753D2*
X10387Y39647D1*
X10288Y39572D1*
X10169Y39537D1*
X10045Y39547D1*
X9933Y39601D1*
X9849Y39692D1*
X9802Y39807D1*
X9800Y39932D1*
X9843Y40048D1*
X9924Y40142D1*
X10034Y40200D1*
X10158Y40214D1*
X10278Y40184D1*
X10380Y40111D1*
X10448Y40008D1*
X10475Y39875D1*
X10452Y39753D1*
X10387Y39647D1*
X10288Y39572D1*
X10169Y39537D1*
X10045Y39547D1*
X9933Y39601D1*
X9849Y39692D1*
X9802Y39807D1*
X9800Y39932D1*
X9843Y40048D1*
X9924Y40142D1*
X10034Y40200D1*
X10158Y40214D1*
X10278Y40184D1*
X10380Y40111D1*
X10448Y40008D1*
X10475Y39875D1*
X10452Y39753D1*
X17877Y40530D2*
D28*
Y39100D1*
X17163Y39815D2*
X18592D1*
X16227Y40530D2*
Y39100D1*
X15513Y39815D2*
X16942D1*
X14577Y40530D2*
Y39100D1*
X13863Y39815D2*
X15292D1*
X25690Y37755D2*
Y36325D1*
X24975Y37040D2*
X26405D1*
X20130Y26930D2*
Y25910D1*
X19620Y26420D2*
X20640D1*
X23130Y26930D2*
Y25910D1*
X22620Y26420D2*
X23640D1*
X22130Y27930D2*
Y26910D1*
X21620Y27420D2*
X22640D1*
X4279Y37754D2*
D27*
X9663D1*
X10377D2*
X10456D1*
X11174D2*
X12979D1*
X4279Y37505D2*
X9894D1*
X10143D2*
X10503D1*
X11127D2*
X13120D1*
X4279Y37256D2*
X13257D1*
X4279Y37008D2*
X13397D1*
X4279Y36759D2*
X9679D1*
X10358D2*
X13538D1*
X4279Y36510D2*
X9679D1*
X10361D2*
X13577D1*
X4279Y36262D2*
X13335D1*
X4279Y36013D2*
X13226D1*
X4283Y35764D2*
X13331D1*
X4283Y35516D2*
X14233D1*
X4283Y35267D2*
X14370D1*
X4283Y35018D2*
X4851D1*
X5451D2*
X5987D1*
X6592D2*
X14511D1*
X4283Y34770D2*
X4788D1*
X5510D2*
X5929D1*
X6651D2*
X14647D1*
X4283Y34521D2*
X4792D1*
X5506D2*
X5933D1*
X6647D2*
X14331D1*
X4283Y34272D2*
X4835D1*
X5463D2*
X5976D1*
X6604D2*
X13796D1*
X4283Y34023D2*
X13741D1*
X14822D2*
X15065D1*
X4287Y33775D2*
X13390D1*
X14276D2*
X15206D1*
X4287Y33526D2*
X11444D1*
X12115D2*
X13101D1*
X14428D2*
X15343D1*
X4287Y33277D2*
X10843D1*
X11338D2*
X11433D1*
X12127D2*
X12983D1*
X14526D2*
X15190D1*
X4287Y33029D2*
X5081D1*
X5998D2*
X9999D1*
X11455D2*
X13085D1*
X13615D2*
X13917D1*
X14401D2*
X15237D1*
X4287Y32780D2*
X4972D1*
X6108D2*
X9972D1*
X11358D2*
X15761D1*
X4287Y32531D2*
X4991D1*
X6092D2*
X10241D1*
X10975D2*
X13976D1*
X14483D2*
X15901D1*
X4287Y32283D2*
X5147D1*
X5932D2*
X13866D1*
X14596D2*
X16038D1*
X4287Y32034D2*
X5085D1*
X5994D2*
X13972D1*
X14490D2*
X16179D1*
X4287Y31785D2*
X4972D1*
X6108D2*
X13921D1*
X14397D2*
X16253D1*
X4291Y31537D2*
X4987D1*
X6092D2*
X13796D1*
X14526D2*
X16186D1*
X4291Y31288D2*
X5144D1*
X5936D2*
X13886D1*
X14432D2*
X16351D1*
X4291Y31039D2*
X4964D1*
X6115D2*
X7690D1*
X8272D2*
X8542D1*
X9139D2*
X9561D1*
X10221D2*
X16733D1*
X4291Y30791D2*
X4964D1*
X6115D2*
X7616D1*
X9201D2*
X9538D1*
X10240D2*
X16874D1*
X4291Y30542D2*
X4964D1*
X6115D2*
X7772D1*
X9033D2*
X9507D1*
X10072D2*
X17011D1*
X4291Y30293D2*
X4964D1*
X6115D2*
X8245D1*
X8873D2*
X9425D1*
X10154D2*
X15679D1*
X16338D2*
X17151D1*
X4291Y30044D2*
X6386D1*
X7135D2*
X9565D1*
X10014D2*
X13171D1*
X13670D2*
X15659D1*
X16361D2*
X17292D1*
X4291Y29796D2*
X6351D1*
X7166D2*
X13054D1*
X13783D2*
X17429D1*
X4295Y29547D2*
X6515D1*
X7526D2*
X13155D1*
X13682D2*
X17569D1*
X4295Y29298D2*
X5065D1*
X5893D2*
X6854D1*
X7569D2*
X17706D1*
X4295Y29050D2*
X4925D1*
X6037D2*
X7069D1*
X7350D2*
X8858D1*
X9444D2*
X17847D1*
X4295Y28801D2*
X4917D1*
X6045D2*
X8788D1*
X9514D2*
X11144D1*
X11416D2*
X17792D1*
X4295Y28552D2*
X5038D1*
X5924D2*
X8362D1*
X9358D2*
X10925D1*
X11639D2*
X17933D1*
X4295Y28304D2*
X4905D1*
X6053D2*
X8300D1*
X9221D2*
X9573D1*
X10026D2*
X10671D1*
X11596D2*
X18265D1*
X4295Y28055D2*
X4905D1*
X6053D2*
X7644D1*
X8338D2*
X8469D1*
X9303D2*
X9439D1*
X10162D2*
X10546D1*
X11276D2*
X18401D1*
X4295Y27806D2*
X4905D1*
X6053D2*
X7655D1*
X8322D2*
X8714D1*
X9166D2*
X9519D1*
X10080D2*
X10640D1*
X11182D2*
X13772D1*
X14486D2*
X14772D1*
X15486D2*
X15772D1*
X16486D2*
X16772D1*
X17486D2*
X17772D1*
X4295Y27558D2*
X4905D1*
X6053D2*
X13612D1*
X4299Y27309D2*
X11319D1*
X11541D2*
X11999D1*
X12224D2*
X13608D1*
X4299Y27060D2*
X8276D1*
X8924D2*
X11073D1*
X12467D2*
X13745D1*
X14518D2*
X14745D1*
X15518D2*
X15745D1*
X16518D2*
X16745D1*
X17518D2*
X17745D1*
X4299Y26812D2*
X8245D1*
X8951D2*
X10819D1*
X12432D2*
X13597D1*
X14666D2*
X14775D1*
X15483D2*
X15776D1*
X16483D2*
X16776D1*
X17483D2*
X17776D1*
X4299Y26563D2*
X8530D1*
X8670D2*
X10694D1*
X11424D2*
X13597D1*
X4299Y26314D2*
X10792D1*
X11330D2*
X13597D1*
X4299Y26065D2*
X9612D1*
X10287D2*
X13597D1*
X15522D2*
X15737D1*
X16522D2*
X16737D1*
X17522D2*
X17737D1*
X4299Y25817D2*
X9604D1*
X10295D2*
X11120D1*
X11502D2*
X13991D1*
X14287D2*
X18417D1*
X4299Y25568D2*
X6155D1*
X6725D2*
X10948D1*
X11670D2*
X13308D1*
X14498D2*
X18417D1*
X4303Y25319D2*
X6077D1*
X6803D2*
X11011D1*
X11608D2*
X13237D1*
X14451D2*
X18417D1*
X4303Y25071D2*
X6136D1*
X6705D2*
X13397D1*
X14244D2*
X17101D1*
X17779D2*
X18101D1*
X4303Y24822D2*
X6058D1*
X6783D2*
X7698D1*
X8225D2*
X13565D1*
X14272D2*
X17097D1*
X17783D2*
X18097D1*
X4303Y24573D2*
X6198D1*
X6643D2*
X7597D1*
X8326D2*
X13843D1*
X14518D2*
X18792D1*
X4303Y24325D2*
X7710D1*
X8209D2*
X13835D1*
X14526D2*
X18999D1*
X4303Y24076D2*
X11761D1*
X12061D2*
X17104D1*
X17776D2*
X19210D1*
X4303Y23827D2*
X5858D1*
X6240D2*
X11554D1*
X12268D2*
X12503D1*
X12998D2*
X15405D1*
X16096D2*
X17093D1*
X17787D2*
X17929D1*
X18627D2*
X18960D1*
X4303Y23579D2*
X5690D1*
X6412D2*
X6991D1*
X7651D2*
X11597D1*
X12221D2*
X12386D1*
X13115D2*
X15413D1*
X16088D2*
X17866D1*
X18694D2*
X18897D1*
X4303Y23330D2*
X5749D1*
X6705D2*
X6972D1*
X7670D2*
X9124D1*
X9635D2*
X10604D1*
X11135D2*
X12483D1*
X13014D2*
X17983D1*
X18576D2*
X19015D1*
X4307Y23081D2*
X6030D1*
X6975D2*
X9015D1*
X9744D2*
X10507D1*
X11236D2*
X12237D1*
X12764D2*
X14397D1*
X14764D2*
X15233D1*
X15908D2*
X17147D1*
X17815D2*
X19417D1*
X4307Y22833D2*
X6245D1*
X7029D2*
X9124D1*
X9639D2*
X10624D1*
X11115D2*
X12136D1*
X12865D2*
X14218D1*
X14940D2*
X15226D1*
X15912D2*
X17132D1*
X17826D2*
X17949D1*
X18611D2*
X18968D1*
X4307Y22584D2*
X6499D1*
X6842D2*
X12253D1*
X12748D2*
X12845D1*
X13479D2*
X14276D1*
X14881D2*
X17866D1*
X18694D2*
X18921D1*
X4307Y22335D2*
X11218D1*
X11379D2*
X11573D1*
X12248D2*
X12804D1*
X13518D2*
X17960D1*
X18600D2*
X19061D1*
X4307Y22086D2*
X10948D1*
X12256D2*
X13030D1*
X13287D2*
X13667D1*
X14053D2*
X15253D1*
X15549D2*
X15674D1*
X16326D2*
X17108D1*
X17772D2*
X18108D1*
X18772D2*
X19108D1*
X4307Y21838D2*
X5960D1*
X6545D2*
X10976D1*
X11623D2*
X13499D1*
X14221D2*
X15042D1*
X16354D2*
X17093D1*
X17787D2*
X18093D1*
X18787D2*
X19093D1*
X4307Y21589D2*
X5890D1*
X7260D2*
X11319D1*
X11760D2*
X13561D1*
X14158D2*
X15089D1*
X15713D2*
X15905D1*
X16397D2*
X16585D1*
X17076D2*
X19417D1*
X4307Y21340D2*
X6046D1*
X6459D2*
X6581D1*
X7764D2*
X10358D1*
X11061D2*
X11177D1*
X11904D2*
X15784D1*
X17194D2*
X19417D1*
X4307Y21092D2*
X7116D1*
X7842D2*
X10386D1*
X11037D2*
X11253D1*
X11826D2*
X15882D1*
X16416D2*
X16562D1*
X17096D2*
X19417D1*
X4311Y20843D2*
X7257D1*
X7701D2*
X10319D1*
X11041D2*
X19417D1*
X4311Y20594D2*
X10386D1*
X10975D2*
X18397D1*
X18822D2*
X19417D1*
X4311Y20346D2*
X18245D1*
X18975D2*
X19417D1*
X4311Y20097D2*
X5280D1*
X5850D2*
X9183D1*
X9873D2*
X16933D1*
X17166D2*
X18319D1*
X18901D2*
X19417D1*
X4311Y19848D2*
X5202D1*
X5928D2*
X9194D1*
X9865D2*
X16694D1*
X17404D2*
X19417D1*
X4311Y19600D2*
X5343D1*
X5787D2*
X16050D1*
X17369D2*
X19417D1*
X4311Y19351D2*
X15194D1*
X15725D2*
X16069D1*
X16729D2*
X19417D1*
X4311Y19102D2*
X15097D1*
X15826D2*
X16870D1*
X17268D2*
X19417D1*
X4315Y18854D2*
X15214D1*
X15709D2*
X16706D1*
X17432D2*
X19417D1*
X4315Y18605D2*
X9612D1*
X10190D2*
X11905D1*
X12354D2*
X13718D1*
X13884D2*
X14151D1*
X14990D2*
X16772D1*
X17365D2*
X19417D1*
X4315Y18356D2*
X9538D1*
X10264D2*
X11765D1*
X12822D2*
X13444D1*
X15104D2*
X19417D1*
X4315Y18107D2*
X8179D1*
X8881D2*
X9686D1*
X10627D2*
X11847D1*
X12990D2*
X13476D1*
X15002D2*
X19417D1*
X4315Y17859D2*
X8202D1*
X8858D2*
X9960D1*
X10858D2*
X12331D1*
X12928D2*
X19417D1*
X4315Y17610D2*
X10155D1*
X10951D2*
X12581D1*
X13178D2*
X13378D1*
X14002D2*
X15335D1*
X15947D2*
X19417D1*
X4315Y17361D2*
X10347D1*
X11346D2*
X12519D1*
X13240D2*
X13330D1*
X14049D2*
X15280D1*
X15998D2*
X16718D1*
X17401D2*
X19417D1*
X4315Y17113D2*
X10663D1*
X11334D2*
X12472D1*
X13069D2*
X13351D1*
X13940D2*
X15472D1*
X15811D2*
X16722D1*
X17401D2*
X19417D1*
X4315Y16864D2*
X11186D1*
X11854D2*
X12308D1*
X13033D2*
X13284D1*
X14006D2*
X19417D1*
X4319Y16615D2*
X7811D1*
X8791D2*
X11171D1*
X11869D2*
X12374D1*
X13291D2*
X13444D1*
X13850D2*
X14311D1*
X14963D2*
X19417D1*
X4319Y16367D2*
X7804D1*
X8838D2*
X12675D1*
X13404D2*
X14101D1*
X14990D2*
X19417D1*
X4319Y16118D2*
X4624D1*
X5295D2*
X8319D1*
X8994D2*
X12476D1*
X13303D2*
X13995D1*
X14725D2*
X16124D1*
X16756D2*
X17077D1*
X17705D2*
X19417D1*
X5635Y15869D2*
X8491D1*
X9209D2*
X12511D1*
X13151D2*
X14104D1*
X14615D2*
X16081D1*
X16799D2*
X17034D1*
X17748D2*
X19417D1*
X5776Y15621D2*
X8538D1*
X9162D2*
X16300D1*
X16580D2*
X17249D1*
X17529D2*
X19417D1*
X5826Y15372D2*
X9022D1*
X9721D2*
X19417D1*
X5799Y15123D2*
X9038D1*
X10240D2*
X10608D1*
X11088D2*
X12835D1*
X13444D2*
X15347D1*
X15955D2*
X16128D1*
X16752D2*
X17128D1*
X17752D2*
X18077D1*
X18701D2*
X19417D1*
X5686Y14875D2*
X9573D1*
X10287D2*
X10487D1*
X11979D2*
X12780D1*
X13502D2*
X15288D1*
X16799D2*
X17081D1*
X17799D2*
X18030D1*
X18748D2*
X19417D1*
X4322Y14626D2*
X4491D1*
X5432D2*
X9776D1*
X10084D2*
X10577D1*
X11123D2*
X11296D1*
X11963D2*
X12964D1*
X13319D2*
X14171D1*
X14471D2*
X15472D1*
X15826D2*
X16284D1*
X16596D2*
X17284D1*
X17596D2*
X18233D1*
X18545D2*
X19417D1*
X4322Y14377D2*
X10769D1*
X11213D2*
X11601D1*
X12279D2*
X13960D1*
X14678D2*
X19417D1*
X4322Y14128D2*
X10628D1*
X11354D2*
X11597D1*
X12283D2*
X14007D1*
X14631D2*
X15233D1*
X15850D2*
X16132D1*
X16748D2*
X17132D1*
X17748D2*
X18132D1*
X18748D2*
X19417D1*
X4322Y13880D2*
X5714D1*
X6342D2*
X6499D1*
X7131D2*
X10706D1*
X11276D2*
X11819D1*
X12522D2*
X15179D1*
X15901D2*
X16081D1*
X16799D2*
X17081D1*
X17799D2*
X18081D1*
X18799D2*
X19417D1*
X4322Y13631D2*
X5522D1*
X7319D2*
X11839D1*
X12502D2*
X15374D1*
X15705D2*
X16272D1*
X16608D2*
X17272D1*
X17608D2*
X18272D1*
X18608D2*
X19417D1*
X4322Y13382D2*
X5499D1*
X7346D2*
X11858D1*
X12483D2*
X19417D1*
X4322Y13134D2*
X5612D1*
X7233D2*
X11811D1*
X12529D2*
X15265D1*
X15873D2*
X16136D1*
X16744D2*
X17136D1*
X17744D2*
X18136D1*
X18744D2*
X19136D1*
X4322Y12885D2*
X5698D1*
X6358D2*
X6487D1*
X7143D2*
X12019D1*
X12322D2*
X15210D1*
X15932D2*
X16078D1*
X16799D2*
X17081D1*
X17799D2*
X18081D1*
X18799D2*
X19081D1*
X4322Y12636D2*
X5519D1*
X7322D2*
X8370D1*
X8928D2*
X15394D1*
X15748D2*
X16261D1*
X16619D2*
X17261D1*
X17619D2*
X18261D1*
X18619D2*
X19261D1*
X4326Y12388D2*
X5499D1*
X7342D2*
X8284D1*
X9014D2*
X19417D1*
X4326Y12139D2*
X5620D1*
X7225D2*
X8421D1*
X8881D2*
X11858D1*
X12498D2*
X16140D1*
X16740D2*
X17140D1*
X17740D2*
X18003D1*
X18436D2*
X19034D1*
X4326Y11890D2*
X11823D1*
X12537D2*
X16077D1*
X16803D2*
X17077D1*
X18623D2*
X18909D1*
X4326Y11642D2*
X12069D1*
X12291D2*
X16253D1*
X16627D2*
X17253D1*
X17627D2*
X17839D1*
X18600D2*
X18964D1*
X4326Y11393D2*
X4667D1*
X5256D2*
X19417D1*
X5623Y11144D2*
X17144D1*
X17736D2*
X17921D1*
X18483D2*
X19019D1*
X5772Y10896D2*
X10835D1*
X11385D2*
X11835D1*
X12385D2*
X12835D1*
X13385D2*
X13835D1*
X14385D2*
X14573D1*
X15647D2*
X17077D1*
X18611D2*
X18890D1*
X5822Y10647D2*
X10616D1*
X15647D2*
X17241D1*
X17639D2*
X17843D1*
X18557D2*
X18940D1*
X5803Y10398D2*
X10577D1*
X15647D2*
X19417D1*
X5697Y10149D2*
X10671D1*
X11549D2*
X11674D1*
X12549D2*
X12674D1*
X13549D2*
X13674D1*
X15647D2*
X17147D1*
X17733D2*
X19417D1*
X4330Y9901D2*
X4468D1*
X5455D2*
X10847D1*
X11373D2*
X11847D1*
X12373D2*
X12847D1*
X13373D2*
X13847D1*
X14373D2*
X14847D1*
X15373D2*
X17077D1*
X17803D2*
X19417D1*
X4330Y9652D2*
X10616D1*
X15604D2*
X17233D1*
X17647D2*
X19417D1*
X4330Y9403D2*
X10577D1*
X15643D2*
X17538D1*
X18041D2*
X19417D1*
X4330Y9155D2*
X10671D1*
X11553D2*
X11668D1*
X12553D2*
X12668D1*
X13553D2*
X13668D1*
X14553D2*
X14668D1*
X15569D2*
X16569D1*
X17069D2*
X17425D1*
X18154D2*
X19417D1*
X4330Y8906D2*
X14925D1*
X15654D2*
X16456D1*
X17186D2*
X17530D1*
X18053D2*
X19417D1*
X4330Y8657D2*
X15061D1*
X15518D2*
X16558D1*
X17084D2*
X19417D1*
X4330Y8409D2*
X19417D1*
X4334Y8160D2*
X4925D1*
X5139D2*
X6124D1*
X6335D2*
X12155D1*
X12725D2*
X13155D1*
X13725D2*
X14155D1*
X14725D2*
X15155D1*
X15725D2*
X17444D1*
X18127D2*
X19417D1*
X4334Y7911D2*
X4675D1*
X5385D2*
X5874D1*
X6584D2*
X12077D1*
X12803D2*
X13077D1*
X13803D2*
X14077D1*
X14803D2*
X15077D1*
X15803D2*
X17444D1*
X18127D2*
X19417D1*
X4334Y7663D2*
X4710D1*
X5350D2*
X5909D1*
X6549D2*
X12218D1*
X12662D2*
X13218D1*
X13662D2*
X14218D1*
X14662D2*
X15218D1*
X15662D2*
X19417D1*
X4334Y7414D2*
X4679D1*
X5401D2*
X5874D1*
X6588D2*
X19417D1*
X4334Y7165D2*
X4737D1*
X5342D2*
X5913D1*
X6545D2*
X12159D1*
X12721D2*
X13159D1*
X13721D2*
X14159D1*
X14721D2*
X15159D1*
X15721D2*
X16159D1*
X16721D2*
X19417D1*
X4334Y6917D2*
X12077D1*
X12803D2*
X13077D1*
X13803D2*
X14077D1*
X14803D2*
X15077D1*
X15803D2*
X16077D1*
X16803D2*
X19417D1*
X4334Y6668D2*
X4616D1*
X6264D2*
X12210D1*
X12670D2*
X13210D1*
X13670D2*
X14210D1*
X14670D2*
X15210D1*
X15670D2*
X16210D1*
X16670D2*
X19417D1*
X6553Y6419D2*
X19417D1*
X6736Y6170D2*
X12175D1*
X12686D2*
X13222D1*
X13658D2*
X14167D1*
X14713D2*
X15167D1*
X15713D2*
X16167D1*
X16713D2*
X17167D1*
X17713D2*
X18167D1*
X18713D2*
X19417D1*
X6850Y5922D2*
X12065D1*
X12795D2*
X13077D1*
X13803D2*
X14077D1*
X14803D2*
X15077D1*
X15803D2*
X16077D1*
X16803D2*
X17077D1*
X17803D2*
X18077D1*
X18803D2*
X19417D1*
X6912Y5673D2*
X12171D1*
X12690D2*
X13155D1*
X13725D2*
X14206D1*
X14674D2*
X15206D1*
X15674D2*
X16206D1*
X16674D2*
X17206D1*
X17674D2*
X18206D1*
X18674D2*
X19417D1*
X6928Y5424D2*
X19417D1*
X6904Y5176D2*
X14171D1*
X14709D2*
X15171D1*
X15709D2*
X16171D1*
X16709D2*
X17171D1*
X17709D2*
X18171D1*
X18709D2*
X19171D1*
X6838Y4927D2*
X14077D1*
X14803D2*
X15077D1*
X15803D2*
X16077D1*
X16803D2*
X17077D1*
X17803D2*
X18077D1*
X18803D2*
X19077D1*
X6717Y4678D2*
X14198D1*
X14682D2*
X15198D1*
X15682D2*
X16198D1*
X16682D2*
X17198D1*
X17682D2*
X18198D1*
X18682D2*
X19198D1*
X6526Y4430D2*
X19417D1*
X7310Y13336D2*
X7265Y13220D1*
X7193Y13118D1*
X7099Y13036D1*
X6988Y12980D1*
X6938Y12969D1*
X7030Y12938D1*
X7136Y12872D1*
X7222Y12783D1*
X7285Y12675D1*
X7319Y12555D1*
X7325Y12476D1*
X7310Y12352D1*
X7265Y12236D1*
X7193Y12134D1*
X7099Y12052D1*
X6988Y11996D1*
X6866Y11968D1*
X6741Y11971D1*
X6621Y12004D1*
X6512Y12065D1*
X6420Y12154D1*
X6312Y12052D1*
X6200Y11996D1*
X6079Y11968D1*
X5954Y11971D1*
X5834Y12004D1*
X5725Y12065D1*
X5634Y12151D1*
X5567Y12256D1*
X5528Y12374D1*
X5518Y12499D1*
X5539Y12621D1*
X5589Y12736D1*
X5665Y12834D1*
X5763Y12912D1*
X5896Y12966D1*
X5834Y12988D1*
X5725Y13049D1*
X5634Y13135D1*
X5567Y13240D1*
X5528Y13358D1*
X5518Y13483D1*
X5539Y13606D1*
X5589Y13720D1*
X5665Y13819D1*
X5763Y13896D1*
X5877Y13947D1*
X5999Y13969D1*
X6124Y13961D1*
X6242Y13923D1*
X6348Y13857D1*
X6421Y13781D1*
X6452Y13819D1*
X6550Y13896D1*
X6664Y13947D1*
X6787Y13969D1*
X6911Y13961D1*
X7030Y13923D1*
X7136Y13857D1*
X7222Y13767D1*
X7285Y13659D1*
X7319Y13539D1*
X7325Y13460D1*
X7310Y13336D1*
X6693Y12969D2*
X6621Y12988D1*
X6512Y13049D1*
X6420Y13138D1*
X6312Y13036D1*
X6200Y12980D1*
X6151Y12969D1*
X6242Y12938D1*
X6348Y12872D1*
X6421Y12797D1*
X6452Y12834D1*
X6550Y12912D1*
X6683Y12966D1*
X5791Y15213D2*
X5764Y15092D1*
X5718Y14975D1*
X5656Y14867D1*
X5579Y14769D1*
X5488Y14684D1*
X5385Y14613D1*
X5272Y14558D1*
X5153Y14520D1*
X5030Y14501D1*
X4905Y14500D1*
X4782Y14517D1*
X4662Y14553D1*
X4549Y14606D1*
X4445Y14675D1*
X4352Y14759D1*
X4295Y14828D1*
X4302Y11116D1*
X4423Y11243D1*
X4525Y11316D1*
X4636Y11372D1*
X4754Y11412D1*
X4877Y11434D1*
X5002Y11437D1*
X5126Y11421D1*
X5246Y11388D1*
X5360Y11337D1*
X5466Y11269D1*
X5559Y11187D1*
X5640Y11092D1*
X5706Y10985D1*
X5755Y10871D1*
X5787Y10750D1*
X5801Y10598D1*
X5791Y10473D1*
X5764Y10351D1*
X5718Y10235D1*
X5656Y10127D1*
X5579Y10029D1*
X5488Y9944D1*
X5385Y9873D1*
X5272Y9818D1*
X5153Y9780D1*
X5030Y9761D1*
X4905Y9760D1*
X4782Y9777D1*
X4662Y9813D1*
X4549Y9866D1*
X4445Y9935D1*
X4352Y10019D1*
X4305Y10076D1*
X4311Y6374D1*
X4494Y6558D1*
X4697Y6703D1*
X4923Y6811D1*
X5163Y6879D1*
X5411Y6905D1*
X5661Y6888D1*
X5903Y6830D1*
X6133Y6731D1*
X6342Y6595D1*
X6525Y6425D1*
X6676Y6226D1*
X6792Y6005D1*
X6868Y5767D1*
X6903Y5520D1*
X6900Y5315D1*
X6857Y5069D1*
X6774Y4834D1*
X6651Y4616D1*
X6494Y4422D1*
X6376Y4314D1*
X19440Y4315D1*
Y4600D1*
X19350Y4612D1*
X19238Y4666D1*
X19153Y4757D1*
X19107Y4872D1*
X19105Y4997D1*
X19147Y5113D1*
X19229Y5207D1*
X19339Y5265D1*
X19443Y5277D1*
X19440Y5815D1*
Y10483D1*
X19288Y10460D1*
X19165Y10484D1*
X19057Y10545D1*
X18973Y10637D1*
X18923Y10751D1*
X18911Y10875D1*
X18938Y10996D1*
X19003Y11103D1*
X19098Y11183D1*
X19213Y11230D1*
X19337Y11238D1*
X19439Y11212D1*
X19440Y11475D1*
X19308Y11460D1*
X19185Y11484D1*
X19077Y11545D1*
X18993Y11637D1*
X18943Y11751D1*
X18931Y11875D1*
X18958Y11996D1*
X19023Y12103D1*
X19118Y12183D1*
X19233Y12230D1*
X19357Y12238D1*
X19444Y12216D1*
X19440Y12600D1*
X19350Y12612D1*
X19238Y12666D1*
X19153Y12757D1*
X19107Y12872D1*
X19105Y12997D1*
X19147Y13113D1*
X19229Y13207D1*
X19339Y13265D1*
X19443Y13277D1*
X19440Y13815D1*
Y21600D1*
X19350Y21612D1*
X19238Y21666D1*
X19153Y21757D1*
X19107Y21872D1*
X19105Y21997D1*
X19147Y22113D1*
X19229Y22207D1*
X19315Y22252D1*
X19195Y22274D1*
X19087Y22335D1*
X19003Y22427D1*
X18953Y22541D1*
X18941Y22665D1*
X18968Y22786D1*
X19033Y22893D1*
X19128Y22973D1*
X19243Y23020D1*
X19367Y23028D1*
X19439Y23010D1*
X19440Y23241D1*
X19298Y23220D1*
X19175Y23244D1*
X19067Y23305D1*
X18983Y23397D1*
X18933Y23511D1*
X18921Y23635D1*
X18948Y23756D1*
X19013Y23863D1*
X19108Y23943D1*
X19223Y23990D1*
X19304Y23995D1*
X18697Y24714D1*
X18593Y24637D1*
X18474Y24602D1*
X18350Y24612D1*
X18238Y24666D1*
X18153Y24757D1*
X18107Y24872D1*
X18105Y24997D1*
X18147Y25113D1*
X18229Y25207D1*
X18339Y25265D1*
X18443Y25277D1*
X18440Y25815D1*
Y26014D1*
X18303Y25940D1*
X18181Y25912D1*
X18057Y25915D1*
X17937Y25948D1*
X17828Y26009D1*
X17737Y26094D1*
X17670Y26199D1*
X17630Y26322D1*
X17580Y26180D1*
X17509Y26078D1*
X17414Y25996D1*
X17303Y25940D1*
X17181Y25912D1*
X17057Y25915D1*
X16937Y25948D1*
X16828Y26009D1*
X16737Y26094D1*
X16670Y26199D1*
X16630Y26322D1*
X16580Y26180D1*
X16509Y26078D1*
X16414Y25996D1*
X16303Y25940D1*
X16181Y25912D1*
X16057Y25915D1*
X15937Y25948D1*
X15828Y26009D1*
X15737Y26094D1*
X15670Y26199D1*
X15630Y26322D1*
X15602Y26225D1*
X15540Y26117D1*
X15454Y26026D1*
X15349Y25959D1*
X15231Y25920D1*
X15107Y25910D1*
X14984Y25931D1*
X14869Y25981D1*
X14771Y26058D1*
X14694Y26155D1*
X14643Y26269D1*
X14640Y25910D1*
X13620D1*
Y26930D1*
X13991D1*
X13937Y26948D1*
X13828Y27009D1*
X13737Y27094D1*
X13670Y27199D1*
X13630Y27318D1*
X13620Y27442D1*
X13641Y27565D1*
X13690Y27679D1*
X13766Y27778D1*
X13864Y27856D1*
X13978Y27907D1*
X14100Y27929D1*
X14225Y27921D1*
X14344Y27883D1*
X14450Y27818D1*
X14537Y27728D1*
X14599Y27621D1*
X14628Y27520D1*
X14690Y27679D1*
X14766Y27778D1*
X14864Y27856D1*
X14978Y27907D1*
X15100Y27929D1*
X15225Y27921D1*
X15344Y27883D1*
X15450Y27818D1*
X15537Y27728D1*
X15599Y27621D1*
X15628Y27520D1*
X15690Y27679D1*
X15766Y27778D1*
X15864Y27856D1*
X15978Y27907D1*
X16100Y27929D1*
X16225Y27921D1*
X16344Y27883D1*
X16450Y27818D1*
X16537Y27728D1*
X16599Y27621D1*
X16628Y27520D1*
X16690Y27679D1*
X16766Y27778D1*
X16864Y27856D1*
X16978Y27907D1*
X17100Y27929D1*
X17225Y27921D1*
X17344Y27883D1*
X17450Y27818D1*
X17537Y27728D1*
X17599Y27621D1*
X17628Y27520D1*
X17690Y27679D1*
X17766Y27778D1*
X17864Y27856D1*
X17978Y27907D1*
X18100Y27929D1*
X18225Y27921D1*
X18344Y27883D1*
X18440Y27824D1*
Y28030D1*
X18183Y28492D1*
X18066Y28502D1*
X17954Y28556D1*
X17869Y28647D1*
X17822Y28762D1*
X17820Y28887D1*
X17863Y29003D1*
X17886Y29030D1*
X17358Y29968D1*
X16639Y31253D1*
X16584Y31242D1*
X16460Y31252D1*
X16348Y31306D1*
X16263Y31397D1*
X16217Y31512D1*
X16215Y31637D1*
X16257Y31753D1*
X16321Y31826D1*
X15713Y32911D1*
X15584Y32872D1*
X15460Y32882D1*
X15348Y32936D1*
X15263Y33027D1*
X15217Y33142D1*
X15215Y33267D1*
X15257Y33383D1*
X15339Y33477D1*
X15384Y33500D1*
X14962Y34254D1*
X14947Y34198D1*
X14882Y34092D1*
X14783Y34017D1*
X14664Y33982D1*
X14540Y33992D1*
X14439Y34041D1*
X14417Y33958D1*
X14352Y33852D1*
X14253Y33777D1*
X14134Y33742D1*
X14010Y33752D1*
X13898Y33806D1*
X13813Y33897D1*
X13767Y34012D1*
X13765Y34137D1*
X13807Y34253D1*
X13889Y34347D1*
X13999Y34405D1*
X14123Y34419D1*
X14243Y34388D1*
X14291Y34355D1*
X14337Y34493D1*
X14419Y34587D1*
X14529Y34645D1*
X14653Y34659D1*
X14747Y34635D1*
X14162Y35686D1*
X14020Y35692D1*
X13908Y35746D1*
X13858Y35800D1*
X13743Y35707D1*
X13624Y35672D1*
X13500Y35682D1*
X13388Y35736D1*
X13303Y35827D1*
X13257Y35942D1*
X13255Y36067D1*
X13297Y36183D1*
X13379Y36277D1*
X13489Y36335D1*
X13597Y36352D1*
X13595Y36477D1*
X13650Y36608D1*
X13454Y36951D1*
X12866Y38005D1*
X10952Y38002D1*
X11059Y37926D1*
X11128Y37823D1*
X11155Y37690D1*
X11132Y37568D1*
X11067Y37462D1*
X10968Y37387D1*
X10849Y37352D1*
X10725Y37362D1*
X10613Y37416D1*
X10528Y37507D1*
X10482Y37622D1*
X10480Y37747D1*
X10522Y37863D1*
X10604Y37957D1*
X10690Y38002D1*
X10311D1*
X10333Y37963D1*
X10360Y37830D1*
X10337Y37708D1*
X10272Y37602D1*
X10173Y37527D1*
X10054Y37492D1*
X9930Y37502D1*
X9818Y37556D1*
X9733Y37647D1*
X9687Y37762D1*
X9685Y37887D1*
X9726Y38000D1*
X8940Y38002D1*
X4256D1*
X4254Y37128D1*
X4294Y15850D1*
X4423Y15983D1*
X4525Y16056D1*
X4636Y16113D1*
X4754Y16152D1*
X4877Y16174D1*
X5002Y16177D1*
X5126Y16161D1*
X5246Y16128D1*
X5360Y16077D1*
X5466Y16009D1*
X5559Y15927D1*
X5640Y15832D1*
X5706Y15726D1*
X5755Y15611D1*
X5787Y15490D1*
X5801Y15338D1*
X5791Y15213D1*
X14272Y26930D2*
X14640D1*
X14641Y26565D1*
X14690Y26679D1*
X14766Y26778D1*
X14864Y26856D1*
X14978Y26907D1*
X15028Y26920D1*
X14937Y26948D1*
X14828Y27009D1*
X14737Y27094D1*
X14670Y27199D1*
X14630Y27322D1*
X14580Y27180D1*
X14509Y27078D1*
X14414Y26996D1*
X14303Y26940D1*
X14261Y26930D1*
X15232Y26920D2*
X15344Y26883D1*
X15450Y26818D1*
X15537Y26728D1*
X15599Y26621D1*
X15630Y26522D1*
X15690Y26679D1*
X15766Y26778D1*
X15864Y26856D1*
X15978Y26907D1*
X16035Y26918D1*
X15937Y26948D1*
X15828Y27009D1*
X15737Y27094D1*
X15670Y27199D1*
X15630Y27322D1*
X15580Y27180D1*
X15509Y27078D1*
X15414Y26996D1*
X15303Y26940D1*
X15223Y26922D1*
X16229Y26920D2*
X16344Y26883D1*
X16450Y26818D1*
X16537Y26728D1*
X16599Y26621D1*
X16628Y26520D1*
X16690Y26679D1*
X16766Y26778D1*
X16864Y26856D1*
X16978Y26907D1*
X17035Y26918D1*
X16937Y26948D1*
X16828Y27009D1*
X16737Y27094D1*
X16670Y27199D1*
X16630Y27322D1*
X16580Y27180D1*
X16509Y27078D1*
X16414Y26996D1*
X16303Y26940D1*
X16223Y26922D1*
X17229Y26920D2*
X17344Y26883D1*
X17450Y26818D1*
X17537Y26728D1*
X17599Y26621D1*
X17628Y26520D1*
X17690Y26679D1*
X17766Y26778D1*
X17864Y26856D1*
X17978Y26907D1*
X18035Y26918D1*
X17937Y26948D1*
X17828Y27009D1*
X17737Y27094D1*
X17670Y27199D1*
X17630Y27322D1*
X17580Y27180D1*
X17509Y27078D1*
X17414Y26996D1*
X17303Y26940D1*
X17223Y26922D1*
X14725Y10960D2*
X15620D1*
Y9940D1*
X15249D1*
X15324Y9913D1*
X15430Y9848D1*
X15517Y9758D1*
X15579Y9651D1*
X15614Y9531D1*
X15620Y9450D1*
X15605Y9326D1*
X15560Y9210D1*
X15534Y9166D1*
X15603Y9063D1*
X15630Y8930D1*
X15607Y8808D1*
X15542Y8702D1*
X15443Y8627D1*
X15324Y8592D1*
X15200Y8602D1*
X15088Y8656D1*
X15003Y8747D1*
X14957Y8862D1*
X14955Y8967D1*
X14917Y8978D1*
X14808Y9039D1*
X14717Y9124D1*
X14650Y9229D1*
X14610Y9352D1*
X14560Y9210D1*
X14489Y9108D1*
X14394Y9026D1*
X14283Y8970D1*
X14161Y8942D1*
X14037Y8945D1*
X13917Y8978D1*
X13808Y9039D1*
X13717Y9124D1*
X13650Y9229D1*
X13610Y9352D1*
X13560Y9210D1*
X13489Y9108D1*
X13394Y9026D1*
X13283Y8970D1*
X13161Y8942D1*
X13037Y8945D1*
X12917Y8978D1*
X12808Y9039D1*
X12717Y9124D1*
X12650Y9229D1*
X12610Y9352D1*
X12560Y9210D1*
X12489Y9108D1*
X12394Y9026D1*
X12283Y8970D1*
X12161Y8942D1*
X12037Y8945D1*
X11917Y8978D1*
X11808Y9039D1*
X11717Y9124D1*
X11650Y9229D1*
X11610Y9352D1*
X11560Y9210D1*
X11489Y9108D1*
X11394Y9026D1*
X11283Y8970D1*
X11161Y8942D1*
X11037Y8945D1*
X10917Y8978D1*
X10808Y9039D1*
X10717Y9124D1*
X10650Y9229D1*
X10610Y9348D1*
X10600Y9472D1*
X10621Y9595D1*
X10670Y9709D1*
X10746Y9808D1*
X10844Y9886D1*
X10958Y9937D1*
X11015Y9948D1*
X10917Y9978D1*
X10808Y10039D1*
X10717Y10124D1*
X10650Y10229D1*
X10610Y10348D1*
X10600Y10472D1*
X10621Y10595D1*
X10670Y10709D1*
X10746Y10808D1*
X10844Y10886D1*
X10958Y10937D1*
X11080Y10959D1*
X11205Y10951D1*
X11324Y10913D1*
X11430Y10848D1*
X11517Y10758D1*
X11579Y10651D1*
X11608Y10550D1*
X11670Y10709D1*
X11746Y10808D1*
X11844Y10886D1*
X11958Y10937D1*
X12080Y10959D1*
X12205Y10951D1*
X12324Y10913D1*
X12430Y10848D1*
X12517Y10758D1*
X12579Y10651D1*
X12608Y10550D1*
X12647Y10665D1*
X12713Y10771D1*
X12803Y10857D1*
X12911Y10920D1*
X13031Y10954D1*
X13155Y10958D1*
X13277Y10932D1*
X13389Y10877D1*
X13484Y10797D1*
X13557Y10696D1*
X13604Y10580D1*
X13610Y10552D1*
X13670Y10709D1*
X13746Y10808D1*
X13844Y10886D1*
X13958Y10937D1*
X14080Y10959D1*
X14205Y10951D1*
X14324Y10913D1*
X14430Y10848D1*
X14517Y10758D1*
X14579Y10651D1*
X14600Y10579D1*
Y10960D1*
X14725D1*
X14968Y9940D2*
X14600D1*
Y10311D1*
X14560Y10210D1*
X14489Y10108D1*
X14394Y10026D1*
X14283Y9970D1*
X14203Y9952D1*
X14324Y9913D1*
X14430Y9848D1*
X14517Y9758D1*
X14579Y9651D1*
X14608Y9550D1*
X14670Y9709D1*
X14746Y9808D1*
X14844Y9886D1*
X14977Y9941D1*
X14018Y9950D2*
X13917Y9978D1*
X13808Y10039D1*
X13717Y10124D1*
X13650Y10229D1*
X13610Y10352D1*
X13582Y10255D1*
X13520Y10147D1*
X13434Y10056D1*
X13329Y9989D1*
X13212Y9950D1*
X13324Y9913D1*
X13430Y9848D1*
X13517Y9758D1*
X13579Y9651D1*
X13608Y9550D1*
X13670Y9709D1*
X13746Y9808D1*
X13844Y9886D1*
X13958Y9937D1*
X14015Y9948D1*
X13008Y9950D2*
X12894Y9988D1*
X12788Y10054D1*
X12702Y10144D1*
X12640Y10252D1*
X12610Y10348D1*
X12560Y10210D1*
X12489Y10108D1*
X12394Y10026D1*
X12283Y9970D1*
X12203Y9952D1*
X12324Y9913D1*
X12430Y9848D1*
X12517Y9758D1*
X12579Y9651D1*
X12608Y9550D1*
X12670Y9709D1*
X12746Y9808D1*
X12844Y9886D1*
X12958Y9937D1*
X13015Y9948D1*
X12018Y9950D2*
X11917Y9978D1*
X11808Y10039D1*
X11717Y10124D1*
X11650Y10229D1*
X11610Y10352D1*
X11560Y10210D1*
X11489Y10108D1*
X11394Y10026D1*
X11283Y9970D1*
X11203Y9952D1*
X11324Y9913D1*
X11430Y9848D1*
X11517Y9758D1*
X11579Y9651D1*
X11608Y9550D1*
X11670Y9709D1*
X11746Y9808D1*
X11844Y9886D1*
X11958Y9937D1*
X12015Y9948D1*
X5115Y31242D2*
X5224Y31243D1*
X5131Y31326D1*
X5059Y31427D1*
X5011Y31543D1*
X4991Y31666D1*
X4999Y31790D1*
X5035Y31910D1*
X5097Y32018D1*
X5182Y32109D1*
X5285Y32179D1*
X5312Y32193D1*
X5184Y32273D1*
X5099Y32364D1*
X5036Y32472D1*
X5000Y32591D1*
X4991Y32716D1*
X5010Y32839D1*
X5057Y32955D1*
X5128Y33057D1*
X5221Y33140D1*
X5330Y33201D1*
X5450Y33235D1*
X5575Y33241D1*
X5698Y33219D1*
X5812Y33170D1*
X5913Y33096D1*
X5994Y33002D1*
X6052Y32891D1*
X6084Y32771D1*
X6090Y32692D1*
X6075Y32569D1*
X6034Y32451D1*
X5967Y32346D1*
X5877Y32259D1*
X5767Y32193D1*
X5875Y32128D1*
X5964Y32042D1*
X6032Y31937D1*
X6075Y31820D1*
X6090Y31692D1*
X6075Y31569D1*
X6034Y31451D1*
X5967Y31346D1*
X5877Y31259D1*
X5854Y31242D1*
X6090D1*
Y30143D1*
X4990D1*
Y31242D1*
X5115D1*
X5055Y28460D2*
X5169D1*
X5124Y28491D1*
X5039Y28582D1*
X4976Y28690D1*
X4940Y28809D1*
X4931Y28933D1*
X4950Y29056D1*
X4997Y29172D1*
X5068Y29274D1*
X5161Y29358D1*
X5270Y29418D1*
X5390Y29452D1*
X5515Y29459D1*
X5638Y29437D1*
X5752Y29387D1*
X5853Y29314D1*
X5934Y29219D1*
X5992Y29109D1*
X6024Y28988D1*
X6030Y28910D1*
X6015Y28786D1*
X5974Y28669D1*
X5907Y28563D1*
X5788Y28458D1*
X6030Y28460D1*
Y27360D1*
X4930D1*
Y28460D1*
X5055D1*
X16757Y11818D2*
X16692Y11712D1*
X16593Y11637D1*
X16474Y11602D1*
X16350Y11612D1*
X16238Y11666D1*
X16153Y11757D1*
X16107Y11872D1*
X16105Y11997D1*
X16147Y12113D1*
X16229Y12207D1*
X16339Y12265D1*
X16463Y12279D1*
X16583Y12248D1*
X16684Y12176D1*
X16753Y12073D1*
X16780Y11940D1*
X16757Y11818D1*
X15887Y12818D2*
X15822Y12712D1*
X15723Y12637D1*
X15604Y12602D1*
X15480Y12612D1*
X15368Y12666D1*
X15283Y12757D1*
X15237Y12872D1*
X15235Y12997D1*
X15277Y13113D1*
X15359Y13207D1*
X15469Y13265D1*
X15593Y13279D1*
X15713Y13248D1*
X15814Y13176D1*
X15883Y13073D1*
X15910Y12940D1*
X15887Y12818D1*
X15757Y4818D2*
X15692Y4712D1*
X15593Y4637D1*
X15474Y4602D1*
X15350Y4612D1*
X15238Y4666D1*
X15153Y4757D1*
X15107Y4872D1*
X15105Y4997D1*
X15147Y5113D1*
X15229Y5207D1*
X15339Y5265D1*
X15463Y5279D1*
X15583Y5248D1*
X15684Y5176D1*
X15753Y5073D1*
X15780Y4940D1*
X15757Y4818D1*
X16757D2*
X16692Y4712D1*
X16593Y4637D1*
X16474Y4602D1*
X16350Y4612D1*
X16238Y4666D1*
X16153Y4757D1*
X16107Y4872D1*
X16105Y4997D1*
X16147Y5113D1*
X16229Y5207D1*
X16339Y5265D1*
X16463Y5279D1*
X16583Y5248D1*
X16684Y5176D1*
X16753Y5073D1*
X16780Y4940D1*
X16757Y4818D1*
X17757D2*
X17692Y4712D1*
X17593Y4637D1*
X17474Y4602D1*
X17350Y4612D1*
X17238Y4666D1*
X17153Y4757D1*
X17107Y4872D1*
X17105Y4997D1*
X17147Y5113D1*
X17229Y5207D1*
X17339Y5265D1*
X17463Y5279D1*
X17583Y5248D1*
X17684Y5176D1*
X17753Y5073D1*
X17780Y4940D1*
X17757Y4818D1*
X18757D2*
X18692Y4712D1*
X18593Y4637D1*
X18474Y4602D1*
X18350Y4612D1*
X18238Y4666D1*
X18153Y4757D1*
X18107Y4872D1*
X18105Y4997D1*
X18147Y5113D1*
X18229Y5207D1*
X18339Y5265D1*
X18463Y5279D1*
X18583Y5248D1*
X18684Y5176D1*
X18753Y5073D1*
X18780Y4940D1*
X18757Y4818D1*
X14757D2*
X14692Y4712D1*
X14593Y4637D1*
X14474Y4602D1*
X14350Y4612D1*
X14238Y4666D1*
X14153Y4757D1*
X14107Y4872D1*
X14105Y4997D1*
X14147Y5113D1*
X14229Y5207D1*
X14339Y5265D1*
X14463Y5279D1*
X14583Y5248D1*
X14684Y5176D1*
X14753Y5073D1*
X14780Y4940D1*
X14757Y4818D1*
Y5818D2*
X14692Y5712D1*
X14593Y5637D1*
X14474Y5602D1*
X14350Y5612D1*
X14238Y5666D1*
X14153Y5757D1*
X14107Y5872D1*
X14105Y5997D1*
X14147Y6113D1*
X14229Y6207D1*
X14339Y6265D1*
X14463Y6279D1*
X14583Y6248D1*
X14684Y6176D1*
X14753Y6073D1*
X14780Y5940D1*
X14757Y5818D1*
Y6818D2*
X14692Y6712D1*
X14593Y6637D1*
X14474Y6602D1*
X14350Y6612D1*
X14238Y6666D1*
X14153Y6757D1*
X14107Y6872D1*
X14105Y6997D1*
X14147Y7113D1*
X14229Y7207D1*
X14339Y7265D1*
X14463Y7279D1*
X14583Y7248D1*
X14684Y7176D1*
X14753Y7073D1*
X14780Y6940D1*
X14757Y6818D1*
X12757Y7818D2*
X12692Y7712D1*
X12593Y7637D1*
X12474Y7602D1*
X12350Y7612D1*
X12238Y7666D1*
X12153Y7757D1*
X12107Y7872D1*
X12105Y7997D1*
X12147Y8113D1*
X12229Y8207D1*
X12339Y8265D1*
X12463Y8279D1*
X12583Y8248D1*
X12684Y8176D1*
X12753Y8073D1*
X12780Y7940D1*
X12757Y7818D1*
X13757D2*
X13692Y7712D1*
X13593Y7637D1*
X13474Y7602D1*
X13350Y7612D1*
X13238Y7666D1*
X13153Y7757D1*
X13107Y7872D1*
X13105Y7997D1*
X13147Y8113D1*
X13229Y8207D1*
X13339Y8265D1*
X13463Y8279D1*
X13583Y8248D1*
X13684Y8176D1*
X13753Y8073D1*
X13780Y7940D1*
X13757Y7818D1*
X14757D2*
X14692Y7712D1*
X14593Y7637D1*
X14474Y7602D1*
X14350Y7612D1*
X14238Y7666D1*
X14153Y7757D1*
X14107Y7872D1*
X14105Y7997D1*
X14147Y8113D1*
X14229Y8207D1*
X14339Y8265D1*
X14463Y8279D1*
X14583Y8248D1*
X14684Y8176D1*
X14753Y8073D1*
X14780Y7940D1*
X14757Y7818D1*
X13757Y6818D2*
X13692Y6712D1*
X13593Y6637D1*
X13474Y6602D1*
X13350Y6612D1*
X13238Y6666D1*
X13153Y6757D1*
X13107Y6872D1*
X13105Y6997D1*
X13147Y7113D1*
X13229Y7207D1*
X13339Y7265D1*
X13463Y7279D1*
X13583Y7248D1*
X13684Y7176D1*
X13753Y7073D1*
X13780Y6940D1*
X13757Y6818D1*
X12757D2*
X12692Y6712D1*
X12593Y6637D1*
X12474Y6602D1*
X12350Y6612D1*
X12238Y6666D1*
X12153Y6757D1*
X12107Y6872D1*
X12105Y6997D1*
X12147Y7113D1*
X12229Y7207D1*
X12339Y7265D1*
X12463Y7279D1*
X12583Y7248D1*
X12684Y7176D1*
X12753Y7073D1*
X12780Y6940D1*
X12757Y6818D1*
X13757Y5768D2*
X13692Y5662D1*
X13593Y5587D1*
X13474Y5552D1*
X13350Y5562D1*
X13238Y5616D1*
X13153Y5707D1*
X13107Y5822D1*
X13105Y5947D1*
X13147Y6063D1*
X13229Y6157D1*
X13339Y6215D1*
X13463Y6229D1*
X13583Y6198D1*
X13684Y6126D1*
X13753Y6023D1*
X13780Y5890D1*
X13757Y5768D1*
X12747Y5798D2*
X12682Y5692D1*
X12583Y5617D1*
X12464Y5582D1*
X12340Y5592D1*
X12228Y5646D1*
X12143Y5737D1*
X12097Y5852D1*
X12095Y5977D1*
X12137Y6093D1*
X12219Y6187D1*
X12329Y6245D1*
X12453Y6259D1*
X12573Y6228D1*
X12674Y6156D1*
X12743Y6053D1*
X12770Y5920D1*
X12747Y5798D1*
X15757Y5818D2*
X15692Y5712D1*
X15593Y5637D1*
X15474Y5602D1*
X15350Y5612D1*
X15238Y5666D1*
X15153Y5757D1*
X15107Y5872D1*
X15105Y5997D1*
X15147Y6113D1*
X15229Y6207D1*
X15339Y6265D1*
X15463Y6279D1*
X15583Y6248D1*
X15684Y6176D1*
X15753Y6073D1*
X15780Y5940D1*
X15757Y5818D1*
X16757D2*
X16692Y5712D1*
X16593Y5637D1*
X16474Y5602D1*
X16350Y5612D1*
X16238Y5666D1*
X16153Y5757D1*
X16107Y5872D1*
X16105Y5997D1*
X16147Y6113D1*
X16229Y6207D1*
X16339Y6265D1*
X16463Y6279D1*
X16583Y6248D1*
X16684Y6176D1*
X16753Y6073D1*
X16780Y5940D1*
X16757Y5818D1*
X17757D2*
X17692Y5712D1*
X17593Y5637D1*
X17474Y5602D1*
X17350Y5612D1*
X17238Y5666D1*
X17153Y5757D1*
X17107Y5872D1*
X17105Y5997D1*
X17147Y6113D1*
X17229Y6207D1*
X17339Y6265D1*
X17463Y6279D1*
X17583Y6248D1*
X17684Y6176D1*
X17753Y6073D1*
X17780Y5940D1*
X17757Y5818D1*
X18757D2*
X18692Y5712D1*
X18593Y5637D1*
X18474Y5602D1*
X18350Y5612D1*
X18238Y5666D1*
X18153Y5757D1*
X18107Y5872D1*
X18105Y5997D1*
X18147Y6113D1*
X18229Y6207D1*
X18339Y6265D1*
X18463Y6279D1*
X18583Y6248D1*
X18684Y6176D1*
X18753Y6073D1*
X18780Y5940D1*
X18757Y5818D1*
X15757Y6818D2*
X15692Y6712D1*
X15593Y6637D1*
X15474Y6602D1*
X15350Y6612D1*
X15238Y6666D1*
X15153Y6757D1*
X15107Y6872D1*
X15105Y6997D1*
X15147Y7113D1*
X15229Y7207D1*
X15339Y7265D1*
X15463Y7279D1*
X15583Y7248D1*
X15684Y7176D1*
X15753Y7073D1*
X15780Y6940D1*
X15757Y6818D1*
X16757D2*
X16692Y6712D1*
X16593Y6637D1*
X16474Y6602D1*
X16350Y6612D1*
X16238Y6666D1*
X16153Y6757D1*
X16107Y6872D1*
X16105Y6997D1*
X16147Y7113D1*
X16229Y7207D1*
X16339Y7265D1*
X16463Y7279D1*
X16583Y7248D1*
X16684Y7176D1*
X16753Y7073D1*
X16780Y6940D1*
X16757Y6818D1*
X15757Y7818D2*
X15692Y7712D1*
X15593Y7637D1*
X15474Y7602D1*
X15350Y7612D1*
X15238Y7666D1*
X15153Y7757D1*
X15107Y7872D1*
X15105Y7997D1*
X15147Y8113D1*
X15229Y8207D1*
X15339Y8265D1*
X15463Y8279D1*
X15583Y8248D1*
X15684Y8176D1*
X15753Y8073D1*
X15780Y7940D1*
X15757Y7818D1*
X17757Y11818D2*
X17692Y11712D1*
X17593Y11637D1*
X17474Y11602D1*
X17350Y11612D1*
X17238Y11666D1*
X17153Y11757D1*
X17107Y11872D1*
X17105Y11997D1*
X17147Y12113D1*
X17229Y12207D1*
X17339Y12265D1*
X17463Y12279D1*
X17583Y12248D1*
X17684Y12176D1*
X17753Y12073D1*
X17780Y11940D1*
X17757Y11818D1*
Y10818D2*
X17692Y10712D1*
X17593Y10637D1*
X17474Y10602D1*
X17350Y10612D1*
X17238Y10666D1*
X17153Y10757D1*
X17107Y10872D1*
X17105Y10997D1*
X17147Y11113D1*
X17229Y11207D1*
X17339Y11265D1*
X17463Y11279D1*
X17583Y11248D1*
X17684Y11176D1*
X17753Y11073D1*
X17780Y10940D1*
X17757Y10818D1*
Y9818D2*
X17692Y9712D1*
X17593Y9637D1*
X17474Y9602D1*
X17350Y9612D1*
X17238Y9666D1*
X17153Y9757D1*
X17107Y9872D1*
X17105Y9997D1*
X17147Y10113D1*
X17229Y10207D1*
X17339Y10265D1*
X17463Y10279D1*
X17583Y10248D1*
X17684Y10176D1*
X17753Y10073D1*
X17780Y9940D1*
X17757Y9818D1*
Y12818D2*
X17692Y12712D1*
X17593Y12637D1*
X17474Y12602D1*
X17350Y12612D1*
X17238Y12666D1*
X17153Y12757D1*
X17107Y12872D1*
X17105Y12997D1*
X17147Y13113D1*
X17229Y13207D1*
X17339Y13265D1*
X17463Y13279D1*
X17583Y13248D1*
X17684Y13176D1*
X17753Y13073D1*
X17780Y12940D1*
X17757Y12818D1*
X16757D2*
X16692Y12712D1*
X16593Y12637D1*
X16474Y12602D1*
X16350Y12612D1*
X16238Y12666D1*
X16153Y12757D1*
X16107Y12872D1*
X16105Y12997D1*
X16147Y13113D1*
X16229Y13207D1*
X16339Y13265D1*
X16463Y13279D1*
X16583Y13248D1*
X16684Y13176D1*
X16753Y13073D1*
X16780Y12940D1*
X16757Y12818D1*
X15857Y13818D2*
X15792Y13712D1*
X15693Y13637D1*
X15574Y13602D1*
X15450Y13612D1*
X15338Y13666D1*
X15253Y13757D1*
X15207Y13872D1*
X15205Y13997D1*
X15247Y14113D1*
X15329Y14207D1*
X15439Y14265D1*
X15563Y14279D1*
X15683Y14248D1*
X15784Y14176D1*
X15853Y14073D1*
X15880Y13940D1*
X15857Y13818D1*
X16757D2*
X16692Y13712D1*
X16593Y13637D1*
X16474Y13602D1*
X16350Y13612D1*
X16238Y13666D1*
X16153Y13757D1*
X16107Y13872D1*
X16105Y13997D1*
X16147Y14113D1*
X16229Y14207D1*
X16339Y14265D1*
X16463Y14279D1*
X16583Y14248D1*
X16684Y14176D1*
X16753Y14073D1*
X16780Y13940D1*
X16757Y13818D1*
Y14818D2*
X16692Y14712D1*
X16593Y14637D1*
X16474Y14602D1*
X16350Y14612D1*
X16238Y14666D1*
X16153Y14757D1*
X16107Y14872D1*
X16105Y14997D1*
X16147Y15113D1*
X16229Y15207D1*
X16339Y15265D1*
X16463Y15279D1*
X16583Y15248D1*
X16684Y15176D1*
X16753Y15073D1*
X16780Y14940D1*
X16757Y14818D1*
Y15818D2*
X16692Y15712D1*
X16593Y15637D1*
X16474Y15602D1*
X16350Y15612D1*
X16238Y15666D1*
X16153Y15757D1*
X16107Y15872D1*
X16105Y15997D1*
X16147Y16113D1*
X16229Y16207D1*
X16339Y16265D1*
X16463Y16279D1*
X16583Y16248D1*
X16684Y16176D1*
X16753Y16073D1*
X16780Y15940D1*
X16757Y15818D1*
X17707D2*
X17642Y15712D1*
X17543Y15637D1*
X17424Y15602D1*
X17300Y15612D1*
X17188Y15666D1*
X17103Y15757D1*
X17057Y15872D1*
X17055Y15997D1*
X17097Y16113D1*
X17179Y16207D1*
X17289Y16265D1*
X17413Y16279D1*
X17533Y16248D1*
X17634Y16176D1*
X17703Y16073D1*
X17730Y15940D1*
X17707Y15818D1*
X17757Y14818D2*
X17692Y14712D1*
X17593Y14637D1*
X17474Y14602D1*
X17350Y14612D1*
X17238Y14666D1*
X17153Y14757D1*
X17107Y14872D1*
X17105Y14997D1*
X17147Y15113D1*
X17229Y15207D1*
X17339Y15265D1*
X17463Y15279D1*
X17583Y15248D1*
X17684Y15176D1*
X17753Y15073D1*
X17780Y14940D1*
X17757Y14818D1*
Y13818D2*
X17692Y13712D1*
X17593Y13637D1*
X17474Y13602D1*
X17350Y13612D1*
X17238Y13666D1*
X17153Y13757D1*
X17107Y13872D1*
X17105Y13997D1*
X17147Y14113D1*
X17229Y14207D1*
X17339Y14265D1*
X17463Y14279D1*
X17583Y14248D1*
X17684Y14176D1*
X17753Y14073D1*
X17780Y13940D1*
X17757Y13818D1*
X18757Y12818D2*
X18692Y12712D1*
X18593Y12637D1*
X18474Y12602D1*
X18350Y12612D1*
X18238Y12666D1*
X18153Y12757D1*
X18107Y12872D1*
X18105Y12997D1*
X18147Y13113D1*
X18229Y13207D1*
X18339Y13265D1*
X18463Y13279D1*
X18583Y13248D1*
X18684Y13176D1*
X18753Y13073D1*
X18780Y12940D1*
X18757Y12818D1*
Y13818D2*
X18692Y13712D1*
X18593Y13637D1*
X18474Y13602D1*
X18350Y13612D1*
X18238Y13666D1*
X18153Y13757D1*
X18107Y13872D1*
X18105Y13997D1*
X18147Y14113D1*
X18229Y14207D1*
X18339Y14265D1*
X18463Y14279D1*
X18583Y14248D1*
X18684Y14176D1*
X18753Y14073D1*
X18780Y13940D1*
X18757Y13818D1*
X18707Y14818D2*
X18642Y14712D1*
X18543Y14637D1*
X18424Y14602D1*
X18300Y14612D1*
X18188Y14666D1*
X18103Y14757D1*
X18057Y14872D1*
X18055Y14997D1*
X18097Y15113D1*
X18179Y15207D1*
X18289Y15265D1*
X18413Y15279D1*
X18533Y15248D1*
X18634Y15176D1*
X18703Y15073D1*
X18730Y14940D1*
X18707Y14818D1*
X15967Y14808D2*
X15902Y14702D1*
X15803Y14627D1*
X15684Y14592D1*
X15560Y14602D1*
X15448Y14656D1*
X15363Y14747D1*
X15317Y14862D1*
X15315Y14987D1*
X15357Y15103D1*
X15439Y15197D1*
X15549Y15255D1*
X15673Y15269D1*
X15793Y15238D1*
X15894Y15166D1*
X15963Y15063D1*
X15990Y14930D1*
X15967Y14808D1*
X17757Y24818D2*
X17692Y24712D1*
X17593Y24637D1*
X17474Y24602D1*
X17350Y24612D1*
X17238Y24666D1*
X17153Y24757D1*
X17107Y24872D1*
X17105Y24997D1*
X17147Y25113D1*
X17229Y25207D1*
X17339Y25265D1*
X17463Y25279D1*
X17583Y25248D1*
X17684Y25176D1*
X17753Y25073D1*
X17780Y24940D1*
X17757Y24818D1*
Y23818D2*
X17692Y23712D1*
X17593Y23637D1*
X17474Y23602D1*
X17350Y23612D1*
X17238Y23666D1*
X17153Y23757D1*
X17107Y23872D1*
X17105Y23997D1*
X17147Y24113D1*
X17229Y24207D1*
X17339Y24265D1*
X17463Y24279D1*
X17583Y24248D1*
X17684Y24176D1*
X17753Y24073D1*
X17780Y23940D1*
X17757Y23818D1*
X17797Y22818D2*
X17732Y22712D1*
X17633Y22637D1*
X17514Y22602D1*
X17390Y22612D1*
X17278Y22666D1*
X17193Y22757D1*
X17147Y22872D1*
X17145Y22997D1*
X17187Y23113D1*
X17269Y23207D1*
X17379Y23265D1*
X17503Y23279D1*
X17623Y23248D1*
X17724Y23176D1*
X17793Y23073D1*
X17820Y22940D1*
X17797Y22818D1*
X17757Y21818D2*
X17692Y21712D1*
X17593Y21637D1*
X17474Y21602D1*
X17350Y21612D1*
X17238Y21666D1*
X17153Y21757D1*
X17107Y21872D1*
X17105Y21997D1*
X17147Y22113D1*
X17229Y22207D1*
X17339Y22265D1*
X17463Y22279D1*
X17583Y22248D1*
X17684Y22176D1*
X17753Y22073D1*
X17780Y21940D1*
X17757Y21818D1*
X18757D2*
X18692Y21712D1*
X18593Y21637D1*
X18474Y21602D1*
X18350Y21612D1*
X18238Y21666D1*
X18153Y21757D1*
X18107Y21872D1*
X18105Y21997D1*
X18147Y22113D1*
X18227Y22204D1*
X18145Y22224D1*
X18037Y22285D1*
X17953Y22377D1*
X17903Y22491D1*
X17891Y22615D1*
X17918Y22736D1*
X17983Y22843D1*
X18078Y22923D1*
X18193Y22970D1*
X18317Y22978D1*
X18438Y22947D1*
X18542Y22879D1*
X18620Y22782D1*
X18663Y22665D1*
X18670Y22590D1*
X18650Y22467D1*
X18593Y22357D1*
X18506Y22273D1*
X18583Y22248D1*
X18684Y22176D1*
X18753Y22073D1*
X18780Y21940D1*
X18757Y21818D1*
X7130Y29747D2*
X7109Y29695D1*
X7233Y29709D1*
X7353Y29678D1*
X7454Y29606D1*
X7523Y29503D1*
X7550Y29370D1*
X7527Y29248D1*
X7462Y29142D1*
X7363Y29067D1*
X7244Y29032D1*
X7120Y29042D1*
X7008Y29096D1*
X6923Y29187D1*
X6877Y29302D1*
X6875Y29427D1*
X6905Y29510D1*
X6871Y29496D1*
X6748Y29480D1*
X6625Y29504D1*
X6517Y29565D1*
X6433Y29657D1*
X6383Y29771D1*
X6371Y29895D1*
X6398Y30016D1*
X6463Y30123D1*
X6558Y30203D1*
X6673Y30250D1*
X6797Y30258D1*
X6918Y30227D1*
X7022Y30159D1*
X7100Y30062D1*
X7143Y29945D1*
X7150Y29870D1*
X7130Y29747D1*
X11187Y22968D2*
X11122Y22862D1*
X11023Y22787D1*
X10904Y22752D1*
X10780Y22762D1*
X10668Y22816D1*
X10583Y22907D1*
X10537Y23022D1*
X10535Y23147D1*
X10577Y23263D1*
X10659Y23357D1*
X10769Y23415D1*
X10893Y23429D1*
X11013Y23398D1*
X11114Y23326D1*
X11183Y23223D1*
X11210Y23090D1*
X11187Y22968D1*
X12293Y18034D2*
X12164Y17992D1*
X12040Y18002D1*
X11928Y18056D1*
X11843Y18147D1*
X11797Y18262D1*
X11795Y18387D1*
X11837Y18503D1*
X11919Y18597D1*
X12029Y18655D1*
X12153Y18669D1*
X12273Y18638D1*
X12374Y18566D1*
X12443Y18463D1*
X12466Y18360D1*
X12529Y18385D1*
X12653Y18399D1*
X12773Y18368D1*
X12874Y18296D1*
X12943Y18193D1*
X12970Y18060D1*
X12947Y17938D1*
X12882Y17832D1*
X12783Y17757D1*
X12664Y17722D1*
X12540Y17732D1*
X12428Y17786D1*
X12343Y17877D1*
X12297Y17992D1*
X12296Y18035D1*
X11407Y32898D2*
X11342Y32792D1*
X11243Y32717D1*
X11124Y32682D1*
X11027Y32690D1*
X11007Y32628D1*
X10942Y32522D1*
X10843Y32447D1*
X10724Y32412D1*
X10600Y32422D1*
X10488Y32476D1*
X10427Y32542D1*
X10358Y32528D1*
X10234Y32538D1*
X10122Y32592D1*
X10037Y32683D1*
X9991Y32798D1*
X9989Y32923D1*
X10032Y33039D1*
X10113Y33133D1*
X10223Y33191D1*
X10347Y33205D1*
X10467Y33174D1*
X10568Y33102D1*
X10588Y33073D1*
X10713Y33089D1*
X10754Y33079D1*
X10797Y33193D1*
X10879Y33287D1*
X10989Y33345D1*
X11113Y33359D1*
X11233Y33328D1*
X11334Y33256D1*
X11403Y33153D1*
X11430Y33020D1*
X11407Y32898D1*
X11597Y28358D2*
X11532Y28252D1*
X11433Y28177D1*
X11314Y28142D1*
X11233Y28149D1*
X11250Y28040D1*
X11227Y27918D1*
X11162Y27812D1*
X11063Y27737D1*
X10944Y27702D1*
X10820Y27712D1*
X10708Y27766D1*
X10623Y27857D1*
X10577Y27972D1*
X10575Y28097D1*
X10617Y28213D1*
X10699Y28307D1*
X10809Y28365D1*
X10933Y28379D1*
X10959Y28372D1*
X10947Y28412D1*
X10945Y28537D1*
X10987Y28653D1*
X11069Y28747D1*
X11179Y28805D1*
X11303Y28819D1*
X11423Y28788D1*
X11524Y28716D1*
X11593Y28613D1*
X11620Y28480D1*
X11597Y28358D1*
X9257Y27958D2*
X9192Y27852D1*
X9093Y27777D1*
X8974Y27742D1*
X8850Y27752D1*
X8738Y27806D1*
X8653Y27897D1*
X8607Y28016D1*
X8570Y28022D1*
X8458Y28076D1*
X8373Y28167D1*
X8327Y28282D1*
X8325Y28407D1*
X8367Y28523D1*
X8449Y28617D1*
X8559Y28675D1*
X8683Y28689D1*
X8803Y28658D1*
X8904Y28586D1*
X8973Y28483D1*
X8987Y28418D1*
X9083Y28388D1*
X9184Y28316D1*
X9253Y28213D1*
X9280Y28080D1*
X9257Y27958D1*
X12097Y33268D2*
X12032Y33162D1*
X11933Y33087D1*
X11814Y33052D1*
X11690Y33062D1*
X11578Y33116D1*
X11493Y33207D1*
X11447Y33322D1*
X11445Y33447D1*
X11487Y33563D1*
X11569Y33657D1*
X11679Y33715D1*
X11803Y33729D1*
X11923Y33698D1*
X12024Y33626D1*
X12093Y33523D1*
X12120Y33390D1*
X12097Y33268D1*
X13675Y33190D2*
X13667Y33148D1*
X13602Y33042D1*
X13503Y32967D1*
X13384Y32932D1*
X13260Y32942D1*
X13148Y32996D1*
X13063Y33087D1*
X13017Y33202D1*
X13015Y33327D1*
X13057Y33443D1*
X13139Y33537D1*
X13249Y33595D1*
X13315Y33602D1*
X13357Y33703D1*
X13439Y33797D1*
X13549Y33855D1*
X13673Y33869D1*
X13793Y33838D1*
X13894Y33766D1*
X13963Y33663D1*
X13982Y33575D1*
X14059Y33615D1*
X14183Y33629D1*
X14303Y33598D1*
X14404Y33526D1*
X14473Y33423D1*
X14500Y33290D1*
X14477Y33168D1*
X14412Y33062D1*
X14313Y32987D1*
X14194Y32952D1*
X14070Y32962D1*
X13958Y33016D1*
X13873Y33107D1*
X13826Y33242D1*
X13803Y33227D1*
X13680Y33192D1*
X13599Y25025D2*
X13510Y25032D1*
X13398Y25086D1*
X13313Y25177D1*
X13267Y25292D1*
X13265Y25417D1*
X13307Y25533D1*
X13389Y25627D1*
X13499Y25685D1*
X13623Y25699D1*
X13743Y25668D1*
X13822Y25612D1*
X13847Y25673D1*
X13929Y25767D1*
X14039Y25825D1*
X14163Y25839D1*
X14283Y25808D1*
X14384Y25736D1*
X14453Y25633D1*
X14480Y25500D1*
X14457Y25378D1*
X14392Y25272D1*
X14293Y25197D1*
X14174Y25162D1*
X14147Y25164D1*
X14233Y25043D1*
X14260Y24910D1*
X14231Y24778D1*
X14323Y24748D1*
X14424Y24676D1*
X14493Y24573D1*
X14520Y24440D1*
X14497Y24318D1*
X14432Y24212D1*
X14333Y24137D1*
X14214Y24102D1*
X14090Y24112D1*
X13978Y24166D1*
X13893Y24257D1*
X13847Y24372D1*
X13845Y24497D1*
X13873Y24573D1*
X13830Y24582D1*
X13718Y24636D1*
X13633Y24727D1*
X13587Y24842D1*
X13585Y24967D1*
X13605Y25021D1*
X13197Y17288D2*
X13132Y17182D1*
X13033Y17107D1*
X12895Y17073D1*
X12983Y16953D1*
X13010Y16820D1*
X12985Y16694D1*
X13063Y16699D1*
X13183Y16668D1*
X13284Y16596D1*
X13353Y16493D1*
X13380Y16360D1*
X13357Y16238D1*
X13292Y16132D1*
X13193Y16057D1*
X13167Y16049D1*
X13148Y15918D1*
X13083Y15812D1*
X12984Y15737D1*
X12864Y15702D1*
X12741Y15712D1*
X12629Y15766D1*
X12544Y15857D1*
X12497Y15972D1*
X12495Y16097D1*
X12538Y16213D1*
X12620Y16307D1*
X12699Y16348D1*
X12705Y16417D1*
X12730Y16486D1*
X12580Y16492D1*
X12468Y16546D1*
X12383Y16637D1*
X12337Y16752D1*
X12335Y16877D1*
X12377Y16993D1*
X12459Y17087D1*
X12569Y17145D1*
X12658Y17155D1*
X12593Y17227D1*
X12547Y17342D1*
X12545Y17467D1*
X12587Y17583D1*
X12669Y17677D1*
X12779Y17735D1*
X12903Y17749D1*
X13023Y17718D1*
X13124Y17646D1*
X13193Y17543D1*
X13220Y17410D1*
X13197Y17288D1*
X14955Y16338D2*
X14890Y16232D1*
X14791Y16157D1*
X14698Y16129D1*
X14677Y15998D1*
X14612Y15892D1*
X14513Y15817D1*
X14394Y15782D1*
X14270Y15792D1*
X14158Y15846D1*
X14073Y15937D1*
X14027Y16052D1*
X14025Y16177D1*
X14067Y16293D1*
X14149Y16387D1*
X14259Y16445D1*
X14294Y16449D1*
X14302Y16517D1*
X14345Y16633D1*
X14427Y16727D1*
X14537Y16785D1*
X14660Y16799D1*
X14781Y16768D1*
X14882Y16696D1*
X14951Y16593D1*
X14977Y16460D1*
X14955Y16338D1*
X13477Y22288D2*
X13412Y22182D1*
X13313Y22107D1*
X13194Y22072D1*
X13070Y22082D1*
X12958Y22136D1*
X12873Y22227D1*
X12827Y22342D1*
X12825Y22467D1*
X12867Y22583D1*
X12949Y22677D1*
X13059Y22735D1*
X13183Y22749D1*
X13303Y22718D1*
X13404Y22646D1*
X13473Y22543D1*
X13500Y22410D1*
X13477Y22288D1*
X12342Y13488D2*
X12414Y13436D1*
X12483Y13333D1*
X12510Y13200D1*
X12487Y13078D1*
X12422Y12972D1*
X12323Y12897D1*
X12204Y12862D1*
X12080Y12872D1*
X11968Y12926D1*
X11883Y13017D1*
X11837Y13132D1*
X11835Y13257D1*
X11877Y13373D1*
X11959Y13467D1*
X11997Y13487D1*
X11883Y13597D1*
X11837Y13712D1*
X11835Y13837D1*
X11865Y13920D1*
X11738Y13976D1*
X11653Y14067D1*
X11607Y14182D1*
X11605Y14307D1*
X11655Y14432D1*
X11540Y14442D1*
X11428Y14496D1*
X11343Y14587D1*
X11297Y14702D1*
X11295Y14827D1*
X11337Y14943D1*
X11419Y15037D1*
X11529Y15095D1*
X11653Y15109D1*
X11773Y15078D1*
X11874Y15006D1*
X11943Y14903D1*
X11970Y14770D1*
X11947Y14648D1*
X11913Y14592D1*
X11963Y14589D1*
X12083Y14558D1*
X12184Y14486D1*
X12253Y14383D1*
X12280Y14250D1*
X12247Y14111D1*
X12313Y14088D1*
X12414Y14016D1*
X12483Y13913D1*
X12510Y13780D1*
X12487Y13658D1*
X12422Y13552D1*
X12345Y13493D1*
X12414Y13436D1*
X12483Y13333D1*
X12510Y13200D1*
X12487Y13078D1*
X12422Y12972D1*
X12323Y12897D1*
X12204Y12862D1*
X12080Y12872D1*
X11968Y12926D1*
X11883Y13017D1*
X11837Y13132D1*
X11835Y13257D1*
X11877Y13373D1*
X11959Y13467D1*
X11997Y13487D1*
X14897Y22658D2*
X14832Y22552D1*
X14733Y22477D1*
X14614Y22442D1*
X14490Y22452D1*
X14378Y22506D1*
X14293Y22597D1*
X14247Y22712D1*
X14245Y22837D1*
X14287Y22953D1*
X14369Y23047D1*
X14479Y23105D1*
X14603Y23119D1*
X14723Y23088D1*
X14824Y23016D1*
X14893Y22913D1*
X14920Y22780D1*
X14897Y22658D1*
X13962Y16783D2*
X13897Y16677D1*
X13798Y16602D1*
X13679Y16567D1*
X13555Y16577D1*
X13443Y16631D1*
X13358Y16722D1*
X13312Y16837D1*
X13310Y16962D1*
X13352Y17078D1*
X13434Y17172D1*
X13458Y17185D1*
X13403Y17247D1*
X13357Y17362D1*
X13355Y17487D1*
X13397Y17603D1*
X13479Y17697D1*
X13589Y17755D1*
X13713Y17769D1*
X13833Y17738D1*
X13934Y17666D1*
X14003Y17563D1*
X14030Y17430D1*
X14007Y17308D1*
X13942Y17202D1*
X13877Y17152D1*
X13958Y17038D1*
X13985Y16905D1*
X13962Y16783D1*
X14571Y18058D2*
X14543Y18037D1*
X14424Y18002D1*
X14300Y18012D1*
X14188Y18066D1*
X14117Y18143D1*
X14052Y18042D1*
X13953Y17967D1*
X13834Y17932D1*
X13710Y17942D1*
X13598Y17996D1*
X13513Y18087D1*
X13467Y18202D1*
X13465Y18327D1*
X13507Y18443D1*
X13589Y18537D1*
X13699Y18595D1*
X13823Y18609D1*
X13943Y18578D1*
X14044Y18506D1*
X14072Y18464D1*
X14097Y18513D1*
X14179Y18607D1*
X14289Y18665D1*
X14413Y18679D1*
X14533Y18648D1*
X14555Y18633D1*
X14639Y18675D1*
X14763Y18689D1*
X14883Y18658D1*
X14984Y18586D1*
X15053Y18483D1*
X15080Y18350D1*
X15057Y18228D1*
X14992Y18122D1*
X14893Y18047D1*
X14774Y18012D1*
X14650Y18022D1*
X14577Y18058D1*
X15731Y21720D2*
X15717Y21648D1*
X15652Y21542D1*
X15553Y21467D1*
X15434Y21432D1*
X15310Y21442D1*
X15198Y21496D1*
X15113Y21587D1*
X15067Y21702D1*
X15065Y21827D1*
X15107Y21943D1*
X15189Y22037D1*
X15299Y22095D1*
X15423Y22109D1*
X15543Y22078D1*
X15644Y22006D1*
X15664Y21977D1*
X15707Y22103D1*
X15789Y22197D1*
X15899Y22255D1*
X16023Y22269D1*
X16143Y22238D1*
X16244Y22166D1*
X16313Y22063D1*
X16340Y21930D1*
X16317Y21808D1*
X16252Y21702D1*
X16206Y21667D1*
X16293Y21638D1*
X16394Y21566D1*
X16463Y21463D1*
X16490Y21330D1*
X16467Y21208D1*
X16402Y21102D1*
X16303Y21027D1*
X16184Y20992D1*
X16060Y21002D1*
X15948Y21056D1*
X15863Y21147D1*
X15817Y21262D1*
X15815Y21387D1*
X15857Y21503D1*
X15937Y21594D1*
X15798Y21656D1*
X15737Y21722D1*
X10667Y17301D2*
X10619Y17287D1*
X10495Y17297D1*
X10383Y17351D1*
X10298Y17442D1*
X10252Y17557D1*
X10251Y17585D1*
X10118Y17646D1*
X10033Y17737D1*
X9987Y17852D1*
X9985Y17977D1*
X10021Y18075D1*
X9934Y18052D1*
X9810Y18062D1*
X9698Y18116D1*
X9613Y18207D1*
X9567Y18322D1*
X9565Y18447D1*
X9607Y18563D1*
X9689Y18657D1*
X9799Y18715D1*
X9923Y18729D1*
X10043Y18698D1*
X10144Y18626D1*
X10213Y18523D1*
X10240Y18390D1*
X10217Y18268D1*
X10199Y18238D1*
X10343Y18259D1*
X10463Y18228D1*
X10564Y18156D1*
X10633Y18053D1*
X10654Y17958D1*
X10728Y17933D1*
X10829Y17861D1*
X10898Y17758D1*
X10925Y17625D1*
X10917Y17583D1*
X11023Y17589D1*
X11143Y17558D1*
X11244Y17486D1*
X11313Y17383D1*
X11340Y17250D1*
X11317Y17128D1*
X11252Y17022D1*
X11153Y16947D1*
X11034Y16912D1*
X10910Y16922D1*
X10798Y16976D1*
X10713Y17067D1*
X10667Y17182D1*
X10665Y17295D1*
X9846Y19863D2*
X9781Y19757D1*
X9682Y19682D1*
X9563Y19647D1*
X9439Y19657D1*
X9327Y19711D1*
X9243Y19802D1*
X9196Y19917D1*
X9194Y20042D1*
X9237Y20158D1*
X9318Y20252D1*
X9428Y20310D1*
X9552Y20324D1*
X9672Y20293D1*
X9774Y20221D1*
X9842Y20118D1*
X9869Y19985D1*
X9846Y19863D1*
X16067Y23588D2*
X16002Y23482D1*
X15903Y23407D1*
X15784Y23372D1*
X15660Y23382D1*
X15548Y23436D1*
X15463Y23527D1*
X15417Y23642D1*
X15415Y23767D1*
X15457Y23883D1*
X15539Y23977D1*
X15649Y24035D1*
X15773Y24049D1*
X15893Y24018D1*
X15994Y23946D1*
X16063Y23843D1*
X16090Y23710D1*
X16067Y23588D1*
X14177Y21668D2*
X14112Y21562D1*
X14013Y21487D1*
X13894Y21452D1*
X13770Y21462D1*
X13658Y21516D1*
X13573Y21607D1*
X13527Y21722D1*
X13525Y21847D1*
X13567Y21963D1*
X13649Y22057D1*
X13759Y22115D1*
X13883Y22129D1*
X14003Y22098D1*
X14104Y22026D1*
X14173Y21923D1*
X14200Y21790D1*
X14177Y21668D1*
X7797Y20998D2*
X7732Y20892D1*
X7633Y20817D1*
X7514Y20782D1*
X7390Y20792D1*
X7278Y20846D1*
X7193Y20937D1*
X7147Y21052D1*
X7145Y21177D1*
X7187Y21293D1*
X7269Y21387D1*
X7379Y21445D1*
X7503Y21459D1*
X7623Y21428D1*
X7724Y21356D1*
X7793Y21253D1*
X7820Y21120D1*
X7797Y20998D1*
X15777Y18988D2*
X15712Y18882D1*
X15613Y18807D1*
X15494Y18772D1*
X15370Y18782D1*
X15258Y18836D1*
X15173Y18927D1*
X15127Y19042D1*
X15125Y19167D1*
X15167Y19283D1*
X15249Y19377D1*
X15359Y19435D1*
X15483Y19449D1*
X15603Y19418D1*
X15704Y19346D1*
X15773Y19243D1*
X15800Y19110D1*
X15777Y18988D1*
X7227Y21368D2*
X7162Y21262D1*
X7063Y21187D1*
X6944Y21152D1*
X6820Y21162D1*
X6708Y21216D1*
X6623Y21307D1*
X6577Y21422D1*
X6575Y21519D1*
X6505Y21399D1*
X6406Y21324D1*
X6287Y21289D1*
X6163Y21300D1*
X6051Y21354D1*
X5966Y21445D1*
X5919Y21560D1*
X5917Y21684D1*
X5960Y21801D1*
X6042Y21894D1*
X6152Y21952D1*
X6275Y21967D1*
X6396Y21936D1*
X6497Y21864D1*
X6566Y21760D1*
X6592Y21628D1*
X6570Y21505D1*
X6617Y21663D1*
X6699Y21757D1*
X6809Y21815D1*
X6933Y21829D1*
X7053Y21798D1*
X7154Y21726D1*
X7223Y21623D1*
X7250Y21490D1*
X7227Y21368D1*
X7162Y21262D1*
X7063Y21187D1*
X6944Y21152D1*
X6820Y21162D1*
X6708Y21216D1*
X6623Y21307D1*
X6577Y21422D1*
X6575Y21519D1*
X6617Y21663D1*
X6699Y21757D1*
X6809Y21815D1*
X6933Y21829D1*
X7053Y21798D1*
X7154Y21726D1*
X7223Y21623D1*
X7250Y21490D1*
X7227Y21368D1*
X5882Y19755D2*
X5817Y19649D1*
X5718Y19574D1*
X5599Y19539D1*
X5475Y19550D1*
X5363Y19604D1*
X5278Y19695D1*
X5232Y19810D1*
X5230Y19934D1*
X5272Y20051D1*
X5354Y20144D1*
X5464Y20202D1*
X5588Y20217D1*
X5708Y20186D1*
X5809Y20114D1*
X5878Y20010D1*
X5905Y19878D1*
X5882Y19755D1*
X18102Y7913D2*
X18037Y7807D1*
X17939Y7731D1*
X17819Y7697D1*
X17695Y7707D1*
X17583Y7761D1*
X17499Y7852D1*
X17452Y7967D1*
X17450Y8091D1*
X17493Y8208D1*
X17575Y8302D1*
X17684Y8360D1*
X17808Y8374D1*
X17928Y8343D1*
X18030Y8271D1*
X18098Y8167D1*
X18125Y8035D1*
X18102Y7913D1*
X18107Y9028D2*
X18042Y8922D1*
X17943Y8847D1*
X17824Y8812D1*
X17700Y8822D1*
X17588Y8876D1*
X17503Y8967D1*
X17457Y9082D1*
X17455Y9207D1*
X17497Y9323D1*
X17579Y9417D1*
X17689Y9475D1*
X17813Y9489D1*
X17933Y9458D1*
X18034Y9386D1*
X18103Y9283D1*
X18130Y9150D1*
X18107Y9028D1*
X10442Y21047D2*
X10423Y21067D1*
X10377Y21182D1*
X10375Y21307D1*
X10417Y21423D1*
X10499Y21517D1*
X10609Y21575D1*
X10733Y21589D1*
X10853Y21558D1*
X10954Y21486D1*
X11023Y21383D1*
X11050Y21250D1*
X11027Y21128D1*
X10947Y21010D1*
X10993Y20933D1*
X11020Y20800D1*
X10997Y20678D1*
X10932Y20572D1*
X10833Y20497D1*
X10714Y20462D1*
X10590Y20472D1*
X10478Y20526D1*
X10393Y20617D1*
X10347Y20732D1*
X10345Y20857D1*
X10387Y20973D1*
X10446Y21041D1*
X10423Y21067D1*
X10377Y21182D1*
X10375Y21307D1*
X10417Y21423D1*
X10499Y21517D1*
X10609Y21575D1*
X10733Y21589D1*
X10853Y21558D1*
X10954Y21486D1*
X11023Y21383D1*
X11050Y21250D1*
X11027Y21128D1*
X10947Y21010D1*
X6607Y34698D2*
X6573Y34642D1*
X6603Y34583D1*
X6630Y34450D1*
X6607Y34328D1*
X6542Y34222D1*
X6443Y34147D1*
X6324Y34112D1*
X6200Y34122D1*
X6088Y34176D1*
X6003Y34267D1*
X5957Y34382D1*
X5955Y34507D1*
X6005Y34632D1*
X5957Y34752D1*
X5955Y34877D1*
X5997Y34993D1*
X6079Y35087D1*
X6189Y35145D1*
X6313Y35159D1*
X6433Y35128D1*
X6534Y35056D1*
X6603Y34953D1*
X6630Y34820D1*
X6607Y34698D1*
X18650Y23487D2*
X18593Y23377D1*
X18503Y23290D1*
X18391Y23236D1*
X18268Y23220D1*
X18145Y23244D1*
X18037Y23305D1*
X17953Y23397D1*
X17903Y23511D1*
X17891Y23635D1*
X17918Y23756D1*
X17983Y23863D1*
X18078Y23943D1*
X18193Y23990D1*
X18317Y23998D1*
X18438Y23967D1*
X18542Y23899D1*
X18620Y23802D1*
X18663Y23685D1*
X18670Y23610D1*
X18650Y23487D1*
X18590Y11677D2*
X18533Y11567D1*
X18443Y11480D1*
X18331Y11426D1*
X18208Y11410D1*
X18085Y11434D1*
X17977Y11495D1*
X17893Y11587D1*
X17843Y11701D1*
X17831Y11825D1*
X17858Y11946D1*
X17923Y12053D1*
X18018Y12133D1*
X18133Y12180D1*
X18257Y12188D1*
X18378Y12157D1*
X18482Y12089D1*
X18560Y11992D1*
X18603Y11875D1*
X18610Y11800D1*
X18590Y11677D1*
X19442Y11481D2*
X19308Y11460D1*
X19185Y11484D1*
X19077Y11545D1*
X18993Y11637D1*
X18943Y11751D1*
X18931Y11875D1*
X18958Y11996D1*
X19023Y12103D1*
X19118Y12183D1*
X19233Y12230D1*
X19357Y12238D1*
X19444Y12216D1*
X18570Y10727D2*
X18513Y10617D1*
X18423Y10530D1*
X18311Y10476D1*
X18188Y10460D1*
X18065Y10484D1*
X17957Y10545D1*
X17873Y10637D1*
X17823Y10751D1*
X17811Y10875D1*
X17838Y10996D1*
X17903Y11103D1*
X17998Y11183D1*
X18113Y11230D1*
X18237Y11238D1*
X18358Y11207D1*
X18462Y11139D1*
X18540Y11042D1*
X18583Y10925D1*
X18590Y10850D1*
X18570Y10727D1*
X18513Y10617D1*
X18423Y10530D1*
X18311Y10476D1*
X18188Y10460D1*
X18065Y10484D1*
X17957Y10545D1*
X17873Y10637D1*
X17823Y10751D1*
X17811Y10875D1*
X17838Y10996D1*
X17903Y11103D1*
X17998Y11183D1*
X18113Y11230D1*
X18237Y11238D1*
X18358Y11207D1*
X18462Y11139D1*
X18540Y11042D1*
X18583Y10925D1*
X18590Y10850D1*
X18570Y10727D1*
X15777Y18988D2*
X15712Y18882D1*
X15613Y18807D1*
X15494Y18772D1*
X15370Y18782D1*
X15258Y18836D1*
X15173Y18927D1*
X15127Y19042D1*
X15125Y19167D1*
X15167Y19283D1*
X15249Y19377D1*
X15359Y19435D1*
X15483Y19449D1*
X15603Y19418D1*
X15704Y19346D1*
X15773Y19243D1*
X15800Y19110D1*
X15777Y18988D1*
X19306Y22252D2*
X19195Y22274D1*
X19087Y22335D1*
X19003Y22427D1*
X18953Y22541D1*
X18941Y22665D1*
X18968Y22786D1*
X19033Y22893D1*
X19128Y22973D1*
X19243Y23020D1*
X19367Y23028D1*
X19439Y23010D1*
X11837Y16598D2*
X11772Y16492D1*
X11673Y16417D1*
X11554Y16382D1*
X11430Y16392D1*
X11318Y16446D1*
X11233Y16537D1*
X11187Y16652D1*
X11185Y16777D1*
X11227Y16893D1*
X11309Y16987D1*
X11419Y17045D1*
X11543Y17059D1*
X11663Y17028D1*
X11764Y16956D1*
X11833Y16853D1*
X11860Y16720D1*
X11837Y16598D1*
X10250Y17590D2*
X10118Y17646D1*
X10033Y17737D1*
X9987Y17852D1*
X9985Y17977D1*
X10021Y18075D1*
X9934Y18052D1*
X9810Y18062D1*
X9698Y18116D1*
X9613Y18207D1*
X9567Y18322D1*
X9565Y18447D1*
X9607Y18563D1*
X9689Y18657D1*
X9799Y18715D1*
X9923Y18729D1*
X10043Y18698D1*
X10144Y18626D1*
X10213Y18523D1*
X10240Y18390D1*
X10217Y18268D1*
X10199Y18238D1*
X10343Y18259D1*
X10463Y18228D1*
X10564Y18156D1*
X10633Y18053D1*
X10654Y17958D1*
X9167Y15678D2*
X9102Y15572D1*
X9003Y15497D1*
X8884Y15462D1*
X8760Y15472D1*
X8648Y15526D1*
X8563Y15617D1*
X8517Y15732D1*
X8515Y15857D1*
X8557Y15973D1*
X8639Y16067D1*
X8749Y16125D1*
X8873Y16139D1*
X8993Y16108D1*
X9094Y16036D1*
X9163Y15933D1*
X9190Y15800D1*
X9167Y15678D1*
X8362Y16746D2*
X8503Y16769D1*
X8623Y16738D1*
X8724Y16666D1*
X8793Y16563D1*
X8820Y16430D1*
X8797Y16308D1*
X8732Y16202D1*
X8633Y16127D1*
X8514Y16092D1*
X8390Y16102D1*
X8270Y16165D1*
X8184Y16142D1*
X8060Y16152D1*
X7948Y16206D1*
X7863Y16297D1*
X7817Y16412D1*
X7815Y16537D1*
X7857Y16653D1*
X7939Y16747D1*
X8049Y16805D1*
X8173Y16819D1*
X8293Y16788D1*
X8353Y16746D1*
X8503Y16769D1*
X8623Y16738D1*
X8724Y16666D1*
X8793Y16563D1*
X8820Y16430D1*
X8797Y16308D1*
X8732Y16202D1*
X8633Y16127D1*
X8514Y16092D1*
X8390Y16102D1*
X8270Y16165D1*
X9167Y15678D2*
X9102Y15572D1*
X9003Y15497D1*
X8884Y15462D1*
X8760Y15472D1*
X8648Y15526D1*
X8563Y15617D1*
X8517Y15732D1*
X8515Y15857D1*
X8557Y15973D1*
X8639Y16067D1*
X8749Y16125D1*
X8873Y16139D1*
X8993Y16108D1*
X9094Y16036D1*
X9163Y15933D1*
X9190Y15800D1*
X9167Y15678D1*
X9697Y22958D2*
X9632Y22852D1*
X9533Y22777D1*
X9414Y22742D1*
X9290Y22752D1*
X9178Y22806D1*
X9093Y22897D1*
X9047Y23012D1*
X9045Y23137D1*
X9087Y23253D1*
X9169Y23347D1*
X9279Y23405D1*
X9403Y23419D1*
X9523Y23388D1*
X9624Y23316D1*
X9693Y23213D1*
X9720Y23080D1*
X9697Y22958D1*
X15887Y22828D2*
X15822Y22722D1*
X15723Y22647D1*
X15604Y22612D1*
X15480Y22622D1*
X15368Y22676D1*
X15283Y22767D1*
X15237Y22882D1*
X15235Y23007D1*
X15277Y23123D1*
X15359Y23217D1*
X15469Y23275D1*
X15593Y23289D1*
X15713Y23258D1*
X15814Y23186D1*
X15883Y23083D1*
X15910Y22950D1*
X15887Y22828D1*
X17377Y17118D2*
X17312Y17012D1*
X17213Y16937D1*
X17094Y16902D1*
X16970Y16912D1*
X16858Y16966D1*
X16773Y17057D1*
X16727Y17172D1*
X16725Y17297D1*
X16767Y17413D1*
X16849Y17507D1*
X16959Y17565D1*
X17083Y17579D1*
X17203Y17548D1*
X17304Y17476D1*
X17373Y17373D1*
X17400Y17240D1*
X17377Y17118D1*
X15777Y18988D2*
X15712Y18882D1*
X15613Y18807D1*
X15494Y18772D1*
X15370Y18782D1*
X15258Y18836D1*
X15173Y18927D1*
X15127Y19042D1*
X15125Y19167D1*
X15167Y19283D1*
X15249Y19377D1*
X15359Y19435D1*
X15483Y19449D1*
X15603Y19418D1*
X15704Y19346D1*
X15773Y19243D1*
X15800Y19110D1*
X15777Y18988D1*
X10267Y25808D2*
X10202Y25702D1*
X10103Y25627D1*
X9984Y25592D1*
X9860Y25602D1*
X9748Y25656D1*
X9663Y25747D1*
X9617Y25862D1*
X9615Y25987D1*
X9657Y26103D1*
X9739Y26197D1*
X9849Y26255D1*
X9973Y26269D1*
X10093Y26238D1*
X10194Y26166D1*
X10263Y26063D1*
X10290Y25930D1*
X10267Y25808D1*
X8877Y30350D2*
X8812Y30244D1*
X8713Y30169D1*
X8594Y30134D1*
X8470Y30145D1*
X8358Y30199D1*
X8273Y30290D1*
X8227Y30405D1*
X8225Y30529D1*
X8267Y30646D1*
X8349Y30739D1*
X8459Y30797D1*
X8502Y30802D1*
X8505Y30894D1*
X8547Y31011D1*
X8629Y31104D1*
X8739Y31162D1*
X8863Y31177D1*
X8983Y31146D1*
X9084Y31074D1*
X9153Y30970D1*
X9180Y30838D1*
X9157Y30715D1*
X9092Y30609D1*
X8993Y30534D1*
X8900Y30507D1*
X8877Y30350D1*
X10117Y27908D2*
X10052Y27802D1*
X9953Y27727D1*
X9834Y27692D1*
X9710Y27702D1*
X9598Y27756D1*
X9513Y27847D1*
X9467Y27962D1*
X9465Y28087D1*
X9507Y28203D1*
X9589Y28297D1*
X9699Y28355D1*
X9823Y28369D1*
X9943Y28338D1*
X10044Y28266D1*
X10113Y28163D1*
X10140Y28030D1*
X10117Y27908D1*
X8307Y27828D2*
X8242Y27722D1*
X8143Y27647D1*
X8024Y27612D1*
X7900Y27622D1*
X7788Y27676D1*
X7703Y27767D1*
X7657Y27882D1*
X7655Y28007D1*
X7697Y28123D1*
X7779Y28217D1*
X7889Y28275D1*
X8013Y28289D1*
X8133Y28258D1*
X8234Y28186D1*
X8303Y28083D1*
X8330Y27950D1*
X8307Y27828D1*
X8242Y27722D1*
X8143Y27647D1*
X8024Y27612D1*
X7900Y27622D1*
X7788Y27676D1*
X7703Y27767D1*
X7657Y27882D1*
X7655Y28007D1*
X7697Y28123D1*
X7779Y28217D1*
X7889Y28275D1*
X8013Y28289D1*
X8133Y28258D1*
X8234Y28186D1*
X8303Y28083D1*
X8330Y27950D1*
X8307Y27828D1*
X14547Y32158D2*
X14482Y32052D1*
X14383Y31977D1*
X14264Y31942D1*
X14140Y31952D1*
X14028Y32006D1*
X13943Y32097D1*
X13897Y32212D1*
X13895Y32337D1*
X13937Y32453D1*
X14019Y32547D1*
X14129Y32605D1*
X14253Y32619D1*
X14373Y32588D1*
X14474Y32516D1*
X14543Y32413D1*
X14570Y32280D1*
X14547Y32158D1*
X10207Y30765D2*
X10142Y30659D1*
X10043Y30584D1*
X10017Y30576D1*
X10103Y30453D1*
X10130Y30320D1*
X10107Y30198D1*
X10042Y30092D1*
X9943Y30017D1*
X9824Y29982D1*
X9700Y29992D1*
X9588Y30046D1*
X9503Y30137D1*
X9457Y30252D1*
X9455Y30377D1*
X9497Y30493D1*
X9579Y30587D1*
X9665Y30632D1*
X9603Y30705D1*
X9557Y30820D1*
X9555Y30944D1*
X9597Y31061D1*
X9679Y31154D1*
X9789Y31212D1*
X9913Y31227D1*
X10033Y31196D1*
X10134Y31124D1*
X10203Y31020D1*
X10230Y30888D1*
X10207Y30765D1*
X17387Y18688D2*
X17322Y18582D1*
X17223Y18507D1*
X17104Y18472D1*
X16980Y18482D1*
X16868Y18536D1*
X16783Y18627D1*
X16737Y18742D1*
X16735Y18867D1*
X16777Y18983D1*
X16859Y19077D1*
X16969Y19135D1*
X17093Y19149D1*
X17213Y19118D1*
X17314Y19046D1*
X17383Y18943D1*
X17410Y18810D1*
X17387Y18688D1*
X9696Y15181D2*
X9719Y15207D1*
X9829Y15265D1*
X9953Y15279D1*
X10073Y15248D1*
X10174Y15176D1*
X10243Y15073D1*
X10270Y14940D1*
X10247Y14818D1*
X10182Y14712D1*
X10083Y14637D1*
X9964Y14602D1*
X9840Y14612D1*
X9728Y14666D1*
X9643Y14757D1*
X9597Y14872D1*
X9595Y14997D1*
X9601Y15025D1*
X9523Y14967D1*
X9404Y14932D1*
X9280Y14942D1*
X9168Y14996D1*
X9083Y15087D1*
X9037Y15202D1*
X9035Y15327D1*
X9077Y15443D1*
X9159Y15537D1*
X9269Y15595D1*
X9393Y15609D1*
X9513Y15578D1*
X9614Y15506D1*
X9683Y15403D1*
X9710Y15270D1*
X9694Y15182D1*
X9719Y15207D1*
X9829Y15265D1*
X9953Y15279D1*
X10073Y15248D1*
X10174Y15176D1*
X10243Y15073D1*
X10270Y14940D1*
X10247Y14818D1*
X10182Y14712D1*
X10083Y14637D1*
X9964Y14602D1*
X9840Y14612D1*
X9728Y14666D1*
X9643Y14757D1*
X9597Y14872D1*
X9595Y14997D1*
X9604Y15022D1*
X14637Y14188D2*
X14572Y14082D1*
X14473Y14007D1*
X14354Y13972D1*
X14230Y13982D1*
X14118Y14036D1*
X14033Y14127D1*
X13987Y14242D1*
X13985Y14367D1*
X14027Y14483D1*
X14109Y14577D1*
X14219Y14635D1*
X14343Y14649D1*
X14463Y14618D1*
X14564Y14546D1*
X14633Y14443D1*
X14660Y14310D1*
X14637Y14188D1*
X13148Y15918D2*
X13083Y15812D1*
X12984Y15737D1*
X12864Y15702D1*
X12741Y15712D1*
X12629Y15766D1*
X12544Y15857D1*
X12497Y15972D1*
X12495Y16097D1*
X12538Y16213D1*
X12620Y16307D1*
X12699Y16348D1*
X12497Y11848D2*
X12432Y11742D1*
X12333Y11667D1*
X12214Y11632D1*
X12090Y11642D1*
X11978Y11696D1*
X11893Y11787D1*
X11847Y11902D1*
X11845Y12027D1*
X11887Y12143D1*
X11969Y12237D1*
X12079Y12295D1*
X12203Y12309D1*
X12323Y12278D1*
X12424Y12206D1*
X12493Y12103D1*
X12520Y11970D1*
X12497Y11848D1*
X5999Y7588D2*
X5943Y7647D1*
X5897Y7762D1*
X5895Y7887D1*
X5937Y8003D1*
X6019Y8097D1*
X6129Y8155D1*
X6253Y8169D1*
X6373Y8138D1*
X6474Y8066D1*
X6543Y7963D1*
X6570Y7830D1*
X6547Y7708D1*
X6482Y7602D1*
X6461Y7585D1*
X6543Y7473D1*
X6570Y7340D1*
X6547Y7218D1*
X6482Y7112D1*
X6383Y7037D1*
X6264Y7002D1*
X6140Y7012D1*
X6028Y7066D1*
X5943Y7157D1*
X5897Y7272D1*
X5895Y7397D1*
X5937Y7513D1*
X5996Y7581D1*
X5943Y7647D1*
X5897Y7762D1*
X5895Y7887D1*
X5937Y8003D1*
X6019Y8097D1*
X6129Y8155D1*
X6253Y8169D1*
X6373Y8138D1*
X6474Y8066D1*
X6543Y7963D1*
X6570Y7830D1*
X6547Y7708D1*
X6482Y7602D1*
X6461Y7585D1*
X18570Y10727D2*
X18513Y10617D1*
X18423Y10530D1*
X18311Y10476D1*
X18188Y10460D1*
X18065Y10484D1*
X17957Y10545D1*
X17873Y10637D1*
X17823Y10751D1*
X17811Y10875D1*
X17838Y10996D1*
X17903Y11103D1*
X17998Y11183D1*
X18113Y11230D1*
X18237Y11238D1*
X18358Y11207D1*
X18462Y11139D1*
X18540Y11042D1*
X18583Y10925D1*
X18590Y10850D1*
X18570Y10727D1*
X11627Y25398D2*
X11562Y25292D1*
X11463Y25217D1*
X11344Y25182D1*
X11220Y25192D1*
X11108Y25246D1*
X11023Y25337D1*
X10977Y25452D1*
X10975Y25577D1*
X11017Y25693D1*
X11099Y25787D1*
X11209Y25845D1*
X11333Y25859D1*
X11453Y25828D1*
X11554Y25756D1*
X11623Y25653D1*
X11650Y25520D1*
X11627Y25398D1*
X8277Y24458D2*
X8212Y24352D1*
X8113Y24277D1*
X7994Y24242D1*
X7870Y24252D1*
X7758Y24306D1*
X7673Y24397D1*
X7627Y24512D1*
X7625Y24637D1*
X7667Y24753D1*
X7749Y24847D1*
X7859Y24905D1*
X7983Y24919D1*
X8103Y24888D1*
X8204Y24816D1*
X8273Y24713D1*
X8300Y24580D1*
X8277Y24458D1*
X18927Y20188D2*
X18862Y20082D1*
X18763Y20007D1*
X18644Y19972D1*
X18520Y19982D1*
X18408Y20036D1*
X18323Y20127D1*
X18277Y20242D1*
X18275Y20367D1*
X18317Y20483D1*
X18399Y20577D1*
X18509Y20635D1*
X18633Y20649D1*
X18753Y20618D1*
X18854Y20546D1*
X18923Y20443D1*
X18950Y20310D1*
X18927Y20188D1*
X8967Y12288D2*
X8902Y12182D1*
X8803Y12107D1*
X8684Y12072D1*
X8560Y12082D1*
X8448Y12136D1*
X8363Y12227D1*
X8317Y12342D1*
X8315Y12467D1*
X8357Y12583D1*
X8439Y12677D1*
X8549Y12735D1*
X8673Y12749D1*
X8793Y12718D1*
X8894Y12646D1*
X8963Y12543D1*
X8990Y12410D1*
X8967Y12288D1*
X13737Y29668D2*
X13672Y29562D1*
X13573Y29487D1*
X13453Y29452D1*
X13330Y29462D1*
X13218Y29516D1*
X13133Y29607D1*
X13086Y29722D1*
X13084Y29847D1*
X13127Y29963D1*
X13209Y30057D1*
X13319Y30115D1*
X13442Y30129D1*
X13563Y30098D1*
X13664Y30026D1*
X13733Y29923D1*
X13759Y29790D1*
X13737Y29668D1*
X14477Y31398D2*
X14412Y31292D1*
X14313Y31217D1*
X14194Y31182D1*
X14070Y31192D1*
X13958Y31246D1*
X13873Y31337D1*
X13827Y31452D1*
X13825Y31577D1*
X13867Y31693D1*
X13949Y31787D1*
X14059Y31845D1*
X14183Y31859D1*
X14303Y31828D1*
X14404Y31756D1*
X14473Y31653D1*
X14500Y31520D1*
X14477Y31398D1*
X8297Y30705D2*
X8232Y30599D1*
X8133Y30524D1*
X8014Y30489D1*
X7890Y30500D1*
X7778Y30554D1*
X7693Y30645D1*
X7647Y30760D1*
X7645Y30884D1*
X7687Y31001D1*
X7769Y31094D1*
X7879Y31152D1*
X8003Y31167D1*
X8123Y31136D1*
X8224Y31064D1*
X8293Y30960D1*
X8320Y30828D1*
X8297Y30705D1*
X10337Y36508D2*
X10272Y36402D1*
X10173Y36327D1*
X10054Y36292D1*
X9930Y36302D1*
X9818Y36356D1*
X9733Y36447D1*
X9687Y36562D1*
X9685Y36687D1*
X9727Y36803D1*
X9809Y36897D1*
X9919Y36955D1*
X10043Y36969D1*
X10163Y36938D1*
X10264Y36866D1*
X10333Y36763D1*
X10360Y36630D1*
X10337Y36508D1*
X11107Y26887D2*
X11097Y26912D1*
X11095Y27037D1*
X11137Y27153D1*
X11219Y27247D1*
X11329Y27305D1*
X11453Y27319D1*
X11573Y27288D1*
X11674Y27216D1*
X11743Y27113D1*
X11770Y26980D1*
X11747Y26858D1*
X11682Y26752D1*
X11583Y26677D1*
X11464Y26642D1*
X11383Y26649D1*
X11400Y26550D1*
X11377Y26428D1*
X11312Y26322D1*
X11213Y26247D1*
X11094Y26212D1*
X10970Y26222D1*
X10858Y26276D1*
X10773Y26367D1*
X10727Y26482D1*
X10725Y26607D1*
X10767Y26723D1*
X10849Y26817D1*
X10959Y26875D1*
X11102Y26884D1*
X11095Y27037D1*
X11137Y27153D1*
X11219Y27247D1*
X11329Y27305D1*
X11453Y27319D1*
X11573Y27288D1*
X11674Y27216D1*
X11743Y27113D1*
X11770Y26980D1*
X11747Y26858D1*
X11682Y26752D1*
X11583Y26677D1*
X11464Y26642D1*
X11383Y26649D1*
X10117Y27908D2*
X10052Y27802D1*
X9953Y27727D1*
X9834Y27692D1*
X9710Y27702D1*
X9598Y27756D1*
X9513Y27847D1*
X9467Y27962D1*
X9465Y28087D1*
X9507Y28203D1*
X9589Y28297D1*
X9699Y28355D1*
X9823Y28369D1*
X9943Y28338D1*
X10044Y28266D1*
X10113Y28163D1*
X10140Y28030D1*
X10117Y27908D1*
X14547Y32158D2*
X14482Y32052D1*
X14383Y31977D1*
X14264Y31942D1*
X14140Y31952D1*
X14028Y32006D1*
X13943Y32097D1*
X13897Y32212D1*
X13895Y32337D1*
X13937Y32453D1*
X14019Y32547D1*
X14129Y32605D1*
X14253Y32619D1*
X14373Y32588D1*
X14474Y32516D1*
X14543Y32413D1*
X14570Y32280D1*
X14547Y32158D1*
X14477Y31398D2*
X14412Y31292D1*
X14313Y31217D1*
X14194Y31182D1*
X14070Y31192D1*
X13958Y31246D1*
X13873Y31337D1*
X13827Y31452D1*
X13825Y31577D1*
X13867Y31693D1*
X13949Y31787D1*
X14059Y31845D1*
X14183Y31859D1*
X14303Y31828D1*
X14404Y31756D1*
X14473Y31653D1*
X14500Y31520D1*
X14477Y31398D1*
X16327Y30021D2*
X16262Y29915D1*
X16163Y29839D1*
X16044Y29804D1*
X15920Y29815D1*
X15808Y29869D1*
X15723Y29960D1*
X15677Y30075D1*
X15675Y30199D1*
X15717Y30316D1*
X15799Y30410D1*
X15909Y30468D1*
X16033Y30482D1*
X16153Y30451D1*
X16254Y30379D1*
X16323Y30275D1*
X16350Y30143D1*
X16327Y30021D1*
X13737Y29668D2*
X13672Y29562D1*
X13573Y29487D1*
X13453Y29452D1*
X13330Y29462D1*
X13218Y29516D1*
X13133Y29607D1*
X13086Y29722D1*
X13084Y29847D1*
X13127Y29963D1*
X13209Y30057D1*
X13319Y30115D1*
X13442Y30129D1*
X13563Y30098D1*
X13664Y30026D1*
X13733Y29923D1*
X13759Y29790D1*
X13737Y29668D1*
X4794Y7593D2*
X4743Y7647D1*
X4697Y7762D1*
X4695Y7887D1*
X4737Y8003D1*
X4819Y8097D1*
X4929Y8155D1*
X5053Y8169D1*
X5173Y8138D1*
X5274Y8066D1*
X5343Y7963D1*
X5370Y7830D1*
X5347Y7708D1*
X5279Y7600D1*
X5353Y7493D1*
X5380Y7360D1*
X5357Y7238D1*
X5292Y7132D1*
X5193Y7057D1*
X5074Y7022D1*
X4950Y7032D1*
X4838Y7086D1*
X4753Y7177D1*
X4707Y7292D1*
X4705Y7417D1*
X4747Y7533D1*
X4791Y7583D1*
X4743Y7647D1*
X4697Y7762D1*
X4695Y7887D1*
X4737Y8003D1*
X4819Y8097D1*
X4929Y8155D1*
X5053Y8169D1*
X5173Y8138D1*
X5274Y8066D1*
X5343Y7963D1*
X5370Y7830D1*
X5347Y7708D1*
X5279Y7600D1*
X4866Y34634D2*
X4817Y34752D1*
X4815Y34877D1*
X4857Y34993D1*
X4939Y35087D1*
X5049Y35145D1*
X5173Y35159D1*
X5293Y35128D1*
X5394Y35056D1*
X5463Y34953D1*
X5490Y34820D1*
X5467Y34698D1*
X5433Y34642D1*
X5463Y34583D1*
X5490Y34450D1*
X5467Y34328D1*
X5402Y34222D1*
X5303Y34147D1*
X5184Y34112D1*
X5060Y34122D1*
X4948Y34176D1*
X4863Y34267D1*
X4817Y34382D1*
X4815Y34507D1*
X4865Y34632D1*
X4817Y34752D1*
X4815Y34877D1*
X4857Y34993D1*
X4939Y35087D1*
X5049Y35145D1*
X5173Y35159D1*
X5293Y35128D1*
X5394Y35056D1*
X5463Y34953D1*
X5490Y34820D1*
X5467Y34698D1*
X5433Y34642D1*
X7637Y23308D2*
X7572Y23202D1*
X7473Y23127D1*
X7354Y23092D1*
X7230Y23102D1*
X7118Y23156D1*
X7033Y23247D1*
X6987Y23362D1*
X6985Y23487D1*
X7027Y23603D1*
X7109Y23697D1*
X7219Y23755D1*
X7343Y23769D1*
X7463Y23738D1*
X7564Y23666D1*
X7633Y23563D1*
X7660Y23430D1*
X7637Y23308D1*
X6757Y25228D2*
X6692Y25122D1*
X6658Y25096D1*
X6733Y24983D1*
X6760Y24850D1*
X6737Y24728D1*
X6672Y24622D1*
X6573Y24547D1*
X6454Y24512D1*
X6330Y24522D1*
X6218Y24576D1*
X6133Y24667D1*
X6087Y24782D1*
X6085Y24907D1*
X6127Y25023D1*
X6202Y25108D1*
X6153Y25167D1*
X6107Y25282D1*
X6105Y25407D1*
X6147Y25523D1*
X6229Y25617D1*
X6339Y25675D1*
X6463Y25689D1*
X6583Y25658D1*
X6684Y25586D1*
X6753Y25483D1*
X6780Y25350D1*
X6757Y25228D1*
X6335Y22819D2*
X6300Y22822D1*
X6188Y22876D1*
X6103Y22967D1*
X6057Y23082D1*
X6055Y23187D1*
X5960Y23202D1*
X5848Y23256D1*
X5763Y23347D1*
X5717Y23462D1*
X5715Y23587D1*
X5757Y23703D1*
X5839Y23797D1*
X5949Y23855D1*
X6073Y23869D1*
X6193Y23838D1*
X6294Y23766D1*
X6363Y23663D1*
X6390Y23530D1*
X6382Y23488D1*
X6413Y23489D1*
X6533Y23458D1*
X6634Y23386D1*
X6703Y23283D1*
X6716Y23226D1*
X6813Y23198D1*
X6914Y23126D1*
X6983Y23023D1*
X7010Y22890D1*
X6987Y22768D1*
X6922Y22662D1*
X6823Y22587D1*
X6704Y22552D1*
X6580Y22562D1*
X6468Y22616D1*
X6383Y22707D1*
X6341Y22812D1*
X15957Y17298D2*
X15892Y17192D1*
X15793Y17117D1*
X15674Y17082D1*
X15550Y17092D1*
X15438Y17146D1*
X15353Y17237D1*
X15307Y17352D1*
X15305Y17477D1*
X15347Y17593D1*
X15429Y17687D1*
X15539Y17745D1*
X15663Y17759D1*
X15783Y17728D1*
X15884Y17656D1*
X15953Y17553D1*
X15980Y17420D1*
X15957Y17298D1*
X17367Y19648D2*
X17302Y19542D1*
X17203Y19467D1*
X17084Y19432D1*
X16960Y19442D1*
X16848Y19496D1*
X16763Y19587D1*
X16717Y19702D1*
X16715Y19827D1*
X16757Y19943D1*
X16839Y20037D1*
X16949Y20095D1*
X17073Y20109D1*
X17193Y20078D1*
X17294Y20006D1*
X17363Y19903D1*
X17390Y19770D1*
X17367Y19648D1*
X12817Y22718D2*
X12752Y22612D1*
X12653Y22537D1*
X12534Y22502D1*
X12410Y22512D1*
X12298Y22566D1*
X12213Y22657D1*
X12167Y22772D1*
X12165Y22897D1*
X12207Y23013D1*
X12289Y23107D1*
X12399Y23165D1*
X12523Y23179D1*
X12643Y23148D1*
X12744Y23076D1*
X12813Y22973D1*
X12840Y22840D1*
X12817Y22718D1*
X13457Y14808D2*
X13392Y14702D1*
X13293Y14627D1*
X13174Y14592D1*
X13050Y14602D1*
X12938Y14656D1*
X12853Y14747D1*
X12807Y14862D1*
X12805Y14987D1*
X12847Y15103D1*
X12929Y15197D1*
X13039Y15255D1*
X13163Y15269D1*
X13283Y15238D1*
X13384Y15166D1*
X13453Y15063D1*
X13480Y14930D1*
X13457Y14808D1*
X8847Y17888D2*
X8782Y17782D1*
X8683Y17707D1*
X8564Y17672D1*
X8440Y17682D1*
X8328Y17736D1*
X8243Y17827D1*
X8197Y17942D1*
X8195Y18067D1*
X8237Y18183D1*
X8319Y18277D1*
X8429Y18335D1*
X8553Y18349D1*
X8673Y18318D1*
X8774Y18246D1*
X8843Y18143D1*
X8870Y18010D1*
X8847Y17888D1*
X17137Y8778D2*
X17072Y8672D1*
X16973Y8597D1*
X16854Y8562D1*
X16730Y8572D1*
X16618Y8626D1*
X16533Y8717D1*
X16487Y8832D1*
X16485Y8957D1*
X16527Y9073D1*
X16609Y9167D1*
X16719Y9225D1*
X16843Y9239D1*
X16963Y9208D1*
X17064Y9136D1*
X17133Y9033D1*
X17160Y8900D1*
X17137Y8778D1*
X17147Y21208D2*
X17082Y21102D1*
X16983Y21027D1*
X16864Y20992D1*
X16740Y21002D1*
X16628Y21056D1*
X16543Y21147D1*
X16497Y21262D1*
X16495Y21387D1*
X16537Y21503D1*
X16619Y21597D1*
X16729Y21655D1*
X16853Y21669D1*
X16973Y21638D1*
X17074Y21566D1*
X17143Y21463D1*
X17170Y21330D1*
X17147Y21208D1*
X13067Y23448D2*
X13002Y23342D1*
X12903Y23267D1*
X12784Y23232D1*
X12660Y23242D1*
X12548Y23296D1*
X12463Y23387D1*
X12417Y23502D1*
X12415Y23627D1*
X12457Y23743D1*
X12539Y23837D1*
X12649Y23895D1*
X12773Y23909D1*
X12893Y23878D1*
X12994Y23806D1*
X13063Y23703D1*
X13090Y23570D1*
X13067Y23448D1*
X8917Y26778D2*
X8852Y26672D1*
X8753Y26597D1*
X8634Y26562D1*
X8510Y26572D1*
X8398Y26626D1*
X8313Y26717D1*
X8267Y26832D1*
X8265Y26957D1*
X8307Y27073D1*
X8389Y27167D1*
X8499Y27225D1*
X8623Y27239D1*
X8743Y27208D1*
X8844Y27136D1*
X8913Y27033D1*
X8940Y26900D1*
X8917Y26778D1*
X12427Y26858D2*
X12362Y26752D1*
X12263Y26677D1*
X12144Y26642D1*
X12020Y26652D1*
X11908Y26706D1*
X11823Y26797D1*
X11777Y26912D1*
X11775Y27037D1*
X11817Y27153D1*
X11899Y27247D1*
X12009Y27305D1*
X12133Y27319D1*
X12253Y27288D1*
X12354Y27216D1*
X12423Y27113D1*
X12450Y26980D1*
X12427Y26858D1*
X16717Y19378D2*
X16652Y19272D1*
X16553Y19197D1*
X16434Y19162D1*
X16310Y19172D1*
X16198Y19226D1*
X16113Y19317D1*
X16067Y19432D1*
X16065Y19557D1*
X16107Y19673D1*
X16189Y19767D1*
X16299Y19825D1*
X16423Y19839D1*
X16543Y19808D1*
X16644Y19736D1*
X16713Y19633D1*
X16740Y19500D1*
X16717Y19378D1*
X10421Y32546D2*
X10358Y32528D1*
X10234Y32538D1*
X10122Y32592D1*
X10037Y32683D1*
X9991Y32798D1*
X9989Y32923D1*
X10032Y33039D1*
X10113Y33133D1*
X10223Y33191D1*
X10347Y33205D1*
X10467Y33174D1*
X10568Y33102D1*
X10588Y33073D1*
X12227Y23638D2*
X12162Y23532D1*
X12063Y23457D1*
X11944Y23422D1*
X11820Y23432D1*
X11708Y23486D1*
X11623Y23577D1*
X11577Y23692D1*
X11575Y23817D1*
X11617Y23933D1*
X11699Y24027D1*
X11809Y24085D1*
X11933Y24099D1*
X12053Y24068D1*
X12154Y23996D1*
X12223Y23893D1*
X12250Y23760D1*
X12227Y23638D1*
X9467Y28718D2*
X9402Y28612D1*
X9303Y28537D1*
X9184Y28502D1*
X9060Y28512D1*
X8948Y28566D1*
X8863Y28657D1*
X8817Y28772D1*
X8815Y28897D1*
X8857Y29013D1*
X8939Y29107D1*
X9049Y29165D1*
X9173Y29179D1*
X9293Y29148D1*
X9394Y29076D1*
X9463Y28973D1*
X9490Y28840D1*
X9467Y28718D1*
X11639Y21996D2*
X11617Y21878D1*
X11552Y21772D1*
X11453Y21697D1*
X11334Y21662D1*
X11210Y21672D1*
X11098Y21726D1*
X11013Y21817D1*
X10967Y21932D1*
X10965Y22057D1*
X11007Y22173D1*
X11089Y22267D1*
X11199Y22325D1*
X11323Y22339D1*
X11443Y22308D1*
X11544Y22236D1*
X11568Y22201D1*
X11575Y22257D1*
X11617Y22373D1*
X11699Y22467D1*
X11809Y22525D1*
X11933Y22539D1*
X12053Y22508D1*
X12154Y22436D1*
X12223Y22333D1*
X12250Y22200D1*
X12227Y22078D1*
X12162Y21972D1*
X12063Y21897D1*
X11944Y21862D1*
X11820Y21872D1*
X11708Y21926D1*
X11642Y21997D1*
X11307Y13978D2*
X11242Y13872D1*
X11143Y13797D1*
X11024Y13762D1*
X10900Y13772D1*
X10788Y13826D1*
X10703Y13917D1*
X10657Y14032D1*
X10655Y14157D1*
X10697Y14273D1*
X10779Y14367D1*
X10889Y14425D1*
X11013Y14439D1*
X11133Y14408D1*
X11234Y14336D1*
X11303Y14233D1*
X11330Y14100D1*
X11307Y13978D1*
X11857Y21188D2*
X11792Y21082D1*
X11693Y21007D1*
X11574Y20972D1*
X11450Y20982D1*
X11338Y21036D1*
X11253Y21127D1*
X11207Y21242D1*
X11205Y21367D1*
X11247Y21483D1*
X11329Y21577D1*
X11439Y21635D1*
X11563Y21649D1*
X11683Y21618D1*
X11784Y21546D1*
X11853Y21443D1*
X11880Y21310D1*
X11857Y21188D1*
X11167Y14738D2*
X11102Y14632D1*
X11003Y14557D1*
X10884Y14522D1*
X10760Y14532D1*
X10648Y14586D1*
X10563Y14677D1*
X10517Y14792D1*
X10515Y14917D1*
X10557Y15033D1*
X10639Y15127D1*
X10749Y15185D1*
X10873Y15199D1*
X10993Y15168D1*
X11094Y15096D1*
X11163Y14993D1*
X11190Y14860D1*
X11167Y14738D1*
X15130Y26930D2*
D28*
Y25910D1*
Y26420D2*
X15640D1*
X13110Y10960D2*
Y9940D1*
X12600Y10450D2*
X13620D1*
X4991Y31692D2*
X6089D1*
D47*
X17877Y39815D3*
D48*
X16227D3*
X14577D3*
X17877Y41975D3*
X16227D3*
X14577D3*
X25690Y37040D3*
Y39010D3*
D49*
X6815Y13460D3*
Y12476D3*
X6028Y13460D3*
Y12476D3*
D50*
X4961Y15338D3*
Y10598D3*
D51*
X14130Y26420D3*
D52*
X15130D3*
X16130D3*
X17130D3*
X18130D3*
X19130D3*
X20130D3*
X21130D3*
X22130D3*
X23130D3*
X24130D3*
X25130D3*
X26130D3*
X14130Y27420D3*
X15130D3*
X16130D3*
X17130D3*
X18130D3*
X19130D3*
X20130D3*
X21130D3*
X22130D3*
X23130D3*
X24130D3*
X25130D3*
X26130D3*
D51*
X15110Y10450D3*
D52*
X14110D3*
X13110D3*
X12110D3*
X11110D3*
X15110Y9450D3*
X14110D3*
X13110D3*
X12110D3*
X11110D3*
D53*
X26422Y13790D3*
D54*
Y14790D3*
Y15790D3*
Y16790D3*
D53*
X26462Y8170D3*
D54*
Y9170D3*
Y10170D3*
Y11170D3*
D53*
X5540Y30692D3*
D54*
Y31692D3*
Y32692D3*
D53*
X5480Y27910D3*
D54*
Y28910D3*
X12950Y42640D3*
D55*
X5440Y41940D3*
Y5440D3*
X26440D3*
Y41940D3*
M02*
