M48
INCH
T01C0.013
T02C0.022
T03C0.0354
T04C0.0362
T05C0.0433
T06C0.052
T07C0.0551
T08C0.091
T09C0.125
%
T01
X+025087Y+032151
X+025087Y+031838
X+025399Y+031838
X+025399Y+032151
X+025712Y+032151
X+025712Y+031838
X+026024Y+031838
X+026024Y+032151
X+026337Y+032151
X+026337Y+031838
X+026337Y+031526
X+026337Y+031213
X+026024Y+031213
X+026024Y+031526
X+025712Y+031526
X+025712Y+031213
X+025399Y+031213
X+025399Y+031526
X+025087Y+031526
X+025087Y+031213
X+025087Y+030901
X+025399Y+030901
X+025712Y+030901
X+026024Y+030901
X+026337Y+030901
X+026440Y+030315
X+025440Y+030190
X+024440Y+030190
X+023440Y+030440
X+023440Y+029690
X+024190Y+029190
X+024530Y+028190
X+023627Y+028190
X+022175Y+028830
X+021525Y+028830
X+021700Y+029810
X+021700Y+030380
X+021747Y+032582
X+022042Y+032583
X+022042Y+032896
X+021747Y+032895
X+021747Y+033207
X+022042Y+033208
X+022520Y+033060
X+021435Y+033207
X+021140Y+033207
X+021140Y+032894
X+021435Y+032895
X+021435Y+032582
X+021140Y+032582
X+020828Y+032582
X+020533Y+032581
X+020533Y+032893
X+020828Y+032894
X+020828Y+033207
X+020533Y+033206
X+020221Y+033206
X+019931Y+033199
X+019931Y+032887
X+020221Y+032893
X+020221Y+032581
X+019931Y+032574
X+019618Y+032574
X+019319Y+032570
X+019319Y+032882
X+019618Y+032887
X+019618Y+033199
X+019319Y+033195
X+019007Y+033195
X+018695Y+033194
X+018695Y+032882
X+019007Y+032882
X+019007Y+032570
X+018695Y+032569
X+017830Y+031190
X+017900Y+030350
X+017900Y+029820
X+018155Y+028830
X+019425Y+028830
X+016010Y+030143
X+016550Y+031580
X+015550Y+033210
X+014160Y+033290
X+013650Y+033530
X+013350Y+033270
X+014100Y+034080
X+014630Y+034320
X+014530Y+036000
X+014110Y+036020
X+013930Y+036420
X+013590Y+036010
X+013920Y+037270
X+014253Y+038003
X+015090Y+037270
X+015090Y+036410
X+016460Y+036410
X+016480Y+037310
X+017610Y+037310
X+018400Y+037200
X+017630Y+036430
X+020180Y+036170
X+021440Y+036510
X+022440Y+036500
X+023440Y+036500
X+023590Y+035790
X+024440Y+035690
X+024440Y+036440
X+025315Y+036378
X+025440Y+035690
X+025440Y+034690
X+026440Y+034690
X+026442Y+035185
X+026442Y+035625
X+026440Y+036440
X+027440Y+036440
X+027625Y+035625
X+027627Y+035190
X+027440Y+034690
X+027440Y+033690
X+027440Y+032690
X+027440Y+031690
X+027440Y+030690
X+027440Y+029690
X+027440Y+028815
X+027440Y+027940
X+026600Y+028190
X+025590Y+028190
X+024970Y+025150
X+023640Y+025160
X+022351Y+025130
X+021440Y+024940
X+021440Y+023940
X+022550Y+024030
X+022580Y+023230
X+021440Y+021940
X+020440Y+021940
X+019440Y+021940
X+018440Y+021940
X+017440Y+021940
X+016830Y+021330
X+016150Y+021330
X+016000Y+021930
X+015400Y+021770
X+015570Y+022950
X+015750Y+023710
X+014580Y+022780
X+013860Y+021790
X+013950Y+021300
X+013160Y+022410
X+012500Y+022840
X+012750Y+023570
X+011910Y+023760
X+010870Y+023090
X+011300Y+022000
X+010980Y+021509
X+010710Y+021250
X+010680Y+020800
X+011540Y+021310
X+011910Y+022200
X+009380Y+023080
X+008460Y+023850
X+007960Y+024580
X+007320Y+023430
X+006670Y+022890
X+006390Y+023150
X+006050Y+023530
X+006420Y+024850
X+006440Y+025350
X+008600Y+026900
X+007990Y+027950
X+008003Y+028565
X+008660Y+028350
X+008940Y+028080
X+009150Y+028840
X+009800Y+028030
X+010230Y+028020
X+010910Y+028040
X+011280Y+028480
X+011430Y+026980
X+011060Y+026550
X+010810Y+025520
X+011310Y+025520
X+009950Y+025930
X+012110Y+026980
X+013600Y+025360
X+013920Y+024910
X+014180Y+024440
X+014620Y+024940
X+014140Y+025500
X+017440Y+024940
X+018440Y+024940
X+019440Y+024940
X+020440Y+024940
X+017440Y+023940
X+017480Y+022940
X+018940Y+020610
X+018610Y+020310
X+017050Y+019770
X+016400Y+019500
X+017070Y+018810
X+017430Y+019080
X+017060Y+017240
X+017390Y+015940
X+016440Y+015940
X+015920Y+016100
X+015130Y+015250
X+015650Y+014930
X+016440Y+014940
X+016440Y+013940
X+015540Y+013940
X+015570Y+012940
X+016440Y+012940
X+016440Y+011940
X+017440Y+011940
X+017440Y+010940
X+017440Y+009940
X+017790Y+009150
X+017530Y+008570
X+017785Y+008035
X+016820Y+008900
X+015290Y+008930
X+015440Y+007940
X+014440Y+007940
X+014440Y+006940
X+014440Y+005940
X+014440Y+004940
X+015440Y+004940
X+016440Y+004940
X+017440Y+004940
X+018440Y+004940
X+019440Y+004940
X+020440Y+004940
X+020565Y+005710
X+020565Y+006022
X+020252Y+006022
X+020253Y+005710
X+020252Y+006334
X+020248Y+006633
X+020560Y+006633
X+020565Y+006334
X+020877Y+006334
X+020873Y+006633
X+020873Y+006946
X+020866Y+007236
X+020866Y+007548
X+020865Y+007843
X+020553Y+007843
X+020554Y+007548
X+020241Y+007548
X+020240Y+007843
X+020240Y+008155
X+020239Y+008450
X+020552Y+008450
X+020553Y+008155
X+020865Y+008155
X+020864Y+008450
X+020864Y+008762
X+020863Y+009057
X+020551Y+009057
X+020552Y+008762
X+020239Y+008762
X+020238Y+009057
X+020241Y+007236
X+020248Y+006946
X+020560Y+006946
X+020554Y+007236
X+020877Y+006022
X+020878Y+005710
X+021440Y+004940
X+023440Y+004940
X+024440Y+004940
X+024950Y+006970
X+026440Y+006940
X+027440Y+006940
X+025040Y+009030
X+024950Y+010399
X+025440Y+010940
X+025440Y+011940
X+026440Y+011940
X+026440Y+012940
X+025440Y+012940
X+024878Y+013050
X+024440Y+012940
X+023670Y+012930
X+022920Y+012960
X+022482Y+012650
X+022440Y+011940
X+022440Y+010940
X+023440Y+010940
X+024440Y+010940
X+024440Y+011940
X+023440Y+011940
X+021490Y+012890
X+020440Y+012940
X+020440Y+013665
X+020440Y+013977
X+020127Y+013977
X+020128Y+013665
X+020127Y+014289
X+020123Y+014588
X+020435Y+014588
X+020440Y+014289
X+020752Y+014289
X+020748Y+014588
X+020748Y+014901
X+020741Y+015191
X+020741Y+015503
X+020740Y+015798
X+020740Y+016110
X+020739Y+016405
X+020739Y+016717
X+020738Y+017012
X+020426Y+017012
X+020427Y+016717
X+020114Y+016717
X+020113Y+017012
X+020114Y+016405
X+020115Y+016110
X+020428Y+016110
X+020427Y+016405
X+020428Y+015798
X+020428Y+015503
X+020116Y+015503
X+020115Y+015798
X+020116Y+015191
X+020123Y+014901
X+020435Y+014901
X+020428Y+015191
X+020752Y+013977
X+020753Y+013665
X+019440Y+012940
X+018440Y+012940
X+017440Y+012940
X+017440Y+013940
X+017440Y+014940
X+018390Y+014940
X+018440Y+013940
X+018860Y+016481
X+020426Y+017610
X+022439Y+017762
X+022930Y+017690
X+023690Y+017700
X+024878Y+017690
X+025440Y+017940
X+026440Y+017940
X+026440Y+018940
X+027440Y+018940
X+027440Y+017940
X+027440Y+019940
X+027440Y+020940
X+027440Y+021940
X+026440Y+021128
X+026128Y+021128
X+025815Y+021128
X+025503Y+021128
X+025200Y+021130
X+025190Y+020815
X+024878Y+020815
X+024878Y+020503
X+025190Y+020503
X+025503Y+020503
X+025503Y+020815
X+025815Y+020815
X+025815Y+020503
X+026128Y+020503
X+026440Y+020503
X+026440Y+020815
X+026128Y+020815
X+024878Y+021128
X+024565Y+021128
X+024253Y+021128
X+023940Y+021128
X+023628Y+021128
X+023628Y+020815
X+023628Y+020503
X+023940Y+020503
X+023940Y+020815
X+024253Y+020815
X+024253Y+020503
X+024565Y+020503
X+024565Y+020815
X+023315Y+020815
X+023315Y+020503
X+023315Y+021128
X+022610Y+021070
X+022440Y+019940
X+021620Y+019560
X+021440Y+019940
X+021440Y+020940
X+020440Y+020940
X+015460Y+019110
X+015095Y+018960
X+014740Y+018350
X+014390Y+018340
X+013800Y+018270
X+013690Y+017430
X+013645Y+016905
X+013040Y+016360
X+012830Y+016040
X+012670Y+016820
X+012880Y+017410
X+012630Y+018060
X+012130Y+018330
X+011520Y+017410
X+011000Y+017250
X+010970Y+017600
X+010585Y+017625
X+010320Y+017920
X+009900Y+018390
X+009503Y+018940
X+009529Y+019985
X+008530Y+018010
X+008150Y+016480
X+008480Y+016430
X+008850Y+015800
X+009370Y+015270
X+009930Y+014940
X+010850Y+014860
X+010990Y+014100
X+011630Y+014770
X+011940Y+014250
X+012170Y+013780
X+012170Y+013200
X+012180Y+011970
X+013860Y+013800
X+014320Y+014310
X+013140Y+014930
X+014360Y+016120
X+014637Y+016460
X+015640Y+017420
X+011520Y+016720
X+008460Y+014840
X+008650Y+012410
X+006230Y+007830
X+006230Y+007340
X+005040Y+007360
X+005030Y+007830
X+012440Y+007940
X+012440Y+006940
X+013440Y+006940
X+013440Y+007940
X+013440Y+005890
X+012430Y+005920
X+015440Y+005940
X+015440Y+006940
X+016440Y+006940
X+016440Y+005940
X+017440Y+005940
X+018440Y+005940
X+022564Y+009925
X+023050Y+009780
X+023820Y+009800
X+027440Y+011940
X+027440Y+012940
X+024878Y+014396
X+024878Y+016270
X+026510Y+022990
X+026700Y+024290
X+027440Y+023940
X+027020Y+025150
X+026440Y+032690
X+025440Y+032690
X+025440Y+033690
X+026440Y+033690
X+024490Y+034230
X+024410Y+033690
X+024440Y+032690
X+023187Y+034733
X+022010Y+035100
X+021940Y+037440
X+021802Y+038437
X+021490Y+038437
X+021490Y+038750
X+021802Y+038750
X+022115Y+038750
X+022428Y+038750
X+022740Y+038750
X+022740Y+039063
X+022740Y+039375
X+022428Y+039375
X+022428Y+039063
X+022115Y+039063
X+022115Y+039375
X+021802Y+039375
X+021802Y+039063
X+021490Y+039063
X+021490Y+039375
X+021490Y+039688
X+021802Y+039688
X+022115Y+039688
X+022428Y+039688
X+022740Y+039688
X+023440Y+039440
X+024440Y+039440
X+024440Y+038440
X+024440Y+037440
X+025315Y+037690
X+025440Y+038440
X+026440Y+038440
X+026440Y+037440
X+027440Y+037440
X+027440Y+038440
X+027440Y+039440
X+027440Y+040440
X+026440Y+040440
X+025440Y+040440
X+025440Y+039440
X+026440Y+039440
X+024440Y+040440
X+023440Y+040440
X+023440Y+041440
X+023440Y+042440
X+022440Y+042440
X+022440Y+041440
X+021440Y+041440
X+021440Y+042440
X+020440Y+042440
X+020440Y+041440
X+020440Y+040440
X+021440Y+040440
X+022440Y+040440
X+022428Y+038437
X+022740Y+038437
X+022115Y+038437
X+023440Y+038440
X+020730Y+037880
X+019440Y+039440
X+018680Y+038820
X+019440Y+040440
X+019440Y+041440
X+019440Y+042440
X+024440Y+041440
X+012570Y+041207
X+012550Y+040780
X+012579Y+040370
X+011280Y+039870
X+010504Y+040569
X+010191Y+040569
X+010191Y+040882
X+010504Y+040882
X+010504Y+041194
X+010191Y+041194
X+009879Y+041194
X+009879Y+040882
X+009879Y+040569
X+010135Y+039875
X+010330Y+039220
X+010330Y+038750
X+010020Y+037830
X+010815Y+037690
X+011253Y+037440
X+011253Y+036440
X+011190Y+035440
X+010190Y+035440
X+009690Y+035440
X+009190Y+035440
X+008690Y+035440
X+008690Y+034940
X+009190Y+034940
X+009690Y+034940
X+009690Y+034440
X+010190Y+034440
X+010190Y+034940
X+009190Y+034440
X+008690Y+034440
X+008190Y+034440
X+008190Y+034940
X+008190Y+035440
X+008190Y+036440
X+007190Y+036440
X+007190Y+037440
X+006190Y+037440
X+006190Y+036440
X+005190Y+036440
X+004315Y+036440
X+004315Y+035440
X+005190Y+035440
X+005150Y+034820
X+005150Y+034450
X+004315Y+034440
X+004315Y+033440
X+005190Y+033440
X+006190Y+033440
X+007190Y+033440
X+008190Y+033440
X+009190Y+033440
X+010324Y+032866
X+010690Y+032750
X+011090Y+033020
X+011780Y+033390
X+012517Y+034128
X+011190Y+034440
X+010020Y+036630
X+009190Y+036440
X+007190Y+035440
X+006190Y+035440
X+006290Y+034820
X+006290Y+034450
X+007190Y+034440
X+005190Y+037440
X+004315Y+037440
X+008815Y+041190
X+009237Y+041487
X+011128Y+041503
X+011325Y+042405
X+012231Y+042679
X+011940Y+038440
X+014230Y+032280
X+014160Y+031520
X+013419Y+029790
X+010420Y+030870
X+009890Y+030888
X+009790Y+030320
X+008840Y+030838
X+008560Y+030473
X+008130Y+030473
X+007980Y+030828
X+007210Y+029370
X+006252Y+021628
X+006910Y+021490
X+007480Y+021120
X+005565Y+019878
T02
X+006760Y+029870
X+019290Y+031200
X+021370Y+031200
X+023780Y+031240
X+023780Y+031730
X+023780Y+032240
X+025850Y+029570
X+027560Y+026920
X+025890Y+022510
X+023830Y+022510
X+021890Y+022650
X+021890Y+023600
X+020640Y+023600
X+020640Y+022650
X+019330Y+022640
X+019310Y+023610
X+018280Y+023610
X+018280Y+022590
X+022130Y+016435
X+022130Y+014355
X+021850Y+011820
X+021860Y+010820
X+020760Y+010820
X+020760Y+011820
X+019320Y+011850
X+019300Y+010850
X+018200Y+010850
X+018220Y+011800
X+022300Y+008460
X+022300Y+006421
X+024290Y+005508
X+023410Y+037400
X+020141Y+038810
X+020141Y+039319
X+020141Y+039819
T03
X+014130Y+026420
X+015130Y+026420
X+016130Y+026420
X+017130Y+026420
X+018130Y+026420
X+019130Y+026420
X+020130Y+026420
X+021130Y+026420
X+022130Y+026420
X+023130Y+026420
X+024130Y+026420
X+025130Y+026420
X+026130Y+026420
X+026130Y+027420
X+025130Y+027420
X+024130Y+027420
X+023130Y+027420
X+022130Y+027420
X+021130Y+027420
X+020130Y+027420
X+019130Y+027420
X+018130Y+027420
X+017130Y+027420
X+016130Y+027420
X+015130Y+027420
X+014130Y+027420
X+014110Y+010450
X+015110Y+010450
X+015110Y+009450
X+014110Y+009450
X+013110Y+009450
X+013110Y+010450
X+012110Y+010450
X+011110Y+010450
X+011110Y+009450
X+012110Y+009450
T04
X+006815Y+013460
X+006028Y+013460
X+006028Y+012476
X+006815Y+012476
T05
X+026422Y+013790
X+026422Y+014790
X+026422Y+015790
X+026422Y+016790
X+026462Y+011170
X+026462Y+010170
X+026462Y+009170
X+026462Y+008170
X+005480Y+027910
X+005480Y+028910
X+005540Y+030692
X+005540Y+031692
X+005540Y+032692
X+012950Y+042640
T06
X+025690Y+037040
X+025690Y+039010
T07
X+017877Y+039815
X+016227Y+039815
X+014577Y+039815
X+014577Y+041975
X+016227Y+041975
X+017877Y+041975
T08
X+004961Y+015338
X+004961Y+010598
T09
X+005440Y+041940
X+026440Y+041940
X+026440Y+005440
X+005440Y+005440
T00
M30
