G04 DipTrace 2.4.0.2*
%INTop.gbr*%
%MOIN*%
%ADD10C,0.01*%
%ADD13C,0.008*%
%ADD14C,0.024*%
%ADD15C,0.012*%
%ADD16C,0.016*%
%ADD17C,0.039*%
%ADD18C,0.011*%
%ADD19C,0.08*%
%ADD20C,0.03*%
%ADD21C,0.028*%
%ADD22C,0.05*%
%ADD23C,0.02*%
%ADD24C,0.022*%
%ADD25C,0.007*%
%ADD27C,0.025*%
%ADD28C,0.013*%
%ADD32R,0.0512X0.0591*%
%ADD33R,0.0433X0.0394*%
%ADD34R,0.0394X0.0433*%
%ADD35R,0.0354X0.0276*%
%ADD36R,0.0276X0.0354*%
%ADD37R,0.15X0.06*%
%ADD39R,0.0413X0.0256*%
%ADD40R,0.06X0.05*%
%ADD41R,0.085X0.07*%
%ADD42R,0.07X0.085*%
%ADD43R,0.0551X0.0472*%
%ADD44R,0.0276X0.0236*%
%ADD45R,0.0236X0.0276*%
%ADD46C,0.0394*%
%ADD47R,0.1X0.1*%
%ADD48C,0.1*%
%ADD49C,0.059*%
%ADD50C,0.125*%
%ADD51R,0.0591X0.0591*%
%ADD52C,0.0591*%
%ADD53R,0.0669X0.0669*%
%ADD54C,0.0669*%
%ADD55C,0.25*%
%ADD56R,0.0453X0.0276*%
%ADD57R,0.1791X0.1654*%
%ADD58R,0.0256X0.0413*%
%ADD59R,0.063X0.1063*%
%ADD60R,0.1063X0.063*%
%ADD61R,0.1X0.056*%
%ADD62C,0.04*%
%ADD64R,0.065X0.012*%
%ADD65R,0.08X0.25*%
%ADD66R,0.012X0.065*%
%ADD67R,0.25X0.08*%
%ADD68R,0.04X0.012*%
%ADD69R,0.075X0.068*%
%ADD70R,0.0374X0.0846*%
%ADD71R,0.128X0.0846*%
%ADD72R,0.0709X0.0157*%
%ADD73R,0.0236X0.0433*%
%ADD75R,0.0472X0.0551*%
%ADD76C,0.035*%
%FSLAX44Y44*%
G04*
G70*
G90*
G75*
G01*
%LNTop*%
%LPD*%
X9191Y39506D2*
D13*
X8986D1*
X8930Y39450D1*
Y39090D1*
X8990Y39030D1*
X5850Y38191D2*
D14*
X8209D1*
X10759D1*
X10947Y38003D1*
X13380D1*
X13590D1*
X14253D1*
X18147D1*
X18750Y37400D1*
Y37110D1*
X19120Y36740D1*
Y36470D1*
D15*
X19150D1*
Y36943D1*
D14*
X20117D1*
X20890Y36170D1*
X23740D1*
X23935Y35975D1*
Y35360D1*
Y35030D1*
Y35360D2*
D13*
X24340D1*
X24480Y35220D1*
Y35070D1*
X24490D1*
X8209Y37250D2*
D14*
Y38191D1*
X11130Y38440D2*
X10920D1*
X10759Y38279D1*
Y38191D1*
X13380Y38560D2*
D16*
Y38003D1*
X8990Y39030D2*
D13*
X8530D1*
X8209Y38709D1*
Y38191D1*
X17073Y33830D2*
X17180D1*
X16790Y34220D1*
X15060D1*
X14860Y34020D1*
X14160D1*
X14100Y34080D1*
X13590Y36010D2*
Y38003D1*
X18680Y38030D2*
Y37359D1*
X18750Y37289D1*
D14*
Y37400D1*
X19120Y36470D2*
D13*
Y36420D1*
X5850Y38191D2*
D17*
X4740D1*
Y30390D1*
X5260Y29870D1*
X6760D1*
X14429Y21958D2*
D18*
X13950Y21480D1*
Y21300D1*
X10980Y21509D2*
D13*
X10531Y21958D1*
X9139Y18339D2*
Y18354D1*
D18*
X9503Y18718D1*
Y18940D1*
X15960Y18478D2*
D13*
X15623Y18815D1*
X15240D1*
X15095Y18960D1*
X10970Y17600D2*
D18*
X10732Y17362D1*
X10668D1*
X10392Y17087D1*
X10949Y16530D2*
X11520Y17101D1*
Y17410D1*
X15100Y24030D2*
D13*
Y23870D1*
X15040Y23810D1*
X14930D1*
X14880Y23860D1*
Y24330D1*
X14608Y24602D1*
X14630D1*
X18101Y8465D2*
X17897D1*
X17850Y8511D1*
Y8658D1*
X17927Y8735D1*
X18877D1*
X19027Y8585D1*
X19463D1*
X19474Y8596D1*
X9350Y31198D2*
Y30878D1*
X9570Y30658D1*
X9630D1*
Y30630D1*
X10420D1*
Y30870D1*
Y31206D1*
X21431Y33973D2*
Y34311D1*
X21600Y34480D1*
Y34578D1*
X21692Y34670D1*
X14620Y24602D2*
Y24940D1*
X10392Y17087D2*
D18*
X10053Y16748D1*
X9945Y16640D1*
X9790D1*
X9640Y16490D1*
X10053Y16748D2*
D13*
Y16777D1*
D18*
X9625Y17205D1*
X9280Y16860D1*
X8960Y17150D2*
D13*
X8980D1*
D18*
X9120Y17290D1*
X9540D1*
X9625Y17205D1*
X8460Y14840D2*
D13*
X8700Y15080D1*
X8670D1*
X16680Y17960D2*
X16470Y18170D1*
X16268D1*
X15960Y18478D1*
X14429Y21958D2*
D18*
X14730Y22260D1*
Y22400D1*
X14850Y22520D1*
X9790Y22310D2*
X9840D1*
X9940Y22210D1*
X10279D1*
X10531Y21958D1*
X10230Y28020D2*
D13*
Y27696D1*
X10240D1*
X7184Y29020D2*
X7220D1*
X7610Y28630D1*
X7739D1*
X7741Y28628D1*
X9098Y32330D2*
X9280D1*
X9630Y31980D1*
Y30658D1*
X15920Y16100D2*
X15650D1*
X15530Y16220D1*
X15920Y16100D2*
Y16460D1*
X15840D1*
X15810Y16490D1*
X19349Y16481D2*
X18860D1*
X10800Y25162D2*
X10810D1*
Y25520D1*
X8110Y30164D2*
X8130D1*
Y30473D1*
X8003Y28565D2*
X7804D1*
X7741Y28628D1*
X13608Y14052D2*
X13860Y13800D1*
X14912Y15488D2*
X14892D1*
X15130Y15250D1*
X17850Y8658D2*
X17618D1*
X17530Y8570D1*
X17638Y18872D2*
X17430Y19080D1*
X22200Y34730D2*
Y34660D1*
X21682D1*
X21692Y34670D1*
X7250Y23860D2*
X8450D1*
X8460Y23850D1*
X19188Y20402D2*
Y20362D1*
X18940Y20610D1*
Y20670D1*
X19340D1*
X20870Y19140D1*
X23480D1*
X23720Y19380D1*
Y19739D1*
X23729Y19747D1*
X10440Y30190D2*
X10420D1*
Y30630D1*
X9114Y37250D2*
D14*
Y36440D1*
Y36190D1*
Y34967D1*
X10815Y36628D2*
Y36377D1*
X10628Y36190D1*
X9114D1*
Y36440D2*
D13*
X9190D1*
X12517Y34128D2*
X13820Y35430D1*
X22060D1*
X22260Y35230D1*
Y34772D1*
X22158Y34670D1*
X21692D1*
X7696Y29020D2*
X8048D1*
X8260Y28808D1*
Y28760D1*
X8620D1*
X9220Y28160D1*
Y24740D1*
X10870Y23090D1*
X12130Y18330D2*
Y18070D1*
X12500Y17700D1*
X13790D1*
X14050Y17440D1*
Y17326D1*
X14429Y16947D1*
X8260Y28760D2*
Y27670D1*
X8070Y27480D1*
X7696D1*
X21185Y37420D2*
D14*
Y38151D1*
X21425Y38392D1*
D13*
X21738Y38705D1*
X22050Y39017D1*
X22102Y39069D1*
D14*
X22378D1*
X23440D1*
X24440D1*
X25631D1*
X25690Y39010D1*
X22115Y39063D2*
D13*
X22070Y39017D1*
X22050D1*
X21802Y38750D2*
X21757Y38705D1*
X21738D1*
X21490Y38437D2*
X21445Y38392D1*
X21425D1*
X22428Y39063D2*
D19*
X22378Y39069D1*
X22440Y40440D2*
D13*
Y39700D1*
X22428Y39688D1*
X21440Y40440D2*
X22440D1*
X23440D1*
X24440D1*
X25440D1*
X26440D1*
X27440D1*
X21440D2*
X20440D1*
X19440D1*
Y39440D1*
X20730Y37880D2*
Y37875D1*
X21185Y37420D1*
X21440Y36510D2*
Y37165D1*
X21185Y37420D1*
X21940Y37440D2*
X21205D1*
X21185Y37420D1*
X22440Y36500D2*
X21440D1*
Y36510D1*
X22440Y36500D2*
X23440D1*
X24440D1*
Y36440D1*
X25253D1*
X25315Y36378D1*
X26378D1*
X26440Y36440D1*
X27440D1*
X23440Y38440D2*
Y39069D1*
X24440Y38440D2*
Y39069D1*
X25440Y38440D2*
Y38760D1*
X25690Y39010D1*
X24440Y37440D2*
Y38440D1*
Y37440D2*
X25065D1*
X25315Y37690D1*
X26190D1*
X26440Y37440D1*
X27440D1*
X25440Y38440D2*
X26440D1*
X27440D1*
X25440Y39440D2*
X27440D1*
X22440Y40440D2*
Y41440D1*
Y42440D1*
Y41440D2*
X21440D1*
X20440D1*
X19440D1*
X22440Y42440D2*
X21440D1*
X20440D1*
X19440D1*
X22440Y41440D2*
X23440D1*
X24440D1*
X22440Y42440D2*
X23440D1*
Y39440D2*
Y38440D1*
X24440Y39440D2*
Y38440D1*
X26440Y39440D2*
X25440D1*
X9790Y27184D2*
Y26960D1*
X9950Y26800D1*
X10240D1*
X10670D1*
Y27164D1*
X10690Y27184D1*
X10240D2*
Y26800D1*
X11923Y23350D2*
X11940D1*
X11750Y23540D1*
Y23530D1*
X11590Y23690D1*
Y26460D1*
X11250Y26800D1*
X10670D1*
X8560Y29653D2*
Y29329D1*
Y29050D1*
X9400Y28210D1*
Y25038D1*
X11505Y22933D1*
X8560Y29329D2*
X8110D1*
X7734D1*
X7660Y29403D1*
Y29653D1*
X8110D2*
Y29329D1*
X10800Y24650D2*
X10810Y24640D1*
Y24321D1*
Y23907D1*
X11645Y23072D1*
X10810Y24321D2*
X11141D1*
X11310Y24490D1*
Y24660D1*
X10326Y25404D2*
Y24504D1*
X10520Y24310D1*
X10867D1*
X11141Y24321D1*
X17073Y33318D2*
X15658D1*
X15550Y33210D1*
X11090Y33020D2*
Y32950D1*
X11190Y32850D1*
Y28630D1*
X11280Y28540D1*
Y28480D1*
X8940Y28080D2*
X9050Y27970D1*
Y22680D1*
X9720Y22010D1*
Y21656D1*
X9974Y21402D1*
X13176Y23211D2*
X13430Y23465D1*
Y23640D1*
X12450Y24620D1*
Y28150D1*
X11710Y28890D1*
Y33320D1*
X11780Y33390D1*
X13350Y33270D2*
Y33260D1*
X13760D1*
X14090Y33590D1*
X14806D1*
X14790Y33574D1*
Y32806D2*
X13186D1*
X12740Y32360D1*
Y29310D1*
X13450Y28600D1*
Y25510D1*
X13600Y25360D1*
X12880Y17410D2*
X12664D1*
X11366Y16112D1*
X14289Y16808D2*
X14637Y16460D1*
X14140Y25500D2*
X13630Y26010D1*
Y28720D1*
X13470Y28880D1*
Y29470D1*
X13710Y29710D1*
X14250D1*
X14450Y29910D1*
Y31610D1*
X14800Y31960D1*
X16030D1*
X16610Y32540D1*
X17063D1*
X17073Y32550D1*
X13733Y22654D2*
X13724D1*
X13480Y22410D1*
X13160D1*
X12170Y13200D2*
Y12832D1*
X12180D1*
X13110Y9450D2*
X13020D1*
X12620Y9850D1*
Y10650D1*
X12460Y10810D1*
Y12980D1*
X12240Y13200D1*
X12170D1*
X14630Y24090D2*
Y24070D1*
X14650Y24050D1*
Y23440D1*
X16110D1*
X16555Y23885D1*
Y24096D1*
X14650Y23440D2*
Y22850D1*
X14580Y22780D1*
X13645Y16905D2*
X14020Y16530D1*
X14011D1*
X15100Y24581D2*
Y24800D1*
X15230Y24930D1*
X15555D1*
X16055D1*
X16555D1*
Y24608D1*
X16055D2*
Y24930D1*
X15555Y24619D2*
Y24930D1*
X14130Y27420D2*
X14080D1*
X14660Y26840D1*
X17420D1*
X17550Y26710D1*
Y26100D1*
X16550Y25100D1*
Y24912D1*
X16555Y24930D1*
X24855Y29570D2*
D20*
X25050D1*
Y30190D1*
Y32114D1*
D13*
X25087Y32151D1*
X25440Y32690D2*
Y31745D1*
X25695Y31490D1*
X24440Y32690D2*
X25440D1*
X26440D1*
X27440D1*
X25440D2*
Y33690D1*
X24410D1*
X25440D2*
X26440D1*
X27440D1*
Y31690D2*
X25895D1*
X25695Y31490D1*
X27440Y30690D2*
X26235D1*
X25712Y31213D1*
X25440Y30190D2*
X26315D1*
X26440Y30315D1*
X24440Y30190D2*
X23690D1*
X23440Y30440D1*
X24440Y30190D2*
X23940D1*
X23440Y29690D1*
X24190Y29190D2*
X24475D1*
X24855Y29570D1*
X23627Y28190D2*
X24530D1*
X25590D2*
X26600D1*
X27190D1*
X27440Y27940D1*
Y28815D1*
Y29690D1*
Y30690D1*
X25440Y33690D2*
Y34690D1*
Y35690D1*
X24440D1*
X25440Y34690D2*
X26440D1*
X27440D1*
X25087Y30901D2*
Y31213D1*
X25399Y31526D2*
X25712D1*
X25440Y30190D2*
X25050D1*
X24440D1*
X24130Y27420D2*
Y27790D1*
X24530Y28190D1*
Y28405D1*
X24815Y28690D1*
Y29610D1*
X24855Y29570D1*
X23130Y27420D2*
Y27693D1*
X23627Y28190D1*
X23130Y27420D2*
X24130D1*
X24530Y28190D2*
X25590D1*
X23627D2*
Y29190D1*
Y29503D1*
X23440Y29690D1*
X24190Y29190D2*
X23627D1*
X13793Y29234D2*
D16*
X14642D1*
X14877Y29470D1*
X19130Y26420D2*
X19000D1*
X18490Y26930D1*
X17930D1*
X17660Y27200D1*
Y27640D1*
X16680Y28620D1*
X15728D1*
X14877Y29470D1*
X16100Y29237D2*
X16946D1*
X17180Y29471D1*
X19130Y27420D2*
X18910D1*
X17140Y29190D1*
Y29431D1*
X17180Y29471D1*
X14150Y16669D2*
D13*
Y16690D1*
X13900Y16940D1*
Y17220D1*
X13690Y17430D1*
X13920Y24910D2*
X14430Y25420D1*
X15230D1*
X16230Y26420D1*
X16130D1*
X14985Y17504D2*
X14966D1*
X15230Y17240D1*
Y17190D1*
X15568Y16852D1*
X15448D1*
X14985Y17504D2*
X14390Y18099D1*
Y18340D1*
X15400Y21770D2*
X15410D1*
X15880Y22240D1*
Y22950D1*
X16890Y23960D1*
Y25190D1*
X17710Y26010D1*
Y26840D1*
X17550Y27000D1*
X16540D1*
X16130Y27410D1*
Y27420D1*
X14846Y17365D2*
X14835D1*
X15090Y17110D1*
Y16660D1*
X15168Y16582D1*
X17130Y26420D2*
Y26400D1*
X15950Y25220D1*
X14540D1*
X14200Y24880D1*
Y24460D1*
X14180Y24440D1*
X13800Y18270D2*
X13941D1*
X14846Y17365D1*
X13176Y15695D2*
D18*
X12830Y16040D1*
X10585Y17625D2*
D13*
X10510Y17550D1*
D18*
Y17483D1*
X10253Y17226D1*
X10392Y21819D2*
Y21808D1*
X10710Y21490D1*
Y21250D1*
X9000Y20427D2*
D13*
X9011D1*
D18*
X9404Y20035D1*
D13*
X9479D1*
X9529Y19985D1*
X15555Y24108D2*
Y23905D1*
X15750Y23710D1*
X13860Y21790D2*
Y21825D1*
D18*
X14017D1*
X14289Y22097D1*
X7480Y20782D2*
D13*
Y21120D1*
X16099Y18618D2*
X15607Y19110D1*
X15460D1*
X6900Y21122D2*
X6910D1*
Y21490D1*
X6252Y21628D2*
Y21201D1*
X6249Y21197D1*
X5580Y20331D2*
X5565D1*
Y19878D1*
X24160Y32240D2*
D21*
X23780D1*
Y31240D2*
X24158D1*
X21659Y9108D2*
D13*
X21315D1*
X20914D1*
X20863Y9057D1*
X21771Y9495D2*
X21432D1*
X21315Y9378D1*
Y9108D1*
X19477Y5785D2*
D15*
X20178D1*
X20253Y5710D1*
X21534Y16993D2*
D13*
X21052D1*
X20757D1*
X20738Y17012D1*
X19352Y13670D2*
D15*
X20128D1*
Y13665D1*
X21646Y17380D2*
D13*
X21322D1*
X21052Y17110D1*
Y16993D1*
X18620Y33970D2*
D15*
Y33270D1*
X18695Y33194D1*
X9770Y4735D2*
D13*
X12430D1*
X13060D1*
X18101Y8035D2*
X17785D1*
X17790Y9150D2*
X18096D1*
X18101Y9155D1*
X12231Y42401D2*
D14*
Y42679D1*
X10982Y39890D2*
D13*
Y39870D1*
X11280D1*
X9237Y41094D2*
D18*
X9879D1*
D13*
X9985D1*
X10182Y40896D1*
X10997Y39128D2*
Y39220D1*
D14*
X10330D1*
Y38750D2*
X9939D1*
X9659Y39030D1*
X20567Y39819D2*
D20*
X20141D1*
Y39319D2*
X20565D1*
Y38819D2*
Y38810D1*
X20141D1*
X10330Y38750D2*
D14*
X10420D1*
D13*
X10798Y39128D1*
X10997D1*
X11127Y41290D2*
X10576D1*
X10429Y41143D1*
X10182Y40896D1*
X9237Y41094D2*
D18*
X8911D1*
X8815Y41190D1*
D14*
Y41645D1*
X9200Y42030D1*
Y42264D1*
X9256Y42320D1*
X11127Y41290D2*
D13*
X11128D1*
Y41503D1*
X12202Y41207D2*
X12570D1*
X23187Y35030D2*
Y34733D1*
X20180Y36170D2*
X19930D1*
X19868Y36232D1*
Y36420D1*
X24490Y34230D2*
Y34558D1*
X22520Y33398D2*
Y33060D1*
X21943Y31787D2*
Y32387D1*
X21747Y32582D1*
X22520Y32672D2*
Y33060D1*
X21525Y28830D2*
D14*
Y29190D1*
X19425D2*
Y28830D1*
X18155D2*
Y29190D1*
X24158Y31740D2*
D21*
X23780Y31730D1*
X22610Y21070D2*
D13*
X22580D1*
Y21378D1*
X22620Y21418D1*
X23217Y21933D2*
Y21128D1*
Y21013D1*
X23390Y20840D1*
X23628D1*
X23940D1*
X24253D1*
X24565D1*
X24802D1*
X24840D1*
X26540Y19750D2*
Y20503D1*
Y20650D1*
X26408Y20782D1*
X26360Y20830D1*
X26128D1*
X25815D1*
X25503D1*
X25190D1*
X24850D1*
X24840Y20840D1*
X13248Y30684D2*
Y30312D1*
X13419Y30140D1*
X15650Y30684D2*
Y30219D1*
X15726Y30143D1*
X15750Y23710D2*
X16050Y24010D1*
Y24051D1*
X16055Y24056D1*
X5962Y34820D2*
D14*
X6290D1*
Y34450D2*
X5970D1*
X18280Y23610D2*
D17*
Y23107D1*
D13*
X18773D1*
X18280Y22590D2*
X18260D1*
D17*
Y23107D1*
D13*
X18773D1*
X19330D1*
D17*
Y22640D1*
X18773Y23107D2*
D13*
X19300D1*
D17*
Y23610D1*
D13*
X19310D1*
X18773Y11327D2*
X19320D1*
D17*
Y11850D1*
X18220Y11800D2*
Y11327D1*
D13*
X18773D1*
Y11260D1*
X18210D1*
D17*
Y10850D1*
D13*
X18200D1*
X19300D2*
D17*
Y11230D1*
D13*
X18870D1*
X18773Y11327D1*
X10670Y16808D2*
D18*
X10960Y17098D1*
D13*
Y17210D1*
X11000Y17250D1*
X11088Y16391D2*
D18*
X11347Y16650D1*
X11450D1*
D13*
X11520Y16720D1*
X9835Y17643D2*
D18*
X10112Y17920D1*
X10320D1*
X9557Y17922D2*
D13*
Y17927D1*
D18*
X9850Y18220D1*
Y18340D1*
D13*
X9900Y18390D1*
X8598Y16788D2*
Y16748D1*
D18*
X8470Y16620D1*
Y16440D1*
D13*
X8480Y16430D1*
X8918Y16498D2*
D18*
X8780Y16360D1*
X8550D1*
D13*
X8480Y16430D1*
X9167Y16017D2*
X9067D1*
D18*
X8850Y15800D1*
X9370Y15270D2*
Y15340D1*
X9597Y15567D1*
X10078Y15348D2*
X9890Y15160D1*
Y14980D1*
D13*
X9930Y14940D1*
X10388Y15028D2*
D18*
X10230Y14870D1*
X10000D1*
D13*
X9930Y14940D1*
X9778Y23002D2*
D18*
Y23080D1*
X9380D1*
X7480Y21120D2*
D13*
X7570D1*
X7632Y21182D1*
X8058D1*
X15532Y22572D2*
X15570D1*
D18*
Y22950D1*
X16732Y17288D2*
D13*
Y17240D1*
X17060D1*
X22351Y24790D2*
D14*
Y25130D1*
X27020Y25150D2*
Y24810D1*
D13*
X27009D1*
X23017Y23630D2*
X23230D1*
X22830Y24030D1*
D14*
X22550D1*
X26691Y23630D2*
D13*
X26700D1*
D14*
Y24290D1*
X22580Y23230D2*
X22920D1*
D13*
X23017Y23327D1*
Y23630D1*
X22181Y30085D2*
X22345D1*
X22050Y30380D1*
D14*
X21700D1*
Y29810D2*
X21906D1*
D13*
X22181Y30085D1*
X18379D2*
X18625D1*
X18360Y30350D1*
D14*
X17900D1*
Y29820D2*
X18114D1*
D13*
X18379Y30085D1*
X17060Y17240D2*
Y17580D1*
X17042Y17598D1*
X15212Y22882D2*
X15280Y22950D1*
D18*
X15570D1*
X11150Y27180D2*
D13*
Y26980D1*
X11430D1*
X9952Y26310D2*
X9950D1*
Y25930D1*
X7220Y29653D2*
X7210D1*
Y29370D1*
X8560Y30473D2*
Y30164D1*
X9790Y27696D2*
X9800D1*
Y28030D1*
X7990Y27950D2*
Y28040D1*
X7862D1*
X7702Y28200D1*
X7716Y27860D2*
X7900D1*
X7990Y27950D1*
X14790Y32295D2*
Y32280D1*
X14230D1*
X10690Y32750D2*
Y32330D1*
X10698D1*
X9880Y31196D2*
X9890D1*
Y30888D1*
X17310Y18570D2*
X17070Y18810D1*
X20426Y17610D2*
Y17620D1*
X20082D1*
X20062Y17600D1*
X13940Y14490D2*
Y14470D1*
X14110Y14300D1*
X14310D1*
X14320Y14310D1*
X14250Y14790D2*
X14430Y14610D1*
Y14420D1*
X14320Y14310D1*
X12180Y12320D2*
Y11970D1*
X5885Y7830D2*
D14*
X6230D1*
Y7340D2*
X5887D1*
X24878Y20815D2*
D13*
X24802D1*
Y20840D1*
X25190Y20815D2*
Y20830D1*
X25503Y20815D2*
Y20830D1*
X25815Y20815D2*
Y20830D1*
X26128Y20815D2*
Y20830D1*
X26440Y20815D2*
X26408Y20782D1*
X24565Y20815D2*
Y20840D1*
X24253Y20815D2*
Y20840D1*
X23940Y20815D2*
Y20840D1*
X23628Y20815D2*
Y20840D1*
X23315Y20815D2*
X23340Y20840D1*
X23390D1*
X23315Y21128D2*
X23217D1*
X26440Y20503D2*
X26540D1*
X24555Y17664D2*
D14*
Y17690D1*
X24878D1*
Y16270D2*
X24591D1*
D13*
X24575Y16254D1*
X24545Y14396D2*
D14*
X24878D1*
Y13050D2*
X24561D1*
D13*
X24545Y13066D1*
X23312Y13429D2*
X23229D1*
X22920Y13120D1*
D14*
Y12960D1*
X23670Y12930D2*
Y13430D1*
D13*
X23313D1*
X23312Y13429D1*
Y17231D2*
X22930D1*
D14*
Y17690D1*
X23690Y17700D2*
Y17340D1*
D13*
X23770Y17260D1*
Y17140D1*
X23403D1*
X23312Y17231D1*
X24615Y10399D2*
D14*
X24950D1*
X25040Y9030D2*
X24696D1*
D13*
X24645Y8979D1*
X24680Y5508D2*
D14*
X24290D1*
X24950Y6970D2*
D13*
X24870D1*
D14*
X24680Y6780D1*
D13*
Y6798D1*
X24667Y6811D1*
X23437Y9346D2*
X23820D1*
D14*
Y9800D1*
X23050Y9780D2*
Y9690D1*
D13*
X23093D1*
X23437Y9346D1*
X10191Y40882D2*
Y40888D1*
X10504Y41194D2*
X10453Y41143D1*
X10429D1*
X9879Y41194D2*
Y41094D1*
X9380Y23080D2*
D18*
X9360Y23060D1*
Y22740D1*
X9428Y22672D1*
X11310Y25172D2*
D13*
Y25520D1*
X7250Y24860D2*
X7680D1*
X7960Y24580D1*
X7250Y24360D2*
X7730D1*
X7920Y24550D1*
Y24540D1*
X7960Y24580D1*
X26691Y23630D2*
X26510D1*
D14*
Y22990D1*
X24290Y5508D2*
D17*
X23552D1*
D13*
X23517Y5544D1*
X18880Y20080D2*
X18850D1*
X18580Y20350D1*
Y20280D1*
X18610Y20310D1*
X23270Y35790D2*
X23590D1*
X22004Y19576D2*
X21636D1*
X21620Y19560D1*
X9790Y29982D2*
Y30320D1*
X12240Y41980D2*
D14*
Y42391D1*
D13*
X12231Y42401D1*
X26767Y35625D2*
D14*
X26442D1*
Y35185D2*
X26776D1*
X24970Y24800D2*
Y25150D1*
X22175Y29190D2*
Y28830D1*
X23640Y24800D2*
Y25160D1*
X8650Y12758D2*
D13*
Y12410D1*
X13419Y30140D2*
Y29790D1*
X14178Y31196D2*
X14160D1*
Y31520D1*
X16550Y31580D2*
Y31176D1*
X16570Y31196D1*
X12430Y5920D2*
Y4735D1*
X21690Y35100D2*
X22010D1*
X14528Y36845D2*
Y36840D1*
X14140D1*
X13920Y37060D1*
D14*
Y37270D1*
X15090D2*
Y36930D1*
D13*
X14613D1*
X14528Y36845D1*
X8210Y31198D2*
Y31058D1*
X7980Y30828D1*
X7750Y31206D2*
Y31058D1*
X7980Y30828D1*
X10020Y37250D2*
D14*
Y36630D1*
Y37830D2*
Y37250D1*
X14528Y36845D2*
D13*
X14025D1*
X13930Y36750D1*
D14*
Y36420D1*
X15090Y36410D2*
Y36770D1*
D13*
X14602D1*
X14528Y36845D1*
X11642Y38440D2*
D3*
D14*
X11940D1*
X18430Y36840D2*
D13*
Y37070D1*
X18350Y37150D1*
X18400Y37200D1*
X18680Y38542D2*
Y38820D1*
X10815Y37297D2*
D14*
Y37690D1*
X16010Y30143D2*
D13*
X15726D1*
X16170Y22248D2*
Y22100D1*
X16000Y21930D1*
X12202Y40370D2*
D15*
X12579D1*
X5450Y34820D2*
D14*
X5150D1*
Y34450D2*
X5458D1*
X5373Y7830D2*
X5030D1*
X5040Y7360D2*
X5355D1*
D13*
X5375Y7340D1*
X6044Y16610D2*
X5810D1*
D16*
X5120Y15920D1*
D13*
Y15497D1*
X4961Y15338D1*
X27279Y35625D2*
D14*
X27625D1*
X27287Y35185D2*
X27627Y35190D1*
X11645Y15834D2*
D13*
Y15825D1*
X11360Y15540D1*
Y14670D1*
X11690Y14340D1*
Y9850D1*
X12090Y9450D1*
X12110D1*
X5707Y24360D2*
X6260D1*
X6450Y24170D1*
Y23730D1*
X6590Y23590D1*
X7160D1*
X7320Y23430D1*
Y23221D1*
X9557Y20984D1*
X9418Y20845D2*
X6852Y23410D1*
X6300D1*
X6150Y23260D1*
X5260D1*
X4990Y23530D1*
Y25140D1*
X5160Y25310D1*
X5657D1*
X5707Y25360D1*
X6440Y25350D2*
X5717D1*
X5707Y25360D1*
X9278Y20706D2*
X6834Y23150D1*
X6390D1*
X6420Y24850D2*
X5707D1*
Y24860D1*
X19477Y7825D2*
X19055D1*
X19000Y7770D1*
X17600D1*
X16320Y9050D1*
Y11110D1*
X14960Y12470D1*
Y15024D1*
X13733Y16251D1*
X19474Y7572D2*
X17558D1*
X16140Y8990D1*
Y11030D1*
X14790Y12380D1*
Y14916D1*
X13593Y16112D1*
X19474Y6549D2*
X19131D1*
X19020Y6660D1*
Y6810D1*
X19469D1*
X19474Y6805D1*
X19020Y6810D2*
X17800D1*
X15760Y8850D1*
Y10900D1*
X14410Y12250D1*
Y12640D1*
X11790Y15260D1*
Y15422D1*
X11923Y15555D1*
X11784Y15695D2*
X11540Y15451D1*
Y15270D1*
X14230Y12580D1*
Y12170D1*
X15580Y10820D1*
Y8790D1*
X18070Y6300D1*
X19430D1*
X19437Y6293D1*
X19474D1*
Y7316D2*
X17544D1*
X15950Y8910D1*
Y10960D1*
X14620Y12290D1*
Y14807D1*
X13454Y15973D1*
X21771Y9925D2*
X21550D1*
X21252Y9628D1*
X17127D1*
X16510Y10245D1*
Y11170D1*
X15120Y12560D1*
Y14840D1*
X16190Y15910D1*
Y16510D1*
X15400Y17300D1*
Y17368D1*
X15125Y17643D1*
X19352Y15710D2*
X18970D1*
X18130Y16550D1*
Y17390D1*
X16110Y19410D1*
Y19742D1*
X16377Y20010D1*
X19349Y15457D2*
X18923D1*
X17960Y16420D1*
Y17313D1*
X16377Y18896D1*
X19349Y14434D2*
X19066D1*
X18950Y14550D1*
Y14690D1*
X19349D1*
X18940D2*
X18840Y14790D1*
Y15070D1*
X17020Y16890D1*
X16730D1*
X16030Y17590D1*
Y17851D1*
X15681Y18200D1*
X15542Y18061D2*
X15549D1*
X15860Y17750D1*
Y17530D1*
X16660Y16730D1*
X16950D1*
X18680Y15000D1*
Y14540D1*
X19050Y14170D1*
X19341D1*
X19349Y14178D1*
Y15201D2*
X18939D1*
X17800Y16340D1*
Y17195D1*
X16238Y18757D1*
X15264Y17782D2*
X15278D1*
X15640Y17420D1*
X17050Y19770D2*
Y19740D1*
X17640D1*
X19370Y18010D1*
X21200D1*
X21400Y17810D1*
X21656D1*
X21646Y17800D1*
X26340Y24810D2*
X26320D1*
D14*
Y24530D1*
X26160Y24370D1*
Y23050D1*
X25990Y22880D1*
D23*
X25710D1*
X25520Y22690D1*
D15*
Y21933D1*
X26340Y24810D2*
D14*
Y25550D1*
X26640Y25850D1*
Y26910D1*
X26130Y27420D1*
X25639Y24800D2*
D13*
X25720D1*
D14*
X25330Y24410D1*
X25240D1*
X25060Y24230D1*
Y23280D1*
D13*
X25008D1*
D15*
Y21933D1*
X25639Y24800D2*
D14*
Y25539D1*
X26100Y26000D1*
Y26420D1*
X26130D1*
X23020Y24790D2*
D13*
Y24580D1*
D14*
X23210Y24390D1*
X23390D1*
X23580Y24200D1*
Y22980D1*
X23680Y22880D1*
D23*
X24010D1*
X24241Y22649D1*
D15*
Y21933D1*
X23020Y24790D2*
D14*
Y25070D1*
X23460Y25510D1*
X24220D1*
X25130Y26420D1*
X24309Y24800D2*
D13*
X24310D1*
D14*
Y24560D1*
X24680Y24190D1*
Y23280D1*
D13*
X24753D1*
D15*
Y21933D1*
X25130Y27420D2*
D14*
X25210D1*
X25628Y27003D1*
Y26190D1*
X24918Y25480D1*
X24830D1*
X24309Y24959D1*
Y24800D1*
X24500Y19750D2*
D13*
Y19400D1*
X23920Y18820D1*
X19730D1*
X17480Y21070D1*
X16046D1*
X15681Y20706D1*
X15821Y20566D2*
X16144Y20890D1*
X17430D1*
X19660Y18660D1*
X24020D1*
X24753Y19393D1*
Y19747D1*
X25776D2*
Y19406D1*
X25520Y19150D1*
X25050D1*
X24240Y18340D1*
X19510D1*
X17290Y20560D1*
X16371D1*
X16099Y20288D1*
X25520Y19747D2*
Y19150D1*
X26032Y19747D2*
Y19322D1*
X25700Y18990D1*
X25120D1*
X24300Y18170D1*
X19450D1*
X17220Y20400D1*
X16489D1*
X16238Y20149D1*
X25008Y19747D2*
Y19388D1*
X24120Y18500D1*
X19580D1*
X17360Y20720D1*
X16253D1*
X15960Y20427D1*
X22170Y21418D2*
Y21250D1*
X22080Y21160D1*
X21680D1*
X21230Y21610D1*
X16430D1*
X16150Y21330D1*
X14740Y18350D2*
X14975D1*
X15403Y17922D1*
X19640Y31787D2*
D15*
Y31060D1*
D16*
X19390Y30810D1*
D14*
X19090D1*
X18960Y30680D1*
Y29273D1*
Y28500D1*
X20040Y27420D1*
D15*
X20130D1*
X18825Y29190D2*
D13*
X18877D1*
X18960Y29273D1*
X20095Y29190D2*
D14*
Y30550D1*
D15*
X20152D1*
Y31787D1*
X20095Y29190D2*
D14*
Y28225D1*
X20630Y27690D1*
Y26920D1*
X21130Y26420D1*
X22845Y29190D2*
D13*
X22820D1*
D14*
Y30570D1*
X22570Y30820D1*
X21220D1*
D16*
X20919Y31121D1*
D15*
Y31787D1*
X22845Y29190D2*
D14*
Y28765D1*
X22630Y28550D1*
Y26920D1*
X22130Y26420D1*
X20855Y29190D2*
D13*
X20800D1*
D14*
X20460Y29530D1*
Y30540D1*
D15*
X20407Y30593D1*
Y31787D1*
X20855Y29190D2*
D14*
Y28125D1*
X21070Y27910D1*
Y27420D1*
X21130D1*
X20660Y33970D2*
D13*
Y34630D1*
X20030Y35260D1*
X14000D1*
X11890Y33150D1*
Y28940D1*
X12620Y28210D1*
Y24680D1*
X13610Y23690D1*
Y23367D1*
X13315Y23072D1*
X13454Y22933D2*
X13780Y23258D1*
Y23750D1*
X12790Y24740D1*
Y28280D1*
X12060Y29010D1*
Y33090D1*
X14070Y35100D1*
X19910D1*
X20400Y34610D1*
Y33980D1*
X20407Y33973D1*
X19384D2*
Y34460D1*
X19600D1*
X19640Y34420D1*
Y33973D1*
X13872Y22515D2*
Y22532D1*
X14130Y22790D1*
Y23880D1*
X13120Y24890D1*
Y28460D1*
X12420Y29160D1*
Y32980D1*
X14200Y34760D1*
X19150D1*
X19384Y34526D1*
Y34460D1*
X19128Y33973D2*
Y34272D1*
X18810Y34590D1*
X14260D1*
X12580Y32910D1*
Y29230D1*
X13280Y28530D1*
Y24980D1*
X14310Y23950D1*
Y22675D1*
X14011Y22376D1*
X20152Y33973D2*
Y34588D1*
X19810Y34930D1*
X14140D1*
X12240Y33030D1*
Y29090D1*
X12950Y28380D1*
Y24820D1*
X13960Y23810D1*
Y23160D1*
X13593Y22793D1*
X22990Y32672D2*
Y33015D1*
X22815Y33190D1*
Y35245D1*
X22310Y35750D1*
X13540D1*
X11360Y33570D1*
Y28750D1*
X11860Y28250D1*
Y26740D1*
X11970Y26630D1*
Y24170D1*
X12500Y23640D1*
Y22840D1*
X12630Y18060D2*
X13670D1*
X14239Y17491D1*
X14442D1*
X14707Y17226D1*
X17073Y32295D2*
X16675D1*
X16110Y31730D1*
Y31540D1*
Y31196D1*
X15650D2*
Y31460D1*
X15730Y31540D1*
X16110D1*
X13037Y15555D2*
D18*
X13366Y15226D1*
X13580Y15440D1*
Y15569D1*
X13315Y15834D1*
X13888Y15152D2*
D13*
X13868D1*
X13580Y15440D1*
X13578Y14852D2*
X13350Y15080D1*
Y15236D1*
D18*
X13580Y15440D1*
X13350Y15080D2*
D13*
X13020Y14750D1*
Y14640D1*
X13190Y14470D1*
X13020Y14750D2*
X13040D1*
X12780Y15010D1*
X12770D1*
X13140Y14930D2*
X13190D1*
X13350Y15090D1*
Y15226D2*
X13366D1*
X16770Y22820D2*
Y23020D1*
X16660Y23130D1*
X16330D1*
X16180Y22980D1*
Y22760D1*
X16170D1*
X16110Y30684D2*
Y30550D1*
X16280Y30380D1*
X16590D1*
X16510Y30460D1*
Y30744D1*
X16570Y30684D1*
X16510Y30460D2*
Y30179D1*
X16474Y30143D1*
X5540Y30692D2*
Y30500D1*
X7220D1*
X7533D1*
X7670Y30363D1*
Y30283D1*
X7660Y30273D1*
Y30164D1*
X7220D2*
Y30500D1*
X5480Y28910D2*
X6567D1*
X6880Y28597D1*
Y28200D1*
Y27860D1*
Y27500D1*
X6900Y27480D1*
X7184D1*
X7164Y27860D2*
X6880D1*
X7190Y28200D2*
X6880D1*
X7190Y28628D2*
X6880D1*
Y28597D1*
X8160Y13270D2*
Y13580D1*
X8500D1*
X8650Y13430D1*
Y13270D1*
X8160Y13580D2*
Y16470D1*
X8150Y16480D1*
X8530Y18010D2*
Y18287D1*
X8861Y18618D1*
X11110Y10450D2*
X11070Y10490D1*
Y12205D1*
X11145D1*
X19120Y37483D2*
Y37978D1*
X19180Y38038D1*
X19868Y37483D2*
Y37833D1*
X19663Y38038D1*
X19180Y38550D2*
Y38580D1*
X19190Y38570D1*
Y38750D1*
X19260Y38820D1*
X19710D1*
X20190Y38340D1*
X20544D1*
X20565Y38319D1*
X19663Y38550D2*
X19710D1*
Y38820D1*
X19474Y9108D2*
D15*
X18660D1*
X18613Y9155D1*
X21659Y6805D2*
X22455D1*
D23*
X22700Y6560D1*
Y6370D1*
X22960Y6110D1*
D14*
X24613D1*
D13*
X24680Y6177D1*
X24737D1*
D14*
X26370Y7810D1*
Y8170D1*
X26462D1*
X21659Y7316D2*
D15*
X22888D1*
D13*
Y7250D1*
D14*
X24437D1*
X24667Y7480D1*
X24772D1*
X26462Y9170D1*
X21659Y8596D2*
D13*
X21730D1*
Y8852D1*
X21659D1*
X22283Y9925D2*
X22564D1*
Y9495D1*
Y9212D1*
X22204Y8852D1*
X21659D1*
X22283Y9495D2*
X22564D1*
X21659Y8084D2*
D15*
X22454D1*
D23*
X22680Y8310D1*
Y8620D1*
D14*
X22890Y8830D1*
X24050D1*
X24190Y8970D1*
Y9305D1*
X24615Y9730D1*
X25022D1*
X26462Y11170D1*
X21659Y7572D2*
D15*
X22873D1*
D13*
Y7630D1*
D14*
X23965D1*
X24645Y8310D1*
D13*
X24810D1*
D14*
X25440Y8940D1*
Y9148D1*
X26462Y10170D1*
X21657Y6035D2*
D15*
X21297D1*
X21167Y5905D1*
Y5605D1*
X21377Y5395D1*
X21601D1*
X21561Y5355D1*
X21657Y5785D2*
X22105D1*
X22230Y5660D1*
Y5365D1*
X22083D1*
X22073Y5355D1*
X19474Y8084D2*
D13*
X18933D1*
X18662D1*
X18613Y8035D1*
Y8465D2*
X18817D1*
X18897Y8385D1*
Y8120D1*
X18933Y8084D1*
X21659Y7060D2*
D15*
X22640D1*
D23*
X23054Y6646D1*
D15*
X23517D1*
X21659Y7828D2*
X22618D1*
D23*
X23034Y8244D1*
D15*
X23437D1*
X21659Y6293D2*
X21977D1*
X22440Y5830D1*
Y5010D1*
X22540Y4910D1*
X22660D1*
X22717Y4967D1*
Y5159D1*
X19349Y16993D2*
Y17399D1*
X19550Y17600D1*
X21534Y14690D2*
X22342D1*
D24*
X22532Y14500D1*
D14*
Y14110D1*
X22672Y13970D1*
X24545D1*
X24725D1*
X26242D1*
D15*
X26422Y13790D1*
X24545Y13735D2*
D13*
Y13970D1*
Y13735D2*
Y13790D1*
X24725Y13970D1*
X21534Y15201D2*
D15*
X22792D1*
Y15150D1*
D14*
X24601D1*
X24663D1*
X26062D1*
X26422Y14790D1*
X24545Y15065D2*
D13*
Y15093D1*
X24601Y15150D1*
X24545Y15065D2*
X24578D1*
X24663Y15150D1*
X21534Y16481D2*
X21590D1*
Y16737D1*
X21534D1*
X22129D1*
X22439Y17047D1*
Y17346D1*
Y17762D1*
X22242D1*
Y17780D1*
X22178D1*
X22158Y17800D1*
X22439Y17346D2*
X22192D1*
X22158Y17380D1*
X24555Y16995D2*
X24660D1*
Y16700D1*
D14*
X22682D1*
X22552Y16570D1*
Y16210D1*
D24*
X22311Y15969D1*
D15*
X21534D1*
X24555Y16995D2*
D13*
X24600D1*
Y16940D1*
X24550D1*
Y16810D1*
X24660Y16700D1*
X24555Y16995D2*
D14*
Y16855D1*
X24710Y16700D1*
X26332D1*
X26422Y16790D1*
X21534Y15457D2*
D15*
X22802D1*
Y15510D1*
D14*
X24472D1*
X24675D1*
X26142D1*
X26422Y15790D1*
X24575Y15585D2*
D13*
X24600D1*
X24675Y15510D1*
X24575Y15585D2*
X24547D1*
X24472Y15510D1*
X21532Y13920D2*
D15*
X21210D1*
X21060Y13770D1*
Y13410D1*
X21260Y13210D1*
X21396D1*
X21426Y13240D1*
X21532Y13670D2*
X22050D1*
X22162Y13558D1*
Y13300D1*
X21998D1*
X21938Y13240D1*
X17672Y18208D2*
D13*
X17642D1*
X17830Y18020D1*
X18310Y17540D1*
Y16620D1*
X18970Y15960D1*
X19340D1*
X19349Y15969D1*
X17830Y18020D2*
X18110Y18300D1*
Y18400D1*
X18000Y18510D1*
X21534Y14945D2*
D15*
X22536D1*
D23*
X22950Y14531D1*
D15*
X23312D1*
X21534Y15713D2*
X22525D1*
D23*
X22940Y16129D1*
D15*
X23312D1*
X21534Y14178D2*
X21854D1*
X22022Y14010D1*
X22232D1*
X22482Y13760D1*
Y13506D1*
X22516Y19576D2*
D13*
X23210D1*
Y19740D1*
X23217Y19747D1*
X23473Y21933D2*
Y22020D1*
X23729D1*
Y21933D1*
X22170Y21930D2*
Y22310D1*
X22290Y22430D1*
X22606D1*
X22890D1*
X22606D2*
Y21944D1*
X22620Y21930D1*
X22890Y22430D2*
X23400D1*
X23473Y22357D1*
Y21933D1*
X26290Y21930D2*
Y21560D1*
X26460Y21390D1*
X26930D1*
X27010Y21470D1*
Y21620D1*
X26970Y21660D1*
X26540Y21930D2*
Y22350D1*
X26590Y22400D1*
X26930D1*
X26970Y22360D1*
Y22172D1*
X19242Y19718D2*
X19142D1*
X19680Y19180D1*
Y19670D1*
Y19190D2*
X19890Y18980D1*
X23820D1*
X24241Y19401D1*
Y19747D1*
X19550Y20040D2*
Y20050D1*
X19680Y19920D1*
Y19670D1*
X25264Y21933D2*
D15*
Y23004D1*
D23*
X25589Y23329D1*
D13*
Y23630D1*
X24497Y21933D2*
D15*
Y22953D1*
D23*
X24119Y23331D1*
D13*
Y23630D1*
X19494Y36420D2*
Y36164D1*
X19400Y36070D1*
X18460D1*
X18430Y36100D1*
X14850D1*
X14690Y36260D1*
X14350D1*
X14110Y36020D1*
X14160Y33290D2*
X14762D1*
X14790Y33318D1*
X18430Y36328D2*
Y36100D1*
X26032Y21933D2*
Y22232D1*
X26360Y22560D1*
X27550D1*
X27650Y22660D1*
Y22740D1*
X27570Y22820D1*
X27402D1*
X21943Y33973D2*
Y34200D1*
X22350D1*
X22520Y34030D1*
Y33910D1*
X21687Y31787D2*
Y31620D1*
X21431D1*
Y31787D1*
X21687D2*
Y31433D1*
X21810Y31310D1*
X22560D1*
X22740Y31490D1*
X22950Y31700D1*
Y31767D1*
Y32120D1*
X22990Y32160D1*
X22950Y31767D2*
X22623D1*
X22500Y31890D1*
Y32140D1*
X22520Y32160D1*
X22860Y31660D2*
X22740D1*
Y31490D1*
X18870Y31790D2*
Y32120D1*
X18740Y32250D1*
X18360D1*
X18220Y32110D1*
Y31948D1*
X18190Y31918D1*
X18620Y31790D2*
Y31410D1*
X18390Y31180D1*
X18230D1*
X18190Y31220D1*
Y31407D1*
X21178Y35100D2*
Y35110D1*
X21010D1*
X20920Y35020D1*
Y34670D1*
X21180D1*
X20919Y33973D2*
X20920Y34670D1*
X19896Y31787D2*
D15*
Y30776D1*
D23*
X19550Y30430D1*
D15*
Y30085D1*
X19481D1*
X10440Y29430D2*
D13*
Y29190D1*
X10340Y29090D1*
X9940D1*
X9790Y29240D1*
Y29470D1*
X20663Y31787D2*
D15*
Y30807D1*
D23*
X21010Y30460D1*
D15*
Y30085D1*
X21079D1*
X18482Y30870D2*
D13*
X18530D1*
X19140Y31480D1*
Y31775D1*
X19128Y31787D1*
X9237Y40700D2*
D15*
X8887D1*
X8003Y39815D1*
X6816D1*
X6649Y39648D1*
D21*
X5831D1*
X8170Y39726D2*
D15*
X8003Y39815D1*
X9191Y39944D2*
D13*
X8388D1*
X8170Y39726D1*
X9237Y41290D2*
Y41487D1*
X10135Y39875D2*
X9766Y39506D1*
X9703D1*
X10135Y39875D2*
X10470D1*
Y39890D1*
X9237Y40503D2*
Y40393D1*
X9460Y40170D1*
X9880D1*
X9940Y40110D1*
Y40030D1*
X9860Y39950D1*
X9709D1*
X9703Y39944D1*
X11127Y40696D2*
X11346D1*
X11430Y40780D1*
X11668D1*
X11678Y40790D1*
X9237Y40896D2*
D18*
X8671D1*
X8237Y41330D1*
D13*
X8174D1*
X8170Y41326D1*
D22*
Y42304D1*
D13*
X8154Y42320D1*
X11127Y41094D2*
X11374D1*
X11487Y41207D1*
X11690D1*
X9950Y32330D2*
X9900D1*
Y32510D1*
X9250Y33160D1*
X8800D1*
X8724Y33236D1*
X8800Y33160D2*
X8402D1*
X7730Y32488D1*
Y32082D1*
Y31738D1*
X7750Y31718D1*
X8210Y31709D2*
Y31888D1*
X8041Y32057D1*
X7730D1*
Y32082D1*
X9350Y31709D2*
Y31898D1*
X9260Y31988D1*
X8850D1*
X8482D1*
X8380Y32090D1*
Y32300D1*
X8350Y32330D1*
X8850Y31988D2*
Y31729D1*
X8840Y31719D1*
X17073Y33062D2*
X17472D1*
X17560Y33150D1*
Y33980D1*
X17110Y34430D1*
X14740D1*
X14630Y34320D1*
X14530Y36000D2*
X14570D1*
X14660Y35910D1*
X22395D1*
X22515Y35790D1*
X22855Y35450D1*
X23300D1*
X23530Y35220D1*
Y34999D1*
X23561Y35030D1*
X22758Y35790D2*
X22515D1*
X12960Y12201D2*
Y11580D1*
X14090Y10450D1*
X14110D1*
X13708Y30684D2*
Y30572D1*
X13910Y30370D1*
X14170D1*
Y30677D1*
X14178Y30684D1*
X14170Y30370D2*
Y30142D1*
X14168Y30140D1*
X13248Y31196D2*
Y31478D1*
X13330Y31560D1*
X13740D1*
Y31228D1*
X13708Y31196D1*
X13740Y31560D2*
Y32210D1*
X14080Y32550D1*
X14790D1*
X23935Y33967D2*
Y33945D1*
X23915Y33925D1*
Y33432D1*
X23187Y33967D2*
Y33833D1*
X23430Y33590D1*
Y33422D1*
X23445D1*
X24158Y30740D2*
X23620D1*
X23450Y30910D1*
Y32621D1*
Y32905D1*
X23445Y32910D1*
X23450Y32621D2*
X23871D1*
X23920Y32670D1*
Y32915D1*
X23915Y32920D1*
X6815Y12476D2*
X8076D1*
X8170Y12570D1*
Y12748D1*
X8160Y12758D1*
X15403Y20984D2*
X16479Y22060D1*
X16770D1*
X9770Y6420D2*
X11530D1*
X13060D1*
X11505Y15973D2*
X11200Y15667D1*
Y14590D1*
X11530Y14260D1*
Y8970D1*
X13630D1*
X14110Y9450D1*
X19474Y8852D2*
X19138D1*
X19090Y8900D1*
X16820D1*
X15290Y8930D2*
X14630D1*
X14110Y9450D1*
X11530Y8970D2*
Y6420D1*
X11505Y15973D2*
X11883Y16350D1*
X12800D1*
Y16360D1*
X13040D1*
X16830Y21330D2*
X18970D1*
X21000Y19300D1*
X23370D1*
X23460Y19390D1*
Y19734D1*
X23473Y19747D1*
X21687Y33973D2*
Y34267D1*
X21840Y34420D1*
X22380D1*
X22540Y34580D1*
Y35250D1*
X22200Y35590D1*
X13630D1*
X11530Y33490D1*
Y28840D1*
X12130Y28240D1*
Y26980D1*
Y24460D1*
X12740Y23850D1*
Y23580D1*
X12750Y23570D1*
X12670Y16820D2*
Y16360D1*
X12800D1*
X5707Y25860D2*
X6230D1*
X7270Y26900D1*
X8600D1*
X12110Y26980D2*
X12130D1*
X14550Y15850D2*
Y15930D1*
X14360Y16120D1*
X19349Y16737D2*
X18863D1*
X18510Y17090D1*
Y18530D1*
X17540Y19500D1*
X16400D1*
X10324Y33236D2*
X10656D1*
X10940Y33520D1*
X10324Y33236D2*
Y31998D1*
X10460D1*
Y31758D1*
X10420Y31718D1*
X9880Y31708D2*
Y31848D1*
X10030Y31998D1*
X10324D1*
Y33236D2*
Y32866D1*
X14790Y33830D2*
X15290D1*
X15790D1*
X16046Y33574D1*
X17073D1*
X14790Y33062D2*
X15198D1*
X15290Y32970D1*
X15470Y32790D1*
X17090D1*
X17073Y32806D1*
X15290Y33830D2*
Y32970D1*
X14790Y33830D2*
X13950D1*
X13650Y33530D1*
X15110Y9450D2*
Y9440D1*
X14620Y9930D1*
X13890D1*
X13590Y10230D1*
Y10580D1*
X12630Y11540D1*
Y13320D1*
X12170Y13780D1*
X11910Y23760D2*
X11800Y23870D1*
Y26530D1*
X11680Y26650D1*
Y27720D1*
X11020Y28380D1*
Y31828D1*
X10840Y32008D1*
X10329D1*
X9140Y30270D2*
Y30518D1*
X8820Y30838D1*
X8860D1*
Y30964D1*
Y31188D1*
X8840Y31208D1*
X9140Y30270D2*
X9150D1*
Y28840D1*
X8660Y28350D2*
Y27960D1*
X8870Y27750D1*
Y22630D1*
X9560Y21940D1*
Y21537D1*
X9835Y21262D1*
X8840Y30838D2*
Y30944D1*
X8860Y30964D1*
X10531Y16947D2*
Y16941D1*
X9032Y15442D1*
X7480Y20113D2*
X8479D1*
X8582Y20010D1*
X7480Y20113D2*
X6468D1*
X6249Y20331D1*
X6900Y20453D2*
X8418D1*
X8722Y20149D1*
X6900Y20453D2*
X6593Y20760D1*
X5760D1*
X5600Y20920D1*
Y21177D1*
X5580Y21197D1*
X5707Y23860D2*
X6050D1*
Y23530D1*
X6670Y22890D2*
X6816D1*
X9139Y20566D1*
X7437Y17463D2*
Y17472D1*
D25*
X8722Y18757D1*
X6815Y13460D2*
D13*
Y13415D1*
D25*
X6640Y13590D1*
Y16920D1*
X6710Y16990D1*
X7101D1*
D13*
X7107Y16984D1*
X7437Y17463D2*
D25*
X7183D1*
X6704Y16984D1*
X7717Y18223D2*
D13*
X7910D1*
D25*
X8582Y18896D1*
X6044Y16984D2*
D13*
X6450D1*
D25*
Y13750D1*
X6020Y13320D1*
D13*
Y13468D1*
X6028Y13460D1*
X6450Y16984D2*
D25*
X7689Y18223D1*
D13*
X7717D1*
X10949Y22376D2*
Y22351D1*
X11300Y22000D1*
X11630Y14770D2*
X11810D1*
X12940Y13640D1*
Y12990D1*
X13080D1*
X12960Y12870D1*
X11110Y9450D2*
X10670Y9890D1*
Y13780D1*
X10990Y14100D1*
X11540Y21310D2*
X11570D1*
Y22150D1*
X11460Y22260D1*
X11343D1*
X11088Y22515D1*
X11145Y12875D2*
X11260D1*
Y14230D1*
X10850Y14640D1*
Y14860D1*
X10680Y20800D2*
X10010D1*
X9687Y21123D1*
X9696D1*
X11784Y23211D2*
X12080Y22915D1*
Y22370D1*
X11910Y22200D1*
X11940Y14250D2*
Y14240D1*
X11860Y14160D1*
Y10700D1*
X12110Y10450D1*
X9418Y18061D2*
X9441D1*
X9170Y17790D1*
Y17730D1*
X8350Y16910D1*
X7990D1*
X7910Y16990D1*
X9278Y18200D2*
X8698Y17620D1*
X8190D1*
Y17750D1*
X8861Y20288D2*
D15*
X9146Y20003D1*
Y19983D1*
X9819Y19309D1*
X11260Y20750D1*
Y21620D1*
X11060Y21820D1*
X10948D1*
X10670Y22097D1*
X10810Y16669D2*
D13*
Y16660D1*
D18*
X10441Y16291D1*
X10321D1*
X10070Y16040D1*
X10441Y16291D2*
X10756Y15976D1*
D13*
X10854Y15878D1*
D18*
X11227Y16251D1*
X10854Y15878D2*
Y15494D1*
X10750Y15390D1*
X10440Y15710D2*
X10490D1*
X10756Y15976D1*
X9819Y19309D2*
D15*
X10521Y18607D1*
X9696Y17782D1*
X10521Y18607D2*
X11250Y17878D1*
D10*
Y17307D1*
X11270D1*
Y17129D1*
D18*
X10810Y16669D1*
X15821Y18339D2*
D13*
Y18359D1*
X15550Y18630D1*
D15*
X12510D1*
Y19480D1*
X11260Y20730D1*
Y20750D1*
X14568Y21819D2*
D13*
Y21818D1*
D18*
X14280Y21530D1*
D15*
Y21250D1*
X12510Y19480D1*
X10670Y22097D2*
D18*
X10140Y22628D1*
Y22640D1*
X8861Y20288D2*
D13*
Y20289D1*
X8540Y20610D1*
Y20700D1*
X8420Y20820D1*
X14568Y21819D2*
D18*
X14819Y22070D1*
X15010D1*
X15160Y22220D1*
D13*
X15170Y22210D1*
X15821Y18339D2*
X16200Y17960D1*
Y17820D1*
X16370Y17650D1*
X11250Y17878D2*
D15*
X12002Y18630D1*
X12510D1*
X21534Y16225D2*
X21920D1*
X22130Y16435D1*
X22300Y8460D2*
X22180Y8340D1*
X21659D1*
X22482Y12994D2*
Y12650D1*
X21534Y14434D2*
X22051D1*
X22130Y14355D1*
X21659Y6549D2*
X22173D1*
X22300Y6421D1*
X12190Y40790D2*
D13*
Y40780D1*
X12550D1*
X19384Y31787D2*
D15*
Y31294D1*
X19290Y31200D1*
X21370D2*
X21175Y31395D1*
Y31787D1*
X23985Y21933D2*
Y22355D1*
X23830Y22510D1*
X25890D2*
Y22400D1*
X25770Y22280D1*
Y21939D1*
D13*
X25776Y21933D1*
X17970Y30870D2*
X17790D1*
X17730Y30930D1*
Y31140D1*
X17770Y31180D1*
X17840D1*
X17830Y31190D1*
X21305Y23118D2*
X21890D1*
D17*
Y23600D1*
X20640D2*
Y23118D1*
D13*
X21305D1*
X21850Y11820D2*
D17*
Y11460D1*
D13*
X21183D1*
X21305Y11338D1*
X20640Y23118D2*
D17*
Y22650D1*
X21890D2*
Y23118D1*
X21305Y11338D2*
D13*
X20760D1*
D17*
Y11820D1*
Y10820D2*
D13*
X20790D1*
D17*
Y11310D1*
D13*
X21560D1*
X21532Y11338D1*
X21305D1*
X21860D1*
D17*
Y10820D1*
X14877Y30770D2*
D16*
Y30293D1*
X15490Y29680D1*
X16630D1*
X17170Y30220D1*
Y30760D1*
X17180Y30770D1*
D13*
X17040Y30910D1*
D16*
X17530D1*
X17810Y31190D1*
D13*
X17830D1*
X25890Y22510D2*
X26010D1*
D10*
X26230Y22730D1*
X26890D1*
D13*
Y22820D1*
X22300Y6421D2*
D15*
Y6380D1*
X22710Y5970D1*
Y5677D1*
X22717Y5671D1*
X12380Y38560D2*
D13*
X12313D1*
D16*
X11745Y39128D1*
X11325Y42775D2*
D14*
Y42405D1*
Y42027D2*
Y42405D1*
X22785Y37420D2*
D13*
X22805Y37400D1*
D14*
X23410D1*
X17060Y36855D2*
D13*
Y36760D1*
X16720D1*
X16480Y37000D1*
D14*
Y37310D1*
X17610D2*
Y36900D1*
D13*
X17565Y36855D1*
X17060D1*
X16565D1*
X16460Y36750D1*
D14*
Y36410D1*
X17630Y36430D2*
Y36770D1*
D13*
X17145D1*
X17060Y36855D1*
X26455Y29570D2*
D17*
X25850D1*
X11745Y39128D2*
D22*
Y39815D1*
X14577D1*
X11127Y40503D2*
D18*
X11387D1*
X11520Y40370D1*
X11700Y40190D1*
Y39173D1*
X11745Y39128D1*
X11690Y40370D2*
D13*
X11520D1*
X10690Y27696D2*
Y27870D1*
X10840Y28020D1*
X10910D1*
Y28040D1*
X10980D1*
X11150Y27870D1*
Y27692D1*
X11060Y26550D2*
X10860D1*
X10700Y26390D1*
Y26310D1*
D27*
X14253Y38003D3*
X14100Y34080D3*
X13590Y36010D3*
D76*
X6760Y29870D3*
D27*
X13950Y21300D3*
X10980Y21509D3*
X9503Y18940D3*
X15095Y18960D3*
X9503Y18940D3*
X10970Y17600D3*
X11520Y17410D3*
X14620Y24940D3*
D3*
X8460Y14840D3*
X11520Y17410D3*
X10230Y28020D3*
X10420Y30870D3*
X15920Y16100D3*
X15095Y18960D3*
X15920Y16100D3*
X18860Y16481D3*
X13950Y21300D3*
X10810Y25520D3*
X8130Y30473D3*
X8003Y28565D3*
X13860Y13800D3*
D3*
X15130Y15250D3*
X17530Y8570D3*
X17430Y19080D3*
X10810Y25520D3*
X8460Y23850D3*
X18940Y20610D3*
X10420Y30870D3*
X8130Y30473D3*
X9190Y36440D3*
D3*
D3*
X12517Y34128D3*
X10870Y23090D3*
X12130Y18330D3*
X15550Y33210D3*
X11090Y33020D3*
X11280Y28480D3*
X8940Y28080D3*
X11780Y33390D3*
X13350Y33270D3*
X13600Y25360D3*
X12880Y17410D3*
X14637Y16460D3*
X14140Y25500D3*
X13160Y22410D3*
X12170Y13200D3*
D3*
X14580Y22780D3*
X13645Y16905D3*
X13690Y17430D3*
X13920Y24910D3*
X14390Y18340D3*
X15400Y21770D3*
X14180Y24440D3*
X13800Y18270D3*
X12830Y16040D3*
X10585Y17625D3*
X10710Y21250D3*
X9529Y19985D3*
X15750Y23710D3*
X13860Y21790D3*
X7480Y21120D3*
X15460Y19110D3*
X6910Y21490D3*
X6252Y21628D3*
X6910Y21490D3*
X5565Y19878D3*
D76*
X23780Y32240D3*
Y31240D3*
D27*
X17785Y8035D3*
X17790Y9150D3*
X12231Y42679D3*
X11280Y39870D3*
X12231Y42679D3*
X10330Y39220D3*
X11280Y39870D3*
X10330Y38750D3*
D76*
X20141Y39819D3*
Y39319D3*
Y38810D3*
D27*
X10330Y38750D3*
X8815Y41190D3*
X11128Y41503D3*
X12570Y41207D3*
X23187Y34733D3*
X20180Y36170D3*
X24490Y34230D3*
X23187Y34733D3*
X22520Y33060D3*
X21525Y28830D3*
X19425D3*
X18155D3*
D76*
X23780Y31730D3*
D27*
X23187Y34733D3*
D76*
X23780Y32240D3*
D27*
X22610Y21070D3*
X10710Y21250D3*
X6290Y34820D3*
Y34450D3*
D76*
X18280Y23610D3*
Y22590D3*
X19330Y22640D3*
X19310Y23610D3*
X19320Y11850D3*
X18220Y11800D3*
X19320Y11850D3*
X18200Y10850D3*
X19300D3*
X18200D3*
D27*
X15460Y19110D3*
D76*
X19330Y22640D3*
D27*
X11000Y17250D3*
X11520Y16720D3*
X10320Y17920D3*
X9900Y18390D3*
X10320Y17920D3*
X8480Y16430D3*
X9900Y18390D3*
X8850Y15800D3*
X8480Y16430D3*
X9370Y15270D3*
X8850Y15800D3*
X9930Y14940D3*
X9380Y23080D3*
X15570Y22950D3*
X17060Y17240D3*
X15460Y19110D3*
X22351Y25130D3*
X27020Y25150D3*
X22550Y24030D3*
X26700Y24290D3*
X22550Y24030D3*
X22580Y23230D3*
X22550Y24030D3*
X21700Y30380D3*
Y29810D3*
Y30380D3*
X17900Y30350D3*
Y29820D3*
Y30350D3*
X11430Y26980D3*
X9950Y25930D3*
X7210Y29370D3*
X8560Y30473D3*
X9800Y28030D3*
X7990Y27950D3*
D3*
X14230Y32280D3*
X10690Y32750D3*
X9890Y30888D3*
X17070Y18810D3*
X20426Y17610D3*
X9930Y14940D3*
X14320Y14310D3*
X12830Y16040D3*
X12180Y11970D3*
X6230Y7830D3*
Y7340D3*
Y7830D3*
D76*
X18200Y10850D3*
D27*
X24878Y17690D3*
Y16270D3*
Y14396D3*
Y13050D3*
Y14396D3*
X22920Y12960D3*
X23670Y12930D3*
X22920Y12960D3*
X22930Y17690D3*
X23690Y17700D3*
X24950Y10399D3*
X25040Y9030D3*
X24950Y10399D3*
D76*
X24290Y5508D3*
D27*
X24950Y6970D3*
X23820Y9800D3*
X23050Y9780D3*
X23820Y9800D3*
X11310Y25520D3*
X7960Y24580D3*
X26510Y22990D3*
X18610Y20310D3*
X23590Y35790D3*
X23187Y34733D3*
X21620Y19560D3*
D3*
X9790Y30320D3*
X26442Y35625D3*
X23590Y35790D3*
X26442Y35185D3*
Y35625D3*
X24970Y25150D3*
X22175Y28830D3*
X23640Y25160D3*
X8650Y12410D3*
X13419Y29790D3*
X14160Y31520D3*
X16550Y31580D3*
X22010Y35100D3*
D76*
X20141Y38810D3*
D27*
X13920Y37270D3*
X15090D3*
X13920D3*
X7980Y30828D3*
X10020Y36630D3*
Y37830D3*
X13930Y36420D3*
X13920Y37270D3*
X15090Y36410D3*
X11940Y38440D3*
X18400Y37200D3*
X18680Y38820D3*
X11430Y26980D3*
X9800Y28030D3*
X10815Y37690D3*
X14230Y32280D3*
X14160Y31520D3*
X16010Y30143D3*
X13419Y29790D3*
X16000Y21930D3*
X12579Y40370D3*
X5150Y34820D3*
Y34450D3*
X5030Y7830D3*
X5040Y7360D3*
X5030Y7830D3*
X27625Y35625D3*
X27627Y35190D3*
D76*
X27560Y26920D3*
D27*
X5150Y34820D3*
X7320Y23430D3*
X6440Y25350D3*
X6390Y23150D3*
X6420Y24850D3*
X15640Y17420D3*
X17050Y19770D3*
X16150Y21330D3*
X14740Y18350D3*
X12500Y22840D3*
X12630Y18060D3*
X13140Y14930D3*
X8150Y16480D3*
X8530Y18010D3*
X22564Y9925D3*
X22439Y17762D3*
X14110Y36020D3*
X14160Y33290D3*
X9237Y41487D3*
X10135Y39875D3*
D3*
X14630Y34320D3*
X14530Y36000D3*
X16820Y8900D3*
X15290Y8930D3*
X13040Y16360D3*
X16830Y21330D3*
X12750Y23570D3*
X12670Y16820D3*
X8600Y26900D3*
X12110Y26980D3*
X14360Y16120D3*
X16400Y19500D3*
X10324Y32866D3*
X13650Y33530D3*
X10324Y32866D3*
X12170Y13780D3*
X11910Y23760D3*
X9150Y28840D3*
X8660Y28350D3*
X8840Y30838D3*
X6050Y23530D3*
X6670Y22890D3*
X11300Y22000D3*
X11630Y14770D3*
X10990Y14100D3*
X11540Y21310D3*
X10850Y14860D3*
X10680Y20800D3*
X11910Y22200D3*
X11940Y14250D3*
D76*
X22130Y16435D3*
X22300Y8460D3*
D27*
X22482Y12650D3*
D76*
X22130Y14355D3*
X22300Y6421D3*
D27*
X12550Y40780D3*
D76*
X19290Y31200D3*
X21370D3*
X23830Y22510D3*
X25890D3*
D27*
X17830Y31190D3*
D76*
X19290Y31200D3*
X21890Y23600D3*
X20640D3*
X21850Y11820D3*
X21890Y23600D3*
X22130Y16435D3*
X20640Y22650D3*
X21890D3*
X20640D3*
X20760Y11820D3*
Y10820D3*
Y11820D3*
X21860Y10820D3*
X23830Y22510D3*
X25890D3*
D27*
X11325Y42405D3*
X12550Y40780D3*
D76*
X23410Y37400D3*
D27*
X16480Y37310D3*
X17610D3*
X16480D3*
X16460Y36410D3*
X16480Y37310D3*
X17630Y36430D3*
D76*
X25850Y29570D3*
D27*
X10910Y28040D3*
X11060Y26550D3*
X25087Y32151D3*
X25399D3*
X25712D3*
X26024D3*
X26337D3*
X25087Y31838D3*
X25399D3*
X25712D3*
X26024D3*
X26337D3*
X25087Y31526D3*
X25399D3*
X25712D3*
X26024D3*
X26337D3*
X25087Y31213D3*
X25399D3*
X25712D3*
X26024D3*
X26337D3*
X25087Y30901D3*
X25399D3*
X25712D3*
X26024D3*
X26337D3*
X24878Y20815D3*
Y21128D3*
X25190Y20815D3*
X25503D3*
X25815D3*
X26128D3*
X21140Y32894D3*
X26440Y20815D3*
X24565D3*
X24253D3*
X23940D3*
X23628D3*
X23315D3*
X24565Y21128D3*
X24253D3*
X23940D3*
X23628D3*
X23315D3*
Y20503D3*
X23628D3*
X23940D3*
X24253D3*
X24565D3*
X24878D3*
X25190D3*
X25503D3*
X25815D3*
X26128D3*
X26440D3*
Y21128D3*
X26128D3*
X25815D3*
X25503D3*
X25200Y21130D3*
X22115Y39063D3*
Y39375D3*
Y39688D3*
X21802Y39375D3*
X21490D3*
X21802Y39063D3*
X21490D3*
X22115Y38750D3*
X21802D3*
X21490D3*
Y38437D3*
X21802D3*
X22115D3*
X21802Y39688D3*
X21490D3*
X22428D3*
Y39375D3*
Y39063D3*
Y38750D3*
Y38437D3*
X22740Y39688D3*
Y39375D3*
Y39063D3*
Y38750D3*
Y38437D3*
X8190Y36440D3*
Y35440D3*
Y34440D3*
Y33440D3*
X7190Y37440D3*
Y36440D3*
X6190Y37440D3*
X5190D3*
X4315D3*
Y36440D3*
Y35440D3*
Y34440D3*
Y33440D3*
X5190D3*
X6190D3*
X7190D3*
X9190D3*
X10190Y34440D3*
X20828Y32894D3*
X20533Y32893D3*
X20221D3*
X20533Y33206D3*
Y32581D3*
X20221Y33206D3*
X11190Y34440D3*
X20221Y32581D3*
X23440Y42440D3*
X11190Y35440D3*
X10190D3*
X26440Y18940D3*
X25440Y17940D3*
X20553Y8155D3*
Y7843D3*
X20554Y7548D3*
Y7236D3*
X20241Y7548D3*
X25440Y12940D3*
X20866Y7548D3*
X20241Y7236D3*
X20866D3*
X20240Y8155D3*
X20865D3*
X20240Y7843D3*
X20865D3*
X20552Y8762D3*
Y8450D3*
X20239Y8762D3*
X20864D3*
X20239Y8450D3*
X20864D3*
X20551Y9057D3*
X20238D3*
X20863D3*
X20560Y6946D3*
Y6633D3*
X20248Y6946D3*
X11253Y36440D3*
Y37440D3*
X20873Y6946D3*
X20248Y6633D3*
X20873D3*
X20565Y6334D3*
Y6022D3*
X20252Y6334D3*
X20877D3*
X20252Y6022D3*
X20877D3*
X20565Y5710D3*
X20253D3*
X20878D3*
X5190Y36440D3*
X6190D3*
X5190Y35440D3*
X6190D3*
X7190D3*
Y34440D3*
X19440Y41440D3*
X20440D3*
X21440D3*
X22440D3*
X23440D3*
X24440D3*
X19440Y42440D3*
X16440Y11940D3*
X15570Y12940D3*
X20440Y42440D3*
X21440D3*
X22440D3*
X8190Y34940D3*
X10191Y40882D3*
Y41194D3*
X10504D3*
Y40882D3*
X9879Y41194D3*
Y40882D3*
Y40569D3*
X10191D3*
X10504D3*
X22440Y40440D3*
X23440Y39440D3*
X24440D3*
X25440D3*
X26440D3*
X27440D3*
X21440Y40440D3*
X20440D3*
X20428Y16110D3*
Y15798D3*
Y15503D3*
X21140Y33207D3*
Y32582D3*
X20828Y33207D3*
Y32582D3*
X21747Y32895D3*
X21435D3*
X21747Y33207D3*
Y32582D3*
X21435Y33207D3*
Y32582D3*
X22042Y32896D3*
Y33208D3*
Y32583D3*
X19931Y32887D3*
X19618D3*
X19931Y33199D3*
Y32574D3*
X19618Y33199D3*
Y32574D3*
X19440Y40440D3*
X27440Y38440D3*
Y37440D3*
Y36440D3*
X19440Y39440D3*
X9190Y34440D3*
X23440Y40440D3*
X24440D3*
X25440D3*
X26440D3*
X27440D3*
X26440Y38440D3*
X25440D3*
X24440D3*
X23440D3*
X19319Y32882D3*
X24440Y37440D3*
Y36440D3*
X19007Y32882D3*
X19319Y33195D3*
Y32570D3*
X19007Y33195D3*
Y32570D3*
X18695Y32882D3*
Y33194D3*
Y32569D3*
X20428Y15191D3*
X20116Y15503D3*
X20741D3*
X20116Y15191D3*
X20741D3*
X20115Y16110D3*
X20740D3*
X20115Y15798D3*
X20740D3*
X20427Y16717D3*
Y16405D3*
X20114Y16717D3*
X20739D3*
X20114Y16405D3*
X20739D3*
X20426Y17012D3*
X20113D3*
X20738D3*
X20435Y14901D3*
Y14588D3*
X20123Y14901D3*
X20748D3*
X20123Y14588D3*
X20748D3*
X20440Y14289D3*
Y13977D3*
X20127Y14289D3*
X20752D3*
X20127Y13977D3*
X20752D3*
X20440Y13665D3*
X20128D3*
X20753D3*
X26440Y37440D3*
Y36440D3*
X25315Y36378D3*
Y37690D3*
X8690Y34940D3*
X9190D3*
X9690D3*
X10190D3*
X9690Y34440D3*
X8690D3*
X9690Y35440D3*
X9190D3*
X8690D3*
X21940Y37440D3*
X20730Y37880D3*
X23440Y36500D3*
X22440D3*
X21440Y36510D3*
X27440Y34690D3*
Y33690D3*
Y32690D3*
Y31690D3*
Y30690D3*
Y29690D3*
Y28815D3*
X24440Y35690D3*
X25440D3*
Y34690D3*
X26440D3*
X24410Y33690D3*
X25440D3*
X26440D3*
X24440Y32690D3*
X25440D3*
X26440D3*
X24440Y30190D3*
X23440Y30440D3*
Y29690D3*
X23627Y28190D3*
X24530D3*
X25590D3*
X26600D3*
X24190Y29190D3*
X25440Y30190D3*
X26440Y30315D3*
X27440Y27940D3*
Y23940D3*
Y21940D3*
Y20940D3*
Y19940D3*
Y18940D3*
Y17940D3*
X26440D3*
X27440Y12940D3*
Y11940D3*
X26440D3*
X22440D3*
X23440D3*
X24440D3*
X25440D3*
X26440Y12940D3*
X24440D3*
X22440Y10940D3*
X23440D3*
X24440D3*
X25440D3*
X27440Y6940D3*
X26440D3*
X24440Y4940D3*
X23440D3*
X21440D3*
X20440D3*
X15440D3*
X16440D3*
X17440D3*
X18440D3*
X19440D3*
X14440D3*
Y5940D3*
Y6940D3*
X12440Y7940D3*
X13440D3*
X14440D3*
X13440Y6940D3*
X12440D3*
X13440Y5890D3*
X12430Y5920D3*
X15440Y5940D3*
X16440D3*
X17440D3*
X18440D3*
X15440Y6940D3*
X16440D3*
X15440Y7940D3*
X17440Y11940D3*
Y10940D3*
Y9940D3*
Y12940D3*
X16440D3*
X15540Y13940D3*
X16440D3*
Y14940D3*
Y15940D3*
X17390D3*
X17440Y14940D3*
Y13940D3*
X18440Y12940D3*
X19440D3*
X20440D3*
X21490Y12890D3*
X18440Y13940D3*
X18390Y14940D3*
X15650Y14930D3*
X21440Y23940D3*
Y24940D3*
X20440D3*
X19440D3*
X18440D3*
X17440D3*
Y23940D3*
X17480Y22940D3*
X17440Y21940D3*
X18440D3*
X19440D3*
X20440D3*
X21440D3*
Y20940D3*
Y19940D3*
X22440D3*
X20440Y20940D3*
X4885Y21846D2*
X7474D1*
X4885Y21598D2*
X5103D1*
X6727D2*
X7724D1*
X4885Y21349D2*
X5103D1*
X7336D2*
X7646D1*
X4885Y21100D2*
X5103D1*
X4885Y20852D2*
X5103D1*
X4885Y20603D2*
X5103D1*
X4885Y20354D2*
X5103D1*
X4885Y20105D2*
X5103D1*
X4885Y19857D2*
X5103D1*
X6727D2*
X7048D1*
X7915D2*
X8085D1*
X4885Y19608D2*
X8085D1*
X4885Y19359D2*
X8085D1*
X4885Y19111D2*
X8085D1*
X7701Y21379D2*
X7833Y21511D1*
X7249Y22096D1*
X4860Y22095D1*
Y19095D1*
X8110D1*
X8104Y19858D1*
X7889D1*
X7857Y19778D1*
X7758Y19698D1*
X7677Y19681D1*
X7283D1*
X7165Y19716D1*
X7085Y19815D1*
X7074Y19848D1*
X6855Y19858D1*
X6703D1*
X6701Y19841D1*
X5798Y19845D1*
X5781Y19841D1*
X5129D1*
Y21688D1*
X6031Y21684D1*
X6048Y21688D1*
X6701D1*
X6703Y21554D1*
X7146Y21548D1*
X7215Y21518D1*
X7269Y21467D1*
X7303Y21400D1*
X7312Y21314D1*
Y21213D1*
X7620Y21216D1*
X7636Y21289D1*
X7676Y21354D1*
X7701Y21379D1*
X7623Y21182D2*
D28*
X8058D1*
X6900Y21553D2*
Y21122D1*
X7312D1*
X7480Y21213D2*
Y20782D1*
X6249Y21688D2*
Y21197D1*
X5580Y20331D2*
Y19841D1*
X5129Y20331D2*
X5580D1*
X12408Y22354D2*
D27*
X12624D1*
X12314Y22106D2*
X12885D1*
X12119Y21857D2*
X13151D1*
X11900Y21608D2*
X13417D1*
X11951Y21360D2*
X13542D1*
X11099Y21111D2*
X11182D1*
X11900D2*
X13585D1*
X11092Y20862D2*
X14213D1*
X11049Y20614D2*
X14475D1*
X10248Y20365D2*
X14741D1*
X9998Y20116D2*
X15006D1*
X9927Y19868D2*
X15272D1*
X9689Y19619D2*
X15538D1*
X9404Y19370D2*
X15143D1*
X9873Y19121D2*
X14713D1*
X9912Y18873D2*
X14690D1*
X10236Y18624D2*
X11850D1*
X12412D2*
X13612D1*
X13990D2*
X14096D1*
X10392Y18375D2*
X11717D1*
X12885D2*
X13401D1*
X10677Y18127D2*
X11772D1*
X11267Y17878D2*
X11870D1*
X11869Y17629D2*
X12116D1*
X11935Y17381D2*
X12178D1*
X13177Y17132D2*
X13303D1*
X14135Y20962D2*
X14061Y20926D1*
X13938Y20910D1*
X13815Y20934D1*
X13707Y20995D1*
X13623Y21087D1*
X13573Y21201D1*
X13561Y21325D1*
X13598Y21463D1*
X12542Y22453D1*
X12488Y22450D1*
X12385Y22470D1*
Y22370D1*
X12358Y22245D1*
X12223Y21967D1*
X12133Y21880D1*
X12021Y21826D1*
X11879Y21814D1*
X11875Y21513D1*
X11923Y21385D1*
X11930Y21310D1*
X11910Y21187D1*
X11853Y21077D1*
X11763Y20990D1*
X11651Y20936D1*
X11528Y20920D1*
X11405Y20944D1*
X11297Y21005D1*
X11213Y21097D1*
X11180Y21172D1*
X11079Y21134D1*
X11023Y21017D1*
X11009Y21003D1*
X11063Y20875D1*
X11070Y20800D1*
X11050Y20677D1*
X10993Y20567D1*
X10903Y20480D1*
X10791Y20426D1*
X10668Y20410D1*
X10545Y20434D1*
X10430Y20495D1*
X10356D1*
X9913Y20058D1*
X9919Y19985D1*
X9899Y19862D1*
X9842Y19752D1*
X9752Y19665D1*
X9640Y19611D1*
X9517Y19595D1*
X9459Y19606D1*
X9297Y19448D1*
X9429Y19320D1*
X9540Y19328D1*
X9660Y19297D1*
X9764Y19229D1*
X9842Y19132D1*
X9885Y19015D1*
X9893Y18940D1*
X9881Y18867D1*
X9975Y18772D1*
X10058Y18747D1*
X10162Y18679D1*
X10240Y18582D1*
X10283Y18463D1*
X10459Y18284D1*
X10582Y18209D1*
X10660Y18112D1*
X10677Y18064D1*
X10779Y17963D1*
X11007Y17988D1*
X11128Y17957D1*
X11232Y17889D1*
X11310Y17792D1*
X11324Y17752D1*
X11433Y17790D1*
X11557Y17798D1*
X11678Y17767D1*
X11782Y17699D1*
X11860Y17602D1*
X11903Y17485D1*
X11910Y17410D1*
X11890Y17287D1*
X11842Y17194D1*
X11839Y17101D1*
X11858Y17035D1*
X12297Y17474D1*
X11914Y17854D1*
X11846Y17962D1*
X11825Y18070D1*
Y18090D1*
X11803Y18117D1*
X11753Y18231D1*
X11741Y18355D1*
X11768Y18476D1*
X11833Y18583D1*
X11928Y18663D1*
X12043Y18710D1*
X12167Y18718D1*
X12288Y18687D1*
X12392Y18619D1*
X12470Y18522D1*
X12503Y18431D1*
X12667Y18448D1*
X12788Y18417D1*
X12869Y18364D1*
X13423Y18365D1*
X13438Y18416D1*
X13503Y18523D1*
X13598Y18603D1*
X13713Y18650D1*
X13837Y18658D1*
X13958Y18627D1*
X14064Y18556D1*
X14093Y18593D1*
X14188Y18673D1*
X14303Y18720D1*
X14427Y18728D1*
X14551Y18695D1*
X14653Y18730D1*
X14773Y18738D1*
X14718Y18861D1*
X14706Y18985D1*
X14733Y19106D1*
X14798Y19213D1*
X14893Y19293D1*
X15008Y19340D1*
X15151Y19343D1*
X15258Y19443D1*
X15373Y19490D1*
X15497Y19498D1*
X15618Y19467D1*
X15706Y19410D1*
X15655Y19531D1*
X14137Y20956D1*
X14061Y20926D1*
X13938Y20910D1*
X13815Y20934D1*
X13707Y20995D1*
X13623Y21087D1*
X13573Y21201D1*
X13561Y21325D1*
X13598Y21463D1*
X9427Y19321D2*
X9540Y19328D1*
X9660Y19297D1*
X9764Y19229D1*
X9842Y19132D1*
X9885Y19015D1*
X9893Y18940D1*
X9881Y18867D1*
X9979Y18767D1*
X10058Y18747D1*
X10162Y18679D1*
X10240Y18582D1*
X10283Y18463D1*
X11328Y17748D2*
X11433Y17790D1*
X11557Y17798D1*
X11678Y17767D1*
X11782Y17699D1*
X11860Y17602D1*
X11903Y17485D1*
X11910Y17410D1*
X11890Y17287D1*
X11842Y17194D1*
X14776Y18738D2*
X14718Y18861D1*
X14706Y18985D1*
X14733Y19106D1*
X14798Y19213D1*
X14893Y19293D1*
X15008Y19340D1*
X15151Y19343D1*
X15258Y19443D1*
X15373Y19490D1*
X15497Y19498D1*
X15618Y19467D1*
X15706Y19410D1*
X13302Y17395D2*
X13270D1*
X13313Y17331D1*
X13306Y17397D1*
X13193Y17177D1*
X13103Y17090D1*
X12995Y17038D1*
X13053Y16895D1*
X13058Y16836D1*
X13285Y17056D1*
X13348Y17158D1*
X13386Y17190D1*
X13363Y17217D1*
X13313Y17331D1*
X24295Y35691D2*
X26085D1*
X24869Y35443D2*
X26132D1*
X24869Y35194D2*
X26077D1*
X24869Y34945D2*
X26175D1*
X24869Y34697D2*
X27729D1*
X24869Y34448D2*
X27729D1*
X24869Y34199D2*
X27729D1*
X24709Y33950D2*
X27729D1*
X24291Y33702D2*
X27729D1*
X24291Y33453D2*
X27729D1*
X24291Y33204D2*
X27729D1*
X24291Y32956D2*
X27729D1*
X24291Y32707D2*
X27729D1*
X24627Y32458D2*
X27729D1*
X24627Y32210D2*
X27729D1*
X24627Y31961D2*
X27729D1*
X24623Y31712D2*
X27729D1*
X24623Y31464D2*
X27729D1*
X24623Y31215D2*
X27729D1*
X24623Y30966D2*
X27729D1*
X24623Y30718D2*
X27729D1*
X23201Y30469D2*
X23690D1*
X24623D2*
X27729D1*
X23201Y30220D2*
X27729D1*
X23201Y29971D2*
X25741D1*
X27045D2*
X27729D1*
X23201Y29723D2*
X25444D1*
X27045D2*
X27729D1*
X23303Y29474D2*
X25425D1*
X27045D2*
X27729D1*
X23303Y29225D2*
X25604D1*
X27045D2*
X27729D1*
X23303Y28977D2*
X25866D1*
X27045D2*
X27729D1*
X23201Y28728D2*
X27729D1*
X23194Y28479D2*
X27729D1*
X22990Y28231D2*
X27729D1*
X22990Y27982D2*
X27729D1*
X22990Y27733D2*
X24702D1*
X25557D2*
X25702D1*
X26557D2*
X27729D1*
X22990Y27485D2*
X24601D1*
X26662D2*
X27729D1*
X22990Y27236D2*
X24628D1*
X26811D2*
X27308D1*
X22990Y26987D2*
X24835D1*
X26990D2*
X27154D1*
X27680Y34855D2*
Y34832D1*
X26895Y34836D1*
X26793Y34832D1*
X26384D1*
Y34852D1*
X26353Y34857D1*
X26241Y34911D1*
X26156Y35002D1*
X26109Y35117D1*
X26107Y35242D1*
X26150Y35358D1*
X26178Y35390D1*
X26109Y35557D1*
X26107Y35682D1*
X26150Y35798D1*
X26232Y35892D1*
X26270Y35912D1*
X26253Y35940D1*
X24272D1*
X24270Y35612D1*
X24340Y35615D1*
X24481Y35573D1*
X24600Y35460D1*
X24843Y35462D1*
X24839Y34678D1*
X24843Y34575D1*
Y34166D1*
X24823D1*
X24807Y34108D1*
X24742Y34002D1*
X24643Y33927D1*
X24524Y33892D1*
X24400Y33902D1*
X24288Y33956D1*
X24270Y33976D1*
X24264Y33535D1*
X24268Y33040D1*
Y32590D1*
X24601Y32593D1*
X24599Y31718D1*
X24595Y31387D1*
X24599Y30968D1*
X24595Y30887D1*
X24599Y30468D1*
Y30387D1*
X23717D1*
Y30485D1*
X23620D1*
X23479Y30527D1*
X23270Y30730D1*
X23200Y30859D1*
X23195Y31160D1*
Y31414D1*
X23180Y31315D1*
X23176Y29600D1*
X23276Y29602D1*
Y28778D1*
X23179D1*
X23174Y28515D1*
X23142Y28432D1*
X22967Y28280D1*
X22965Y26937D1*
X23940Y26940D1*
X24960D1*
X24828Y27009D1*
X24737Y27094D1*
X24670Y27199D1*
X24630Y27318D1*
X24620Y27442D1*
X24641Y27565D1*
X24690Y27679D1*
X24766Y27778D1*
X24864Y27856D1*
X24978Y27907D1*
X25100Y27929D1*
X25225Y27921D1*
X25344Y27883D1*
X25450Y27818D1*
X25537Y27728D1*
X25599Y27621D1*
X25628Y27520D1*
X25690Y27679D1*
X25766Y27778D1*
X25864Y27856D1*
X25978Y27907D1*
X26100Y27929D1*
X26225Y27921D1*
X26344Y27883D1*
X26450Y27818D1*
X26537Y27728D1*
X26599Y27621D1*
X26634Y27501D1*
X26636Y27385D1*
X26877Y27147D1*
X26948Y27040D1*
X26929Y27079D1*
X26971Y26961D1*
X27065Y26940D1*
X27171Y26945D1*
X27198Y27066D1*
X27263Y27173D1*
X27358Y27253D1*
X27473Y27300D1*
X27597Y27308D1*
X27718Y27277D1*
X27753Y27253D1*
Y34874D1*
X26015Y30210D2*
X27020D1*
Y28930D1*
X25890D1*
Y29160D1*
X25727Y29179D1*
X25615Y29234D1*
X25525Y29320D1*
X25465Y29429D1*
X25440Y29551D1*
X25454Y29675D1*
X25503Y29789D1*
X25585Y29883D1*
X25691Y29948D1*
X25850Y29980D1*
X25893D1*
X25890Y30210D1*
X26015D1*
X13703Y42935D2*
X24197D1*
X25083D2*
X25342D1*
X13703Y42687D2*
X14486D1*
X14669D2*
X16135D1*
X16321D2*
X17787D1*
X17969D2*
X24154D1*
X13703Y42438D2*
X14006D1*
X15146D2*
X15658D1*
X16798D2*
X17307D1*
X18447D2*
X24264D1*
X13703Y42189D2*
X13869D1*
X15283D2*
X15522D1*
X16935D2*
X17170D1*
X18583D2*
X24971D1*
X13703Y41941D2*
X13838D1*
X15318D2*
X15490D1*
X16966D2*
X17141D1*
X18615D2*
X24951D1*
X13703Y41692D2*
X13897D1*
X15259D2*
X15545D1*
X16908D2*
X17197D1*
X18560D2*
X24971D1*
X13703Y41443D2*
X14076D1*
X15079D2*
X15725D1*
X16732D2*
X17373D1*
X18380D2*
X25037D1*
X13703Y41195D2*
X25154D1*
X27728D2*
X27843D1*
X13703Y40946D2*
X25338D1*
X27540D2*
X27842D1*
X13703Y40697D2*
X25639D1*
X27240D2*
X27842D1*
X13703Y40449D2*
X14221D1*
X14935D2*
X15873D1*
X16583D2*
X17139D1*
X18619D2*
X27842D1*
X15204Y40200D2*
X15600D1*
X16857D2*
X17139D1*
X18619D2*
X20033D1*
X20247D2*
X27842D1*
X15306Y39951D2*
X15502D1*
X16954D2*
X17141D1*
X18619D2*
X19748D1*
X21033D2*
X27842D1*
X15310Y39703D2*
X15498D1*
X16958D2*
X17141D1*
X18619D2*
X19744D1*
X21033D2*
X27842D1*
X15220Y39454D2*
X15584D1*
X16869D2*
X17139D1*
X18619D2*
X19752D1*
X21033D2*
X27842D1*
X13703Y39205D2*
X14178D1*
X14974D2*
X15830D1*
X16626D2*
X17139D1*
X18619D2*
X19744D1*
X21033D2*
X27842D1*
X13703Y38956D2*
X18342D1*
X21033D2*
X27842D1*
X13794Y38708D2*
X18303D1*
X21033D2*
X27842D1*
X13806Y38459D2*
X18303D1*
X21033D2*
X27842D1*
X21033Y38210D2*
X27842D1*
X20115Y37962D2*
X22194D1*
X23376D2*
X27842D1*
X20228Y37713D2*
X22194D1*
X23669D2*
X25424D1*
X25954D2*
X27842D1*
X20228Y37464D2*
X22194D1*
X23818D2*
X25088D1*
X26290D2*
X27842D1*
X20337Y37216D2*
X22194D1*
X23779D2*
X24971D1*
X26408D2*
X27842D1*
X20591Y36967D2*
X22194D1*
X23376D2*
X24955D1*
X26427D2*
X27842D1*
X20841Y36718D2*
X25026D1*
X26353D2*
X27842D1*
X23915Y36470D2*
X25233D1*
X26146D2*
X27842D1*
X18327Y38282D2*
X18331Y38422D1*
X18327Y38525D1*
Y38934D1*
X18362D1*
X18387Y38993D1*
X18469Y39087D1*
X18493Y39100D1*
X17162D1*
Y40530D1*
X18592D1*
Y39150D1*
X18703Y39159D1*
X18823Y39128D1*
X18924Y39056D1*
X18996Y38941D1*
X19080Y39000D1*
X19132Y39040D1*
X19193Y39066D1*
X19260Y39075D1*
X19710D1*
X19833Y39042D1*
X19847Y39065D1*
X19810Y39054D1*
X19847Y39065D1*
X19814Y39106D1*
X19764Y39220D1*
X19752Y39344D1*
X19780Y39465D1*
X19842Y39568D1*
X19814Y39606D1*
X19764Y39720D1*
X19752Y39844D1*
X19780Y39965D1*
X19844Y40071D1*
X19939Y40152D1*
X20054Y40199D1*
X20178Y40207D1*
X20265Y40184D1*
X20567D1*
X20640Y40171D1*
X21008Y40172D1*
X21006Y39297D1*
X21002Y38966D1*
X21006Y38547D1*
X21002Y38466D1*
X21006Y38047D1*
Y37966D1*
X20123D1*
Y38095D1*
X20048Y38128D1*
X20015Y38044D1*
X20066Y37992D1*
X20160Y37915D1*
X20201D1*
Y37268D1*
X20314Y37214D1*
X20619Y36915D1*
X21030Y36504D1*
X23740Y36505D1*
X23862Y36482D1*
X23977Y36407D1*
X24079Y36305D1*
X25740Y36308D1*
X27868D1*
Y41609D1*
X27820Y41450D1*
X27717Y41222D1*
X27577Y41016D1*
X27403Y40836D1*
X27202Y40689D1*
X26978Y40577D1*
X26739Y40506D1*
X26491Y40476D1*
X26242Y40488D1*
X25998Y40543D1*
X25767Y40639D1*
X25556Y40772D1*
X25371Y40939D1*
X25216Y41135D1*
X25097Y41354D1*
X25017Y41591D1*
X24979Y41838D1*
X24982Y42087D1*
X25029Y42333D1*
X25116Y42567D1*
X25241Y42782D1*
X25402Y42974D1*
X25593Y43135D1*
X25668Y43184D1*
X24770Y43183D1*
X24833Y43160D1*
X24938Y43093D1*
X25021Y43001D1*
X25077Y42889D1*
X25102Y42740D1*
X25085Y42617D1*
X25036Y42502D1*
X24958Y42405D1*
X24857Y42332D1*
X24740Y42289D1*
X24615Y42279D1*
X24493Y42302D1*
X24381Y42357D1*
X24288Y42440D1*
X24221Y42545D1*
X24184Y42664D1*
X24181Y42789D1*
X24211Y42910D1*
X24272Y43019D1*
X24360Y43107D1*
X24468Y43169D1*
X24524Y43183D1*
X13678Y43180D1*
Y40278D1*
X14038Y40280D1*
X14122Y40366D1*
X14224Y40437D1*
X14338Y40489D1*
X14459Y40520D1*
X14583Y40530D1*
X14707Y40518D1*
X14828Y40485D1*
X14940Y40431D1*
X15042Y40359D1*
X15129Y40269D1*
X15200Y40167D1*
X15252Y40053D1*
X15283Y39932D1*
X15292Y39815D1*
X15282Y39691D1*
X15249Y39570D1*
X15196Y39457D1*
X15125Y39355D1*
X15036Y39267D1*
X14934Y39195D1*
X14821Y39143D1*
X14700Y39111D1*
X14576Y39100D1*
X14451Y39111D1*
X14331Y39144D1*
X14218Y39197D1*
X14116Y39269D1*
X14036Y39349D1*
X13675Y39350D1*
X13678Y38848D1*
X13732Y38781D1*
X13781Y38666D1*
X13795Y38560D1*
X13776Y38437D1*
X13727Y38335D1*
X14275Y38342D1*
X14378Y38338D1*
X18147D1*
X18273Y38312D1*
X18236Y38325D1*
X22345Y38060D2*
X23350D1*
Y37783D1*
X23447Y37788D1*
X23568Y37757D1*
X23672Y37689D1*
X23750Y37592D1*
X23793Y37475D1*
X23800Y37400D1*
X23780Y37277D1*
X23723Y37167D1*
X23633Y37080D1*
X23521Y37026D1*
X23398Y37010D1*
X23348Y37020D1*
X23350Y36780D1*
X22220D1*
Y38060D1*
X22345D1*
X16932Y39691D2*
X16899Y39570D1*
X16846Y39457D1*
X16775Y39355D1*
X16686Y39267D1*
X16584Y39195D1*
X16471Y39143D1*
X16350Y39111D1*
X16226Y39100D1*
X16101Y39111D1*
X15981Y39144D1*
X15868Y39197D1*
X15766Y39269D1*
X15678Y39358D1*
X15607Y39460D1*
X15554Y39574D1*
X15523Y39694D1*
X15513Y39819D1*
X15524Y39943D1*
X15557Y40063D1*
X15610Y40176D1*
X15683Y40278D1*
X15772Y40366D1*
X15874Y40437D1*
X15988Y40489D1*
X16109Y40520D1*
X16233Y40530D1*
X16357Y40518D1*
X16478Y40485D1*
X16590Y40431D1*
X16692Y40359D1*
X16779Y40269D1*
X16850Y40167D1*
X16902Y40053D1*
X16933Y39932D1*
X16942Y39815D1*
X16932Y39691D1*
X18582Y41851D2*
X18549Y41730D1*
X18496Y41617D1*
X18425Y41515D1*
X18336Y41427D1*
X18234Y41355D1*
X18121Y41303D1*
X18000Y41271D1*
X17876Y41260D1*
X17751Y41271D1*
X17631Y41304D1*
X17518Y41357D1*
X17416Y41429D1*
X17328Y41518D1*
X17257Y41620D1*
X17204Y41734D1*
X17173Y41854D1*
X17163Y41979D1*
X17174Y42103D1*
X17207Y42223D1*
X17260Y42336D1*
X17333Y42438D1*
X17422Y42526D1*
X17524Y42597D1*
X17638Y42649D1*
X17759Y42680D1*
X17883Y42690D1*
X18007Y42678D1*
X18128Y42645D1*
X18240Y42591D1*
X18342Y42519D1*
X18429Y42429D1*
X18500Y42327D1*
X18552Y42213D1*
X18583Y42092D1*
X18592Y41975D1*
X18582Y41851D1*
X16932D2*
X16899Y41730D1*
X16846Y41617D1*
X16775Y41515D1*
X16686Y41427D1*
X16584Y41355D1*
X16471Y41303D1*
X16350Y41271D1*
X16226Y41260D1*
X16101Y41271D1*
X15981Y41304D1*
X15868Y41357D1*
X15766Y41429D1*
X15678Y41518D1*
X15607Y41620D1*
X15554Y41734D1*
X15523Y41854D1*
X15513Y41979D1*
X15524Y42103D1*
X15557Y42223D1*
X15610Y42336D1*
X15683Y42438D1*
X15772Y42526D1*
X15874Y42597D1*
X15988Y42649D1*
X16109Y42680D1*
X16233Y42690D1*
X16357Y42678D1*
X16478Y42645D1*
X16590Y42591D1*
X16692Y42519D1*
X16779Y42429D1*
X16850Y42327D1*
X16902Y42213D1*
X16933Y42092D1*
X16942Y41975D1*
X16932Y41851D1*
X15282D2*
X15249Y41730D1*
X15196Y41617D1*
X15125Y41515D1*
X15036Y41427D1*
X14934Y41355D1*
X14821Y41303D1*
X14700Y41271D1*
X14576Y41260D1*
X14451Y41271D1*
X14331Y41304D1*
X14218Y41357D1*
X14116Y41429D1*
X14028Y41518D1*
X13957Y41620D1*
X13904Y41734D1*
X13873Y41854D1*
X13863Y41979D1*
X13874Y42103D1*
X13907Y42223D1*
X13960Y42336D1*
X14033Y42438D1*
X14122Y42526D1*
X14224Y42597D1*
X14338Y42649D1*
X14459Y42680D1*
X14583Y42690D1*
X14707Y42678D1*
X14828Y42645D1*
X14940Y42591D1*
X15042Y42519D1*
X15129Y42429D1*
X15200Y42327D1*
X15252Y42213D1*
X15283Y42092D1*
X15292Y41975D1*
X15282Y41851D1*
X26394Y36916D2*
X26362Y36795D1*
X26309Y36682D1*
X26237Y36580D1*
X26149Y36492D1*
X26046Y36420D1*
X25933Y36368D1*
X25813Y36336D1*
X25688Y36325D1*
X25564Y36336D1*
X25443Y36369D1*
X25330Y36422D1*
X25228Y36494D1*
X25140Y36583D1*
X25069Y36685D1*
X25017Y36799D1*
X24985Y36919D1*
X24975Y37044D1*
X24987Y37168D1*
X25020Y37288D1*
X25073Y37401D1*
X25145Y37503D1*
X25234Y37591D1*
X25337Y37662D1*
X25450Y37714D1*
X25571Y37745D1*
X25696Y37755D1*
X25820Y37743D1*
X25940Y37710D1*
X26053Y37656D1*
X26155Y37584D1*
X26242Y37494D1*
X26313Y37392D1*
X26364Y37278D1*
X26395Y37157D1*
X26405Y37040D1*
X26394Y36916D1*
X4277Y38691D2*
X9104D1*
X4277Y38443D2*
X9104D1*
X4277Y38194D2*
X8991D1*
X4277Y37945D2*
X8745D1*
X4565Y37697D2*
X4940D1*
X5440D2*
X5940D1*
X6440D2*
X6940D1*
X7440D2*
X8495D1*
X6967Y37692D2*
X7089Y37765D1*
X7213Y37779D1*
X7333Y37748D1*
X7412Y37692D1*
X8512Y37690D1*
X9128Y38304D1*
X9127Y38940D1*
X4252D1*
Y37772D1*
X4338Y37779D1*
X4458Y37748D1*
X4537Y37692D1*
X4960Y37690D1*
X5089Y37765D1*
X5213Y37779D1*
X5333Y37748D1*
X5412Y37692D1*
X5960Y37690D1*
X6089Y37765D1*
X6213Y37779D1*
X6333Y37748D1*
X6412Y37692D1*
X6960Y37690D1*
X7810Y42921D2*
X8512D1*
X7810Y42673D2*
X8512D1*
X7810Y42424D2*
X8512D1*
X7810Y42175D2*
X8512D1*
X7810Y41927D2*
X8512D1*
X7810Y41678D2*
X8457D1*
X7810Y41429D2*
X8453D1*
X7810Y41180D2*
X8449D1*
X8536Y40999D2*
X8482Y41122D1*
X8480Y41645D1*
X8505Y41770D1*
X8535Y41857D1*
Y43170D1*
X7785D1*
Y41035D1*
X7836Y40984D1*
X8535Y40982D1*
Y40994D1*
X8892Y42911D2*
X9532D1*
X8892Y42663D2*
X9532D1*
X8892Y42414D2*
X9532D1*
X8892Y42165D2*
X9532D1*
X8892Y41917D2*
X9532D1*
X8999Y41722D2*
X9027Y41754D1*
X9137Y41812D1*
X9260Y41827D1*
X9381Y41796D1*
X9484Y41721D1*
X9555Y41722D1*
Y43160D1*
X8867D1*
Y41722D1*
X8989D1*
X9861Y42941D2*
X10878D1*
X9861Y42693D2*
X10878D1*
X9861Y42444D2*
X10878D1*
X9861Y42195D2*
X10878D1*
X9861Y41947D2*
X10878D1*
X9861Y41698D2*
X10878D1*
X9842Y41449D2*
X11265D1*
X9678Y41200D2*
X10636D1*
X9678Y40952D2*
X10636D1*
X9678Y40703D2*
X10636D1*
X9678Y40454D2*
X10686D1*
X10889Y40206D2*
X11272D1*
X10889Y39957D2*
X11276D1*
X10889Y39708D2*
X11257D1*
X10119Y39460D2*
X11249D1*
X10119Y39211D2*
X11249D1*
X9592Y38962D2*
X11249D1*
X9592Y38714D2*
X10702D1*
X10863Y38793D2*
X11274D1*
X11280Y39815D1*
X11304Y39961D1*
X11298Y40209D1*
X11167Y40228D1*
X10859D1*
X10862Y39537D1*
X10165D1*
X10097Y39477D1*
X10165Y39537D1*
X10095Y39472D1*
Y39154D1*
X9568D1*
X9566Y38693D1*
X10694Y38690D1*
X10738Y38720D1*
Y38793D1*
X10863D1*
X11028Y43118D2*
X11274D1*
X11275Y43190D1*
X9837D1*
Y41565D1*
X9776Y41460D1*
X9712Y41440D1*
X9654D1*
X9649Y41015D1*
X9652Y40921D1*
X9649Y40621D1*
X9652Y40426D1*
X9880Y40425D1*
X10008Y40390D1*
X10100Y40310D1*
X10147Y40259D1*
X10203Y40243D1*
X10715D1*
X10712Y40574D1*
X10662Y40571D1*
Y41221D1*
X10713D1*
X10712Y41369D1*
X11287D1*
X11289Y41685D1*
X10903Y41684D1*
Y42370D1*
X10985D1*
X10903Y42432D1*
Y43118D1*
X11028D1*
X17670Y25586D2*
X23038D1*
X17424Y25338D2*
X22788D1*
X17276Y25089D2*
X22565D1*
X17276Y24840D2*
X22565D1*
X17276Y24592D2*
X22565D1*
X17276Y24343D2*
X22757D1*
X26623D2*
X27104D1*
X17276Y24094D2*
X23026D1*
X26522D2*
X27374D1*
X17276Y23846D2*
X20288D1*
X20994D2*
X21538D1*
X22244D2*
X23222D1*
X26522D2*
X27640D1*
X17276Y23597D2*
X20206D1*
X22326D2*
X23222D1*
X26522D2*
X27663D1*
X17276Y23348D2*
X20206D1*
X22326D2*
X23222D1*
X26522D2*
X27663D1*
X17311Y23100D2*
X20206D1*
X22326D2*
X23222D1*
X17311Y22851D2*
X20206D1*
X22326D2*
X23245D1*
X17311Y22602D2*
X20206D1*
X21072D2*
X21456D1*
X17311Y22354D2*
X20331D1*
X20947D2*
X21581D1*
X17311Y22105D2*
X21792D1*
X27346D2*
X27663D1*
X21322Y21856D2*
X21792D1*
X22998D2*
X23175D1*
X27346D2*
X27663D1*
X21619Y21607D2*
X21792D1*
X22998D2*
X23175D1*
X27346D2*
X27663D1*
X22549Y21359D2*
X26104D1*
X27346D2*
X27663D1*
X19576Y21110D2*
X21343D1*
X22549D2*
X27663D1*
X19822Y20861D2*
X27663D1*
X20072Y20613D2*
X27663D1*
X20322Y20364D2*
X27663D1*
X20569Y20115D2*
X22917D1*
X26639D2*
X27663D1*
X20819Y19867D2*
X22101D1*
X26639D2*
X27663D1*
X21069Y19618D2*
X22101D1*
X26639D2*
X27663D1*
X26639Y19369D2*
X27663D1*
X26217Y19121D2*
X27663D1*
X25967Y18872D2*
X27663D1*
X25139Y18623D2*
X27663D1*
X24889Y18375D2*
X27663D1*
X24643Y18126D2*
X27663D1*
X22783Y17877D2*
X27663D1*
X19967Y17628D2*
X21194D1*
X22776D2*
X27663D1*
X19967Y17380D2*
X21741D1*
X22721D2*
X24120D1*
X24990D2*
X27663D1*
X19912Y17131D2*
X21741D1*
X22721D2*
X24120D1*
X24990D2*
X25968D1*
X26877D2*
X27663D1*
X19912Y16882D2*
X20968D1*
X26986D2*
X27663D1*
X19912Y16634D2*
X20968D1*
X26975D2*
X27663D1*
X16803Y16385D2*
X16911D1*
X19963D2*
X20968D1*
X26819D2*
X27663D1*
X16569Y16136D2*
X17159D1*
X19963D2*
X20968D1*
X24084D2*
X25972D1*
X26873D2*
X27663D1*
X16467Y15888D2*
X17405D1*
X19916D2*
X20968D1*
X25010D2*
X25854D1*
X26986D2*
X27663D1*
X16303Y15639D2*
X17655D1*
X19916D2*
X20968D1*
X26975D2*
X27663D1*
X16057Y15390D2*
X17905D1*
X19912D2*
X20968D1*
X26822D2*
X27663D1*
X15807Y15142D2*
X18151D1*
X19963D2*
X20968D1*
X26869D2*
X27663D1*
X15557Y14893D2*
X18401D1*
X19963D2*
X20968D1*
X26986D2*
X27663D1*
X15401Y14644D2*
X18401D1*
X19963D2*
X20968D1*
X24983D2*
X25866D1*
X26975D2*
X27663D1*
X15401Y14396D2*
X18444D1*
X19912D2*
X20968D1*
X24084D2*
X26015D1*
X26830D2*
X27663D1*
X15401Y14147D2*
X18686D1*
X19963D2*
X20968D1*
X26994D2*
X27663D1*
X15401Y13898D2*
X18733D1*
X19963D2*
X20792D1*
X26994D2*
X27663D1*
X15401Y13649D2*
X18733D1*
X19963D2*
X20761D1*
X26994D2*
X27663D1*
X15401Y13401D2*
X20761D1*
X22858D2*
X24108D1*
X24983D2*
X25847D1*
X26994D2*
X27663D1*
X15401Y13152D2*
X20905D1*
X22858D2*
X27663D1*
X15401Y12903D2*
X21007D1*
X22858D2*
X27663D1*
X15412Y12655D2*
X22104D1*
X22858D2*
X27663D1*
X15658Y12406D2*
X22222D1*
X22744D2*
X27663D1*
X15908Y12157D2*
X20503D1*
X21018D2*
X21593D1*
X22108D2*
X27663D1*
X16158Y11909D2*
X20335D1*
X21186D2*
X21425D1*
X22276D2*
X27663D1*
X16404Y11660D2*
X20315D1*
X22295D2*
X26186D1*
X26736D2*
X27663D1*
X16654Y11411D2*
X20315D1*
X22295D2*
X25944D1*
X26979D2*
X27663D1*
X16791Y11163D2*
X20315D1*
X22295D2*
X25886D1*
X27037D2*
X27663D1*
X16791Y10914D2*
X20315D1*
X22295D2*
X25706D1*
X26971D2*
X27663D1*
X16791Y10665D2*
X20378D1*
X21194D2*
X21456D1*
X22264D2*
X25460D1*
X26725D2*
X27663D1*
X16791Y10417D2*
X20694D1*
X20885D2*
X21765D1*
X21958D2*
X25210D1*
X26979D2*
X27663D1*
X16971Y10168D2*
X21354D1*
X22826D2*
X24960D1*
X27037D2*
X27663D1*
X17221Y9919D2*
X21159D1*
X22928D2*
X24179D1*
X26975D2*
X27663D1*
X22846Y9670D2*
X24058D1*
X26717D2*
X27663D1*
X21428Y9422D2*
X21866D1*
X22846D2*
X23851D1*
X26975D2*
X27663D1*
X20037Y9173D2*
X21866D1*
X22842D2*
X23831D1*
X27037D2*
X27663D1*
X20037Y8924D2*
X21093D1*
X26979D2*
X27663D1*
X11904Y8676D2*
X14589D1*
X20037D2*
X21093D1*
X27037D2*
X27663D1*
X11904Y8427D2*
X15558D1*
X20088D2*
X21093D1*
X27037D2*
X27663D1*
X11904Y8178D2*
X15808D1*
X20088D2*
X21093D1*
X27037D2*
X27663D1*
X11904Y7930D2*
X16054D1*
X20041D2*
X21093D1*
X25721D2*
X25886D1*
X27037D2*
X27663D1*
X11904Y7681D2*
X16304D1*
X20041D2*
X21093D1*
X25471D2*
X25741D1*
X27037D2*
X27663D1*
X11904Y7432D2*
X16554D1*
X20037D2*
X21093D1*
X25221D2*
X25495D1*
X26490D2*
X27663D1*
X11904Y7184D2*
X16800D1*
X20088D2*
X21093D1*
X25104D2*
X25245D1*
X26240D2*
X27663D1*
X11904Y6935D2*
X17050D1*
X20088D2*
X21093D1*
X24576D2*
X24995D1*
X25994D2*
X27663D1*
X11904Y6686D2*
X12319D1*
X13799D2*
X17300D1*
X20037D2*
X21093D1*
X24287D2*
X24749D1*
X27236D2*
X27663D1*
X13799Y6438D2*
X17546D1*
X20037D2*
X21093D1*
X27537D2*
X27664D1*
X13799Y6189D2*
X17796D1*
X20088D2*
X21038D1*
X11904Y5940D2*
X12319D1*
X13799D2*
X18858D1*
X20088D2*
X20870D1*
X11904Y5691D2*
X20866D1*
X23096D2*
X24972D1*
X11904Y5443D2*
X20921D1*
X23096D2*
X24948D1*
X11904Y5194D2*
X21144D1*
X23096D2*
X24972D1*
X11904Y4945D2*
X22147D1*
X23096D2*
X25038D1*
X11904Y4697D2*
X22343D1*
X22858D2*
X25151D1*
X11904Y4448D2*
X25339D1*
X21047Y23633D2*
X21485D1*
X21499Y23723D1*
X21554Y23835D1*
X21640Y23925D1*
X21749Y23985D1*
X21871Y24010D1*
X21995Y23996D1*
X22109Y23947D1*
X22203Y23865D1*
X22268Y23759D1*
X22300Y23600D1*
Y22688D1*
X22563Y22685D1*
X22593Y22720D1*
X22693Y22795D1*
X22810Y22837D1*
X22934Y22843D1*
X23055Y22811D1*
X23160Y22745D1*
X23214Y22683D1*
X23404Y22684D1*
X23343Y22743D1*
X23287Y22818D1*
X23249Y22928D1*
X23245Y23355D1*
Y24054D1*
X23093Y24076D1*
X22973Y24153D1*
X22783Y24343D1*
X22759Y24378D1*
X22588D1*
Y25202D1*
X22710D1*
X22783Y25307D1*
X23223Y25747D1*
X23330Y25818D1*
X23323Y25830D1*
X17874Y25817D1*
X17253Y25190D1*
X17255Y23285D1*
X17285D1*
X17281Y22355D1*
X17285Y22275D1*
Y21865D1*
X21230D1*
X21371Y21823D1*
X21587Y21614D1*
X21783Y21417D1*
X21817Y21415D1*
X21821Y21810D1*
X21817Y21913D1*
Y22245D1*
X21671Y22303D1*
X21577Y22385D1*
X21512Y22491D1*
X21485Y22601D1*
X21047Y22603D1*
X21031Y22527D1*
X20976Y22415D1*
X20890Y22325D1*
X20781Y22265D1*
X20659Y22240D1*
X20535Y22254D1*
X20421Y22303D1*
X20327Y22385D1*
X20262Y22491D1*
X20230Y22650D1*
Y23600D1*
X20249Y23723D1*
X20304Y23835D1*
X20390Y23925D1*
X20499Y23985D1*
X20621Y24010D1*
X20745Y23996D1*
X20859Y23947D1*
X20953Y23865D1*
X21018Y23759D1*
X21049Y23632D1*
X21172Y11853D2*
X21438D1*
X21459Y11943D1*
X21514Y12055D1*
X21600Y12145D1*
X21709Y12205D1*
X21831Y12230D1*
X21955Y12216D1*
X22069Y12167D1*
X22163Y12085D1*
X22228Y11979D1*
X22259Y11852D1*
X22270Y11853D1*
X22266Y10823D1*
X22251Y10697D1*
X22196Y10585D1*
X22110Y10495D1*
X22001Y10435D1*
X21879Y10410D1*
X21755Y10424D1*
X21641Y10473D1*
X21547Y10555D1*
X21482Y10661D1*
X21450Y10820D1*
X21270Y10823D1*
X21200Y10820D1*
X21181Y10697D1*
X21126Y10585D1*
X21040Y10495D1*
X20931Y10435D1*
X20809Y10410D1*
X20685Y10424D1*
X20571Y10473D1*
X20433Y10607D1*
X20383Y10721D1*
X20373Y10825D1*
X20340Y10823D1*
Y11853D1*
X20352D1*
X20369Y11943D1*
X20424Y12055D1*
X20510Y12145D1*
X20619Y12205D1*
X20741Y12230D1*
X20865Y12216D1*
X20979Y12167D1*
X21073Y12085D1*
X21138Y11979D1*
X21169Y11852D1*
X23069Y5778D2*
X23066Y5279D1*
X23069Y5176D1*
Y4767D1*
X22909D1*
X22813Y4682D1*
X22715Y4641D1*
X22540Y4635D1*
X22461Y4647D1*
X22357Y4705D1*
X22246Y4816D1*
X22191Y4892D1*
X22167Y4986D1*
X22090Y5002D1*
X21680Y5006D1*
X21578Y5002D1*
X21169D1*
Y5217D1*
X20972Y5410D1*
X20906Y5519D1*
X20892Y5605D1*
Y5905D1*
X20922Y6029D1*
X20905Y5991D1*
X20972Y6099D1*
X21105Y6231D1*
X21117Y6260D1*
X21121Y6310D1*
X21123Y6568D1*
X21119Y6655D1*
X21123Y7080D1*
X21119Y7166D1*
X21123Y7591D1*
X21119Y7678D1*
X21123Y8103D1*
X21119Y8190D1*
X21123Y8615D1*
X21119Y8702D1*
Y9127D1*
X22115D1*
X22050Y9142D1*
X21890D1*
Y9576D1*
X21557Y9572D1*
X21433Y9447D1*
X21303Y9378D1*
X21002Y9373D1*
X20014D1*
X20010Y8833D1*
X20014Y8746D1*
Y8664D1*
X20064Y8665D1*
Y8015D1*
X20013D1*
X20017Y7550D1*
X20014Y7382D1*
X20064Y7385D1*
Y6735D1*
X20013D1*
X20010Y6530D1*
X20014Y6443D1*
Y6361D1*
X20064Y6362D1*
Y5712D1*
X18884D1*
Y6044D1*
X18070Y6045D1*
X17929Y6087D1*
X17713Y6296D1*
X15401Y8608D1*
X15324Y8592D1*
X15200Y8602D1*
X15088Y8656D1*
X15070Y8676D1*
X14630Y8675D1*
X14489Y8717D1*
X14440Y8753D1*
X13764D1*
X13681Y8720D1*
X13380Y8715D1*
X11876D1*
X11878Y6671D1*
X12155Y6675D1*
X12345D1*
Y6915D1*
X13775D1*
Y5925D1*
X12345D1*
Y6163D1*
X11876Y6165D1*
X11878Y4315D1*
X25499D1*
X25371Y4439D1*
X25216Y4635D1*
X25097Y4854D1*
X25017Y5091D1*
X24979Y5338D1*
X24982Y5587D1*
X25008Y5745D1*
X24268Y5746D1*
Y5773D1*
X23070Y5775D1*
X24328Y10162D2*
X24978D1*
X25914Y11097D1*
X25912Y11193D1*
X25932Y11317D1*
X25979Y11432D1*
X26050Y11534D1*
X26143Y11618D1*
X26252Y11678D1*
X26372Y11712D1*
X26496Y11719D1*
X26619Y11697D1*
X26734Y11648D1*
X26835Y11574D1*
X26916Y11479D1*
X26974Y11369D1*
X27006Y11248D1*
X27011Y11170D1*
X26997Y11046D1*
X26955Y10929D1*
X26888Y10824D1*
X26799Y10736D1*
X26689Y10670D1*
X26835Y10574D1*
X26916Y10479D1*
X26974Y10369D1*
X27006Y10248D1*
X27011Y10170D1*
X26997Y10046D1*
X26955Y9929D1*
X26888Y9824D1*
X26799Y9736D1*
X26689Y9670D1*
X26835Y9574D1*
X26916Y9479D1*
X26974Y9369D1*
X27006Y9248D1*
X27011Y9170D1*
X26997Y9046D1*
X26955Y8929D1*
X26888Y8824D1*
X26769Y8718D1*
X27011Y8720D1*
Y7620D1*
X26648D1*
X26430Y7396D1*
X25781Y6747D1*
X25923Y6811D1*
X26163Y6879D1*
X26411Y6905D1*
X26661Y6888D1*
X26903Y6830D1*
X27133Y6731D1*
X27342Y6595D1*
X27525Y6425D1*
X27676Y6226D1*
X27690Y6203D1*
Y22350D1*
X27653Y22327D1*
X27550Y22305D1*
X27320D1*
X27323Y21780D1*
Y21268D1*
X27170D1*
X27050Y21165D1*
X26981Y21140D1*
X26680Y21135D1*
X26460D1*
X26319Y21177D1*
X26110Y21380D1*
X26065Y21390D1*
X26015Y21394D1*
X25757Y21396D1*
X25670Y21393D1*
X25245Y21396D1*
X25158Y21393D1*
X24733Y21396D1*
X24647Y21393D1*
X24222Y21396D1*
X24135Y21393D1*
X23710Y21396D1*
X23623Y21393D1*
X23198D1*
Y22154D1*
X23147Y22104D1*
X23039Y22042D1*
X22974Y22028D1*
X22973Y21538D1*
X22519D1*
X22523Y21026D1*
X22308D1*
X22260Y20980D1*
X22192Y20931D1*
X22131Y20910D1*
X21830Y20905D1*
X21680D1*
X21539Y20947D1*
X21323Y21156D1*
X21127Y21353D1*
X20105Y21355D1*
X19304D1*
X21108Y19552D1*
X22000Y19555D1*
X22121D1*
X22124Y19929D1*
X22908D1*
Y19831D1*
X22942Y19832D1*
Y20287D1*
X23492Y20284D1*
X23579Y20287D1*
X23661D1*
X23660Y20337D1*
X24310D1*
Y20287D1*
X24775Y20290D1*
X24942Y20287D1*
X24939Y20337D1*
X25589D1*
Y20287D1*
X25795Y20284D1*
X25882Y20287D1*
X25964D1*
X25963Y20337D1*
X26613D1*
Y19157D1*
X26226D1*
X25880Y18810D1*
X25751Y18740D1*
X25450Y18735D1*
X25227D1*
X24480Y17990D1*
X24351Y17920D1*
X24050Y17915D1*
X22741D1*
X22779Y17774D1*
X22756Y17640D1*
X22693Y17538D1*
Y17044D1*
X22932Y17035D1*
X24146D1*
X24143Y17427D1*
X24967D1*
Y17032D1*
X25933Y17035D1*
X26010Y17154D1*
X26103Y17238D1*
X26212Y17298D1*
X26332Y17332D1*
X26456Y17338D1*
X26579Y17316D1*
X26694Y17267D1*
X26795Y17194D1*
X26876Y17099D1*
X26934Y16989D1*
X26966Y16868D1*
X26971Y16790D1*
X26957Y16666D1*
X26915Y16548D1*
X26848Y16443D1*
X26759Y16356D1*
X26649Y16290D1*
X26795Y16194D1*
X26876Y16099D1*
X26934Y15989D1*
X26966Y15868D1*
X26971Y15790D1*
X26957Y15666D1*
X26915Y15548D1*
X26848Y15443D1*
X26759Y15356D1*
X26649Y15290D1*
X26795Y15194D1*
X26876Y15099D1*
X26934Y14989D1*
X26966Y14868D1*
X26971Y14790D1*
X26957Y14666D1*
X26915Y14548D1*
X26848Y14443D1*
X26729Y14338D1*
X26971Y14339D1*
Y13240D1*
X25872D1*
X25867Y13635D1*
X24956D1*
X24957Y13303D1*
X24133D1*
Y13635D1*
X22838D1*
X22834Y13114D1*
Y12602D1*
X22815D1*
X22799Y12528D1*
X22734Y12422D1*
X22635Y12347D1*
X22516Y12312D1*
X22392Y12322D1*
X22280Y12376D1*
X22195Y12467D1*
X22148Y12602D1*
X22129D1*
Y12887D1*
X21545Y12891D1*
X21443Y12887D1*
X21034D1*
Y13047D1*
X20866Y13216D1*
X20800Y13325D1*
X20785Y13410D1*
Y13770D1*
X20815Y13894D1*
X20866Y13964D1*
X20990Y14089D1*
X20996Y14195D1*
X20998Y14453D1*
X20994Y14540D1*
X20998Y14965D1*
X20994Y15051D1*
X20998Y15476D1*
X20994Y15563D1*
X20998Y15988D1*
X20994Y16075D1*
X20998Y16500D1*
X20994Y16587D1*
Y17012D1*
X22042D1*
X22050Y17027D1*
X21765D1*
Y17451D1*
X21254Y17447D1*
Y17599D1*
X21095Y17754D1*
X19938Y17755D1*
X19942Y17247D1*
X19891D1*
X19889Y16718D1*
Y16549D1*
X19939Y16550D1*
Y15900D1*
X19888D1*
X19892Y15435D1*
X19889Y15267D1*
X19939Y15270D1*
Y14620D1*
X19888D1*
X19885Y14415D1*
X19889Y14328D1*
Y14246D1*
X19939Y14247D1*
Y13597D1*
X18759D1*
Y14101D1*
X18500Y14360D1*
X18430Y14489D1*
X18425Y14790D1*
Y14895D1*
X16856Y16463D1*
X16446Y16032D1*
X16445Y15910D1*
X16403Y15769D1*
X16194Y15553D1*
X15373Y14733D1*
X15375Y12664D1*
X16690Y11350D1*
X16760Y11221D1*
X16765Y10920D1*
Y10354D1*
X17234Y9881D1*
X21147Y9883D1*
X21373Y10107D1*
X21379Y10278D1*
X22163Y10274D1*
X22265Y10278D1*
X22675D1*
Y10242D1*
X22707Y10233D1*
X22809Y10161D1*
X22877Y10057D1*
X22904Y9925D1*
X22881Y9803D1*
X22818Y9700D1*
X22817Y9185D1*
X22838Y9161D1*
X23265Y9165D1*
X23855D1*
Y9305D1*
X23878Y9427D1*
X23953Y9542D1*
X24203Y9798D1*
Y10162D1*
X24328D1*
X25079Y7314D2*
Y7048D1*
X24708D1*
X24674Y7013D1*
X24572Y6943D1*
X24437Y6915D1*
X24262D1*
X24263Y6445D1*
X24268Y6609D1*
X24694D1*
X25912Y7826D1*
Y8148D1*
X25077Y7312D1*
X24288Y16017D2*
X24987D1*
Y15849D1*
X25550Y15845D1*
X25874D1*
X25892Y15936D1*
X25939Y16052D1*
X26010Y16154D1*
X26103Y16238D1*
X26195Y16288D1*
X26076Y16364D1*
X24055Y16365D1*
X24058Y15842D1*
X24163Y15903D1*
Y16017D1*
X24288D1*
X24957Y14813D2*
Y14633D1*
X24133D1*
Y14817D1*
X24058Y14811D1*
Y14307D1*
X24850Y14305D1*
X25870D1*
X25872Y14339D1*
X26110D1*
X26066Y14371D1*
X25981Y14462D1*
X25918Y14569D1*
X25881Y14689D1*
X25873Y14817D1*
X24956Y14815D1*
X26498Y22995D2*
Y23173D1*
X27282Y23169D1*
X27385Y23173D1*
X27693D1*
X27690Y23690D1*
Y23825D1*
X26771Y24676D1*
X26772Y24398D1*
X26627D1*
X26557Y24293D1*
X26495Y24233D1*
X26494Y23046D1*
X9084Y37754D2*
X9593D1*
X8834Y37505D2*
X9593D1*
X11252D2*
X13311D1*
X5174Y37256D2*
X7780D1*
X8635D2*
X9593D1*
X11252D2*
X13311D1*
X5174Y37008D2*
X7780D1*
X8635D2*
X9593D1*
X11252D2*
X13311D1*
X5174Y36759D2*
X7780D1*
X8635D2*
X9593D1*
X10447D2*
X13311D1*
X5174Y36510D2*
X9679D1*
X10361D2*
X13311D1*
X5174Y36262D2*
X13311D1*
X5174Y36013D2*
X13226D1*
X5174Y35764D2*
X13167D1*
X5174Y35516D2*
X12921D1*
X5174Y35267D2*
X12671D1*
X6592Y35018D2*
X12421D1*
X6651Y34770D2*
X12175D1*
X6647Y34521D2*
X11925D1*
X6604Y34272D2*
X11679D1*
X5174Y34023D2*
X11429D1*
X5174Y33775D2*
X10526D1*
X5174Y33526D2*
X8354D1*
X9092D2*
X9956D1*
X9981Y33380D2*
Y33657D1*
X10493D1*
X10562Y33791D1*
X10648Y33882D1*
X10754Y33946D1*
X10874Y33980D1*
X10999Y33981D1*
X11119Y33949D1*
X11227Y33886D1*
X11273Y33839D1*
X12064Y34634D1*
X13287Y35858D1*
X13257Y35942D1*
X13255Y36067D1*
X13297Y36183D1*
X13336Y36227D1*
X13335Y37670D1*
X11880Y37668D1*
X11227Y37670D1*
Y36865D1*
X10424D1*
X10422Y36612D1*
X10356D1*
X10337Y36508D1*
X10272Y36402D1*
X10173Y36327D1*
X10054Y36292D1*
X9930Y36302D1*
X9818Y36356D1*
X9733Y36447D1*
X9687Y36562D1*
X9686Y36605D1*
X9618Y36612D1*
Y37858D1*
X9161Y37856D1*
X8727Y37423D1*
X8642Y37387D1*
X8614D1*
X8611Y36612D1*
X7807D1*
Y37389D1*
X7267Y37384D1*
X5153Y37380D1*
X5150Y36691D1*
Y35172D1*
X5842Y35173D1*
X6354D1*
Y35153D1*
X6433Y35128D1*
X6534Y35056D1*
X6603Y34953D1*
X6630Y34820D1*
X6607Y34698D1*
X6585Y34661D1*
X6630Y34450D1*
X6607Y34328D1*
X6542Y34222D1*
X6443Y34147D1*
X6402Y34135D1*
X6362Y34097D1*
X5578Y34101D1*
X5475Y34097D1*
X5151D1*
X5150Y33383D1*
X8272Y33381D1*
X8353Y33410D1*
X8381Y33439D1*
Y33657D1*
X9067D1*
Y33411D1*
X9250Y33415D1*
X9373Y33382D1*
X9278Y33413D1*
X9381Y33381D1*
X9983D1*
X4330Y33378D2*
Y37378D1*
X4252Y37377D1*
X4253Y33381D1*
X4327D1*
X4215Y40441D2*
X8796D1*
X4215Y40193D2*
X9054D1*
X4215Y39944D2*
X9229D1*
X4215Y39695D2*
X8772D1*
X4215Y39447D2*
X8651D1*
X8558Y39286D2*
Y39442D1*
X8672D1*
X8714Y39586D1*
X8800Y39680D1*
X8799Y39859D1*
X9256D1*
X9253Y40014D1*
X9055Y40216D1*
X9027Y40228D1*
X8822D1*
Y40625D1*
X8671Y40626D1*
X8561Y40650D1*
X8378Y40690D1*
X6202Y40689D1*
X5978Y40577D1*
X5739Y40506D1*
X5491Y40476D1*
X5242Y40488D1*
X4998Y40543D1*
X4767Y40639D1*
X4676Y40691D1*
X4190Y40690D1*
Y39252D1*
X8405D1*
X8479Y39280D1*
X8557Y39285D1*
D32*
X11745Y39128D3*
X10997D3*
D33*
X8990Y39030D3*
X9659D3*
D34*
X10815Y36628D3*
Y37297D3*
D35*
X11690Y41207D3*
X12202D3*
X11690Y40370D3*
X12202D3*
X9191Y39944D3*
X9703D3*
X11130Y38440D3*
X11642D3*
D36*
X8840Y31208D3*
Y31719D3*
X7750Y31718D3*
Y31206D3*
X9880Y31708D3*
Y31196D3*
D37*
X17060Y36855D3*
X14528Y36845D3*
X21305Y23118D3*
X18773Y23107D3*
X21305Y11338D3*
X18773Y11327D3*
G36*
X8932Y16927D2*
X8737Y17122D1*
X8988Y17373D1*
X9183Y17178D1*
X8932Y16927D1*
G37*
G36*
X8570Y16565D2*
X8375Y16760D1*
X8626Y17011D1*
X8821Y16816D1*
X8570Y16565D1*
G37*
G36*
X9252Y16637D2*
X9057Y16832D1*
X9308Y17083D1*
X9503Y16888D1*
X9252Y16637D1*
G37*
G36*
X8890Y16275D2*
X8695Y16470D1*
X8946Y16721D1*
X9141Y16526D1*
X8890Y16275D1*
G37*
G36*
X9626Y16198D2*
X9348Y16476D1*
X9654Y16782D1*
X9932Y16504D1*
X9626Y16198D1*
G37*
G36*
X9153Y15724D2*
X8874Y16003D1*
X9181Y16309D1*
X9459Y16031D1*
X9153Y15724D1*
G37*
G36*
X10056Y15748D2*
X9778Y16026D1*
X10084Y16332D1*
X10362Y16054D1*
X10056Y15748D1*
G37*
G36*
X9583Y15274D2*
X9304Y15553D1*
X9611Y15859D1*
X9889Y15581D1*
X9583Y15274D1*
G37*
G36*
X10412Y15487D2*
X10217Y15682D1*
X10468Y15933D1*
X10663Y15738D1*
X10412Y15487D1*
G37*
G36*
X10050Y15125D2*
X9855Y15320D1*
X10106Y15571D1*
X10301Y15376D1*
X10050Y15125D1*
G37*
G36*
X10722Y15167D2*
X10527Y15362D1*
X10778Y15613D1*
X10973Y15418D1*
X10722Y15167D1*
G37*
G36*
X10360Y14805D2*
X10165Y15000D1*
X10416Y15251D1*
X10611Y15056D1*
X10360Y14805D1*
G37*
G36*
X13717Y14518D2*
X13912Y14713D1*
X14163Y14462D1*
X13968Y14267D1*
X13717Y14518D1*
G37*
G36*
X13355Y14880D2*
X13550Y15075D1*
X13801Y14824D1*
X13606Y14629D1*
X13355Y14880D1*
G37*
G36*
X14027Y14818D2*
X14222Y15013D1*
X14473Y14762D1*
X14278Y14567D1*
X14027Y14818D1*
G37*
G36*
X13665Y15180D2*
X13860Y15375D1*
X14111Y15124D1*
X13916Y14929D1*
X13665Y15180D1*
G37*
G36*
X16593Y17622D2*
X16398Y17427D1*
X16147Y17678D1*
X16342Y17873D1*
X16593Y17622D1*
G37*
G36*
X16955Y17260D2*
X16760Y17065D1*
X16509Y17316D1*
X16704Y17511D1*
X16955Y17260D1*
G37*
G36*
X16457Y17988D2*
X16652Y18183D1*
X16903Y17932D1*
X16708Y17737D1*
X16457Y17988D1*
G37*
G36*
X16819Y17626D2*
X17014Y17821D1*
X17265Y17570D1*
X17070Y17375D1*
X16819Y17626D1*
G37*
G36*
X15142Y21987D2*
X14947Y22182D1*
X15198Y22433D1*
X15393Y22238D1*
X15142Y21987D1*
G37*
G36*
X15504Y22349D2*
X15309Y22544D1*
X15560Y22795D1*
X15755Y22600D1*
X15504Y22349D1*
G37*
G36*
X14822Y22297D2*
X14627Y22492D1*
X14878Y22743D1*
X15073Y22548D1*
X14822Y22297D1*
G37*
G36*
X15184Y22659D2*
X14989Y22854D1*
X15240Y23105D1*
X15435Y22910D1*
X15184Y22659D1*
G37*
G36*
X10363Y22612D2*
X10168Y22417D1*
X9917Y22668D1*
X10112Y22863D1*
X10363Y22612D1*
G37*
G36*
X10001Y22974D2*
X9806Y22779D1*
X9555Y23030D1*
X9750Y23225D1*
X10001Y22974D1*
G37*
G36*
X9567Y22338D2*
X9762Y22533D1*
X10013Y22282D1*
X9818Y22087D1*
X9567Y22338D1*
G37*
G36*
X9205Y22700D2*
X9400Y22895D1*
X9651Y22644D1*
X9456Y22449D1*
X9205Y22700D1*
G37*
G36*
X8197Y20848D2*
X8392Y21043D1*
X8643Y20792D1*
X8448Y20597D1*
X8197Y20848D1*
G37*
G36*
X7835Y21210D2*
X8030Y21405D1*
X8281Y21154D1*
X8086Y20959D1*
X7835Y21210D1*
G37*
D35*
X5375Y7340D3*
X5887D3*
X5450Y34820D3*
X5962D3*
X27287Y35185D3*
X26776D3*
G36*
X7097Y20236D2*
X6703D1*
Y20669D1*
X7097D1*
Y20236D1*
G37*
G36*
Y20905D2*
X6703D1*
Y21339D1*
X7097D1*
Y20905D1*
G37*
G36*
X7677Y19896D2*
X7283D1*
Y20329D1*
X7677D1*
Y19896D1*
G37*
G36*
Y20565D2*
X7283D1*
Y20999D1*
X7677D1*
Y20565D1*
G37*
D35*
X18613Y9155D3*
X18101D3*
D36*
X22717Y5671D3*
Y5159D3*
D35*
X22283Y9495D3*
X21771D3*
X21561Y5355D3*
X22073D3*
D34*
X24615Y9730D3*
Y10399D3*
X24645Y8310D3*
Y8979D3*
X24667Y7480D3*
Y6811D3*
X24680Y6177D3*
Y5508D3*
D35*
X19550Y17600D3*
X20062D3*
D36*
X22482Y12994D3*
Y13506D3*
D35*
X22158Y17380D3*
X21646D3*
X21426Y13240D3*
X21938D3*
D34*
X24555Y16995D3*
Y17664D3*
X24575Y15585D3*
Y16254D3*
X24545Y15065D3*
Y14396D3*
Y13735D3*
Y13066D3*
D35*
X22516Y19576D3*
X22004D3*
X26890Y22820D3*
X27402D3*
D36*
X22620Y21930D3*
Y21418D3*
X26970Y21660D3*
Y22172D3*
D33*
X23020Y24790D3*
X22351D3*
X24309Y24800D3*
X23640D3*
X25639D3*
X24970D3*
X26340Y24810D3*
X27009D3*
D36*
X22520Y33910D3*
Y33398D3*
D35*
X17970Y30870D3*
X18482D3*
D36*
X22520Y32160D3*
Y32672D3*
X18190Y31918D3*
Y31407D3*
D33*
X18825Y29190D3*
X18155D3*
X20095D3*
X19425D3*
X20855D3*
X21525D3*
X22845D3*
X22175D3*
D36*
X24490Y35070D3*
Y34558D3*
X18680Y38030D3*
Y38542D3*
X9790Y27184D3*
Y27696D3*
X8560Y29653D3*
Y30164D3*
X11310Y24660D3*
Y25172D3*
X15555Y24619D3*
Y24108D3*
D35*
X7190Y28200D3*
X7702D3*
D39*
X11325Y42775D3*
Y42027D3*
X12231Y42401D3*
D40*
X10440Y30190D3*
Y29430D3*
X16770Y22060D3*
Y22820D3*
D41*
X8170Y41326D3*
Y39726D3*
G36*
X6891Y16118D2*
Y16354D1*
X7324D1*
Y16118D1*
X6891D1*
G37*
G36*
Y16492D2*
Y16728D1*
X7324D1*
Y16492D1*
X6891D1*
G37*
G36*
Y16866D2*
Y17102D1*
X7324D1*
Y16866D1*
X6891D1*
G37*
G36*
X5828D2*
Y17102D1*
X6261D1*
Y16866D1*
X5828D1*
G37*
G36*
Y16492D2*
Y16728D1*
X6261D1*
Y16492D1*
X5828D1*
G37*
G36*
Y16118D2*
Y16354D1*
X6261D1*
Y16118D1*
X5828D1*
G37*
D36*
X7220Y29653D3*
Y30164D3*
X11150Y27180D3*
Y27692D3*
D42*
X24855Y29570D3*
X26455D3*
X21185Y37420D3*
X22785D3*
D43*
X14877Y30770D3*
Y29470D3*
X17180Y30770D3*
Y29471D3*
D44*
X15100Y24581D3*
Y24030D3*
X16055Y24056D3*
Y24608D3*
D45*
X7190Y28628D3*
X7741D3*
X7716Y27860D3*
X7164D3*
D46*
X7440Y4940D3*
X24640Y42740D3*
X7090D3*
D47*
X17877Y39815D3*
D48*
X16227D3*
X14577D3*
X17877Y41975D3*
X16227D3*
X14577D3*
X25690Y37040D3*
Y39010D3*
D49*
X6815Y13460D3*
Y12476D3*
X6028Y13460D3*
Y12476D3*
D50*
X4961Y15338D3*
Y10598D3*
D51*
X14130Y26420D3*
D52*
X15130D3*
X16130D3*
X17130D3*
X18130D3*
X19130D3*
X20130D3*
X21130D3*
X22130D3*
X23130D3*
X24130D3*
X25130D3*
X26130D3*
X14130Y27420D3*
X15130D3*
X16130D3*
X17130D3*
X18130D3*
X19130D3*
X20130D3*
X21130D3*
X22130D3*
X23130D3*
X24130D3*
X25130D3*
X26130D3*
D51*
X15110Y10450D3*
D52*
X14110D3*
X13110D3*
X12110D3*
X11110D3*
X15110Y9450D3*
X14110D3*
X13110D3*
X12110D3*
X11110D3*
D53*
X26422Y13790D3*
D54*
Y14790D3*
Y15790D3*
Y16790D3*
D53*
X26462Y8170D3*
D54*
Y9170D3*
Y10170D3*
Y11170D3*
D53*
X5540Y30692D3*
D54*
Y31692D3*
Y32692D3*
D53*
X5480Y27910D3*
D54*
Y28910D3*
G36*
X6699Y23703D2*
Y24017D1*
X7801D1*
Y23703D1*
X6699D1*
G37*
G36*
Y24203D2*
Y24517D1*
X7801D1*
Y24203D1*
X6699D1*
G37*
G36*
Y24703D2*
Y25017D1*
X7801D1*
Y24703D1*
X6699D1*
G37*
G36*
Y25203D2*
Y25517D1*
X7801D1*
Y25203D1*
X6699D1*
G37*
G36*
Y25703D2*
Y26017D1*
X7801D1*
Y25703D1*
X6699D1*
G37*
G36*
X5156Y23703D2*
Y24017D1*
X6258D1*
Y23703D1*
X5156D1*
G37*
G36*
Y24203D2*
Y24517D1*
X6258D1*
Y24203D1*
X5156D1*
G37*
G36*
Y24703D2*
Y25017D1*
X6258D1*
Y24703D1*
X5156D1*
G37*
G36*
Y25203D2*
Y25517D1*
X6258D1*
Y25203D1*
X5156D1*
G37*
G36*
Y25703D2*
Y26017D1*
X6258D1*
Y25703D1*
X5156D1*
G37*
D54*
X12950Y42640D3*
G36*
X4649Y40130D2*
X7012D1*
Y39500D1*
X6657Y39166D1*
X5004D1*
X4649Y39500D1*
Y40130D1*
G37*
G36*
X7031Y37709D2*
X4669D1*
Y38339D1*
X5023Y38673D1*
X6677D1*
X7031Y38339D1*
Y37709D1*
G37*
G36*
X12863Y14421D2*
X13239Y14797D1*
X13517Y14519D1*
X13141Y14143D1*
X12863Y14421D1*
G37*
G36*
X13280Y14004D2*
X13656Y14380D1*
X13935Y14101D1*
X13559Y13725D1*
X13280Y14004D1*
G37*
D55*
X5440Y41940D3*
Y5440D3*
X26440D3*
Y41940D3*
D56*
X24160Y32240D3*
X24158Y31740D3*
Y31240D3*
Y30740D3*
D57*
X25695Y31490D3*
D56*
X20567Y39819D3*
X20565Y39319D3*
Y38819D3*
Y38319D3*
D57*
X22102Y39069D3*
D58*
X14168Y30140D3*
X13419D3*
X13793Y29234D3*
X16474Y30143D3*
X15726D3*
X16100Y29237D3*
X10700Y26310D3*
X9952D3*
X10326Y25404D3*
X9950Y32330D3*
X10698D3*
X10324Y33236D3*
X8350Y32330D3*
X9098D3*
X8724Y33236D3*
D59*
X9256Y42320D3*
X8154D3*
D36*
X9790Y29470D3*
Y29982D3*
X16170Y22760D3*
Y22248D3*
D35*
X9191Y39506D3*
X9703D3*
X10470Y39890D3*
X10982D3*
D36*
X9350Y31198D3*
Y31709D3*
X8210Y31198D3*
Y31709D3*
X10420Y31718D3*
Y31206D3*
G36*
X8482Y17736D2*
X8204Y17458D1*
X7898Y17764D1*
X8176Y18042D1*
X8482Y17736D1*
G37*
G36*
X8009Y18209D2*
X7731Y17931D1*
X7424Y18237D1*
X7703Y18516D1*
X8009Y18209D1*
G37*
G36*
X8202Y16976D2*
X7924Y16698D1*
X7618Y17004D1*
X7896Y17282D1*
X8202Y16976D1*
G37*
G36*
X7729Y17449D2*
X7451Y17171D1*
X7144Y17477D1*
X7423Y17756D1*
X7729Y17449D1*
G37*
G36*
X8642Y14857D2*
X8447Y15052D1*
X8698Y15303D1*
X8893Y15108D1*
X8642Y14857D1*
G37*
G36*
X9004Y15219D2*
X8809Y15414D1*
X9060Y15665D1*
X9255Y15470D1*
X9004Y15219D1*
G37*
G36*
X14327Y15878D2*
X14522Y16073D1*
X14773Y15822D1*
X14578Y15627D1*
X14327Y15878D1*
G37*
G36*
X14689Y15516D2*
X14884Y15711D1*
X15135Y15460D1*
X14940Y15265D1*
X14689Y15516D1*
G37*
D36*
X12180Y12320D3*
Y12832D3*
G36*
X15307Y16248D2*
X15502Y16443D1*
X15753Y16192D1*
X15558Y15997D1*
X15307Y16248D1*
G37*
G36*
X14945Y16610D2*
X15140Y16805D1*
X15391Y16554D1*
X15196Y16359D1*
X14945Y16610D1*
G37*
G36*
X15587Y16518D2*
X15782Y16713D1*
X16033Y16462D1*
X15838Y16267D1*
X15587Y16518D1*
G37*
G36*
X15225Y16880D2*
X15420Y17075D1*
X15671Y16824D1*
X15476Y16629D1*
X15225Y16880D1*
G37*
D35*
X5885Y7830D3*
X5373D3*
X5970Y34450D3*
X5458D3*
X26767Y35625D3*
X27279D3*
X22283Y9925D3*
X21771D3*
X18613Y8465D3*
X18101D3*
Y8035D3*
X18613D3*
D60*
X23437Y9346D3*
Y8244D3*
X23517Y5544D3*
Y6646D3*
D35*
X22158Y17800D3*
X21646D3*
G36*
X17777Y18538D2*
X17972Y18733D1*
X18223Y18482D1*
X18028Y18287D1*
X17777Y18538D1*
G37*
G36*
X17415Y18900D2*
X17610Y19095D1*
X17861Y18844D1*
X17666Y18649D1*
X17415Y18900D1*
G37*
G36*
X17087Y18598D2*
X17282Y18793D1*
X17533Y18542D1*
X17338Y18347D1*
X17087Y18598D1*
G37*
G36*
X17449Y18236D2*
X17644Y18431D1*
X17895Y18180D1*
X17700Y17985D1*
X17449Y18236D1*
G37*
D60*
X23312Y17231D3*
Y16129D3*
Y13429D3*
Y14531D3*
D36*
X22170Y21930D3*
Y21418D3*
G36*
X19327Y20068D2*
X19522Y20263D1*
X19773Y20012D1*
X19578Y19817D1*
X19327Y20068D1*
G37*
G36*
X18965Y20430D2*
X19160Y20625D1*
X19411Y20374D1*
X19216Y20179D1*
X18965Y20430D1*
G37*
G36*
X18657Y20108D2*
X18852Y20303D1*
X19103Y20052D1*
X18908Y19857D1*
X18657Y20108D1*
G37*
G36*
X19019Y19746D2*
X19214Y19941D1*
X19465Y19690D1*
X19270Y19495D1*
X19019Y19746D1*
G37*
D59*
X23017Y23630D3*
X24119D3*
X26691D3*
X25589D3*
D36*
X22990Y32160D3*
Y32672D3*
D35*
X21180Y34670D3*
X21692D3*
X21690Y35100D3*
X21178D3*
D59*
X22181Y30085D3*
X21079D3*
X18379D3*
X19481D3*
D36*
X10690Y27696D3*
Y27184D3*
X10240D3*
Y27696D3*
X7660Y30164D3*
Y29653D3*
X8110D3*
Y30164D3*
X10800Y24650D3*
Y25162D3*
X16555Y24096D3*
Y24608D3*
X14630Y24602D3*
Y24090D3*
D35*
X7696Y27480D3*
X7184D3*
Y29020D3*
X7696D3*
X12190Y40790D3*
X11678D3*
D36*
X23915Y32920D3*
Y33432D3*
X23445Y32910D3*
Y33422D3*
X19180Y38550D3*
Y38038D3*
X19663Y38550D3*
Y38038D3*
X13708Y30684D3*
Y31196D3*
X14178Y30684D3*
Y31196D3*
X16110Y30684D3*
Y31196D3*
X16570Y30684D3*
Y31196D3*
D35*
X23270Y35790D3*
X22758D3*
D36*
X18430Y36840D3*
Y36328D3*
X13248Y30684D3*
Y31196D3*
X15650Y30684D3*
Y31196D3*
D34*
X11145Y12875D3*
Y12205D3*
X12960Y12870D3*
Y12201D3*
D36*
X8650Y13270D3*
Y12758D3*
X8160Y13270D3*
Y12758D3*
D61*
X9770Y6420D3*
Y4735D3*
X13060Y6420D3*
Y4735D3*
D62*
X12240Y41980D3*
X12380Y38560D3*
X13380D3*
X22200Y34730D3*
X12770Y15010D3*
X22890Y22430D3*
X22860Y31660D3*
D22*
X9140Y30270D3*
X10940Y33520D3*
G36*
X11659Y23531D2*
X11742Y23615D1*
X12188Y23169D1*
X12104Y23086D1*
X11659Y23531D1*
G37*
G36*
X11519Y23392D2*
X11603Y23476D1*
X12048Y23030D1*
X11965Y22947D1*
X11519Y23392D1*
G37*
G36*
X11380Y23253D2*
X11464Y23336D1*
X11909Y22891D1*
X11826Y22807D1*
X11380Y23253D1*
G37*
G36*
X11241Y23114D2*
X11325Y23197D1*
X11770Y22752D1*
X11686Y22668D1*
X11241Y23114D1*
G37*
G36*
X11102Y22974D2*
X11185Y23058D1*
X11631Y22613D1*
X11547Y22529D1*
X11102Y22974D1*
G37*
G36*
X10963Y22835D2*
X11046Y22919D1*
X11492Y22473D1*
X11408Y22390D1*
X10963Y22835D1*
G37*
G36*
X10823Y22696D2*
X10907Y22780D1*
X11352Y22334D1*
X11269Y22251D1*
X10823Y22696D1*
G37*
G36*
X10684Y22557D2*
X10768Y22640D1*
X11213Y22195D1*
X11130Y22111D1*
X10684Y22557D1*
G37*
G36*
X10545Y22418D2*
X10629Y22501D1*
X11074Y22056D1*
X10990Y21972D1*
X10545Y22418D1*
G37*
G36*
X10406Y22278D2*
X10489Y22362D1*
X10935Y21917D1*
X10851Y21833D1*
X10406Y22278D1*
G37*
G36*
X10267Y22139D2*
X10350Y22223D1*
X10796Y21777D1*
X10712Y21694D1*
X10267Y22139D1*
G37*
G36*
X10127Y22000D2*
X10211Y22084D1*
X10656Y21638D1*
X10573Y21555D1*
X10127Y22000D1*
G37*
G36*
X9988Y21861D2*
X10072Y21944D1*
X10517Y21499D1*
X10434Y21415D1*
X9988Y21861D1*
G37*
G36*
X9849Y21722D2*
X9933Y21805D1*
X10378Y21360D1*
X10295Y21276D1*
X9849Y21722D1*
G37*
G36*
X9710Y21582D2*
X9793Y21666D1*
X10239Y21221D1*
X10155Y21137D1*
X9710Y21582D1*
G37*
G36*
X9571Y21443D2*
X9654Y21527D1*
X10100Y21081D1*
X10016Y20998D1*
X9571Y21443D1*
G37*
G36*
X9431Y21304D2*
X9515Y21388D1*
X9960Y20942D1*
X9877Y20859D1*
X9431Y21304D1*
G37*
G36*
X9292Y21165D2*
X9376Y21248D1*
X9821Y20803D1*
X9738Y20719D1*
X9292Y21165D1*
G37*
G36*
X9153Y21026D2*
X9237Y21109D1*
X9682Y20664D1*
X9599Y20580D1*
X9153Y21026D1*
G37*
G36*
X9014Y20887D2*
X9097Y20970D1*
X9543Y20525D1*
X9459Y20441D1*
X9014Y20887D1*
G37*
G36*
X8875Y20747D2*
X8958Y20831D1*
X9404Y20385D1*
X9320Y20302D1*
X8875Y20747D1*
G37*
G36*
X8736Y20608D2*
X8819Y20692D1*
X9264Y20246D1*
X9181Y20163D1*
X8736Y20608D1*
G37*
G36*
X8596Y20469D2*
X8680Y20552D1*
X9125Y20107D1*
X9042Y20024D1*
X8596Y20469D1*
G37*
G36*
X8457Y20330D2*
X8541Y20413D1*
X8986Y19968D1*
X8903Y19884D1*
X8457Y20330D1*
G37*
G36*
X8318Y20191D2*
X8401Y20274D1*
X8847Y19829D1*
X8763Y19745D1*
X8318Y20191D1*
G37*
G36*
X8401Y18632D2*
X8318Y18715D1*
X8763Y19161D1*
X8847Y19077D1*
X8401Y18632D1*
G37*
G36*
X8541Y18492D2*
X8457Y18576D1*
X8903Y19021D1*
X8986Y18938D1*
X8541Y18492D1*
G37*
G36*
X8680Y18353D2*
X8596Y18437D1*
X9042Y18882D1*
X9125Y18799D1*
X8680Y18353D1*
G37*
G36*
X8819Y18214D2*
X8736Y18297D1*
X9181Y18743D1*
X9264Y18659D1*
X8819Y18214D1*
G37*
G36*
X8958Y18075D2*
X8875Y18158D1*
X9320Y18604D1*
X9404Y18520D1*
X8958Y18075D1*
G37*
G36*
X9097Y17936D2*
X9014Y18019D1*
X9459Y18465D1*
X9543Y18381D1*
X9097Y17936D1*
G37*
G36*
X9237Y17796D2*
X9153Y17880D1*
X9599Y18325D1*
X9682Y18242D1*
X9237Y17796D1*
G37*
G36*
X9376Y17657D2*
X9292Y17741D1*
X9738Y18186D1*
X9821Y18103D1*
X9376Y17657D1*
G37*
G36*
X9515Y17518D2*
X9431Y17602D1*
X9877Y18047D1*
X9960Y17963D1*
X9515Y17518D1*
G37*
G36*
X9654Y17379D2*
X9571Y17462D1*
X10016Y17908D1*
X10100Y17824D1*
X9654Y17379D1*
G37*
G36*
X9793Y17240D2*
X9710Y17323D1*
X10155Y17769D1*
X10239Y17685D1*
X9793Y17240D1*
G37*
G36*
X9933Y17100D2*
X9849Y17184D1*
X10295Y17629D1*
X10378Y17546D1*
X9933Y17100D1*
G37*
G36*
X10072Y16961D2*
X9988Y17045D1*
X10434Y17490D1*
X10517Y17407D1*
X10072Y16961D1*
G37*
G36*
X10211Y16822D2*
X10127Y16906D1*
X10573Y17351D1*
X10656Y17267D1*
X10211Y16822D1*
G37*
G36*
X10350Y16683D2*
X10267Y16766D1*
X10712Y17212D1*
X10796Y17128D1*
X10350Y16683D1*
G37*
G36*
X10489Y16544D2*
X10406Y16627D1*
X10851Y17073D1*
X10935Y16989D1*
X10489Y16544D1*
G37*
G36*
X10629Y16404D2*
X10545Y16488D1*
X10990Y16933D1*
X11074Y16850D1*
X10629Y16404D1*
G37*
G36*
X10768Y16265D2*
X10684Y16349D1*
X11130Y16794D1*
X11213Y16711D1*
X10768Y16265D1*
G37*
G36*
X10907Y16126D2*
X10823Y16210D1*
X11269Y16655D1*
X11352Y16571D1*
X10907Y16126D1*
G37*
G36*
X11046Y15987D2*
X10963Y16070D1*
X11408Y16516D1*
X11492Y16432D1*
X11046Y15987D1*
G37*
G36*
X11185Y15848D2*
X11102Y15931D1*
X11547Y16377D1*
X11631Y16293D1*
X11185Y15848D1*
G37*
G36*
X11325Y15708D2*
X11241Y15792D1*
X11686Y16237D1*
X11770Y16154D1*
X11325Y15708D1*
G37*
G36*
X11464Y15569D2*
X11380Y15653D1*
X11826Y16098D1*
X11909Y16015D1*
X11464Y15569D1*
G37*
G36*
X11603Y15430D2*
X11519Y15514D1*
X11965Y15959D1*
X12048Y15876D1*
X11603Y15430D1*
G37*
G36*
X11742Y15291D2*
X11659Y15374D1*
X12104Y15820D1*
X12188Y15736D1*
X11742Y15291D1*
G37*
G36*
X12772Y15736D2*
X12856Y15820D1*
X13301Y15374D1*
X13218Y15291D1*
X12772Y15736D1*
G37*
G36*
X12911Y15876D2*
X12995Y15959D1*
X13440Y15514D1*
X13357Y15430D1*
X12911Y15876D1*
G37*
G36*
X13051Y16015D2*
X13134Y16098D1*
X13580Y15653D1*
X13496Y15569D1*
X13051Y16015D1*
G37*
G36*
X13190Y16154D2*
X13273Y16237D1*
X13719Y15792D1*
X13635Y15708D1*
X13190Y16154D1*
G37*
G36*
X13329Y16293D2*
X13412Y16377D1*
X13858Y15931D1*
X13774Y15848D1*
X13329Y16293D1*
G37*
G36*
X13468Y16432D2*
X13552Y16516D1*
X13997Y16070D1*
X13914Y15987D1*
X13468Y16432D1*
G37*
G36*
X13607Y16571D2*
X13691Y16655D1*
X14136Y16210D1*
X14053Y16126D1*
X13607Y16571D1*
G37*
G36*
X13747Y16711D2*
X13830Y16794D1*
X14275Y16349D1*
X14192Y16265D1*
X13747Y16711D1*
G37*
G36*
X13886Y16850D2*
X13969Y16933D1*
X14415Y16488D1*
X14331Y16404D1*
X13886Y16850D1*
G37*
G36*
X14025Y16989D2*
X14108Y17073D1*
X14554Y16627D1*
X14470Y16544D1*
X14025Y16989D1*
G37*
G36*
X14164Y17128D2*
X14248Y17212D1*
X14693Y16766D1*
X14610Y16683D1*
X14164Y17128D1*
G37*
G36*
X14303Y17267D2*
X14387Y17351D1*
X14832Y16906D1*
X14749Y16822D1*
X14303Y17267D1*
G37*
G36*
X14442Y17407D2*
X14526Y17490D1*
X14971Y17045D1*
X14888Y16961D1*
X14442Y17407D1*
G37*
G36*
X14582Y17546D2*
X14665Y17629D1*
X15111Y17184D1*
X15027Y17100D1*
X14582Y17546D1*
G37*
G36*
X14721Y17685D2*
X14804Y17769D1*
X15250Y17323D1*
X15166Y17240D1*
X14721Y17685D1*
G37*
G36*
X14860Y17824D2*
X14944Y17908D1*
X15389Y17462D1*
X15305Y17379D1*
X14860Y17824D1*
G37*
G36*
X14999Y17963D2*
X15083Y18047D1*
X15528Y17602D1*
X15445Y17518D1*
X14999Y17963D1*
G37*
G36*
X15138Y18103D2*
X15222Y18186D1*
X15667Y17741D1*
X15584Y17657D1*
X15138Y18103D1*
G37*
G36*
X15278Y18242D2*
X15361Y18325D1*
X15807Y17880D1*
X15723Y17796D1*
X15278Y18242D1*
G37*
G36*
X15417Y18381D2*
X15500Y18465D1*
X15946Y18019D1*
X15862Y17936D1*
X15417Y18381D1*
G37*
G36*
X15556Y18520D2*
X15640Y18604D1*
X16085Y18158D1*
X16001Y18075D1*
X15556Y18520D1*
G37*
G36*
X15695Y18659D2*
X15779Y18743D1*
X16224Y18297D1*
X16141Y18214D1*
X15695Y18659D1*
G37*
G36*
X15834Y18799D2*
X15918Y18882D1*
X16363Y18437D1*
X16280Y18353D1*
X15834Y18799D1*
G37*
G36*
X15974Y18938D2*
X16057Y19021D1*
X16503Y18576D1*
X16419Y18492D1*
X15974Y18938D1*
G37*
G36*
X16113Y19077D2*
X16196Y19161D1*
X16642Y18715D1*
X16558Y18632D1*
X16113Y19077D1*
G37*
G36*
X16196Y19745D2*
X16113Y19829D1*
X16558Y20274D1*
X16642Y20191D1*
X16196Y19745D1*
G37*
G36*
X16057Y19884D2*
X15974Y19968D1*
X16419Y20413D1*
X16503Y20330D1*
X16057Y19884D1*
G37*
G36*
X15918Y20024D2*
X15834Y20107D1*
X16280Y20552D1*
X16363Y20469D1*
X15918Y20024D1*
G37*
G36*
X15779Y20163D2*
X15695Y20246D1*
X16141Y20692D1*
X16224Y20608D1*
X15779Y20163D1*
G37*
G36*
X15640Y20302D2*
X15556Y20385D1*
X16001Y20831D1*
X16085Y20747D1*
X15640Y20302D1*
G37*
G36*
X15500Y20441D2*
X15417Y20525D1*
X15862Y20970D1*
X15946Y20887D1*
X15500Y20441D1*
G37*
G36*
X15361Y20580D2*
X15278Y20664D1*
X15723Y21109D1*
X15807Y21026D1*
X15361Y20580D1*
G37*
G36*
X15222Y20719D2*
X15138Y20803D1*
X15584Y21248D1*
X15667Y21165D1*
X15222Y20719D1*
G37*
G36*
X15083Y20859D2*
X14999Y20942D1*
X15445Y21388D1*
X15528Y21304D1*
X15083Y20859D1*
G37*
G36*
X14944Y20998D2*
X14860Y21081D1*
X15305Y21527D1*
X15389Y21443D1*
X14944Y20998D1*
G37*
G36*
X14804Y21137D2*
X14721Y21221D1*
X15166Y21666D1*
X15250Y21582D1*
X14804Y21137D1*
G37*
G36*
X14665Y21276D2*
X14582Y21360D1*
X15027Y21805D1*
X15111Y21722D1*
X14665Y21276D1*
G37*
G36*
X14526Y21415D2*
X14442Y21499D1*
X14888Y21944D1*
X14971Y21861D1*
X14526Y21415D1*
G37*
G36*
X14387Y21555D2*
X14303Y21638D1*
X14749Y22084D1*
X14832Y22000D1*
X14387Y21555D1*
G37*
G36*
X14248Y21694D2*
X14164Y21777D1*
X14610Y22223D1*
X14693Y22139D1*
X14248Y21694D1*
G37*
G36*
X14108Y21833D2*
X14025Y21917D1*
X14470Y22362D1*
X14554Y22278D1*
X14108Y21833D1*
G37*
G36*
X13969Y21972D2*
X13886Y22056D1*
X14331Y22501D1*
X14415Y22418D1*
X13969Y21972D1*
G37*
G36*
X13830Y22111D2*
X13747Y22195D1*
X14192Y22640D1*
X14275Y22557D1*
X13830Y22111D1*
G37*
G36*
X13691Y22251D2*
X13607Y22334D1*
X14053Y22780D1*
X14136Y22696D1*
X13691Y22251D1*
G37*
G36*
X13552Y22390D2*
X13468Y22473D1*
X13914Y22919D1*
X13997Y22835D1*
X13552Y22390D1*
G37*
G36*
X13412Y22529D2*
X13329Y22613D1*
X13774Y23058D1*
X13858Y22974D1*
X13412Y22529D1*
G37*
G36*
X13273Y22668D2*
X13190Y22752D1*
X13635Y23197D1*
X13719Y23114D1*
X13273Y22668D1*
G37*
G36*
X13134Y22807D2*
X13051Y22891D1*
X13496Y23336D1*
X13580Y23253D1*
X13134Y22807D1*
G37*
G36*
X12995Y22947D2*
X12911Y23030D1*
X13357Y23476D1*
X13440Y23392D1*
X12995Y22947D1*
G37*
G36*
X12856Y23086D2*
X12772Y23169D1*
X13218Y23615D1*
X13301Y23531D1*
X12856Y23086D1*
G37*
D64*
X21657Y5785D3*
Y6035D3*
X21659Y6293D3*
Y6549D3*
Y6805D3*
Y7060D3*
Y7316D3*
Y7572D3*
Y7828D3*
Y8084D3*
Y8340D3*
Y8596D3*
Y8852D3*
Y9108D3*
X19474D3*
Y8852D3*
Y8596D3*
Y8340D3*
Y8084D3*
X19477Y7825D3*
X19474Y7572D3*
Y7316D3*
Y7060D3*
Y6805D3*
Y6549D3*
Y6293D3*
Y6037D3*
X19477Y5785D3*
D65*
X20567Y7485D3*
D64*
X21532Y13670D3*
Y13920D3*
X21534Y14178D3*
Y14434D3*
Y14690D3*
Y14945D3*
Y15201D3*
Y15457D3*
Y15713D3*
Y15969D3*
Y16225D3*
Y16481D3*
Y16737D3*
Y16993D3*
X19349D3*
Y16737D3*
Y16481D3*
Y16225D3*
Y15969D3*
X19352Y15710D3*
X19349Y15457D3*
Y15201D3*
Y14945D3*
Y14690D3*
Y14434D3*
Y14178D3*
Y13922D3*
X19352Y13670D3*
D65*
X20442Y15370D3*
D66*
X26540Y21930D3*
X26290D3*
X26032Y21933D3*
X25776D3*
X25520D3*
X25264D3*
X25008D3*
X24753D3*
X24497D3*
X24241D3*
X23985D3*
X23729D3*
X23473D3*
X23217D3*
Y19747D3*
X23473D3*
X23729D3*
X23985D3*
X24241D3*
X24500Y19750D3*
X24753Y19747D3*
X25008D3*
X25264D3*
X25520D3*
X25776D3*
X26032D3*
X26288D3*
X26540Y19750D3*
D67*
X24840Y20840D3*
D66*
X18620Y31790D3*
X18870D3*
X19128Y31787D3*
X19384D3*
X19640D3*
X19896D3*
X20152D3*
X20407D3*
X20663D3*
X20919D3*
X21175D3*
X21431D3*
X21687D3*
X21943D3*
Y33973D3*
X21687D3*
X21431D3*
X21175D3*
X20919D3*
X20660Y33970D3*
X20407Y33973D3*
X20152D3*
X19896D3*
X19640D3*
X19384D3*
X19128D3*
X18872D3*
X18620Y33970D3*
D67*
X20320Y32880D3*
D68*
X11127Y40503D3*
Y40696D3*
Y40896D3*
Y41094D3*
Y41290D3*
X9237D3*
Y41094D3*
Y40896D3*
Y40700D3*
Y40503D3*
D69*
X10182Y40896D3*
D70*
X10020Y37250D3*
X9114D3*
X8209D3*
D71*
X9114Y34967D3*
D72*
X14790Y33830D3*
Y33574D3*
Y33318D3*
Y33062D3*
Y32806D3*
Y32550D3*
Y32295D3*
X17073D3*
Y32550D3*
Y32806D3*
Y33062D3*
Y33318D3*
Y33574D3*
Y33830D3*
D73*
X23935Y35030D3*
X23561D3*
X23187D3*
Y33967D3*
X23561D3*
X23935D3*
X19120Y36420D3*
X19494D3*
X19868D3*
Y37483D3*
X19494D3*
X19120D3*
D75*
X6249Y20331D3*
Y21197D3*
X5580D3*
Y20331D3*
M02*
