G04 DipTrace 2.4.0.2*
%INTopMask.gbr*%
%MOIN*%
%ADD53R,0.0669X0.0669*%
%ADD54C,0.0669*%
%ADD86R,0.0552X0.0631*%
%ADD88R,0.0316X0.0513*%
%ADD90R,0.0789X0.0237*%
%ADD92R,0.136X0.0926*%
%ADD94R,0.0454X0.0926*%
%ADD96R,0.083X0.076*%
%ADD98R,0.048X0.02*%
%ADD100R,0.258X0.088*%
%ADD102R,0.02X0.073*%
%ADD104R,0.088X0.258*%
%ADD106R,0.073X0.02*%
%ADD108C,0.058*%
%ADD110C,0.048*%
%ADD112R,0.108X0.064*%
%ADD114R,0.1143X0.071*%
%ADD116R,0.071X0.1143*%
%ADD118R,0.0336X0.0493*%
%ADD120R,0.1871X0.1734*%
%ADD122R,0.0533X0.0356*%
%ADD124C,0.258*%
%ADD126C,0.0749*%
%ADD127R,0.0749X0.0749*%
%ADD130C,0.133*%
%ADD132C,0.067*%
%ADD134C,0.108*%
%ADD136R,0.108X0.108*%
%ADD138C,0.0474*%
%ADD140R,0.0316X0.0356*%
%ADD142R,0.0356X0.0316*%
%ADD144R,0.0631X0.0552*%
%ADD146R,0.078X0.093*%
%ADD148R,0.093X0.078*%
%ADD150R,0.068X0.058*%
%ADD152R,0.0493X0.0336*%
%ADD154R,0.158X0.068*%
%ADD156R,0.0356X0.0434*%
%ADD158R,0.0434X0.0356*%
%ADD160R,0.0474X0.0513*%
%ADD162R,0.0513X0.0474*%
%ADD164R,0.0592X0.0671*%
%FSLAX44Y44*%
G04*
G70*
G90*
G75*
G01*
%LNTopMask*%
%LPD*%
D164*
X11745Y39128D3*
X10997D3*
D162*
X8990Y39030D3*
X9659D3*
D160*
X10815Y36628D3*
Y37297D3*
D158*
X11690Y41207D3*
X12202D3*
X11690Y40370D3*
X12202D3*
X9191Y39944D3*
X9703D3*
X11130Y38440D3*
X11642D3*
D156*
X8840Y31208D3*
Y31719D3*
X7750Y31718D3*
Y31206D3*
X9880Y31708D3*
Y31196D3*
D154*
X17060Y36855D3*
X14528Y36845D3*
X21305Y23118D3*
X18773Y23107D3*
X21305Y11338D3*
X18773Y11327D3*
G36*
X8932Y16871D2*
X8681Y17122D1*
X8988Y17429D1*
X9239Y17178D1*
X8932Y16871D1*
G37*
G36*
X8570Y16509D2*
X8319Y16760D1*
X8626Y17067D1*
X8877Y16816D1*
X8570Y16509D1*
G37*
G36*
X9252Y16581D2*
X9001Y16832D1*
X9308Y17139D1*
X9559Y16888D1*
X9252Y16581D1*
G37*
G36*
X8890Y16219D2*
X8639Y16470D1*
X8946Y16777D1*
X9197Y16526D1*
X8890Y16219D1*
G37*
G36*
X9626Y16141D2*
X9291Y16476D1*
X9654Y16839D1*
X9989Y16504D1*
X9626Y16141D1*
G37*
G36*
X9153Y15668D2*
X8818Y16003D1*
X9181Y16366D1*
X9516Y16031D1*
X9153Y15668D1*
G37*
G36*
X10056Y15691D2*
X9721Y16026D1*
X10084Y16389D1*
X10419Y16054D1*
X10056Y15691D1*
G37*
G36*
X9583Y15218D2*
X9248Y15553D1*
X9611Y15916D1*
X9946Y15581D1*
X9583Y15218D1*
G37*
G36*
X10412Y15431D2*
X10161Y15682D1*
X10468Y15989D1*
X10719Y15738D1*
X10412Y15431D1*
G37*
G36*
X10050Y15069D2*
X9799Y15320D1*
X10106Y15627D1*
X10357Y15376D1*
X10050Y15069D1*
G37*
G36*
X10722Y15111D2*
X10471Y15362D1*
X10778Y15669D1*
X11029Y15418D1*
X10722Y15111D1*
G37*
G36*
X10360Y14749D2*
X10109Y15000D1*
X10416Y15307D1*
X10667Y15056D1*
X10360Y14749D1*
G37*
G36*
X13661Y14518D2*
X13912Y14769D1*
X14219Y14462D1*
X13968Y14211D1*
X13661Y14518D1*
G37*
G36*
X13299Y14880D2*
X13550Y15131D1*
X13857Y14824D1*
X13606Y14573D1*
X13299Y14880D1*
G37*
G36*
X13971Y14818D2*
X14222Y15069D1*
X14529Y14762D1*
X14278Y14511D1*
X13971Y14818D1*
G37*
G36*
X13609Y15180D2*
X13860Y15431D1*
X14167Y15124D1*
X13916Y14873D1*
X13609Y15180D1*
G37*
G36*
X16649Y17622D2*
X16398Y17371D1*
X16091Y17678D1*
X16342Y17929D1*
X16649Y17622D1*
G37*
G36*
X17011Y17260D2*
X16760Y17009D1*
X16453Y17316D1*
X16704Y17567D1*
X17011Y17260D1*
G37*
G36*
X16401Y17988D2*
X16652Y18239D1*
X16959Y17932D1*
X16708Y17681D1*
X16401Y17988D1*
G37*
G36*
X16763Y17626D2*
X17014Y17877D1*
X17321Y17570D1*
X17070Y17319D1*
X16763Y17626D1*
G37*
G36*
X15142Y21931D2*
X14891Y22182D1*
X15198Y22489D1*
X15449Y22238D1*
X15142Y21931D1*
G37*
G36*
X15504Y22293D2*
X15253Y22544D1*
X15560Y22851D1*
X15811Y22600D1*
X15504Y22293D1*
G37*
G36*
X14822Y22241D2*
X14571Y22492D1*
X14878Y22799D1*
X15129Y22548D1*
X14822Y22241D1*
G37*
G36*
X15184Y22603D2*
X14933Y22854D1*
X15240Y23161D1*
X15491Y22910D1*
X15184Y22603D1*
G37*
G36*
X10419Y22612D2*
X10168Y22361D1*
X9861Y22668D1*
X10112Y22919D1*
X10419Y22612D1*
G37*
G36*
X10057Y22974D2*
X9806Y22723D1*
X9499Y23030D1*
X9750Y23281D1*
X10057Y22974D1*
G37*
G36*
X9511Y22338D2*
X9762Y22589D1*
X10069Y22282D1*
X9818Y22031D1*
X9511Y22338D1*
G37*
G36*
X9149Y22700D2*
X9400Y22951D1*
X9707Y22644D1*
X9456Y22393D1*
X9149Y22700D1*
G37*
G36*
X8141Y20848D2*
X8392Y21099D1*
X8699Y20792D1*
X8448Y20541D1*
X8141Y20848D1*
G37*
G36*
X7779Y21210D2*
X8030Y21461D1*
X8337Y21154D1*
X8086Y20903D1*
X7779Y21210D1*
G37*
D158*
X5375Y7340D3*
X5887D3*
X5450Y34820D3*
X5962D3*
X27287Y35185D3*
X26776D3*
G36*
X7137Y20196D2*
X6663D1*
Y20709D1*
X7137D1*
Y20196D1*
G37*
G36*
Y20865D2*
X6663D1*
Y21379D1*
X7137D1*
Y20865D1*
G37*
G36*
X7717Y19856D2*
X7243D1*
Y20369D1*
X7717D1*
Y19856D1*
G37*
G36*
Y20525D2*
X7243D1*
Y21039D1*
X7717D1*
Y20525D1*
G37*
D158*
X18613Y9155D3*
X18101D3*
D156*
X22717Y5671D3*
Y5159D3*
D158*
X22283Y9495D3*
X21771D3*
X21561Y5355D3*
X22073D3*
D160*
X24615Y9730D3*
Y10399D3*
X24645Y8310D3*
Y8979D3*
X24667Y7480D3*
Y6811D3*
X24680Y6177D3*
Y5508D3*
D158*
X19550Y17600D3*
X20062D3*
D156*
X22482Y12994D3*
Y13506D3*
D158*
X22158Y17380D3*
X21646D3*
X21426Y13240D3*
X21938D3*
D160*
X24555Y16995D3*
Y17664D3*
X24575Y15585D3*
Y16254D3*
X24545Y15065D3*
Y14396D3*
Y13735D3*
Y13066D3*
D158*
X22516Y19576D3*
X22004D3*
X26890Y22820D3*
X27402D3*
D156*
X22620Y21930D3*
Y21418D3*
X26970Y21660D3*
Y22172D3*
D162*
X23020Y24790D3*
X22351D3*
X24309Y24800D3*
X23640D3*
X25639D3*
X24970D3*
X26340Y24810D3*
X27009D3*
D156*
X22520Y33910D3*
Y33398D3*
D158*
X17970Y30870D3*
X18482D3*
D156*
X22520Y32160D3*
Y32672D3*
X18190Y31918D3*
Y31407D3*
D162*
X18825Y29190D3*
X18155D3*
X20095D3*
X19425D3*
X20855D3*
X21525D3*
X22845D3*
X22175D3*
D156*
X24490Y35070D3*
Y34558D3*
X18680Y38030D3*
Y38542D3*
X9790Y27184D3*
Y27696D3*
X8560Y29653D3*
Y30164D3*
X11310Y24660D3*
Y25172D3*
X15555Y24619D3*
Y24108D3*
D158*
X7190Y28200D3*
X7702D3*
D152*
X11325Y42775D3*
Y42027D3*
X12231Y42401D3*
D150*
X10440Y30190D3*
Y29430D3*
X16770Y22060D3*
Y22820D3*
D148*
X8170Y41326D3*
Y39726D3*
G36*
X6851Y16078D2*
Y16394D1*
X7364D1*
Y16078D1*
X6851D1*
G37*
G36*
Y16452D2*
Y16768D1*
X7364D1*
Y16452D1*
X6851D1*
G37*
G36*
Y16826D2*
Y17142D1*
X7364D1*
Y16826D1*
X6851D1*
G37*
G36*
X5788D2*
Y17142D1*
X6301D1*
Y16826D1*
X5788D1*
G37*
G36*
Y16452D2*
Y16768D1*
X6301D1*
Y16452D1*
X5788D1*
G37*
G36*
Y16078D2*
Y16394D1*
X6301D1*
Y16078D1*
X5788D1*
G37*
D156*
X7220Y29653D3*
Y30164D3*
X11150Y27180D3*
Y27692D3*
D146*
X24855Y29570D3*
X26455D3*
X21185Y37420D3*
X22785D3*
D144*
X14877Y30770D3*
Y29470D3*
X17180Y30770D3*
Y29471D3*
D142*
X15100Y24581D3*
Y24030D3*
X16055Y24056D3*
Y24608D3*
D140*
X7190Y28628D3*
X7741D3*
X7716Y27860D3*
X7164D3*
D138*
X7440Y4940D3*
X24640Y42740D3*
X7090D3*
D136*
X17877Y39815D3*
D134*
X16227D3*
X14577D3*
X17877Y41975D3*
X16227D3*
X14577D3*
X25690Y37040D3*
Y39010D3*
D132*
X6815Y13460D3*
Y12476D3*
X6028Y13460D3*
Y12476D3*
D130*
X4961Y15338D3*
Y10598D3*
D53*
X14130Y26420D3*
D54*
X15130D3*
X16130D3*
X17130D3*
X18130D3*
X19130D3*
X20130D3*
X21130D3*
X22130D3*
X23130D3*
X24130D3*
X25130D3*
X26130D3*
X14130Y27420D3*
X15130D3*
X16130D3*
X17130D3*
X18130D3*
X19130D3*
X20130D3*
X21130D3*
X22130D3*
X23130D3*
X24130D3*
X25130D3*
X26130D3*
D53*
X15110Y10450D3*
D54*
X14110D3*
X13110D3*
X12110D3*
X11110D3*
X15110Y9450D3*
X14110D3*
X13110D3*
X12110D3*
X11110D3*
D127*
X26422Y13790D3*
D126*
Y14790D3*
Y15790D3*
Y16790D3*
D127*
X26462Y8170D3*
D126*
Y9170D3*
Y10170D3*
Y11170D3*
D127*
X5540Y30692D3*
D126*
Y31692D3*
Y32692D3*
D127*
X5480Y27910D3*
D126*
Y28910D3*
G36*
X6659Y23663D2*
Y24057D1*
X7841D1*
Y23663D1*
X6659D1*
G37*
G36*
Y24163D2*
Y24557D1*
X7841D1*
Y24163D1*
X6659D1*
G37*
G36*
Y24663D2*
Y25057D1*
X7841D1*
Y24663D1*
X6659D1*
G37*
G36*
Y25163D2*
Y25557D1*
X7841D1*
Y25163D1*
X6659D1*
G37*
G36*
Y25663D2*
Y26057D1*
X7841D1*
Y25663D1*
X6659D1*
G37*
G36*
X5116Y23663D2*
Y24057D1*
X6298D1*
Y23663D1*
X5116D1*
G37*
G36*
Y24163D2*
Y24557D1*
X6298D1*
Y24163D1*
X5116D1*
G37*
G36*
Y24663D2*
Y25057D1*
X6298D1*
Y24663D1*
X5116D1*
G37*
G36*
Y25163D2*
Y25557D1*
X6298D1*
Y25163D1*
X5116D1*
G37*
G36*
Y25663D2*
Y26057D1*
X6298D1*
Y25663D1*
X5116D1*
G37*
D126*
X12950Y42640D3*
G36*
X4609Y40170D2*
X7052D1*
Y39483D1*
X6673Y39126D1*
X4988D1*
X4609Y39483D1*
Y40170D1*
G37*
G36*
X7071Y37669D2*
X4629D1*
Y38356D1*
X5008Y38713D1*
X6693D1*
X7071Y38356D1*
Y37669D1*
G37*
G36*
X12806Y14421D2*
X13239Y14854D1*
X13574Y14519D1*
X13141Y14086D1*
X12806Y14421D1*
G37*
G36*
X13224Y14004D2*
X13656Y14436D1*
X13991Y14101D1*
X13559Y13669D1*
X13224Y14004D1*
G37*
D124*
X5440Y41940D3*
Y5440D3*
X26440D3*
Y41940D3*
D122*
X24160Y32240D3*
X24158Y31740D3*
Y31240D3*
Y30740D3*
D120*
X25695Y31490D3*
D122*
X20567Y39819D3*
X20565Y39319D3*
Y38819D3*
Y38319D3*
D120*
X22102Y39069D3*
D118*
X14168Y30140D3*
X13419D3*
X13793Y29234D3*
X16474Y30143D3*
X15726D3*
X16100Y29237D3*
X10700Y26310D3*
X9952D3*
X10326Y25404D3*
X9950Y32330D3*
X10698D3*
X10324Y33236D3*
X8350Y32330D3*
X9098D3*
X8724Y33236D3*
D116*
X9256Y42320D3*
X8154D3*
D156*
X9790Y29470D3*
Y29982D3*
X16170Y22760D3*
Y22248D3*
D158*
X9191Y39506D3*
X9703D3*
X10470Y39890D3*
X10982D3*
D156*
X9350Y31198D3*
Y31709D3*
X8210Y31198D3*
Y31709D3*
X10420Y31718D3*
Y31206D3*
G36*
X8539Y17736D2*
X8204Y17401D1*
X7841Y17764D1*
X8176Y18099D1*
X8539Y17736D1*
G37*
G36*
X8066Y18209D2*
X7731Y17874D1*
X7368Y18237D1*
X7703Y18572D1*
X8066Y18209D1*
G37*
G36*
X8259Y16976D2*
X7924Y16641D1*
X7561Y17004D1*
X7896Y17339D1*
X8259Y16976D1*
G37*
G36*
X7786Y17449D2*
X7451Y17114D1*
X7088Y17477D1*
X7423Y17812D1*
X7786Y17449D1*
G37*
G36*
X8642Y14801D2*
X8391Y15052D1*
X8698Y15359D1*
X8949Y15108D1*
X8642Y14801D1*
G37*
G36*
X9004Y15163D2*
X8753Y15414D1*
X9060Y15721D1*
X9311Y15470D1*
X9004Y15163D1*
G37*
G36*
X14271Y15878D2*
X14522Y16129D1*
X14829Y15822D1*
X14578Y15571D1*
X14271Y15878D1*
G37*
G36*
X14633Y15516D2*
X14884Y15767D1*
X15191Y15460D1*
X14940Y15209D1*
X14633Y15516D1*
G37*
D156*
X12180Y12320D3*
Y12832D3*
G36*
X15251Y16248D2*
X15502Y16499D1*
X15809Y16192D1*
X15558Y15941D1*
X15251Y16248D1*
G37*
G36*
X14889Y16610D2*
X15140Y16861D1*
X15447Y16554D1*
X15196Y16303D1*
X14889Y16610D1*
G37*
G36*
X15531Y16518D2*
X15782Y16769D1*
X16089Y16462D1*
X15838Y16211D1*
X15531Y16518D1*
G37*
G36*
X15169Y16880D2*
X15420Y17131D1*
X15727Y16824D1*
X15476Y16573D1*
X15169Y16880D1*
G37*
D158*
X5885Y7830D3*
X5373D3*
X5970Y34450D3*
X5458D3*
X26767Y35625D3*
X27279D3*
X22283Y9925D3*
X21771D3*
X18613Y8465D3*
X18101D3*
Y8035D3*
X18613D3*
D114*
X23437Y9346D3*
Y8244D3*
X23517Y5544D3*
Y6646D3*
D158*
X22158Y17800D3*
X21646D3*
G36*
X17721Y18538D2*
X17972Y18789D1*
X18279Y18482D1*
X18028Y18231D1*
X17721Y18538D1*
G37*
G36*
X17359Y18900D2*
X17610Y19151D1*
X17917Y18844D1*
X17666Y18593D1*
X17359Y18900D1*
G37*
G36*
X17031Y18598D2*
X17282Y18849D1*
X17589Y18542D1*
X17338Y18291D1*
X17031Y18598D1*
G37*
G36*
X17393Y18236D2*
X17644Y18487D1*
X17951Y18180D1*
X17700Y17929D1*
X17393Y18236D1*
G37*
D114*
X23312Y17231D3*
Y16129D3*
Y13429D3*
Y14531D3*
D156*
X22170Y21930D3*
Y21418D3*
G36*
X19271Y20068D2*
X19522Y20319D1*
X19829Y20012D1*
X19578Y19761D1*
X19271Y20068D1*
G37*
G36*
X18909Y20430D2*
X19160Y20681D1*
X19467Y20374D1*
X19216Y20123D1*
X18909Y20430D1*
G37*
G36*
X18601Y20108D2*
X18852Y20359D1*
X19159Y20052D1*
X18908Y19801D1*
X18601Y20108D1*
G37*
G36*
X18963Y19746D2*
X19214Y19997D1*
X19521Y19690D1*
X19270Y19439D1*
X18963Y19746D1*
G37*
D116*
X23017Y23630D3*
X24119D3*
X26691D3*
X25589D3*
D156*
X22990Y32160D3*
Y32672D3*
D158*
X21180Y34670D3*
X21692D3*
X21690Y35100D3*
X21178D3*
D116*
X22181Y30085D3*
X21079D3*
X18379D3*
X19481D3*
D156*
X10690Y27696D3*
Y27184D3*
X10240D3*
Y27696D3*
X7660Y30164D3*
Y29653D3*
X8110D3*
Y30164D3*
X10800Y24650D3*
Y25162D3*
X16555Y24096D3*
Y24608D3*
X14630Y24602D3*
Y24090D3*
D158*
X7696Y27480D3*
X7184D3*
Y29020D3*
X7696D3*
X12190Y40790D3*
X11678D3*
D156*
X23915Y32920D3*
Y33432D3*
X23445Y32910D3*
Y33422D3*
X19180Y38550D3*
Y38038D3*
X19663Y38550D3*
Y38038D3*
X13708Y30684D3*
Y31196D3*
X14178Y30684D3*
Y31196D3*
X16110Y30684D3*
Y31196D3*
X16570Y30684D3*
Y31196D3*
D158*
X23270Y35790D3*
X22758D3*
D156*
X18430Y36840D3*
Y36328D3*
X13248Y30684D3*
Y31196D3*
X15650Y30684D3*
Y31196D3*
D160*
X11145Y12875D3*
Y12205D3*
X12960Y12870D3*
Y12201D3*
D156*
X8650Y13270D3*
Y12758D3*
X8160Y13270D3*
Y12758D3*
D112*
X9770Y6420D3*
Y4735D3*
X13060Y6420D3*
Y4735D3*
D110*
X12240Y41980D3*
X12380Y38560D3*
X13380D3*
X22200Y34730D3*
X12770Y15010D3*
X22890Y22430D3*
X22860Y31660D3*
D108*
X9140Y30270D3*
X10940Y33520D3*
G36*
X11602Y23531D2*
X11742Y23671D1*
X12244Y23169D1*
X12104Y23029D1*
X11602Y23531D1*
G37*
G36*
X11463Y23392D2*
X11603Y23532D1*
X12105Y23030D1*
X11965Y22890D1*
X11463Y23392D1*
G37*
G36*
X11324Y23253D2*
X11464Y23393D1*
X11966Y22891D1*
X11826Y22751D1*
X11324Y23253D1*
G37*
G36*
X11184Y23114D2*
X11325Y23254D1*
X11827Y22752D1*
X11686Y22612D1*
X11184Y23114D1*
G37*
G36*
X11045Y22974D2*
X11185Y23115D1*
X11687Y22613D1*
X11547Y22472D1*
X11045Y22974D1*
G37*
G36*
X10906Y22835D2*
X11046Y22975D1*
X11548Y22473D1*
X11408Y22333D1*
X10906Y22835D1*
G37*
G36*
X10767Y22696D2*
X10907Y22836D1*
X11409Y22334D1*
X11269Y22194D1*
X10767Y22696D1*
G37*
G36*
X10628Y22557D2*
X10768Y22697D1*
X11270Y22195D1*
X11130Y22055D1*
X10628Y22557D1*
G37*
G36*
X10488Y22418D2*
X10629Y22558D1*
X11131Y22056D1*
X10990Y21916D1*
X10488Y22418D1*
G37*
G36*
X10349Y22278D2*
X10489Y22419D1*
X10991Y21917D1*
X10851Y21776D1*
X10349Y22278D1*
G37*
G36*
X10210Y22139D2*
X10350Y22279D1*
X10852Y21777D1*
X10712Y21637D1*
X10210Y22139D1*
G37*
G36*
X10071Y22000D2*
X10211Y22140D1*
X10713Y21638D1*
X10573Y21498D1*
X10071Y22000D1*
G37*
G36*
X9932Y21861D2*
X10072Y22001D1*
X10574Y21499D1*
X10434Y21359D1*
X9932Y21861D1*
G37*
G36*
X9793Y21722D2*
X9933Y21862D1*
X10435Y21360D1*
X10295Y21220D1*
X9793Y21722D1*
G37*
G36*
X9653Y21582D2*
X9793Y21723D1*
X10295Y21221D1*
X10155Y21080D1*
X9653Y21582D1*
G37*
G36*
X9514Y21443D2*
X9654Y21583D1*
X10156Y21081D1*
X10016Y20941D1*
X9514Y21443D1*
G37*
G36*
X9375Y21304D2*
X9515Y21444D1*
X10017Y20942D1*
X9877Y20802D1*
X9375Y21304D1*
G37*
G36*
X9236Y21165D2*
X9376Y21305D1*
X9878Y20803D1*
X9738Y20663D1*
X9236Y21165D1*
G37*
G36*
X9097Y21026D2*
X9237Y21166D1*
X9739Y20664D1*
X9599Y20524D1*
X9097Y21026D1*
G37*
G36*
X8957Y20887D2*
X9097Y21027D1*
X9599Y20525D1*
X9459Y20385D1*
X8957Y20887D1*
G37*
G36*
X8818Y20747D2*
X8958Y20887D1*
X9460Y20385D1*
X9320Y20245D1*
X8818Y20747D1*
G37*
G36*
X8679Y20608D2*
X8819Y20748D1*
X9321Y20246D1*
X9181Y20106D1*
X8679Y20608D1*
G37*
G36*
X8540Y20469D2*
X8680Y20609D1*
X9182Y20107D1*
X9042Y19967D1*
X8540Y20469D1*
G37*
G36*
X8401Y20330D2*
X8541Y20470D1*
X9043Y19968D1*
X8903Y19828D1*
X8401Y20330D1*
G37*
G36*
X8261Y20191D2*
X8401Y20331D1*
X8903Y19829D1*
X8763Y19689D1*
X8261Y20191D1*
G37*
G36*
X8401Y18575D2*
X8261Y18715D1*
X8763Y19217D1*
X8903Y19077D1*
X8401Y18575D1*
G37*
G36*
X8541Y18436D2*
X8401Y18576D1*
X8903Y19078D1*
X9043Y18938D1*
X8541Y18436D1*
G37*
G36*
X8680Y18297D2*
X8540Y18437D1*
X9042Y18939D1*
X9182Y18799D1*
X8680Y18297D1*
G37*
G36*
X8819Y18157D2*
X8679Y18297D1*
X9181Y18799D1*
X9321Y18659D1*
X8819Y18157D1*
G37*
G36*
X8958Y18018D2*
X8818Y18158D1*
X9320Y18660D1*
X9460Y18520D1*
X8958Y18018D1*
G37*
G36*
X9097Y17879D2*
X8957Y18019D1*
X9459Y18521D1*
X9599Y18381D1*
X9097Y17879D1*
G37*
G36*
X9237Y17740D2*
X9097Y17880D1*
X9599Y18382D1*
X9739Y18242D1*
X9237Y17740D1*
G37*
G36*
X9376Y17601D2*
X9236Y17741D1*
X9738Y18243D1*
X9878Y18103D1*
X9376Y17601D1*
G37*
G36*
X9515Y17461D2*
X9375Y17602D1*
X9877Y18104D1*
X10017Y17963D1*
X9515Y17461D1*
G37*
G36*
X9654Y17322D2*
X9514Y17462D1*
X10016Y17964D1*
X10156Y17824D1*
X9654Y17322D1*
G37*
G36*
X9793Y17183D2*
X9653Y17323D1*
X10155Y17825D1*
X10295Y17685D1*
X9793Y17183D1*
G37*
G36*
X9933Y17044D2*
X9793Y17184D1*
X10295Y17686D1*
X10435Y17546D1*
X9933Y17044D1*
G37*
G36*
X10072Y16905D2*
X9932Y17045D1*
X10434Y17547D1*
X10574Y17407D1*
X10072Y16905D1*
G37*
G36*
X10211Y16765D2*
X10071Y16906D1*
X10573Y17408D1*
X10713Y17267D1*
X10211Y16765D1*
G37*
G36*
X10350Y16626D2*
X10210Y16766D1*
X10712Y17268D1*
X10852Y17128D1*
X10350Y16626D1*
G37*
G36*
X10489Y16487D2*
X10349Y16627D1*
X10851Y17129D1*
X10991Y16989D1*
X10489Y16487D1*
G37*
G36*
X10629Y16348D2*
X10488Y16488D1*
X10990Y16990D1*
X11131Y16850D1*
X10629Y16348D1*
G37*
G36*
X10768Y16209D2*
X10628Y16349D1*
X11130Y16851D1*
X11270Y16711D1*
X10768Y16209D1*
G37*
G36*
X10907Y16069D2*
X10767Y16210D1*
X11269Y16712D1*
X11409Y16571D1*
X10907Y16069D1*
G37*
G36*
X11046Y15930D2*
X10906Y16070D1*
X11408Y16572D1*
X11548Y16432D1*
X11046Y15930D1*
G37*
G36*
X11185Y15791D2*
X11045Y15931D1*
X11547Y16433D1*
X11687Y16293D1*
X11185Y15791D1*
G37*
G36*
X11325Y15652D2*
X11184Y15792D1*
X11686Y16294D1*
X11827Y16154D1*
X11325Y15652D1*
G37*
G36*
X11464Y15513D2*
X11324Y15653D1*
X11826Y16155D1*
X11966Y16015D1*
X11464Y15513D1*
G37*
G36*
X11603Y15374D2*
X11463Y15514D1*
X11965Y16016D1*
X12105Y15876D1*
X11603Y15374D1*
G37*
G36*
X11742Y15234D2*
X11602Y15374D1*
X12104Y15876D1*
X12244Y15736D1*
X11742Y15234D1*
G37*
G36*
X12716Y15736D2*
X12856Y15876D1*
X13358Y15374D1*
X13218Y15234D1*
X12716Y15736D1*
G37*
G36*
X12855Y15876D2*
X12995Y16016D1*
X13497Y15514D1*
X13357Y15374D1*
X12855Y15876D1*
G37*
G36*
X12994Y16015D2*
X13134Y16155D1*
X13636Y15653D1*
X13496Y15513D1*
X12994Y16015D1*
G37*
G36*
X13133Y16154D2*
X13273Y16294D1*
X13775Y15792D1*
X13635Y15652D1*
X13133Y16154D1*
G37*
G36*
X13272Y16293D2*
X13412Y16433D1*
X13914Y15931D1*
X13774Y15791D1*
X13272Y16293D1*
G37*
G36*
X13412Y16432D2*
X13552Y16572D1*
X14054Y16070D1*
X13914Y15930D1*
X13412Y16432D1*
G37*
G36*
X13551Y16571D2*
X13691Y16712D1*
X14193Y16210D1*
X14053Y16069D1*
X13551Y16571D1*
G37*
G36*
X13690Y16711D2*
X13830Y16851D1*
X14332Y16349D1*
X14192Y16209D1*
X13690Y16711D1*
G37*
G36*
X13829Y16850D2*
X13969Y16990D1*
X14471Y16488D1*
X14331Y16348D1*
X13829Y16850D1*
G37*
G36*
X13968Y16989D2*
X14108Y17129D1*
X14610Y16627D1*
X14470Y16487D1*
X13968Y16989D1*
G37*
G36*
X14108Y17128D2*
X14248Y17268D1*
X14750Y16766D1*
X14610Y16626D1*
X14108Y17128D1*
G37*
G36*
X14247Y17267D2*
X14387Y17408D1*
X14889Y16906D1*
X14749Y16765D1*
X14247Y17267D1*
G37*
G36*
X14386Y17407D2*
X14526Y17547D1*
X15028Y17045D1*
X14888Y16905D1*
X14386Y17407D1*
G37*
G36*
X14525Y17546D2*
X14665Y17686D1*
X15167Y17184D1*
X15027Y17044D1*
X14525Y17546D1*
G37*
G36*
X14664Y17685D2*
X14804Y17825D1*
X15306Y17323D1*
X15166Y17183D1*
X14664Y17685D1*
G37*
G36*
X14803Y17824D2*
X14944Y17964D1*
X15446Y17462D1*
X15305Y17322D1*
X14803Y17824D1*
G37*
G36*
X14943Y17963D2*
X15083Y18104D1*
X15585Y17602D1*
X15445Y17461D1*
X14943Y17963D1*
G37*
G36*
X15082Y18103D2*
X15222Y18243D1*
X15724Y17741D1*
X15584Y17601D1*
X15082Y18103D1*
G37*
G36*
X15221Y18242D2*
X15361Y18382D1*
X15863Y17880D1*
X15723Y17740D1*
X15221Y18242D1*
G37*
G36*
X15360Y18381D2*
X15500Y18521D1*
X16002Y18019D1*
X15862Y17879D1*
X15360Y18381D1*
G37*
G36*
X15499Y18520D2*
X15640Y18660D1*
X16142Y18158D1*
X16001Y18018D1*
X15499Y18520D1*
G37*
G36*
X15639Y18659D2*
X15779Y18799D1*
X16281Y18297D1*
X16141Y18157D1*
X15639Y18659D1*
G37*
G36*
X15778Y18799D2*
X15918Y18939D1*
X16420Y18437D1*
X16280Y18297D1*
X15778Y18799D1*
G37*
G36*
X15917Y18938D2*
X16057Y19078D1*
X16559Y18576D1*
X16419Y18436D1*
X15917Y18938D1*
G37*
G36*
X16056Y19077D2*
X16196Y19217D1*
X16698Y18715D1*
X16558Y18575D1*
X16056Y19077D1*
G37*
G36*
X16196Y19689D2*
X16056Y19829D1*
X16558Y20331D1*
X16698Y20191D1*
X16196Y19689D1*
G37*
G36*
X16057Y19828D2*
X15917Y19968D1*
X16419Y20470D1*
X16559Y20330D1*
X16057Y19828D1*
G37*
G36*
X15918Y19967D2*
X15778Y20107D1*
X16280Y20609D1*
X16420Y20469D1*
X15918Y19967D1*
G37*
G36*
X15779Y20106D2*
X15639Y20246D1*
X16141Y20748D1*
X16281Y20608D1*
X15779Y20106D1*
G37*
G36*
X15640Y20245D2*
X15499Y20385D1*
X16001Y20887D1*
X16142Y20747D1*
X15640Y20245D1*
G37*
G36*
X15500Y20385D2*
X15360Y20525D1*
X15862Y21027D1*
X16002Y20887D1*
X15500Y20385D1*
G37*
G36*
X15361Y20524D2*
X15221Y20664D1*
X15723Y21166D1*
X15863Y21026D1*
X15361Y20524D1*
G37*
G36*
X15222Y20663D2*
X15082Y20803D1*
X15584Y21305D1*
X15724Y21165D1*
X15222Y20663D1*
G37*
G36*
X15083Y20802D2*
X14943Y20942D1*
X15445Y21444D1*
X15585Y21304D1*
X15083Y20802D1*
G37*
G36*
X14944Y20941D2*
X14803Y21081D1*
X15305Y21583D1*
X15446Y21443D1*
X14944Y20941D1*
G37*
G36*
X14804Y21080D2*
X14664Y21221D1*
X15166Y21723D1*
X15306Y21582D1*
X14804Y21080D1*
G37*
G36*
X14665Y21220D2*
X14525Y21360D1*
X15027Y21862D1*
X15167Y21722D1*
X14665Y21220D1*
G37*
G36*
X14526Y21359D2*
X14386Y21499D1*
X14888Y22001D1*
X15028Y21861D1*
X14526Y21359D1*
G37*
G36*
X14387Y21498D2*
X14247Y21638D1*
X14749Y22140D1*
X14889Y22000D1*
X14387Y21498D1*
G37*
G36*
X14248Y21637D2*
X14108Y21777D1*
X14610Y22279D1*
X14750Y22139D1*
X14248Y21637D1*
G37*
G36*
X14108Y21776D2*
X13968Y21917D1*
X14470Y22419D1*
X14610Y22278D1*
X14108Y21776D1*
G37*
G36*
X13969Y21916D2*
X13829Y22056D1*
X14331Y22558D1*
X14471Y22418D1*
X13969Y21916D1*
G37*
G36*
X13830Y22055D2*
X13690Y22195D1*
X14192Y22697D1*
X14332Y22557D1*
X13830Y22055D1*
G37*
G36*
X13691Y22194D2*
X13551Y22334D1*
X14053Y22836D1*
X14193Y22696D1*
X13691Y22194D1*
G37*
G36*
X13552Y22333D2*
X13412Y22473D1*
X13914Y22975D1*
X14054Y22835D1*
X13552Y22333D1*
G37*
G36*
X13412Y22472D2*
X13272Y22613D1*
X13774Y23115D1*
X13914Y22974D1*
X13412Y22472D1*
G37*
G36*
X13273Y22612D2*
X13133Y22752D1*
X13635Y23254D1*
X13775Y23114D1*
X13273Y22612D1*
G37*
G36*
X13134Y22751D2*
X12994Y22891D1*
X13496Y23393D1*
X13636Y23253D1*
X13134Y22751D1*
G37*
G36*
X12995Y22890D2*
X12855Y23030D1*
X13357Y23532D1*
X13497Y23392D1*
X12995Y22890D1*
G37*
G36*
X12856Y23029D2*
X12716Y23169D1*
X13218Y23671D1*
X13358Y23531D1*
X12856Y23029D1*
G37*
D106*
X21657Y5785D3*
Y6035D3*
X21659Y6293D3*
Y6549D3*
Y6805D3*
Y7060D3*
Y7316D3*
Y7572D3*
Y7828D3*
Y8084D3*
Y8340D3*
Y8596D3*
Y8852D3*
Y9108D3*
X19474D3*
Y8852D3*
Y8596D3*
Y8340D3*
Y8084D3*
X19477Y7825D3*
X19474Y7572D3*
Y7316D3*
Y7060D3*
Y6805D3*
Y6549D3*
Y6293D3*
Y6037D3*
X19477Y5785D3*
D104*
X20567Y7485D3*
D106*
X21532Y13670D3*
Y13920D3*
X21534Y14178D3*
Y14434D3*
Y14690D3*
Y14945D3*
Y15201D3*
Y15457D3*
Y15713D3*
Y15969D3*
Y16225D3*
Y16481D3*
Y16737D3*
Y16993D3*
X19349D3*
Y16737D3*
Y16481D3*
Y16225D3*
Y15969D3*
X19352Y15710D3*
X19349Y15457D3*
Y15201D3*
Y14945D3*
Y14690D3*
Y14434D3*
Y14178D3*
Y13922D3*
X19352Y13670D3*
D104*
X20442Y15370D3*
D102*
X26540Y21930D3*
X26290D3*
X26032Y21933D3*
X25776D3*
X25520D3*
X25264D3*
X25008D3*
X24753D3*
X24497D3*
X24241D3*
X23985D3*
X23729D3*
X23473D3*
X23217D3*
Y19747D3*
X23473D3*
X23729D3*
X23985D3*
X24241D3*
X24500Y19750D3*
X24753Y19747D3*
X25008D3*
X25264D3*
X25520D3*
X25776D3*
X26032D3*
X26288D3*
X26540Y19750D3*
D100*
X24840Y20840D3*
D102*
X18620Y31790D3*
X18870D3*
X19128Y31787D3*
X19384D3*
X19640D3*
X19896D3*
X20152D3*
X20407D3*
X20663D3*
X20919D3*
X21175D3*
X21431D3*
X21687D3*
X21943D3*
Y33973D3*
X21687D3*
X21431D3*
X21175D3*
X20919D3*
X20660Y33970D3*
X20407Y33973D3*
X20152D3*
X19896D3*
X19640D3*
X19384D3*
X19128D3*
X18872D3*
X18620Y33970D3*
D100*
X20320Y32880D3*
D98*
X11127Y40503D3*
Y40696D3*
Y40896D3*
Y41094D3*
Y41290D3*
X9237D3*
Y41094D3*
Y40896D3*
Y40700D3*
Y40503D3*
D96*
X10182Y40896D3*
D94*
X10020Y37250D3*
X9114D3*
X8209D3*
D92*
X9114Y34967D3*
D90*
X14790Y33830D3*
Y33574D3*
Y33318D3*
Y33062D3*
Y32806D3*
Y32550D3*
Y32295D3*
X17073D3*
Y32550D3*
Y32806D3*
Y33062D3*
Y33318D3*
Y33574D3*
Y33830D3*
D88*
X23935Y35030D3*
X23561D3*
X23187D3*
Y33967D3*
X23561D3*
X23935D3*
X19120Y36420D3*
X19494D3*
X19868D3*
Y37483D3*
X19494D3*
X19120D3*
D86*
X6249Y20331D3*
Y21197D3*
X5580D3*
Y20331D3*
G36*
X23607Y21222D2*
X26187D1*
Y20462D1*
X23607D1*
Y21222D1*
G37*
G36*
X20067Y16642D2*
X20827D1*
Y14062D1*
X20067D1*
Y16642D1*
G37*
G36*
X19067Y33272D2*
X21647D1*
Y32512D1*
X19067D1*
Y33272D1*
G37*
G36*
X20190Y8768D2*
X20950D1*
Y6188D1*
X20190D1*
Y8768D1*
G37*
M02*
