G04 DipTrace 2.4.0.2*
%INTopSilk.gbr*%
%MOIN*%
%ADD10C,0.01*%
%ADD12C,0.003*%
%ADD29C,0.004*%
%ADD30C,0.0406*%
%ADD31O,0.053X0.052*%
%ADD38C,0.0154*%
%ADD63C,0.017*%
%ADD74O,0.0202X0.0208*%
%ADD166C,0.0077*%
%ADD167C,0.0062*%
%ADD168C,0.0044*%
%ADD169C,0.0046*%
%FSLAX44Y44*%
G04*
G70*
G90*
G75*
G01*
%LNTopSilk*%
%LPD*%
X12159Y39383D2*
D10*
Y38872D1*
X10972Y36254D2*
X10658D1*
X14255Y36825D2*
X14259Y36931D1*
X14270Y37037D1*
X14289Y37142D1*
X14314Y37245D1*
X14348Y37347D1*
X14388Y37445D1*
X14435Y37541D1*
X14488Y37633D1*
X14548Y37721D1*
X14614Y37805D1*
X14686Y37884D1*
X14763Y37958D1*
X14845Y38027D1*
X14932Y38089D1*
X15023Y38146D1*
X15117Y38196D1*
X15215Y38239D1*
X15316Y38275D1*
X15419Y38305D1*
X15524Y38327D1*
X15630Y38342D1*
X15737Y38349D1*
X15844D1*
X15951Y38342D1*
X16057Y38327D1*
X16162Y38305D1*
X16265Y38275D1*
X16365Y38239D1*
X16463Y38196D1*
X16558Y38146D1*
X16649Y38089D1*
X16735Y38027D1*
X16817Y37958D1*
X16894Y37884D1*
X16966Y37805D1*
X17032Y37721D1*
X17092Y37633D1*
X17146Y37541D1*
X17193Y37445D1*
X17233Y37347D1*
X17266Y37245D1*
X17292Y37142D1*
X17310Y37037D1*
X17322Y36931D1*
X17325Y36825D1*
X17322Y36719D1*
X17310Y36613D1*
X17292Y36508D1*
X17266Y36405D1*
X17233Y36304D1*
X17193Y36205D1*
X17146Y36109D1*
X17092Y36017D1*
X17032Y35929D1*
X16966Y35845D1*
X16894Y35766D1*
X16817Y35692D1*
X16735Y35623D1*
X16649Y35561D1*
X16558Y35504D1*
X16463Y35454D1*
X16365Y35411D1*
X16265Y35375D1*
X16162Y35345D1*
X16057Y35323D1*
X15951Y35308D1*
X15844Y35301D1*
X15737D1*
X15630Y35308D1*
X15524Y35323D1*
X15419Y35345D1*
X15316Y35375D1*
X15215Y35411D1*
X15117Y35454D1*
X15023Y35504D1*
X14932Y35561D1*
X14845Y35623D1*
X14763Y35692D1*
X14686Y35766D1*
X14614Y35845D1*
X14548Y35929D1*
X14488Y36017D1*
X14435Y36109D1*
X14388Y36205D1*
X14348Y36304D1*
X14314Y36405D1*
X14289Y36508D1*
X14270Y36613D1*
X14259Y36719D1*
X14255Y36825D1*
X16357Y36025D2*
X16772Y36013D1*
X14795Y35650D2*
Y37963D1*
X16559Y35818D2*
X16553Y36263D1*
X16733Y35275D2*
X14045D1*
Y38400D1*
X16670D1*
X17670Y37588D1*
Y37525D2*
Y36150D1*
Y36088D2*
X16733Y35275D1*
X18500Y23088D2*
X18504Y23194D1*
X18515Y23300D1*
X18534Y23405D1*
X18559Y23508D1*
X18593Y23609D1*
X18633Y23708D1*
X18680Y23803D1*
X18733Y23896D1*
X18793Y23984D1*
X18859Y24068D1*
X18931Y24147D1*
X19008Y24221D1*
X19090Y24289D1*
X19177Y24352D1*
X19268Y24408D1*
X19362Y24458D1*
X19460Y24501D1*
X19561Y24538D1*
X19664Y24567D1*
X19769Y24589D1*
X19875Y24604D1*
X19982Y24612D1*
X20089D1*
X20196Y24604D1*
X20302Y24589D1*
X20407Y24567D1*
X20510Y24538D1*
X20610Y24501D1*
X20708Y24458D1*
X20803Y24408D1*
X20894Y24352D1*
X20980Y24289D1*
X21062Y24221D1*
X21139Y24147D1*
X21211Y24068D1*
X21277Y23984D1*
X21337Y23896D1*
X21391Y23803D1*
X21438Y23708D1*
X21478Y23609D1*
X21511Y23508D1*
X21537Y23405D1*
X21555Y23300D1*
X21567Y23194D1*
X21570Y23088D1*
X21567Y22981D1*
X21555Y22875D1*
X21537Y22771D1*
X21511Y22667D1*
X21478Y22566D1*
X21438Y22467D1*
X21391Y22372D1*
X21337Y22279D1*
X21277Y22191D1*
X21211Y22107D1*
X21139Y22028D1*
X21062Y21954D1*
X20980Y21886D1*
X20894Y21823D1*
X20803Y21767D1*
X20708Y21717D1*
X20610Y21674D1*
X20510Y21637D1*
X20407Y21608D1*
X20302Y21586D1*
X20196Y21571D1*
X20089Y21564D1*
X19982D1*
X19875Y21571D1*
X19769Y21586D1*
X19664Y21608D1*
X19561Y21637D1*
X19460Y21674D1*
X19362Y21717D1*
X19268Y21767D1*
X19177Y21823D1*
X19090Y21886D1*
X19008Y21954D1*
X18931Y22028D1*
X18859Y22107D1*
X18793Y22191D1*
X18733Y22279D1*
X18680Y22372D1*
X18633Y22467D1*
X18593Y22566D1*
X18559Y22667D1*
X18534Y22771D1*
X18515Y22875D1*
X18504Y22981D1*
X18500Y23088D1*
X20602Y22288D2*
X21017Y22275D1*
X19040Y21913D2*
Y24225D1*
X20804Y22080D2*
X20798Y22525D1*
X20978Y21538D2*
X18290D1*
Y24663D1*
X20915D1*
X21915Y23850D1*
Y23788D2*
Y22413D1*
Y22350D2*
X20978Y21538D1*
X18500Y11308D2*
X18504Y11414D1*
X18515Y11520D1*
X18534Y11625D1*
X18559Y11728D1*
X18593Y11829D1*
X18633Y11928D1*
X18680Y12023D1*
X18733Y12116D1*
X18793Y12204D1*
X18859Y12288D1*
X18931Y12367D1*
X19008Y12441D1*
X19090Y12509D1*
X19177Y12572D1*
X19268Y12628D1*
X19362Y12678D1*
X19460Y12721D1*
X19561Y12758D1*
X19664Y12787D1*
X19769Y12809D1*
X19875Y12824D1*
X19982Y12832D1*
X20089D1*
X20196Y12824D1*
X20302Y12809D1*
X20407Y12787D1*
X20510Y12758D1*
X20610Y12721D1*
X20708Y12678D1*
X20803Y12628D1*
X20894Y12572D1*
X20980Y12509D1*
X21062Y12441D1*
X21139Y12367D1*
X21211Y12288D1*
X21277Y12204D1*
X21337Y12116D1*
X21391Y12023D1*
X21438Y11928D1*
X21478Y11829D1*
X21511Y11728D1*
X21537Y11625D1*
X21555Y11520D1*
X21567Y11414D1*
X21570Y11308D1*
X21567Y11201D1*
X21555Y11095D1*
X21537Y10991D1*
X21511Y10887D1*
X21478Y10786D1*
X21438Y10687D1*
X21391Y10592D1*
X21337Y10499D1*
X21277Y10411D1*
X21211Y10327D1*
X21139Y10248D1*
X21062Y10174D1*
X20980Y10106D1*
X20894Y10043D1*
X20803Y9987D1*
X20708Y9937D1*
X20610Y9894D1*
X20510Y9857D1*
X20407Y9828D1*
X20302Y9806D1*
X20196Y9791D1*
X20089Y9784D1*
X19982D1*
X19875Y9791D1*
X19769Y9806D1*
X19664Y9828D1*
X19561Y9857D1*
X19460Y9894D1*
X19362Y9937D1*
X19268Y9987D1*
X19177Y10043D1*
X19090Y10106D1*
X19008Y10174D1*
X18931Y10248D1*
X18859Y10327D1*
X18793Y10411D1*
X18733Y10499D1*
X18680Y10592D1*
X18633Y10687D1*
X18593Y10786D1*
X18559Y10887D1*
X18534Y10991D1*
X18515Y11095D1*
X18504Y11201D1*
X18500Y11308D1*
X20602Y10508D2*
X21017Y10495D1*
X19040Y10133D2*
Y12445D1*
X20804Y10300D2*
X20798Y10745D1*
X20978Y9758D2*
X18290D1*
Y12882D1*
X20915D1*
X21915Y12070D1*
Y12008D2*
Y10633D1*
Y10570D2*
X20978Y9758D1*
X9127Y17456D2*
X9266Y17317D1*
X9447Y17166D2*
X9586Y17027D1*
X10607Y16016D2*
X10746Y15877D1*
X10917Y15696D2*
X11056Y15557D1*
X14246Y14323D2*
X14107Y14184D1*
X14556Y14623D2*
X14417Y14484D1*
X16064Y17817D2*
X16203Y17956D1*
X16374Y18127D2*
X16513Y18266D1*
X15003Y21904D2*
X14864Y22043D1*
X14683Y22214D2*
X14544Y22353D1*
X10446Y22473D2*
X10307Y22334D1*
X10096Y22143D2*
X9957Y22004D1*
X8726Y20653D2*
X8587Y20514D1*
X5040Y7242D2*
Y7438D1*
X5115Y34722D2*
Y34918D1*
X27622Y35283D2*
Y35087D1*
X7057Y20079D2*
X6743D1*
X7637Y19739D2*
X7323D1*
X18947Y9253D2*
Y9056D1*
X22618Y6005D2*
X22815D1*
X22617Y9593D2*
Y9396D1*
X21226Y5256D2*
Y5453D1*
X19215Y17502D2*
Y17698D1*
X22580Y12659D2*
X22383D1*
X22492Y17478D2*
Y17281D1*
X21091Y13141D2*
Y13338D1*
X22851Y19674D2*
Y19478D1*
X26555Y22722D2*
Y22918D1*
X22522Y22265D2*
X22718D1*
X27068Y21325D2*
X26872D1*
X22422Y34245D2*
X22618D1*
X17635Y30772D2*
Y30968D1*
X22618Y31825D2*
X22422D1*
X18092Y32253D2*
X18288D1*
X24392Y35405D2*
X24588D1*
X18778Y37695D2*
X18582D1*
X9888Y26849D2*
X9692D1*
X8658Y29318D2*
X8462D1*
D38*
X11178Y43083D3*
X11679Y42991D2*
D10*
Y41810D1*
X11876D1*
Y42991D1*
X11679D1*
X10023Y29060D2*
Y29372D1*
X10055Y29060D2*
X10868D1*
Y29372D2*
Y29060D1*
X17188Y23190D2*
Y22878D1*
X17155Y23190D2*
X16343D1*
Y22878D2*
Y23190D1*
X8731Y39151D2*
G02X8731Y38839I31J-156D01*
G01*
Y39151D2*
X7546D1*
G02X7546Y39464I-31J156D01*
G01*
D38*
X7273Y15967D3*
X6733Y16019D2*
D10*
Y17200D1*
X6418Y16019D2*
Y17200D1*
X6733D2*
X6418D1*
X6733Y16019D2*
X6418D1*
X7385Y29416D2*
X7066D1*
X11315Y26944D2*
X10996D1*
X27030Y30131D2*
G02X27342Y30131I156J31D01*
G01*
X27030D2*
Y28946D1*
G02X26717Y28946I-156J-31D01*
G01*
X23360Y37981D2*
G02X23672Y37981I156J31D01*
G01*
X23360D2*
Y36796D1*
G02X23047Y36796I-156J-31D01*
G01*
X15216Y31081D2*
X14523D1*
X15232Y30754D2*
Y31081D1*
X17519D2*
X16826D1*
X17534Y30754D2*
Y31081D1*
X14792Y23745D2*
Y24080D1*
X15388Y23745D2*
X14787Y23743D1*
X16363Y24892D2*
Y24558D1*
X15767Y24892D2*
X16367Y24894D1*
X8026Y28319D2*
X7692D1*
X8026Y28916D2*
X8028Y28315D1*
X6880Y28168D2*
X7214D1*
X6880Y27572D2*
X6878Y28172D1*
X17090Y39021D2*
X17094Y42793D1*
X15377Y38997D2*
Y42805D1*
X18810Y40899D2*
X13629D1*
G36*
X16751Y42812D2*
X15527D1*
Y43316D1*
X16751D1*
Y42812D1*
G37*
X18827Y38995D2*
D10*
X13627D1*
Y42795D1*
X18827D1*
Y38995D1*
G36*
X14814Y39037D2*
X15346Y39041D1*
Y39568D1*
D1*
X14814Y39037D1*
G37*
G36*
X13649Y39564D2*
X13652Y39033D1*
X14180D1*
D1*
X13649Y39564D1*
G37*
G36*
X15393Y39549D2*
X15397Y39017D1*
X15924D1*
D1*
X15393Y39549D1*
G37*
G36*
X17137Y41454D2*
X17141Y40923D1*
X17668D1*
D1*
X17137Y41454D1*
G37*
G36*
X18267Y40938D2*
X18798Y40942D1*
Y41470D1*
D1*
X18267Y40938D1*
G37*
G36*
X16511Y39009D2*
X17042Y39013D1*
Y39541D1*
D1*
X16511Y39009D1*
G37*
X23690Y35990D2*
D10*
X27690D1*
Y39990D1*
X23690D1*
Y35990D1*
X3931Y15318D2*
Y10588D1*
X5737Y15330D2*
X7659D1*
X7658Y15338D2*
Y10608D1*
X5771D2*
X7659Y10605D1*
X12380Y28580D2*
X27880D1*
Y25260D1*
X12380D1*
Y28580D1*
X16410Y8290D2*
X9810D1*
Y11610D1*
X16410D1*
Y8290D1*
X25256Y13329D2*
X27674D1*
Y17227D1*
X25256D1*
Y13329D1*
G36*
X27311Y14048D2*
X27686D1*
Y16548D1*
X27311D1*
Y14048D1*
G37*
X25296Y7710D2*
D10*
X27714D1*
Y11607D1*
X25296D1*
Y7710D1*
G36*
X27351Y8428D2*
X27726D1*
Y10928D1*
X27351D1*
Y8428D1*
G37*
X4328Y30259D2*
D10*
X6760D1*
Y33094D1*
X4328D1*
Y30259D1*
G36*
X6408Y30693D2*
X6783D1*
Y32692D1*
X6408D1*
Y30693D1*
G37*
X4322Y27481D2*
D10*
X6795D1*
Y29323D1*
X4322D1*
Y27481D1*
G36*
X6411Y27871D2*
X6786D1*
Y28996D1*
X6411D1*
Y27871D1*
G37*
X5833Y23286D2*
D10*
Y26397D1*
X7171D1*
Y23286D1*
X5833D1*
X12470Y43132D2*
X13403D1*
Y42140D1*
X12470D1*
Y43132D1*
X7180Y40308D2*
X4483D1*
Y37493D1*
X7180D1*
Y40308D1*
D38*
X23841Y32531D3*
X26731Y32490D2*
D10*
X24606D1*
Y30490D1*
X26731D1*
Y32490D1*
D38*
X20248Y40110D3*
X23138Y40069D2*
D10*
X21013D1*
Y38069D1*
X23138D1*
Y40069D1*
D38*
X14476Y30287D3*
X14384Y29786D2*
D10*
X13203D1*
Y29589D1*
X14384D1*
Y29786D1*
D38*
X16783Y30290D3*
X16690Y29788D2*
D10*
X15509D1*
Y29592D1*
X16690D1*
Y29788D1*
D38*
X11008Y26457D3*
X10916Y25956D2*
D10*
X9735D1*
Y25759D1*
X10916D1*
Y25956D1*
D38*
X9642Y32183D3*
X9734Y32684D2*
D10*
X10915D1*
Y32881D1*
X9734D1*
Y32684D1*
D38*
X8042Y32183D3*
X8134Y32684D2*
D10*
X9315D1*
Y32881D1*
X8134D1*
Y32684D1*
X8823Y41828D2*
X8587D1*
X8823Y42812D2*
X8587D1*
X23929Y8913D2*
Y8677D1*
X22944Y8913D2*
Y8677D1*
X23024Y5977D2*
Y6213D1*
X24009Y5977D2*
Y6213D1*
X23804Y16798D2*
Y16562D1*
X22819Y16798D2*
Y16562D1*
Y13862D2*
Y14098D1*
X23804Y13862D2*
Y14098D1*
X23450Y24122D2*
X23686D1*
X23450Y23137D2*
X23686D1*
X26258Y23138D2*
X26022D1*
X26258Y24122D2*
X26022D1*
X21748Y29593D2*
X21512D1*
X21748Y30577D2*
X21512D1*
X18812D2*
X19048D1*
X18812Y29593D2*
X19048D1*
X10353Y4375D2*
X12415D1*
Y6750D1*
X10353D1*
Y4375D1*
X12480Y23239D2*
X16266Y19453D1*
X12480Y15666D1*
X8693Y19453D1*
X12480Y23239D1*
G36*
Y23199D2*
X12221Y22940D1*
X12480Y23199D1*
G37*
G36*
Y23239D2*
X12201Y22961D1*
X12759D1*
X12480Y23239D1*
G37*
D63*
X12110Y23533D3*
X21658Y5554D2*
D10*
G02X21658Y5554I0J-49D01*
G01*
X20771Y5515D2*
G03X20363Y5515I-204J0D01*
G01*
X21176D2*
X20771D1*
X20363D2*
X19957D1*
X21176Y9373D2*
X19957D1*
X21176Y5515D2*
Y9373D1*
X19957Y5515D2*
Y9373D1*
X21533Y13439D2*
G02X21533Y13439I0J-49D01*
G01*
X20646Y13400D2*
G03X20238Y13400I-204J0D01*
G01*
X21051D2*
X20646D1*
X20238D2*
X19832D1*
X21051Y17258D2*
X19832D1*
X21051Y13400D2*
Y17258D1*
X19832Y13400D2*
Y17258D1*
X26771Y21931D2*
G02X26771Y21931I49J0D01*
G01*
X26810Y21044D2*
G03X26810Y20636I0J-204D01*
G01*
Y21450D2*
Y21044D1*
Y20636D2*
Y20230D1*
X22951Y21450D2*
Y20230D1*
X26810Y21450D2*
X22951D1*
X26810Y20230D2*
X22951D1*
X18389Y31789D2*
G02X18389Y31789I-49J0D01*
G01*
X18350Y32676D2*
G03X18350Y33084I0J204D01*
G01*
Y32270D2*
Y32676D1*
Y33084D2*
Y33490D1*
X22209Y32270D2*
Y33490D1*
X18350Y32270D2*
X22209D1*
X18350Y33490D2*
X22209D1*
D38*
X11116Y40188D3*
X10777Y40302D2*
D10*
X9590D1*
Y41489D1*
X10777D1*
Y40302D1*
D38*
X10403Y37552D3*
X10414Y36659D2*
D10*
X7815D1*
X10414Y35557D2*
X7815D1*
Y36659D2*
Y35557D1*
X10414Y36659D2*
Y35557D1*
X15302Y34047D2*
Y32078D1*
X16562Y34047D2*
Y32078D1*
X15302D2*
X16562D1*
X15302Y34047D2*
X15735D1*
X16129D2*
X16562D1*
X15735D2*
G03X16129Y34047I197J0D01*
G01*
D38*
X24204Y35196D3*
X24152Y34656D2*
D10*
X22970D1*
X24152Y34341D2*
X22970D1*
Y34656D2*
Y34341D1*
X24152Y34656D2*
Y34341D1*
D38*
X18851Y36254D3*
X18903Y36794D2*
D10*
X20085D1*
X18903Y37109D2*
X20085D1*
Y36794D2*
Y37109D1*
X18903Y36794D2*
Y37109D1*
D74*
X5150Y21684D3*
X6563Y21577D2*
D10*
X5250D1*
Y19952D1*
X6563D1*
Y21577D1*
X25966Y34018D2*
D29*
X25968Y34042D1*
X25972Y34066D1*
X25979Y34090D1*
X25989Y34114D1*
X26002Y34137D1*
X26017Y34160D1*
X26036Y34182D1*
X26056Y34203D1*
X26080Y34223D1*
X26105Y34243D1*
X26133Y34261D1*
X26163Y34278D1*
X26194Y34293D1*
X26228Y34308D1*
X26263Y34321D1*
X26300Y34332D1*
X26337Y34342D1*
X26376Y34351D1*
X26416Y34357D1*
X26457Y34362D1*
X26498Y34366D1*
X26539Y34367D1*
X26581D1*
X26622Y34366D1*
X26663Y34362D1*
X26704Y34357D1*
X26743Y34351D1*
X26782Y34342D1*
X26820Y34332D1*
X26857Y34321D1*
X26892Y34308D1*
X26925Y34293D1*
X26957Y34278D1*
X26987Y34261D1*
X27015Y34243D1*
X27040Y34223D1*
X27063Y34203D1*
X27084Y34182D1*
X27102Y34160D1*
X27118Y34137D1*
X27131Y34114D1*
X27141Y34090D1*
X27148Y34066D1*
X27152Y34042D1*
X27154Y34018D1*
X27152Y33993D1*
X27148Y33969D1*
X27141Y33945D1*
X27131Y33921D1*
X27118Y33898D1*
X27102Y33875D1*
X27084Y33853D1*
X27063Y33832D1*
X27040Y33812D1*
X27015Y33792D1*
X26987Y33774D1*
X26957Y33757D1*
X26925Y33742D1*
X26892Y33727D1*
X26857Y33714D1*
X26820Y33703D1*
X26782Y33693D1*
X26743Y33685D1*
X26704Y33678D1*
X26663Y33673D1*
X26622Y33669D1*
X26581Y33668D1*
X26539D1*
X26498Y33669D1*
X26457Y33673D1*
X26416Y33678D1*
X26376Y33685D1*
X26337Y33693D1*
X26300Y33703D1*
X26263Y33714D1*
X26228Y33727D1*
X26194Y33742D1*
X26163Y33757D1*
X26133Y33774D1*
X26105Y33792D1*
X26080Y33812D1*
X26056Y33832D1*
X26036Y33853D1*
X26017Y33875D1*
X26002Y33898D1*
X25989Y33921D1*
X25979Y33945D1*
X25972Y33969D1*
X25968Y33993D1*
X25966Y34018D1*
D30*
X7642Y23262D3*
D31*
X16465Y11980D3*
X12265Y24860D3*
X10677Y38757D2*
D12*
X10668Y38776D1*
X10648Y38795D1*
X10629Y38804D1*
X10591D1*
X10572Y38795D1*
X10553Y38776D1*
X10543Y38757D1*
X10534Y38728D1*
Y38680D1*
X10543Y38651D1*
X10553Y38632D1*
X10572Y38613D1*
X10591Y38603D1*
X10629D1*
X10648Y38613D1*
X10668Y38632D1*
X10677Y38651D1*
X10739Y38766D2*
X10758Y38776D1*
X10787Y38804D1*
Y38603D1*
X9299Y38718D2*
X9289Y38737D1*
X9270Y38756D1*
X9251Y38765D1*
X9213D1*
X9193Y38756D1*
X9174Y38737D1*
X9165Y38718D1*
X9155Y38689D1*
Y38641D1*
X9165Y38612D1*
X9174Y38593D1*
X9193Y38574D1*
X9213Y38564D1*
X9251D1*
X9270Y38574D1*
X9289Y38593D1*
X9299Y38612D1*
X9370Y38717D2*
Y38727D1*
X9380Y38746D1*
X9389Y38756D1*
X9408Y38765D1*
X9446D1*
X9466Y38756D1*
X9475Y38746D1*
X9485Y38727D1*
Y38708D1*
X9475Y38689D1*
X9456Y38660D1*
X9360Y38564D1*
X9494D1*
X10789Y36068D2*
X10779Y36087D1*
X10760Y36107D1*
X10741Y36116D1*
X10703D1*
X10684Y36107D1*
X10665Y36087D1*
X10655Y36068D1*
X10645Y36040D1*
Y35992D1*
X10655Y35963D1*
X10665Y35944D1*
X10684Y35925D1*
X10703Y35915D1*
X10741D1*
X10760Y35925D1*
X10779Y35944D1*
X10789Y35963D1*
X10870Y36116D2*
X10975D1*
X10918Y36039D1*
X10946D1*
X10965Y36030D1*
X10975Y36020D1*
X10985Y35992D1*
Y35973D1*
X10975Y35944D1*
X10956Y35925D1*
X10927Y35915D1*
X10898D1*
X10870Y35925D1*
X10860Y35934D1*
X10851Y35953D1*
X12635Y41264D2*
X12626Y41283D1*
X12606Y41302D1*
X12587Y41312D1*
X12549D1*
X12530Y41302D1*
X12511Y41283D1*
X12501Y41264D1*
X12492Y41235D1*
Y41187D1*
X12501Y41159D1*
X12511Y41140D1*
X12530Y41121D1*
X12549Y41111D1*
X12587D1*
X12606Y41121D1*
X12626Y41140D1*
X12635Y41159D1*
X12793Y41111D2*
Y41312D1*
X12697Y41178D1*
X12840D1*
X12650Y40427D2*
X12640Y40446D1*
X12621Y40465D1*
X12602Y40474D1*
X12564D1*
X12545Y40465D1*
X12526Y40446D1*
X12516Y40427D1*
X12506Y40398D1*
Y40350D1*
X12516Y40321D1*
X12526Y40302D1*
X12545Y40283D1*
X12564Y40273D1*
X12602D1*
X12621Y40283D1*
X12640Y40302D1*
X12650Y40321D1*
X12826Y40474D2*
X12731D1*
X12721Y40388D1*
X12731Y40398D1*
X12760Y40407D1*
X12788D1*
X12817Y40398D1*
X12836Y40379D1*
X12846Y40350D1*
Y40331D1*
X12836Y40302D1*
X12817Y40283D1*
X12788Y40273D1*
X12760D1*
X12731Y40283D1*
X12721Y40293D1*
X12712Y40312D1*
X8796Y40011D2*
X8786Y40030D1*
X8767Y40049D1*
X8748Y40058D1*
X8710D1*
X8691Y40049D1*
X8672Y40030D1*
X8662Y40011D1*
X8652Y39982D1*
Y39934D1*
X8662Y39905D1*
X8672Y39886D1*
X8691Y39867D1*
X8710Y39857D1*
X8748D1*
X8767Y39867D1*
X8786Y39886D1*
X8796Y39905D1*
X8972Y40030D2*
X8963Y40049D1*
X8934Y40058D1*
X8915D1*
X8886Y40049D1*
X8867Y40020D1*
X8858Y39972D1*
Y39924D1*
X8867Y39886D1*
X8886Y39867D1*
X8915Y39857D1*
X8925D1*
X8953Y39867D1*
X8972Y39886D1*
X8982Y39915D1*
Y39924D1*
X8972Y39953D1*
X8953Y39972D1*
X8925Y39982D1*
X8915D1*
X8886Y39972D1*
X8867Y39953D1*
X8858Y39924D1*
X10660Y38467D2*
X10650Y38486D1*
X10631Y38505D1*
X10612Y38514D1*
X10574D1*
X10555Y38505D1*
X10536Y38486D1*
X10526Y38467D1*
X10516Y38438D1*
Y38390D1*
X10526Y38361D1*
X10536Y38342D1*
X10555Y38323D1*
X10574Y38313D1*
X10612D1*
X10631Y38323D1*
X10650Y38342D1*
X10660Y38361D1*
X10760Y38313D2*
X10856Y38514D1*
X10722D1*
X8884Y30895D2*
X8874Y30914D1*
X8855Y30934D1*
X8836Y30943D1*
X8798D1*
X8779Y30934D1*
X8760Y30914D1*
X8750Y30895D1*
X8741Y30867D1*
Y30819D1*
X8750Y30790D1*
X8760Y30771D1*
X8779Y30752D1*
X8798Y30742D1*
X8836D1*
X8855Y30752D1*
X8874Y30771D1*
X8884Y30790D1*
X8993Y30943D2*
X8965Y30934D1*
X8955Y30914D1*
Y30895D1*
X8965Y30876D1*
X8984Y30867D1*
X9022Y30857D1*
X9051Y30848D1*
X9070Y30828D1*
X9079Y30809D1*
Y30781D1*
X9070Y30762D1*
X9060Y30752D1*
X9032Y30742D1*
X8993D1*
X8965Y30752D1*
X8955Y30762D1*
X8946Y30781D1*
Y30809D1*
X8955Y30828D1*
X8974Y30848D1*
X9003Y30857D1*
X9041Y30867D1*
X9060Y30876D1*
X9070Y30895D1*
Y30914D1*
X9060Y30934D1*
X9032Y30943D1*
X8993D1*
X7385Y31437D2*
X7366Y31428D1*
X7347Y31408D1*
X7337Y31389D1*
Y31351D1*
X7347Y31332D1*
X7366Y31313D1*
X7385Y31303D1*
X7414Y31294D1*
X7462D1*
X7490Y31303D1*
X7509Y31313D1*
X7528Y31332D1*
X7538Y31351D1*
Y31389D1*
X7528Y31408D1*
X7509Y31428D1*
X7490Y31437D1*
X7404Y31623D2*
X7433Y31614D1*
X7452Y31595D1*
X7462Y31566D1*
Y31556D1*
X7452Y31528D1*
X7433Y31509D1*
X7404Y31499D1*
X7395D1*
X7366Y31509D1*
X7347Y31528D1*
X7337Y31556D1*
Y31566D1*
X7347Y31595D1*
X7366Y31614D1*
X7404Y31623D1*
X7452D1*
X7500Y31614D1*
X7529Y31595D1*
X7538Y31566D1*
Y31547D1*
X7529Y31518D1*
X7509Y31509D1*
X9869Y30684D2*
X9860Y30703D1*
X9840Y30722D1*
X9821Y30731D1*
X9783D1*
X9764Y30722D1*
X9745Y30703D1*
X9735Y30684D1*
X9726Y30655D1*
Y30607D1*
X9735Y30578D1*
X9745Y30559D1*
X9764Y30540D1*
X9783Y30530D1*
X9821D1*
X9840Y30540D1*
X9860Y30559D1*
X9869Y30578D1*
X9931Y30693D2*
X9950Y30703D1*
X9979Y30731D1*
Y30530D1*
X10098Y30731D2*
X10069Y30722D1*
X10050Y30693D1*
X10040Y30645D1*
Y30616D1*
X10050Y30569D1*
X10069Y30540D1*
X10098Y30530D1*
X10117D1*
X10146Y30540D1*
X10165Y30569D1*
X10174Y30616D1*
Y30645D1*
X10165Y30693D1*
X10146Y30722D1*
X10117Y30731D1*
X10098D1*
X10165Y30693D2*
X10050Y30569D1*
X17584Y38028D2*
X17574Y38047D1*
X17555Y38066D1*
X17536Y38076D1*
X17498D1*
X17478Y38066D1*
X17459Y38047D1*
X17450Y38028D1*
X17440Y37999D1*
Y37951D1*
X17450Y37923D1*
X17459Y37903D1*
X17478Y37884D1*
X17498Y37875D1*
X17536D1*
X17555Y37884D1*
X17574Y37903D1*
X17584Y37923D1*
X17645Y38037D2*
X17665Y38047D1*
X17693Y38075D1*
Y37875D1*
X17755Y38037D2*
X17774Y38047D1*
X17803Y38075D1*
Y37875D1*
X21606Y24454D2*
X21596Y24473D1*
X21577Y24493D1*
X21558Y24502D1*
X21520D1*
X21500Y24493D1*
X21481Y24473D1*
X21472Y24454D1*
X21462Y24426D1*
Y24378D1*
X21472Y24349D1*
X21481Y24330D1*
X21500Y24311D1*
X21520Y24301D1*
X21558D1*
X21577Y24311D1*
X21596Y24330D1*
X21606Y24349D1*
X21667Y24464D2*
X21687Y24473D1*
X21715Y24502D1*
Y24301D1*
X21787Y24454D2*
Y24464D1*
X21796Y24483D1*
X21806Y24492D1*
X21825Y24502D1*
X21863D1*
X21882Y24492D1*
X21892Y24483D1*
X21902Y24464D1*
Y24445D1*
X21892Y24425D1*
X21873Y24397D1*
X21777Y24301D1*
X21911D1*
X22279Y11423D2*
X22270Y11442D1*
X22251Y11462D1*
X22232Y11471D1*
X22193D1*
X22174Y11462D1*
X22155Y11442D1*
X22146Y11423D1*
X22136Y11395D1*
Y11347D1*
X22146Y11318D1*
X22155Y11299D1*
X22174Y11280D1*
X22193Y11270D1*
X22232D1*
X22251Y11280D1*
X22270Y11299D1*
X22279Y11318D1*
X22341Y11433D2*
X22360Y11442D1*
X22389Y11471D1*
Y11270D1*
X22470Y11471D2*
X22575D1*
X22518Y11394D1*
X22547D1*
X22566Y11385D1*
X22575Y11375D1*
X22585Y11347D1*
Y11328D1*
X22575Y11299D1*
X22556Y11280D1*
X22527Y11270D1*
X22499D1*
X22470Y11280D1*
X22461Y11289D1*
X22451Y11308D1*
X8087Y16594D2*
X8077Y16613D1*
X8058Y16632D1*
X8039Y16642D1*
X8001D1*
X7981Y16632D1*
X7962Y16613D1*
X7953Y16594D1*
X7943Y16565D1*
Y16517D1*
X7953Y16489D1*
X7962Y16469D1*
X7981Y16450D1*
X8001Y16441D1*
X8039D1*
X8058Y16450D1*
X8077Y16469D1*
X8087Y16489D1*
X8148Y16603D2*
X8168Y16613D1*
X8196Y16641D1*
Y16441D1*
X8354D2*
Y16641D1*
X8258Y16508D1*
X8402D1*
X8470Y16266D2*
X8460Y16285D1*
X8441Y16305D1*
X8422Y16314D1*
X8384D1*
X8365Y16305D1*
X8346Y16285D1*
X8336Y16266D1*
X8326Y16238D1*
Y16190D1*
X8336Y16161D1*
X8346Y16142D1*
X8365Y16123D1*
X8384Y16113D1*
X8422D1*
X8441Y16123D1*
X8460Y16142D1*
X8470Y16161D1*
X8532Y16276D2*
X8551Y16285D1*
X8580Y16314D1*
Y16113D1*
X8756Y16314D2*
X8661D1*
X8651Y16228D1*
X8661Y16237D1*
X8689Y16247D1*
X8718D1*
X8747Y16237D1*
X8766Y16218D1*
X8775Y16190D1*
Y16171D1*
X8766Y16142D1*
X8747Y16123D1*
X8718Y16113D1*
X8689D1*
X8661Y16123D1*
X8651Y16132D1*
X8641Y16151D1*
X8597Y15855D2*
X8588Y15874D1*
X8569Y15893D1*
X8549Y15903D1*
X8511D1*
X8492Y15893D1*
X8473Y15874D1*
X8463Y15855D1*
X8454Y15826D1*
Y15778D1*
X8463Y15750D1*
X8473Y15730D1*
X8492Y15711D1*
X8511Y15702D1*
X8549D1*
X8569Y15711D1*
X8588Y15730D1*
X8597Y15750D1*
X8659Y15864D2*
X8678Y15874D1*
X8707Y15902D1*
Y15702D1*
X8883Y15874D2*
X8874Y15893D1*
X8845Y15902D1*
X8826D1*
X8797Y15893D1*
X8778Y15864D1*
X8769Y15816D1*
Y15769D1*
X8778Y15730D1*
X8797Y15711D1*
X8826Y15702D1*
X8836D1*
X8864Y15711D1*
X8883Y15730D1*
X8893Y15759D1*
Y15769D1*
X8883Y15797D1*
X8864Y15816D1*
X8836Y15826D1*
X8826D1*
X8797Y15816D1*
X8778Y15797D1*
X8769Y15769D1*
X9192Y15229D2*
X9183Y15248D1*
X9164Y15267D1*
X9145Y15277D1*
X9106D1*
X9087Y15267D1*
X9068Y15248D1*
X9058Y15229D1*
X9049Y15200D1*
Y15152D1*
X9058Y15124D1*
X9068Y15104D1*
X9087Y15085D1*
X9106Y15076D1*
X9145D1*
X9164Y15085D1*
X9183Y15104D1*
X9192Y15124D1*
X9254Y15238D2*
X9273Y15248D1*
X9302Y15276D1*
Y15076D1*
X9402D2*
X9498Y15276D1*
X9364D1*
X9640Y15030D2*
X9630Y15049D1*
X9611Y15068D1*
X9592Y15078D1*
X9554D1*
X9535Y15068D1*
X9516Y15049D1*
X9506Y15030D1*
X9496Y15001D1*
Y14953D1*
X9506Y14925D1*
X9516Y14905D1*
X9535Y14886D1*
X9554Y14877D1*
X9592D1*
X9611Y14886D1*
X9630Y14905D1*
X9640Y14925D1*
X9702Y15039D2*
X9721Y15049D1*
X9750Y15077D1*
Y14877D1*
X9859Y15077D2*
X9831Y15068D1*
X9821Y15049D1*
Y15030D1*
X9831Y15011D1*
X9850Y15001D1*
X9888Y14991D1*
X9917Y14982D1*
X9936Y14963D1*
X9945Y14944D1*
Y14915D1*
X9936Y14896D1*
X9926Y14886D1*
X9897Y14877D1*
X9859D1*
X9831Y14886D1*
X9821Y14896D1*
X9811Y14915D1*
Y14944D1*
X9821Y14963D1*
X9840Y14982D1*
X9869Y14991D1*
X9907Y15001D1*
X9926Y15011D1*
X9936Y15030D1*
Y15049D1*
X9926Y15068D1*
X9897Y15077D1*
X9859D1*
X9875Y14730D2*
X9865Y14749D1*
X9846Y14768D1*
X9827Y14778D1*
X9789D1*
X9769Y14768D1*
X9750Y14749D1*
X9741Y14730D1*
X9731Y14701D1*
Y14653D1*
X9741Y14625D1*
X9750Y14605D1*
X9769Y14586D1*
X9789Y14577D1*
X9827D1*
X9846Y14586D1*
X9865Y14605D1*
X9875Y14625D1*
X9936Y14739D2*
X9956Y14749D1*
X9984Y14777D1*
Y14577D1*
X10171Y14711D2*
X10161Y14682D1*
X10142Y14663D1*
X10113Y14653D1*
X10104D1*
X10075Y14663D1*
X10056Y14682D1*
X10046Y14711D1*
Y14720D1*
X10056Y14749D1*
X10075Y14768D1*
X10104Y14777D1*
X10113D1*
X10142Y14768D1*
X10161Y14749D1*
X10171Y14711D1*
Y14663D1*
X10161Y14615D1*
X10142Y14586D1*
X10113Y14577D1*
X10094D1*
X10065Y14586D1*
X10056Y14605D1*
X14367Y14158D2*
X14357Y14177D1*
X14338Y14196D1*
X14319Y14206D1*
X14281D1*
X14262Y14196D1*
X14243Y14177D1*
X14233Y14158D1*
X14223Y14129D1*
Y14082D1*
X14233Y14053D1*
X14243Y14034D1*
X14262Y14015D1*
X14281Y14005D1*
X14319D1*
X14338Y14015D1*
X14357Y14034D1*
X14367Y14053D1*
X14438Y14158D2*
Y14168D1*
X14448Y14187D1*
X14457Y14196D1*
X14477Y14206D1*
X14515D1*
X14534Y14196D1*
X14543Y14187D1*
X14553Y14168D1*
Y14148D1*
X14543Y14129D1*
X14524Y14101D1*
X14429Y14005D1*
X14563D1*
X14682Y14206D2*
X14653Y14196D1*
X14634Y14168D1*
X14624Y14120D1*
Y14091D1*
X14634Y14043D1*
X14653Y14015D1*
X14682Y14005D1*
X14701D1*
X14730Y14015D1*
X14749Y14043D1*
X14758Y14091D1*
Y14120D1*
X14749Y14168D1*
X14730Y14196D1*
X14701Y14206D1*
X14682D1*
X14749Y14168D2*
X14634Y14043D1*
X14640Y14608D2*
X14630Y14627D1*
X14611Y14646D1*
X14592Y14656D1*
X14554D1*
X14535Y14646D1*
X14516Y14627D1*
X14506Y14608D1*
X14496Y14579D1*
Y14532D1*
X14506Y14503D1*
X14516Y14484D1*
X14535Y14465D1*
X14554Y14455D1*
X14592D1*
X14611Y14465D1*
X14630Y14484D1*
X14640Y14503D1*
X14711Y14608D2*
Y14618D1*
X14721Y14637D1*
X14730Y14646D1*
X14750Y14656D1*
X14788D1*
X14807Y14646D1*
X14816Y14637D1*
X14826Y14618D1*
Y14598D1*
X14816Y14579D1*
X14797Y14551D1*
X14702Y14455D1*
X14836D1*
X14897Y14618D2*
X14917Y14627D1*
X14945Y14656D1*
Y14455D1*
X17033Y17041D2*
X17023Y17060D1*
X17004Y17079D1*
X16985Y17088D1*
X16947D1*
X16927Y17079D1*
X16908Y17060D1*
X16899Y17041D1*
X16889Y17012D1*
Y16964D1*
X16899Y16935D1*
X16908Y16916D1*
X16927Y16897D1*
X16947Y16887D1*
X16985D1*
X17004Y16897D1*
X17023Y16916D1*
X17033Y16935D1*
X17104Y17040D2*
Y17050D1*
X17114Y17069D1*
X17123Y17079D1*
X17142Y17088D1*
X17181D1*
X17200Y17079D1*
X17209Y17069D1*
X17219Y17050D1*
Y17031D1*
X17209Y17012D1*
X17190Y16983D1*
X17094Y16887D1*
X17228D1*
X17300Y17040D2*
Y17050D1*
X17309Y17069D1*
X17319Y17079D1*
X17338Y17088D1*
X17376D1*
X17395Y17079D1*
X17405Y17069D1*
X17415Y17050D1*
Y17031D1*
X17405Y17012D1*
X17386Y16983D1*
X17290Y16887D1*
X17424D1*
X17375Y17470D2*
X17366Y17489D1*
X17346Y17508D1*
X17327Y17518D1*
X17289D1*
X17270Y17508D1*
X17251Y17489D1*
X17241Y17470D1*
X17232Y17441D1*
Y17393D1*
X17241Y17365D1*
X17251Y17345D1*
X17270Y17326D1*
X17289Y17317D1*
X17327D1*
X17346Y17326D1*
X17366Y17345D1*
X17375Y17365D1*
X17447Y17470D2*
Y17479D1*
X17456Y17498D1*
X17466Y17508D1*
X17485Y17517D1*
X17523D1*
X17542Y17508D1*
X17552Y17498D1*
X17561Y17479D1*
Y17460D1*
X17552Y17441D1*
X17533Y17412D1*
X17437Y17317D1*
X17571D1*
X17652Y17517D2*
X17757D1*
X17700Y17441D1*
X17728D1*
X17747Y17431D1*
X17757Y17422D1*
X17767Y17393D1*
Y17374D1*
X17757Y17345D1*
X17738Y17326D1*
X17709Y17317D1*
X17680D1*
X17652Y17326D1*
X17642Y17336D1*
X17633Y17355D1*
X15298Y21976D2*
X15288Y21995D1*
X15269Y22014D1*
X15250Y22023D1*
X15212D1*
X15193Y22014D1*
X15174Y21995D1*
X15164Y21976D1*
X15154Y21947D1*
Y21899D1*
X15164Y21870D1*
X15174Y21851D1*
X15193Y21832D1*
X15212Y21823D1*
X15250D1*
X15269Y21832D1*
X15288Y21851D1*
X15298Y21870D1*
X15369Y21976D2*
Y21985D1*
X15379Y22004D1*
X15388Y22014D1*
X15408Y22023D1*
X15446D1*
X15465Y22014D1*
X15474Y22004D1*
X15484Y21985D1*
Y21966D1*
X15474Y21947D1*
X15455Y21918D1*
X15360Y21823D1*
X15494D1*
X15651D2*
Y22023D1*
X15555Y21890D1*
X15699D1*
X14595Y22958D2*
X14586Y22977D1*
X14566Y22996D1*
X14547Y23006D1*
X14509D1*
X14490Y22996D1*
X14471Y22977D1*
X14461Y22958D1*
X14452Y22929D1*
Y22882D1*
X14461Y22853D1*
X14471Y22834D1*
X14490Y22815D1*
X14509Y22805D1*
X14547D1*
X14566Y22815D1*
X14586Y22834D1*
X14595Y22853D1*
X14667Y22958D2*
Y22968D1*
X14676Y22987D1*
X14686Y22996D1*
X14705Y23006D1*
X14743D1*
X14762Y22996D1*
X14772Y22987D1*
X14781Y22968D1*
Y22948D1*
X14772Y22929D1*
X14753Y22901D1*
X14657Y22805D1*
X14791D1*
X14967Y23006D2*
X14872D1*
X14862Y22920D1*
X14872Y22929D1*
X14901Y22939D1*
X14929D1*
X14958Y22929D1*
X14977Y22910D1*
X14987Y22882D1*
Y22862D1*
X14977Y22834D1*
X14958Y22815D1*
X14929Y22805D1*
X14901D1*
X14872Y22815D1*
X14862Y22824D1*
X14853Y22843D1*
X10187Y23077D2*
X10178Y23096D1*
X10158Y23116D1*
X10139Y23125D1*
X10101D1*
X10082Y23116D1*
X10063Y23096D1*
X10053Y23077D1*
X10044Y23049D1*
Y23001D1*
X10053Y22972D1*
X10063Y22953D1*
X10082Y22934D1*
X10101Y22924D1*
X10139D1*
X10158Y22934D1*
X10178Y22953D1*
X10187Y22972D1*
X10259Y23077D2*
Y23087D1*
X10268Y23106D1*
X10278Y23115D1*
X10297Y23125D1*
X10335D1*
X10354Y23115D1*
X10364Y23106D1*
X10373Y23087D1*
Y23068D1*
X10364Y23048D1*
X10345Y23020D1*
X10249Y22924D1*
X10383D1*
X10559Y23096D2*
X10550Y23115D1*
X10521Y23125D1*
X10502D1*
X10473Y23115D1*
X10454Y23087D1*
X10445Y23039D1*
Y22991D1*
X10454Y22953D1*
X10473Y22934D1*
X10502Y22924D1*
X10512D1*
X10540Y22934D1*
X10559Y22953D1*
X10569Y22982D1*
Y22991D1*
X10559Y23020D1*
X10540Y23039D1*
X10512Y23048D1*
X10502D1*
X10473Y23039D1*
X10454Y23020D1*
X10445Y22991D1*
X9107Y22308D2*
X9097Y22327D1*
X9078Y22346D1*
X9059Y22356D1*
X9021D1*
X9002Y22346D1*
X8983Y22327D1*
X8973Y22308D1*
X8963Y22279D1*
Y22232D1*
X8973Y22203D1*
X8983Y22184D1*
X9002Y22165D1*
X9021Y22155D1*
X9059D1*
X9078Y22165D1*
X9097Y22184D1*
X9107Y22203D1*
X9178Y22308D2*
Y22318D1*
X9188Y22337D1*
X9197Y22346D1*
X9217Y22356D1*
X9255D1*
X9274Y22346D1*
X9283Y22337D1*
X9293Y22318D1*
Y22298D1*
X9283Y22279D1*
X9264Y22251D1*
X9169Y22155D1*
X9303D1*
X9403D2*
X9498Y22356D1*
X9364D1*
X8457Y21248D2*
X8447Y21267D1*
X8428Y21286D1*
X8409Y21296D1*
X8371D1*
X8352Y21286D1*
X8333Y21267D1*
X8323Y21248D1*
X8313Y21219D1*
Y21172D1*
X8323Y21143D1*
X8333Y21124D1*
X8352Y21105D1*
X8371Y21095D1*
X8409D1*
X8428Y21105D1*
X8447Y21124D1*
X8457Y21143D1*
X8528Y21248D2*
Y21258D1*
X8538Y21277D1*
X8547Y21286D1*
X8567Y21296D1*
X8605D1*
X8624Y21286D1*
X8633Y21277D1*
X8643Y21258D1*
Y21238D1*
X8633Y21219D1*
X8614Y21191D1*
X8519Y21095D1*
X8653D1*
X8762Y21296D2*
X8734Y21286D1*
X8724Y21267D1*
Y21248D1*
X8734Y21229D1*
X8753Y21219D1*
X8791Y21210D1*
X8820Y21200D1*
X8839Y21181D1*
X8848Y21162D1*
Y21133D1*
X8839Y21114D1*
X8829Y21105D1*
X8800Y21095D1*
X8762D1*
X8734Y21105D1*
X8724Y21114D1*
X8714Y21133D1*
Y21162D1*
X8724Y21181D1*
X8743Y21200D1*
X8772Y21210D1*
X8810Y21219D1*
X8829Y21229D1*
X8839Y21248D1*
Y21267D1*
X8829Y21286D1*
X8800Y21296D1*
X8762D1*
X6596Y7376D2*
X6586Y7395D1*
X6567Y7414D1*
X6548Y7424D1*
X6510D1*
X6490Y7414D1*
X6471Y7395D1*
X6462Y7376D1*
X6452Y7347D1*
Y7299D1*
X6462Y7271D1*
X6471Y7252D1*
X6490Y7233D1*
X6510Y7223D1*
X6548D1*
X6567Y7233D1*
X6586Y7252D1*
X6596Y7271D1*
X6667Y7376D2*
Y7385D1*
X6677Y7405D1*
X6686Y7414D1*
X6705Y7424D1*
X6744D1*
X6763Y7414D1*
X6772Y7405D1*
X6782Y7385D1*
Y7366D1*
X6772Y7347D1*
X6753Y7319D1*
X6657Y7223D1*
X6791D1*
X6978Y7357D2*
X6968Y7328D1*
X6949Y7309D1*
X6920Y7299D1*
X6911D1*
X6882Y7309D1*
X6863Y7328D1*
X6853Y7357D1*
Y7366D1*
X6863Y7395D1*
X6882Y7414D1*
X6911Y7424D1*
X6920D1*
X6949Y7414D1*
X6968Y7395D1*
X6978Y7357D1*
Y7309D1*
X6968Y7261D1*
X6949Y7232D1*
X6920Y7223D1*
X6901D1*
X6872Y7232D1*
X6863Y7252D1*
X6563Y34857D2*
X6554Y34876D1*
X6534Y34895D1*
X6515Y34904D1*
X6477D1*
X6458Y34895D1*
X6439Y34876D1*
X6429Y34857D1*
X6420Y34828D1*
Y34780D1*
X6429Y34751D1*
X6439Y34732D1*
X6458Y34713D1*
X6477Y34703D1*
X6515D1*
X6534Y34713D1*
X6554Y34732D1*
X6563Y34751D1*
X6644Y34904D2*
X6749D1*
X6692Y34828D1*
X6721D1*
X6740Y34818D1*
X6749Y34809D1*
X6759Y34780D1*
Y34761D1*
X6749Y34732D1*
X6730Y34713D1*
X6701Y34703D1*
X6673D1*
X6644Y34713D1*
X6635Y34723D1*
X6625Y34742D1*
X6878Y34904D2*
X6849Y34895D1*
X6830Y34866D1*
X6821Y34818D1*
Y34789D1*
X6830Y34742D1*
X6849Y34713D1*
X6878Y34703D1*
X6897D1*
X6926Y34713D1*
X6945Y34742D1*
X6955Y34789D1*
Y34818D1*
X6945Y34866D1*
X6926Y34895D1*
X6897Y34904D1*
X6878D1*
X6945Y34866D2*
X6830Y34742D1*
X25889Y35222D2*
X25880Y35241D1*
X25861Y35260D1*
X25842Y35269D1*
X25803D1*
X25784Y35260D1*
X25765Y35241D1*
X25755Y35222D1*
X25746Y35193D1*
Y35145D1*
X25755Y35116D1*
X25765Y35097D1*
X25784Y35078D1*
X25803Y35068D1*
X25842D1*
X25861Y35078D1*
X25880Y35097D1*
X25889Y35116D1*
X25970Y35269D2*
X26075D1*
X26018Y35193D1*
X26047D1*
X26066Y35183D1*
X26075Y35174D1*
X26085Y35145D1*
Y35126D1*
X26075Y35097D1*
X26056Y35078D1*
X26028Y35068D1*
X25999D1*
X25970Y35078D1*
X25961Y35088D1*
X25951Y35107D1*
X26147Y35231D2*
X26166Y35241D1*
X26195Y35269D1*
Y35068D1*
X6786Y21824D2*
X6777Y21843D1*
X6757Y21862D1*
X6738Y21871D1*
X6700D1*
X6681Y21862D1*
X6662Y21843D1*
X6652Y21824D1*
X6643Y21795D1*
Y21747D1*
X6652Y21718D1*
X6662Y21699D1*
X6681Y21680D1*
X6700Y21670D1*
X6738D1*
X6757Y21680D1*
X6777Y21699D1*
X6786Y21718D1*
X6867Y21871D2*
X6972D1*
X6915Y21795D1*
X6943D1*
X6963Y21785D1*
X6972Y21776D1*
X6982Y21747D1*
Y21728D1*
X6972Y21699D1*
X6953Y21680D1*
X6924Y21670D1*
X6896D1*
X6867Y21680D1*
X6857Y21690D1*
X6848Y21709D1*
X7053Y21823D2*
Y21833D1*
X7063Y21852D1*
X7072Y21862D1*
X7091Y21871D1*
X7130D1*
X7149Y21862D1*
X7158Y21852D1*
X7168Y21833D1*
Y21814D1*
X7158Y21795D1*
X7139Y21766D1*
X7043Y21670D1*
X7177D1*
X7356Y21514D2*
X7347Y21533D1*
X7327Y21552D1*
X7308Y21561D1*
X7270D1*
X7251Y21552D1*
X7232Y21533D1*
X7222Y21514D1*
X7213Y21485D1*
Y21437D1*
X7222Y21408D1*
X7232Y21389D1*
X7251Y21370D1*
X7270Y21360D1*
X7308D1*
X7327Y21370D1*
X7347Y21389D1*
X7356Y21408D1*
X7437Y21561D2*
X7542D1*
X7485Y21485D1*
X7513D1*
X7533Y21475D1*
X7542Y21466D1*
X7552Y21437D1*
Y21418D1*
X7542Y21389D1*
X7523Y21370D1*
X7494Y21360D1*
X7466D1*
X7437Y21370D1*
X7427Y21380D1*
X7418Y21399D1*
X7633Y21561D2*
X7738D1*
X7680Y21485D1*
X7709D1*
X7728Y21475D1*
X7738Y21466D1*
X7747Y21437D1*
Y21418D1*
X7738Y21389D1*
X7719Y21370D1*
X7690Y21360D1*
X7661D1*
X7633Y21370D1*
X7623Y21380D1*
X7613Y21399D1*
X17267Y9211D2*
X17257Y9230D1*
X17238Y9250D1*
X17219Y9259D1*
X17181D1*
X17161Y9250D1*
X17142Y9230D1*
X17133Y9211D1*
X17123Y9183D1*
Y9135D1*
X17133Y9106D1*
X17142Y9087D1*
X17161Y9068D1*
X17181Y9058D1*
X17219D1*
X17238Y9068D1*
X17257Y9087D1*
X17267Y9106D1*
X17348Y9259D2*
X17453D1*
X17395Y9182D1*
X17424D1*
X17443Y9173D1*
X17453Y9163D1*
X17462Y9135D1*
Y9116D1*
X17453Y9087D1*
X17434Y9068D1*
X17405Y9058D1*
X17376D1*
X17348Y9068D1*
X17338Y9077D1*
X17328Y9096D1*
X17620Y9058D2*
Y9259D1*
X17524Y9125D1*
X17668D1*
X22593Y4866D2*
X22583Y4885D1*
X22564Y4904D1*
X22545Y4914D1*
X22507D1*
X22487Y4904D1*
X22468Y4885D1*
X22459Y4866D1*
X22449Y4837D1*
Y4789D1*
X22459Y4761D1*
X22468Y4742D1*
X22487Y4723D1*
X22507Y4713D1*
X22545D1*
X22564Y4723D1*
X22583Y4742D1*
X22593Y4761D1*
X22674Y4914D2*
X22779D1*
X22721Y4837D1*
X22750D1*
X22769Y4828D1*
X22779Y4818D1*
X22788Y4789D1*
Y4770D1*
X22779Y4742D1*
X22760Y4722D1*
X22731Y4713D1*
X22702D1*
X22674Y4722D1*
X22664Y4732D1*
X22654Y4751D1*
X22965Y4914D2*
X22869D1*
X22860Y4828D1*
X22869Y4837D1*
X22898Y4847D1*
X22927D1*
X22955Y4837D1*
X22975Y4818D1*
X22984Y4789D1*
Y4770D1*
X22975Y4742D1*
X22955Y4722D1*
X22927Y4713D1*
X22898D1*
X22869Y4722D1*
X22860Y4732D1*
X22850Y4751D1*
X22366Y9214D2*
X22357Y9233D1*
X22338Y9252D1*
X22319Y9262D1*
X22280D1*
X22261Y9252D1*
X22242Y9233D1*
X22232Y9214D1*
X22223Y9185D1*
Y9137D1*
X22232Y9109D1*
X22242Y9089D1*
X22261Y9070D1*
X22280Y9061D1*
X22319D1*
X22338Y9070D1*
X22357Y9089D1*
X22366Y9109D1*
X22447Y9261D2*
X22552D1*
X22495Y9185D1*
X22524D1*
X22543Y9175D1*
X22552Y9166D1*
X22562Y9137D1*
Y9118D1*
X22552Y9089D1*
X22533Y9070D1*
X22505Y9061D1*
X22476D1*
X22447Y9070D1*
X22438Y9080D1*
X22428Y9099D1*
X22738Y9233D2*
X22729Y9252D1*
X22700Y9261D1*
X22681D1*
X22652Y9252D1*
X22633Y9223D1*
X22624Y9175D1*
Y9128D1*
X22633Y9089D1*
X22652Y9070D1*
X22681Y9061D1*
X22691D1*
X22719Y9070D1*
X22738Y9089D1*
X22748Y9118D1*
Y9128D1*
X22738Y9156D1*
X22719Y9175D1*
X22691Y9185D1*
X22681D1*
X22652Y9175D1*
X22633Y9156D1*
X22624Y9128D1*
X21614Y5101D2*
X21604Y5120D1*
X21585Y5140D1*
X21566Y5149D1*
X21528D1*
X21509Y5140D1*
X21490Y5120D1*
X21480Y5101D1*
X21470Y5073D1*
Y5025D1*
X21480Y4996D1*
X21490Y4977D1*
X21509Y4958D1*
X21528Y4948D1*
X21566D1*
X21585Y4958D1*
X21604Y4977D1*
X21614Y4996D1*
X21695Y5149D2*
X21800D1*
X21743Y5072D1*
X21771D1*
X21790Y5063D1*
X21800Y5053D1*
X21810Y5025D1*
Y5006D1*
X21800Y4977D1*
X21781Y4958D1*
X21752Y4948D1*
X21723D1*
X21695Y4958D1*
X21685Y4967D1*
X21676Y4986D1*
X21910Y4948D2*
X22005Y5149D1*
X21871D1*
X24200Y9950D2*
X24181Y9940D1*
X24162Y9921D1*
X24152Y9902D1*
Y9864D1*
X24162Y9844D1*
X24181Y9825D1*
X24200Y9816D1*
X24229Y9806D1*
X24277D1*
X24305Y9816D1*
X24324Y9825D1*
X24343Y9844D1*
X24353Y9864D1*
Y9902D1*
X24343Y9921D1*
X24324Y9940D1*
X24305Y9950D1*
X24152Y10031D2*
Y10136D1*
X24229Y10078D1*
Y10107D1*
X24238Y10126D1*
X24248Y10136D1*
X24277Y10145D1*
X24296D1*
X24324Y10136D1*
X24344Y10117D1*
X24353Y10088D1*
Y10059D1*
X24344Y10031D1*
X24334Y10021D1*
X24315Y10011D1*
X24152Y10255D2*
X24162Y10226D1*
X24181Y10217D1*
X24200D1*
X24219Y10226D1*
X24229Y10245D1*
X24238Y10284D1*
X24248Y10312D1*
X24267Y10331D1*
X24286Y10341D1*
X24315D1*
X24334Y10331D1*
X24344Y10322D1*
X24353Y10293D1*
Y10255D1*
X24344Y10226D1*
X24334Y10217D1*
X24315Y10207D1*
X24286D1*
X24267Y10217D1*
X24248Y10236D1*
X24238Y10264D1*
X24229Y10303D1*
X24219Y10322D1*
X24200Y10331D1*
X24181D1*
X24162Y10322D1*
X24152Y10293D1*
Y10255D1*
X24230Y8524D2*
X24211Y8515D1*
X24192Y8495D1*
X24182Y8476D1*
Y8438D1*
X24192Y8419D1*
X24211Y8400D1*
X24230Y8390D1*
X24259Y8381D1*
X24307D1*
X24335Y8390D1*
X24354Y8400D1*
X24373Y8419D1*
X24383Y8438D1*
Y8476D1*
X24373Y8495D1*
X24354Y8515D1*
X24335Y8524D1*
X24182Y8605D2*
Y8710D1*
X24259Y8653D1*
Y8682D1*
X24268Y8701D1*
X24278Y8710D1*
X24307Y8720D1*
X24326D1*
X24354Y8710D1*
X24374Y8691D1*
X24383Y8662D1*
Y8634D1*
X24374Y8605D1*
X24364Y8596D1*
X24345Y8586D1*
X24249Y8906D2*
X24278Y8896D1*
X24297Y8877D1*
X24307Y8849D1*
Y8839D1*
X24297Y8810D1*
X24278Y8791D1*
X24249Y8782D1*
X24240D1*
X24211Y8791D1*
X24192Y8810D1*
X24182Y8839D1*
Y8849D1*
X24192Y8877D1*
X24211Y8896D1*
X24249Y8906D1*
X24297D1*
X24345Y8896D1*
X24374Y8877D1*
X24383Y8849D1*
Y8830D1*
X24374Y8801D1*
X24354Y8791D1*
X24272Y6995D2*
X24253Y6986D1*
X24234Y6967D1*
X24225Y6948D1*
Y6909D1*
X24234Y6890D1*
X24253Y6871D1*
X24272Y6861D1*
X24301Y6852D1*
X24349D1*
X24378Y6861D1*
X24397Y6871D1*
X24416Y6890D1*
X24426Y6909D1*
Y6948D1*
X24416Y6967D1*
X24397Y6986D1*
X24378Y6995D1*
X24426Y7153D2*
X24225D1*
X24359Y7057D1*
Y7201D1*
X24225Y7320D2*
X24234Y7291D1*
X24263Y7272D1*
X24311Y7262D1*
X24340D1*
X24387Y7272D1*
X24416Y7291D1*
X24426Y7320D1*
Y7339D1*
X24416Y7368D1*
X24387Y7387D1*
X24340Y7396D1*
X24311D1*
X24263Y7387D1*
X24234Y7368D1*
X24225Y7339D1*
Y7320D1*
X24263Y7387D2*
X24387Y7272D1*
X24255Y5776D2*
X24236Y5766D1*
X24217Y5747D1*
X24207Y5728D1*
Y5690D1*
X24217Y5671D1*
X24236Y5652D1*
X24255Y5642D1*
X24284Y5632D1*
X24332D1*
X24360Y5642D1*
X24379Y5652D1*
X24398Y5671D1*
X24408Y5690D1*
Y5728D1*
X24398Y5747D1*
X24379Y5766D1*
X24360Y5776D1*
X24408Y5933D2*
X24207D1*
X24341Y5838D1*
Y5981D1*
X24246Y6043D2*
X24236Y6062D1*
X24207Y6091D1*
X24408D1*
X19668Y17967D2*
X19659Y17986D1*
X19640Y18005D1*
X19621Y18014D1*
X19582D1*
X19563Y18005D1*
X19544Y17986D1*
X19534Y17967D1*
X19525Y17938D1*
Y17890D1*
X19534Y17861D1*
X19544Y17842D1*
X19563Y17823D1*
X19582Y17813D1*
X19621D1*
X19640Y17823D1*
X19659Y17842D1*
X19668Y17861D1*
X19826Y17813D2*
Y18014D1*
X19730Y17880D1*
X19874D1*
X19945Y17966D2*
Y17976D1*
X19955Y17995D1*
X19964Y18005D1*
X19983Y18014D1*
X20022D1*
X20041Y18005D1*
X20050Y17995D1*
X20060Y17976D1*
Y17957D1*
X20050Y17938D1*
X20031Y17909D1*
X19935Y17813D1*
X20069D1*
X22353Y12544D2*
X22343Y12563D1*
X22324Y12582D1*
X22305Y12591D1*
X22267D1*
X22248Y12582D1*
X22229Y12563D1*
X22219Y12544D1*
X22209Y12515D1*
Y12467D1*
X22219Y12438D1*
X22229Y12419D1*
X22248Y12400D1*
X22267Y12391D1*
X22305D1*
X22324Y12400D1*
X22343Y12419D1*
X22353Y12438D1*
X22510Y12391D2*
Y12591D1*
X22415Y12457D1*
X22558D1*
X22639Y12591D2*
X22744D1*
X22687Y12515D1*
X22716D1*
X22735Y12505D1*
X22744Y12496D1*
X22754Y12467D1*
Y12448D1*
X22744Y12419D1*
X22725Y12400D1*
X22696Y12391D1*
X22668D1*
X22639Y12400D1*
X22630Y12410D1*
X22620Y12429D1*
X20989Y17526D2*
X20980Y17545D1*
X20961Y17565D1*
X20942Y17574D1*
X20903D1*
X20884Y17565D1*
X20865Y17545D1*
X20855Y17526D1*
X20846Y17498D1*
Y17450D1*
X20855Y17421D1*
X20865Y17402D1*
X20884Y17383D1*
X20903Y17373D1*
X20942D1*
X20961Y17383D1*
X20980Y17402D1*
X20989Y17421D1*
X21147Y17373D2*
Y17574D1*
X21051Y17440D1*
X21195D1*
X21352Y17373D2*
Y17574D1*
X21256Y17440D1*
X21400D1*
X21474Y12986D2*
X21465Y13005D1*
X21445Y13025D1*
X21426Y13034D1*
X21388D1*
X21369Y13025D1*
X21350Y13005D1*
X21340Y12986D1*
X21331Y12958D1*
Y12910D1*
X21340Y12881D1*
X21350Y12862D1*
X21369Y12843D1*
X21388Y12833D1*
X21426D1*
X21445Y12843D1*
X21465Y12862D1*
X21474Y12881D1*
X21632Y12833D2*
Y13034D1*
X21536Y12900D1*
X21679D1*
X21856Y13034D2*
X21760D1*
X21751Y12948D1*
X21760Y12957D1*
X21789Y12967D1*
X21818D1*
X21846Y12957D1*
X21866Y12938D1*
X21875Y12910D1*
Y12891D1*
X21866Y12862D1*
X21846Y12843D1*
X21818Y12833D1*
X21789D1*
X21760Y12843D1*
X21751Y12852D1*
X21741Y12871D1*
X24140Y17225D2*
X24121Y17215D1*
X24102Y17196D1*
X24092Y17177D1*
Y17139D1*
X24102Y17119D1*
X24121Y17100D1*
X24140Y17091D1*
X24169Y17081D1*
X24217D1*
X24245Y17091D1*
X24264Y17100D1*
X24283Y17119D1*
X24293Y17139D1*
Y17177D1*
X24283Y17196D1*
X24264Y17215D1*
X24245Y17225D1*
X24293Y17382D2*
X24092D1*
X24226Y17286D1*
Y17430D1*
X24121Y17606D2*
X24102Y17597D1*
X24092Y17568D1*
Y17549D1*
X24102Y17520D1*
X24131Y17501D1*
X24178Y17492D1*
X24226D1*
X24264Y17501D1*
X24284Y17520D1*
X24293Y17549D1*
Y17559D1*
X24284Y17587D1*
X24264Y17606D1*
X24236Y17616D1*
X24226D1*
X24197Y17606D1*
X24178Y17587D1*
X24169Y17559D1*
Y17549D1*
X24178Y17520D1*
X24197Y17501D1*
X24226Y17492D1*
X24150Y15830D2*
X24131Y15820D1*
X24112Y15801D1*
X24102Y15782D1*
Y15744D1*
X24112Y15724D1*
X24131Y15705D1*
X24150Y15696D1*
X24179Y15686D1*
X24227D1*
X24255Y15696D1*
X24274Y15705D1*
X24293Y15724D1*
X24303Y15744D1*
Y15782D1*
X24293Y15801D1*
X24274Y15820D1*
X24255Y15830D1*
X24303Y15987D2*
X24102D1*
X24236Y15891D1*
Y16035D1*
X24303Y16135D2*
X24102Y16231D1*
Y16097D1*
X24090Y14491D2*
X24071Y14481D1*
X24052Y14462D1*
X24042Y14443D1*
Y14405D1*
X24052Y14385D1*
X24071Y14366D1*
X24090Y14357D1*
X24119Y14347D1*
X24167D1*
X24195Y14357D1*
X24214Y14366D1*
X24233Y14385D1*
X24243Y14405D1*
Y14443D1*
X24233Y14462D1*
X24214Y14481D1*
X24195Y14491D1*
X24243Y14648D2*
X24042D1*
X24176Y14552D1*
Y14696D1*
X24042Y14805D2*
X24052Y14777D1*
X24071Y14767D1*
X24090D1*
X24109Y14777D1*
X24119Y14796D1*
X24128Y14834D1*
X24138Y14863D1*
X24157Y14882D1*
X24176Y14891D1*
X24205D1*
X24224Y14882D1*
X24234Y14872D1*
X24243Y14844D1*
Y14805D1*
X24234Y14777D1*
X24224Y14767D1*
X24205Y14758D1*
X24176D1*
X24157Y14767D1*
X24138Y14786D1*
X24128Y14815D1*
X24119Y14853D1*
X24109Y14872D1*
X24090Y14882D1*
X24071D1*
X24052Y14872D1*
X24042Y14844D1*
Y14805D1*
X24050Y13355D2*
X24031Y13346D1*
X24012Y13326D1*
X24002Y13307D1*
Y13269D1*
X24012Y13250D1*
X24031Y13231D1*
X24050Y13221D1*
X24079Y13212D1*
X24127D1*
X24155Y13221D1*
X24174Y13231D1*
X24193Y13250D1*
X24203Y13269D1*
Y13307D1*
X24193Y13326D1*
X24174Y13346D1*
X24155Y13355D1*
X24203Y13513D2*
X24002D1*
X24136Y13417D1*
Y13560D1*
X24069Y13747D2*
X24098Y13737D1*
X24117Y13718D1*
X24127Y13689D1*
Y13680D1*
X24117Y13651D1*
X24098Y13632D1*
X24069Y13622D1*
X24060D1*
X24031Y13632D1*
X24012Y13651D1*
X24002Y13680D1*
Y13689D1*
X24012Y13718D1*
X24031Y13737D1*
X24069Y13747D1*
X24117D1*
X24165Y13737D1*
X24194Y13718D1*
X24203Y13689D1*
Y13670D1*
X24194Y13641D1*
X24174Y13632D1*
X22215Y19323D2*
X22205Y19342D1*
X22186Y19361D1*
X22167Y19370D1*
X22129D1*
X22110Y19361D1*
X22090Y19342D1*
X22081Y19323D1*
X22071Y19294D1*
Y19246D1*
X22081Y19217D1*
X22090Y19198D1*
X22110Y19179D1*
X22129Y19169D1*
X22167D1*
X22186Y19179D1*
X22205Y19198D1*
X22215Y19217D1*
X22391Y19370D2*
X22296D1*
X22286Y19284D1*
X22296Y19294D1*
X22324Y19303D1*
X22353D1*
X22382Y19294D1*
X22401Y19275D1*
X22410Y19246D1*
Y19227D1*
X22401Y19198D1*
X22382Y19179D1*
X22353Y19169D1*
X22324D1*
X22296Y19179D1*
X22286Y19189D1*
X22276Y19208D1*
X22530Y19370D2*
X22501Y19361D1*
X22482Y19332D1*
X22472Y19284D1*
Y19255D1*
X22482Y19208D1*
X22501Y19179D1*
X22530Y19169D1*
X22549D1*
X22577Y19179D1*
X22596Y19208D1*
X22606Y19255D1*
Y19284D1*
X22596Y19332D1*
X22577Y19361D1*
X22549Y19370D1*
X22530D1*
X22596Y19332D2*
X22482Y19208D1*
X27066Y22597D2*
X27057Y22616D1*
X27037Y22635D1*
X27018Y22644D1*
X26980D1*
X26961Y22635D1*
X26942Y22616D1*
X26932Y22597D1*
X26923Y22568D1*
Y22520D1*
X26932Y22491D1*
X26942Y22472D1*
X26961Y22453D1*
X26980Y22443D1*
X27018D1*
X27037Y22453D1*
X27057Y22472D1*
X27066Y22491D1*
X27243Y22644D2*
X27147D1*
X27138Y22558D1*
X27147Y22568D1*
X27176Y22577D1*
X27204D1*
X27233Y22568D1*
X27252Y22549D1*
X27262Y22520D1*
Y22501D1*
X27252Y22472D1*
X27233Y22453D1*
X27204Y22443D1*
X27176D1*
X27147Y22453D1*
X27138Y22463D1*
X27128Y22482D1*
X27324Y22606D2*
X27343Y22616D1*
X27372Y22644D1*
Y22443D1*
X22545Y20797D2*
X22526Y20788D1*
X22507Y20768D1*
X22497Y20749D1*
Y20711D1*
X22507Y20692D1*
X22526Y20673D1*
X22545Y20663D1*
X22574Y20654D1*
X22622D1*
X22650Y20663D1*
X22669Y20673D1*
X22688Y20692D1*
X22698Y20711D1*
Y20749D1*
X22688Y20768D1*
X22669Y20788D1*
X22650Y20797D1*
X22497Y20974D2*
Y20878D1*
X22583Y20869D1*
X22574Y20878D1*
X22564Y20907D1*
Y20935D1*
X22574Y20964D1*
X22593Y20983D1*
X22622Y20993D1*
X22641D1*
X22669Y20983D1*
X22689Y20964D1*
X22698Y20935D1*
Y20907D1*
X22689Y20878D1*
X22679Y20869D1*
X22660Y20859D1*
X22545Y21064D2*
X22536D1*
X22516Y21074D1*
X22507Y21083D1*
X22497Y21102D1*
Y21141D1*
X22507Y21160D1*
X22516Y21169D1*
X22536Y21179D1*
X22555D1*
X22574Y21169D1*
X22602Y21150D1*
X22698Y21055D1*
Y21188D1*
X27205Y21751D2*
X27186Y21742D1*
X27167Y21723D1*
X27157Y21704D1*
Y21665D1*
X27167Y21646D1*
X27186Y21627D1*
X27205Y21617D1*
X27234Y21608D1*
X27282D1*
X27310Y21617D1*
X27329Y21627D1*
X27348Y21646D1*
X27358Y21665D1*
Y21704D1*
X27348Y21723D1*
X27329Y21742D1*
X27310Y21751D1*
X27157Y21928D2*
Y21832D1*
X27243Y21823D1*
X27234Y21832D1*
X27224Y21861D1*
Y21890D1*
X27234Y21918D1*
X27253Y21938D1*
X27282Y21947D1*
X27301D1*
X27329Y21938D1*
X27349Y21918D1*
X27358Y21890D1*
Y21861D1*
X27349Y21832D1*
X27339Y21823D1*
X27320Y21813D1*
X27157Y22028D2*
Y22133D1*
X27234Y22076D1*
Y22105D1*
X27243Y22124D1*
X27253Y22133D1*
X27282Y22143D1*
X27301D1*
X27329Y22133D1*
X27349Y22114D1*
X27358Y22085D1*
Y22057D1*
X27349Y22028D1*
X27339Y22019D1*
X27320Y22009D1*
X22557Y24478D2*
X22547Y24497D1*
X22528Y24516D1*
X22509Y24525D1*
X22471D1*
X22451Y24516D1*
X22432Y24497D1*
X22423Y24478D1*
X22413Y24449D1*
Y24401D1*
X22423Y24372D1*
X22432Y24353D1*
X22451Y24334D1*
X22471Y24324D1*
X22509D1*
X22528Y24334D1*
X22547Y24353D1*
X22557Y24372D1*
X22733Y24525D2*
X22638D1*
X22628Y24439D1*
X22638Y24449D1*
X22666Y24458D1*
X22695D1*
X22724Y24449D1*
X22743Y24430D1*
X22752Y24401D1*
Y24382D1*
X22743Y24353D1*
X22724Y24334D1*
X22695Y24324D1*
X22666D1*
X22638Y24334D1*
X22628Y24344D1*
X22618Y24363D1*
X22910Y24324D2*
Y24525D1*
X22814Y24391D1*
X22958D1*
X23851Y24488D2*
X23841Y24507D1*
X23822Y24526D1*
X23803Y24535D1*
X23765D1*
X23745Y24526D1*
X23726Y24507D1*
X23717Y24488D1*
X23707Y24459D1*
Y24411D1*
X23717Y24382D1*
X23726Y24363D1*
X23745Y24344D1*
X23765Y24334D1*
X23803D1*
X23822Y24344D1*
X23841Y24363D1*
X23851Y24382D1*
X24027Y24535D2*
X23932D1*
X23922Y24449D1*
X23932Y24459D1*
X23960Y24468D1*
X23989D1*
X24018Y24459D1*
X24037Y24440D1*
X24046Y24411D1*
Y24392D1*
X24037Y24363D1*
X24018Y24344D1*
X23989Y24334D1*
X23960D1*
X23932Y24344D1*
X23922Y24354D1*
X23912Y24373D1*
X24223Y24535D2*
X24127D1*
X24118Y24449D1*
X24127Y24459D1*
X24156Y24468D1*
X24185D1*
X24213Y24459D1*
X24233Y24440D1*
X24242Y24411D1*
Y24392D1*
X24233Y24363D1*
X24213Y24344D1*
X24185Y24334D1*
X24156D1*
X24127Y24344D1*
X24118Y24354D1*
X24108Y24373D1*
X25186Y24488D2*
X25176Y24507D1*
X25157Y24526D1*
X25138Y24535D1*
X25100D1*
X25080Y24526D1*
X25061Y24507D1*
X25052Y24488D1*
X25042Y24459D1*
Y24411D1*
X25052Y24382D1*
X25061Y24363D1*
X25080Y24344D1*
X25100Y24334D1*
X25138D1*
X25157Y24344D1*
X25176Y24363D1*
X25186Y24382D1*
X25362Y24535D2*
X25267D1*
X25257Y24449D1*
X25267Y24459D1*
X25295Y24468D1*
X25324D1*
X25353Y24459D1*
X25372Y24440D1*
X25381Y24411D1*
Y24392D1*
X25372Y24363D1*
X25353Y24344D1*
X25324Y24334D1*
X25295D1*
X25267Y24344D1*
X25257Y24354D1*
X25247Y24373D1*
X25558Y24507D2*
X25548Y24526D1*
X25519Y24535D1*
X25500D1*
X25472Y24526D1*
X25453Y24497D1*
X25443Y24449D1*
Y24401D1*
X25453Y24363D1*
X25472Y24344D1*
X25500Y24334D1*
X25510D1*
X25539Y24344D1*
X25558Y24363D1*
X25567Y24392D1*
Y24401D1*
X25558Y24430D1*
X25539Y24449D1*
X25510Y24459D1*
X25500D1*
X25472Y24449D1*
X25453Y24430D1*
X25443Y24401D1*
X26551Y24498D2*
X26541Y24517D1*
X26522Y24536D1*
X26503Y24545D1*
X26465D1*
X26445Y24536D1*
X26426Y24517D1*
X26417Y24498D1*
X26407Y24469D1*
Y24421D1*
X26417Y24392D1*
X26426Y24373D1*
X26445Y24354D1*
X26465Y24344D1*
X26503D1*
X26522Y24354D1*
X26541Y24373D1*
X26551Y24392D1*
X26727Y24545D2*
X26632D1*
X26622Y24459D1*
X26632Y24469D1*
X26660Y24478D1*
X26689D1*
X26718Y24469D1*
X26737Y24450D1*
X26746Y24421D1*
Y24402D1*
X26737Y24373D1*
X26718Y24354D1*
X26689Y24344D1*
X26660D1*
X26632Y24354D1*
X26622Y24364D1*
X26612Y24383D1*
X26846Y24344D2*
X26942Y24545D1*
X26808D1*
X22785Y33517D2*
X22766Y33508D1*
X22747Y33488D1*
X22737Y33469D1*
Y33431D1*
X22747Y33412D1*
X22766Y33393D1*
X22785Y33383D1*
X22814Y33374D1*
X22862D1*
X22890Y33383D1*
X22909Y33393D1*
X22928Y33412D1*
X22938Y33431D1*
Y33469D1*
X22928Y33488D1*
X22909Y33508D1*
X22890Y33517D1*
X22737Y33694D2*
Y33598D1*
X22823Y33589D1*
X22814Y33598D1*
X22804Y33627D1*
Y33655D1*
X22814Y33684D1*
X22833Y33703D1*
X22862Y33713D1*
X22881D1*
X22909Y33703D1*
X22929Y33684D1*
X22938Y33655D1*
Y33627D1*
X22929Y33598D1*
X22919Y33589D1*
X22900Y33579D1*
X22737Y33822D2*
X22747Y33794D1*
X22766Y33784D1*
X22785D1*
X22804Y33794D1*
X22814Y33813D1*
X22823Y33851D1*
X22833Y33880D1*
X22852Y33899D1*
X22871Y33908D1*
X22900D1*
X22919Y33899D1*
X22929Y33889D1*
X22938Y33861D1*
Y33822D1*
X22929Y33794D1*
X22919Y33784D1*
X22900Y33775D1*
X22871D1*
X22852Y33784D1*
X22833Y33803D1*
X22823Y33832D1*
X22814Y33870D1*
X22804Y33889D1*
X22785Y33899D1*
X22766D1*
X22747Y33889D1*
X22737Y33861D1*
Y33822D1*
X17798Y31197D2*
X17788Y31216D1*
X17769Y31235D1*
X17750Y31244D1*
X17712D1*
X17693Y31235D1*
X17674Y31216D1*
X17664Y31197D1*
X17654Y31168D1*
Y31120D1*
X17664Y31091D1*
X17674Y31072D1*
X17693Y31053D1*
X17712Y31043D1*
X17750D1*
X17769Y31053D1*
X17788Y31072D1*
X17798Y31091D1*
X17974Y31244D2*
X17879D1*
X17869Y31158D1*
X17879Y31168D1*
X17908Y31177D1*
X17936D1*
X17965Y31168D1*
X17984Y31149D1*
X17994Y31120D1*
Y31101D1*
X17984Y31072D1*
X17965Y31053D1*
X17936Y31043D1*
X17908D1*
X17879Y31053D1*
X17869Y31063D1*
X17860Y31082D1*
X18180Y31177D2*
X18170Y31149D1*
X18151Y31129D1*
X18122Y31120D1*
X18113D1*
X18084Y31129D1*
X18065Y31149D1*
X18055Y31177D1*
Y31187D1*
X18065Y31216D1*
X18084Y31235D1*
X18113Y31244D1*
X18122D1*
X18151Y31235D1*
X18170Y31216D1*
X18180Y31177D1*
Y31129D1*
X18170Y31082D1*
X18151Y31053D1*
X18122Y31043D1*
X18103D1*
X18075Y31053D1*
X18065Y31072D1*
X22181Y31710D2*
X22171Y31729D1*
X22152Y31748D1*
X22133Y31758D1*
X22095D1*
X22076Y31748D1*
X22057Y31729D1*
X22047Y31710D1*
X22037Y31681D1*
Y31633D1*
X22047Y31605D1*
X22057Y31585D1*
X22076Y31566D1*
X22095Y31557D1*
X22133D1*
X22152Y31566D1*
X22171Y31585D1*
X22181Y31605D1*
X22357Y31729D2*
X22348Y31748D1*
X22319Y31757D1*
X22300D1*
X22271Y31748D1*
X22252Y31719D1*
X22243Y31671D1*
Y31624D1*
X22252Y31585D1*
X22271Y31566D1*
X22300Y31557D1*
X22310D1*
X22338Y31566D1*
X22357Y31585D1*
X22367Y31614D1*
Y31624D1*
X22357Y31652D1*
X22338Y31671D1*
X22310Y31681D1*
X22300D1*
X22271Y31671D1*
X22252Y31652D1*
X22243Y31624D1*
X22486Y31757D2*
X22457Y31748D1*
X22438Y31719D1*
X22429Y31671D1*
Y31643D1*
X22438Y31595D1*
X22457Y31566D1*
X22486Y31557D1*
X22505D1*
X22534Y31566D1*
X22553Y31595D1*
X22563Y31643D1*
Y31671D1*
X22553Y31719D1*
X22534Y31748D1*
X22505Y31757D1*
X22486D1*
X22553Y31719D2*
X22438Y31595D1*
X17852Y31673D2*
X17833Y31664D1*
X17814Y31645D1*
X17805Y31626D1*
Y31587D1*
X17814Y31568D1*
X17833Y31549D1*
X17852Y31539D1*
X17881Y31530D1*
X17929D1*
X17958Y31539D1*
X17977Y31549D1*
X17996Y31568D1*
X18006Y31587D1*
Y31626D1*
X17996Y31645D1*
X17977Y31664D1*
X17958Y31673D1*
X17833Y31850D2*
X17814Y31840D1*
X17805Y31812D1*
Y31793D1*
X17814Y31764D1*
X17843Y31745D1*
X17891Y31735D1*
X17939D1*
X17977Y31745D1*
X17996Y31764D1*
X18006Y31793D1*
Y31802D1*
X17996Y31831D1*
X17977Y31850D1*
X17948Y31859D1*
X17939D1*
X17910Y31850D1*
X17891Y31831D1*
X17881Y31802D1*
Y31793D1*
X17891Y31764D1*
X17910Y31745D1*
X17939Y31735D1*
X17843Y31921D2*
X17833Y31940D1*
X17805Y31969D1*
X18006D1*
X18371Y28878D2*
X18361Y28897D1*
X18342Y28916D1*
X18323Y28925D1*
X18285D1*
X18266Y28916D1*
X18247Y28897D1*
X18237Y28878D1*
X18227Y28849D1*
Y28801D1*
X18237Y28772D1*
X18247Y28753D1*
X18266Y28734D1*
X18285Y28724D1*
X18323D1*
X18342Y28734D1*
X18361Y28753D1*
X18371Y28772D1*
X18547Y28897D2*
X18538Y28916D1*
X18509Y28925D1*
X18490D1*
X18461Y28916D1*
X18442Y28887D1*
X18433Y28839D1*
Y28791D1*
X18442Y28753D1*
X18461Y28734D1*
X18490Y28724D1*
X18500D1*
X18528Y28734D1*
X18547Y28753D1*
X18557Y28782D1*
Y28791D1*
X18547Y28820D1*
X18528Y28839D1*
X18500Y28849D1*
X18490D1*
X18461Y28839D1*
X18442Y28820D1*
X18433Y28791D1*
X18628Y28877D2*
Y28887D1*
X18638Y28906D1*
X18647Y28916D1*
X18667Y28925D1*
X18705D1*
X18724Y28916D1*
X18733Y28906D1*
X18743Y28887D1*
Y28868D1*
X18733Y28849D1*
X18714Y28820D1*
X18619Y28724D1*
X18753D1*
X19641Y28878D2*
X19631Y28897D1*
X19612Y28916D1*
X19593Y28925D1*
X19555D1*
X19536Y28916D1*
X19517Y28897D1*
X19507Y28878D1*
X19497Y28849D1*
Y28801D1*
X19507Y28772D1*
X19517Y28753D1*
X19536Y28734D1*
X19555Y28724D1*
X19593D1*
X19612Y28734D1*
X19631Y28753D1*
X19641Y28772D1*
X19817Y28897D2*
X19808Y28916D1*
X19779Y28925D1*
X19760D1*
X19731Y28916D1*
X19712Y28887D1*
X19703Y28839D1*
Y28791D1*
X19712Y28753D1*
X19731Y28734D1*
X19760Y28724D1*
X19770D1*
X19798Y28734D1*
X19817Y28753D1*
X19827Y28782D1*
Y28791D1*
X19817Y28820D1*
X19798Y28839D1*
X19770Y28849D1*
X19760D1*
X19731Y28839D1*
X19712Y28820D1*
X19703Y28791D1*
X19908Y28925D2*
X20013D1*
X19956Y28849D1*
X19984D1*
X20003Y28839D1*
X20013Y28830D1*
X20023Y28801D1*
Y28782D1*
X20013Y28753D1*
X19994Y28734D1*
X19965Y28724D1*
X19936D1*
X19908Y28734D1*
X19898Y28744D1*
X19889Y28763D1*
X21066Y28878D2*
X21057Y28897D1*
X21037Y28916D1*
X21018Y28925D1*
X20980D1*
X20961Y28916D1*
X20942Y28897D1*
X20932Y28878D1*
X20923Y28849D1*
Y28801D1*
X20932Y28772D1*
X20942Y28753D1*
X20961Y28734D1*
X20980Y28724D1*
X21018D1*
X21037Y28734D1*
X21057Y28753D1*
X21066Y28772D1*
X21243Y28897D2*
X21233Y28916D1*
X21204Y28925D1*
X21185D1*
X21157Y28916D1*
X21137Y28887D1*
X21128Y28839D1*
Y28791D1*
X21137Y28753D1*
X21157Y28734D1*
X21185Y28724D1*
X21195D1*
X21223Y28734D1*
X21243Y28753D1*
X21252Y28782D1*
Y28791D1*
X21243Y28820D1*
X21223Y28839D1*
X21195Y28849D1*
X21185D1*
X21157Y28839D1*
X21137Y28820D1*
X21128Y28791D1*
X21410Y28724D2*
Y28925D1*
X21314Y28791D1*
X21457D1*
X22391Y28878D2*
X22381Y28897D1*
X22362Y28916D1*
X22343Y28925D1*
X22305D1*
X22286Y28916D1*
X22267Y28897D1*
X22257Y28878D1*
X22247Y28849D1*
Y28801D1*
X22257Y28772D1*
X22267Y28753D1*
X22286Y28734D1*
X22305Y28724D1*
X22343D1*
X22362Y28734D1*
X22381Y28753D1*
X22391Y28772D1*
X22567Y28897D2*
X22558Y28916D1*
X22529Y28925D1*
X22510D1*
X22481Y28916D1*
X22462Y28887D1*
X22453Y28839D1*
Y28791D1*
X22462Y28753D1*
X22481Y28734D1*
X22510Y28724D1*
X22520D1*
X22548Y28734D1*
X22567Y28753D1*
X22577Y28782D1*
Y28791D1*
X22567Y28820D1*
X22548Y28839D1*
X22520Y28849D1*
X22510D1*
X22481Y28839D1*
X22462Y28820D1*
X22453Y28791D1*
X22753Y28925D2*
X22658D1*
X22648Y28839D1*
X22658Y28849D1*
X22687Y28858D1*
X22715D1*
X22744Y28849D1*
X22763Y28830D1*
X22773Y28801D1*
Y28782D1*
X22763Y28753D1*
X22744Y28734D1*
X22715Y28724D1*
X22687D1*
X22658Y28734D1*
X22648Y28744D1*
X22639Y28763D1*
X24735Y34727D2*
X24716Y34717D1*
X24697Y34698D1*
X24687Y34679D1*
Y34641D1*
X24697Y34622D1*
X24716Y34603D1*
X24735Y34593D1*
X24764Y34583D1*
X24812D1*
X24840Y34593D1*
X24859Y34603D1*
X24878Y34622D1*
X24888Y34641D1*
Y34679D1*
X24878Y34698D1*
X24859Y34717D1*
X24840Y34727D1*
X24716Y34903D2*
X24697Y34894D1*
X24687Y34865D1*
Y34846D1*
X24697Y34817D1*
X24726Y34798D1*
X24773Y34789D1*
X24821D1*
X24859Y34798D1*
X24879Y34817D1*
X24888Y34846D1*
Y34856D1*
X24879Y34884D1*
X24859Y34903D1*
X24831Y34913D1*
X24821D1*
X24792Y34903D1*
X24773Y34884D1*
X24764Y34856D1*
Y34846D1*
X24773Y34817D1*
X24792Y34798D1*
X24821Y34789D1*
X24716Y35089D2*
X24697Y35080D1*
X24687Y35051D1*
Y35032D1*
X24697Y35003D1*
X24726Y34984D1*
X24773Y34975D1*
X24821D1*
X24859Y34984D1*
X24879Y35003D1*
X24888Y35032D1*
Y35042D1*
X24879Y35070D1*
X24859Y35089D1*
X24831Y35099D1*
X24821D1*
X24792Y35089D1*
X24773Y35070D1*
X24764Y35042D1*
Y35032D1*
X24773Y35003D1*
X24792Y34984D1*
X24821Y34975D1*
X18332Y38261D2*
X18313Y38252D1*
X18294Y38233D1*
X18285Y38214D1*
Y38175D1*
X18294Y38156D1*
X18313Y38137D1*
X18332Y38127D1*
X18361Y38118D1*
X18409D1*
X18438Y38127D1*
X18457Y38137D1*
X18476Y38156D1*
X18486Y38175D1*
Y38214D1*
X18476Y38233D1*
X18457Y38252D1*
X18438Y38261D1*
X18313Y38438D2*
X18294Y38428D1*
X18285Y38400D1*
Y38380D1*
X18294Y38352D1*
X18323Y38333D1*
X18371Y38323D1*
X18419D1*
X18457Y38333D1*
X18476Y38352D1*
X18486Y38380D1*
Y38390D1*
X18476Y38419D1*
X18457Y38438D1*
X18428Y38447D1*
X18419D1*
X18390Y38438D1*
X18371Y38419D1*
X18361Y38390D1*
Y38380D1*
X18371Y38352D1*
X18390Y38333D1*
X18419Y38323D1*
X18486Y38547D2*
X18285Y38643D1*
Y38509D1*
X9735Y28073D2*
X9716Y28063D1*
X9697Y28044D1*
X9687Y28025D1*
Y27987D1*
X9697Y27968D1*
X9716Y27949D1*
X9735Y27939D1*
X9764Y27929D1*
X9812D1*
X9840Y27939D1*
X9859Y27949D1*
X9878Y27968D1*
X9888Y27987D1*
Y28025D1*
X9878Y28044D1*
X9859Y28063D1*
X9840Y28073D1*
X9716Y28249D2*
X9697Y28240D1*
X9687Y28211D1*
Y28192D1*
X9697Y28163D1*
X9726Y28144D1*
X9773Y28135D1*
X9821D1*
X9859Y28144D1*
X9879Y28163D1*
X9888Y28192D1*
Y28202D1*
X9879Y28230D1*
X9859Y28249D1*
X9831Y28259D1*
X9821D1*
X9792Y28249D1*
X9773Y28230D1*
X9764Y28202D1*
Y28192D1*
X9773Y28163D1*
X9792Y28144D1*
X9821Y28135D1*
X9687Y28368D2*
X9697Y28340D1*
X9716Y28330D1*
X9735D1*
X9754Y28340D1*
X9764Y28359D1*
X9773Y28397D1*
X9783Y28426D1*
X9802Y28445D1*
X9821Y28454D1*
X9850D1*
X9869Y28445D1*
X9879Y28435D1*
X9888Y28407D1*
Y28368D1*
X9879Y28340D1*
X9869Y28330D1*
X9850Y28321D1*
X9821D1*
X9802Y28330D1*
X9783Y28349D1*
X9773Y28378D1*
X9764Y28416D1*
X9754Y28435D1*
X9735Y28445D1*
X9716D1*
X9697Y28435D1*
X9687Y28407D1*
Y28368D1*
X8487Y30554D2*
X8468Y30544D1*
X8449Y30525D1*
X8440Y30506D1*
Y30468D1*
X8449Y30448D1*
X8468Y30429D1*
X8487Y30420D1*
X8516Y30410D1*
X8564D1*
X8593Y30420D1*
X8612Y30429D1*
X8631Y30448D1*
X8641Y30468D1*
Y30506D1*
X8631Y30525D1*
X8612Y30544D1*
X8593Y30554D1*
X8468Y30730D2*
X8449Y30721D1*
X8440Y30692D1*
Y30673D1*
X8449Y30644D1*
X8478Y30625D1*
X8526Y30615D1*
X8574D1*
X8612Y30625D1*
X8631Y30644D1*
X8641Y30673D1*
Y30682D1*
X8631Y30711D1*
X8612Y30730D1*
X8583Y30740D1*
X8574D1*
X8545Y30730D1*
X8526Y30711D1*
X8516Y30682D1*
Y30673D1*
X8526Y30644D1*
X8545Y30625D1*
X8574Y30615D1*
X8507Y30926D2*
X8535Y30916D1*
X8555Y30897D1*
X8564Y30868D1*
Y30859D1*
X8555Y30830D1*
X8535Y30811D1*
X8507Y30801D1*
X8497D1*
X8468Y30811D1*
X8449Y30830D1*
X8440Y30859D1*
Y30868D1*
X8449Y30897D1*
X8468Y30916D1*
X8507Y30926D1*
X8555D1*
X8602Y30916D1*
X8631Y30897D1*
X8641Y30868D1*
Y30849D1*
X8631Y30821D1*
X8612Y30811D1*
X11245Y24029D2*
X11226Y24019D1*
X11207Y24000D1*
X11197Y23981D1*
Y23943D1*
X11207Y23924D1*
X11226Y23905D1*
X11245Y23895D1*
X11274Y23885D1*
X11322D1*
X11350Y23895D1*
X11369Y23905D1*
X11388Y23924D1*
X11398Y23943D1*
Y23981D1*
X11388Y24000D1*
X11369Y24019D1*
X11350Y24029D1*
X11398Y24129D2*
X11197Y24225D1*
Y24091D1*
Y24344D2*
X11207Y24315D1*
X11236Y24296D1*
X11283Y24286D1*
X11312D1*
X11360Y24296D1*
X11389Y24315D1*
X11398Y24344D1*
Y24363D1*
X11389Y24392D1*
X11360Y24411D1*
X11312Y24420D1*
X11283D1*
X11236Y24411D1*
X11207Y24392D1*
X11197Y24363D1*
Y24344D1*
X11236Y24411D2*
X11360Y24296D1*
X15510Y23514D2*
X15491Y23505D1*
X15472Y23486D1*
X15462Y23467D1*
Y23428D1*
X15472Y23409D1*
X15491Y23390D1*
X15510Y23380D1*
X15539Y23371D1*
X15587D1*
X15615Y23380D1*
X15634Y23390D1*
X15653Y23409D1*
X15663Y23428D1*
Y23467D1*
X15653Y23486D1*
X15634Y23505D1*
X15615Y23514D1*
X15663Y23614D2*
X15462Y23710D1*
Y23576D1*
X15501Y23772D2*
X15491Y23791D1*
X15462Y23820D1*
X15663D1*
X8127Y28257D2*
X8117Y28276D1*
X8098Y28295D1*
X8079Y28305D1*
X8041D1*
X8021Y28295D1*
X8002Y28276D1*
X7993Y28257D1*
X7983Y28228D1*
Y28180D1*
X7993Y28152D1*
X8002Y28133D1*
X8021Y28114D1*
X8041Y28104D1*
X8079D1*
X8098Y28114D1*
X8117Y28133D1*
X8127Y28152D1*
X8227Y28104D2*
X8322Y28305D1*
X8188D1*
X8394Y28257D2*
Y28266D1*
X8403Y28286D1*
X8413Y28295D1*
X8432Y28305D1*
X8470D1*
X8489Y28295D1*
X8499Y28286D1*
X8509Y28266D1*
Y28247D1*
X8499Y28228D1*
X8480Y28200D1*
X8384Y28104D1*
X8518D1*
X10727Y42503D2*
Y42302D1*
X10794D1*
X10823Y42312D1*
X10842Y42331D1*
X10852Y42350D1*
X10861Y42379D1*
Y42427D1*
X10852Y42456D1*
X10842Y42475D1*
X10823Y42494D1*
X10794Y42503D1*
X10727D1*
X10923Y42465D2*
X10942Y42475D1*
X10971Y42503D1*
Y42302D1*
X10210Y28982D2*
Y28781D1*
X10277D1*
X10306Y28791D1*
X10325Y28810D1*
X10335Y28829D1*
X10344Y28858D1*
Y28906D1*
X10335Y28934D1*
X10325Y28953D1*
X10306Y28973D1*
X10277Y28982D1*
X10210D1*
X10416Y28934D2*
Y28944D1*
X10425Y28963D1*
X10435Y28972D1*
X10454Y28982D1*
X10492D1*
X10511Y28972D1*
X10521Y28963D1*
X10530Y28944D1*
Y28925D1*
X10521Y28905D1*
X10502Y28877D1*
X10406Y28781D1*
X10540D1*
X16470Y21742D2*
Y21541D1*
X16537D1*
X16566Y21551D1*
X16585Y21570D1*
X16595Y21589D1*
X16604Y21618D1*
Y21666D1*
X16595Y21694D1*
X16585Y21713D1*
X16566Y21733D1*
X16537Y21742D1*
X16470D1*
X16685D2*
X16790D1*
X16733Y21665D1*
X16762D1*
X16781Y21656D1*
X16790Y21646D1*
X16800Y21618D1*
Y21599D1*
X16790Y21570D1*
X16771Y21551D1*
X16742Y21541D1*
X16714D1*
X16685Y21551D1*
X16676Y21560D1*
X16666Y21579D1*
X8029Y39008D2*
Y38807D1*
X8096D1*
X8125Y38817D1*
X8144Y38836D1*
X8154Y38855D1*
X8163Y38884D1*
Y38932D1*
X8154Y38960D1*
X8144Y38979D1*
X8125Y38998D1*
X8096Y39008D1*
X8029D1*
X8321Y38807D2*
Y39008D1*
X8225Y38874D1*
X8368D1*
X6899Y15817D2*
Y15616D1*
X6966D1*
X6995Y15626D1*
X7014Y15645D1*
X7024Y15664D1*
X7033Y15692D1*
Y15740D1*
X7024Y15769D1*
X7014Y15788D1*
X6995Y15807D1*
X6966Y15817D1*
X6899D1*
X7210D2*
X7114D1*
X7105Y15731D1*
X7114Y15740D1*
X7143Y15750D1*
X7171D1*
X7200Y15740D1*
X7219Y15721D1*
X7229Y15692D1*
Y15673D1*
X7219Y15645D1*
X7200Y15625D1*
X7171Y15616D1*
X7143D1*
X7114Y15625D1*
X7105Y15635D1*
X7095Y15654D1*
X7118Y30443D2*
X7319D1*
Y30510D1*
X7309Y30538D1*
X7290Y30558D1*
X7271Y30567D1*
X7242Y30577D1*
X7194D1*
X7165Y30567D1*
X7146Y30558D1*
X7127Y30538D1*
X7118Y30510D1*
Y30443D1*
X7146Y30753D2*
X7127Y30744D1*
X7118Y30715D1*
Y30696D1*
X7127Y30667D1*
X7156Y30648D1*
X7204Y30638D1*
X7252D1*
X7290Y30648D1*
X7309Y30667D1*
X7319Y30696D1*
Y30705D1*
X7309Y30734D1*
X7290Y30753D1*
X7261Y30763D1*
X7252D1*
X7223Y30753D1*
X7204Y30734D1*
X7194Y30705D1*
Y30696D1*
X7204Y30667D1*
X7223Y30648D1*
X7252Y30638D1*
X11048Y27965D2*
X11249D1*
Y28032D1*
X11239Y28061D1*
X11220Y28080D1*
X11201Y28090D1*
X11172Y28099D1*
X11124D1*
X11095Y28090D1*
X11076Y28080D1*
X11057Y28061D1*
X11048Y28032D1*
Y27965D1*
X11249Y28199D2*
X11048Y28295D1*
Y28161D1*
X27129Y29404D2*
X27330D1*
Y29471D1*
X27321Y29500D1*
X27302Y29519D1*
X27282Y29529D1*
X27254Y29538D1*
X27206D1*
X27177Y29529D1*
X27158Y29519D1*
X27139Y29500D1*
X27129Y29471D1*
Y29404D1*
X27130Y29648D2*
X27139Y29619D1*
X27158Y29609D1*
X27177D1*
X27196Y29619D1*
X27206Y29638D1*
X27216Y29676D1*
X27225Y29705D1*
X27244Y29724D1*
X27263Y29734D1*
X27292D1*
X27311Y29724D1*
X27321Y29715D1*
X27330Y29686D1*
Y29648D1*
X27321Y29619D1*
X27311Y29609D1*
X27292Y29600D1*
X27263D1*
X27244Y29609D1*
X27225Y29629D1*
X27216Y29657D1*
X27206Y29695D1*
X27196Y29715D1*
X27177Y29724D1*
X27158D1*
X27139Y29715D1*
X27130Y29686D1*
Y29648D1*
X20862Y36822D2*
Y36621D1*
X20929D1*
X20958Y36631D1*
X20977Y36650D1*
X20987Y36669D1*
X20996Y36698D1*
Y36746D1*
X20987Y36775D1*
X20977Y36794D1*
X20958Y36813D1*
X20929Y36822D1*
X20862D1*
X21183Y36755D2*
X21173Y36727D1*
X21154Y36707D1*
X21125Y36698D1*
X21116D1*
X21087Y36707D1*
X21068Y36727D1*
X21058Y36755D1*
Y36765D1*
X21068Y36794D1*
X21087Y36813D1*
X21116Y36822D1*
X21125D1*
X21154Y36813D1*
X21173Y36794D1*
X21183Y36755D1*
Y36707D1*
X21173Y36660D1*
X21154Y36631D1*
X21125Y36621D1*
X21106D1*
X21077Y36631D1*
X21068Y36650D1*
X14628Y31446D2*
Y31245D1*
X14695D1*
X14724Y31255D1*
X14743Y31274D1*
X14752Y31293D1*
X14762Y31322D1*
Y31370D1*
X14752Y31399D1*
X14743Y31418D1*
X14724Y31437D1*
X14695Y31446D1*
X14628D1*
X14824Y31408D2*
X14843Y31418D1*
X14871Y31446D1*
Y31245D1*
X14991Y31446D2*
X14962Y31437D1*
X14943Y31408D1*
X14933Y31360D1*
Y31331D1*
X14943Y31284D1*
X14962Y31255D1*
X14991Y31245D1*
X15010D1*
X15038Y31255D1*
X15057Y31284D1*
X15067Y31331D1*
Y31360D1*
X15057Y31408D1*
X15038Y31437D1*
X15010Y31446D1*
X14991D1*
X15057Y31408D2*
X14943Y31284D1*
X17053Y31417D2*
Y31216D1*
X17120D1*
X17149Y31225D1*
X17168Y31245D1*
X17178Y31264D1*
X17187Y31292D1*
Y31340D1*
X17178Y31369D1*
X17168Y31388D1*
X17149Y31407D1*
X17120Y31417D1*
X17053D1*
X17249Y31378D2*
X17268Y31388D1*
X17297Y31417D1*
Y31216D1*
X17359Y31378D2*
X17378Y31388D1*
X17407Y31417D1*
Y31216D1*
X15035Y23426D2*
X15236D1*
Y23493D1*
X15226Y23522D1*
X15207Y23541D1*
X15188Y23550D1*
X15160Y23560D1*
X15112D1*
X15083Y23550D1*
X15064Y23541D1*
X15045Y23522D1*
X15035Y23493D1*
Y23426D1*
X15074Y23622D2*
X15064Y23641D1*
X15035Y23670D1*
X15236D1*
X15083Y23741D2*
X15074D1*
X15054Y23751D1*
X15045Y23760D1*
X15035Y23779D1*
Y23818D1*
X15045Y23837D1*
X15054Y23846D1*
X15074Y23856D1*
X15093D1*
X15112Y23846D1*
X15140Y23827D1*
X15236Y23731D1*
Y23865D1*
X15964Y23453D2*
X16165D1*
Y23520D1*
X16155Y23549D1*
X16136Y23568D1*
X16117Y23578D1*
X16089Y23587D1*
X16041D1*
X16012Y23578D1*
X15993Y23568D1*
X15974Y23549D1*
X15964Y23520D1*
Y23453D1*
X16003Y23649D2*
X15993Y23668D1*
X15964Y23697D1*
X16165D1*
X15964Y23778D2*
Y23883D1*
X16041Y23826D1*
Y23855D1*
X16050Y23874D1*
X16060Y23883D1*
X16089Y23893D1*
X16108D1*
X16136Y23883D1*
X16156Y23864D1*
X16165Y23835D1*
Y23807D1*
X16156Y23778D1*
X16146Y23769D1*
X16127Y23759D1*
X8120Y28675D2*
Y28474D1*
X8187D1*
X8216Y28484D1*
X8235Y28503D1*
X8245Y28522D1*
X8254Y28551D1*
Y28599D1*
X8245Y28627D1*
X8235Y28646D1*
X8216Y28666D1*
X8187Y28675D1*
X8120D1*
X8316Y28637D2*
X8335Y28646D1*
X8364Y28675D1*
Y28474D1*
X8522D2*
Y28675D1*
X8426Y28541D1*
X8569D1*
X8038Y27952D2*
Y27751D1*
X8105D1*
X8134Y27761D1*
X8153Y27780D1*
X8163Y27799D1*
X8172Y27827D1*
Y27875D1*
X8163Y27904D1*
X8153Y27923D1*
X8134Y27942D1*
X8105Y27952D1*
X8038D1*
X8234Y27913D2*
X8253Y27923D1*
X8282Y27952D1*
Y27751D1*
X8458Y27952D2*
X8363D1*
X8353Y27866D1*
X8363Y27875D1*
X8392Y27885D1*
X8420D1*
X8449Y27875D1*
X8468Y27856D1*
X8478Y27827D1*
Y27808D1*
X8468Y27780D1*
X8449Y27760D1*
X8420Y27751D1*
X8392D1*
X8363Y27760D1*
X8353Y27770D1*
X8344Y27789D1*
X17908Y38865D2*
Y38712D1*
X17898Y38683D1*
X17889Y38673D1*
X17870Y38664D1*
X17851D1*
X17832Y38673D1*
X17822Y38683D1*
X17812Y38712D1*
Y38731D1*
X17970Y38826D2*
X17989Y38836D1*
X18018Y38864D1*
Y38664D1*
X25387Y35862D2*
Y35709D1*
X25377Y35680D1*
X25367Y35670D1*
X25348Y35661D1*
X25329D1*
X25310Y35670D1*
X25301Y35680D1*
X25291Y35709D1*
Y35728D1*
X25458Y35814D2*
Y35823D1*
X25468Y35842D1*
X25477Y35852D1*
X25496Y35861D1*
X25534D1*
X25554Y35852D1*
X25563Y35842D1*
X25573Y35823D1*
Y35804D1*
X25563Y35785D1*
X25544Y35756D1*
X25448Y35661D1*
X25582D1*
X7835Y13985D2*
Y13832D1*
X7825Y13803D1*
X7816Y13794D1*
X7797Y13784D1*
X7777D1*
X7758Y13794D1*
X7749Y13803D1*
X7739Y13832D1*
Y13851D1*
X7916Y13985D2*
X8021D1*
X7964Y13908D1*
X7992D1*
X8011Y13899D1*
X8021Y13889D1*
X8030Y13860D1*
Y13841D1*
X8021Y13813D1*
X8002Y13794D1*
X7973Y13784D1*
X7944D1*
X7916Y13794D1*
X7906Y13803D1*
X7897Y13822D1*
X20075Y25192D2*
Y25039D1*
X20066Y25010D1*
X20056Y25001D1*
X20037Y24991D1*
X20018D1*
X19999Y25001D1*
X19989Y25010D1*
X19980Y25039D1*
Y25058D1*
X20233Y24991D2*
Y25192D1*
X20137Y25058D1*
X20280D1*
X13050Y8252D2*
Y8099D1*
X13040Y8070D1*
X13031Y8061D1*
X13012Y8051D1*
X12993D1*
X12974Y8061D1*
X12964Y8070D1*
X12954Y8099D1*
Y8118D1*
X13226Y8252D2*
X13131D1*
X13121Y8166D1*
X13131Y8175D1*
X13160Y8185D1*
X13188D1*
X13217Y8175D1*
X13236Y8156D1*
X13246Y8128D1*
Y8109D1*
X13236Y8080D1*
X13217Y8061D1*
X13188Y8051D1*
X13160D1*
X13131Y8061D1*
X13121Y8070D1*
X13112Y8089D1*
X25790Y12907D2*
Y12754D1*
X25781Y12725D1*
X25771Y12715D1*
X25752Y12706D1*
X25733D1*
X25714Y12715D1*
X25704Y12725D1*
X25695Y12754D1*
Y12773D1*
X25967Y12878D2*
X25957Y12897D1*
X25929Y12906D1*
X25910D1*
X25881Y12897D1*
X25862Y12868D1*
X25852Y12820D1*
Y12773D1*
X25862Y12734D1*
X25881Y12715D1*
X25910Y12706D1*
X25919D1*
X25948Y12715D1*
X25967Y12734D1*
X25976Y12763D1*
Y12773D1*
X25967Y12801D1*
X25948Y12820D1*
X25919Y12830D1*
X25910D1*
X25881Y12820D1*
X25862Y12801D1*
X25852Y12773D1*
X26076Y7224D2*
Y7071D1*
X26066Y7043D1*
X26056Y7033D1*
X26037Y7023D1*
X26018D1*
X25999Y7033D1*
X25990Y7043D1*
X25980Y7071D1*
Y7090D1*
X26176Y7023D2*
X26271Y7224D1*
X26137D1*
X6621Y33431D2*
Y33278D1*
X6611Y33249D1*
X6602Y33240D1*
X6583Y33230D1*
X6563D1*
X6544Y33240D1*
X6535Y33249D1*
X6525Y33278D1*
Y33297D1*
X6730Y33431D2*
X6702Y33421D1*
X6692Y33402D1*
Y33383D1*
X6702Y33364D1*
X6721Y33354D1*
X6759Y33345D1*
X6788Y33335D1*
X6807Y33316D1*
X6816Y33297D1*
Y33268D1*
X6807Y33249D1*
X6797Y33240D1*
X6769Y33230D1*
X6730D1*
X6702Y33240D1*
X6692Y33249D1*
X6683Y33268D1*
Y33297D1*
X6692Y33316D1*
X6711Y33335D1*
X6740Y33345D1*
X6778Y33354D1*
X6797Y33364D1*
X6807Y33383D1*
Y33402D1*
X6797Y33421D1*
X6769Y33431D1*
X6730D1*
X5458Y27330D2*
Y27177D1*
X5449Y27149D1*
X5439Y27139D1*
X5420Y27129D1*
X5401D1*
X5382Y27139D1*
X5372Y27149D1*
X5363Y27177D1*
Y27196D1*
X5645Y27263D2*
X5635Y27235D1*
X5616Y27215D1*
X5587Y27206D1*
X5578D1*
X5549Y27215D1*
X5530Y27235D1*
X5520Y27263D1*
Y27273D1*
X5530Y27302D1*
X5549Y27321D1*
X5578Y27330D1*
X5587D1*
X5616Y27321D1*
X5635Y27302D1*
X5645Y27263D1*
Y27215D1*
X5635Y27168D1*
X5616Y27139D1*
X5587Y27129D1*
X5568D1*
X5539Y27139D1*
X5530Y27158D1*
X6451Y26816D2*
Y26663D1*
X6441Y26634D1*
X6432Y26625D1*
X6413Y26615D1*
X6393D1*
X6374Y26625D1*
X6365Y26634D1*
X6355Y26663D1*
Y26682D1*
X6513Y26778D2*
X6532Y26787D1*
X6560Y26816D1*
Y26615D1*
X6680Y26816D2*
X6651Y26806D1*
X6632Y26778D1*
X6622Y26730D1*
Y26701D1*
X6632Y26653D1*
X6651Y26625D1*
X6680Y26615D1*
X6699D1*
X6727Y26625D1*
X6746Y26653D1*
X6756Y26701D1*
Y26730D1*
X6746Y26778D1*
X6727Y26806D1*
X6699Y26816D1*
X6680D1*
X6746Y26778D2*
X6632Y26653D1*
X5649Y37315D2*
Y37114D1*
X5764D1*
X5826Y37276D2*
X5845Y37286D1*
X5874Y37315D1*
Y37114D1*
X14014Y13937D2*
Y13737D1*
X14128D1*
X14200Y13889D2*
Y13899D1*
X14209Y13918D1*
X14219Y13928D1*
X14238Y13937D1*
X14276D1*
X14295Y13928D1*
X14305Y13918D1*
X14315Y13899D1*
Y13880D1*
X14305Y13861D1*
X14286Y13832D1*
X14190Y13737D1*
X14324D1*
X24064Y32722D2*
X24045Y32713D1*
X24025Y32694D1*
X24016Y32674D1*
X24006Y32646D1*
Y32598D1*
X24016Y32569D1*
X24025Y32550D1*
X24045Y32531D1*
X24064Y32521D1*
X24102D1*
X24121Y32531D1*
X24140Y32550D1*
X24150Y32569D1*
X24159Y32598D1*
Y32646D1*
X24150Y32674D1*
X24140Y32694D1*
X24121Y32713D1*
X24102Y32722D1*
X24064D1*
X24092Y32560D2*
X24150Y32502D1*
X24221Y32684D2*
X24240Y32693D1*
X24269Y32722D1*
Y32521D1*
X20552Y40361D2*
X20533Y40352D1*
X20514Y40332D1*
X20505Y40313D1*
X20495Y40284D1*
Y40237D1*
X20505Y40208D1*
X20514Y40189D1*
X20533Y40170D1*
X20552Y40160D1*
X20591D1*
X20610Y40170D1*
X20629Y40189D1*
X20638Y40208D1*
X20648Y40237D1*
Y40284D1*
X20638Y40313D1*
X20629Y40332D1*
X20610Y40352D1*
X20591Y40361D1*
X20552D1*
X20581Y40198D2*
X20638Y40141D1*
X20720Y40313D2*
Y40322D1*
X20729Y40342D1*
X20739Y40351D1*
X20758Y40361D1*
X20796D1*
X20815Y40351D1*
X20825Y40342D1*
X20834Y40322D1*
Y40303D1*
X20825Y40284D1*
X20806Y40256D1*
X20710Y40160D1*
X20844D1*
X13273Y29382D2*
X13254Y29373D1*
X13235Y29354D1*
X13226Y29335D1*
X13216Y29306D1*
Y29258D1*
X13226Y29229D1*
X13235Y29210D1*
X13254Y29191D1*
X13273Y29182D1*
X13312D1*
X13331Y29191D1*
X13350Y29210D1*
X13359Y29229D1*
X13369Y29258D1*
Y29306D1*
X13359Y29335D1*
X13350Y29354D1*
X13331Y29373D1*
X13312Y29382D1*
X13273D1*
X13302Y29220D2*
X13359Y29162D1*
X13450Y29382D2*
X13555D1*
X13498Y29306D1*
X13527D1*
X13546Y29296D1*
X13555Y29287D1*
X13565Y29258D1*
Y29239D1*
X13555Y29210D1*
X13536Y29191D1*
X13507Y29181D1*
X13479D1*
X13450Y29191D1*
X13441Y29201D1*
X13431Y29220D1*
X15535Y29435D2*
X15516Y29426D1*
X15497Y29407D1*
X15487Y29387D1*
X15478Y29359D1*
Y29311D1*
X15487Y29282D1*
X15497Y29263D1*
X15516Y29244D1*
X15535Y29234D1*
X15573D1*
X15593Y29244D1*
X15612Y29263D1*
X15621Y29282D1*
X15631Y29311D1*
Y29359D1*
X15621Y29387D1*
X15612Y29407D1*
X15593Y29426D1*
X15573Y29435D1*
X15535D1*
X15564Y29273D2*
X15621Y29215D1*
X15788Y29234D2*
Y29435D1*
X15693Y29301D1*
X15836D1*
X9711Y25498D2*
X9692Y25488D1*
X9673Y25469D1*
X9663Y25450D1*
X9653Y25421D1*
Y25373D1*
X9663Y25345D1*
X9673Y25326D1*
X9692Y25306D1*
X9711Y25297D1*
X9749D1*
X9768Y25306D1*
X9787Y25326D1*
X9797Y25345D1*
X9807Y25373D1*
Y25421D1*
X9797Y25450D1*
X9787Y25469D1*
X9768Y25488D1*
X9749Y25498D1*
X9711D1*
X9740Y25335D2*
X9797Y25278D1*
X9983Y25497D2*
X9888D1*
X9878Y25411D1*
X9888Y25421D1*
X9916Y25431D1*
X9945D1*
X9974Y25421D1*
X9993Y25402D1*
X10002Y25373D1*
Y25354D1*
X9993Y25325D1*
X9974Y25306D1*
X9945Y25297D1*
X9916D1*
X9888Y25306D1*
X9878Y25316D1*
X9868Y25335D1*
X9817Y33298D2*
X9798Y33289D1*
X9779Y33269D1*
X9770Y33250D1*
X9760Y33221D1*
Y33174D1*
X9770Y33145D1*
X9779Y33126D1*
X9798Y33107D1*
X9817Y33097D1*
X9856D1*
X9875Y33107D1*
X9894Y33126D1*
X9903Y33145D1*
X9913Y33174D1*
Y33221D1*
X9903Y33250D1*
X9894Y33269D1*
X9875Y33289D1*
X9856Y33298D1*
X9817D1*
X9846Y33135D2*
X9903Y33078D1*
X10090Y33269D2*
X10080Y33288D1*
X10051Y33298D1*
X10032D1*
X10004Y33288D1*
X9984Y33259D1*
X9975Y33212D1*
Y33164D1*
X9984Y33126D1*
X10004Y33107D1*
X10032Y33097D1*
X10042D1*
X10070Y33107D1*
X10090Y33126D1*
X10099Y33154D1*
Y33164D1*
X10090Y33193D1*
X10070Y33212D1*
X10042Y33221D1*
X10032D1*
X10004Y33212D1*
X9984Y33193D1*
X9975Y33164D1*
X8183Y33288D2*
X8164Y33279D1*
X8144Y33259D1*
X8135Y33240D1*
X8125Y33211D1*
Y33164D1*
X8135Y33135D1*
X8144Y33116D1*
X8164Y33097D1*
X8183Y33087D1*
X8221D1*
X8240Y33097D1*
X8259Y33116D1*
X8269Y33135D1*
X8278Y33164D1*
Y33211D1*
X8269Y33240D1*
X8259Y33259D1*
X8240Y33279D1*
X8221Y33288D1*
X8183D1*
X8211Y33125D2*
X8269Y33068D1*
X8378Y33087D2*
X8474Y33288D1*
X8340D1*
X8573Y43125D2*
X8659D1*
X8688Y43135D1*
X8698Y43144D1*
X8707Y43163D1*
Y43182D1*
X8698Y43201D1*
X8688Y43211D1*
X8659Y43221D1*
X8573D1*
Y43020D1*
X8640Y43125D2*
X8707Y43020D1*
X8769Y43182D2*
X8788Y43192D1*
X8817Y43220D1*
Y43020D1*
X9745Y28890D2*
X9831D1*
X9860Y28900D1*
X9870Y28909D1*
X9879Y28928D1*
Y28947D1*
X9870Y28966D1*
X9860Y28976D1*
X9831Y28986D1*
X9745D1*
Y28785D1*
X9812Y28890D2*
X9879Y28785D1*
X9951Y28938D2*
Y28947D1*
X9960Y28966D1*
X9970Y28976D1*
X9989Y28986D1*
X10027D1*
X10046Y28976D1*
X10056Y28966D1*
X10065Y28947D1*
Y28928D1*
X10056Y28909D1*
X10037Y28880D1*
X9941Y28785D1*
X10075D1*
X16058Y21637D2*
X16144D1*
X16172Y21647D1*
X16182Y21657D1*
X16192Y21676D1*
Y21695D1*
X16182Y21714D1*
X16172Y21724D1*
X16144Y21733D1*
X16058D1*
Y21532D1*
X16125Y21637D2*
X16192Y21532D1*
X16273Y21733D2*
X16378D1*
X16320Y21656D1*
X16349D1*
X16368Y21647D1*
X16378Y21637D1*
X16387Y21609D1*
Y21590D1*
X16378Y21561D1*
X16359Y21542D1*
X16330Y21532D1*
X16301D1*
X16273Y21542D1*
X16263Y21551D1*
X16253Y21570D1*
X8658Y39505D2*
X8744D1*
X8772Y39515D1*
X8782Y39524D1*
X8792Y39543D1*
Y39563D1*
X8782Y39582D1*
X8772Y39591D1*
X8744Y39601D1*
X8658D1*
Y39400D1*
X8725Y39505D2*
X8792Y39400D1*
X8949D2*
Y39601D1*
X8853Y39467D1*
X8997D1*
X10551Y39589D2*
X10637D1*
X10666Y39598D1*
X10676Y39608D1*
X10685Y39627D1*
Y39646D1*
X10676Y39665D1*
X10666Y39675D1*
X10637Y39684D1*
X10551D1*
Y39483D1*
X10618Y39589D2*
X10685Y39483D1*
X10862Y39684D2*
X10766D1*
X10757Y39598D1*
X10766Y39608D1*
X10795Y39617D1*
X10823D1*
X10852Y39608D1*
X10871Y39589D1*
X10881Y39560D1*
Y39541D1*
X10871Y39512D1*
X10852Y39493D1*
X10823Y39483D1*
X10795D1*
X10766Y39493D1*
X10757Y39503D1*
X10747Y39522D1*
X9220Y30828D2*
X9306D1*
X9335Y30837D1*
X9344Y30847D1*
X9354Y30866D1*
Y30885D1*
X9344Y30904D1*
X9335Y30914D1*
X9306Y30923D1*
X9220D1*
Y30722D1*
X9287Y30828D2*
X9354Y30722D1*
X9530Y30894D2*
X9521Y30914D1*
X9492Y30923D1*
X9473D1*
X9444Y30914D1*
X9425Y30885D1*
X9416Y30837D1*
Y30789D1*
X9425Y30751D1*
X9444Y30732D1*
X9473Y30722D1*
X9483D1*
X9511Y30732D1*
X9530Y30751D1*
X9540Y30780D1*
Y30789D1*
X9530Y30818D1*
X9511Y30837D1*
X9483Y30847D1*
X9473D1*
X9444Y30837D1*
X9425Y30818D1*
X9416Y30789D1*
X8523Y31285D2*
Y31371D1*
X8513Y31400D1*
X8504Y31410D1*
X8485Y31419D1*
X8465D1*
X8446Y31410D1*
X8437Y31400D1*
X8427Y31371D1*
Y31285D1*
X8628D1*
X8523Y31352D2*
X8628Y31419D1*
Y31519D2*
X8427Y31615D1*
Y31481D1*
X10723Y31234D2*
Y31320D1*
X10713Y31349D1*
X10704Y31358D1*
X10685Y31368D1*
X10665D1*
X10646Y31358D1*
X10637Y31349D1*
X10627Y31320D1*
Y31234D1*
X10828D1*
X10723Y31301D2*
X10828Y31368D1*
X10627Y31477D2*
X10637Y31449D1*
X10656Y31439D1*
X10675D1*
X10694Y31449D1*
X10704Y31468D1*
X10713Y31506D1*
X10723Y31535D1*
X10742Y31554D1*
X10761Y31563D1*
X10790D1*
X10809Y31554D1*
X10819Y31544D1*
X10828Y31516D1*
Y31477D1*
X10819Y31449D1*
X10809Y31439D1*
X10790Y31430D1*
X10761D1*
X10742Y31439D1*
X10723Y31458D1*
X10713Y31487D1*
X10704Y31525D1*
X10694Y31544D1*
X10675Y31554D1*
X10656D1*
X10637Y31544D1*
X10627Y31516D1*
Y31477D1*
X7088Y18434D2*
X7174D1*
X7202Y18443D1*
X7212Y18453D1*
X7221Y18472D1*
Y18491D1*
X7212Y18510D1*
X7202Y18520D1*
X7174Y18529D1*
X7088D1*
Y18328D1*
X7154Y18434D2*
X7221Y18328D1*
X7408Y18462D2*
X7398Y18434D1*
X7379Y18414D1*
X7350Y18405D1*
X7341D1*
X7312Y18414D1*
X7293Y18434D1*
X7283Y18462D1*
Y18472D1*
X7293Y18501D1*
X7312Y18520D1*
X7341Y18529D1*
X7350D1*
X7379Y18520D1*
X7398Y18501D1*
X7408Y18462D1*
Y18414D1*
X7398Y18367D1*
X7379Y18338D1*
X7350Y18328D1*
X7331D1*
X7302Y18338D1*
X7293Y18357D1*
X6732Y17713D2*
X6818D1*
X6847Y17723D1*
X6857Y17732D1*
X6866Y17751D1*
Y17770D1*
X6857Y17789D1*
X6847Y17799D1*
X6818Y17809D1*
X6732D1*
Y17608D1*
X6799Y17713D2*
X6866Y17608D1*
X6928Y17770D2*
X6947Y17780D1*
X6976Y17808D1*
Y17608D1*
X7095Y17808D2*
X7066Y17799D1*
X7047Y17770D1*
X7038Y17722D1*
Y17694D1*
X7047Y17646D1*
X7066Y17617D1*
X7095Y17608D1*
X7114D1*
X7143Y17617D1*
X7162Y17646D1*
X7172Y17694D1*
Y17722D1*
X7162Y17770D1*
X7143Y17799D1*
X7114Y17808D1*
X7095D1*
X7162Y17770D2*
X7047Y17646D1*
X8019Y14725D2*
X8105D1*
X8134Y14735D1*
X8144Y14744D1*
X8153Y14764D1*
Y14783D1*
X8144Y14802D1*
X8134Y14811D1*
X8105Y14821D1*
X8019D1*
Y14620D1*
X8086Y14725D2*
X8153Y14620D1*
X8215Y14783D2*
X8234Y14792D1*
X8263Y14821D1*
Y14620D1*
X8325Y14783D2*
X8344Y14792D1*
X8373Y14821D1*
Y14620D1*
X15097Y15462D2*
X15183D1*
X15212Y15472D1*
X15221Y15482D1*
X15231Y15501D1*
Y15520D1*
X15221Y15539D1*
X15212Y15549D1*
X15183Y15558D1*
X15097D1*
Y15357D1*
X15164Y15462D2*
X15231Y15357D1*
X15293Y15520D2*
X15312Y15529D1*
X15341Y15558D1*
Y15357D1*
X15412Y15510D2*
Y15520D1*
X15422Y15539D1*
X15431Y15548D1*
X15450Y15558D1*
X15489D1*
X15508Y15548D1*
X15517Y15539D1*
X15527Y15520D1*
Y15501D1*
X15517Y15481D1*
X15498Y15453D1*
X15402Y15357D1*
X15536D1*
X11970Y13230D2*
X12056D1*
X12085Y13240D1*
X12095Y13249D1*
X12104Y13268D1*
Y13287D1*
X12095Y13306D1*
X12085Y13316D1*
X12056Y13326D1*
X11970D1*
Y13125D1*
X12037Y13230D2*
X12104Y13125D1*
X12166Y13287D2*
X12185Y13297D1*
X12214Y13326D1*
Y13125D1*
X12295Y13326D2*
X12400D1*
X12343Y13249D1*
X12371D1*
X12390Y13240D1*
X12400Y13230D1*
X12410Y13201D1*
Y13182D1*
X12400Y13154D1*
X12381Y13134D1*
X12352Y13125D1*
X12323D1*
X12295Y13134D1*
X12285Y13144D1*
X12276Y13163D1*
X15685Y15964D2*
X15771D1*
X15799Y15973D1*
X15809Y15983D1*
X15819Y16002D1*
Y16021D1*
X15809Y16040D1*
X15799Y16050D1*
X15771Y16059D1*
X15685D1*
Y15858D1*
X15752Y15964D2*
X15819Y15858D1*
X15880Y16021D2*
X15900Y16031D1*
X15928Y16059D1*
Y15858D1*
X16086D2*
Y16059D1*
X15990Y15925D1*
X16134D1*
X15999Y16284D2*
X16085D1*
X16114Y16293D1*
X16124Y16303D1*
X16133Y16322D1*
Y16341D1*
X16124Y16360D1*
X16114Y16370D1*
X16085Y16379D1*
X15999D1*
Y16178D1*
X16066Y16284D2*
X16133Y16178D1*
X16195Y16341D2*
X16214Y16351D1*
X16243Y16379D1*
Y16178D1*
X16420Y16379D2*
X16324D1*
X16315Y16293D1*
X16324Y16303D1*
X16353Y16312D1*
X16381D1*
X16410Y16303D1*
X16429Y16284D1*
X16439Y16255D1*
Y16236D1*
X16429Y16207D1*
X16410Y16188D1*
X16381Y16178D1*
X16353D1*
X16324Y16188D1*
X16315Y16198D1*
X16305Y16217D1*
X6517Y7824D2*
X6603D1*
X6632Y7833D1*
X6642Y7843D1*
X6651Y7862D1*
Y7881D1*
X6642Y7900D1*
X6632Y7910D1*
X6603Y7919D1*
X6517D1*
Y7719D1*
X6584Y7824D2*
X6651Y7719D1*
X6713Y7881D2*
X6732Y7891D1*
X6761Y7919D1*
Y7719D1*
X6938Y7891D2*
X6928Y7910D1*
X6899Y7919D1*
X6880D1*
X6852Y7910D1*
X6832Y7881D1*
X6823Y7833D1*
Y7786D1*
X6832Y7747D1*
X6852Y7728D1*
X6880Y7719D1*
X6890D1*
X6918Y7728D1*
X6938Y7747D1*
X6947Y7776D1*
Y7786D1*
X6938Y7814D1*
X6918Y7833D1*
X6890Y7843D1*
X6880D1*
X6852Y7833D1*
X6832Y7814D1*
X6823Y7786D1*
X6494Y34459D2*
X6580D1*
X6609Y34468D1*
X6619Y34478D1*
X6628Y34497D1*
Y34516D1*
X6619Y34535D1*
X6609Y34545D1*
X6580Y34554D1*
X6494D1*
Y34353D1*
X6561Y34459D2*
X6628Y34353D1*
X6690Y34516D2*
X6709Y34526D1*
X6738Y34554D1*
Y34353D1*
X6838D2*
X6934Y34554D1*
X6800D1*
X25854Y35604D2*
X25940D1*
X25969Y35613D1*
X25978Y35623D1*
X25988Y35642D1*
Y35661D1*
X25978Y35680D1*
X25969Y35690D1*
X25940Y35699D1*
X25854D1*
Y35498D1*
X25921Y35604D2*
X25988Y35498D1*
X26050Y35661D2*
X26069Y35671D1*
X26097Y35699D1*
Y35498D1*
X26207Y35699D2*
X26178Y35690D1*
X26169Y35671D1*
Y35651D1*
X26178Y35632D1*
X26197Y35623D1*
X26236Y35613D1*
X26264Y35604D1*
X26283Y35584D1*
X26293Y35565D1*
Y35537D1*
X26283Y35518D1*
X26274Y35508D1*
X26245Y35498D1*
X26207D1*
X26178Y35508D1*
X26169Y35518D1*
X26159Y35537D1*
Y35565D1*
X26169Y35584D1*
X26188Y35604D1*
X26217Y35613D1*
X26255Y35623D1*
X26274Y35632D1*
X26283Y35651D1*
Y35671D1*
X26274Y35690D1*
X26245Y35699D1*
X26207D1*
X22744Y9931D2*
X22830D1*
X22859Y9941D1*
X22869Y9950D1*
X22878Y9969D1*
Y9988D1*
X22869Y10007D1*
X22859Y10017D1*
X22830Y10027D1*
X22744D1*
Y9826D1*
X22811Y9931D2*
X22878Y9826D1*
X22940Y9988D2*
X22959Y9998D1*
X22988Y10026D1*
Y9826D1*
X23174Y9960D2*
X23164Y9931D1*
X23145Y9912D1*
X23117Y9902D1*
X23107D1*
X23078Y9912D1*
X23059Y9931D1*
X23050Y9960D1*
Y9969D1*
X23059Y9998D1*
X23078Y10017D1*
X23107Y10026D1*
X23117D1*
X23145Y10017D1*
X23164Y9998D1*
X23174Y9960D1*
Y9912D1*
X23164Y9864D1*
X23145Y9835D1*
X23117Y9826D1*
X23098D1*
X23069Y9835D1*
X23059Y9854D1*
X17016Y8558D2*
X17102D1*
X17131Y8568D1*
X17141Y8578D1*
X17150Y8597D1*
Y8616D1*
X17141Y8635D1*
X17131Y8645D1*
X17102Y8654D1*
X17016D1*
Y8453D1*
X17083Y8558D2*
X17150Y8453D1*
X17222Y8606D2*
Y8616D1*
X17231Y8635D1*
X17241Y8644D1*
X17260Y8654D1*
X17298D1*
X17317Y8644D1*
X17327Y8635D1*
X17337Y8616D1*
Y8597D1*
X17327Y8577D1*
X17308Y8549D1*
X17212Y8453D1*
X17346D1*
X17465Y8654D2*
X17437Y8644D1*
X17417Y8616D1*
X17408Y8568D1*
Y8539D1*
X17417Y8491D1*
X17437Y8463D1*
X17465Y8453D1*
X17484D1*
X17513Y8463D1*
X17532Y8491D1*
X17542Y8539D1*
Y8568D1*
X17532Y8616D1*
X17513Y8644D1*
X17484Y8654D1*
X17465D1*
X17532Y8616D2*
X17417Y8491D1*
X17147Y8073D2*
X17233D1*
X17262Y8083D1*
X17271Y8093D1*
X17281Y8112D1*
Y8131D1*
X17271Y8150D1*
X17262Y8160D1*
X17233Y8169D1*
X17147D1*
Y7968D1*
X17214Y8073D2*
X17281Y7968D1*
X17352Y8121D2*
Y8131D1*
X17362Y8150D1*
X17371Y8159D1*
X17391Y8169D1*
X17429D1*
X17448Y8159D1*
X17457Y8150D1*
X17467Y8131D1*
Y8112D1*
X17457Y8092D1*
X17438Y8064D1*
X17343Y7968D1*
X17477D1*
X17538Y8131D2*
X17558Y8140D1*
X17586Y8169D1*
Y7968D1*
X23174Y7765D2*
X23260D1*
X23289Y7775D1*
X23298Y7784D1*
X23308Y7803D1*
Y7823D1*
X23298Y7842D1*
X23289Y7851D1*
X23260Y7861D1*
X23174D1*
Y7660D1*
X23241Y7765D2*
X23308Y7660D1*
X23379Y7813D2*
Y7822D1*
X23389Y7842D1*
X23398Y7851D1*
X23418Y7861D1*
X23456D1*
X23475Y7851D1*
X23484Y7842D1*
X23494Y7822D1*
Y7803D1*
X23484Y7784D1*
X23465Y7756D1*
X23370Y7660D1*
X23504D1*
X23575Y7813D2*
Y7822D1*
X23585Y7842D1*
X23594Y7851D1*
X23613Y7861D1*
X23652D1*
X23671Y7851D1*
X23680Y7842D1*
X23690Y7822D1*
Y7803D1*
X23680Y7784D1*
X23661Y7756D1*
X23565Y7660D1*
X23699D1*
X23254Y5065D2*
X23340D1*
X23369Y5075D1*
X23378Y5084D1*
X23388Y5103D1*
Y5123D1*
X23378Y5142D1*
X23369Y5151D1*
X23340Y5161D1*
X23254D1*
Y4960D1*
X23321Y5065D2*
X23388Y4960D1*
X23459Y5113D2*
Y5122D1*
X23469Y5142D1*
X23478Y5151D1*
X23498Y5161D1*
X23536D1*
X23555Y5151D1*
X23564Y5142D1*
X23574Y5122D1*
Y5103D1*
X23564Y5084D1*
X23545Y5056D1*
X23450Y4960D1*
X23584D1*
X23665Y5161D2*
X23770D1*
X23712Y5084D1*
X23741D1*
X23760Y5075D1*
X23770Y5065D1*
X23779Y5036D1*
Y5017D1*
X23770Y4989D1*
X23751Y4969D1*
X23722Y4960D1*
X23693D1*
X23665Y4969D1*
X23655Y4979D1*
X23645Y4998D1*
X20849Y17836D2*
X20935D1*
X20964Y17846D1*
X20974Y17855D1*
X20983Y17874D1*
Y17893D1*
X20974Y17912D1*
X20964Y17922D1*
X20935Y17932D1*
X20849D1*
Y17731D1*
X20916Y17836D2*
X20983Y17731D1*
X21055Y17884D2*
Y17893D1*
X21064Y17912D1*
X21074Y17922D1*
X21093Y17931D1*
X21131D1*
X21150Y17922D1*
X21160Y17912D1*
X21169Y17893D1*
Y17874D1*
X21160Y17855D1*
X21141Y17826D1*
X21045Y17731D1*
X21179D1*
X21336D2*
Y17931D1*
X21241Y17798D1*
X21384D1*
X18206Y18354D2*
X18292D1*
X18321Y18363D1*
X18331Y18373D1*
X18340Y18392D1*
Y18411D1*
X18331Y18430D1*
X18321Y18440D1*
X18292Y18449D1*
X18206D1*
Y18248D1*
X18273Y18354D2*
X18340Y18248D1*
X18412Y18401D2*
Y18411D1*
X18421Y18430D1*
X18431Y18440D1*
X18450Y18449D1*
X18488D1*
X18507Y18440D1*
X18517Y18430D1*
X18527Y18411D1*
Y18392D1*
X18517Y18373D1*
X18498Y18344D1*
X18402Y18248D1*
X18536D1*
X18713Y18449D2*
X18617D1*
X18608Y18363D1*
X18617Y18373D1*
X18646Y18382D1*
X18674D1*
X18703Y18373D1*
X18722Y18354D1*
X18732Y18325D1*
Y18306D1*
X18722Y18277D1*
X18703Y18258D1*
X18674Y18248D1*
X18646D1*
X18617Y18258D1*
X18608Y18268D1*
X18598Y18287D1*
X17863Y18002D2*
X17949D1*
X17978Y18012D1*
X17988Y18021D1*
X17997Y18040D1*
Y18059D1*
X17988Y18078D1*
X17978Y18088D1*
X17949Y18098D1*
X17863D1*
Y17897D1*
X17930Y18002D2*
X17997Y17897D1*
X18069Y18050D2*
Y18059D1*
X18078Y18078D1*
X18088Y18088D1*
X18107Y18097D1*
X18145D1*
X18164Y18088D1*
X18174Y18078D1*
X18183Y18059D1*
Y18040D1*
X18174Y18021D1*
X18155Y17992D1*
X18059Y17897D1*
X18193D1*
X18369Y18069D2*
X18360Y18088D1*
X18331Y18097D1*
X18312D1*
X18283Y18088D1*
X18264Y18059D1*
X18255Y18011D1*
Y17964D1*
X18264Y17925D1*
X18283Y17906D1*
X18312Y17897D1*
X18322D1*
X18350Y17906D1*
X18369Y17925D1*
X18379Y17954D1*
Y17964D1*
X18369Y17992D1*
X18350Y18011D1*
X18322Y18021D1*
X18312D1*
X18283Y18011D1*
X18264Y17992D1*
X18255Y17964D1*
X23049Y15650D2*
X23135D1*
X23164Y15660D1*
X23173Y15669D1*
X23183Y15688D1*
Y15708D1*
X23173Y15727D1*
X23164Y15736D1*
X23135Y15746D1*
X23049D1*
Y15545D1*
X23116Y15650D2*
X23183Y15545D1*
X23254Y15698D2*
Y15707D1*
X23264Y15727D1*
X23273Y15736D1*
X23293Y15746D1*
X23331D1*
X23350Y15736D1*
X23359Y15727D1*
X23369Y15707D1*
Y15688D1*
X23359Y15669D1*
X23340Y15641D1*
X23245Y15545D1*
X23379D1*
X23479D2*
X23574Y15746D1*
X23440D1*
X23069Y12770D2*
X23155D1*
X23184Y12780D1*
X23194Y12789D1*
X23203Y12808D1*
Y12828D1*
X23194Y12847D1*
X23184Y12856D1*
X23155Y12866D1*
X23069D1*
Y12665D1*
X23136Y12770D2*
X23203Y12665D1*
X23274Y12818D2*
Y12827D1*
X23284Y12847D1*
X23294Y12856D1*
X23313Y12866D1*
X23351D1*
X23370Y12856D1*
X23380Y12847D1*
X23389Y12827D1*
Y12808D1*
X23380Y12789D1*
X23360Y12761D1*
X23265Y12665D1*
X23399D1*
X23508Y12866D2*
X23480Y12856D1*
X23470Y12837D1*
Y12818D1*
X23480Y12799D1*
X23499Y12789D1*
X23537Y12780D1*
X23566Y12770D1*
X23585Y12751D1*
X23594Y12732D1*
Y12703D1*
X23585Y12684D1*
X23575Y12674D1*
X23546Y12665D1*
X23508D1*
X23480Y12674D1*
X23470Y12684D1*
X23460Y12703D1*
Y12732D1*
X23470Y12751D1*
X23489Y12770D1*
X23518Y12780D1*
X23556Y12789D1*
X23575Y12799D1*
X23585Y12818D1*
Y12837D1*
X23575Y12856D1*
X23546Y12866D1*
X23508D1*
X22133Y20673D2*
Y20759D1*
X22123Y20788D1*
X22114Y20798D1*
X22095Y20807D1*
X22075D1*
X22056Y20798D1*
X22047Y20788D1*
X22037Y20759D1*
Y20673D1*
X22238D1*
X22133Y20740D2*
X22238Y20807D1*
X22085Y20879D2*
X22076D1*
X22056Y20888D1*
X22047Y20898D1*
X22037Y20917D1*
Y20955D1*
X22047Y20974D1*
X22056Y20984D1*
X22076Y20993D1*
X22095D1*
X22114Y20984D1*
X22142Y20965D1*
X22238Y20869D1*
Y21003D1*
X22104Y21189D2*
X22133Y21179D1*
X22152Y21160D1*
X22162Y21132D1*
Y21122D1*
X22152Y21093D1*
X22133Y21074D1*
X22104Y21065D1*
X22095D1*
X22066Y21074D1*
X22047Y21093D1*
X22037Y21122D1*
Y21132D1*
X22047Y21160D1*
X22066Y21179D1*
X22104Y21189D1*
X22152D1*
X22200Y21179D1*
X22229Y21160D1*
X22238Y21132D1*
Y21112D1*
X22229Y21084D1*
X22209Y21074D1*
X19756Y19814D2*
X19842D1*
X19871Y19823D1*
X19881Y19833D1*
X19890Y19852D1*
Y19871D1*
X19881Y19890D1*
X19871Y19900D1*
X19842Y19909D1*
X19756D1*
Y19708D1*
X19823Y19814D2*
X19890Y19708D1*
X19971Y19909D2*
X20076D1*
X20019Y19833D1*
X20048D1*
X20067Y19823D1*
X20076Y19814D1*
X20086Y19785D1*
Y19766D1*
X20076Y19737D1*
X20057Y19718D1*
X20029Y19708D1*
X20000D1*
X19971Y19718D1*
X19962Y19728D1*
X19952Y19747D1*
X20205Y19909D2*
X20177Y19900D1*
X20157Y19871D1*
X20148Y19823D1*
Y19794D1*
X20157Y19747D1*
X20177Y19718D1*
X20205Y19708D1*
X20224D1*
X20253Y19718D1*
X20272Y19747D1*
X20282Y19794D1*
Y19823D1*
X20272Y19871D1*
X20253Y19900D1*
X20224Y19909D1*
X20205D1*
X20272Y19871D2*
X20157Y19747D1*
X19541Y19482D2*
X19627D1*
X19656Y19492D1*
X19666Y19501D1*
X19675Y19520D1*
Y19539D1*
X19666Y19558D1*
X19656Y19568D1*
X19627Y19578D1*
X19541D1*
Y19377D1*
X19608Y19482D2*
X19675Y19377D1*
X19756Y19577D2*
X19861D1*
X19804Y19501D1*
X19833D1*
X19852Y19491D1*
X19861Y19482D1*
X19871Y19453D1*
Y19434D1*
X19861Y19405D1*
X19842Y19386D1*
X19813Y19377D1*
X19785D1*
X19756Y19386D1*
X19747Y19396D1*
X19737Y19415D1*
X19933Y19539D2*
X19952Y19549D1*
X19981Y19577D1*
Y19377D1*
X23305Y22935D2*
X23391D1*
X23420Y22944D1*
X23430Y22954D1*
X23439Y22973D1*
Y22992D1*
X23430Y23011D1*
X23420Y23021D1*
X23391Y23030D1*
X23305D1*
Y22829D1*
X23372Y22935D2*
X23439Y22829D1*
X23520Y23030D2*
X23625D1*
X23568Y22954D1*
X23597D1*
X23616Y22944D1*
X23625Y22935D1*
X23635Y22906D1*
Y22887D1*
X23625Y22858D1*
X23606Y22839D1*
X23578Y22829D1*
X23549D1*
X23520Y22839D1*
X23511Y22849D1*
X23501Y22868D1*
X23707Y22982D2*
Y22992D1*
X23716Y23011D1*
X23726Y23021D1*
X23745Y23030D1*
X23783D1*
X23802Y23021D1*
X23812Y23011D1*
X23821Y22992D1*
Y22973D1*
X23812Y22954D1*
X23793Y22925D1*
X23697Y22829D1*
X23831D1*
X25877Y22935D2*
X25963D1*
X25992Y22945D1*
X26002Y22954D1*
X26011Y22973D1*
Y22992D1*
X26002Y23011D1*
X25992Y23021D1*
X25963Y23031D1*
X25877D1*
Y22830D1*
X25944Y22935D2*
X26011Y22830D1*
X26092Y23030D2*
X26197D1*
X26140Y22954D1*
X26169D1*
X26188Y22944D1*
X26197Y22935D1*
X26207Y22906D1*
Y22887D1*
X26197Y22858D1*
X26178Y22839D1*
X26150Y22830D1*
X26121D1*
X26092Y22839D1*
X26083Y22849D1*
X26073Y22868D1*
X26288Y23030D2*
X26393D1*
X26336Y22954D1*
X26364D1*
X26383Y22944D1*
X26393Y22935D1*
X26403Y22906D1*
Y22887D1*
X26393Y22858D1*
X26374Y22839D1*
X26345Y22830D1*
X26316D1*
X26288Y22839D1*
X26278Y22849D1*
X26269Y22868D1*
X23285Y32115D2*
Y32201D1*
X23276Y32230D1*
X23266Y32240D1*
X23247Y32249D1*
X23228D1*
X23209Y32240D1*
X23199Y32230D1*
X23190Y32201D1*
Y32115D1*
X23391D1*
X23285Y32182D2*
X23391Y32249D1*
X23190Y32330D2*
Y32435D1*
X23266Y32378D1*
Y32407D1*
X23276Y32426D1*
X23285Y32435D1*
X23314Y32445D1*
X23333D1*
X23362Y32435D1*
X23381Y32416D1*
X23391Y32388D1*
Y32359D1*
X23381Y32330D1*
X23371Y32321D1*
X23352Y32311D1*
X23391Y32603D2*
X23190D1*
X23324Y32507D1*
Y32650D1*
X20373Y34719D2*
X20459D1*
X20488Y34728D1*
X20498Y34738D1*
X20507Y34757D1*
Y34776D1*
X20498Y34795D1*
X20488Y34805D1*
X20459Y34814D1*
X20373D1*
Y34613D1*
X20440Y34719D2*
X20507Y34613D1*
X20588Y34814D2*
X20693D1*
X20636Y34738D1*
X20665D1*
X20684Y34728D1*
X20693Y34719D1*
X20703Y34690D1*
Y34671D1*
X20693Y34642D1*
X20674Y34623D1*
X20645Y34613D1*
X20617D1*
X20588Y34623D1*
X20579Y34633D1*
X20569Y34652D1*
X20879Y34814D2*
X20784D1*
X20774Y34728D1*
X20784Y34738D1*
X20813Y34747D1*
X20841D1*
X20870Y34738D1*
X20889Y34719D1*
X20899Y34690D1*
Y34671D1*
X20889Y34642D1*
X20870Y34623D1*
X20841Y34613D1*
X20813D1*
X20784Y34623D1*
X20774Y34633D1*
X20765Y34652D1*
X20366Y35119D2*
X20452D1*
X20481Y35128D1*
X20491Y35138D1*
X20500Y35157D1*
Y35176D1*
X20491Y35195D1*
X20481Y35205D1*
X20452Y35214D1*
X20366D1*
Y35013D1*
X20433Y35119D2*
X20500Y35013D1*
X20581Y35214D2*
X20686D1*
X20629Y35138D1*
X20658D1*
X20677Y35128D1*
X20686Y35119D1*
X20696Y35090D1*
Y35071D1*
X20686Y35042D1*
X20667Y35023D1*
X20638Y35013D1*
X20610D1*
X20581Y35023D1*
X20572Y35033D1*
X20562Y35052D1*
X20872Y35186D2*
X20863Y35205D1*
X20834Y35214D1*
X20815D1*
X20786Y35205D1*
X20767Y35176D1*
X20758Y35128D1*
Y35080D1*
X20767Y35042D1*
X20786Y35023D1*
X20815Y35013D1*
X20825D1*
X20853Y35023D1*
X20872Y35042D1*
X20882Y35071D1*
Y35080D1*
X20872Y35109D1*
X20853Y35128D1*
X20825Y35138D1*
X20815D1*
X20786Y35128D1*
X20767Y35109D1*
X20758Y35080D1*
X22733Y29801D2*
Y29887D1*
X22723Y29916D1*
X22714Y29925D1*
X22695Y29935D1*
X22675D1*
X22656Y29925D1*
X22647Y29916D1*
X22637Y29887D1*
Y29801D1*
X22838D1*
X22733Y29868D2*
X22838Y29935D1*
X22637Y30016D2*
Y30121D1*
X22714Y30063D1*
Y30092D1*
X22723Y30111D1*
X22733Y30121D1*
X22762Y30130D1*
X22781D1*
X22809Y30121D1*
X22829Y30102D1*
X22838Y30073D1*
Y30044D1*
X22829Y30016D1*
X22819Y30006D1*
X22800Y29997D1*
X22838Y30230D2*
X22637Y30326D1*
Y30192D1*
X19983Y29781D2*
Y29867D1*
X19973Y29896D1*
X19964Y29905D1*
X19945Y29915D1*
X19925D1*
X19906Y29905D1*
X19897Y29896D1*
X19887Y29867D1*
Y29781D1*
X20088D1*
X19983Y29848D2*
X20088Y29915D1*
X19887Y29996D2*
Y30101D1*
X19964Y30044D1*
Y30072D1*
X19973Y30091D1*
X19983Y30101D1*
X20012Y30111D1*
X20031D1*
X20059Y30101D1*
X20079Y30082D1*
X20088Y30053D1*
Y30024D1*
X20079Y29996D1*
X20069Y29986D1*
X20050Y29977D1*
X19887Y30220D2*
X19897Y30192D1*
X19916Y30182D1*
X19935D1*
X19954Y30192D1*
X19964Y30211D1*
X19973Y30249D1*
X19983Y30278D1*
X20002Y30297D1*
X20021Y30306D1*
X20050D1*
X20069Y30297D1*
X20079Y30287D1*
X20088Y30258D1*
Y30220D1*
X20079Y30192D1*
X20069Y30182D1*
X20050Y30172D1*
X20021D1*
X20002Y30182D1*
X19983Y30201D1*
X19973Y30230D1*
X19964Y30268D1*
X19954Y30287D1*
X19935Y30297D1*
X19916D1*
X19897Y30287D1*
X19887Y30258D1*
Y30220D1*
X10703Y27969D2*
Y28055D1*
X10693Y28084D1*
X10684Y28093D1*
X10665Y28103D1*
X10645D1*
X10626Y28093D1*
X10617Y28084D1*
X10607Y28055D1*
Y27969D1*
X10808D1*
X10703Y28036D2*
X10808Y28103D1*
X10607Y28184D2*
Y28289D1*
X10684Y28232D1*
Y28260D1*
X10693Y28279D1*
X10703Y28289D1*
X10732Y28299D1*
X10751D1*
X10779Y28289D1*
X10799Y28270D1*
X10808Y28241D1*
Y28212D1*
X10799Y28184D1*
X10789Y28174D1*
X10770Y28165D1*
X10674Y28485D2*
X10703Y28475D1*
X10722Y28456D1*
X10732Y28427D1*
Y28418D1*
X10722Y28389D1*
X10703Y28370D1*
X10674Y28360D1*
X10665D1*
X10636Y28370D1*
X10617Y28389D1*
X10607Y28418D1*
Y28427D1*
X10617Y28456D1*
X10636Y28475D1*
X10674Y28485D1*
X10722D1*
X10770Y28475D1*
X10799Y28456D1*
X10808Y28427D1*
Y28408D1*
X10799Y28380D1*
X10779Y28370D1*
X10225Y27977D2*
Y28063D1*
X10216Y28092D1*
X10206Y28101D1*
X10187Y28111D1*
X10168D1*
X10149Y28101D1*
X10139Y28092D1*
X10130Y28063D1*
Y27977D1*
X10331D1*
X10225Y28044D2*
X10331Y28111D1*
Y28268D2*
X10130D1*
X10264Y28173D1*
Y28316D1*
X10130Y28435D2*
X10139Y28407D1*
X10168Y28387D1*
X10216Y28378D1*
X10245D1*
X10292Y28387D1*
X10321Y28407D1*
X10331Y28435D1*
Y28454D1*
X10321Y28483D1*
X10292Y28502D1*
X10245Y28512D1*
X10216D1*
X10168Y28502D1*
X10139Y28483D1*
X10130Y28454D1*
Y28435D1*
X10168Y28502D2*
X10292Y28387D1*
X7653Y30431D2*
Y30517D1*
X7643Y30546D1*
X7634Y30555D1*
X7615Y30565D1*
X7595D1*
X7576Y30555D1*
X7567Y30546D1*
X7557Y30517D1*
Y30431D1*
X7758D1*
X7653Y30498D2*
X7758Y30565D1*
Y30722D2*
X7557D1*
X7691Y30627D1*
Y30770D1*
X7596Y30832D2*
X7586Y30851D1*
X7557Y30880D1*
X7758D1*
X8108Y30418D2*
Y30504D1*
X8098Y30533D1*
X8089Y30542D1*
X8070Y30552D1*
X8050D1*
X8031Y30542D1*
X8022Y30533D1*
X8012Y30504D1*
Y30418D1*
X8213D1*
X8108Y30485D2*
X8213Y30552D1*
Y30709D2*
X8012D1*
X8146Y30614D1*
Y30757D1*
X8060Y30829D2*
X8051D1*
X8031Y30838D1*
X8022Y30848D1*
X8012Y30867D1*
Y30905D1*
X8022Y30924D1*
X8031Y30934D1*
X8051Y30943D1*
X8070D1*
X8089Y30934D1*
X8117Y30915D1*
X8213Y30819D1*
Y30953D1*
X10783Y23845D2*
Y23931D1*
X10773Y23960D1*
X10764Y23970D1*
X10745Y23979D1*
X10725D1*
X10706Y23970D1*
X10697Y23960D1*
X10687Y23931D1*
Y23845D1*
X10888D1*
X10783Y23912D2*
X10888Y23979D1*
Y24137D2*
X10687D1*
X10821Y24041D1*
Y24185D1*
X10687Y24266D2*
Y24371D1*
X10764Y24313D1*
Y24342D1*
X10773Y24361D1*
X10783Y24371D1*
X10812Y24380D1*
X10831D1*
X10859Y24371D1*
X10879Y24352D1*
X10888Y24323D1*
Y24294D1*
X10879Y24266D1*
X10869Y24256D1*
X10850Y24246D1*
X16538Y23316D2*
Y23402D1*
X16528Y23431D1*
X16519Y23441D1*
X16500Y23450D1*
X16480D1*
X16461Y23441D1*
X16452Y23431D1*
X16442Y23402D1*
Y23316D1*
X16643D1*
X16538Y23383D2*
X16643Y23450D1*
Y23608D2*
X16442D1*
X16576Y23512D1*
Y23656D1*
X16643Y23813D2*
X16442D1*
X16576Y23717D1*
Y23861D1*
X14653Y23340D2*
Y23426D1*
X14643Y23455D1*
X14634Y23465D1*
X14615Y23474D1*
X14595D1*
X14576Y23465D1*
X14567Y23455D1*
X14557Y23426D1*
Y23340D1*
X14758D1*
X14653Y23407D2*
X14758Y23474D1*
Y23632D2*
X14557D1*
X14691Y23536D1*
Y23680D1*
X14557Y23856D2*
Y23761D1*
X14643Y23751D1*
X14634Y23761D1*
X14624Y23789D1*
Y23818D1*
X14634Y23847D1*
X14653Y23866D1*
X14682Y23875D1*
X14701D1*
X14729Y23866D1*
X14749Y23847D1*
X14758Y23818D1*
Y23789D1*
X14749Y23761D1*
X14739Y23751D1*
X14720Y23741D1*
X8032Y27489D2*
X8118D1*
X8147Y27499D1*
X8157Y27508D1*
X8166Y27527D1*
Y27547D1*
X8157Y27566D1*
X8147Y27575D1*
X8118Y27585D1*
X8032D1*
Y27384D1*
X8099Y27489D2*
X8166Y27384D1*
X8324D2*
Y27585D1*
X8228Y27451D1*
X8371D1*
X8548Y27556D2*
X8538Y27575D1*
X8510Y27585D1*
X8491D1*
X8462Y27575D1*
X8443Y27546D1*
X8433Y27499D1*
Y27451D1*
X8443Y27413D1*
X8462Y27393D1*
X8491Y27384D1*
X8500D1*
X8529Y27393D1*
X8548Y27413D1*
X8557Y27441D1*
Y27451D1*
X8548Y27480D1*
X8529Y27499D1*
X8500Y27508D1*
X8491D1*
X8462Y27499D1*
X8443Y27480D1*
X8433Y27451D1*
X8077Y29027D2*
X8163D1*
X8192Y29036D1*
X8202Y29046D1*
X8211Y29065D1*
Y29084D1*
X8202Y29103D1*
X8192Y29113D1*
X8163Y29122D1*
X8077D1*
Y28921D1*
X8144Y29027D2*
X8211Y28921D1*
X8369D2*
Y29122D1*
X8273Y28988D1*
X8416D1*
X8516Y28921D2*
X8612Y29122D1*
X8478D1*
X12507Y40779D2*
X12593D1*
X12621Y40788D1*
X12631Y40798D1*
X12641Y40817D1*
Y40836D1*
X12631Y40855D1*
X12621Y40865D1*
X12593Y40874D1*
X12507D1*
Y40673D1*
X12574Y40779D2*
X12641Y40673D1*
X12798D2*
Y40874D1*
X12702Y40740D1*
X12846D1*
X12955Y40874D2*
X12927Y40865D1*
X12917Y40846D1*
Y40826D1*
X12927Y40807D1*
X12946Y40798D1*
X12984Y40788D1*
X13013Y40779D1*
X13032Y40759D1*
X13041Y40740D1*
Y40712D1*
X13032Y40693D1*
X13022Y40683D1*
X12994Y40673D1*
X12955D1*
X12927Y40683D1*
X12917Y40693D1*
X12908Y40712D1*
Y40740D1*
X12917Y40759D1*
X12936Y40779D1*
X12965Y40788D1*
X13003Y40798D1*
X13022Y40807D1*
X13032Y40826D1*
Y40846D1*
X13022Y40865D1*
X12994Y40874D1*
X12955D1*
X23078Y32950D2*
Y33036D1*
X23068Y33065D1*
X23059Y33075D1*
X23040Y33084D1*
X23020D1*
X23001Y33075D1*
X22992Y33065D1*
X22982Y33036D1*
Y32950D1*
X23183D1*
X23078Y33017D2*
X23183Y33084D1*
Y33242D2*
X22982D1*
X23116Y33146D1*
Y33289D1*
X23049Y33476D2*
X23078Y33466D1*
X23097Y33447D1*
X23107Y33418D1*
Y33409D1*
X23097Y33380D1*
X23078Y33361D1*
X23049Y33351D1*
X23040D1*
X23011Y33361D1*
X22992Y33380D1*
X22982Y33409D1*
Y33418D1*
X22992Y33447D1*
X23011Y33466D1*
X23049Y33476D1*
X23097D1*
X23145Y33466D1*
X23174Y33447D1*
X23183Y33418D1*
Y33399D1*
X23174Y33370D1*
X23154Y33361D1*
X24218Y32940D2*
Y33026D1*
X24208Y33055D1*
X24199Y33065D1*
X24180Y33074D1*
X24160D1*
X24141Y33065D1*
X24132Y33055D1*
X24122Y33026D1*
Y32940D1*
X24323D1*
X24218Y33007D2*
X24323Y33074D1*
X24122Y33251D2*
Y33155D1*
X24208Y33146D1*
X24199Y33155D1*
X24189Y33184D1*
Y33212D1*
X24199Y33241D1*
X24218Y33260D1*
X24247Y33270D1*
X24266D1*
X24294Y33260D1*
X24314Y33241D1*
X24323Y33212D1*
Y33184D1*
X24314Y33155D1*
X24304Y33146D1*
X24285Y33136D1*
X24122Y33389D2*
X24132Y33360D1*
X24161Y33341D1*
X24208Y33332D1*
X24237D1*
X24285Y33341D1*
X24314Y33360D1*
X24323Y33389D1*
Y33408D1*
X24314Y33437D1*
X24285Y33456D1*
X24237Y33466D1*
X24208D1*
X24161Y33456D1*
X24132Y33437D1*
X24122Y33408D1*
Y33389D1*
X24161Y33456D2*
X24285Y33341D1*
X19178Y38824D2*
Y38910D1*
X19168Y38939D1*
X19159Y38948D1*
X19140Y38958D1*
X19120D1*
X19101Y38948D1*
X19092Y38939D1*
X19082Y38910D1*
Y38824D1*
X19283D1*
X19178Y38891D2*
X19283Y38958D1*
X19082Y39134D2*
Y39039D1*
X19168Y39029D1*
X19159Y39039D1*
X19149Y39068D1*
Y39096D1*
X19159Y39125D1*
X19178Y39144D1*
X19207Y39154D1*
X19226D1*
X19254Y39144D1*
X19274Y39125D1*
X19283Y39096D1*
Y39068D1*
X19274Y39039D1*
X19264Y39029D1*
X19245Y39020D1*
X19121Y39215D2*
X19111Y39235D1*
X19082Y39263D1*
X19283D1*
X19660Y38811D2*
Y38897D1*
X19651Y38926D1*
X19641Y38935D1*
X19622Y38945D1*
X19603D1*
X19584Y38935D1*
X19574Y38926D1*
X19565Y38897D1*
Y38811D1*
X19766D1*
X19660Y38878D2*
X19766Y38945D1*
X19565Y39121D2*
Y39026D1*
X19651Y39016D1*
X19641Y39026D1*
X19632Y39055D1*
Y39083D1*
X19641Y39112D1*
X19660Y39131D1*
X19689Y39141D1*
X19708D1*
X19737Y39131D1*
X19756Y39112D1*
X19766Y39083D1*
Y39055D1*
X19756Y39026D1*
X19746Y39016D1*
X19727Y39007D1*
X19613Y39212D2*
X19603D1*
X19584Y39221D1*
X19574Y39231D1*
X19565Y39250D1*
Y39288D1*
X19574Y39307D1*
X19584Y39317D1*
X19603Y39327D1*
X19622D1*
X19641Y39317D1*
X19670Y39298D1*
X19766Y39202D1*
Y39336D1*
X13700Y31524D2*
Y31610D1*
X13691Y31639D1*
X13681Y31649D1*
X13662Y31658D1*
X13643D1*
X13624Y31649D1*
X13614Y31639D1*
X13605Y31610D1*
Y31524D1*
X13806D1*
X13700Y31591D2*
X13806Y31658D1*
X13605Y31835D2*
Y31739D1*
X13691Y31730D1*
X13681Y31739D1*
X13672Y31768D1*
Y31796D1*
X13681Y31825D1*
X13700Y31844D1*
X13729Y31854D1*
X13748D1*
X13777Y31844D1*
X13796Y31825D1*
X13806Y31796D1*
Y31768D1*
X13796Y31739D1*
X13786Y31730D1*
X13767Y31720D1*
X13605Y31935D2*
Y32040D1*
X13681Y31983D1*
Y32011D1*
X13691Y32030D1*
X13700Y32040D1*
X13729Y32050D1*
X13748D1*
X13777Y32040D1*
X13796Y32021D1*
X13806Y31992D1*
Y31963D1*
X13796Y31935D1*
X13786Y31925D1*
X13767Y31916D1*
X14170Y31529D2*
Y31615D1*
X14161Y31644D1*
X14151Y31654D1*
X14132Y31663D1*
X14113D1*
X14094Y31654D1*
X14084Y31644D1*
X14075Y31615D1*
Y31529D1*
X14276D1*
X14170Y31596D2*
X14276Y31663D1*
X14075Y31840D2*
Y31744D1*
X14161Y31735D1*
X14151Y31744D1*
X14142Y31773D1*
Y31802D1*
X14151Y31830D1*
X14170Y31850D1*
X14199Y31859D1*
X14218D1*
X14247Y31850D1*
X14266Y31830D1*
X14276Y31802D1*
Y31773D1*
X14266Y31744D1*
X14256Y31735D1*
X14237Y31725D1*
X14276Y32017D2*
X14075D1*
X14209Y31921D1*
Y32064D1*
X16093Y31484D2*
Y31570D1*
X16083Y31599D1*
X16074Y31609D1*
X16055Y31618D1*
X16035D1*
X16016Y31609D1*
X16007Y31599D1*
X15997Y31570D1*
Y31484D1*
X16198D1*
X16093Y31551D2*
X16198Y31618D1*
X15997Y31795D2*
Y31699D1*
X16083Y31690D1*
X16074Y31699D1*
X16064Y31728D1*
Y31756D1*
X16074Y31785D1*
X16093Y31804D1*
X16122Y31814D1*
X16141D1*
X16169Y31804D1*
X16189Y31785D1*
X16198Y31756D1*
Y31728D1*
X16189Y31699D1*
X16179Y31690D1*
X16160Y31680D1*
X15997Y31990D2*
Y31895D1*
X16083Y31885D1*
X16074Y31895D1*
X16064Y31924D1*
Y31952D1*
X16074Y31981D1*
X16093Y32000D1*
X16122Y32010D1*
X16141D1*
X16169Y32000D1*
X16189Y31981D1*
X16198Y31952D1*
Y31924D1*
X16189Y31895D1*
X16179Y31885D1*
X16160Y31876D1*
X16533Y31479D2*
Y31565D1*
X16523Y31594D1*
X16514Y31604D1*
X16495Y31613D1*
X16475D1*
X16456Y31604D1*
X16447Y31594D1*
X16437Y31565D1*
Y31479D1*
X16638D1*
X16533Y31546D2*
X16638Y31613D1*
X16437Y31790D2*
Y31694D1*
X16523Y31685D1*
X16514Y31694D1*
X16504Y31723D1*
Y31751D1*
X16514Y31780D1*
X16533Y31799D1*
X16562Y31809D1*
X16581D1*
X16609Y31799D1*
X16629Y31780D1*
X16638Y31751D1*
Y31723D1*
X16629Y31694D1*
X16619Y31685D1*
X16600Y31675D1*
X16466Y31985D2*
X16447Y31976D1*
X16437Y31947D1*
Y31928D1*
X16447Y31899D1*
X16476Y31880D1*
X16523Y31871D1*
X16571D1*
X16609Y31880D1*
X16629Y31899D1*
X16638Y31928D1*
Y31938D1*
X16629Y31966D1*
X16609Y31985D1*
X16581Y31995D1*
X16571D1*
X16542Y31985D1*
X16523Y31966D1*
X16514Y31938D1*
Y31928D1*
X16523Y31899D1*
X16542Y31880D1*
X16571Y31871D1*
X22726Y36134D2*
X22812D1*
X22841Y36144D1*
X22851Y36153D1*
X22860Y36172D1*
Y36192D1*
X22851Y36211D1*
X22841Y36220D1*
X22812Y36230D1*
X22726D1*
Y36029D1*
X22793Y36134D2*
X22860Y36029D1*
X23037Y36230D2*
X22941D1*
X22932Y36144D1*
X22941Y36153D1*
X22970Y36163D1*
X22998D1*
X23027Y36153D1*
X23046Y36134D1*
X23056Y36105D1*
Y36086D1*
X23046Y36058D1*
X23027Y36038D1*
X22998Y36029D1*
X22970D1*
X22941Y36038D1*
X22932Y36048D1*
X22922Y36067D1*
X23156Y36029D2*
X23252Y36230D1*
X23118D1*
X18187Y35997D2*
X18273D1*
X18302Y36007D1*
X18312Y36017D1*
X18321Y36036D1*
Y36055D1*
X18312Y36074D1*
X18302Y36084D1*
X18273Y36093D1*
X18187D1*
Y35892D1*
X18254Y35997D2*
X18321Y35892D1*
X18498Y36093D2*
X18402D1*
X18393Y36007D1*
X18402Y36016D1*
X18431Y36026D1*
X18460D1*
X18488Y36016D1*
X18508Y35997D1*
X18517Y35969D1*
Y35950D1*
X18508Y35921D1*
X18488Y35902D1*
X18460Y35892D1*
X18431D1*
X18402Y35902D1*
X18393Y35911D1*
X18383Y35930D1*
X18627Y36093D2*
X18598Y36083D1*
X18588Y36064D1*
Y36045D1*
X18598Y36026D1*
X18617Y36016D1*
X18655Y36007D1*
X18684Y35997D1*
X18703Y35978D1*
X18713Y35959D1*
Y35930D1*
X18703Y35911D1*
X18694Y35902D1*
X18665Y35892D1*
X18627D1*
X18598Y35902D1*
X18588Y35911D1*
X18579Y35930D1*
Y35959D1*
X18588Y35978D1*
X18608Y35997D1*
X18636Y36007D1*
X18674Y36016D1*
X18694Y36026D1*
X18703Y36045D1*
Y36064D1*
X18694Y36083D1*
X18665Y36093D1*
X18627D1*
X13270Y31519D2*
Y31605D1*
X13261Y31634D1*
X13251Y31643D1*
X13232Y31653D1*
X13213D1*
X13194Y31643D1*
X13184Y31634D1*
X13175Y31605D1*
Y31519D1*
X13376D1*
X13270Y31586D2*
X13376Y31653D1*
X13175Y31829D2*
Y31734D1*
X13261Y31724D1*
X13251Y31734D1*
X13242Y31763D1*
Y31791D1*
X13251Y31820D1*
X13270Y31839D1*
X13299Y31849D1*
X13318D1*
X13347Y31839D1*
X13366Y31820D1*
X13376Y31791D1*
Y31763D1*
X13366Y31734D1*
X13356Y31724D1*
X13337Y31715D1*
X13242Y32035D2*
X13270Y32025D1*
X13290Y32006D1*
X13299Y31977D1*
Y31968D1*
X13290Y31939D1*
X13270Y31920D1*
X13242Y31910D1*
X13232D1*
X13203Y31920D1*
X13184Y31939D1*
X13175Y31968D1*
Y31977D1*
X13184Y32006D1*
X13203Y32025D1*
X13242Y32035D1*
X13290D1*
X13337Y32025D1*
X13366Y32006D1*
X13376Y31977D1*
Y31958D1*
X13366Y31930D1*
X13347Y31920D1*
X15653Y31489D2*
Y31575D1*
X15643Y31604D1*
X15634Y31614D1*
X15615Y31623D1*
X15595D1*
X15576Y31614D1*
X15567Y31604D1*
X15557Y31575D1*
Y31489D1*
X15758D1*
X15653Y31556D2*
X15758Y31623D1*
X15586Y31800D2*
X15567Y31790D1*
X15557Y31761D1*
Y31742D1*
X15567Y31714D1*
X15596Y31694D1*
X15643Y31685D1*
X15691D1*
X15729Y31694D1*
X15749Y31714D1*
X15758Y31742D1*
Y31752D1*
X15749Y31780D1*
X15729Y31800D1*
X15701Y31809D1*
X15691D1*
X15662Y31800D1*
X15643Y31780D1*
X15634Y31752D1*
Y31742D1*
X15643Y31714D1*
X15662Y31694D1*
X15691Y31685D1*
X15557Y31928D2*
X15567Y31900D1*
X15596Y31880D1*
X15643Y31871D1*
X15672D1*
X15720Y31880D1*
X15749Y31900D1*
X15758Y31928D1*
Y31947D1*
X15749Y31976D1*
X15720Y31995D1*
X15672Y32005D1*
X15643D1*
X15596Y31995D1*
X15567Y31976D1*
X15557Y31947D1*
Y31928D1*
X15596Y31995D2*
X15720Y31880D1*
X10960Y13326D2*
X11046D1*
X11075Y13336D1*
X11085Y13345D1*
X11094Y13364D1*
Y13383D1*
X11085Y13402D1*
X11075Y13412D1*
X11046Y13422D1*
X10960D1*
Y13221D1*
X11027Y13326D2*
X11094Y13221D1*
X11271Y13393D2*
X11261Y13412D1*
X11232Y13421D1*
X11213D1*
X11185Y13412D1*
X11165Y13383D1*
X11156Y13335D1*
Y13288D1*
X11165Y13249D1*
X11185Y13230D1*
X11213Y13221D1*
X11223D1*
X11251Y13230D1*
X11271Y13249D1*
X11280Y13278D1*
Y13288D1*
X11271Y13316D1*
X11251Y13335D1*
X11223Y13345D1*
X11213D1*
X11185Y13335D1*
X11165Y13316D1*
X11156Y13288D1*
X11342Y13383D2*
X11361Y13393D1*
X11390Y13421D1*
Y13221D1*
X12712Y13271D2*
X12798D1*
X12827Y13280D1*
X12837Y13290D1*
X12846Y13309D1*
Y13328D1*
X12837Y13347D1*
X12827Y13357D1*
X12798Y13366D1*
X12712D1*
Y13165D1*
X12779Y13271D2*
X12846Y13165D1*
X13023Y13338D2*
X13013Y13357D1*
X12984Y13366D1*
X12965D1*
X12937Y13357D1*
X12917Y13328D1*
X12908Y13280D1*
Y13232D1*
X12917Y13194D1*
X12937Y13175D1*
X12965Y13165D1*
X12975D1*
X13003Y13175D1*
X13023Y13194D1*
X13032Y13223D1*
Y13232D1*
X13023Y13261D1*
X13003Y13280D1*
X12975Y13290D1*
X12965D1*
X12937Y13280D1*
X12917Y13261D1*
X12908Y13232D1*
X13104Y13318D2*
Y13328D1*
X13113Y13347D1*
X13123Y13357D1*
X13142Y13366D1*
X13180D1*
X13199Y13357D1*
X13209Y13347D1*
X13218Y13328D1*
Y13309D1*
X13209Y13290D1*
X13190Y13261D1*
X13094Y13165D1*
X13228D1*
X8633Y11983D2*
Y12069D1*
X8623Y12098D1*
X8614Y12108D1*
X8595Y12117D1*
X8575D1*
X8556Y12108D1*
X8547Y12098D1*
X8537Y12069D1*
Y11983D1*
X8738D1*
X8633Y12050D2*
X8738Y12117D1*
X8566Y12294D2*
X8547Y12284D1*
X8537Y12255D1*
Y12236D1*
X8547Y12208D1*
X8576Y12188D1*
X8623Y12179D1*
X8671D1*
X8709Y12188D1*
X8729Y12208D1*
X8738Y12236D1*
Y12246D1*
X8729Y12274D1*
X8709Y12294D1*
X8681Y12303D1*
X8671D1*
X8642Y12294D1*
X8623Y12274D1*
X8614Y12246D1*
Y12236D1*
X8623Y12208D1*
X8642Y12188D1*
X8671Y12179D1*
X8537Y12384D2*
Y12489D1*
X8614Y12432D1*
Y12461D1*
X8623Y12480D1*
X8633Y12489D1*
X8662Y12499D1*
X8681D1*
X8709Y12489D1*
X8729Y12470D1*
X8738Y12441D1*
Y12413D1*
X8729Y12384D1*
X8719Y12375D1*
X8700Y12365D1*
X8133Y11968D2*
Y12054D1*
X8123Y12083D1*
X8114Y12093D1*
X8095Y12102D1*
X8075D1*
X8056Y12093D1*
X8047Y12083D1*
X8037Y12054D1*
Y11968D1*
X8238D1*
X8133Y12035D2*
X8238Y12102D1*
X8066Y12279D2*
X8047Y12269D1*
X8037Y12241D1*
Y12222D1*
X8047Y12193D1*
X8076Y12174D1*
X8123Y12164D1*
X8171D1*
X8209Y12174D1*
X8229Y12193D1*
X8238Y12222D1*
Y12231D1*
X8229Y12260D1*
X8209Y12279D1*
X8181Y12288D1*
X8171D1*
X8142Y12279D1*
X8123Y12260D1*
X8114Y12231D1*
Y12222D1*
X8123Y12193D1*
X8142Y12174D1*
X8171Y12164D1*
X8238Y12446D2*
X8037D1*
X8171Y12350D1*
Y12494D1*
X11348Y6003D2*
X11329Y6022D1*
X11300Y6032D1*
X11262D1*
X11233Y6022D1*
X11214Y6003D1*
Y5984D1*
X11224Y5965D1*
X11233Y5955D1*
X11252Y5946D1*
X11310Y5927D1*
X11329Y5917D1*
X11339Y5908D1*
X11348Y5889D1*
Y5860D1*
X11329Y5841D1*
X11300Y5831D1*
X11262D1*
X11233Y5841D1*
X11214Y5860D1*
X11410Y6032D2*
X11458Y5831D1*
X11506Y6032D1*
X11553Y5831D1*
X11601Y6032D1*
X11663Y5994D2*
X11682Y6003D1*
X11711Y6032D1*
Y5831D1*
X12087Y41712D2*
Y41511D1*
X12020Y41712D2*
X12154D1*
X12216Y41607D2*
X12302D1*
X12331Y41616D1*
X12340Y41626D1*
X12350Y41645D1*
Y41674D1*
X12340Y41693D1*
X12331Y41703D1*
X12302Y41712D1*
X12216D1*
Y41511D1*
X12412Y41674D2*
X12431Y41683D1*
X12460Y41712D1*
Y41511D1*
X12204Y38982D2*
Y38781D1*
X12137Y38982D2*
X12271D1*
X12333Y38877D2*
X12419D1*
X12448Y38886D1*
X12457Y38896D1*
X12467Y38915D1*
Y38944D1*
X12457Y38963D1*
X12448Y38973D1*
X12419Y38982D1*
X12333D1*
Y38781D1*
X12538Y38934D2*
Y38944D1*
X12548Y38963D1*
X12557Y38972D1*
X12577Y38982D1*
X12615D1*
X12634Y38972D1*
X12643Y38963D1*
X12653Y38944D1*
Y38925D1*
X12643Y38905D1*
X12624Y38877D1*
X12529Y38781D1*
X12663D1*
X11995Y38343D2*
X12072Y38142D1*
X12148Y38343D1*
X12210Y38276D2*
Y38142D1*
Y38238D2*
X12239Y38266D1*
X12258Y38276D1*
X12286D1*
X12306Y38266D1*
X12315Y38238D1*
Y38142D1*
Y38238D2*
X12344Y38266D1*
X12363Y38276D1*
X12392D1*
X12411Y38266D1*
X12420Y38238D1*
Y38142D1*
X12530Y38276D2*
X12511Y38266D1*
X12492Y38247D1*
X12482Y38218D1*
Y38199D1*
X12492Y38171D1*
X12511Y38152D1*
X12530Y38142D1*
X12559D1*
X12578Y38152D1*
X12597Y38171D1*
X12607Y38199D1*
Y38218D1*
X12597Y38247D1*
X12578Y38266D1*
X12559Y38276D1*
X12530D1*
X12697Y38343D2*
Y38180D1*
X12707Y38152D1*
X12726Y38142D1*
X12745D1*
X12668Y38276D2*
X12735D1*
X13164Y38962D2*
Y38761D1*
X13097Y38962D2*
X13231D1*
X13293Y38857D2*
X13379D1*
X13408Y38866D1*
X13417Y38876D1*
X13427Y38895D1*
Y38924D1*
X13417Y38943D1*
X13408Y38953D1*
X13379Y38962D1*
X13293D1*
Y38761D1*
X13508Y38962D2*
X13613D1*
X13556Y38885D1*
X13584D1*
X13603Y38876D1*
X13613Y38866D1*
X13623Y38838D1*
Y38819D1*
X13613Y38790D1*
X13594Y38771D1*
X13565Y38761D1*
X13536D1*
X13508Y38771D1*
X13498Y38780D1*
X13489Y38799D1*
X13330Y38333D2*
X13234D1*
X13224Y38247D1*
X13234Y38256D1*
X13263Y38266D1*
X13291D1*
X13320Y38256D1*
X13339Y38237D1*
X13349Y38208D1*
Y38189D1*
X13339Y38161D1*
X13320Y38141D1*
X13291Y38132D1*
X13263D1*
X13234Y38141D1*
X13224Y38151D1*
X13215Y38170D1*
X13410Y38266D2*
X13468Y38132D1*
X13525Y38266D1*
X22000Y34462D2*
Y34261D1*
X21933Y34462D2*
X22067D1*
X22128Y34357D2*
X22214D1*
X22243Y34366D1*
X22253Y34376D1*
X22262Y34395D1*
Y34424D1*
X22253Y34443D1*
X22243Y34453D1*
X22214Y34462D1*
X22128D1*
Y34261D1*
X22420D2*
Y34462D1*
X22324Y34328D1*
X22467D1*
X12084Y15072D2*
Y14871D1*
X12017Y15072D2*
X12151D1*
X12213Y14967D2*
X12299D1*
X12328Y14976D1*
X12337Y14986D1*
X12347Y15005D1*
Y15034D1*
X12337Y15053D1*
X12328Y15063D1*
X12299Y15072D1*
X12213D1*
Y14871D1*
X12523Y15072D2*
X12428D1*
X12418Y14986D1*
X12428Y14995D1*
X12457Y15005D1*
X12485D1*
X12514Y14995D1*
X12533Y14976D1*
X12543Y14948D1*
Y14929D1*
X12533Y14900D1*
X12514Y14881D1*
X12485Y14871D1*
X12457D1*
X12428Y14881D1*
X12418Y14890D1*
X12409Y14909D1*
X23034Y22742D2*
Y22541D1*
X22967Y22742D2*
X23101D1*
X23163Y22637D2*
X23249D1*
X23278Y22646D1*
X23287Y22656D1*
X23297Y22675D1*
Y22704D1*
X23287Y22723D1*
X23278Y22733D1*
X23249Y22742D1*
X23163D1*
Y22541D1*
X23359Y22704D2*
X23378Y22713D1*
X23407Y22742D1*
Y22541D1*
X23593Y22675D2*
X23583Y22646D1*
X23564Y22627D1*
X23535Y22618D1*
X23526D1*
X23497Y22627D1*
X23478Y22646D1*
X23468Y22675D1*
Y22685D1*
X23478Y22713D1*
X23497Y22732D1*
X23526Y22742D1*
X23535D1*
X23564Y22732D1*
X23583Y22713D1*
X23593Y22675D1*
Y22627D1*
X23583Y22579D1*
X23564Y22551D1*
X23535Y22541D1*
X23516D1*
X23488Y22551D1*
X23478Y22570D1*
X22586Y31382D2*
Y31181D1*
X22519Y31382D2*
X22653D1*
X22715Y31277D2*
X22801D1*
X22830Y31286D1*
X22840Y31296D1*
X22849Y31315D1*
Y31344D1*
X22840Y31363D1*
X22830Y31373D1*
X22801Y31382D1*
X22715D1*
Y31181D1*
X22921Y31334D2*
Y31344D1*
X22930Y31363D1*
X22940Y31372D1*
X22959Y31382D1*
X22997D1*
X23016Y31372D1*
X23026Y31363D1*
X23035Y31344D1*
Y31325D1*
X23026Y31305D1*
X23007Y31277D1*
X22911Y31181D1*
X23045D1*
X23164Y31382D2*
X23135Y31372D1*
X23116Y31344D1*
X23107Y31296D1*
Y31267D1*
X23116Y31219D1*
X23135Y31191D1*
X23164Y31181D1*
X23183D1*
X23212Y31191D1*
X23231Y31219D1*
X23241Y31267D1*
Y31296D1*
X23231Y31344D1*
X23212Y31372D1*
X23183Y31382D1*
X23164D1*
X23231Y31344D2*
X23116Y31219D1*
X22514Y31053D2*
X22591Y30852D1*
X22667Y31053D1*
X22729Y30986D2*
Y30852D1*
Y30928D2*
X22739Y30957D1*
X22758Y30976D1*
X22777Y30986D1*
X22806D1*
X22867Y30928D2*
X22982D1*
Y30948D1*
X22973Y30967D1*
X22963Y30976D1*
X22944Y30986D1*
X22915D1*
X22896Y30976D1*
X22877Y30957D1*
X22867Y30928D1*
Y30909D1*
X22877Y30881D1*
X22896Y30862D1*
X22915Y30852D1*
X22944D1*
X22963Y30862D1*
X22982Y30881D1*
X23120Y31053D2*
X23101D1*
X23082Y31043D1*
X23073Y31015D1*
Y30852D1*
X23044Y30986D2*
X23111D1*
X23278Y30852D2*
Y31053D1*
X23182Y30919D1*
X23326D1*
X8837Y29332D2*
X9038D1*
X8837Y29265D2*
Y29399D1*
X8942Y29460D2*
Y29547D1*
X8933Y29575D1*
X8923Y29585D1*
X8904Y29594D1*
X8875D1*
X8856Y29585D1*
X8847Y29575D1*
X8837Y29547D1*
Y29460D1*
X9038D1*
Y29752D2*
X8837D1*
X8971Y29656D1*
Y29800D1*
X8885Y29871D2*
X8876D1*
X8856Y29881D1*
X8847Y29890D1*
X8837Y29909D1*
Y29948D1*
X8847Y29967D1*
X8856Y29976D1*
X8876Y29986D1*
X8895D1*
X8914Y29976D1*
X8942Y29957D1*
X9038Y29861D1*
Y29995D1*
X10937Y32372D2*
X11138D1*
X10937Y32305D2*
Y32439D1*
X11042Y32500D2*
Y32587D1*
X11033Y32615D1*
X11023Y32625D1*
X11004Y32634D1*
X10975D1*
X10956Y32625D1*
X10947Y32615D1*
X10937Y32587D1*
Y32500D1*
X11138D1*
Y32792D2*
X10937D1*
X11071Y32696D1*
Y32840D1*
X10937Y32921D2*
Y33026D1*
X11014Y32968D1*
Y32997D1*
X11023Y33016D1*
X11033Y33026D1*
X11062Y33035D1*
X11081D1*
X11109Y33026D1*
X11129Y33007D1*
X11138Y32978D1*
Y32949D1*
X11129Y32921D1*
X11119Y32911D1*
X11100Y32901D1*
X12430Y23646D2*
Y23502D1*
X12440Y23473D1*
X12459Y23454D1*
X12488Y23445D1*
X12507D1*
X12536Y23454D1*
X12555Y23473D1*
X12564Y23502D1*
Y23646D1*
X12626Y23607D2*
X12645Y23617D1*
X12674Y23645D1*
Y23445D1*
X20842Y5378D2*
Y5235D1*
X20851Y5206D1*
X20871Y5187D1*
X20899Y5177D1*
X20918D1*
X20947Y5187D1*
X20966Y5206D1*
X20976Y5235D1*
Y5378D1*
X21047Y5330D2*
Y5340D1*
X21057Y5359D1*
X21066Y5369D1*
X21086Y5378D1*
X21124D1*
X21143Y5369D1*
X21152Y5359D1*
X21162Y5340D1*
Y5321D1*
X21152Y5302D1*
X21133Y5273D1*
X21038Y5177D1*
X21172D1*
X20717Y13263D2*
Y13120D1*
X20726Y13091D1*
X20746Y13072D1*
X20774Y13062D1*
X20793D1*
X20822Y13072D1*
X20841Y13091D1*
X20851Y13120D1*
Y13263D1*
X20932D2*
X21037D1*
X20980Y13187D1*
X21008D1*
X21027Y13177D1*
X21037Y13168D1*
X21046Y13139D1*
Y13120D1*
X21037Y13091D1*
X21018Y13072D1*
X20989Y13062D1*
X20960D1*
X20932Y13072D1*
X20922Y13082D1*
X20913Y13101D1*
X24740Y19355D2*
Y19211D1*
X24750Y19182D1*
X24769Y19163D1*
X24798Y19154D1*
X24817D1*
X24846Y19163D1*
X24865Y19182D1*
X24874Y19211D1*
Y19355D1*
X25032Y19154D2*
Y19354D1*
X24936Y19221D1*
X25080D1*
X17957Y32348D2*
X18101D1*
X18129Y32357D1*
X18148Y32376D1*
X18158Y32405D1*
Y32424D1*
X18148Y32453D1*
X18129Y32472D1*
X18101Y32482D1*
X17957D1*
Y32658D2*
Y32563D1*
X18043Y32553D1*
X18034Y32563D1*
X18024Y32591D1*
Y32620D1*
X18034Y32649D1*
X18053Y32668D1*
X18082Y32677D1*
X18101D1*
X18129Y32668D1*
X18149Y32649D1*
X18158Y32620D1*
Y32591D1*
X18149Y32563D1*
X18139Y32553D1*
X18120Y32543D1*
X10033Y41823D2*
Y41680D1*
X10042Y41651D1*
X10061Y41632D1*
X10090Y41622D1*
X10109D1*
X10138Y41632D1*
X10157Y41651D1*
X10166Y41680D1*
Y41823D1*
X10343Y41795D2*
X10333Y41814D1*
X10305Y41823D1*
X10286D1*
X10257Y41814D1*
X10238Y41785D1*
X10228Y41737D1*
Y41689D1*
X10238Y41651D1*
X10257Y41632D1*
X10286Y41622D1*
X10295D1*
X10324Y41632D1*
X10343Y41651D1*
X10352Y41680D1*
Y41689D1*
X10343Y41718D1*
X10324Y41737D1*
X10295Y41747D1*
X10286D1*
X10257Y41737D1*
X10238Y41718D1*
X10228Y41689D1*
X8963Y34405D2*
Y34262D1*
X8973Y34233D1*
X8992Y34214D1*
X9020Y34205D1*
X9039D1*
X9068Y34214D1*
X9087Y34233D1*
X9097Y34262D1*
Y34405D1*
X9197Y34205D2*
X9293Y34405D1*
X9159D1*
X15757Y34367D2*
Y34223D1*
X15766Y34195D1*
X15786Y34176D1*
X15814Y34166D1*
X15833D1*
X15862Y34176D1*
X15881Y34195D1*
X15891Y34223D1*
Y34367D1*
X16000D2*
X15972Y34357D1*
X15962Y34338D1*
Y34319D1*
X15972Y34300D1*
X15991Y34290D1*
X16029Y34281D1*
X16058Y34271D1*
X16077Y34252D1*
X16086Y34233D1*
Y34204D1*
X16077Y34185D1*
X16067Y34175D1*
X16039Y34166D1*
X16000D1*
X15972Y34175D1*
X15962Y34185D1*
X15953Y34204D1*
Y34233D1*
X15962Y34252D1*
X15981Y34271D1*
X16010Y34281D1*
X16048Y34290D1*
X16067Y34300D1*
X16077Y34319D1*
Y34338D1*
X16067Y34357D1*
X16039Y34367D1*
X16000D1*
X23926Y35673D2*
Y35529D1*
X23935Y35500D1*
X23954Y35481D1*
X23983Y35472D1*
X24002D1*
X24031Y35481D1*
X24050Y35500D1*
X24060Y35529D1*
Y35673D1*
X24246Y35606D2*
X24236Y35577D1*
X24217Y35558D1*
X24188Y35548D1*
X24179D1*
X24150Y35558D1*
X24131Y35577D1*
X24121Y35606D1*
Y35615D1*
X24131Y35644D1*
X24150Y35663D1*
X24179Y35672D1*
X24188D1*
X24217Y35663D1*
X24236Y35644D1*
X24246Y35606D1*
Y35558D1*
X24236Y35510D1*
X24217Y35481D1*
X24188Y35472D1*
X24169D1*
X24141Y35481D1*
X24131Y35500D1*
X19252Y36006D2*
Y35863D1*
X19261Y35834D1*
X19281Y35815D1*
X19309Y35805D1*
X19328D1*
X19357Y35815D1*
X19376Y35834D1*
X19386Y35863D1*
Y36006D1*
X19448Y35968D2*
X19467Y35978D1*
X19496Y36006D1*
Y35805D1*
X19615Y36006D2*
X19586Y35997D1*
X19567Y35968D1*
X19557Y35920D1*
Y35891D1*
X19567Y35844D1*
X19586Y35815D1*
X19615Y35805D1*
X19634D1*
X19663Y35815D1*
X19682Y35844D1*
X19691Y35891D1*
Y35920D1*
X19682Y35968D1*
X19663Y35997D1*
X19634Y36006D1*
X19615D1*
X19682Y35968D2*
X19567Y35844D1*
X5774Y19784D2*
X5908Y19583D1*
Y19784D2*
X5774Y19583D1*
X5970Y19746D2*
X5989Y19755D1*
X6017Y19784D1*
Y19583D1*
X19363Y42045D2*
D166*
Y41543D1*
Y41974D2*
X19411Y42021D1*
X19459Y42045D1*
X19531D1*
X19579Y42021D1*
X19626Y41974D1*
X19651Y41902D1*
Y41854D1*
X19626Y41782D1*
X19579Y41734D1*
X19531Y41710D1*
X19459D1*
X19411Y41734D1*
X19363Y41782D1*
X19805Y42045D2*
Y41710D1*
Y41902D2*
X19829Y41974D1*
X19877Y42022D1*
X19925Y42045D1*
X19997D1*
X20151Y42213D2*
X20175Y42189D1*
X20199Y42213D1*
X20175Y42237D1*
X20151Y42213D1*
X20175Y42045D2*
Y41710D1*
X20354Y42045D2*
Y41710D1*
Y41950D2*
X20426Y42022D1*
X20474Y42045D1*
X20545D1*
X20593Y42022D1*
X20617Y41950D1*
Y41710D1*
X20843Y42213D2*
Y41806D1*
X20867Y41735D1*
X20915Y41710D1*
X20962D1*
X20771Y42045D2*
X20939D1*
X21117Y41902D2*
X21404D1*
Y41950D1*
X21380Y41998D1*
X21356Y42022D1*
X21308Y42045D1*
X21236D1*
X21189Y42022D1*
X21141Y41974D1*
X21117Y41902D1*
Y41854D1*
X21141Y41782D1*
X21189Y41735D1*
X21236Y41710D1*
X21308D1*
X21356Y41735D1*
X21404Y41782D1*
X21558Y42045D2*
Y41710D1*
Y41902D2*
X21582Y41974D1*
X21630Y42022D1*
X21678Y42045D1*
X21750D1*
X21904Y42213D2*
Y41710D1*
X22120D1*
X22192Y41735D1*
X22215Y41759D1*
X22239Y41806D1*
Y41878D1*
X22215Y41926D1*
X22192Y41950D1*
X22120Y41974D1*
X22192Y41998D1*
X22215Y42022D1*
X22239Y42069D1*
Y42117D1*
X22215Y42165D1*
X22192Y42189D1*
X22120Y42213D1*
X21904D1*
Y41974D2*
X22120D1*
X22513Y42045D2*
X22465Y42022D1*
X22417Y41974D1*
X22394Y41902D1*
Y41854D1*
X22417Y41782D1*
X22465Y41735D1*
X22513Y41710D1*
X22585D1*
X22633Y41735D1*
X22680Y41782D1*
X22705Y41854D1*
Y41902D1*
X22680Y41974D1*
X22633Y42022D1*
X22585Y42045D1*
X22513D1*
X23146D2*
Y41710D1*
Y41974D2*
X23098Y42022D1*
X23050Y42045D1*
X22979D1*
X22931Y42022D1*
X22883Y41974D1*
X22859Y41902D1*
Y41854D1*
X22883Y41782D1*
X22931Y41735D1*
X22979Y41710D1*
X23050D1*
X23098Y41735D1*
X23146Y41782D1*
X23300Y42045D2*
Y41710D1*
Y41902D2*
X23325Y41974D1*
X23372Y42022D1*
X23420Y42045D1*
X23492D1*
X23933Y42213D2*
Y41710D1*
Y41974D2*
X23886Y42022D1*
X23838Y42045D1*
X23766D1*
X23718Y42022D1*
X23670Y41974D1*
X23647Y41902D1*
Y41854D1*
X23670Y41782D1*
X23718Y41735D1*
X23766Y41710D1*
X23838D1*
X23886Y41735D1*
X23933Y41782D1*
X24446Y42093D2*
X24423Y42141D1*
X24375Y42189D1*
X24327Y42213D1*
X24231D1*
X24183Y42189D1*
X24136Y42141D1*
X24112Y42093D1*
X24088Y42022D1*
Y41902D1*
X24112Y41830D1*
X24136Y41782D1*
X24183Y41735D1*
X24231Y41710D1*
X24327D1*
X24375Y41735D1*
X24423Y41782D1*
X24446Y41830D1*
Y41902D1*
X24327D1*
X24625Y42093D2*
Y42117D1*
X24649Y42165D1*
X24673Y42189D1*
X24721Y42212D1*
X24816D1*
X24864Y42189D1*
X24888Y42165D1*
X24912Y42117D1*
Y42069D1*
X24888Y42021D1*
X24840Y41950D1*
X24601Y41710D1*
X24936D1*
X8128Y5596D2*
D167*
X8300D1*
X8357Y5615D1*
X8377Y5634D1*
X8396Y5672D1*
Y5711D1*
X8377Y5749D1*
X8357Y5768D1*
X8300Y5787D1*
X8128D1*
Y5385D1*
X8262Y5596D2*
X8396Y5385D1*
X8768Y5787D2*
X8519D1*
Y5385D1*
X8768D1*
X8519Y5596D2*
X8672D1*
X9159Y5730D2*
X9121Y5768D1*
X9064Y5787D1*
X8987D1*
X8930Y5768D1*
X8891Y5730D1*
Y5692D1*
X8911Y5653D1*
X8930Y5634D1*
X8968Y5615D1*
X9083Y5577D1*
X9121Y5558D1*
X9140Y5538D1*
X9159Y5500D1*
Y5443D1*
X9121Y5405D1*
X9064Y5385D1*
X8987D1*
X8930Y5405D1*
X8891Y5443D1*
X9531Y5787D2*
X9283D1*
Y5385D1*
X9531D1*
X9283Y5596D2*
X9436D1*
X9789Y5787D2*
Y5385D1*
X9655Y5787D2*
X9922D1*
X26358Y34131D2*
D168*
Y33864D1*
Y34074D2*
X26320Y34112D1*
X26281Y34131D1*
X26224D1*
X26186Y34112D1*
X26148Y34074D1*
X26128Y34017D1*
Y33978D1*
X26148Y33921D1*
X26186Y33883D1*
X26224Y33864D1*
X26281D1*
X26320Y33883D1*
X26358Y33921D1*
X26656Y34074D2*
X26637Y34112D1*
X26579Y34131D1*
X26522D1*
X26464Y34112D1*
X26445Y34074D1*
X26464Y34036D1*
X26503Y34017D1*
X26598Y33998D1*
X26637Y33978D1*
X26656Y33940D1*
Y33921D1*
X26637Y33883D1*
X26579Y33864D1*
X26522D1*
X26464Y33883D1*
X26445Y33921D1*
X26743Y34265D2*
Y33864D1*
Y34055D2*
X26801Y34112D1*
X26839Y34131D1*
X26897D1*
X26935Y34112D1*
X26954Y34055D1*
Y33864D1*
X4120Y36420D2*
D167*
X4293D1*
X4350Y36439D1*
X4369Y36458D1*
X4388Y36496D1*
Y36554D1*
X4369Y36592D1*
X4350Y36611D1*
X4293Y36630D1*
X4120D1*
Y36228D1*
X4607Y36496D2*
X4569Y36477D1*
X4531Y36439D1*
X4512Y36381D1*
Y36343D1*
X4531Y36286D1*
X4569Y36248D1*
X4607Y36228D1*
X4665D1*
X4703Y36248D1*
X4741Y36286D1*
X4760Y36343D1*
Y36381D1*
X4741Y36439D1*
X4703Y36477D1*
X4665Y36496D1*
X4607D1*
X4884D2*
X4960Y36228D1*
X5037Y36496D1*
X5113Y36228D1*
X5190Y36496D1*
X5313Y36381D2*
X5543D1*
Y36420D1*
X5524Y36458D1*
X5505Y36477D1*
X5466Y36496D1*
X5409D1*
X5371Y36477D1*
X5332Y36439D1*
X5313Y36381D1*
Y36343D1*
X5332Y36286D1*
X5371Y36248D1*
X5409Y36228D1*
X5466D1*
X5505Y36248D1*
X5543Y36286D1*
X5666Y36496D2*
Y36228D1*
Y36381D2*
X5686Y36439D1*
X5724Y36477D1*
X5762Y36496D1*
X5820D1*
X5943Y36381D2*
X6173D1*
Y36420D1*
X6154Y36458D1*
X6135Y36477D1*
X6096Y36496D1*
X6039D1*
X6001Y36477D1*
X5962Y36439D1*
X5943Y36381D1*
Y36343D1*
X5962Y36286D1*
X6001Y36248D1*
X6039Y36228D1*
X6096D1*
X6135Y36248D1*
X6173Y36286D1*
X6526Y36630D2*
Y36228D1*
Y36439D2*
X6488Y36477D1*
X6449Y36496D1*
X6392D1*
X6354Y36477D1*
X6315Y36439D1*
X6296Y36381D1*
Y36343D1*
X6315Y36286D1*
X6354Y36248D1*
X6392Y36228D1*
X6449D1*
X6488Y36248D1*
X6526Y36286D1*
X7038Y36630D2*
Y36228D1*
Y36439D2*
X7077Y36477D1*
X7115Y36496D1*
X7172D1*
X7210Y36477D1*
X7249Y36439D1*
X7268Y36381D1*
Y36343D1*
X7249Y36286D1*
X7210Y36248D1*
X7172Y36228D1*
X7115D1*
X7077Y36248D1*
X7038Y36286D1*
X7411Y36496D2*
X7525Y36228D1*
X7487Y36152D1*
X7449Y36113D1*
X7411Y36094D1*
X7391D1*
X7640Y36496D2*
X7525Y36228D1*
X19308Y41438D2*
D169*
Y41137D1*
Y41295D2*
X19337Y41323D1*
X19365Y41338D1*
X19409D1*
X19437Y41323D1*
X19466Y41295D1*
X19480Y41251D1*
Y41223D1*
X19466Y41180D1*
X19437Y41151D1*
X19409Y41137D1*
X19365D1*
X19337Y41151D1*
X19308Y41180D1*
X19644Y41338D2*
X19616Y41323D1*
X19587Y41295D1*
X19573Y41251D1*
Y41223D1*
X19587Y41180D1*
X19616Y41151D1*
X19644Y41137D1*
X19688D1*
X19716Y41151D1*
X19745Y41180D1*
X19759Y41223D1*
Y41251D1*
X19745Y41295D1*
X19716Y41323D1*
X19688Y41338D1*
X19644D1*
X20024D2*
Y41137D1*
Y41295D2*
X19996Y41323D1*
X19967Y41338D1*
X19924D1*
X19895Y41323D1*
X19867Y41295D1*
X19852Y41251D1*
Y41223D1*
X19867Y41180D1*
X19895Y41151D1*
X19924Y41137D1*
X19967D1*
X19996Y41151D1*
X20024Y41180D1*
X20117Y41338D2*
Y41137D1*
Y41251D2*
X20131Y41295D1*
X20160Y41323D1*
X20189Y41338D1*
X20232D1*
X20497Y41438D2*
Y41137D1*
Y41295D2*
X20468Y41323D1*
X20439Y41338D1*
X20396D1*
X20368Y41323D1*
X20339Y41295D1*
X20325Y41251D1*
Y41223D1*
X20339Y41180D1*
X20368Y41151D1*
X20396Y41137D1*
X20439D1*
X20468Y41151D1*
X20497Y41180D1*
X20589Y41380D2*
X20618Y41395D1*
X20661Y41438D1*
Y41137D1*
X20926Y41395D2*
X20912Y41424D1*
X20869Y41438D1*
X20840D1*
X20797Y41424D1*
X20768Y41380D1*
X20754Y41309D1*
Y41237D1*
X20768Y41180D1*
X20797Y41151D1*
X20840Y41137D1*
X20854D1*
X20897Y41151D1*
X20926Y41180D1*
X20940Y41223D1*
Y41237D1*
X20926Y41280D1*
X20897Y41309D1*
X20854Y41323D1*
X20840D1*
X20797Y41309D1*
X20768Y41280D1*
X20754Y41237D1*
X21177Y41137D2*
Y41438D1*
X21033Y41237D1*
X21248D1*
X21341Y41338D2*
X21427Y41137D1*
X21513Y41338D1*
X21634Y41438D2*
X21792D1*
X21706Y41323D1*
X21749D1*
X21778Y41309D1*
X21792Y41295D1*
X21806Y41251D1*
Y41223D1*
X21792Y41180D1*
X21763Y41151D1*
X21720Y41137D1*
X21677D1*
X21634Y41151D1*
X21620Y41166D1*
X21606Y41194D1*
X22072Y41295D2*
X22043Y41323D1*
X22014Y41338D1*
X21971D1*
X21942Y41323D1*
X21914Y41295D1*
X21899Y41251D1*
Y41223D1*
X21914Y41180D1*
X21942Y41151D1*
X21971Y41137D1*
X22014D1*
X22043Y41151D1*
X22072Y41180D1*
X25758Y12003D2*
D166*
Y12506D1*
X25567Y12003D1*
X25375Y12506D1*
Y12003D1*
X26032Y12338D2*
X25984Y12314D1*
X25936Y12266D1*
X25912Y12194D1*
Y12147D1*
X25936Y12075D1*
X25984Y12028D1*
X26032Y12003D1*
X26103D1*
X26152Y12028D1*
X26199Y12075D1*
X26223Y12147D1*
Y12194D1*
X26199Y12266D1*
X26152Y12314D1*
X26103Y12338D1*
X26032D1*
X26450Y12506D2*
Y12099D1*
X26473Y12028D1*
X26521Y12003D1*
X26569D1*
X26378Y12338D2*
X26545D1*
X26843D2*
X26795Y12314D1*
X26747Y12266D1*
X26723Y12194D1*
Y12147D1*
X26747Y12075D1*
X26795Y12028D1*
X26843Y12003D1*
X26915D1*
X26963Y12028D1*
X27010Y12075D1*
X27035Y12147D1*
Y12194D1*
X27010Y12266D1*
X26963Y12314D1*
X26915Y12338D1*
X26843D1*
X27189D2*
Y12003D1*
Y12194D2*
X27213Y12266D1*
X27261Y12314D1*
X27309Y12338D1*
X27381D1*
X27535Y12409D2*
X27583Y12434D1*
X27655Y12505D1*
Y12003D1*
X25585Y17752D2*
Y18254D1*
X25394Y17752D1*
X25202Y18254D1*
Y17752D1*
X25859Y18087D2*
X25811Y18063D1*
X25763Y18015D1*
X25739Y17943D1*
Y17895D1*
X25763Y17823D1*
X25811Y17776D1*
X25859Y17752D1*
X25931D1*
X25979Y17776D1*
X26026Y17823D1*
X26051Y17895D1*
Y17943D1*
X26026Y18015D1*
X25979Y18063D1*
X25931Y18087D1*
X25859D1*
X26277Y18254D2*
Y17847D1*
X26301Y17776D1*
X26349Y17752D1*
X26396D1*
X26205Y18087D2*
X26372D1*
X26670D2*
X26622Y18063D1*
X26574Y18015D1*
X26551Y17943D1*
Y17895D1*
X26574Y17823D1*
X26622Y17776D1*
X26670Y17752D1*
X26742D1*
X26790Y17776D1*
X26837Y17823D1*
X26862Y17895D1*
Y17943D1*
X26837Y18015D1*
X26790Y18063D1*
X26742Y18087D1*
X26670D1*
X27016D2*
Y17752D1*
Y17943D2*
X27040Y18015D1*
X27088Y18063D1*
X27136Y18087D1*
X27208D1*
X27387Y18134D2*
Y18158D1*
X27410Y18206D1*
X27434Y18230D1*
X27482Y18253D1*
X27578D1*
X27625Y18230D1*
X27649Y18206D1*
X27673Y18158D1*
Y18110D1*
X27649Y18062D1*
X27602Y17991D1*
X27362Y17752D1*
X27697D1*
X4627Y33866D2*
D169*
X4441D1*
Y33564D1*
X4627D1*
X4441Y33722D2*
X4555D1*
X4921Y33866D2*
Y33564D1*
X4720Y33866D1*
Y33564D1*
X5013Y33866D2*
Y33564D1*
X5114D1*
X5157Y33579D1*
X5186Y33607D1*
X5200Y33636D1*
X5214Y33679D1*
Y33751D1*
X5200Y33794D1*
X5186Y33823D1*
X5157Y33851D1*
X5114Y33866D1*
X5013D1*
X5307Y33715D2*
X5473D1*
X5766Y33823D2*
X5738Y33851D1*
X5695Y33866D1*
X5637D1*
X5594Y33851D1*
X5565Y33823D1*
Y33794D1*
X5580Y33765D1*
X5594Y33751D1*
X5623Y33737D1*
X5709Y33708D1*
X5738Y33694D1*
X5752Y33679D1*
X5766Y33650D1*
Y33607D1*
X5738Y33579D1*
X5695Y33564D1*
X5637D1*
X5594Y33579D1*
X5565Y33607D1*
X5959Y33866D2*
Y33564D1*
X5859Y33866D2*
X6060D1*
X6239D2*
X6210Y33851D1*
X6181Y33823D1*
X6167Y33794D1*
X6152Y33751D1*
Y33679D1*
X6167Y33636D1*
X6181Y33607D1*
X6210Y33579D1*
X6239Y33564D1*
X6296D1*
X6325Y33579D1*
X6353Y33607D1*
X6368Y33636D1*
X6382Y33679D1*
Y33751D1*
X6368Y33794D1*
X6353Y33823D1*
X6325Y33851D1*
X6296Y33866D1*
X6239D1*
X6475Y33708D2*
X6604D1*
X6647Y33722D1*
X6661Y33737D1*
X6676Y33765D1*
Y33808D1*
X6661Y33837D1*
X6647Y33851D1*
X6604Y33866D1*
X6475D1*
Y33564D1*
X5262Y23040D2*
D12*
X5195D1*
Y22734D1*
X5262D1*
X5324Y22920D2*
Y22786D1*
Y22863D2*
X5334Y22891D1*
X5353Y22911D1*
X5372Y22920D1*
X5401D1*
X5463Y22863D2*
X5577D1*
Y22882D1*
X5568Y22901D1*
X5558Y22911D1*
X5539Y22920D1*
X5510D1*
X5491Y22911D1*
X5472Y22891D1*
X5463Y22863D1*
Y22844D1*
X5472Y22815D1*
X5491Y22796D1*
X5510Y22786D1*
X5539D1*
X5558Y22796D1*
X5577Y22815D1*
X5754Y22987D2*
Y22786D1*
Y22891D2*
X5735Y22911D1*
X5716Y22920D1*
X5687D1*
X5668Y22911D1*
X5649Y22891D1*
X5639Y22863D1*
Y22844D1*
X5649Y22815D1*
X5668Y22796D1*
X5687Y22786D1*
X5716D1*
X5735Y22796D1*
X5754Y22815D1*
X6010Y22920D2*
X6048Y22786D1*
X6087Y22920D1*
X6125Y22786D1*
X6163Y22920D1*
X6225Y22987D2*
X6234Y22978D1*
X6244Y22987D1*
X6234Y22997D1*
X6225Y22987D1*
X6234Y22920D2*
Y22786D1*
X6306Y22920D2*
Y22786D1*
Y22863D2*
X6316Y22891D1*
X6335Y22911D1*
X6354Y22920D1*
X6382D1*
X6444Y22863D2*
X6559D1*
Y22882D1*
X6549Y22901D1*
X6540Y22911D1*
X6521Y22920D1*
X6492D1*
X6473Y22911D1*
X6454Y22891D1*
X6444Y22863D1*
Y22844D1*
X6454Y22815D1*
X6473Y22796D1*
X6492Y22786D1*
X6521D1*
X6540Y22796D1*
X6559Y22815D1*
X6844Y22987D2*
Y22824D1*
X6853Y22796D1*
X6873Y22786D1*
X6892D1*
X6815Y22920D2*
X6882D1*
X6953Y22987D2*
Y22786D1*
Y22882D2*
X6982Y22911D1*
X7001Y22920D1*
X7030D1*
X7049Y22911D1*
X7059Y22882D1*
Y22786D1*
X7120Y22987D2*
X7130Y22978D1*
X7140Y22987D1*
X7130Y22997D1*
X7120Y22987D1*
X7130Y22920D2*
Y22786D1*
X7307Y22891D2*
X7297Y22911D1*
X7268Y22920D1*
X7240D1*
X7211Y22911D1*
X7201Y22891D1*
X7211Y22872D1*
X7230Y22863D1*
X7278Y22853D1*
X7297Y22844D1*
X7307Y22824D1*
Y22815D1*
X7297Y22796D1*
X7268Y22786D1*
X7240D1*
X7211Y22796D1*
X7201Y22815D1*
X7668Y22891D2*
X7659Y22911D1*
X7630Y22920D1*
X7601D1*
X7572Y22911D1*
X7563Y22891D1*
X7572Y22872D1*
X7592Y22863D1*
X7639Y22853D1*
X7659Y22844D1*
X7668Y22824D1*
Y22815D1*
X7659Y22796D1*
X7630Y22786D1*
X7601D1*
X7572Y22796D1*
X7563Y22815D1*
X7730Y22987D2*
X7739Y22978D1*
X7749Y22987D1*
X7739Y22997D1*
X7730Y22987D1*
X7739Y22920D2*
Y22786D1*
X7926Y22987D2*
Y22786D1*
Y22891D2*
X7906Y22911D1*
X7887Y22920D1*
X7859D1*
X7840Y22911D1*
X7820Y22891D1*
X7811Y22863D1*
Y22844D1*
X7820Y22815D1*
X7840Y22796D1*
X7859Y22786D1*
X7887D1*
X7906Y22796D1*
X7926Y22815D1*
X7987Y22863D2*
X8102D1*
Y22882D1*
X8092Y22901D1*
X8083Y22911D1*
X8064Y22920D1*
X8035D1*
X8016Y22911D1*
X7997Y22891D1*
X7987Y22863D1*
Y22844D1*
X7997Y22815D1*
X8016Y22796D1*
X8035Y22786D1*
X8064D1*
X8083Y22796D1*
X8102Y22815D1*
X8164Y23040D2*
X8231D1*
Y22734D1*
X8164D1*
X4221Y29916D2*
D169*
Y29614D1*
X4350D1*
X4393Y29629D1*
X4407Y29643D1*
X4422Y29672D1*
Y29715D1*
X4407Y29744D1*
X4393Y29758D1*
X4350Y29772D1*
X4393Y29787D1*
X4407Y29801D1*
X4422Y29830D1*
Y29859D1*
X4407Y29887D1*
X4393Y29902D1*
X4350Y29916D1*
X4221D1*
Y29772D2*
X4350D1*
X4701Y29916D2*
X4514D1*
Y29614D1*
X4701D1*
X4514Y29772D2*
X4629D1*
X4793Y29916D2*
Y29614D1*
X4894D1*
X4937Y29629D1*
X4966Y29658D1*
X4980Y29686D1*
X4994Y29729D1*
Y29801D1*
X4980Y29844D1*
X4966Y29873D1*
X4937Y29902D1*
X4894Y29916D1*
X4793D1*
X5087Y29765D2*
X5253D1*
X5446Y29916D2*
Y29614D1*
X5345Y29916D2*
X5546D1*
X5639D2*
Y29614D1*
X5840Y29916D2*
Y29614D1*
X5639Y29772D2*
X5840D1*
X6119Y29916D2*
X5933D1*
Y29614D1*
X6119D1*
X5933Y29772D2*
X6047D1*
X6212D2*
X6341D1*
X6384Y29787D1*
X6398Y29801D1*
X6413Y29830D1*
Y29859D1*
X6398Y29887D1*
X6384Y29902D1*
X6341Y29916D1*
X6212D1*
Y29614D1*
X6312Y29772D2*
X6413Y29614D1*
X6735D2*
Y29916D1*
X6620Y29614D1*
X6505Y29916D1*
Y29614D1*
X11405Y7873D2*
Y7571D1*
X11606Y7873D2*
Y7571D1*
X11405Y7729D2*
X11606D1*
X11785Y7873D2*
X11756Y7858D1*
X11728Y7830D1*
X11713Y7801D1*
X11699Y7758D1*
Y7686D1*
X11713Y7643D1*
X11728Y7614D1*
X11756Y7586D1*
X11785Y7571D1*
X11843D1*
X11871Y7586D1*
X11900Y7614D1*
X11914Y7643D1*
X11929Y7686D1*
Y7758D1*
X11914Y7801D1*
X11900Y7830D1*
X11871Y7858D1*
X11843Y7873D1*
X11785D1*
X12222Y7830D2*
X12194Y7858D1*
X12151Y7873D1*
X12093D1*
X12050Y7858D1*
X12021Y7830D1*
Y7801D1*
X12036Y7772D1*
X12050Y7758D1*
X12079Y7744D1*
X12165Y7715D1*
X12194Y7701D1*
X12208Y7686D1*
X12222Y7657D1*
Y7614D1*
X12194Y7586D1*
X12151Y7571D1*
X12093D1*
X12050Y7586D1*
X12021Y7614D1*
X12415Y7873D2*
Y7571D1*
X12315Y7873D2*
X12516D1*
X13115Y7801D2*
X13101Y7830D1*
X13072Y7858D1*
X13044Y7873D1*
X12986D1*
X12957Y7858D1*
X12929Y7830D1*
X12914Y7801D1*
X12900Y7758D1*
Y7686D1*
X12914Y7643D1*
X12929Y7614D1*
X12957Y7586D1*
X12986Y7571D1*
X13044D1*
X13072Y7586D1*
X13101Y7614D1*
X13115Y7643D1*
X13294Y7873D2*
X13265Y7858D1*
X13237Y7830D1*
X13222Y7801D1*
X13208Y7758D1*
Y7686D1*
X13222Y7643D1*
X13237Y7614D1*
X13265Y7586D1*
X13294Y7571D1*
X13351D1*
X13380Y7586D1*
X13409Y7614D1*
X13423Y7643D1*
X13437Y7686D1*
Y7758D1*
X13423Y7801D1*
X13409Y7830D1*
X13380Y7858D1*
X13351Y7873D1*
X13294D1*
X13731D2*
Y7571D1*
X13530Y7873D1*
Y7571D1*
X14025Y7873D2*
Y7571D1*
X13824Y7873D1*
Y7571D1*
X14304Y7873D2*
X14117D1*
Y7571D1*
X14304D1*
X14117Y7729D2*
X14232D1*
X14611Y7801D2*
X14597Y7830D1*
X14568Y7858D1*
X14540Y7873D1*
X14482D1*
X14454Y7858D1*
X14425Y7830D1*
X14410Y7801D1*
X14396Y7758D1*
Y7686D1*
X14410Y7643D1*
X14425Y7614D1*
X14454Y7586D1*
X14482Y7571D1*
X14540D1*
X14568Y7586D1*
X14597Y7614D1*
X14611Y7643D1*
X14805Y7873D2*
Y7571D1*
X14704Y7873D2*
X14905D1*
X11556Y19666D2*
X11370D1*
Y19365D1*
X11556D1*
X11370Y19523D2*
X11485D1*
X11649Y19666D2*
Y19365D1*
X11742Y19566D2*
X11828Y19365D1*
X11914Y19566D1*
X12006Y19666D2*
X12021Y19652D1*
X12035Y19666D1*
X12021Y19681D1*
X12006Y19666D1*
X12021Y19566D2*
Y19365D1*
X12286Y19523D2*
X12272Y19552D1*
X12228Y19566D1*
X12185D1*
X12142Y19552D1*
X12128Y19523D1*
X12142Y19494D1*
X12171Y19480D1*
X12243Y19465D1*
X12272Y19451D1*
X12286Y19422D1*
Y19408D1*
X12272Y19379D1*
X12228Y19365D1*
X12185D1*
X12142Y19379D1*
X12128Y19408D1*
X12670Y19666D2*
Y19365D1*
X12842D1*
X12935Y19666D2*
X12949Y19652D1*
X12964Y19666D1*
X12949Y19681D1*
X12935Y19666D1*
X12949Y19566D2*
Y19365D1*
X13056Y19566D2*
X13142Y19365D1*
X13228Y19566D1*
X13321Y19480D2*
X13493D1*
Y19508D1*
X13479Y19537D1*
X13465Y19552D1*
X13436Y19566D1*
X13393D1*
X13364Y19552D1*
X13335Y19523D1*
X13321Y19480D1*
Y19451D1*
X13335Y19408D1*
X13364Y19379D1*
X13393Y19365D1*
X13436D1*
X13465Y19379D1*
X13493Y19408D1*
X13744Y19523D2*
X13729Y19552D1*
X13686Y19566D1*
X13643D1*
X13600Y19552D1*
X13586Y19523D1*
X13600Y19494D1*
X13629Y19480D1*
X13700Y19465D1*
X13729Y19451D1*
X13744Y19422D1*
Y19408D1*
X13729Y19379D1*
X13686Y19365D1*
X13643D1*
X13600Y19379D1*
X13586Y19408D1*
X19489Y40913D2*
X19460Y40941D1*
X19417Y40956D1*
X19360D1*
X19317Y40941D1*
X19288Y40913D1*
Y40884D1*
X19302Y40855D1*
X19317Y40841D1*
X19345Y40827D1*
X19431Y40798D1*
X19460Y40784D1*
X19475Y40769D1*
X19489Y40740D1*
Y40697D1*
X19460Y40669D1*
X19417Y40654D1*
X19360D1*
X19317Y40669D1*
X19288Y40697D1*
X19596Y40855D2*
X19682Y40654D1*
X19653Y40597D1*
X19625Y40568D1*
X19596Y40554D1*
X19581D1*
X19768Y40855D2*
X19682Y40654D1*
X19861Y40855D2*
Y40654D1*
Y40798D2*
X19904Y40841D1*
X19933Y40855D1*
X19976D1*
X20004Y40841D1*
X20019Y40798D1*
Y40654D1*
X20154Y40956D2*
Y40712D1*
X20169Y40669D1*
X20197Y40654D1*
X20226D1*
X20111Y40855D2*
X20212D1*
X20319Y40956D2*
Y40654D1*
Y40798D2*
X20362Y40841D1*
X20391Y40855D1*
X20434D1*
X20462Y40841D1*
X20476Y40798D1*
Y40654D1*
X20569Y40769D2*
X20741D1*
Y40798D1*
X20727Y40827D1*
X20713Y40841D1*
X20684Y40855D1*
X20641D1*
X20612Y40841D1*
X20583Y40812D1*
X20569Y40769D1*
Y40740D1*
X20583Y40697D1*
X20612Y40669D1*
X20641Y40654D1*
X20684D1*
X20713Y40669D1*
X20741Y40697D1*
X20877Y40956D2*
Y40712D1*
X20891Y40669D1*
X20920Y40654D1*
X20949D1*
X20834Y40855D2*
X20934D1*
X21113D2*
X21084Y40841D1*
X21055Y40812D1*
X21041Y40769D1*
Y40740D1*
X21055Y40697D1*
X21084Y40669D1*
X21113Y40654D1*
X21156D1*
X21185Y40669D1*
X21213Y40697D1*
X21228Y40740D1*
Y40769D1*
X21213Y40812D1*
X21185Y40841D1*
X21156Y40855D1*
X21113D1*
X21478Y40812D2*
X21464Y40841D1*
X21421Y40855D1*
X21378D1*
X21335Y40841D1*
X21321Y40812D1*
X21335Y40784D1*
X21364Y40769D1*
X21435Y40755D1*
X21464Y40740D1*
X21478Y40712D1*
Y40697D1*
X21464Y40669D1*
X21421Y40654D1*
X21378D1*
X21335Y40669D1*
X21321Y40697D1*
X21585Y40683D2*
X21571Y40668D1*
X21585Y40654D1*
X21600Y40668D1*
X21585Y40683D1*
X21865Y40812D2*
X21836Y40841D1*
X21807Y40855D1*
X21764D1*
X21736Y40841D1*
X21707Y40812D1*
X21693Y40769D1*
Y40740D1*
X21707Y40697D1*
X21736Y40669D1*
X21764Y40654D1*
X21807D1*
X21836Y40669D1*
X21865Y40697D1*
X22029Y40855D2*
X22001Y40841D1*
X21972Y40812D1*
X21958Y40769D1*
Y40740D1*
X21972Y40697D1*
X22001Y40669D1*
X22029Y40654D1*
X22072D1*
X22101Y40669D1*
X22130Y40697D1*
X22144Y40740D1*
Y40769D1*
X22130Y40812D1*
X22101Y40841D1*
X22072Y40855D1*
X22029D1*
X22237D2*
Y40654D1*
Y40798D2*
X22280Y40841D1*
X22309Y40855D1*
X22352D1*
X22381Y40841D1*
X22395Y40798D1*
Y40654D1*
Y40798D2*
X22438Y40841D1*
X22467Y40855D1*
X22510D1*
X22538Y40841D1*
X22553Y40798D1*
Y40654D1*
X4881Y35847D2*
D166*
X4858Y35894D1*
X4810Y35942D1*
X4762Y35966D1*
X4666D1*
X4618Y35942D1*
X4571Y35894D1*
X4547Y35847D1*
X4523Y35775D1*
Y35655D1*
X4547Y35584D1*
X4571Y35536D1*
X4618Y35488D1*
X4666Y35464D1*
X4762D1*
X4810Y35488D1*
X4858Y35536D1*
X4881Y35584D1*
Y35655D1*
X4762D1*
X5060Y35846D2*
Y35870D1*
X5084Y35918D1*
X5108Y35942D1*
X5156Y35966D1*
X5251D1*
X5299Y35942D1*
X5323Y35918D1*
X5347Y35870D1*
Y35822D1*
X5323Y35774D1*
X5275Y35703D1*
X5036Y35464D1*
X5371D1*
X5813Y35727D2*
X5765Y35775D1*
X5716Y35799D1*
X5645D1*
X5597Y35775D1*
X5550Y35727D1*
X5525Y35655D1*
Y35608D1*
X5550Y35536D1*
X5597Y35488D1*
X5645Y35464D1*
X5716D1*
X5765Y35488D1*
X5813Y35536D1*
X6086Y35799D2*
X6039Y35775D1*
X5991Y35727D1*
X5967Y35655D1*
Y35608D1*
X5991Y35536D1*
X6039Y35488D1*
X6086Y35464D1*
X6158D1*
X6206Y35488D1*
X6254Y35536D1*
X6278Y35608D1*
Y35655D1*
X6254Y35727D1*
X6206Y35775D1*
X6158Y35799D1*
X6086D1*
X6433D2*
Y35464D1*
Y35655D2*
X6457Y35727D1*
X6504Y35775D1*
X6552Y35799D1*
X6624D1*
X6779Y35655D2*
X7066D1*
Y35703D1*
X7042Y35751D1*
X7018Y35775D1*
X6970Y35799D1*
X6898D1*
X6851Y35775D1*
X6802Y35727D1*
X6779Y35655D1*
Y35608D1*
X6802Y35536D1*
X6851Y35488D1*
X6898Y35464D1*
X6970D1*
X7018Y35488D1*
X7066Y35536D1*
M02*
