  0
SECTION
  2
HEADER
  9
$ACADVER
  1
AC1009
  9
$ANGDIR
  70
0
  9
$CECOLOR
  62
256
  9
$CELTYPE
  6
BYLAYER
  9
$EXTMIN
  10
0.0
  20
0.0
  9
$EXTMAX
  10
5.1908
  20
2.1958
  9
$FILLMODE
  70
1
  9
$MIRRTEXT
  70
0
  0
ENDSEC
  0
SECTION
  2
TABLES
  0
TABLE
  2
LAYER
  70
7
  0
LAYER
  2
Shapes
  70
64
  62
252
  6
CONTINUOUS
  0
LAYER
  2
Element
  70
64
  62
253
  6
CONTINUOUS
  0
LAYER
  2
Bus
  70
64
  62
180
  6
CONTINUOUS
  0
LAYER
  2
Net
  70
64
  62
50
  6
CONTINUOUS
  0
LAYER
  2
Pin
  70
64
  62
50
  6
CONTINUOUS
  0
LAYER
  2
Tables
  70
64
  62
253
  6
CONTINUOUS
  0
LAYER
  2
Titles
  70
64
  62
253
  6
CONTINUOUS
  0
ENDTAB
  0
ENDSEC
  0
SECTION
  2
ENTITIES
  0
POLYLINE
  8
Element
  6
CONTINUOUS
  66
1
  70
0
  40
0.01
  41
0.01
  0
VERTEX
  8
Element
  10
0.169
  20
1.4557
  42
0
  0
VERTEX
  8
Element
  10
0.1624
  20
1.4604
  42
0
  0
VERTEX
  8
Element
  10
0.1555
  20
1.4646
  42
0
  0
VERTEX
  8
Element
  10
0.1483
  20
1.4684
  42
0
  0
VERTEX
  8
Element
  10
0.141
  20
1.4717
  42
0
  0
VERTEX
  8
Element
  10
0.1334
  20
1.4745
  42
0
  0
VERTEX
  8
Element
  10
0.1257
  20
1.4768
  42
0
  0
VERTEX
  8
Element
  10
0.1178
  20
1.4786
  42
0
  0
VERTEX
  8
Element
  10
0.1098
  20
1.4799
  42
0
  0
VERTEX
  8
Element
  10
0.1018
  20
1.4807
  42
0
  0
VERTEX
  8
Element
  10
0.0937
  20
1.4809
  42
0
  0
VERTEX
  8
Element
  10
0.0857
  20
1.4807
  42
0
  0
VERTEX
  8
Element
  10
0.0776
  20
1.4799
  42
0
  0
VERTEX
  8
Element
  10
0.0697
  20
1.4786
  42
0
  0
VERTEX
  8
Element
  10
0.0618
  20
1.4768
  42
0
  0
VERTEX
  8
Element
  10
0.0541
  20
1.4745
  42
0
  0
VERTEX
  8
Element
  10
0.0465
  20
1.4716
  42
0
  0
VERTEX
  8
Element
  10
0.0391
  20
1.4684
  42
0
  0
VERTEX
  8
Element
  10
0.032
  20
1.4646
  42
0
  0
VERTEX
  8
Element
  10
0.0251
  20
1.4604
  42
0
  0
VERTEX
  8
Element
  10
0.0185
  20
1.4557
  42
0
  0
SEQEND
  0
POLYLINE
  8
Element
  6
CONTINUOUS
  66
1
  70
0
  40
0.005
  41
0.005
  0
VERTEX
  8
Element
  10
0.1665
  20
1.4557
  42
1
  0
VERTEX
  8
Element
  10
0.1715
  20
1.4557
  42
1
  0
VERTEX
  8
Element
  10
0.1665
  20
1.4557
  42
1
  0
SEQEND
  0
POLYLINE
  8
Element
  6
CONTINUOUS
  66
1
  70
0
  40
0.005
  41
0.005
  0
VERTEX
  8
Element
  10
0.016
  20
1.4557
  42
1
  0
VERTEX
  8
Element
  10
0.021
  20
1.4557
  42
1
  0
VERTEX
  8
Element
  10
0.016
  20
1.4557
  42
1
  0
SEQEND
  0
POLYLINE
  8
Element
  6
CONTINUOUS
  66
1
  70
0
  40
0.0098
  41
0.0098
  0
VERTEX
  8
Element
  10
0.0187
  20
1.5059
  42
0
  0
VERTEX
  8
Element
  10
0.1687
  20
1.5059
  42
0
  0
SEQEND
  0
POLYLINE
  8
Element
  6
CONTINUOUS
  66
1
  70
0
  40
0.0049
  41
0.0049
  0
VERTEX
  8
Element
  10
0.0163
  20
1.5059
  42
1
  0
VERTEX
  8
Element
  10
0.0212
  20
1.5059
  42
1
  0
VERTEX
  8
Element
  10
0.0163
  20
1.5059
  42
1
  0
SEQEND
  0
POLYLINE
  8
Element
  6
CONTINUOUS
  66
1
  70
0
  40
0.0049
  41
0.0049
  0
VERTEX
  8
Element
  10
0.1663
  20
1.5059
  42
1
  0
VERTEX
  8
Element
  10
0.1712
  20
1.5059
  42
1
  0
VERTEX
  8
Element
  10
0.1663
  20
1.5059
  42
1
  0
SEQEND
  0
POLYLINE
  8
Element
  6
CONTINUOUS
  66
1
  70
0
  40
0.0098
  41
0.0098
  0
VERTEX
  8
Element
  10
0.0937
  20
1.4809
  42
0
  0
VERTEX
  8
Element
  10
0.0937
  20
1.4429
  42
0
  0
SEQEND
  0
POLYLINE
  8
Element
  6
CONTINUOUS
  66
1
  70
0
  40
0.0049
  41
0.0049
  0
VERTEX
  8
Element
  10
0.0913
  20
1.4809
  42
1
  0
VERTEX
  8
Element
  10
0.0962
  20
1.4809
  42
1
  0
VERTEX
  8
Element
  10
0.0913
  20
1.4809
  42
1
  0
SEQEND
  0
POLYLINE
  8
Element
  6
CONTINUOUS
  66
1
  70
0
  40
0.0049
  41
0.0049
  0
VERTEX
  8
Element
  10
0.0913
  20
1.4429
  42
1
  0
VERTEX
  8
Element
  10
0.0962
  20
1.4429
  42
1
  0
VERTEX
  8
Element
  10
0.0913
  20
1.4429
  42
1
  0
SEQEND
  0
POLYLINE
  8
Element
  6
CONTINUOUS
  66
1
  70
0
  40
0.0098
  41
0.0098
  0
VERTEX
  8
Element
  10
0.0937
  20
1.5429
  42
0
  0
VERTEX
  8
Element
  10
0.0937
  20
1.5059
  42
0
  0
SEQEND
  0
POLYLINE
  8
Element
  6
CONTINUOUS
  66
1
  70
0
  40
0.0049
  41
0.0049
  0
VERTEX
  8
Element
  10
0.0913
  20
1.5429
  42
1
  0
VERTEX
  8
Element
  10
0.0962
  20
1.5429
  42
1
  0
VERTEX
  8
Element
  10
0.0913
  20
1.5429
  42
1
  0
SEQEND
  0
POLYLINE
  8
Element
  6
CONTINUOUS
  66
1
  70
0
  40
0.0049
  41
0.0049
  0
VERTEX
  8
Element
  10
0.0913
  20
1.5059
  42
1
  0
VERTEX
  8
Element
  10
0.0962
  20
1.5059
  42
1
  0
VERTEX
  8
Element
  10
0.0913
  20
1.5059
  42
1
  0
SEQEND
  0
POLYLINE
  8
Element
  6
CONTINUOUS
  66
1
  70
0
  40
0.01
  41
0.01
  0
VERTEX
  8
Element
  10
0.544
  20
1.4557
  42
0
  0
VERTEX
  8
Element
  10
0.5374
  20
1.4604
  42
0
  0
VERTEX
  8
Element
  10
0.5305
  20
1.4646
  42
0
  0
VERTEX
  8
Element
  10
0.5234
  20
1.4684
  42
0
  0
VERTEX
  8
Element
  10
0.516
  20
1.4717
  42
0
  0
VERTEX
  8
Element
  10
0.5084
  20
1.4745
  42
0
  0
VERTEX
  8
Element
  10
0.5007
  20
1.4768
  42
0
  0
VERTEX
  8
Element
  10
0.4929
  20
1.4786
  42
0
  0
VERTEX
  8
Element
  10
0.4849
  20
1.4799
  42
0
  0
VERTEX
  8
Element
  10
0.4769
  20
1.4807
  42
0
  0
VERTEX
  8
Element
  10
0.4688
  20
1.4809
  42
0
  0
VERTEX
  8
Element
  10
0.4607
  20
1.4807
  42
0
  0
VERTEX
  8
Element
  10
0.4527
  20
1.4799
  42
0
  0
VERTEX
  8
Element
  10
0.4447
  20
1.4786
  42
0
  0
VERTEX
  8
Element
  10
0.4369
  20
1.4768
  42
0
  0
VERTEX
  8
Element
  10
0.4291
  20
1.4745
  42
0
  0
VERTEX
  8
Element
  10
0.4216
  20
1.4716
  42
0
  0
VERTEX
  8
Element
  10
0.4142
  20
1.4684
  42
0
  0
VERTEX
  8
Element
  10
0.407
  20
1.4646
  42
0
  0
VERTEX
  8
Element
  10
0.4002
  20
1.4604
  42
0
  0
VERTEX
  8
Element
  10
0.3936
  20
1.4557
  42
0
  0
SEQEND
  0
POLYLINE
  8
Element
  6
CONTINUOUS
  66
1
  70
0
  40
0.005
  41
0.005
  0
VERTEX
  8
Element
  10
0.5415
  20
1.4557
  42
1
  0
VERTEX
  8
Element
  10
0.5465
  20
1.4557
  42
1
  0
VERTEX
  8
Element
  10
0.5415
  20
1.4557
  42
1
  0
SEQEND
  0
POLYLINE
  8
Element
  6
CONTINUOUS
  66
1
  70
0
  40
0.005
  41
0.005
  0
VERTEX
  8
Element
  10
0.3911
  20
1.4557
  42
1
  0
VERTEX
  8
Element
  10
0.3961
  20
1.4557
  42
1
  0
VERTEX
  8
Element
  10
0.3911
  20
1.4557
  42
1
  0
SEQEND
  0
POLYLINE
  8
Element
  6
CONTINUOUS
  66
1
  70
0
  40
0.0098
  41
0.0098
  0
VERTEX
  8
Element
  10
0.3938
  20
1.5059
  42
0
  0
VERTEX
  8
Element
  10
0.5438
  20
1.5059
  42
0
  0
SEQEND
  0
POLYLINE
  8
Element
  6
CONTINUOUS
  66
1
  70
0
  40
0.0049
  41
0.0049
  0
VERTEX
  8
Element
  10
0.3913
  20
1.5059
  42
1
  0
VERTEX
  8
Element
  10
0.3962
  20
1.5059
  42
1
  0
VERTEX
  8
Element
  10
0.3913
  20
1.5059
  42
1
  0
SEQEND
  0
POLYLINE
  8
Element
  6
CONTINUOUS
  66
1
  70
0
  40
0.0049
  41
0.0049
  0
VERTEX
  8
Element
  10
0.5413
  20
1.5059
  42
1
  0
VERTEX
  8
Element
  10
0.5462
  20
1.5059
  42
1
  0
VERTEX
  8
Element
  10
0.5413
  20
1.5059
  42
1
  0
SEQEND
  0
POLYLINE
  8
Element
  6
CONTINUOUS
  66
1
  70
0
  40
0.0098
  41
0.0098
  0
VERTEX
  8
Element
  10
0.4688
  20
1.4809
  42
0
  0
VERTEX
  8
Element
  10
0.4688
  20
1.4429
  42
0
  0
SEQEND
  0
POLYLINE
  8
Element
  6
CONTINUOUS
  66
1
  70
0
  40
0.0049
  41
0.0049
  0
VERTEX
  8
Element
  10
0.4663
  20
1.4809
  42
1
  0
VERTEX
  8
Element
  10
0.4712
  20
1.4809
  42
1
  0
VERTEX
  8
Element
  10
0.4663
  20
1.4809
  42
1
  0
SEQEND
  0
POLYLINE
  8
Element
  6
CONTINUOUS
  66
1
  70
0
  40
0.0049
  41
0.0049
  0
VERTEX
  8
Element
  10
0.4663
  20
1.4429
  42
1
  0
VERTEX
  8
Element
  10
0.4712
  20
1.4429
  42
1
  0
VERTEX
  8
Element
  10
0.4663
  20
1.4429
  42
1
  0
SEQEND
  0
POLYLINE
  8
Element
  6
CONTINUOUS
  66
1
  70
0
  40
0.0098
  41
0.0098
  0
VERTEX
  8
Element
  10
0.4688
  20
1.5429
  42
0
  0
VERTEX
  8
Element
  10
0.4688
  20
1.5059
  42
0
  0
SEQEND
  0
POLYLINE
  8
Element
  6
CONTINUOUS
  66
1
  70
0
  40
0.0049
  41
0.0049
  0
VERTEX
  8
Element
  10
0.4663
  20
1.5429
  42
1
  0
VERTEX
  8
Element
  10
0.4712
  20
1.5429
  42
1
  0
VERTEX
  8
Element
  10
0.4663
  20
1.5429
  42
1
  0
SEQEND
  0
POLYLINE
  8
Element
  6
CONTINUOUS
  66
1
  70
0
  40
0.0049
  41
0.0049
  0
VERTEX
  8
Element
  10
0.4663
  20
1.5059
  42
1
  0
VERTEX
  8
Element
  10
0.4712
  20
1.5059
  42
1
  0
VERTEX
  8
Element
  10
0.4663
  20
1.5059
  42
1
  0
SEQEND
  0
POLYLINE
  8
Element
  6
CONTINUOUS
  66
1
  70
0
  40
0.01
  41
0.01
  0
VERTEX
  8
Element
  10
0.9253
  20
1.4557
  42
0
  0
VERTEX
  8
Element
  10
0.9187
  20
1.4604
  42
0
  0
VERTEX
  8
Element
  10
0.9118
  20
1.4646
  42
0
  0
VERTEX
  8
Element
  10
0.9047
  20
1.4684
  42
0
  0
VERTEX
  8
Element
  10
0.8973
  20
1.4717
  42
0
  0
VERTEX
  8
Element
  10
0.8897
  20
1.4745
  42
0
  0
VERTEX
  8
Element
  10
0.882
  20
1.4768
  42
0
  0
VERTEX
  8
Element
  10
0.8741
  20
1.4786
  42
0
  0
VERTEX
  8
Element
  10
0.8662
  20
1.4799
  42
0
  0
VERTEX
  8
Element
  10
0.8581
  20
1.4807
  42
0
  0
VERTEX
  8
Element
  10
0.8501
  20
1.4809
  42
0
  0
VERTEX
  8
Element
  10
0.842
  20
1.4807
  42
0
  0
VERTEX
  8
Element
  10
0.834
  20
1.4799
  42
0
  0
VERTEX
  8
Element
  10
0.826
  20
1.4786
  42
0
  0
VERTEX
  8
Element
  10
0.8181
  20
1.4768
  42
0
  0
VERTEX
  8
Element
  10
0.8104
  20
1.4745
  42
0
  0
VERTEX
  8
Element
  10
0.8028
  20
1.4716
  42
0
  0
VERTEX
  8
Element
  10
0.7955
  20
1.4684
  42
0
  0
VERTEX
  8
Element
  10
0.7883
  20
1.4646
  42
0
  0
VERTEX
  8
Element
  10
0.7815
  20
1.4604
  42
0
  0
VERTEX
  8
Element
  10
0.7749
  20
1.4557
  42
0
  0
SEQEND
  0
POLYLINE
  8
Element
  6
CONTINUOUS
  66
1
  70
0
  40
0.005
  41
0.005
  0
VERTEX
  8
Element
  10
0.9228
  20
1.4557
  42
1
  0
VERTEX
  8
Element
  10
0.9278
  20
1.4557
  42
1
  0
VERTEX
  8
Element
  10
0.9228
  20
1.4557
  42
1
  0
SEQEND
  0
POLYLINE
  8
Element
  6
CONTINUOUS
  66
1
  70
0
  40
0.005
  41
0.005
  0
VERTEX
  8
Element
  10
0.7724
  20
1.4557
  42
1
  0
VERTEX
  8
Element
  10
0.7774
  20
1.4557
  42
1
  0
VERTEX
  8
Element
  10
0.7724
  20
1.4557
  42
1
  0
SEQEND
  0
POLYLINE
  8
Element
  6
CONTINUOUS
  66
1
  70
0
  40
0.0098
  41
0.0098
  0
VERTEX
  8
Element
  10
0.7751
  20
1.5059
  42
0
  0
VERTEX
  8
Element
  10
0.9251
  20
1.5059
  42
0
  0
SEQEND
  0
POLYLINE
  8
Element
  6
CONTINUOUS
  66
1
  70
0
  40
0.0049
  41
0.0049
  0
VERTEX
  8
Element
  10
0.7726
  20
1.5059
  42
1
  0
VERTEX
  8
Element
  10
0.7775
  20
1.5059
  42
1
  0
VERTEX
  8
Element
  10
0.7726
  20
1.5059
  42
1
  0
SEQEND
  0
POLYLINE
  8
Element
  6
CONTINUOUS
  66
1
  70
0
  40
0.0049
  41
0.0049
  0
VERTEX
  8
Element
  10
0.9226
  20
1.5059
  42
1
  0
VERTEX
  8
Element
  10
0.9275
  20
1.5059
  42
1
  0
VERTEX
  8
Element
  10
0.9226
  20
1.5059
  42
1
  0
SEQEND
  0
POLYLINE
  8
Element
  6
CONTINUOUS
  66
1
  70
0
  40
0.0098
  41
0.0098
  0
VERTEX
  8
Element
  10
0.8501
  20
1.4809
  42
0
  0
VERTEX
  8
Element
  10
0.8501
  20
1.4429
  42
0
  0
SEQEND
  0
POLYLINE
  8
Element
  6
CONTINUOUS
  66
1
  70
0
  40
0.0049
  41
0.0049
  0
VERTEX
  8
Element
  10
0.8476
  20
1.4809
  42
1
  0
VERTEX
  8
Element
  10
0.8525
  20
1.4809
  42
1
  0
VERTEX
  8
Element
  10
0.8476
  20
1.4809
  42
1
  0
SEQEND
  0
POLYLINE
  8
Element
  6
CONTINUOUS
  66
1
  70
0
  40
0.0049
  41
0.0049
  0
VERTEX
  8
Element
  10
0.8476
  20
1.4429
  42
1
  0
VERTEX
  8
Element
  10
0.8525
  20
1.4429
  42
1
  0
VERTEX
  8
Element
  10
0.8476
  20
1.4429
  42
1
  0
SEQEND
  0
POLYLINE
  8
Element
  6
CONTINUOUS
  66
1
  70
0
  40
0.0098
  41
0.0098
  0
VERTEX
  8
Element
  10
0.8501
  20
1.5429
  42
0
  0
VERTEX
  8
Element
  10
0.8501
  20
1.5059
  42
0
  0
SEQEND
  0
POLYLINE
  8
Element
  6
CONTINUOUS
  66
1
  70
0
  40
0.0049
  41
0.0049
  0
VERTEX
  8
Element
  10
0.8476
  20
1.5429
  42
1
  0
VERTEX
  8
Element
  10
0.8525
  20
1.5429
  42
1
  0
VERTEX
  8
Element
  10
0.8476
  20
1.5429
  42
1
  0
SEQEND
  0
POLYLINE
  8
Element
  6
CONTINUOUS
  66
1
  70
0
  40
0.0049
  41
0.0049
  0
VERTEX
  8
Element
  10
0.8476
  20
1.5059
  42
1
  0
VERTEX
  8
Element
  10
0.8525
  20
1.5059
  42
1
  0
VERTEX
  8
Element
  10
0.8476
  20
1.5059
  42
1
  0
SEQEND
  0
POLYLINE
  8
Element
  6
CONTINUOUS
  66
1
  70
0
  40
0.01
  41
0.01
  0
VERTEX
  8
Element
  10
1.3191
  20
1.4557
  42
0
  0
VERTEX
  8
Element
  10
1.3125
  20
1.4604
  42
0
  0
VERTEX
  8
Element
  10
1.3056
  20
1.4646
  42
0
  0
VERTEX
  8
Element
  10
1.2985
  20
1.4684
  42
0
  0
VERTEX
  8
Element
  10
1.2911
  20
1.4717
  42
0
  0
VERTEX
  8
Element
  10
1.2835
  20
1.4745
  42
0
  0
VERTEX
  8
Element
  10
1.2758
  20
1.4768
  42
0
  0
VERTEX
  8
Element
  10
1.2679
  20
1.4786
  42
0
  0
VERTEX
  8
Element
  10
1.26
  20
1.4799
  42
0
  0
VERTEX
  8
Element
  10
1.2519
  20
1.4807
  42
0
  0
VERTEX
  8
Element
  10
1.2439
  20
1.4809
  42
0
  0
VERTEX
  8
Element
  10
1.2358
  20
1.4807
  42
0
  0
VERTEX
  8
Element
  10
1.2278
  20
1.4799
  42
0
  0
VERTEX
  8
Element
  10
1.2198
  20
1.4786
  42
0
  0
VERTEX
  8
Element
  10
1.2119
  20
1.4768
  42
0
  0
VERTEX
  8
Element
  10
1.2042
  20
1.4745
  42
0
  0
VERTEX
  8
Element
  10
1.1966
  20
1.4716
  42
0
  0
VERTEX
  8
Element
  10
1.1893
  20
1.4684
  42
0
  0
VERTEX
  8
Element
  10
1.1821
  20
1.4646
  42
0
  0
VERTEX
  8
Element
  10
1.1752
  20
1.4604
  42
0
  0
VERTEX
  8
Element
  10
1.1686
  20
1.4557
  42
0
  0
SEQEND
  0
POLYLINE
  8
Element
  6
CONTINUOUS
  66
1
  70
0
  40
0.005
  41
0.005
  0
VERTEX
  8
Element
  10
1.3166
  20
1.4557
  42
1
  0
VERTEX
  8
Element
  10
1.3216
  20
1.4557
  42
1
  0
VERTEX
  8
Element
  10
1.3166
  20
1.4557
  42
1
  0
SEQEND
  0
POLYLINE
  8
Element
  6
CONTINUOUS
  66
1
  70
0
  40
0.005
  41
0.005
  0
VERTEX
  8
Element
  10
1.1661
  20
1.4557
  42
1
  0
VERTEX
  8
Element
  10
1.1711
  20
1.4557
  42
1
  0
VERTEX
  8
Element
  10
1.1661
  20
1.4557
  42
1
  0
SEQEND
  0
POLYLINE
  8
Element
  6
CONTINUOUS
  66
1
  70
0
  40
0.0098
  41
0.0098
  0
VERTEX
  8
Element
  10
1.1689
  20
1.5059
  42
0
  0
VERTEX
  8
Element
  10
1.3189
  20
1.5059
  42
0
  0
SEQEND
  0
POLYLINE
  8
Element
  6
CONTINUOUS
  66
1
  70
0
  40
0.0049
  41
0.0049
  0
VERTEX
  8
Element
  10
1.1664
  20
1.5059
  42
1
  0
VERTEX
  8
Element
  10
1.1713
  20
1.5059
  42
1
  0
VERTEX
  8
Element
  10
1.1664
  20
1.5059
  42
1
  0
SEQEND
  0
POLYLINE
  8
Element
  6
CONTINUOUS
  66
1
  70
0
  40
0.0049
  41
0.0049
  0
VERTEX
  8
Element
  10
1.3164
  20
1.5059
  42
1
  0
VERTEX
  8
Element
  10
1.3213
  20
1.5059
  42
1
  0
VERTEX
  8
Element
  10
1.3164
  20
1.5059
  42
1
  0
SEQEND
  0
POLYLINE
  8
Element
  6
CONTINUOUS
  66
1
  70
0
  40
0.0098
  41
0.0098
  0
VERTEX
  8
Element
  10
1.2439
  20
1.4809
  42
0
  0
VERTEX
  8
Element
  10
1.2439
  20
1.4429
  42
0
  0
SEQEND
  0
POLYLINE
  8
Element
  6
CONTINUOUS
  66
1
  70
0
  40
0.0049
  41
0.0049
  0
VERTEX
  8
Element
  10
1.2414
  20
1.4809
  42
1
  0
VERTEX
  8
Element
  10
1.2463
  20
1.4809
  42
1
  0
VERTEX
  8
Element
  10
1.2414
  20
1.4809
  42
1
  0
SEQEND
  0
POLYLINE
  8
Element
  6
CONTINUOUS
  66
1
  70
0
  40
0.0049
  41
0.0049
  0
VERTEX
  8
Element
  10
1.2414
  20
1.4429
  42
1
  0
VERTEX
  8
Element
  10
1.2463
  20
1.4429
  42
1
  0
VERTEX
  8
Element
  10
1.2414
  20
1.4429
  42
1
  0
SEQEND
  0
POLYLINE
  8
Element
  6
CONTINUOUS
  66
1
  70
0
  40
0.0098
  41
0.0098
  0
VERTEX
  8
Element
  10
1.2439
  20
1.5429
  42
0
  0
VERTEX
  8
Element
  10
1.2439
  20
1.5059
  42
0
  0
SEQEND
  0
POLYLINE
  8
Element
  6
CONTINUOUS
  66
1
  70
0
  40
0.0049
  41
0.0049
  0
VERTEX
  8
Element
  10
1.2414
  20
1.5429
  42
1
  0
VERTEX
  8
Element
  10
1.2463
  20
1.5429
  42
1
  0
VERTEX
  8
Element
  10
1.2414
  20
1.5429
  42
1
  0
SEQEND
  0
POLYLINE
  8
Element
  6
CONTINUOUS
  66
1
  70
0
  40
0.0049
  41
0.0049
  0
VERTEX
  8
Element
  10
1.2414
  20
1.5059
  42
1
  0
VERTEX
  8
Element
  10
1.2463
  20
1.5059
  42
1
  0
VERTEX
  8
Element
  10
1.2414
  20
1.5059
  42
1
  0
SEQEND
  0
POLYLINE
  8
Element
  6
CONTINUOUS
  66
1
  70
0
  40
0.01
  41
0.01
  0
VERTEX
  8
Element
  10
1.0878
  20
0.8557
  42
0
  0
VERTEX
  8
Element
  10
1.0812
  20
0.8603
  42
0
  0
VERTEX
  8
Element
  10
1.0743
  20
0.8645
  42
0
  0
VERTEX
  8
Element
  10
1.0672
  20
0.8683
  42
0
  0
VERTEX
  8
Element
  10
1.0598
  20
0.8716
  42
0
  0
VERTEX
  8
Element
  10
1.0523
  20
0.8744
  42
0
  0
VERTEX
  8
Element
  10
1.0445
  20
0.8767
  42
0
  0
VERTEX
  8
Element
  10
1.0367
  20
0.8785
  42
0
  0
VERTEX
  8
Element
  10
1.0287
  20
0.8798
  42
0
  0
VERTEX
  8
Element
  10
1.0207
  20
0.8806
  42
0
  0
VERTEX
  8
Element
  10
1.0126
  20
0.8809
  42
0
  0
VERTEX
  8
Element
  10
1.0045
  20
0.8806
  42
0
  0
VERTEX
  8
Element
  10
0.9965
  20
0.8798
  42
0
  0
VERTEX
  8
Element
  10
0.9885
  20
0.8785
  42
0
  0
VERTEX
  8
Element
  10
0.9807
  20
0.8767
  42
0
  0
VERTEX
  8
Element
  10
0.9729
  20
0.8744
  42
0
  0
VERTEX
  8
Element
  10
0.9654
  20
0.8716
  42
0
  0
VERTEX
  8
Element
  10
0.958
  20
0.8683
  42
0
  0
VERTEX
  8
Element
  10
0.9509
  20
0.8645
  42
0
  0
VERTEX
  8
Element
  10
0.944
  20
0.8603
  42
0
  0
VERTEX
  8
Element
  10
0.9374
  20
0.8557
  42
0
  0
SEQEND
  0
POLYLINE
  8
Element
  6
CONTINUOUS
  66
1
  70
0
  40
0.005
  41
0.005
  0
VERTEX
  8
Element
  10
1.0853
  20
0.8557
  42
1
  0
VERTEX
  8
Element
  10
1.0903
  20
0.8557
  42
1
  0
VERTEX
  8
Element
  10
1.0853
  20
0.8557
  42
1
  0
SEQEND
  0
POLYLINE
  8
Element
  6
CONTINUOUS
  66
1
  70
0
  40
0.005
  41
0.005
  0
VERTEX
  8
Element
  10
0.9349
  20
0.8557
  42
1
  0
VERTEX
  8
Element
  10
0.9399
  20
0.8557
  42
1
  0
VERTEX
  8
Element
  10
0.9349
  20
0.8557
  42
1
  0
SEQEND
  0
POLYLINE
  8
Element
  6
CONTINUOUS
  66
1
  70
0
  40
0.0098
  41
0.0098
  0
VERTEX
  8
Element
  10
0.9376
  20
0.9059
  42
0
  0
VERTEX
  8
Element
  10
1.0876
  20
0.9059
  42
0
  0
SEQEND
  0
POLYLINE
  8
Element
  6
CONTINUOUS
  66
1
  70
0
  40
0.0049
  41
0.0049
  0
VERTEX
  8
Element
  10
0.9351
  20
0.9059
  42
1
  0
VERTEX
  8
Element
  10
0.9401
  20
0.9059
  42
1
  0
VERTEX
  8
Element
  10
0.9351
  20
0.9059
  42
1
  0
SEQEND
  0
POLYLINE
  8
Element
  6
CONTINUOUS
  66
1
  70
0
  40
0.0049
  41
0.0049
  0
VERTEX
  8
Element
  10
1.0851
  20
0.9059
  42
1
  0
VERTEX
  8
Element
  10
1.0901
  20
0.9059
  42
1
  0
VERTEX
  8
Element
  10
1.0851
  20
0.9059
  42
1
  0
SEQEND
  0
POLYLINE
  8
Element
  6
CONTINUOUS
  66
1
  70
0
  40
0.0098
  41
0.0098
  0
VERTEX
  8
Element
  10
1.0126
  20
0.8809
  42
0
  0
VERTEX
  8
Element
  10
1.0126
  20
0.8429
  42
0
  0
SEQEND
  0
POLYLINE
  8
Element
  6
CONTINUOUS
  66
1
  70
0
  40
0.0049
  41
0.0049
  0
VERTEX
  8
Element
  10
1.0101
  20
0.8809
  42
1
  0
VERTEX
  8
Element
  10
1.0151
  20
0.8809
  42
1
  0
VERTEX
  8
Element
  10
1.0101
  20
0.8809
  42
1
  0
SEQEND
  0
POLYLINE
  8
Element
  6
CONTINUOUS
  66
1
  70
0
  40
0.0049
  41
0.0049
  0
VERTEX
  8
Element
  10
1.0101
  20
0.8429
  42
1
  0
VERTEX
  8
Element
  10
1.0151
  20
0.8429
  42
1
  0
VERTEX
  8
Element
  10
1.0101
  20
0.8429
  42
1
  0
SEQEND
  0
POLYLINE
  8
Element
  6
CONTINUOUS
  66
1
  70
0
  40
0.0098
  41
0.0098
  0
VERTEX
  8
Element
  10
1.0126
  20
0.9429
  42
0
  0
VERTEX
  8
Element
  10
1.0126
  20
0.9059
  42
0
  0
SEQEND
  0
POLYLINE
  8
Element
  6
CONTINUOUS
  66
1
  70
0
  40
0.0049
  41
0.0049
  0
VERTEX
  8
Element
  10
1.0101
  20
0.9429
  42
1
  0
VERTEX
  8
Element
  10
1.0151
  20
0.9429
  42
1
  0
VERTEX
  8
Element
  10
1.0101
  20
0.9429
  42
1
  0
SEQEND
  0
POLYLINE
  8
Element
  6
CONTINUOUS
  66
1
  70
0
  40
0.0049
  41
0.0049
  0
VERTEX
  8
Element
  10
1.0101
  20
0.9059
  42
1
  0
VERTEX
  8
Element
  10
1.0151
  20
0.9059
  42
1
  0
VERTEX
  8
Element
  10
1.0101
  20
0.9059
  42
1
  0
SEQEND
  0
POLYLINE
  8
Element
  6
CONTINUOUS
  66
1
  70
0
  40
0.01
  41
0.01
  0
VERTEX
  8
Element
  10
2.9947
  20
0.487
  42
0
  0
VERTEX
  8
Element
  10
2.9881
  20
0.4916
  42
0
  0
VERTEX
  8
Element
  10
2.9812
  20
0.4958
  42
0
  0
VERTEX
  8
Element
  10
2.9741
  20
0.4996
  42
0
  0
VERTEX
  8
Element
  10
2.9667
  20
0.5029
  42
0
  0
VERTEX
  8
Element
  10
2.9591
  20
0.5057
  42
0
  0
VERTEX
  8
Element
  10
2.9514
  20
0.508
  42
0
  0
VERTEX
  8
Element
  10
2.9435
  20
0.5098
  42
0
  0
VERTEX
  8
Element
  10
2.9356
  20
0.5111
  42
0
  0
VERTEX
  8
Element
  10
2.9275
  20
0.5119
  42
0
  0
VERTEX
  8
Element
  10
2.9195
  20
0.5121
  42
0
  0
VERTEX
  8
Element
  10
2.9114
  20
0.5119
  42
0
  0
VERTEX
  8
Element
  10
2.9034
  20
0.5111
  42
0
  0
VERTEX
  8
Element
  10
2.8954
  20
0.5098
  42
0
  0
VERTEX
  8
Element
  10
2.8875
  20
0.508
  42
0
  0
VERTEX
  8
Element
  10
2.8798
  20
0.5057
  42
0
  0
VERTEX
  8
Element
  10
2.8722
  20
0.5029
  42
0
  0
VERTEX
  8
Element
  10
2.8649
  20
0.4996
  42
0
  0
VERTEX
  8
Element
  10
2.8577
  20
0.4958
  42
0
  0
VERTEX
  8
Element
  10
2.8508
  20
0.4916
  42
0
  0
VERTEX
  8
Element
  10
2.8442
  20
0.487
  42
0
  0
SEQEND
  0
POLYLINE
  8
Element
  6
CONTINUOUS
  66
1
  70
0
  40
0.005
  41
0.005
  0
VERTEX
  8
Element
  10
2.9922
  20
0.487
  42
1
  0
VERTEX
  8
Element
  10
2.9972
  20
0.487
  42
1
  0
VERTEX
  8
Element
  10
2.9922
  20
0.487
  42
1
  0
SEQEND
  0
POLYLINE
  8
Element
  6
CONTINUOUS
  66
1
  70
0
  40
0.005
  41
0.005
  0
VERTEX
  8
Element
  10
2.8417
  20
0.487
  42
1
  0
VERTEX
  8
Element
  10
2.8467
  20
0.487
  42
1
  0
VERTEX
  8
Element
  10
2.8417
  20
0.487
  42
1
  0
SEQEND
  0
POLYLINE
  8
Element
  6
CONTINUOUS
  66
1
  70
0
  40
0.0098
  41
0.0098
  0
VERTEX
  8
Element
  10
2.8445
  20
0.5371
  42
0
  0
VERTEX
  8
Element
  10
2.9945
  20
0.5371
  42
0
  0
SEQEND
  0
POLYLINE
  8
Element
  6
CONTINUOUS
  66
1
  70
0
  40
0.0049
  41
0.0049
  0
VERTEX
  8
Element
  10
2.842
  20
0.5371
  42
1
  0
VERTEX
  8
Element
  10
2.8469
  20
0.5371
  42
1
  0
VERTEX
  8
Element
  10
2.842
  20
0.5371
  42
1
  0
SEQEND
  0
POLYLINE
  8
Element
  6
CONTINUOUS
  66
1
  70
0
  40
0.0049
  41
0.0049
  0
VERTEX
  8
Element
  10
2.992
  20
0.5371
  42
1
  0
VERTEX
  8
Element
  10
2.9969
  20
0.5371
  42
1
  0
VERTEX
  8
Element
  10
2.992
  20
0.5371
  42
1
  0
SEQEND
  0
POLYLINE
  8
Element
  6
CONTINUOUS
  66
1
  70
0
  40
0.0098
  41
0.0098
  0
VERTEX
  8
Element
  10
2.9195
  20
0.5121
  42
0
  0
VERTEX
  8
Element
  10
2.9195
  20
0.4741
  42
0
  0
SEQEND
  0
POLYLINE
  8
Element
  6
CONTINUOUS
  66
1
  70
0
  40
0.0049
  41
0.0049
  0
VERTEX
  8
Element
  10
2.917
  20
0.5121
  42
1
  0
VERTEX
  8
Element
  10
2.9219
  20
0.5121
  42
1
  0
VERTEX
  8
Element
  10
2.917
  20
0.5121
  42
1
  0
SEQEND
  0
POLYLINE
  8
Element
  6
CONTINUOUS
  66
1
  70
0
  40
0.0049
  41
0.0049
  0
VERTEX
  8
Element
  10
2.917
  20
0.4741
  42
1
  0
VERTEX
  8
Element
  10
2.9219
  20
0.4741
  42
1
  0
VERTEX
  8
Element
  10
2.917
  20
0.4741
  42
1
  0
SEQEND
  0
POLYLINE
  8
Element
  6
CONTINUOUS
  66
1
  70
0
  40
0.0098
  41
0.0098
  0
VERTEX
  8
Element
  10
2.9195
  20
0.5741
  42
0
  0
VERTEX
  8
Element
  10
2.9195
  20
0.5371
  42
0
  0
SEQEND
  0
POLYLINE
  8
Element
  6
CONTINUOUS
  66
1
  70
0
  40
0.0049
  41
0.0049
  0
VERTEX
  8
Element
  10
2.917
  20
0.5741
  42
1
  0
VERTEX
  8
Element
  10
2.9219
  20
0.5741
  42
1
  0
VERTEX
  8
Element
  10
2.917
  20
0.5741
  42
1
  0
SEQEND
  0
POLYLINE
  8
Element
  6
CONTINUOUS
  66
1
  70
0
  40
0.0049
  41
0.0049
  0
VERTEX
  8
Element
  10
2.917
  20
0.5371
  42
1
  0
VERTEX
  8
Element
  10
2.9219
  20
0.5371
  42
1
  0
VERTEX
  8
Element
  10
2.917
  20
0.5371
  42
1
  0
SEQEND
  0
POLYLINE
  8
Element
  6
CONTINUOUS
  66
1
  70
0
  40
0.01
  41
0.01
  0
VERTEX
  8
Element
  10
2.925
  20
1.2931
  42
0
  0
VERTEX
  8
Element
  10
2.9203
  20
1.2865
  42
0
  0
VERTEX
  8
Element
  10
2.9161
  20
1.2796
  42
0
  0
VERTEX
  8
Element
  10
2.9124
  20
1.2725
  42
0
  0
VERTEX
  8
Element
  10
2.9091
  20
1.2651
  42
0
  0
VERTEX
  8
Element
  10
2.9063
  20
1.2576
  42
0
  0
VERTEX
  8
Element
  10
2.904
  20
1.2498
  42
0
  0
VERTEX
  8
Element
  10
2.9021
  20
1.242
  42
0
  0
VERTEX
  8
Element
  10
2.9008
  20
1.234
  42
0
  0
VERTEX
  8
Element
  10
2.9001
  20
1.226
  42
0
  0
VERTEX
  8
Element
  10
2.8998
  20
1.2179
  42
0
  0
VERTEX
  8
Element
  10
2.9001
  20
1.2098
  42
0
  0
VERTEX
  8
Element
  10
2.9009
  20
1.2018
  42
0
  0
VERTEX
  8
Element
  10
2.9021
  20
1.1938
  42
0
  0
VERTEX
  8
Element
  10
2.904
  20
1.186
  42
0
  0
VERTEX
  8
Element
  10
2.9063
  20
1.1782
  42
0
  0
VERTEX
  8
Element
  10
2.9091
  20
1.1707
  42
0
  0
VERTEX
  8
Element
  10
2.9124
  20
1.1633
  42
0
  0
VERTEX
  8
Element
  10
2.9161
  20
1.1562
  42
0
  0
VERTEX
  8
Element
  10
2.9203
  20
1.1493
  42
0
  0
VERTEX
  8
Element
  10
2.925
  20
1.1427
  42
0
  0
SEQEND
  0
POLYLINE
  8
Element
  6
CONTINUOUS
  66
1
  70
0
  40
0.005
  41
0.005
  0
VERTEX
  8
Element
  10
2.9225
  20
1.2931
  42
1
  0
VERTEX
  8
Element
  10
2.9275
  20
1.2931
  42
1
  0
VERTEX
  8
Element
  10
2.9225
  20
1.2931
  42
1
  0
SEQEND
  0
POLYLINE
  8
Element
  6
CONTINUOUS
  66
1
  70
0
  40
0.005
  41
0.005
  0
VERTEX
  8
Element
  10
2.9225
  20
1.1427
  42
1
  0
VERTEX
  8
Element
  10
2.9275
  20
1.1427
  42
1
  0
VERTEX
  8
Element
  10
2.9225
  20
1.1427
  42
1
  0
SEQEND
  0
POLYLINE
  8
Element
  6
CONTINUOUS
  66
1
  70
0
  40
0.0098
  41
0.0098
  0
VERTEX
  8
Element
  10
2.8748
  20
1.1429
  42
0
  0
VERTEX
  8
Element
  10
2.8748
  20
1.2929
  42
0
  0
SEQEND
  0
POLYLINE
  8
Element
  6
CONTINUOUS
  66
1
  70
0
  40
0.0049
  41
0.0049
  0
VERTEX
  8
Element
  10
2.8723
  20
1.1429
  42
1
  0
VERTEX
  8
Element
  10
2.8773
  20
1.1429
  42
1
  0
VERTEX
  8
Element
  10
2.8723
  20
1.1429
  42
1
  0
SEQEND
  0
POLYLINE
  8
Element
  6
CONTINUOUS
  66
1
  70
0
  40
0.0049
  41
0.0049
  0
VERTEX
  8
Element
  10
2.8723
  20
1.2929
  42
1
  0
VERTEX
  8
Element
  10
2.8773
  20
1.2929
  42
1
  0
VERTEX
  8
Element
  10
2.8723
  20
1.2929
  42
1
  0
SEQEND
  0
POLYLINE
  8
Element
  6
CONTINUOUS
  66
1
  70
0
  40
0.0098
  41
0.0098
  0
VERTEX
  8
Element
  10
2.8998
  20
1.2179
  42
0
  0
VERTEX
  8
Element
  10
2.9378
  20
1.2179
  42
0
  0
SEQEND
  0
POLYLINE
  8
Element
  6
CONTINUOUS
  66
1
  70
0
  40
0.0049
  41
0.0049
  0
VERTEX
  8
Element
  10
2.8973
  20
1.2179
  42
1
  0
VERTEX
  8
Element
  10
2.9023
  20
1.2179
  42
1
  0
VERTEX
  8
Element
  10
2.8973
  20
1.2179
  42
1
  0
SEQEND
  0
POLYLINE
  8
Element
  6
CONTINUOUS
  66
1
  70
0
  40
0.0049
  41
0.0049
  0
VERTEX
  8
Element
  10
2.9354
  20
1.2179
  42
1
  0
VERTEX
  8
Element
  10
2.9403
  20
1.2179
  42
1
  0
VERTEX
  8
Element
  10
2.9354
  20
1.2179
  42
1
  0
SEQEND
  0
POLYLINE
  8
Element
  6
CONTINUOUS
  66
1
  70
0
  40
0.0098
  41
0.0098
  0
VERTEX
  8
Element
  10
2.8378
  20
1.2179
  42
0
  0
VERTEX
  8
Element
  10
2.8748
  20
1.2179
  42
0
  0
SEQEND
  0
POLYLINE
  8
Element
  6
CONTINUOUS
  66
1
  70
0
  40
0.0049
  41
0.0049
  0
VERTEX
  8
Element
  10
2.8354
  20
1.2179
  42
1
  0
VERTEX
  8
Element
  10
2.8403
  20
1.2179
  42
1
  0
VERTEX
  8
Element
  10
2.8354
  20
1.2179
  42
1
  0
SEQEND
  0
POLYLINE
  8
Element
  6
CONTINUOUS
  66
1
  70
0
  40
0.0049
  41
0.0049
  0
VERTEX
  8
Element
  10
2.8723
  20
1.2179
  42
1
  0
VERTEX
  8
Element
  10
2.8773
  20
1.2179
  42
1
  0
VERTEX
  8
Element
  10
2.8723
  20
1.2179
  42
1
  0
SEQEND
  0
POLYLINE
  8
Element
  6
CONTINUOUS
  66
1
  70
0
  40
0.01
  41
0.01
  0
VERTEX
  8
Element
  10
4.1194
  20
1.2932
  42
0
  0
VERTEX
  8
Element
  10
4.1128
  20
1.2979
  42
0
  0
VERTEX
  8
Element
  10
4.1059
  20
1.3021
  42
0
  0
VERTEX
  8
Element
  10
4.0988
  20
1.3058
  42
0
  0
VERTEX
  8
Element
  10
4.0914
  20
1.3091
  42
0
  0
VERTEX
  8
Element
  10
4.0838
  20
1.3119
  42
0
  0
VERTEX
  8
Element
  10
4.0761
  20
1.3143
  42
0
  0
VERTEX
  8
Element
  10
4.0682
  20
1.3161
  42
0
  0
VERTEX
  8
Element
  10
4.0603
  20
1.3174
  42
0
  0
VERTEX
  8
Element
  10
4.0522
  20
1.3181
  42
0
  0
VERTEX
  8
Element
  10
4.0442
  20
1.3184
  42
0
  0
VERTEX
  8
Element
  10
4.0361
  20
1.3181
  42
0
  0
VERTEX
  8
Element
  10
4.0281
  20
1.3174
  42
0
  0
VERTEX
  8
Element
  10
4.0201
  20
1.3161
  42
0
  0
VERTEX
  8
Element
  10
4.0122
  20
1.3143
  42
0
  0
VERTEX
  8
Element
  10
4.0045
  20
1.3119
  42
0
  0
VERTEX
  8
Element
  10
3.9969
  20
1.3091
  42
0
  0
VERTEX
  8
Element
  10
3.9896
  20
1.3058
  42
0
  0
VERTEX
  8
Element
  10
3.9824
  20
1.3021
  42
0
  0
VERTEX
  8
Element
  10
3.9755
  20
1.2979
  42
0
  0
VERTEX
  8
Element
  10
3.9689
  20
1.2932
  42
0
  0
SEQEND
  0
POLYLINE
  8
Element
  6
CONTINUOUS
  66
1
  70
0
  40
0.005
  41
0.005
  0
VERTEX
  8
Element
  10
4.1169
  20
1.2932
  42
1
  0
VERTEX
  8
Element
  10
4.1219
  20
1.2932
  42
1
  0
VERTEX
  8
Element
  10
4.1169
  20
1.2932
  42
1
  0
SEQEND
  0
POLYLINE
  8
Element
  6
CONTINUOUS
  66
1
  70
0
  40
0.005
  41
0.005
  0
VERTEX
  8
Element
  10
3.9664
  20
1.2932
  42
1
  0
VERTEX
  8
Element
  10
3.9714
  20
1.2932
  42
1
  0
VERTEX
  8
Element
  10
3.9664
  20
1.2932
  42
1
  0
SEQEND
  0
POLYLINE
  8
Element
  6
CONTINUOUS
  66
1
  70
0
  40
0.0098
  41
0.0098
  0
VERTEX
  8
Element
  10
3.9692
  20
1.3434
  42
0
  0
VERTEX
  8
Element
  10
4.1192
  20
1.3434
  42
0
  0
SEQEND
  0
POLYLINE
  8
Element
  6
CONTINUOUS
  66
1
  70
0
  40
0.0049
  41
0.0049
  0
VERTEX
  8
Element
  10
3.9667
  20
1.3434
  42
1
  0
VERTEX
  8
Element
  10
3.9716
  20
1.3434
  42
1
  0
VERTEX
  8
Element
  10
3.9667
  20
1.3434
  42
1
  0
SEQEND
  0
POLYLINE
  8
Element
  6
CONTINUOUS
  66
1
  70
0
  40
0.0049
  41
0.0049
  0
VERTEX
  8
Element
  10
4.1167
  20
1.3434
  42
1
  0
VERTEX
  8
Element
  10
4.1216
  20
1.3434
  42
1
  0
VERTEX
  8
Element
  10
4.1167
  20
1.3434
  42
1
  0
SEQEND
  0
POLYLINE
  8
Element
  6
CONTINUOUS
  66
1
  70
0
  40
0.0098
  41
0.0098
  0
VERTEX
  8
Element
  10
4.0442
  20
1.3184
  42
0
  0
VERTEX
  8
Element
  10
4.0442
  20
1.2804
  42
0
  0
SEQEND
  0
POLYLINE
  8
Element
  6
CONTINUOUS
  66
1
  70
0
  40
0.0049
  41
0.0049
  0
VERTEX
  8
Element
  10
4.0417
  20
1.3184
  42
1
  0
VERTEX
  8
Element
  10
4.0466
  20
1.3184
  42
1
  0
VERTEX
  8
Element
  10
4.0417
  20
1.3184
  42
1
  0
SEQEND
  0
POLYLINE
  8
Element
  6
CONTINUOUS
  66
1
  70
0
  40
0.0049
  41
0.0049
  0
VERTEX
  8
Element
  10
4.0417
  20
1.2804
  42
1
  0
VERTEX
  8
Element
  10
4.0466
  20
1.2804
  42
1
  0
VERTEX
  8
Element
  10
4.0417
  20
1.2804
  42
1
  0
SEQEND
  0
POLYLINE
  8
Element
  6
CONTINUOUS
  66
1
  70
0
  40
0.0098
  41
0.0098
  0
VERTEX
  8
Element
  10
4.0442
  20
1.3804
  42
0
  0
VERTEX
  8
Element
  10
4.0442
  20
1.3434
  42
0
  0
SEQEND
  0
POLYLINE
  8
Element
  6
CONTINUOUS
  66
1
  70
0
  40
0.0049
  41
0.0049
  0
VERTEX
  8
Element
  10
4.0417
  20
1.3804
  42
1
  0
VERTEX
  8
Element
  10
4.0466
  20
1.3804
  42
1
  0
VERTEX
  8
Element
  10
4.0417
  20
1.3804
  42
1
  0
SEQEND
  0
POLYLINE
  8
Element
  6
CONTINUOUS
  66
1
  70
0
  40
0.0049
  41
0.0049
  0
VERTEX
  8
Element
  10
4.0417
  20
1.3434
  42
1
  0
VERTEX
  8
Element
  10
4.0466
  20
1.3434
  42
1
  0
VERTEX
  8
Element
  10
4.0417
  20
1.3434
  42
1
  0
SEQEND
  0
POLYLINE
  8
Element
  6
CONTINUOUS
  66
1
  70
0
  40
0.01
  41
0.01
  0
VERTEX
  8
Element
  10
4.5007
  20
1.281
  42
0
  0
VERTEX
  8
Element
  10
4.4941
  20
1.2856
  42
0
  0
VERTEX
  8
Element
  10
4.4872
  20
1.2898
  42
0
  0
VERTEX
  8
Element
  10
4.4801
  20
1.2936
  42
0
  0
VERTEX
  8
Element
  10
4.4727
  20
1.2969
  42
0
  0
VERTEX
  8
Element
  10
4.4651
  20
1.2997
  42
0
  0
VERTEX
  8
Element
  10
4.4574
  20
1.302
  42
0
  0
VERTEX
  8
Element
  10
4.4495
  20
1.3038
  42
0
  0
VERTEX
  8
Element
  10
4.4416
  20
1.3051
  42
0
  0
VERTEX
  8
Element
  10
4.4335
  20
1.3059
  42
0
  0
VERTEX
  8
Element
  10
4.4255
  20
1.3061
  42
0
  0
VERTEX
  8
Element
  10
4.4174
  20
1.3059
  42
0
  0
VERTEX
  8
Element
  10
4.4094
  20
1.3051
  42
0
  0
VERTEX
  8
Element
  10
4.4014
  20
1.3038
  42
0
  0
VERTEX
  8
Element
  10
4.3935
  20
1.302
  42
0
  0
VERTEX
  8
Element
  10
4.3858
  20
1.2997
  42
0
  0
VERTEX
  8
Element
  10
4.3782
  20
1.2969
  42
0
  0
VERTEX
  8
Element
  10
4.3709
  20
1.2936
  42
0
  0
VERTEX
  8
Element
  10
4.3637
  20
1.2898
  42
0
  0
VERTEX
  8
Element
  10
4.3568
  20
1.2856
  42
0
  0
VERTEX
  8
Element
  10
4.3502
  20
1.281
  42
0
  0
SEQEND
  0
POLYLINE
  8
Element
  6
CONTINUOUS
  66
1
  70
0
  40
0.005
  41
0.005
  0
VERTEX
  8
Element
  10
4.4982
  20
1.281
  42
1
  0
VERTEX
  8
Element
  10
4.5032
  20
1.281
  42
1
  0
VERTEX
  8
Element
  10
4.4982
  20
1.281
  42
1
  0
SEQEND
  0
POLYLINE
  8
Element
  6
CONTINUOUS
  66
1
  70
0
  40
0.005
  41
0.005
  0
VERTEX
  8
Element
  10
4.3477
  20
1.281
  42
1
  0
VERTEX
  8
Element
  10
4.3527
  20
1.281
  42
1
  0
VERTEX
  8
Element
  10
4.3477
  20
1.281
  42
1
  0
SEQEND
  0
POLYLINE
  8
Element
  6
CONTINUOUS
  66
1
  70
0
  40
0.0098
  41
0.0098
  0
VERTEX
  8
Element
  10
4.3505
  20
1.3311
  42
0
  0
VERTEX
  8
Element
  10
4.5005
  20
1.3311
  42
0
  0
SEQEND
  0
POLYLINE
  8
Element
  6
CONTINUOUS
  66
1
  70
0
  40
0.0049
  41
0.0049
  0
VERTEX
  8
Element
  10
4.348
  20
1.3311
  42
1
  0
VERTEX
  8
Element
  10
4.3529
  20
1.3311
  42
1
  0
VERTEX
  8
Element
  10
4.348
  20
1.3311
  42
1
  0
SEQEND
  0
POLYLINE
  8
Element
  6
CONTINUOUS
  66
1
  70
0
  40
0.0049
  41
0.0049
  0
VERTEX
  8
Element
  10
4.498
  20
1.3311
  42
1
  0
VERTEX
  8
Element
  10
4.5029
  20
1.3311
  42
1
  0
VERTEX
  8
Element
  10
4.498
  20
1.3311
  42
1
  0
SEQEND
  0
POLYLINE
  8
Element
  6
CONTINUOUS
  66
1
  70
0
  40
0.0098
  41
0.0098
  0
VERTEX
  8
Element
  10
4.4255
  20
1.3061
  42
0
  0
VERTEX
  8
Element
  10
4.4255
  20
1.2681
  42
0
  0
SEQEND
  0
POLYLINE
  8
Element
  6
CONTINUOUS
  66
1
  70
0
  40
0.0049
  41
0.0049
  0
VERTEX
  8
Element
  10
4.423
  20
1.3061
  42
1
  0
VERTEX
  8
Element
  10
4.4279
  20
1.3061
  42
1
  0
VERTEX
  8
Element
  10
4.423
  20
1.3061
  42
1
  0
SEQEND
  0
POLYLINE
  8
Element
  6
CONTINUOUS
  66
1
  70
0
  40
0.0049
  41
0.0049
  0
VERTEX
  8
Element
  10
4.423
  20
1.2681
  42
1
  0
VERTEX
  8
Element
  10
4.4279
  20
1.2681
  42
1
  0
VERTEX
  8
Element
  10
4.423
  20
1.2681
  42
1
  0
SEQEND
  0
POLYLINE
  8
Element
  6
CONTINUOUS
  66
1
  70
0
  40
0.0098
  41
0.0098
  0
VERTEX
  8
Element
  10
4.4255
  20
1.3681
  42
0
  0
VERTEX
  8
Element
  10
4.4255
  20
1.3311
  42
0
  0
SEQEND
  0
POLYLINE
  8
Element
  6
CONTINUOUS
  66
1
  70
0
  40
0.0049
  41
0.0049
  0
VERTEX
  8
Element
  10
4.423
  20
1.3681
  42
1
  0
VERTEX
  8
Element
  10
4.4279
  20
1.3681
  42
1
  0
VERTEX
  8
Element
  10
4.423
  20
1.3681
  42
1
  0
SEQEND
  0
POLYLINE
  8
Element
  6
CONTINUOUS
  66
1
  70
0
  40
0.0049
  41
0.0049
  0
VERTEX
  8
Element
  10
4.423
  20
1.3311
  42
1
  0
VERTEX
  8
Element
  10
4.4279
  20
1.3311
  42
1
  0
VERTEX
  8
Element
  10
4.423
  20
1.3311
  42
1
  0
SEQEND
  0
POLYLINE
  8
Element
  6
CONTINUOUS
  66
1
  70
0
  40
0.01
  41
0.01
  0
VERTEX
  8
Element
  10
4.9007
  20
1.281
  42
0
  0
VERTEX
  8
Element
  10
4.8941
  20
1.2856
  42
0
  0
VERTEX
  8
Element
  10
4.8872
  20
1.2898
  42
0
  0
VERTEX
  8
Element
  10
4.8801
  20
1.2936
  42
0
  0
VERTEX
  8
Element
  10
4.8727
  20
1.2969
  42
0
  0
VERTEX
  8
Element
  10
4.8651
  20
1.2997
  42
0
  0
VERTEX
  8
Element
  10
4.8574
  20
1.302
  42
0
  0
VERTEX
  8
Element
  10
4.8495
  20
1.3038
  42
0
  0
VERTEX
  8
Element
  10
4.8416
  20
1.3051
  42
0
  0
VERTEX
  8
Element
  10
4.8335
  20
1.3059
  42
0
  0
VERTEX
  8
Element
  10
4.8255
  20
1.3061
  42
0
  0
VERTEX
  8
Element
  10
4.8174
  20
1.3059
  42
0
  0
VERTEX
  8
Element
  10
4.8094
  20
1.3051
  42
0
  0
VERTEX
  8
Element
  10
4.8014
  20
1.3038
  42
0
  0
VERTEX
  8
Element
  10
4.7935
  20
1.302
  42
0
  0
VERTEX
  8
Element
  10
4.7858
  20
1.2997
  42
0
  0
VERTEX
  8
Element
  10
4.7782
  20
1.2969
  42
0
  0
VERTEX
  8
Element
  10
4.7709
  20
1.2936
  42
0
  0
VERTEX
  8
Element
  10
4.7637
  20
1.2898
  42
0
  0
VERTEX
  8
Element
  10
4.7568
  20
1.2856
  42
0
  0
VERTEX
  8
Element
  10
4.7502
  20
1.281
  42
0
  0
SEQEND
  0
POLYLINE
  8
Element
  6
CONTINUOUS
  66
1
  70
0
  40
0.005
  41
0.005
  0
VERTEX
  8
Element
  10
4.8982
  20
1.281
  42
1
  0
VERTEX
  8
Element
  10
4.9032
  20
1.281
  42
1
  0
VERTEX
  8
Element
  10
4.8982
  20
1.281
  42
1
  0
SEQEND
  0
POLYLINE
  8
Element
  6
CONTINUOUS
  66
1
  70
0
  40
0.005
  41
0.005
  0
VERTEX
  8
Element
  10
4.7477
  20
1.281
  42
1
  0
VERTEX
  8
Element
  10
4.7527
  20
1.281
  42
1
  0
VERTEX
  8
Element
  10
4.7477
  20
1.281
  42
1
  0
SEQEND
  0
POLYLINE
  8
Element
  6
CONTINUOUS
  66
1
  70
0
  40
0.0098
  41
0.0098
  0
VERTEX
  8
Element
  10
4.7505
  20
1.3311
  42
0
  0
VERTEX
  8
Element
  10
4.9005
  20
1.3311
  42
0
  0
SEQEND
  0
POLYLINE
  8
Element
  6
CONTINUOUS
  66
1
  70
0
  40
0.0049
  41
0.0049
  0
VERTEX
  8
Element
  10
4.748
  20
1.3311
  42
1
  0
VERTEX
  8
Element
  10
4.7529
  20
1.3311
  42
1
  0
VERTEX
  8
Element
  10
4.748
  20
1.3311
  42
1
  0
SEQEND
  0
POLYLINE
  8
Element
  6
CONTINUOUS
  66
1
  70
0
  40
0.0049
  41
0.0049
  0
VERTEX
  8
Element
  10
4.898
  20
1.3311
  42
1
  0
VERTEX
  8
Element
  10
4.9029
  20
1.3311
  42
1
  0
VERTEX
  8
Element
  10
4.898
  20
1.3311
  42
1
  0
SEQEND
  0
POLYLINE
  8
Element
  6
CONTINUOUS
  66
1
  70
0
  40
0.0098
  41
0.0098
  0
VERTEX
  8
Element
  10
4.8255
  20
1.3061
  42
0
  0
VERTEX
  8
Element
  10
4.8255
  20
1.2681
  42
0
  0
SEQEND
  0
POLYLINE
  8
Element
  6
CONTINUOUS
  66
1
  70
0
  40
0.0049
  41
0.0049
  0
VERTEX
  8
Element
  10
4.823
  20
1.3061
  42
1
  0
VERTEX
  8
Element
  10
4.8279
  20
1.3061
  42
1
  0
VERTEX
  8
Element
  10
4.823
  20
1.3061
  42
1
  0
SEQEND
  0
POLYLINE
  8
Element
  6
CONTINUOUS
  66
1
  70
0
  40
0.0049
  41
0.0049
  0
VERTEX
  8
Element
  10
4.823
  20
1.2681
  42
1
  0
VERTEX
  8
Element
  10
4.8279
  20
1.2681
  42
1
  0
VERTEX
  8
Element
  10
4.823
  20
1.2681
  42
1
  0
SEQEND
  0
POLYLINE
  8
Element
  6
CONTINUOUS
  66
1
  70
0
  40
0.0098
  41
0.0098
  0
VERTEX
  8
Element
  10
4.8255
  20
1.3681
  42
0
  0
VERTEX
  8
Element
  10
4.8255
  20
1.3311
  42
0
  0
SEQEND
  0
POLYLINE
  8
Element
  6
CONTINUOUS
  66
1
  70
0
  40
0.0049
  41
0.0049
  0
VERTEX
  8
Element
  10
4.823
  20
1.3681
  42
1
  0
VERTEX
  8
Element
  10
4.8279
  20
1.3681
  42
1
  0
VERTEX
  8
Element
  10
4.823
  20
1.3681
  42
1
  0
SEQEND
  0
POLYLINE
  8
Element
  6
CONTINUOUS
  66
1
  70
0
  40
0.0049
  41
0.0049
  0
VERTEX
  8
Element
  10
4.823
  20
1.3311
  42
1
  0
VERTEX
  8
Element
  10
4.8279
  20
1.3311
  42
1
  0
VERTEX
  8
Element
  10
4.823
  20
1.3311
  42
1
  0
SEQEND
  0
POLYLINE
  8
Element
  6
CONTINUOUS
  66
1
  70
0
  40
0.0098
  41
0.0098
  0
VERTEX
  8
Element
  10
3.4003
  20
1.5179
  42
0
  0
VERTEX
  8
Element
  10
3.3997
  20
1.5258
  42
0
  0
VERTEX
  8
Element
  10
3.3979
  20
1.5334
  42
0
  0
VERTEX
  8
Element
  10
3.3949
  20
1.5406
  42
0
  0
VERTEX
  8
Element
  10
3.3908
  20
1.5473
  42
0
  0
VERTEX
  8
Element
  10
3.3857
  20
1.5533
  42
0
  0
VERTEX
  8
Element
  10
3.3797
  20
1.5584
  42
0
  0
VERTEX
  8
Element
  10
3.373
  20
1.5625
  42
0
  0
VERTEX
  8
Element
  10
3.3658
  20
1.5655
  42
0
  0
VERTEX
  8
Element
  10
3.3582
  20
1.5673
  42
0
  0
VERTEX
  8
Element
  10
3.3503
  20
1.5679
  42
0
  0
VERTEX
  8
Element
  10
3.3425
  20
1.5673
  42
0
  0
VERTEX
  8
Element
  10
3.3349
  20
1.5655
  42
0
  0
VERTEX
  8
Element
  10
3.3276
  20
1.5625
  42
0
  0
VERTEX
  8
Element
  10
3.3209
  20
1.5584
  42
0
  0
VERTEX
  8
Element
  10
3.315
  20
1.5533
  42
0
  0
VERTEX
  8
Element
  10
3.3099
  20
1.5473
  42
0
  0
VERTEX
  8
Element
  10
3.3058
  20
1.5406
  42
0
  0
VERTEX
  8
Element
  10
3.3028
  20
1.5334
  42
0
  0
VERTEX
  8
Element
  10
3.3009
  20
1.5258
  42
0
  0
VERTEX
  8
Element
  10
3.3003
  20
1.5179
  42
0
  0
SEQEND
  0
POLYLINE
  8
Element
  6
CONTINUOUS
  66
1
  70
0
  40
0.0049
  41
0.0049
  0
VERTEX
  8
Element
  10
3.3979
  20
1.5179
  42
1
  0
VERTEX
  8
Element
  10
3.4028
  20
1.5179
  42
1
  0
VERTEX
  8
Element
  10
3.3979
  20
1.5179
  42
1
  0
SEQEND
  0
POLYLINE
  8
Element
  6
CONTINUOUS
  66
1
  70
0
  40
0.0049
  41
0.0049
  0
VERTEX
  8
Element
  10
3.2979
  20
1.5179
  42
1
  0
VERTEX
  8
Element
  10
3.3028
  20
1.5179
  42
1
  0
VERTEX
  8
Element
  10
3.2979
  20
1.5179
  42
1
  0
SEQEND
  0
POLYLINE
  8
Element
  6
CONTINUOUS
  66
1
  70
0
  40
0.0098
  41
0.0098
  0
VERTEX
  8
Element
  10
3.5003
  20
1.5179
  42
0
  0
VERTEX
  8
Element
  10
3.4997
  20
1.5258
  42
0
  0
VERTEX
  8
Element
  10
3.4979
  20
1.5334
  42
0
  0
VERTEX
  8
Element
  10
3.4949
  20
1.5406
  42
0
  0
VERTEX
  8
Element
  10
3.4908
  20
1.5473
  42
0
  0
VERTEX
  8
Element
  10
3.4857
  20
1.5533
  42
0
  0
VERTEX
  8
Element
  10
3.4797
  20
1.5584
  42
0
  0
VERTEX
  8
Element
  10
3.473
  20
1.5625
  42
0
  0
VERTEX
  8
Element
  10
3.4658
  20
1.5655
  42
0
  0
VERTEX
  8
Element
  10
3.4582
  20
1.5673
  42
0
  0
VERTEX
  8
Element
  10
3.4503
  20
1.5679
  42
0
  0
VERTEX
  8
Element
  10
3.4425
  20
1.5673
  42
0
  0
VERTEX
  8
Element
  10
3.4349
  20
1.5655
  42
0
  0
VERTEX
  8
Element
  10
3.4276
  20
1.5625
  42
0
  0
VERTEX
  8
Element
  10
3.4209
  20
1.5584
  42
0
  0
VERTEX
  8
Element
  10
3.415
  20
1.5533
  42
0
  0
VERTEX
  8
Element
  10
3.4099
  20
1.5473
  42
0
  0
VERTEX
  8
Element
  10
3.4058
  20
1.5406
  42
0
  0
VERTEX
  8
Element
  10
3.4028
  20
1.5334
  42
0
  0
VERTEX
  8
Element
  10
3.4009
  20
1.5258
  42
0
  0
VERTEX
  8
Element
  10
3.4003
  20
1.5179
  42
0
  0
SEQEND
  0
POLYLINE
  8
Element
  6
CONTINUOUS
  66
1
  70
0
  40
0.0049
  41
0.0049
  0
VERTEX
  8
Element
  10
3.4979
  20
1.5179
  42
1
  0
VERTEX
  8
Element
  10
3.5028
  20
1.5179
  42
1
  0
VERTEX
  8
Element
  10
3.4979
  20
1.5179
  42
1
  0
SEQEND
  0
POLYLINE
  8
Element
  6
CONTINUOUS
  66
1
  70
0
  40
0.0049
  41
0.0049
  0
VERTEX
  8
Element
  10
3.3979
  20
1.5179
  42
1
  0
VERTEX
  8
Element
  10
3.4028
  20
1.5179
  42
1
  0
VERTEX
  8
Element
  10
3.3979
  20
1.5179
  42
1
  0
SEQEND
  0
POLYLINE
  8
Element
  6
CONTINUOUS
  66
1
  70
0
  40
0.0098
  41
0.0098
  0
VERTEX
  8
Element
  10
3.6003
  20
1.5179
  42
0
  0
VERTEX
  8
Element
  10
3.5997
  20
1.5258
  42
0
  0
VERTEX
  8
Element
  10
3.5979
  20
1.5334
  42
0
  0
VERTEX
  8
Element
  10
3.5949
  20
1.5406
  42
0
  0
VERTEX
  8
Element
  10
3.5908
  20
1.5473
  42
0
  0
VERTEX
  8
Element
  10
3.5857
  20
1.5533
  42
0
  0
VERTEX
  8
Element
  10
3.5797
  20
1.5584
  42
0
  0
VERTEX
  8
Element
  10
3.573
  20
1.5625
  42
0
  0
VERTEX
  8
Element
  10
3.5658
  20
1.5655
  42
0
  0
VERTEX
  8
Element
  10
3.5582
  20
1.5673
  42
0
  0
VERTEX
  8
Element
  10
3.5503
  20
1.5679
  42
0
  0
VERTEX
  8
Element
  10
3.5425
  20
1.5673
  42
0
  0
VERTEX
  8
Element
  10
3.5349
  20
1.5655
  42
0
  0
VERTEX
  8
Element
  10
3.5276
  20
1.5625
  42
0
  0
VERTEX
  8
Element
  10
3.5209
  20
1.5584
  42
0
  0
VERTEX
  8
Element
  10
3.515
  20
1.5533
  42
0
  0
VERTEX
  8
Element
  10
3.5099
  20
1.5473
  42
0
  0
VERTEX
  8
Element
  10
3.5058
  20
1.5406
  42
0
  0
VERTEX
  8
Element
  10
3.5028
  20
1.5334
  42
0
  0
VERTEX
  8
Element
  10
3.5009
  20
1.5258
  42
0
  0
VERTEX
  8
Element
  10
3.5003
  20
1.5179
  42
0
  0
SEQEND
  0
POLYLINE
  8
Element
  6
CONTINUOUS
  66
1
  70
0
  40
0.0049
  41
0.0049
  0
VERTEX
  8
Element
  10
3.5979
  20
1.5179
  42
1
  0
VERTEX
  8
Element
  10
3.6028
  20
1.5179
  42
1
  0
VERTEX
  8
Element
  10
3.5979
  20
1.5179
  42
1
  0
SEQEND
  0
POLYLINE
  8
Element
  6
CONTINUOUS
  66
1
  70
0
  40
0.0049
  41
0.0049
  0
VERTEX
  8
Element
  10
3.4979
  20
1.5179
  42
1
  0
VERTEX
  8
Element
  10
3.5028
  20
1.5179
  42
1
  0
VERTEX
  8
Element
  10
3.4979
  20
1.5179
  42
1
  0
SEQEND
  0
POLYLINE
  8
Element
  6
CONTINUOUS
  66
1
  70
0
  40
0.0098
  41
0.0098
  0
VERTEX
  8
Element
  10
0.025
  20
0.8491
  42
0
  0
VERTEX
  8
Element
  10
0.175
  20
0.8491
  42
0
  0
SEQEND
  0
POLYLINE
  8
Element
  6
CONTINUOUS
  66
1
  70
0
  40
0.0049
  41
0.0049
  0
VERTEX
  8
Element
  10
0.0225
  20
0.8491
  42
1
  0
VERTEX
  8
Element
  10
0.0275
  20
0.8491
  42
1
  0
VERTEX
  8
Element
  10
0.0225
  20
0.8491
  42
1
  0
SEQEND
  0
POLYLINE
  8
Element
  6
CONTINUOUS
  66
1
  70
0
  40
0.0049
  41
0.0049
  0
VERTEX
  8
Element
  10
0.1725
  20
0.8491
  42
1
  0
VERTEX
  8
Element
  10
0.1775
  20
0.8491
  42
1
  0
VERTEX
  8
Element
  10
0.1725
  20
0.8491
  42
1
  0
SEQEND
  0
POLYLINE
  8
Element
  6
CONTINUOUS
  66
1
  70
0
  40
0.0098
  41
0.0098
  0
VERTEX
  8
Element
  10
0.05
  20
0.8091
  42
0
  0
VERTEX
  8
Element
  10
0.15
  20
0.8091
  42
0
  0
SEQEND
  0
POLYLINE
  8
Element
  6
CONTINUOUS
  66
1
  70
0
  40
0.0049
  41
0.0049
  0
VERTEX
  8
Element
  10
0.0475
  20
0.8091
  42
1
  0
VERTEX
  8
Element
  10
0.0525
  20
0.8091
  42
1
  0
VERTEX
  8
Element
  10
0.0475
  20
0.8091
  42
1
  0
SEQEND
  0
POLYLINE
  8
Element
  6
CONTINUOUS
  66
1
  70
0
  40
0.0049
  41
0.0049
  0
VERTEX
  8
Element
  10
0.1475
  20
0.8091
  42
1
  0
VERTEX
  8
Element
  10
0.1525
  20
0.8091
  42
1
  0
VERTEX
  8
Element
  10
0.1475
  20
0.8091
  42
1
  0
SEQEND
  0
POLYLINE
  8
Element
  6
CONTINUOUS
  66
1
  70
0
  40
0.0098
  41
0.0098
  0
VERTEX
  8
Element
  10
0.08
  20
0.7691
  42
0
  0
VERTEX
  8
Element
  10
0.12
  20
0.7691
  42
0
  0
SEQEND
  0
POLYLINE
  8
Element
  6
CONTINUOUS
  66
1
  70
0
  40
0.0049
  41
0.0049
  0
VERTEX
  8
Element
  10
0.0775
  20
0.7691
  42
1
  0
VERTEX
  8
Element
  10
0.0825
  20
0.7691
  42
1
  0
VERTEX
  8
Element
  10
0.0775
  20
0.7691
  42
1
  0
SEQEND
  0
POLYLINE
  8
Element
  6
CONTINUOUS
  66
1
  70
0
  40
0.0049
  41
0.0049
  0
VERTEX
  8
Element
  10
0.1175
  20
0.7691
  42
1
  0
VERTEX
  8
Element
  10
0.1225
  20
0.7691
  42
1
  0
VERTEX
  8
Element
  10
0.1175
  20
0.7691
  42
1
  0
SEQEND
  0
POLYLINE
  8
Element
  6
CONTINUOUS
  66
1
  70
0
  40
0.0098
  41
0.0098
  0
VERTEX
  8
Element
  10
0.9376
  20
0.5053
  42
0
  0
VERTEX
  8
Element
  10
1.0876
  20
0.5053
  42
0
  0
SEQEND
  0
POLYLINE
  8
Element
  6
CONTINUOUS
  66
1
  70
0
  40
0.0049
  41
0.0049
  0
VERTEX
  8
Element
  10
0.9351
  20
0.5053
  42
1
  0
VERTEX
  8
Element
  10
0.9401
  20
0.5053
  42
1
  0
VERTEX
  8
Element
  10
0.9351
  20
0.5053
  42
1
  0
SEQEND
  0
POLYLINE
  8
Element
  6
CONTINUOUS
  66
1
  70
0
  40
0.0049
  41
0.0049
  0
VERTEX
  8
Element
  10
1.0851
  20
0.5053
  42
1
  0
VERTEX
  8
Element
  10
1.0901
  20
0.5053
  42
1
  0
VERTEX
  8
Element
  10
1.0851
  20
0.5053
  42
1
  0
SEQEND
  0
POLYLINE
  8
Element
  6
CONTINUOUS
  66
1
  70
0
  40
0.0098
  41
0.0098
  0
VERTEX
  8
Element
  10
0.9626
  20
0.4653
  42
0
  0
VERTEX
  8
Element
  10
1.0626
  20
0.4653
  42
0
  0
SEQEND
  0
POLYLINE
  8
Element
  6
CONTINUOUS
  66
1
  70
0
  40
0.0049
  41
0.0049
  0
VERTEX
  8
Element
  10
0.9601
  20
0.4653
  42
1
  0
VERTEX
  8
Element
  10
0.9651
  20
0.4653
  42
1
  0
VERTEX
  8
Element
  10
0.9601
  20
0.4653
  42
1
  0
SEQEND
  0
POLYLINE
  8
Element
  6
CONTINUOUS
  66
1
  70
0
  40
0.0049
  41
0.0049
  0
VERTEX
  8
Element
  10
1.0601
  20
0.4653
  42
1
  0
VERTEX
  8
Element
  10
1.0651
  20
0.4653
  42
1
  0
VERTEX
  8
Element
  10
1.0601
  20
0.4653
  42
1
  0
SEQEND
  0
POLYLINE
  8
Element
  6
CONTINUOUS
  66
1
  70
0
  40
0.0098
  41
0.0098
  0
VERTEX
  8
Element
  10
0.9926
  20
0.4253
  42
0
  0
VERTEX
  8
Element
  10
1.0326
  20
0.4253
  42
0
  0
SEQEND
  0
POLYLINE
  8
Element
  6
CONTINUOUS
  66
1
  70
0
  40
0.0049
  41
0.0049
  0
VERTEX
  8
Element
  10
0.9901
  20
0.4253
  42
1
  0
VERTEX
  8
Element
  10
0.9951
  20
0.4253
  42
1
  0
VERTEX
  8
Element
  10
0.9901
  20
0.4253
  42
1
  0
SEQEND
  0
POLYLINE
  8
Element
  6
CONTINUOUS
  66
1
  70
0
  40
0.0049
  41
0.0049
  0
VERTEX
  8
Element
  10
1.0301
  20
0.4253
  42
1
  0
VERTEX
  8
Element
  10
1.0351
  20
0.4253
  42
1
  0
VERTEX
  8
Element
  10
1.0301
  20
0.4253
  42
1
  0
SEQEND
  0
POLYLINE
  8
Element
  6
CONTINUOUS
  66
1
  70
0
  40
0.0098
  41
0.0098
  0
VERTEX
  8
Element
  10
1.4314
  20
0.1866
  42
0
  0
VERTEX
  8
Element
  10
1.5814
  20
0.1866
  42
0
  0
SEQEND
  0
POLYLINE
  8
Element
  6
CONTINUOUS
  66
1
  70
0
  40
0.0049
  41
0.0049
  0
VERTEX
  8
Element
  10
1.4289
  20
0.1866
  42
1
  0
VERTEX
  8
Element
  10
1.4339
  20
0.1866
  42
1
  0
VERTEX
  8
Element
  10
1.4289
  20
0.1866
  42
1
  0
SEQEND
  0
POLYLINE
  8
Element
  6
CONTINUOUS
  66
1
  70
0
  40
0.0049
  41
0.0049
  0
VERTEX
  8
Element
  10
1.5789
  20
0.1866
  42
1
  0
VERTEX
  8
Element
  10
1.5839
  20
0.1866
  42
1
  0
VERTEX
  8
Element
  10
1.5789
  20
0.1866
  42
1
  0
SEQEND
  0
POLYLINE
  8
Element
  6
CONTINUOUS
  66
1
  70
0
  40
0.0098
  41
0.0098
  0
VERTEX
  8
Element
  10
1.4564
  20
0.1466
  42
0
  0
VERTEX
  8
Element
  10
1.5564
  20
0.1466
  42
0
  0
SEQEND
  0
POLYLINE
  8
Element
  6
CONTINUOUS
  66
1
  70
0
  40
0.0049
  41
0.0049
  0
VERTEX
  8
Element
  10
1.4539
  20
0.1466
  42
1
  0
VERTEX
  8
Element
  10
1.4589
  20
0.1466
  42
1
  0
VERTEX
  8
Element
  10
1.4539
  20
0.1466
  42
1
  0
SEQEND
  0
POLYLINE
  8
Element
  6
CONTINUOUS
  66
1
  70
0
  40
0.0049
  41
0.0049
  0
VERTEX
  8
Element
  10
1.5539
  20
0.1466
  42
1
  0
VERTEX
  8
Element
  10
1.5589
  20
0.1466
  42
1
  0
VERTEX
  8
Element
  10
1.5539
  20
0.1466
  42
1
  0
SEQEND
  0
POLYLINE
  8
Element
  6
CONTINUOUS
  66
1
  70
0
  40
0.0098
  41
0.0098
  0
VERTEX
  8
Element
  10
1.4864
  20
0.1066
  42
0
  0
VERTEX
  8
Element
  10
1.5264
  20
0.1066
  42
0
  0
SEQEND
  0
POLYLINE
  8
Element
  6
CONTINUOUS
  66
1
  70
0
  40
0.0049
  41
0.0049
  0
VERTEX
  8
Element
  10
1.4839
  20
0.1066
  42
1
  0
VERTEX
  8
Element
  10
1.4889
  20
0.1066
  42
1
  0
VERTEX
  8
Element
  10
1.4839
  20
0.1066
  42
1
  0
SEQEND
  0
POLYLINE
  8
Element
  6
CONTINUOUS
  66
1
  70
0
  40
0.0049
  41
0.0049
  0
VERTEX
  8
Element
  10
1.5239
  20
0.1066
  42
1
  0
VERTEX
  8
Element
  10
1.5289
  20
0.1066
  42
1
  0
VERTEX
  8
Element
  10
1.5239
  20
0.1066
  42
1
  0
SEQEND
  0
POLYLINE
  8
Element
  6
CONTINUOUS
  66
1
  70
0
  40
0.0098
  41
0.0098
  0
VERTEX
  8
Element
  10
2.844
  20
0.0991
  42
0
  0
VERTEX
  8
Element
  10
2.994
  20
0.0991
  42
0
  0
SEQEND
  0
POLYLINE
  8
Element
  6
CONTINUOUS
  66
1
  70
0
  40
0.0049
  41
0.0049
  0
VERTEX
  8
Element
  10
2.8416
  20
0.0991
  42
1
  0
VERTEX
  8
Element
  10
2.8465
  20
0.0991
  42
1
  0
VERTEX
  8
Element
  10
2.8416
  20
0.0991
  42
1
  0
SEQEND
  0
POLYLINE
  8
Element
  6
CONTINUOUS
  66
1
  70
0
  40
0.0049
  41
0.0049
  0
VERTEX
  8
Element
  10
2.9916
  20
0.0991
  42
1
  0
VERTEX
  8
Element
  10
2.9965
  20
0.0991
  42
1
  0
VERTEX
  8
Element
  10
2.9916
  20
0.0991
  42
1
  0
SEQEND
  0
POLYLINE
  8
Element
  6
CONTINUOUS
  66
1
  70
0
  40
0.0098
  41
0.0098
  0
VERTEX
  8
Element
  10
2.869
  20
0.0591
  42
0
  0
VERTEX
  8
Element
  10
2.969
  20
0.0591
  42
0
  0
SEQEND
  0
POLYLINE
  8
Element
  6
CONTINUOUS
  66
1
  70
0
  40
0.0049
  41
0.0049
  0
VERTEX
  8
Element
  10
2.8666
  20
0.0591
  42
1
  0
VERTEX
  8
Element
  10
2.8715
  20
0.0591
  42
1
  0
VERTEX
  8
Element
  10
2.8666
  20
0.0591
  42
1
  0
SEQEND
  0
POLYLINE
  8
Element
  6
CONTINUOUS
  66
1
  70
0
  40
0.0049
  41
0.0049
  0
VERTEX
  8
Element
  10
2.9666
  20
0.0591
  42
1
  0
VERTEX
  8
Element
  10
2.9715
  20
0.0591
  42
1
  0
VERTEX
  8
Element
  10
2.9666
  20
0.0591
  42
1
  0
SEQEND
  0
POLYLINE
  8
Element
  6
CONTINUOUS
  66
1
  70
0
  40
0.0098
  41
0.0098
  0
VERTEX
  8
Element
  10
2.899
  20
0.0191
  42
0
  0
VERTEX
  8
Element
  10
2.939
  20
0.0191
  42
0
  0
SEQEND
  0
POLYLINE
  8
Element
  6
CONTINUOUS
  66
1
  70
0
  40
0.0049
  41
0.0049
  0
VERTEX
  8
Element
  10
2.8966
  20
0.0191
  42
1
  0
VERTEX
  8
Element
  10
2.9015
  20
0.0191
  42
1
  0
VERTEX
  8
Element
  10
2.8966
  20
0.0191
  42
1
  0
SEQEND
  0
POLYLINE
  8
Element
  6
CONTINUOUS
  66
1
  70
0
  40
0.0049
  41
0.0049
  0
VERTEX
  8
Element
  10
2.9366
  20
0.0191
  42
1
  0
VERTEX
  8
Element
  10
2.9415
  20
0.0191
  42
1
  0
VERTEX
  8
Element
  10
2.9366
  20
0.0191
  42
1
  0
SEQEND
  0
POLYLINE
  8
Element
  6
CONTINUOUS
  66
1
  70
0
  40
0.0098
  41
0.0098
  0
VERTEX
  8
Element
  10
4.3505
  20
0.5804
  42
0
  0
VERTEX
  8
Element
  10
4.5005
  20
0.5804
  42
0
  0
SEQEND
  0
POLYLINE
  8
Element
  6
CONTINUOUS
  66
1
  70
0
  40
0.0049
  41
0.0049
  0
VERTEX
  8
Element
  10
4.348
  20
0.5804
  42
1
  0
VERTEX
  8
Element
  10
4.3529
  20
0.5804
  42
1
  0
VERTEX
  8
Element
  10
4.348
  20
0.5804
  42
1
  0
SEQEND
  0
POLYLINE
  8
Element
  6
CONTINUOUS
  66
1
  70
0
  40
0.0049
  41
0.0049
  0
VERTEX
  8
Element
  10
4.498
  20
0.5804
  42
1
  0
VERTEX
  8
Element
  10
4.5029
  20
0.5804
  42
1
  0
VERTEX
  8
Element
  10
4.498
  20
0.5804
  42
1
  0
SEQEND
  0
POLYLINE
  8
Element
  6
CONTINUOUS
  66
1
  70
0
  40
0.0098
  41
0.0098
  0
VERTEX
  8
Element
  10
4.3755
  20
0.5404
  42
0
  0
VERTEX
  8
Element
  10
4.4755
  20
0.5404
  42
0
  0
SEQEND
  0
POLYLINE
  8
Element
  6
CONTINUOUS
  66
1
  70
0
  40
0.0049
  41
0.0049
  0
VERTEX
  8
Element
  10
4.373
  20
0.5404
  42
1
  0
VERTEX
  8
Element
  10
4.3779
  20
0.5404
  42
1
  0
VERTEX
  8
Element
  10
4.373
  20
0.5404
  42
1
  0
SEQEND
  0
POLYLINE
  8
Element
  6
CONTINUOUS
  66
1
  70
0
  40
0.0049
  41
0.0049
  0
VERTEX
  8
Element
  10
4.473
  20
0.5404
  42
1
  0
VERTEX
  8
Element
  10
4.4779
  20
0.5404
  42
1
  0
VERTEX
  8
Element
  10
4.473
  20
0.5404
  42
1
  0
SEQEND
  0
POLYLINE
  8
Element
  6
CONTINUOUS
  66
1
  70
0
  40
0.0098
  41
0.0098
  0
VERTEX
  8
Element
  10
4.4055
  20
0.5004
  42
0
  0
VERTEX
  8
Element
  10
4.4455
  20
0.5004
  42
0
  0
SEQEND
  0
POLYLINE
  8
Element
  6
CONTINUOUS
  66
1
  70
0
  40
0.0049
  41
0.0049
  0
VERTEX
  8
Element
  10
4.403
  20
0.5004
  42
1
  0
VERTEX
  8
Element
  10
4.4079
  20
0.5004
  42
1
  0
VERTEX
  8
Element
  10
4.403
  20
0.5004
  42
1
  0
SEQEND
  0
POLYLINE
  8
Element
  6
CONTINUOUS
  66
1
  70
0
  40
0.0049
  41
0.0049
  0
VERTEX
  8
Element
  10
4.443
  20
0.5004
  42
1
  0
VERTEX
  8
Element
  10
4.4479
  20
0.5004
  42
1
  0
VERTEX
  8
Element
  10
4.443
  20
0.5004
  42
1
  0
SEQEND
  0
POLYLINE
  8
Element
  6
CONTINUOUS
  66
1
  70
0
  40
0.0098
  41
0.0098
  0
VERTEX
  8
Element
  10
5.1318
  20
1.6179
  42
0
  0
VERTEX
  8
Element
  10
5.1318
  20
1.4179
  42
0
  0
SEQEND
  0
POLYLINE
  8
Element
  6
CONTINUOUS
  66
1
  70
0
  40
0.0049
  41
0.0049
  0
VERTEX
  8
Element
  10
5.1293
  20
1.6179
  42
1
  0
VERTEX
  8
Element
  10
5.1342
  20
1.6179
  42
1
  0
VERTEX
  8
Element
  10
5.1293
  20
1.6179
  42
1
  0
SEQEND
  0
POLYLINE
  8
Element
  6
CONTINUOUS
  66
1
  70
0
  40
0.0049
  41
0.0049
  0
VERTEX
  8
Element
  10
5.1293
  20
1.4179
  42
1
  0
VERTEX
  8
Element
  10
5.1342
  20
1.4179
  42
1
  0
VERTEX
  8
Element
  10
5.1293
  20
1.4179
  42
1
  0
SEQEND
  0
POLYLINE
  8
Element
  6
CONTINUOUS
  66
1
  70
0
  40
0.0098
  41
0.0098
  0
VERTEX
  8
Element
  10
0.0
  20
2.1367
  42
0
  0
VERTEX
  8
Element
  10
0.2
  20
2.1367
  42
0
  0
SEQEND
  0
POLYLINE
  8
Element
  6
CONTINUOUS
  66
1
  70
0
  40
0.0049
  41
0.0049
  0
VERTEX
  8
Element
  10
-0.0025
  20
2.1367
  42
1
  0
VERTEX
  8
Element
  10
0.0025
  20
2.1367
  42
1
  0
VERTEX
  8
Element
  10
-0.0025
  20
2.1367
  42
1
  0
SEQEND
  0
POLYLINE
  8
Element
  6
CONTINUOUS
  66
1
  70
0
  40
0.0049
  41
0.0049
  0
VERTEX
  8
Element
  10
0.1975
  20
2.1367
  42
1
  0
VERTEX
  8
Element
  10
0.2025
  20
2.1367
  42
1
  0
VERTEX
  8
Element
  10
0.1975
  20
2.1367
  42
1
  0
SEQEND
  0
POLYLINE
  8
Element
  6
CONTINUOUS
  66
1
  70
0
  40
0.0098
  41
0.0098
  0
VERTEX
  8
Element
  10
3.4445
  20
0.7681
  42
0
  0
VERTEX
  8
Element
  10
3.4695
  20
0.8181
  42
0
  0
SEQEND
  0
POLYLINE
  8
Element
  6
CONTINUOUS
  66
1
  70
0
  40
0.0049
  41
0.0049
  0
VERTEX
  8
Element
  10
3.442
  20
0.7681
  42
1
  0
VERTEX
  8
Element
  10
3.4469
  20
0.7681
  42
1
  0
VERTEX
  8
Element
  10
3.442
  20
0.7681
  42
1
  0
SEQEND
  0
POLYLINE
  8
Element
  6
CONTINUOUS
  66
1
  70
0
  40
0.0049
  41
0.0049
  0
VERTEX
  8
Element
  10
3.467
  20
0.8181
  42
1
  0
VERTEX
  8
Element
  10
3.4719
  20
0.8181
  42
1
  0
VERTEX
  8
Element
  10
3.467
  20
0.8181
  42
1
  0
SEQEND
  0
POLYLINE
  8
Element
  6
CONTINUOUS
  66
1
  70
0
  40
0.0098
  41
0.0098
  0
VERTEX
  8
Element
  10
3.3945
  20
0.8681
  42
0
  0
VERTEX
  8
Element
  10
3.4445
  20
0.7681
  42
0
  0
SEQEND
  0
POLYLINE
  8
Element
  6
CONTINUOUS
  66
1
  70
0
  40
0.0049
  41
0.0049
  0
VERTEX
  8
Element
  10
3.392
  20
0.8681
  42
1
  0
VERTEX
  8
Element
  10
3.3969
  20
0.8681
  42
1
  0
VERTEX
  8
Element
  10
3.392
  20
0.8681
  42
1
  0
SEQEND
  0
POLYLINE
  8
Element
  6
CONTINUOUS
  66
1
  70
0
  40
0.0049
  41
0.0049
  0
VERTEX
  8
Element
  10
3.442
  20
0.7681
  42
1
  0
VERTEX
  8
Element
  10
3.4469
  20
0.7681
  42
1
  0
VERTEX
  8
Element
  10
3.442
  20
0.7681
  42
1
  0
SEQEND
  0
POLYLINE
  8
Element
  6
CONTINUOUS
  66
1
  70
0
  40
0.0098
  41
0.0098
  0
VERTEX
  8
Element
  10
3.3445
  20
0.7681
  42
0
  0
VERTEX
  8
Element
  10
3.3945
  20
0.8681
  42
0
  0
SEQEND
  0
POLYLINE
  8
Element
  6
CONTINUOUS
  66
1
  70
0
  40
0.0049
  41
0.0049
  0
VERTEX
  8
Element
  10
3.342
  20
0.7681
  42
1
  0
VERTEX
  8
Element
  10
3.3469
  20
0.7681
  42
1
  0
VERTEX
  8
Element
  10
3.342
  20
0.7681
  42
1
  0
SEQEND
  0
POLYLINE
  8
Element
  6
CONTINUOUS
  66
1
  70
0
  40
0.0049
  41
0.0049
  0
VERTEX
  8
Element
  10
3.392
  20
0.8681
  42
1
  0
VERTEX
  8
Element
  10
3.3969
  20
0.8681
  42
1
  0
VERTEX
  8
Element
  10
3.392
  20
0.8681
  42
1
  0
SEQEND
  0
POLYLINE
  8
Element
  6
CONTINUOUS
  66
1
  70
0
  40
0.0098
  41
0.0098
  0
VERTEX
  8
Element
  10
3.2945
  20
0.8681
  42
0
  0
VERTEX
  8
Element
  10
3.3445
  20
0.7681
  42
0
  0
SEQEND
  0
POLYLINE
  8
Element
  6
CONTINUOUS
  66
1
  70
0
  40
0.0049
  41
0.0049
  0
VERTEX
  8
Element
  10
3.292
  20
0.8681
  42
1
  0
VERTEX
  8
Element
  10
3.2969
  20
0.8681
  42
1
  0
VERTEX
  8
Element
  10
3.292
  20
0.8681
  42
1
  0
SEQEND
  0
POLYLINE
  8
Element
  6
CONTINUOUS
  66
1
  70
0
  40
0.0049
  41
0.0049
  0
VERTEX
  8
Element
  10
3.342
  20
0.7681
  42
1
  0
VERTEX
  8
Element
  10
3.3469
  20
0.7681
  42
1
  0
VERTEX
  8
Element
  10
3.342
  20
0.7681
  42
1
  0
SEQEND
  0
POLYLINE
  8
Element
  6
CONTINUOUS
  66
1
  70
0
  40
0.0098
  41
0.0098
  0
VERTEX
  8
Element
  10
3.2445
  20
0.7681
  42
0
  0
VERTEX
  8
Element
  10
3.2945
  20
0.8681
  42
0
  0
SEQEND
  0
POLYLINE
  8
Element
  6
CONTINUOUS
  66
1
  70
0
  40
0.0049
  41
0.0049
  0
VERTEX
  8
Element
  10
3.242
  20
0.7681
  42
1
  0
VERTEX
  8
Element
  10
3.2469
  20
0.7681
  42
1
  0
VERTEX
  8
Element
  10
3.242
  20
0.7681
  42
1
  0
SEQEND
  0
POLYLINE
  8
Element
  6
CONTINUOUS
  66
1
  70
0
  40
0.0049
  41
0.0049
  0
VERTEX
  8
Element
  10
3.292
  20
0.8681
  42
1
  0
VERTEX
  8
Element
  10
3.2969
  20
0.8681
  42
1
  0
VERTEX
  8
Element
  10
3.292
  20
0.8681
  42
1
  0
SEQEND
  0
POLYLINE
  8
Element
  6
CONTINUOUS
  66
1
  70
0
  40
0.0098
  41
0.0098
  0
VERTEX
  8
Element
  10
3.1945
  20
0.8681
  42
0
  0
VERTEX
  8
Element
  10
3.2445
  20
0.7681
  42
0
  0
SEQEND
  0
POLYLINE
  8
Element
  6
CONTINUOUS
  66
1
  70
0
  40
0.0049
  41
0.0049
  0
VERTEX
  8
Element
  10
3.192
  20
0.8681
  42
1
  0
VERTEX
  8
Element
  10
3.1969
  20
0.8681
  42
1
  0
VERTEX
  8
Element
  10
3.192
  20
0.8681
  42
1
  0
SEQEND
  0
POLYLINE
  8
Element
  6
CONTINUOUS
  66
1
  70
0
  40
0.0049
  41
0.0049
  0
VERTEX
  8
Element
  10
3.242
  20
0.7681
  42
1
  0
VERTEX
  8
Element
  10
3.2469
  20
0.7681
  42
1
  0
VERTEX
  8
Element
  10
3.242
  20
0.7681
  42
1
  0
SEQEND
  0
POLYLINE
  8
Element
  6
CONTINUOUS
  66
1
  70
0
  40
0.0098
  41
0.0098
  0
VERTEX
  8
Element
  10
3.1695
  20
0.8181
  42
0
  0
VERTEX
  8
Element
  10
3.1945
  20
0.8681
  42
0
  0
SEQEND
  0
POLYLINE
  8
Element
  6
CONTINUOUS
  66
1
  70
0
  40
0.0049
  41
0.0049
  0
VERTEX
  8
Element
  10
3.167
  20
0.8181
  42
1
  0
VERTEX
  8
Element
  10
3.1719
  20
0.8181
  42
1
  0
VERTEX
  8
Element
  10
3.167
  20
0.8181
  42
1
  0
SEQEND
  0
POLYLINE
  8
Element
  6
CONTINUOUS
  66
1
  70
0
  40
0.0049
  41
0.0049
  0
VERTEX
  8
Element
  10
3.192
  20
0.8681
  42
1
  0
VERTEX
  8
Element
  10
3.1969
  20
0.8681
  42
1
  0
VERTEX
  8
Element
  10
3.192
  20
0.8681
  42
1
  0
SEQEND
  0
POLYLINE
  8
Element
  6
CONTINUOUS
  66
1
  70
0
  40
0.0098
  41
0.0098
  0
VERTEX
  8
Element
  10
1.7128
  20
1.6179
  42
0
  0
VERTEX
  8
Element
  10
2.5128
  20
1.6179
  42
0
  0
VERTEX
  8
Element
  10
2.5128
  20
0.5179
  42
0
  0
VERTEX
  8
Element
  10
1.7128
  20
0.5179
  42
0
  0
VERTEX
  8
Element
  10
1.7128
  20
1.6179
  42
0
  0
SEQEND
  0
TEXT
  8
Element
  10
1.7128
  20
1.7179
  40
0.0437
  41
0.7
  1
LM53606-Q1
  50
0.0
  72
0
  73
3
  7
STANDARD
  71
0
  11
1.7128
  21
1.7179
  0
TEXT
  8
Element
  10
0.0185
  20
1.4929
  40
0.0583
  41
0.7
  1
C1
  50
90.0
  72
1
  73
1
  7
STANDARD
  71
0
  11
0.0185
  21
1.4929
  0
TEXT
  8
Element
  10
0.169
  20
1.4929
  40
0.0583
  41
0.7
  1
10uF
  50
90.0
  72
1
  73
3
  7
STANDARD
  71
0
  11
0.169
  21
1.4929
  0
TEXT
  8
Element
  10
0.3936
  20
1.4929
  40
0.0583
  41
0.7
  1
C2
  50
90.0
  72
1
  73
1
  7
STANDARD
  71
0
  11
0.3936
  21
1.4929
  0
TEXT
  8
Element
  10
0.544
  20
1.4929
  40
0.0583
  41
0.7
  1
10uF
  50
90.0
  72
1
  73
3
  7
STANDARD
  71
0
  11
0.544
  21
1.4929
  0
TEXT
  8
Element
  10
0.7749
  20
1.4929
  40
0.0583
  41
0.7
  1
C3
  50
90.0
  72
1
  73
1
  7
STANDARD
  71
0
  11
0.7749
  21
1.4929
  0
TEXT
  8
Element
  10
0.9253
  20
1.4929
  40
0.0583
  41
0.7
  1
10uF
  50
90.0
  72
1
  73
3
  7
STANDARD
  71
0
  11
0.9253
  21
1.4929
  0
TEXT
  8
Element
  10
1.1686
  20
1.4929
  40
0.0583
  41
0.7
  1
C4
  50
90.0
  72
1
  73
1
  7
STANDARD
  71
0
  11
1.1686
  21
1.4929
  0
TEXT
  8
Element
  10
1.3191
  20
1.4929
  40
0.0583
  41
0.7
  1
10nF
  50
90.0
  72
1
  73
3
  7
STANDARD
  71
0
  11
1.3191
  21
1.4929
  0
TEXT
  8
Element
  10
0.9374
  20
0.8929
  40
0.0583
  41
0.7
  1
C5
  50
90.0
  72
1
  73
1
  7
STANDARD
  71
0
  11
0.9374
  21
0.8929
  0
TEXT
  8
Element
  10
1.0878
  20
0.8929
  40
0.0583
  41
0.7
  1
4.7uF
  50
90.0
  72
1
  73
3
  7
STANDARD
  71
0
  11
1.0878
  21
0.8929
  0
TEXT
  8
Element
  10
2.8442
  20
0.5241
  40
0.0583
  41
0.7
  1
C6
  50
90.0
  72
1
  73
1
  7
STANDARD
  71
0
  11
2.8442
  21
0.5241
  0
TEXT
  8
Element
  10
2.9947
  20
0.5241
  40
0.0583
  41
0.7
  1
1uF
  50
90.0
  72
1
  73
3
  7
STANDARD
  71
0
  11
2.9947
  21
0.5241
  0
TEXT
  8
Element
  10
2.8878
  20
1.2931
  40
0.0583
  41
0.7
  1
C7
  50
0.0
  72
1
  73
1
  7
STANDARD
  71
0
  11
2.8878
  21
1.2931
  0
TEXT
  8
Element
  10
2.8878
  20
1.1427
  40
0.0583
  41
0.7
  1
0.47uF
  50
0.0
  72
1
  73
3
  7
STANDARD
  71
0
  11
2.8878
  21
1.1427
  0
TEXT
  8
Element
  10
3.9689
  20
1.3304
  40
0.0583
  41
0.7
  1
C8
  50
90.0
  72
1
  73
1
  7
STANDARD
  71
0
  11
3.9689
  21
1.3304
  0
TEXT
  8
Element
  10
4.1194
  20
1.3304
  40
0.0583
  41
0.7
  1
22uF
  50
90.0
  72
1
  73
3
  7
STANDARD
  71
0
  11
4.1194
  21
1.3304
  0
TEXT
  8
Element
  10
4.3502
  20
1.3181
  40
0.0583
  41
0.7
  1
C9
  50
90.0
  72
1
  73
1
  7
STANDARD
  71
0
  11
4.3502
  21
1.3181
  0
TEXT
  8
Element
  10
4.5007
  20
1.3181
  40
0.0583
  41
0.7
  1
22uF
  50
90.0
  72
1
  73
3
  7
STANDARD
  71
0
  11
4.5007
  21
1.3181
  0
TEXT
  8
Element
  10
4.7502
  20
1.3181
  40
0.0583
  41
0.7
  1
C10
  50
90.0
  72
1
  73
1
  7
STANDARD
  71
0
  11
4.7502
  21
1.3181
  0
TEXT
  8
Element
  10
4.9007
  20
1.3181
  40
0.0583
  41
0.7
  1
22uF
  50
90.0
  72
1
  73
3
  7
STANDARD
  71
0
  11
4.9007
  21
1.3181
  0
TEXT
  8
Element
  10
3.4503
  20
1.602
  40
0.0583
  41
0.7
  1
L1
  50
0.0
  72
1
  73
1
  7
STANDARD
  71
0
  11
3.4503
  21
1.602
  0
TEXT
  8
Element
  10
3.4503
  20
1.4839
  40
0.0583
  41
0.7
  1
2.2uH
  50
0.0
  72
1
  73
3
  7
STANDARD
  71
0
  11
3.4503
  21
1.4839
  0
TEXT
  8
Element
  10
0.025
  20
0.8091
  40
0.0583
  41
0.7
  1
GND
  50
90.0
  72
1
  73
1
  7
STANDARD
  71
0
  11
0.025
  21
0.8091
  0
TEXT
  8
Element
  10
0.9376
  20
0.4653
  40
0.0583
  41
0.7
  1
GND
  50
90.0
  72
1
  73
1
  7
STANDARD
  71
0
  11
0.9376
  21
0.4653
  0
TEXT
  8
Element
  10
1.4314
  20
0.1466
  40
0.0583
  41
0.7
  1
GND
  50
90.0
  72
1
  73
1
  7
STANDARD
  71
0
  11
1.4314
  21
0.1466
  0
TEXT
  8
Element
  10
2.844
  20
0.0591
  40
0.0583
  41
0.7
  1
GND
  50
90.0
  72
1
  73
1
  7
STANDARD
  71
0
  11
2.844
  21
0.0591
  0
TEXT
  8
Element
  10
4.3505
  20
0.5404
  40
0.0583
  41
0.7
  1
GND
  50
90.0
  72
1
  73
1
  7
STANDARD
  71
0
  11
4.3505
  21
0.5404
  0
TEXT
  8
Element
  10
5.1318
  20
1.6179
  40
0.0583
  41
0.7
  1
+5V
  50
0.0
  72
1
  73
1
  7
STANDARD
  71
0
  11
5.1318
  21
1.6179
  0
TEXT
  8
Element
  10
0.1
  20
2.1958
  40
0.0583
  41
0.7
  1
+12V
  50
0.0
  72
1
  73
1
  7
STANDARD
  71
0
  11
0.1
  21
2.1958
  0
TEXT
  8
Element
  10
3.3195
  20
0.8772
  40
0.0583
  41
0.7
  1
R1
  50
0.0
  72
1
  73
1
  7
STANDARD
  71
0
  11
3.3195
  21
0.8772
  0
TEXT
  8
Element
  10
3.3195
  20
0.7591
  40
0.0583
  41
0.7
  1
3
  50
0.0
  72
1
  73
3
  7
STANDARD
  71
0
  11
3.3195
  21
0.7591
  0
TEXT
  8
Element
  10
2.1128
  20
1.7179
  40
0.0583
  41
0.7
  1
U1
  50
0.0
  72
1
  73
1
  7
STANDARD
  71
0
  11
2.1128
  21
1.7179
  0
TEXT
  8
Element
  10
2.1128
  20
0.5179
  40
0.0583
  41
0.7
  1

  50
0.0
  72
1
  73
3
  7
STANDARD
  71
0
  11
2.1128
  21
0.5179
  0
POLYLINE
  8
Net
  6
CONTINUOUS
  66
1
  70
0
  40
0.0098
  41
0.0098
  0
VERTEX
  8
Net
  10
0.0937
  20
1.2929
  42
0
  0
VERTEX
  8
Net
  10
0.0937
  20
1.2304
  42
0
  0
SEQEND
  0
POLYLINE
  8
Net
  6
CONTINUOUS
  66
1
  70
0
  40
0.0049
  41
0.0049
  0
VERTEX
  8
Net
  10
0.0913
  20
1.2929
  42
1
  0
VERTEX
  8
Net
  10
0.0962
  20
1.2929
  42
1
  0
VERTEX
  8
Net
  10
0.0913
  20
1.2929
  42
1
  0
SEQEND
  0
POLYLINE
  8
Net
  6
CONTINUOUS
  66
1
  70
0
  40
0.0049
  41
0.0049
  0
VERTEX
  8
Net
  10
0.0913
  20
1.2304
  42
1
  0
VERTEX
  8
Net
  10
0.0962
  20
1.2304
  42
1
  0
VERTEX
  8
Net
  10
0.0913
  20
1.2304
  42
1
  0
SEQEND
  0
POLYLINE
  8
Net
  6
CONTINUOUS
  66
1
  70
0
  40
0.0098
  41
0.0098
  0
VERTEX
  8
Net
  10
0.0937
  20
1.2304
  42
0
  0
VERTEX
  8
Net
  10
0.4688
  20
1.2304
  42
0
  0
SEQEND
  0
POLYLINE
  8
Net
  6
CONTINUOUS
  66
1
  70
0
  40
0.0049
  41
0.0049
  0
VERTEX
  8
Net
  10
0.0913
  20
1.2304
  42
1
  0
VERTEX
  8
Net
  10
0.0962
  20
1.2304
  42
1
  0
VERTEX
  8
Net
  10
0.0913
  20
1.2304
  42
1
  0
SEQEND
  0
POLYLINE
  8
Net
  6
CONTINUOUS
  66
1
  70
0
  40
0.0049
  41
0.0049
  0
VERTEX
  8
Net
  10
0.4663
  20
1.2304
  42
1
  0
VERTEX
  8
Net
  10
0.4712
  20
1.2304
  42
1
  0
VERTEX
  8
Net
  10
0.4663
  20
1.2304
  42
1
  0
SEQEND
  0
POLYLINE
  8
Net
  6
CONTINUOUS
  66
1
  70
0
  40
0.0098
  41
0.0098
  0
VERTEX
  8
Net
  10
0.4688
  20
1.2304
  42
0
  0
VERTEX
  8
Net
  10
0.4688
  20
1.2929
  42
0
  0
SEQEND
  0
POLYLINE
  8
Net
  6
CONTINUOUS
  66
1
  70
0
  40
0.0049
  41
0.0049
  0
VERTEX
  8
Net
  10
0.4663
  20
1.2304
  42
1
  0
VERTEX
  8
Net
  10
0.4712
  20
1.2304
  42
1
  0
VERTEX
  8
Net
  10
0.4663
  20
1.2304
  42
1
  0
SEQEND
  0
POLYLINE
  8
Net
  6
CONTINUOUS
  66
1
  70
0
  40
0.0049
  41
0.0049
  0
VERTEX
  8
Net
  10
0.4663
  20
1.2929
  42
1
  0
VERTEX
  8
Net
  10
0.4712
  20
1.2929
  42
1
  0
VERTEX
  8
Net
  10
0.4663
  20
1.2929
  42
1
  0
SEQEND
  0
POLYLINE
  8
Net
  6
CONTINUOUS
  66
1
  70
0
  40
0.0098
  41
0.0098
  0
VERTEX
  8
Net
  10
0.4589
  20
1.2304
  42
0
  0
VERTEX
  8
Net
  10
0.4594
  20
1.2274
  42
0
  0
VERTEX
  8
Net
  10
0.4608
  20
1.2246
  42
0
  0
VERTEX
  8
Net
  10
0.463
  20
1.2224
  42
0
  0
VERTEX
  8
Net
  10
0.4657
  20
1.221
  42
0
  0
VERTEX
  8
Net
  10
0.4688
  20
1.2206
  42
0
  0
VERTEX
  8
Net
  10
0.4718
  20
1.221
  42
0
  0
VERTEX
  8
Net
  10
0.4746
  20
1.2224
  42
0
  0
VERTEX
  8
Net
  10
0.4768
  20
1.2246
  42
0
  0
VERTEX
  8
Net
  10
0.4781
  20
1.2274
  42
0
  0
VERTEX
  8
Net
  10
0.4786
  20
1.2304
  42
0
  0
VERTEX
  8
Net
  10
0.4781
  20
1.2334
  42
0
  0
VERTEX
  8
Net
  10
0.4768
  20
1.2362
  42
0
  0
VERTEX
  8
Net
  10
0.4746
  20
1.2384
  42
0
  0
VERTEX
  8
Net
  10
0.4718
  20
1.2398
  42
0
  0
VERTEX
  8
Net
  10
0.4688
  20
1.2403
  42
0
  0
VERTEX
  8
Net
  10
0.4657
  20
1.2398
  42
0
  0
VERTEX
  8
Net
  10
0.463
  20
1.2384
  42
0
  0
VERTEX
  8
Net
  10
0.4608
  20
1.2362
  42
0
  0
VERTEX
  8
Net
  10
0.4594
  20
1.2334
  42
0
  0
VERTEX
  8
Net
  10
0.4589
  20
1.2304
  42
0
  0
SEQEND
  0
POLYLINE
  8
Net
  6
CONTINUOUS
  66
1
  70
0
  40
0.0049
  41
0.0049
  0
VERTEX
  8
Net
  10
0.4565
  20
1.2304
  42
1
  0
VERTEX
  8
Net
  10
0.4614
  20
1.2304
  42
1
  0
VERTEX
  8
Net
  10
0.4565
  20
1.2304
  42
1
  0
SEQEND
  0
POLYLINE
  8
Net
  6
CONTINUOUS
  66
1
  70
0
  40
0.0098
  41
0.0098
  0
VERTEX
  8
Net
  10
0.8501
  20
1.2929
  42
0
  0
VERTEX
  8
Net
  10
0.8501
  20
1.2304
  42
0
  0
SEQEND
  0
POLYLINE
  8
Net
  6
CONTINUOUS
  66
1
  70
0
  40
0.0049
  41
0.0049
  0
VERTEX
  8
Net
  10
0.8476
  20
1.2929
  42
1
  0
VERTEX
  8
Net
  10
0.8525
  20
1.2929
  42
1
  0
VERTEX
  8
Net
  10
0.8476
  20
1.2929
  42
1
  0
SEQEND
  0
POLYLINE
  8
Net
  6
CONTINUOUS
  66
1
  70
0
  40
0.0049
  41
0.0049
  0
VERTEX
  8
Net
  10
0.8476
  20
1.2304
  42
1
  0
VERTEX
  8
Net
  10
0.8525
  20
1.2304
  42
1
  0
VERTEX
  8
Net
  10
0.8476
  20
1.2304
  42
1
  0
SEQEND
  0
POLYLINE
  8
Net
  6
CONTINUOUS
  66
1
  70
0
  40
0.0098
  41
0.0098
  0
VERTEX
  8
Net
  10
0.8501
  20
1.2304
  42
0
  0
VERTEX
  8
Net
  10
0.4688
  20
1.2304
  42
0
  0
SEQEND
  0
POLYLINE
  8
Net
  6
CONTINUOUS
  66
1
  70
0
  40
0.0049
  41
0.0049
  0
VERTEX
  8
Net
  10
0.8476
  20
1.2304
  42
1
  0
VERTEX
  8
Net
  10
0.8525
  20
1.2304
  42
1
  0
VERTEX
  8
Net
  10
0.8476
  20
1.2304
  42
1
  0
SEQEND
  0
POLYLINE
  8
Net
  6
CONTINUOUS
  66
1
  70
0
  40
0.0049
  41
0.0049
  0
VERTEX
  8
Net
  10
0.4663
  20
1.2304
  42
1
  0
VERTEX
  8
Net
  10
0.4712
  20
1.2304
  42
1
  0
VERTEX
  8
Net
  10
0.4663
  20
1.2304
  42
1
  0
SEQEND
  0
POLYLINE
  8
Net
  6
CONTINUOUS
  66
1
  70
0
  40
0.0098
  41
0.0098
  0
VERTEX
  8
Net
  10
0.8402
  20
1.2304
  42
0
  0
VERTEX
  8
Net
  10
0.8407
  20
1.2274
  42
0
  0
VERTEX
  8
Net
  10
0.8421
  20
1.2246
  42
0
  0
VERTEX
  8
Net
  10
0.8443
  20
1.2224
  42
0
  0
VERTEX
  8
Net
  10
0.847
  20
1.221
  42
0
  0
VERTEX
  8
Net
  10
0.8501
  20
1.2206
  42
0
  0
VERTEX
  8
Net
  10
0.8531
  20
1.221
  42
0
  0
VERTEX
  8
Net
  10
0.8559
  20
1.2224
  42
0
  0
VERTEX
  8
Net
  10
0.858
  20
1.2246
  42
0
  0
VERTEX
  8
Net
  10
0.8594
  20
1.2274
  42
0
  0
VERTEX
  8
Net
  10
0.8599
  20
1.2304
  42
0
  0
VERTEX
  8
Net
  10
0.8594
  20
1.2334
  42
0
  0
VERTEX
  8
Net
  10
0.858
  20
1.2362
  42
0
  0
VERTEX
  8
Net
  10
0.8559
  20
1.2384
  42
0
  0
VERTEX
  8
Net
  10
0.8531
  20
1.2398
  42
0
  0
VERTEX
  8
Net
  10
0.8501
  20
1.2403
  42
0
  0
VERTEX
  8
Net
  10
0.847
  20
1.2398
  42
0
  0
VERTEX
  8
Net
  10
0.8443
  20
1.2384
  42
0
  0
VERTEX
  8
Net
  10
0.8421
  20
1.2362
  42
0
  0
VERTEX
  8
Net
  10
0.8407
  20
1.2334
  42
0
  0
VERTEX
  8
Net
  10
0.8402
  20
1.2304
  42
0
  0
SEQEND
  0
POLYLINE
  8
Net
  6
CONTINUOUS
  66
1
  70
0
  40
0.0049
  41
0.0049
  0
VERTEX
  8
Net
  10
0.8378
  20
1.2304
  42
1
  0
VERTEX
  8
Net
  10
0.8427
  20
1.2304
  42
1
  0
VERTEX
  8
Net
  10
0.8378
  20
1.2304
  42
1
  0
SEQEND
  0
POLYLINE
  8
Net
  6
CONTINUOUS
  66
1
  70
0
  40
0.0098
  41
0.0098
  0
VERTEX
  8
Net
  10
1.2439
  20
1.2929
  42
0
  0
VERTEX
  8
Net
  10
1.2439
  20
1.2304
  42
0
  0
SEQEND
  0
POLYLINE
  8
Net
  6
CONTINUOUS
  66
1
  70
0
  40
0.0049
  41
0.0049
  0
VERTEX
  8
Net
  10
1.2414
  20
1.2929
  42
1
  0
VERTEX
  8
Net
  10
1.2463
  20
1.2929
  42
1
  0
VERTEX
  8
Net
  10
1.2414
  20
1.2929
  42
1
  0
SEQEND
  0
POLYLINE
  8
Net
  6
CONTINUOUS
  66
1
  70
0
  40
0.0049
  41
0.0049
  0
VERTEX
  8
Net
  10
1.2414
  20
1.2304
  42
1
  0
VERTEX
  8
Net
  10
1.2463
  20
1.2304
  42
1
  0
VERTEX
  8
Net
  10
1.2414
  20
1.2304
  42
1
  0
SEQEND
  0
POLYLINE
  8
Net
  6
CONTINUOUS
  66
1
  70
0
  40
0.0098
  41
0.0098
  0
VERTEX
  8
Net
  10
1.2439
  20
1.2304
  42
0
  0
VERTEX
  8
Net
  10
0.8501
  20
1.2304
  42
0
  0
SEQEND
  0
POLYLINE
  8
Net
  6
CONTINUOUS
  66
1
  70
0
  40
0.0049
  41
0.0049
  0
VERTEX
  8
Net
  10
1.2414
  20
1.2304
  42
1
  0
VERTEX
  8
Net
  10
1.2463
  20
1.2304
  42
1
  0
VERTEX
  8
Net
  10
1.2414
  20
1.2304
  42
1
  0
SEQEND
  0
POLYLINE
  8
Net
  6
CONTINUOUS
  66
1
  70
0
  40
0.0049
  41
0.0049
  0
VERTEX
  8
Net
  10
0.8476
  20
1.2304
  42
1
  0
VERTEX
  8
Net
  10
0.8525
  20
1.2304
  42
1
  0
VERTEX
  8
Net
  10
0.8476
  20
1.2304
  42
1
  0
SEQEND
  0
POLYLINE
  8
Net
  6
CONTINUOUS
  66
1
  70
0
  40
0.0098
  41
0.0098
  0
VERTEX
  8
Net
  10
0.0902
  20
1.2304
  42
0
  0
VERTEX
  8
Net
  10
0.0906
  20
1.2274
  42
0
  0
VERTEX
  8
Net
  10
0.092
  20
1.2246
  42
0
  0
VERTEX
  8
Net
  10
0.0942
  20
1.2224
  42
0
  0
VERTEX
  8
Net
  10
0.097
  20
1.221
  42
0
  0
VERTEX
  8
Net
  10
0.1
  20
1.2206
  42
0
  0
VERTEX
  8
Net
  10
0.103
  20
1.221
  42
0
  0
VERTEX
  8
Net
  10
0.1058
  20
1.2224
  42
0
  0
VERTEX
  8
Net
  10
0.108
  20
1.2246
  42
0
  0
VERTEX
  8
Net
  10
0.1094
  20
1.2274
  42
0
  0
VERTEX
  8
Net
  10
0.1098
  20
1.2304
  42
0
  0
VERTEX
  8
Net
  10
0.1094
  20
1.2334
  42
0
  0
VERTEX
  8
Net
  10
0.108
  20
1.2362
  42
0
  0
VERTEX
  8
Net
  10
0.1058
  20
1.2384
  42
0
  0
VERTEX
  8
Net
  10
0.103
  20
1.2398
  42
0
  0
VERTEX
  8
Net
  10
0.1
  20
1.2403
  42
0
  0
VERTEX
  8
Net
  10
0.097
  20
1.2398
  42
0
  0
VERTEX
  8
Net
  10
0.0942
  20
1.2384
  42
0
  0
VERTEX
  8
Net
  10
0.092
  20
1.2362
  42
0
  0
VERTEX
  8
Net
  10
0.0906
  20
1.2334
  42
0
  0
VERTEX
  8
Net
  10
0.0902
  20
1.2304
  42
0
  0
SEQEND
  0
POLYLINE
  8
Net
  6
CONTINUOUS
  66
1
  70
0
  40
0.0049
  41
0.0049
  0
VERTEX
  8
Net
  10
0.0877
  20
1.2304
  42
1
  0
VERTEX
  8
Net
  10
0.0926
  20
1.2304
  42
1
  0
VERTEX
  8
Net
  10
0.0877
  20
1.2304
  42
1
  0
SEQEND
  0
POLYLINE
  8
Net
  6
CONTINUOUS
  66
1
  70
0
  40
0.0098
  41
0.0098
  0
VERTEX
  8
Net
  10
0.1
  20
0.9991
  42
0
  0
VERTEX
  8
Net
  10
0.1
  20
1.2304
  42
0
  0
SEQEND
  0
POLYLINE
  8
Net
  6
CONTINUOUS
  66
1
  70
0
  40
0.0049
  41
0.0049
  0
VERTEX
  8
Net
  10
0.0975
  20
0.9991
  42
1
  0
VERTEX
  8
Net
  10
0.1025
  20
0.9991
  42
1
  0
VERTEX
  8
Net
  10
0.0975
  20
0.9991
  42
1
  0
SEQEND
  0
POLYLINE
  8
Net
  6
CONTINUOUS
  66
1
  70
0
  40
0.0049
  41
0.0049
  0
VERTEX
  8
Net
  10
0.0975
  20
1.2304
  42
1
  0
VERTEX
  8
Net
  10
0.1025
  20
1.2304
  42
1
  0
VERTEX
  8
Net
  10
0.0975
  20
1.2304
  42
1
  0
SEQEND
  0
POLYLINE
  8
Net
  6
CONTINUOUS
  66
1
  70
0
  40
0.0098
  41
0.0098
  0
VERTEX
  8
Net
  10
1.0126
  20
0.6929
  42
0
  0
VERTEX
  8
Net
  10
1.0126
  20
0.6553
  42
0
  0
SEQEND
  0
POLYLINE
  8
Net
  6
CONTINUOUS
  66
1
  70
0
  40
0.0049
  41
0.0049
  0
VERTEX
  8
Net
  10
1.0101
  20
0.6929
  42
1
  0
VERTEX
  8
Net
  10
1.0151
  20
0.6929
  42
1
  0
VERTEX
  8
Net
  10
1.0101
  20
0.6929
  42
1
  0
SEQEND
  0
POLYLINE
  8
Net
  6
CONTINUOUS
  66
1
  70
0
  40
0.0049
  41
0.0049
  0
VERTEX
  8
Net
  10
1.0101
  20
0.6553
  42
1
  0
VERTEX
  8
Net
  10
1.0151
  20
0.6553
  42
1
  0
VERTEX
  8
Net
  10
1.0101
  20
0.6553
  42
1
  0
SEQEND
  0
POLYLINE
  8
Net
  6
CONTINUOUS
  66
1
  70
0
  40
0.0098
  41
0.0098
  0
VERTEX
  8
Net
  10
1.5628
  20
1.0179
  42
0
  0
VERTEX
  8
Net
  10
1.5064
  20
1.0179
  42
0
  0
SEQEND
  0
POLYLINE
  8
Net
  6
CONTINUOUS
  66
1
  70
0
  40
0.0049
  41
0.0049
  0
VERTEX
  8
Net
  10
1.5603
  20
1.0179
  42
1
  0
VERTEX
  8
Net
  10
1.5652
  20
1.0179
  42
1
  0
VERTEX
  8
Net
  10
1.5603
  20
1.0179
  42
1
  0
SEQEND
  0
POLYLINE
  8
Net
  6
CONTINUOUS
  66
1
  70
0
  40
0.0049
  41
0.0049
  0
VERTEX
  8
Net
  10
1.5039
  20
1.0179
  42
1
  0
VERTEX
  8
Net
  10
1.5089
  20
1.0179
  42
1
  0
VERTEX
  8
Net
  10
1.5039
  20
1.0179
  42
1
  0
SEQEND
  0
POLYLINE
  8
Net
  6
CONTINUOUS
  66
1
  70
0
  40
0.0098
  41
0.0098
  0
VERTEX
  8
Net
  10
1.5064
  20
1.0179
  42
0
  0
VERTEX
  8
Net
  10
1.5064
  20
0.6179
  42
0
  0
SEQEND
  0
POLYLINE
  8
Net
  6
CONTINUOUS
  66
1
  70
0
  40
0.0049
  41
0.0049
  0
VERTEX
  8
Net
  10
1.5039
  20
1.0179
  42
1
  0
VERTEX
  8
Net
  10
1.5089
  20
1.0179
  42
1
  0
VERTEX
  8
Net
  10
1.5039
  20
1.0179
  42
1
  0
SEQEND
  0
POLYLINE
  8
Net
  6
CONTINUOUS
  66
1
  70
0
  40
0.0049
  41
0.0049
  0
VERTEX
  8
Net
  10
1.5039
  20
0.6179
  42
1
  0
VERTEX
  8
Net
  10
1.5089
  20
0.6179
  42
1
  0
VERTEX
  8
Net
  10
1.5039
  20
0.6179
  42
1
  0
SEQEND
  0
POLYLINE
  8
Net
  6
CONTINUOUS
  66
1
  70
0
  40
0.0098
  41
0.0098
  0
VERTEX
  8
Net
  10
1.5064
  20
0.6179
  42
0
  0
VERTEX
  8
Net
  10
1.5628
  20
0.6179
  42
0
  0
SEQEND
  0
POLYLINE
  8
Net
  6
CONTINUOUS
  66
1
  70
0
  40
0.0049
  41
0.0049
  0
VERTEX
  8
Net
  10
1.5039
  20
0.6179
  42
1
  0
VERTEX
  8
Net
  10
1.5089
  20
0.6179
  42
1
  0
VERTEX
  8
Net
  10
1.5039
  20
0.6179
  42
1
  0
SEQEND
  0
POLYLINE
  8
Net
  6
CONTINUOUS
  66
1
  70
0
  40
0.0049
  41
0.0049
  0
VERTEX
  8
Net
  10
1.5603
  20
0.6179
  42
1
  0
VERTEX
  8
Net
  10
1.5652
  20
0.6179
  42
1
  0
VERTEX
  8
Net
  10
1.5603
  20
0.6179
  42
1
  0
SEQEND
  0
POLYLINE
  8
Net
  6
CONTINUOUS
  66
1
  70
0
  40
0.0098
  41
0.0098
  0
VERTEX
  8
Net
  10
1.4966
  20
0.7179
  42
0
  0
VERTEX
  8
Net
  10
1.497
  20
0.7149
  42
0
  0
VERTEX
  8
Net
  10
1.4984
  20
0.7122
  42
0
  0
VERTEX
  8
Net
  10
1.5006
  20
0.71
  42
0
  0
VERTEX
  8
Net
  10
1.5034
  20
0.7086
  42
0
  0
VERTEX
  8
Net
  10
1.5064
  20
0.7081
  42
0
  0
VERTEX
  8
Net
  10
1.5094
  20
0.7086
  42
0
  0
VERTEX
  8
Net
  10
1.5122
  20
0.71
  42
0
  0
VERTEX
  8
Net
  10
1.5144
  20
0.7122
  42
0
  0
VERTEX
  8
Net
  10
1.5158
  20
0.7149
  42
0
  0
VERTEX
  8
Net
  10
1.5162
  20
0.7179
  42
0
  0
VERTEX
  8
Net
  10
1.5158
  20
0.721
  42
0
  0
VERTEX
  8
Net
  10
1.5144
  20
0.7237
  42
0
  0
VERTEX
  8
Net
  10
1.5122
  20
0.7259
  42
0
  0
VERTEX
  8
Net
  10
1.5094
  20
0.7273
  42
0
  0
VERTEX
  8
Net
  10
1.5064
  20
0.7278
  42
0
  0
VERTEX
  8
Net
  10
1.5034
  20
0.7273
  42
0
  0
VERTEX
  8
Net
  10
1.5006
  20
0.7259
  42
0
  0
VERTEX
  8
Net
  10
1.4984
  20
0.7237
  42
0
  0
VERTEX
  8
Net
  10
1.497
  20
0.721
  42
0
  0
VERTEX
  8
Net
  10
1.4966
  20
0.7179
  42
0
  0
SEQEND
  0
POLYLINE
  8
Net
  6
CONTINUOUS
  66
1
  70
0
  40
0.0049
  41
0.0049
  0
VERTEX
  8
Net
  10
1.4941
  20
0.7179
  42
1
  0
VERTEX
  8
Net
  10
1.499
  20
0.7179
  42
1
  0
VERTEX
  8
Net
  10
1.4941
  20
0.7179
  42
1
  0
SEQEND
  0
POLYLINE
  8
Net
  6
CONTINUOUS
  66
1
  70
0
  40
0.0098
  41
0.0098
  0
VERTEX
  8
Net
  10
1.5628
  20
0.7179
  42
0
  0
VERTEX
  8
Net
  10
1.5064
  20
0.7179
  42
0
  0
SEQEND
  0
POLYLINE
  8
Net
  6
CONTINUOUS
  66
1
  70
0
  40
0.0049
  41
0.0049
  0
VERTEX
  8
Net
  10
1.5603
  20
0.7179
  42
1
  0
VERTEX
  8
Net
  10
1.5652
  20
0.7179
  42
1
  0
VERTEX
  8
Net
  10
1.5603
  20
0.7179
  42
1
  0
SEQEND
  0
POLYLINE
  8
Net
  6
CONTINUOUS
  66
1
  70
0
  40
0.0049
  41
0.0049
  0
VERTEX
  8
Net
  10
1.5039
  20
0.7179
  42
1
  0
VERTEX
  8
Net
  10
1.5089
  20
0.7179
  42
1
  0
VERTEX
  8
Net
  10
1.5039
  20
0.7179
  42
1
  0
SEQEND
  0
POLYLINE
  8
Net
  6
CONTINUOUS
  66
1
  70
0
  40
0.0098
  41
0.0098
  0
VERTEX
  8
Net
  10
1.4966
  20
0.8179
  42
0
  0
VERTEX
  8
Net
  10
1.497
  20
0.8149
  42
0
  0
VERTEX
  8
Net
  10
1.4984
  20
0.8122
  42
0
  0
VERTEX
  8
Net
  10
1.5006
  20
0.81
  42
0
  0
VERTEX
  8
Net
  10
1.5034
  20
0.8086
  42
0
  0
VERTEX
  8
Net
  10
1.5064
  20
0.8081
  42
0
  0
VERTEX
  8
Net
  10
1.5094
  20
0.8086
  42
0
  0
VERTEX
  8
Net
  10
1.5122
  20
0.81
  42
0
  0
VERTEX
  8
Net
  10
1.5144
  20
0.8122
  42
0
  0
VERTEX
  8
Net
  10
1.5158
  20
0.8149
  42
0
  0
VERTEX
  8
Net
  10
1.5162
  20
0.8179
  42
0
  0
VERTEX
  8
Net
  10
1.5158
  20
0.821
  42
0
  0
VERTEX
  8
Net
  10
1.5144
  20
0.8237
  42
0
  0
VERTEX
  8
Net
  10
1.5122
  20
0.8259
  42
0
  0
VERTEX
  8
Net
  10
1.5094
  20
0.8273
  42
0
  0
VERTEX
  8
Net
  10
1.5064
  20
0.8278
  42
0
  0
VERTEX
  8
Net
  10
1.5034
  20
0.8273
  42
0
  0
VERTEX
  8
Net
  10
1.5006
  20
0.8259
  42
0
  0
VERTEX
  8
Net
  10
1.4984
  20
0.8237
  42
0
  0
VERTEX
  8
Net
  10
1.497
  20
0.821
  42
0
  0
VERTEX
  8
Net
  10
1.4966
  20
0.8179
  42
0
  0
SEQEND
  0
POLYLINE
  8
Net
  6
CONTINUOUS
  66
1
  70
0
  40
0.0049
  41
0.0049
  0
VERTEX
  8
Net
  10
1.4941
  20
0.8179
  42
1
  0
VERTEX
  8
Net
  10
1.499
  20
0.8179
  42
1
  0
VERTEX
  8
Net
  10
1.4941
  20
0.8179
  42
1
  0
SEQEND
  0
POLYLINE
  8
Net
  6
CONTINUOUS
  66
1
  70
0
  40
0.0098
  41
0.0098
  0
VERTEX
  8
Net
  10
1.5628
  20
0.8179
  42
0
  0
VERTEX
  8
Net
  10
1.5064
  20
0.8179
  42
0
  0
SEQEND
  0
POLYLINE
  8
Net
  6
CONTINUOUS
  66
1
  70
0
  40
0.0049
  41
0.0049
  0
VERTEX
  8
Net
  10
1.5603
  20
0.8179
  42
1
  0
VERTEX
  8
Net
  10
1.5652
  20
0.8179
  42
1
  0
VERTEX
  8
Net
  10
1.5603
  20
0.8179
  42
1
  0
SEQEND
  0
POLYLINE
  8
Net
  6
CONTINUOUS
  66
1
  70
0
  40
0.0049
  41
0.0049
  0
VERTEX
  8
Net
  10
1.5039
  20
0.8179
  42
1
  0
VERTEX
  8
Net
  10
1.5089
  20
0.8179
  42
1
  0
VERTEX
  8
Net
  10
1.5039
  20
0.8179
  42
1
  0
SEQEND
  0
POLYLINE
  8
Net
  6
CONTINUOUS
  66
1
  70
0
  40
0.0098
  41
0.0098
  0
VERTEX
  8
Net
  10
1.4966
  20
0.9179
  42
0
  0
VERTEX
  8
Net
  10
1.497
  20
0.9149
  42
0
  0
VERTEX
  8
Net
  10
1.4984
  20
0.9122
  42
0
  0
VERTEX
  8
Net
  10
1.5006
  20
0.91
  42
0
  0
VERTEX
  8
Net
  10
1.5034
  20
0.9086
  42
0
  0
VERTEX
  8
Net
  10
1.5064
  20
0.9081
  42
0
  0
VERTEX
  8
Net
  10
1.5094
  20
0.9086
  42
0
  0
VERTEX
  8
Net
  10
1.5122
  20
0.91
  42
0
  0
VERTEX
  8
Net
  10
1.5144
  20
0.9122
  42
0
  0
VERTEX
  8
Net
  10
1.5158
  20
0.9149
  42
0
  0
VERTEX
  8
Net
  10
1.5162
  20
0.9179
  42
0
  0
VERTEX
  8
Net
  10
1.5158
  20
0.921
  42
0
  0
VERTEX
  8
Net
  10
1.5144
  20
0.9237
  42
0
  0
VERTEX
  8
Net
  10
1.5122
  20
0.9259
  42
0
  0
VERTEX
  8
Net
  10
1.5094
  20
0.9273
  42
0
  0
VERTEX
  8
Net
  10
1.5064
  20
0.9278
  42
0
  0
VERTEX
  8
Net
  10
1.5034
  20
0.9273
  42
0
  0
VERTEX
  8
Net
  10
1.5006
  20
0.9259
  42
0
  0
VERTEX
  8
Net
  10
1.4984
  20
0.9237
  42
0
  0
VERTEX
  8
Net
  10
1.497
  20
0.921
  42
0
  0
VERTEX
  8
Net
  10
1.4966
  20
0.9179
  42
0
  0
SEQEND
  0
POLYLINE
  8
Net
  6
CONTINUOUS
  66
1
  70
0
  40
0.0049
  41
0.0049
  0
VERTEX
  8
Net
  10
1.4941
  20
0.9179
  42
1
  0
VERTEX
  8
Net
  10
1.499
  20
0.9179
  42
1
  0
VERTEX
  8
Net
  10
1.4941
  20
0.9179
  42
1
  0
SEQEND
  0
POLYLINE
  8
Net
  6
CONTINUOUS
  66
1
  70
0
  40
0.0098
  41
0.0098
  0
VERTEX
  8
Net
  10
1.5628
  20
0.9179
  42
0
  0
VERTEX
  8
Net
  10
1.5064
  20
0.9179
  42
0
  0
SEQEND
  0
POLYLINE
  8
Net
  6
CONTINUOUS
  66
1
  70
0
  40
0.0049
  41
0.0049
  0
VERTEX
  8
Net
  10
1.5603
  20
0.9179
  42
1
  0
VERTEX
  8
Net
  10
1.5652
  20
0.9179
  42
1
  0
VERTEX
  8
Net
  10
1.5603
  20
0.9179
  42
1
  0
SEQEND
  0
POLYLINE
  8
Net
  6
CONTINUOUS
  66
1
  70
0
  40
0.0049
  41
0.0049
  0
VERTEX
  8
Net
  10
1.5039
  20
0.9179
  42
1
  0
VERTEX
  8
Net
  10
1.5089
  20
0.9179
  42
1
  0
VERTEX
  8
Net
  10
1.5039
  20
0.9179
  42
1
  0
SEQEND
  0
POLYLINE
  8
Net
  6
CONTINUOUS
  66
1
  70
0
  40
0.0098
  41
0.0098
  0
VERTEX
  8
Net
  10
1.4966
  20
0.6179
  42
0
  0
VERTEX
  8
Net
  10
1.497
  20
0.6149
  42
0
  0
VERTEX
  8
Net
  10
1.4984
  20
0.6122
  42
0
  0
VERTEX
  8
Net
  10
1.5006
  20
0.61
  42
0
  0
VERTEX
  8
Net
  10
1.5034
  20
0.6086
  42
0
  0
VERTEX
  8
Net
  10
1.5064
  20
0.6081
  42
0
  0
VERTEX
  8
Net
  10
1.5094
  20
0.6086
  42
0
  0
VERTEX
  8
Net
  10
1.5122
  20
0.61
  42
0
  0
VERTEX
  8
Net
  10
1.5144
  20
0.6122
  42
0
  0
VERTEX
  8
Net
  10
1.5158
  20
0.6149
  42
0
  0
VERTEX
  8
Net
  10
1.5162
  20
0.6179
  42
0
  0
VERTEX
  8
Net
  10
1.5158
  20
0.621
  42
0
  0
VERTEX
  8
Net
  10
1.5144
  20
0.6237
  42
0
  0
VERTEX
  8
Net
  10
1.5122
  20
0.6259
  42
0
  0
VERTEX
  8
Net
  10
1.5094
  20
0.6273
  42
0
  0
VERTEX
  8
Net
  10
1.5064
  20
0.6278
  42
0
  0
VERTEX
  8
Net
  10
1.5034
  20
0.6273
  42
0
  0
VERTEX
  8
Net
  10
1.5006
  20
0.6259
  42
0
  0
VERTEX
  8
Net
  10
1.4984
  20
0.6237
  42
0
  0
VERTEX
  8
Net
  10
1.497
  20
0.621
  42
0
  0
VERTEX
  8
Net
  10
1.4966
  20
0.6179
  42
0
  0
SEQEND
  0
POLYLINE
  8
Net
  6
CONTINUOUS
  66
1
  70
0
  40
0.0049
  41
0.0049
  0
VERTEX
  8
Net
  10
1.4941
  20
0.6179
  42
1
  0
VERTEX
  8
Net
  10
1.499
  20
0.6179
  42
1
  0
VERTEX
  8
Net
  10
1.4941
  20
0.6179
  42
1
  0
SEQEND
  0
POLYLINE
  8
Net
  6
CONTINUOUS
  66
1
  70
0
  40
0.0098
  41
0.0098
  0
VERTEX
  8
Net
  10
1.5064
  20
0.3366
  42
0
  0
VERTEX
  8
Net
  10
1.5064
  20
0.6179
  42
0
  0
SEQEND
  0
POLYLINE
  8
Net
  6
CONTINUOUS
  66
1
  70
0
  40
0.0049
  41
0.0049
  0
VERTEX
  8
Net
  10
1.5039
  20
0.3366
  42
1
  0
VERTEX
  8
Net
  10
1.5089
  20
0.3366
  42
1
  0
VERTEX
  8
Net
  10
1.5039
  20
0.3366
  42
1
  0
SEQEND
  0
POLYLINE
  8
Net
  6
CONTINUOUS
  66
1
  70
0
  40
0.0049
  41
0.0049
  0
VERTEX
  8
Net
  10
1.5039
  20
0.6179
  42
1
  0
VERTEX
  8
Net
  10
1.5089
  20
0.6179
  42
1
  0
VERTEX
  8
Net
  10
1.5039
  20
0.6179
  42
1
  0
SEQEND
  0
POLYLINE
  8
Net
  6
CONTINUOUS
  66
1
  70
0
  40
0.0098
  41
0.0098
  0
VERTEX
  8
Net
  10
2.919
  20
0.3241
  42
0
  0
VERTEX
  8
Net
  10
2.919
  20
0.2491
  42
0
  0
SEQEND
  0
POLYLINE
  8
Net
  6
CONTINUOUS
  66
1
  70
0
  40
0.0049
  41
0.0049
  0
VERTEX
  8
Net
  10
2.9166
  20
0.3241
  42
1
  0
VERTEX
  8
Net
  10
2.9215
  20
0.3241
  42
1
  0
VERTEX
  8
Net
  10
2.9166
  20
0.3241
  42
1
  0
SEQEND
  0
POLYLINE
  8
Net
  6
CONTINUOUS
  66
1
  70
0
  40
0.0049
  41
0.0049
  0
VERTEX
  8
Net
  10
2.9166
  20
0.2491
  42
1
  0
VERTEX
  8
Net
  10
2.9215
  20
0.2491
  42
1
  0
VERTEX
  8
Net
  10
2.9166
  20
0.2491
  42
1
  0
SEQEND
  0
POLYLINE
  8
Net
  6
CONTINUOUS
  66
1
  70
0
  40
0.0098
  41
0.0098
  0
VERTEX
  8
Net
  10
4.8255
  20
1.1181
  42
0
  0
VERTEX
  8
Net
  10
4.8255
  20
1.0304
  42
0
  0
SEQEND
  0
POLYLINE
  8
Net
  6
CONTINUOUS
  66
1
  70
0
  40
0.0049
  41
0.0049
  0
VERTEX
  8
Net
  10
4.823
  20
1.1181
  42
1
  0
VERTEX
  8
Net
  10
4.8279
  20
1.1181
  42
1
  0
VERTEX
  8
Net
  10
4.823
  20
1.1181
  42
1
  0
SEQEND
  0
POLYLINE
  8
Net
  6
CONTINUOUS
  66
1
  70
0
  40
0.0049
  41
0.0049
  0
VERTEX
  8
Net
  10
4.823
  20
1.0304
  42
1
  0
VERTEX
  8
Net
  10
4.8279
  20
1.0304
  42
1
  0
VERTEX
  8
Net
  10
4.823
  20
1.0304
  42
1
  0
SEQEND
  0
POLYLINE
  8
Net
  6
CONTINUOUS
  66
1
  70
0
  40
0.0098
  41
0.0098
  0
VERTEX
  8
Net
  10
4.8255
  20
1.0304
  42
0
  0
VERTEX
  8
Net
  10
4.4255
  20
1.0304
  42
0
  0
SEQEND
  0
POLYLINE
  8
Net
  6
CONTINUOUS
  66
1
  70
0
  40
0.0049
  41
0.0049
  0
VERTEX
  8
Net
  10
4.823
  20
1.0304
  42
1
  0
VERTEX
  8
Net
  10
4.8279
  20
1.0304
  42
1
  0
VERTEX
  8
Net
  10
4.823
  20
1.0304
  42
1
  0
SEQEND
  0
POLYLINE
  8
Net
  6
CONTINUOUS
  66
1
  70
0
  40
0.0049
  41
0.0049
  0
VERTEX
  8
Net
  10
4.423
  20
1.0304
  42
1
  0
VERTEX
  8
Net
  10
4.4279
  20
1.0304
  42
1
  0
VERTEX
  8
Net
  10
4.423
  20
1.0304
  42
1
  0
SEQEND
  0
POLYLINE
  8
Net
  6
CONTINUOUS
  66
1
  70
0
  40
0.0098
  41
0.0098
  0
VERTEX
  8
Net
  10
4.4255
  20
1.0304
  42
0
  0
VERTEX
  8
Net
  10
4.4255
  20
1.1181
  42
0
  0
SEQEND
  0
POLYLINE
  8
Net
  6
CONTINUOUS
  66
1
  70
0
  40
0.0049
  41
0.0049
  0
VERTEX
  8
Net
  10
4.423
  20
1.0304
  42
1
  0
VERTEX
  8
Net
  10
4.4279
  20
1.0304
  42
1
  0
VERTEX
  8
Net
  10
4.423
  20
1.0304
  42
1
  0
SEQEND
  0
POLYLINE
  8
Net
  6
CONTINUOUS
  66
1
  70
0
  40
0.0049
  41
0.0049
  0
VERTEX
  8
Net
  10
4.423
  20
1.1181
  42
1
  0
VERTEX
  8
Net
  10
4.4279
  20
1.1181
  42
1
  0
VERTEX
  8
Net
  10
4.423
  20
1.1181
  42
1
  0
SEQEND
  0
POLYLINE
  8
Net
  6
CONTINUOUS
  66
1
  70
0
  40
0.0098
  41
0.0098
  0
VERTEX
  8
Net
  10
4.4156
  20
1.0304
  42
0
  0
VERTEX
  8
Net
  10
4.4161
  20
1.0273
  42
0
  0
VERTEX
  8
Net
  10
4.4175
  20
1.0246
  42
0
  0
VERTEX
  8
Net
  10
4.4197
  20
1.0224
  42
0
  0
VERTEX
  8
Net
  10
4.4224
  20
1.021
  42
0
  0
VERTEX
  8
Net
  10
4.4255
  20
1.0205
  42
0
  0
VERTEX
  8
Net
  10
4.4285
  20
1.021
  42
0
  0
VERTEX
  8
Net
  10
4.4312
  20
1.0224
  42
0
  0
VERTEX
  8
Net
  10
4.4334
  20
1.0246
  42
0
  0
VERTEX
  8
Net
  10
4.4348
  20
1.0273
  42
0
  0
VERTEX
  8
Net
  10
4.4353
  20
1.0304
  42
0
  0
VERTEX
  8
Net
  10
4.4348
  20
1.0334
  42
0
  0
VERTEX
  8
Net
  10
4.4334
  20
1.0362
  42
0
  0
VERTEX
  8
Net
  10
4.4312
  20
1.0383
  42
0
  0
VERTEX
  8
Net
  10
4.4285
  20
1.0397
  42
0
  0
VERTEX
  8
Net
  10
4.4255
  20
1.0402
  42
0
  0
VERTEX
  8
Net
  10
4.4224
  20
1.0397
  42
0
  0
VERTEX
  8
Net
  10
4.4197
  20
1.0383
  42
0
  0
VERTEX
  8
Net
  10
4.4175
  20
1.0362
  42
0
  0
VERTEX
  8
Net
  10
4.4161
  20
1.0334
  42
0
  0
VERTEX
  8
Net
  10
4.4156
  20
1.0304
  42
0
  0
SEQEND
  0
POLYLINE
  8
Net
  6
CONTINUOUS
  66
1
  70
0
  40
0.0049
  41
0.0049
  0
VERTEX
  8
Net
  10
4.4132
  20
1.0304
  42
1
  0
VERTEX
  8
Net
  10
4.4181
  20
1.0304
  42
1
  0
VERTEX
  8
Net
  10
4.4132
  20
1.0304
  42
1
  0
SEQEND
  0
POLYLINE
  8
Net
  6
CONTINUOUS
  66
1
  70
0
  40
0.0098
  41
0.0098
  0
VERTEX
  8
Net
  10
4.0442
  20
1.1304
  42
0
  0
VERTEX
  8
Net
  10
4.0442
  20
1.0304
  42
0
  0
SEQEND
  0
POLYLINE
  8
Net
  6
CONTINUOUS
  66
1
  70
0
  40
0.0049
  41
0.0049
  0
VERTEX
  8
Net
  10
4.0417
  20
1.1304
  42
1
  0
VERTEX
  8
Net
  10
4.0466
  20
1.1304
  42
1
  0
VERTEX
  8
Net
  10
4.0417
  20
1.1304
  42
1
  0
SEQEND
  0
POLYLINE
  8
Net
  6
CONTINUOUS
  66
1
  70
0
  40
0.0049
  41
0.0049
  0
VERTEX
  8
Net
  10
4.0417
  20
1.0304
  42
1
  0
VERTEX
  8
Net
  10
4.0466
  20
1.0304
  42
1
  0
VERTEX
  8
Net
  10
4.0417
  20
1.0304
  42
1
  0
SEQEND
  0
POLYLINE
  8
Net
  6
CONTINUOUS
  66
1
  70
0
  40
0.0098
  41
0.0098
  0
VERTEX
  8
Net
  10
4.0442
  20
1.0304
  42
0
  0
VERTEX
  8
Net
  10
4.4255
  20
1.0304
  42
0
  0
SEQEND
  0
POLYLINE
  8
Net
  6
CONTINUOUS
  66
1
  70
0
  40
0.0049
  41
0.0049
  0
VERTEX
  8
Net
  10
4.0417
  20
1.0304
  42
1
  0
VERTEX
  8
Net
  10
4.0466
  20
1.0304
  42
1
  0
VERTEX
  8
Net
  10
4.0417
  20
1.0304
  42
1
  0
SEQEND
  0
POLYLINE
  8
Net
  6
CONTINUOUS
  66
1
  70
0
  40
0.0049
  41
0.0049
  0
VERTEX
  8
Net
  10
4.423
  20
1.0304
  42
1
  0
VERTEX
  8
Net
  10
4.4279
  20
1.0304
  42
1
  0
VERTEX
  8
Net
  10
4.423
  20
1.0304
  42
1
  0
SEQEND
  0
POLYLINE
  8
Net
  6
CONTINUOUS
  66
1
  70
0
  40
0.0098
  41
0.0098
  0
VERTEX
  8
Net
  10
4.4156
  20
1.0304
  42
0
  0
VERTEX
  8
Net
  10
4.4161
  20
1.0273
  42
0
  0
VERTEX
  8
Net
  10
4.4175
  20
1.0246
  42
0
  0
VERTEX
  8
Net
  10
4.4197
  20
1.0224
  42
0
  0
VERTEX
  8
Net
  10
4.4224
  20
1.021
  42
0
  0
VERTEX
  8
Net
  10
4.4255
  20
1.0205
  42
0
  0
VERTEX
  8
Net
  10
4.4285
  20
1.021
  42
0
  0
VERTEX
  8
Net
  10
4.4312
  20
1.0224
  42
0
  0
VERTEX
  8
Net
  10
4.4334
  20
1.0246
  42
0
  0
VERTEX
  8
Net
  10
4.4348
  20
1.0273
  42
0
  0
VERTEX
  8
Net
  10
4.4353
  20
1.0304
  42
0
  0
VERTEX
  8
Net
  10
4.4348
  20
1.0334
  42
0
  0
VERTEX
  8
Net
  10
4.4334
  20
1.0362
  42
0
  0
VERTEX
  8
Net
  10
4.4312
  20
1.0383
  42
0
  0
VERTEX
  8
Net
  10
4.4285
  20
1.0397
  42
0
  0
VERTEX
  8
Net
  10
4.4255
  20
1.0402
  42
0
  0
VERTEX
  8
Net
  10
4.4224
  20
1.0397
  42
0
  0
VERTEX
  8
Net
  10
4.4197
  20
1.0383
  42
0
  0
VERTEX
  8
Net
  10
4.4175
  20
1.0362
  42
0
  0
VERTEX
  8
Net
  10
4.4161
  20
1.0334
  42
0
  0
VERTEX
  8
Net
  10
4.4156
  20
1.0304
  42
0
  0
SEQEND
  0
POLYLINE
  8
Net
  6
CONTINUOUS
  66
1
  70
0
  40
0.0049
  41
0.0049
  0
VERTEX
  8
Net
  10
4.4132
  20
1.0304
  42
1
  0
VERTEX
  8
Net
  10
4.4181
  20
1.0304
  42
1
  0
VERTEX
  8
Net
  10
4.4132
  20
1.0304
  42
1
  0
SEQEND
  0
POLYLINE
  8
Net
  6
CONTINUOUS
  66
1
  70
0
  40
0.0098
  41
0.0098
  0
VERTEX
  8
Net
  10
4.4255
  20
0.7304
  42
0
  0
VERTEX
  8
Net
  10
4.4255
  20
1.0304
  42
0
  0
SEQEND
  0
POLYLINE
  8
Net
  6
CONTINUOUS
  66
1
  70
0
  40
0.0049
  41
0.0049
  0
VERTEX
  8
Net
  10
4.423
  20
0.7304
  42
1
  0
VERTEX
  8
Net
  10
4.4279
  20
0.7304
  42
1
  0
VERTEX
  8
Net
  10
4.423
  20
0.7304
  42
1
  0
SEQEND
  0
POLYLINE
  8
Net
  6
CONTINUOUS
  66
1
  70
0
  40
0.0049
  41
0.0049
  0
VERTEX
  8
Net
  10
4.423
  20
1.0304
  42
1
  0
VERTEX
  8
Net
  10
4.4279
  20
1.0304
  42
1
  0
VERTEX
  8
Net
  10
4.423
  20
1.0304
  42
1
  0
SEQEND
  0
POLYLINE
  8
Net
  6
CONTINUOUS
  66
1
  70
0
  40
0.0098
  41
0.0098
  0
VERTEX
  8
Net
  10
1.4966
  20
0.3679
  42
0
  0
VERTEX
  8
Net
  10
1.497
  20
0.3649
  42
0
  0
VERTEX
  8
Net
  10
1.4984
  20
0.3622
  42
0
  0
VERTEX
  8
Net
  10
1.5006
  20
0.36
  42
0
  0
VERTEX
  8
Net
  10
1.5034
  20
0.3586
  42
0
  0
VERTEX
  8
Net
  10
1.5064
  20
0.3581
  42
0
  0
VERTEX
  8
Net
  10
1.5094
  20
0.3586
  42
0
  0
VERTEX
  8
Net
  10
1.5122
  20
0.36
  42
0
  0
VERTEX
  8
Net
  10
1.5144
  20
0.3622
  42
0
  0
VERTEX
  8
Net
  10
1.5158
  20
0.3649
  42
0
  0
VERTEX
  8
Net
  10
1.5162
  20
0.3679
  42
0
  0
VERTEX
  8
Net
  10
1.5158
  20
0.371
  42
0
  0
VERTEX
  8
Net
  10
1.5144
  20
0.3737
  42
0
  0
VERTEX
  8
Net
  10
1.5122
  20
0.3759
  42
0
  0
VERTEX
  8
Net
  10
1.5094
  20
0.3773
  42
0
  0
VERTEX
  8
Net
  10
1.5064
  20
0.3778
  42
0
  0
VERTEX
  8
Net
  10
1.5034
  20
0.3773
  42
0
  0
VERTEX
  8
Net
  10
1.5006
  20
0.3759
  42
0
  0
VERTEX
  8
Net
  10
1.4984
  20
0.3737
  42
0
  0
VERTEX
  8
Net
  10
1.497
  20
0.371
  42
0
  0
VERTEX
  8
Net
  10
1.4966
  20
0.3679
  42
0
  0
SEQEND
  0
POLYLINE
  8
Net
  6
CONTINUOUS
  66
1
  70
0
  40
0.0049
  41
0.0049
  0
VERTEX
  8
Net
  10
1.4941
  20
0.3679
  42
1
  0
VERTEX
  8
Net
  10
1.499
  20
0.3679
  42
1
  0
VERTEX
  8
Net
  10
1.4941
  20
0.3679
  42
1
  0
SEQEND
  0
POLYLINE
  8
Net
  6
CONTINUOUS
  66
1
  70
0
  40
0.0098
  41
0.0098
  0
VERTEX
  8
Net
  10
2.1128
  20
0.3679
  42
0
  0
VERTEX
  8
Net
  10
1.5064
  20
0.3679
  42
0
  0
SEQEND
  0
POLYLINE
  8
Net
  6
CONTINUOUS
  66
1
  70
0
  40
0.0049
  41
0.0049
  0
VERTEX
  8
Net
  10
2.1103
  20
0.3679
  42
1
  0
VERTEX
  8
Net
  10
2.1152
  20
0.3679
  42
1
  0
VERTEX
  8
Net
  10
2.1103
  20
0.3679
  42
1
  0
SEQEND
  0
POLYLINE
  8
Net
  6
CONTINUOUS
  66
1
  70
0
  40
0.0049
  41
0.0049
  0
VERTEX
  8
Net
  10
1.5039
  20
0.3679
  42
1
  0
VERTEX
  8
Net
  10
1.5089
  20
0.3679
  42
1
  0
VERTEX
  8
Net
  10
1.5039
  20
0.3679
  42
1
  0
SEQEND
  0
POLYLINE
  8
Net
  6
CONTINUOUS
  66
1
  70
0
  40
0.0098
  41
0.0098
  0
VERTEX
  8
Net
  10
0.0937
  20
1.6929
  42
0
  0
VERTEX
  8
Net
  10
0.0937
  20
1.7492
  42
0
  0
SEQEND
  0
POLYLINE
  8
Net
  6
CONTINUOUS
  66
1
  70
0
  40
0.0049
  41
0.0049
  0
VERTEX
  8
Net
  10
0.0913
  20
1.6929
  42
1
  0
VERTEX
  8
Net
  10
0.0962
  20
1.6929
  42
1
  0
VERTEX
  8
Net
  10
0.0913
  20
1.6929
  42
1
  0
SEQEND
  0
POLYLINE
  8
Net
  6
CONTINUOUS
  66
1
  70
0
  40
0.0049
  41
0.0049
  0
VERTEX
  8
Net
  10
0.0913
  20
1.7492
  42
1
  0
VERTEX
  8
Net
  10
0.0962
  20
1.7492
  42
1
  0
VERTEX
  8
Net
  10
0.0913
  20
1.7492
  42
1
  0
SEQEND
  0
POLYLINE
  8
Net
  6
CONTINUOUS
  66
1
  70
0
  40
0.0098
  41
0.0098
  0
VERTEX
  8
Net
  10
0.0937
  20
1.7492
  42
0
  0
VERTEX
  8
Net
  10
0.4688
  20
1.7492
  42
0
  0
SEQEND
  0
POLYLINE
  8
Net
  6
CONTINUOUS
  66
1
  70
0
  40
0.0049
  41
0.0049
  0
VERTEX
  8
Net
  10
0.0913
  20
1.7492
  42
1
  0
VERTEX
  8
Net
  10
0.0962
  20
1.7492
  42
1
  0
VERTEX
  8
Net
  10
0.0913
  20
1.7492
  42
1
  0
SEQEND
  0
POLYLINE
  8
Net
  6
CONTINUOUS
  66
1
  70
0
  40
0.0049
  41
0.0049
  0
VERTEX
  8
Net
  10
0.4663
  20
1.7492
  42
1
  0
VERTEX
  8
Net
  10
0.4712
  20
1.7492
  42
1
  0
VERTEX
  8
Net
  10
0.4663
  20
1.7492
  42
1
  0
SEQEND
  0
POLYLINE
  8
Net
  6
CONTINUOUS
  66
1
  70
0
  40
0.0098
  41
0.0098
  0
VERTEX
  8
Net
  10
0.4688
  20
1.7492
  42
0
  0
VERTEX
  8
Net
  10
0.4688
  20
1.6929
  42
0
  0
SEQEND
  0
POLYLINE
  8
Net
  6
CONTINUOUS
  66
1
  70
0
  40
0.0049
  41
0.0049
  0
VERTEX
  8
Net
  10
0.4663
  20
1.7492
  42
1
  0
VERTEX
  8
Net
  10
0.4712
  20
1.7492
  42
1
  0
VERTEX
  8
Net
  10
0.4663
  20
1.7492
  42
1
  0
SEQEND
  0
POLYLINE
  8
Net
  6
CONTINUOUS
  66
1
  70
0
  40
0.0049
  41
0.0049
  0
VERTEX
  8
Net
  10
0.4663
  20
1.6929
  42
1
  0
VERTEX
  8
Net
  10
0.4712
  20
1.6929
  42
1
  0
VERTEX
  8
Net
  10
0.4663
  20
1.6929
  42
1
  0
SEQEND
  0
POLYLINE
  8
Net
  6
CONTINUOUS
  66
1
  70
0
  40
0.0098
  41
0.0098
  0
VERTEX
  8
Net
  10
0.4589
  20
1.7492
  42
0
  0
VERTEX
  8
Net
  10
0.4594
  20
1.7462
  42
0
  0
VERTEX
  8
Net
  10
0.4608
  20
1.7434
  42
0
  0
VERTEX
  8
Net
  10
0.463
  20
1.7412
  42
0
  0
VERTEX
  8
Net
  10
0.4657
  20
1.7399
  42
0
  0
VERTEX
  8
Net
  10
0.4688
  20
1.7394
  42
0
  0
VERTEX
  8
Net
  10
0.4718
  20
1.7399
  42
0
  0
VERTEX
  8
Net
  10
0.4746
  20
1.7412
  42
0
  0
VERTEX
  8
Net
  10
0.4768
  20
1.7434
  42
0
  0
VERTEX
  8
Net
  10
0.4781
  20
1.7462
  42
0
  0
VERTEX
  8
Net
  10
0.4786
  20
1.7492
  42
0
  0
VERTEX
  8
Net
  10
0.4781
  20
1.7523
  42
0
  0
VERTEX
  8
Net
  10
0.4768
  20
1.755
  42
0
  0
VERTEX
  8
Net
  10
0.4746
  20
1.7572
  42
0
  0
VERTEX
  8
Net
  10
0.4718
  20
1.7586
  42
0
  0
VERTEX
  8
Net
  10
0.4688
  20
1.7591
  42
0
  0
VERTEX
  8
Net
  10
0.4657
  20
1.7586
  42
0
  0
VERTEX
  8
Net
  10
0.463
  20
1.7572
  42
0
  0
VERTEX
  8
Net
  10
0.4608
  20
1.755
  42
0
  0
VERTEX
  8
Net
  10
0.4594
  20
1.7523
  42
0
  0
VERTEX
  8
Net
  10
0.4589
  20
1.7492
  42
0
  0
SEQEND
  0
POLYLINE
  8
Net
  6
CONTINUOUS
  66
1
  70
0
  40
0.0049
  41
0.0049
  0
VERTEX
  8
Net
  10
0.4565
  20
1.7492
  42
1
  0
VERTEX
  8
Net
  10
0.4614
  20
1.7492
  42
1
  0
VERTEX
  8
Net
  10
0.4565
  20
1.7492
  42
1
  0
SEQEND
  0
POLYLINE
  8
Net
  6
CONTINUOUS
  66
1
  70
0
  40
0.0098
  41
0.0098
  0
VERTEX
  8
Net
  10
0.8501
  20
1.6929
  42
0
  0
VERTEX
  8
Net
  10
0.8501
  20
1.7492
  42
0
  0
SEQEND
  0
POLYLINE
  8
Net
  6
CONTINUOUS
  66
1
  70
0
  40
0.0049
  41
0.0049
  0
VERTEX
  8
Net
  10
0.8476
  20
1.6929
  42
1
  0
VERTEX
  8
Net
  10
0.8525
  20
1.6929
  42
1
  0
VERTEX
  8
Net
  10
0.8476
  20
1.6929
  42
1
  0
SEQEND
  0
POLYLINE
  8
Net
  6
CONTINUOUS
  66
1
  70
0
  40
0.0049
  41
0.0049
  0
VERTEX
  8
Net
  10
0.8476
  20
1.7492
  42
1
  0
VERTEX
  8
Net
  10
0.8525
  20
1.7492
  42
1
  0
VERTEX
  8
Net
  10
0.8476
  20
1.7492
  42
1
  0
SEQEND
  0
POLYLINE
  8
Net
  6
CONTINUOUS
  66
1
  70
0
  40
0.0098
  41
0.0098
  0
VERTEX
  8
Net
  10
0.8501
  20
1.7492
  42
0
  0
VERTEX
  8
Net
  10
0.4688
  20
1.7492
  42
0
  0
SEQEND
  0
POLYLINE
  8
Net
  6
CONTINUOUS
  66
1
  70
0
  40
0.0049
  41
0.0049
  0
VERTEX
  8
Net
  10
0.8476
  20
1.7492
  42
1
  0
VERTEX
  8
Net
  10
0.8525
  20
1.7492
  42
1
  0
VERTEX
  8
Net
  10
0.8476
  20
1.7492
  42
1
  0
SEQEND
  0
POLYLINE
  8
Net
  6
CONTINUOUS
  66
1
  70
0
  40
0.0049
  41
0.0049
  0
VERTEX
  8
Net
  10
0.4663
  20
1.7492
  42
1
  0
VERTEX
  8
Net
  10
0.4712
  20
1.7492
  42
1
  0
VERTEX
  8
Net
  10
0.4663
  20
1.7492
  42
1
  0
SEQEND
  0
POLYLINE
  8
Net
  6
CONTINUOUS
  66
1
  70
0
  40
0.0098
  41
0.0098
  0
VERTEX
  8
Net
  10
0.4688
  20
1.7492
  42
0
  0
VERTEX
  8
Net
  10
0.4688
  20
1.7492
  42
0
  0
SEQEND
  0
POLYLINE
  8
Net
  6
CONTINUOUS
  66
1
  70
0
  40
0.0049
  41
0.0049
  0
VERTEX
  8
Net
  10
0.4663
  20
1.7492
  42
1
  0
VERTEX
  8
Net
  10
0.4712
  20
1.7492
  42
1
  0
VERTEX
  8
Net
  10
0.4663
  20
1.7492
  42
1
  0
SEQEND
  0
POLYLINE
  8
Net
  6
CONTINUOUS
  66
1
  70
0
  40
0.0098
  41
0.0098
  0
VERTEX
  8
Net
  10
0.4688
  20
1.7492
  42
0
  0
VERTEX
  8
Net
  10
0.4688
  20
1.7492
  42
0
  0
SEQEND
  0
POLYLINE
  8
Net
  6
CONTINUOUS
  66
1
  70
0
  40
0.0049
  41
0.0049
  0
VERTEX
  8
Net
  10
0.4663
  20
1.7492
  42
1
  0
VERTEX
  8
Net
  10
0.4712
  20
1.7492
  42
1
  0
VERTEX
  8
Net
  10
0.4663
  20
1.7492
  42
1
  0
SEQEND
  0
POLYLINE
  8
Net
  6
CONTINUOUS
  66
1
  70
0
  40
0.0098
  41
0.0098
  0
VERTEX
  8
Net
  10
0.8402
  20
1.7492
  42
0
  0
VERTEX
  8
Net
  10
0.8407
  20
1.7462
  42
0
  0
VERTEX
  8
Net
  10
0.8421
  20
1.7434
  42
0
  0
VERTEX
  8
Net
  10
0.8443
  20
1.7412
  42
0
  0
VERTEX
  8
Net
  10
0.847
  20
1.7399
  42
0
  0
VERTEX
  8
Net
  10
0.8501
  20
1.7394
  42
0
  0
VERTEX
  8
Net
  10
0.8531
  20
1.7399
  42
0
  0
VERTEX
  8
Net
  10
0.8559
  20
1.7412
  42
0
  0
VERTEX
  8
Net
  10
0.858
  20
1.7434
  42
0
  0
VERTEX
  8
Net
  10
0.8594
  20
1.7462
  42
0
  0
VERTEX
  8
Net
  10
0.8599
  20
1.7492
  42
0
  0
VERTEX
  8
Net
  10
0.8594
  20
1.7523
  42
0
  0
VERTEX
  8
Net
  10
0.858
  20
1.755
  42
0
  0
VERTEX
  8
Net
  10
0.8559
  20
1.7572
  42
0
  0
VERTEX
  8
Net
  10
0.8531
  20
1.7586
  42
0
  0
VERTEX
  8
Net
  10
0.8501
  20
1.7591
  42
0
  0
VERTEX
  8
Net
  10
0.847
  20
1.7586
  42
0
  0
VERTEX
  8
Net
  10
0.8443
  20
1.7572
  42
0
  0
VERTEX
  8
Net
  10
0.8421
  20
1.755
  42
0
  0
VERTEX
  8
Net
  10
0.8407
  20
1.7523
  42
0
  0
VERTEX
  8
Net
  10
0.8402
  20
1.7492
  42
0
  0
SEQEND
  0
POLYLINE
  8
Net
  6
CONTINUOUS
  66
1
  70
0
  40
0.0049
  41
0.0049
  0
VERTEX
  8
Net
  10
0.8378
  20
1.7492
  42
1
  0
VERTEX
  8
Net
  10
0.8427
  20
1.7492
  42
1
  0
VERTEX
  8
Net
  10
0.8378
  20
1.7492
  42
1
  0
SEQEND
  0
POLYLINE
  8
Net
  6
CONTINUOUS
  66
1
  70
0
  40
0.0098
  41
0.0098
  0
VERTEX
  8
Net
  10
1.2439
  20
1.6929
  42
0
  0
VERTEX
  8
Net
  10
1.2439
  20
1.7492
  42
0
  0
SEQEND
  0
POLYLINE
  8
Net
  6
CONTINUOUS
  66
1
  70
0
  40
0.0049
  41
0.0049
  0
VERTEX
  8
Net
  10
1.2414
  20
1.6929
  42
1
  0
VERTEX
  8
Net
  10
1.2463
  20
1.6929
  42
1
  0
VERTEX
  8
Net
  10
1.2414
  20
1.6929
  42
1
  0
SEQEND
  0
POLYLINE
  8
Net
  6
CONTINUOUS
  66
1
  70
0
  40
0.0049
  41
0.0049
  0
VERTEX
  8
Net
  10
1.2414
  20
1.7492
  42
1
  0
VERTEX
  8
Net
  10
1.2463
  20
1.7492
  42
1
  0
VERTEX
  8
Net
  10
1.2414
  20
1.7492
  42
1
  0
SEQEND
  0
POLYLINE
  8
Net
  6
CONTINUOUS
  66
1
  70
0
  40
0.0098
  41
0.0098
  0
VERTEX
  8
Net
  10
1.2439
  20
1.7492
  42
0
  0
VERTEX
  8
Net
  10
0.8501
  20
1.7492
  42
0
  0
SEQEND
  0
POLYLINE
  8
Net
  6
CONTINUOUS
  66
1
  70
0
  40
0.0049
  41
0.0049
  0
VERTEX
  8
Net
  10
1.2414
  20
1.7492
  42
1
  0
VERTEX
  8
Net
  10
1.2463
  20
1.7492
  42
1
  0
VERTEX
  8
Net
  10
1.2414
  20
1.7492
  42
1
  0
SEQEND
  0
POLYLINE
  8
Net
  6
CONTINUOUS
  66
1
  70
0
  40
0.0049
  41
0.0049
  0
VERTEX
  8
Net
  10
0.8476
  20
1.7492
  42
1
  0
VERTEX
  8
Net
  10
0.8525
  20
1.7492
  42
1
  0
VERTEX
  8
Net
  10
0.8476
  20
1.7492
  42
1
  0
SEQEND
  0
POLYLINE
  8
Net
  6
CONTINUOUS
  66
1
  70
0
  40
0.0098
  41
0.0098
  0
VERTEX
  8
Net
  10
1.5628
  20
1.4179
  42
0
  0
VERTEX
  8
Net
  10
1.5064
  20
1.4179
  42
0
  0
SEQEND
  0
POLYLINE
  8
Net
  6
CONTINUOUS
  66
1
  70
0
  40
0.0049
  41
0.0049
  0
VERTEX
  8
Net
  10
1.5603
  20
1.4179
  42
1
  0
VERTEX
  8
Net
  10
1.5652
  20
1.4179
  42
1
  0
VERTEX
  8
Net
  10
1.5603
  20
1.4179
  42
1
  0
SEQEND
  0
POLYLINE
  8
Net
  6
CONTINUOUS
  66
1
  70
0
  40
0.0049
  41
0.0049
  0
VERTEX
  8
Net
  10
1.5039
  20
1.4179
  42
1
  0
VERTEX
  8
Net
  10
1.5089
  20
1.4179
  42
1
  0
VERTEX
  8
Net
  10
1.5039
  20
1.4179
  42
1
  0
SEQEND
  0
POLYLINE
  8
Net
  6
CONTINUOUS
  66
1
  70
0
  40
0.0098
  41
0.0098
  0
VERTEX
  8
Net
  10
1.5064
  20
1.4179
  42
0
  0
VERTEX
  8
Net
  10
1.5064
  20
1.5179
  42
0
  0
SEQEND
  0
POLYLINE
  8
Net
  6
CONTINUOUS
  66
1
  70
0
  40
0.0049
  41
0.0049
  0
VERTEX
  8
Net
  10
1.5039
  20
1.4179
  42
1
  0
VERTEX
  8
Net
  10
1.5089
  20
1.4179
  42
1
  0
VERTEX
  8
Net
  10
1.5039
  20
1.4179
  42
1
  0
SEQEND
  0
POLYLINE
  8
Net
  6
CONTINUOUS
  66
1
  70
0
  40
0.0049
  41
0.0049
  0
VERTEX
  8
Net
  10
1.5039
  20
1.5179
  42
1
  0
VERTEX
  8
Net
  10
1.5089
  20
1.5179
  42
1
  0
VERTEX
  8
Net
  10
1.5039
  20
1.5179
  42
1
  0
SEQEND
  0
POLYLINE
  8
Net
  6
CONTINUOUS
  66
1
  70
0
  40
0.0098
  41
0.0098
  0
VERTEX
  8
Net
  10
1.5064
  20
1.5179
  42
0
  0
VERTEX
  8
Net
  10
1.5628
  20
1.5179
  42
0
  0
SEQEND
  0
POLYLINE
  8
Net
  6
CONTINUOUS
  66
1
  70
0
  40
0.0049
  41
0.0049
  0
VERTEX
  8
Net
  10
1.5039
  20
1.5179
  42
1
  0
VERTEX
  8
Net
  10
1.5089
  20
1.5179
  42
1
  0
VERTEX
  8
Net
  10
1.5039
  20
1.5179
  42
1
  0
SEQEND
  0
POLYLINE
  8
Net
  6
CONTINUOUS
  66
1
  70
0
  40
0.0049
  41
0.0049
  0
VERTEX
  8
Net
  10
1.5603
  20
1.5179
  42
1
  0
VERTEX
  8
Net
  10
1.5652
  20
1.5179
  42
1
  0
VERTEX
  8
Net
  10
1.5603
  20
1.5179
  42
1
  0
SEQEND
  0
POLYLINE
  8
Net
  6
CONTINUOUS
  66
1
  70
0
  40
0.0098
  41
0.0098
  0
VERTEX
  8
Net
  10
1.4966
  20
1.5179
  42
0
  0
VERTEX
  8
Net
  10
1.497
  20
1.5149
  42
0
  0
VERTEX
  8
Net
  10
1.4984
  20
1.5122
  42
0
  0
VERTEX
  8
Net
  10
1.5006
  20
1.51
  42
0
  0
VERTEX
  8
Net
  10
1.5034
  20
1.5086
  42
0
  0
VERTEX
  8
Net
  10
1.5064
  20
1.5081
  42
0
  0
VERTEX
  8
Net
  10
1.5094
  20
1.5086
  42
0
  0
VERTEX
  8
Net
  10
1.5122
  20
1.51
  42
0
  0
VERTEX
  8
Net
  10
1.5144
  20
1.5122
  42
0
  0
VERTEX
  8
Net
  10
1.5158
  20
1.5149
  42
0
  0
VERTEX
  8
Net
  10
1.5162
  20
1.5179
  42
0
  0
VERTEX
  8
Net
  10
1.5158
  20
1.521
  42
0
  0
VERTEX
  8
Net
  10
1.5144
  20
1.5237
  42
0
  0
VERTEX
  8
Net
  10
1.5122
  20
1.5259
  42
0
  0
VERTEX
  8
Net
  10
1.5094
  20
1.5273
  42
0
  0
VERTEX
  8
Net
  10
1.5064
  20
1.5278
  42
0
  0
VERTEX
  8
Net
  10
1.5034
  20
1.5273
  42
0
  0
VERTEX
  8
Net
  10
1.5006
  20
1.5259
  42
0
  0
VERTEX
  8
Net
  10
1.4984
  20
1.5237
  42
0
  0
VERTEX
  8
Net
  10
1.497
  20
1.521
  42
0
  0
VERTEX
  8
Net
  10
1.4966
  20
1.5179
  42
0
  0
SEQEND
  0
POLYLINE
  8
Net
  6
CONTINUOUS
  66
1
  70
0
  40
0.0049
  41
0.0049
  0
VERTEX
  8
Net
  10
1.4941
  20
1.5179
  42
1
  0
VERTEX
  8
Net
  10
1.499
  20
1.5179
  42
1
  0
VERTEX
  8
Net
  10
1.4941
  20
1.5179
  42
1
  0
SEQEND
  0
POLYLINE
  8
Net
  6
CONTINUOUS
  66
1
  70
0
  40
0.0098
  41
0.0098
  0
VERTEX
  8
Net
  10
1.234
  20
1.7492
  42
0
  0
VERTEX
  8
Net
  10
1.2345
  20
1.7462
  42
0
  0
VERTEX
  8
Net
  10
1.2359
  20
1.7434
  42
0
  0
VERTEX
  8
Net
  10
1.2381
  20
1.7412
  42
0
  0
VERTEX
  8
Net
  10
1.2408
  20
1.7399
  42
0
  0
VERTEX
  8
Net
  10
1.2439
  20
1.7394
  42
0
  0
VERTEX
  8
Net
  10
1.2469
  20
1.7399
  42
0
  0
VERTEX
  8
Net
  10
1.2497
  20
1.7412
  42
0
  0
VERTEX
  8
Net
  10
1.2518
  20
1.7434
  42
0
  0
VERTEX
  8
Net
  10
1.2532
  20
1.7462
  42
0
  0
VERTEX
  8
Net
  10
1.2537
  20
1.7492
  42
0
  0
VERTEX
  8
Net
  10
1.2532
  20
1.7523
  42
0
  0
VERTEX
  8
Net
  10
1.2518
  20
1.755
  42
0
  0
VERTEX
  8
Net
  10
1.2497
  20
1.7572
  42
0
  0
VERTEX
  8
Net
  10
1.2469
  20
1.7586
  42
0
  0
VERTEX
  8
Net
  10
1.2439
  20
1.7591
  42
0
  0
VERTEX
  8
Net
  10
1.2408
  20
1.7586
  42
0
  0
VERTEX
  8
Net
  10
1.2381
  20
1.7572
  42
0
  0
VERTEX
  8
Net
  10
1.2359
  20
1.755
  42
0
  0
VERTEX
  8
Net
  10
1.2345
  20
1.7523
  42
0
  0
VERTEX
  8
Net
  10
1.234
  20
1.7492
  42
0
  0
SEQEND
  0
POLYLINE
  8
Net
  6
CONTINUOUS
  66
1
  70
0
  40
0.0049
  41
0.0049
  0
VERTEX
  8
Net
  10
1.2316
  20
1.7492
  42
1
  0
VERTEX
  8
Net
  10
1.2365
  20
1.7492
  42
1
  0
VERTEX
  8
Net
  10
1.2316
  20
1.7492
  42
1
  0
SEQEND
  0
POLYLINE
  8
Net
  6
CONTINUOUS
  66
1
  70
0
  40
0.0098
  41
0.0098
  0
VERTEX
  8
Net
  10
1.5064
  20
1.5179
  42
0
  0
VERTEX
  8
Net
  10
1.5064
  20
1.7492
  42
0
  0
SEQEND
  0
POLYLINE
  8
Net
  6
CONTINUOUS
  66
1
  70
0
  40
0.0049
  41
0.0049
  0
VERTEX
  8
Net
  10
1.5039
  20
1.5179
  42
1
  0
VERTEX
  8
Net
  10
1.5089
  20
1.5179
  42
1
  0
VERTEX
  8
Net
  10
1.5039
  20
1.5179
  42
1
  0
SEQEND
  0
POLYLINE
  8
Net
  6
CONTINUOUS
  66
1
  70
0
  40
0.0049
  41
0.0049
  0
VERTEX
  8
Net
  10
1.5039
  20
1.7492
  42
1
  0
VERTEX
  8
Net
  10
1.5089
  20
1.7492
  42
1
  0
VERTEX
  8
Net
  10
1.5039
  20
1.7492
  42
1
  0
SEQEND
  0
POLYLINE
  8
Net
  6
CONTINUOUS
  66
1
  70
0
  40
0.0098
  41
0.0098
  0
VERTEX
  8
Net
  10
1.5064
  20
1.7492
  42
0
  0
VERTEX
  8
Net
  10
1.2439
  20
1.7492
  42
0
  0
SEQEND
  0
POLYLINE
  8
Net
  6
CONTINUOUS
  66
1
  70
0
  40
0.0049
  41
0.0049
  0
VERTEX
  8
Net
  10
1.5039
  20
1.7492
  42
1
  0
VERTEX
  8
Net
  10
1.5089
  20
1.7492
  42
1
  0
VERTEX
  8
Net
  10
1.5039
  20
1.7492
  42
1
  0
SEQEND
  0
POLYLINE
  8
Net
  6
CONTINUOUS
  66
1
  70
0
  40
0.0049
  41
0.0049
  0
VERTEX
  8
Net
  10
1.2414
  20
1.7492
  42
1
  0
VERTEX
  8
Net
  10
1.2463
  20
1.7492
  42
1
  0
VERTEX
  8
Net
  10
1.2414
  20
1.7492
  42
1
  0
SEQEND
  0
POLYLINE
  8
Net
  6
CONTINUOUS
  66
1
  70
0
  40
0.0098
  41
0.0098
  0
VERTEX
  8
Net
  10
1.4966
  20
1.4179
  42
0
  0
VERTEX
  8
Net
  10
1.497
  20
1.4149
  42
0
  0
VERTEX
  8
Net
  10
1.4984
  20
1.4122
  42
0
  0
VERTEX
  8
Net
  10
1.5006
  20
1.41
  42
0
  0
VERTEX
  8
Net
  10
1.5034
  20
1.4086
  42
0
  0
VERTEX
  8
Net
  10
1.5064
  20
1.4081
  42
0
  0
VERTEX
  8
Net
  10
1.5094
  20
1.4086
  42
0
  0
VERTEX
  8
Net
  10
1.5122
  20
1.41
  42
0
  0
VERTEX
  8
Net
  10
1.5144
  20
1.4122
  42
0
  0
VERTEX
  8
Net
  10
1.5158
  20
1.4149
  42
0
  0
VERTEX
  8
Net
  10
1.5162
  20
1.4179
  42
0
  0
VERTEX
  8
Net
  10
1.5158
  20
1.421
  42
0
  0
VERTEX
  8
Net
  10
1.5144
  20
1.4237
  42
0
  0
VERTEX
  8
Net
  10
1.5122
  20
1.4259
  42
0
  0
VERTEX
  8
Net
  10
1.5094
  20
1.4273
  42
0
  0
VERTEX
  8
Net
  10
1.5064
  20
1.4278
  42
0
  0
VERTEX
  8
Net
  10
1.5034
  20
1.4273
  42
0
  0
VERTEX
  8
Net
  10
1.5006
  20
1.4259
  42
0
  0
VERTEX
  8
Net
  10
1.4984
  20
1.4237
  42
0
  0
VERTEX
  8
Net
  10
1.497
  20
1.421
  42
0
  0
VERTEX
  8
Net
  10
1.4966
  20
1.4179
  42
0
  0
SEQEND
  0
POLYLINE
  8
Net
  6
CONTINUOUS
  66
1
  70
0
  40
0.0049
  41
0.0049
  0
VERTEX
  8
Net
  10
1.4941
  20
1.4179
  42
1
  0
VERTEX
  8
Net
  10
1.499
  20
1.4179
  42
1
  0
VERTEX
  8
Net
  10
1.4941
  20
1.4179
  42
1
  0
SEQEND
  0
POLYLINE
  8
Net
  6
CONTINUOUS
  66
1
  70
0
  40
0.0098
  41
0.0098
  0
VERTEX
  8
Net
  10
1.5628
  20
1.3179
  42
0
  0
VERTEX
  8
Net
  10
1.5064
  20
1.3179
  42
0
  0
SEQEND
  0
POLYLINE
  8
Net
  6
CONTINUOUS
  66
1
  70
0
  40
0.0049
  41
0.0049
  0
VERTEX
  8
Net
  10
1.5603
  20
1.3179
  42
1
  0
VERTEX
  8
Net
  10
1.5652
  20
1.3179
  42
1
  0
VERTEX
  8
Net
  10
1.5603
  20
1.3179
  42
1
  0
SEQEND
  0
POLYLINE
  8
Net
  6
CONTINUOUS
  66
1
  70
0
  40
0.0049
  41
0.0049
  0
VERTEX
  8
Net
  10
1.5039
  20
1.3179
  42
1
  0
VERTEX
  8
Net
  10
1.5089
  20
1.3179
  42
1
  0
VERTEX
  8
Net
  10
1.5039
  20
1.3179
  42
1
  0
SEQEND
  0
POLYLINE
  8
Net
  6
CONTINUOUS
  66
1
  70
0
  40
0.0098
  41
0.0098
  0
VERTEX
  8
Net
  10
1.5064
  20
1.3179
  42
0
  0
VERTEX
  8
Net
  10
1.5064
  20
1.4179
  42
0
  0
SEQEND
  0
POLYLINE
  8
Net
  6
CONTINUOUS
  66
1
  70
0
  40
0.0049
  41
0.0049
  0
VERTEX
  8
Net
  10
1.5039
  20
1.3179
  42
1
  0
VERTEX
  8
Net
  10
1.5089
  20
1.3179
  42
1
  0
VERTEX
  8
Net
  10
1.5039
  20
1.3179
  42
1
  0
SEQEND
  0
POLYLINE
  8
Net
  6
CONTINUOUS
  66
1
  70
0
  40
0.0049
  41
0.0049
  0
VERTEX
  8
Net
  10
1.5039
  20
1.4179
  42
1
  0
VERTEX
  8
Net
  10
1.5089
  20
1.4179
  42
1
  0
VERTEX
  8
Net
  10
1.5039
  20
1.4179
  42
1
  0
SEQEND
  0
POLYLINE
  8
Net
  6
CONTINUOUS
  66
1
  70
0
  40
0.0098
  41
0.0098
  0
VERTEX
  8
Net
  10
0.0902
  20
1.7492
  42
0
  0
VERTEX
  8
Net
  10
0.0906
  20
1.7462
  42
0
  0
VERTEX
  8
Net
  10
0.092
  20
1.7434
  42
0
  0
VERTEX
  8
Net
  10
0.0942
  20
1.7412
  42
0
  0
VERTEX
  8
Net
  10
0.097
  20
1.7399
  42
0
  0
VERTEX
  8
Net
  10
0.1
  20
1.7394
  42
0
  0
VERTEX
  8
Net
  10
0.103
  20
1.7399
  42
0
  0
VERTEX
  8
Net
  10
0.1058
  20
1.7412
  42
0
  0
VERTEX
  8
Net
  10
0.108
  20
1.7434
  42
0
  0
VERTEX
  8
Net
  10
0.1094
  20
1.7462
  42
0
  0
VERTEX
  8
Net
  10
0.1098
  20
1.7492
  42
0
  0
VERTEX
  8
Net
  10
0.1094
  20
1.7523
  42
0
  0
VERTEX
  8
Net
  10
0.108
  20
1.755
  42
0
  0
VERTEX
  8
Net
  10
0.1058
  20
1.7572
  42
0
  0
VERTEX
  8
Net
  10
0.103
  20
1.7586
  42
0
  0
VERTEX
  8
Net
  10
0.1
  20
1.7591
  42
0
  0
VERTEX
  8
Net
  10
0.097
  20
1.7586
  42
0
  0
VERTEX
  8
Net
  10
0.0942
  20
1.7572
  42
0
  0
VERTEX
  8
Net
  10
0.092
  20
1.755
  42
0
  0
VERTEX
  8
Net
  10
0.0906
  20
1.7523
  42
0
  0
VERTEX
  8
Net
  10
0.0902
  20
1.7492
  42
0
  0
SEQEND
  0
POLYLINE
  8
Net
  6
CONTINUOUS
  66
1
  70
0
  40
0.0049
  41
0.0049
  0
VERTEX
  8
Net
  10
0.0877
  20
1.7492
  42
1
  0
VERTEX
  8
Net
  10
0.0926
  20
1.7492
  42
1
  0
VERTEX
  8
Net
  10
0.0877
  20
1.7492
  42
1
  0
SEQEND
  0
POLYLINE
  8
Net
  6
CONTINUOUS
  66
1
  70
0
  40
0.0098
  41
0.0098
  0
VERTEX
  8
Net
  10
0.1
  20
1.9867
  42
0
  0
VERTEX
  8
Net
  10
0.1
  20
1.7492
  42
0
  0
SEQEND
  0
POLYLINE
  8
Net
  6
CONTINUOUS
  66
1
  70
0
  40
0.0049
  41
0.0049
  0
VERTEX
  8
Net
  10
0.0975
  20
1.9867
  42
1
  0
VERTEX
  8
Net
  10
0.1025
  20
1.9867
  42
1
  0
VERTEX
  8
Net
  10
0.0975
  20
1.9867
  42
1
  0
SEQEND
  0
POLYLINE
  8
Net
  6
CONTINUOUS
  66
1
  70
0
  40
0.0049
  41
0.0049
  0
VERTEX
  8
Net
  10
0.0975
  20
1.7492
  42
1
  0
VERTEX
  8
Net
  10
0.1025
  20
1.7492
  42
1
  0
VERTEX
  8
Net
  10
0.0975
  20
1.7492
  42
1
  0
SEQEND
  0
POLYLINE
  8
Net
  6
CONTINUOUS
  66
1
  70
0
  40
0.0098
  41
0.0098
  0
VERTEX
  8
Net
  10
1.5628
  20
1.1179
  42
0
  0
VERTEX
  8
Net
  10
1.0126
  20
1.1179
  42
0
  0
SEQEND
  0
POLYLINE
  8
Net
  6
CONTINUOUS
  66
1
  70
0
  40
0.0049
  41
0.0049
  0
VERTEX
  8
Net
  10
1.5603
  20
1.1179
  42
1
  0
VERTEX
  8
Net
  10
1.5652
  20
1.1179
  42
1
  0
VERTEX
  8
Net
  10
1.5603
  20
1.1179
  42
1
  0
SEQEND
  0
POLYLINE
  8
Net
  6
CONTINUOUS
  66
1
  70
0
  40
0.0049
  41
0.0049
  0
VERTEX
  8
Net
  10
1.0101
  20
1.1179
  42
1
  0
VERTEX
  8
Net
  10
1.0151
  20
1.1179
  42
1
  0
VERTEX
  8
Net
  10
1.0101
  20
1.1179
  42
1
  0
SEQEND
  0
POLYLINE
  8
Net
  6
CONTINUOUS
  66
1
  70
0
  40
0.0098
  41
0.0098
  0
VERTEX
  8
Net
  10
1.0126
  20
1.1179
  42
0
  0
VERTEX
  8
Net
  10
1.0126
  20
1.0929
  42
0
  0
SEQEND
  0
POLYLINE
  8
Net
  6
CONTINUOUS
  66
1
  70
0
  40
0.0049
  41
0.0049
  0
VERTEX
  8
Net
  10
1.0101
  20
1.1179
  42
1
  0
VERTEX
  8
Net
  10
1.0151
  20
1.1179
  42
1
  0
VERTEX
  8
Net
  10
1.0101
  20
1.1179
  42
1
  0
SEQEND
  0
POLYLINE
  8
Net
  6
CONTINUOUS
  66
1
  70
0
  40
0.0049
  41
0.0049
  0
VERTEX
  8
Net
  10
1.0101
  20
1.0929
  42
1
  0
VERTEX
  8
Net
  10
1.0151
  20
1.0929
  42
1
  0
VERTEX
  8
Net
  10
1.0101
  20
1.0929
  42
1
  0
SEQEND
  0
POLYLINE
  8
Net
  6
CONTINUOUS
  66
1
  70
0
  40
0.0098
  41
0.0098
  0
VERTEX
  8
Net
  10
2.9195
  20
0.7241
  42
0
  0
VERTEX
  8
Net
  10
2.9195
  20
0.8179
  42
0
  0
SEQEND
  0
POLYLINE
  8
Net
  6
CONTINUOUS
  66
1
  70
0
  40
0.0049
  41
0.0049
  0
VERTEX
  8
Net
  10
2.917
  20
0.7241
  42
1
  0
VERTEX
  8
Net
  10
2.9219
  20
0.7241
  42
1
  0
VERTEX
  8
Net
  10
2.917
  20
0.7241
  42
1
  0
SEQEND
  0
POLYLINE
  8
Net
  6
CONTINUOUS
  66
1
  70
0
  40
0.0049
  41
0.0049
  0
VERTEX
  8
Net
  10
2.917
  20
0.8179
  42
1
  0
VERTEX
  8
Net
  10
2.9219
  20
0.8179
  42
1
  0
VERTEX
  8
Net
  10
2.917
  20
0.8179
  42
1
  0
SEQEND
  0
POLYLINE
  8
Net
  6
CONTINUOUS
  66
1
  70
0
  40
0.0098
  41
0.0098
  0
VERTEX
  8
Net
  10
2.9195
  20
0.8179
  42
0
  0
VERTEX
  8
Net
  10
2.6628
  20
0.8179
  42
0
  0
SEQEND
  0
POLYLINE
  8
Net
  6
CONTINUOUS
  66
1
  70
0
  40
0.0049
  41
0.0049
  0
VERTEX
  8
Net
  10
2.917
  20
0.8179
  42
1
  0
VERTEX
  8
Net
  10
2.9219
  20
0.8179
  42
1
  0
VERTEX
  8
Net
  10
2.917
  20
0.8179
  42
1
  0
SEQEND
  0
POLYLINE
  8
Net
  6
CONTINUOUS
  66
1
  70
0
  40
0.0049
  41
0.0049
  0
VERTEX
  8
Net
  10
2.6603
  20
0.8179
  42
1
  0
VERTEX
  8
Net
  10
2.6652
  20
0.8179
  42
1
  0
VERTEX
  8
Net
  10
2.6603
  20
0.8179
  42
1
  0
SEQEND
  0
POLYLINE
  8
Net
  6
CONTINUOUS
  66
1
  70
0
  40
0.0098
  41
0.0098
  0
VERTEX
  8
Net
  10
2.9096
  20
0.8179
  42
0
  0
VERTEX
  8
Net
  10
2.9101
  20
0.8149
  42
0
  0
VERTEX
  8
Net
  10
2.9115
  20
0.8122
  42
0
  0
VERTEX
  8
Net
  10
2.9137
  20
0.81
  42
0
  0
VERTEX
  8
Net
  10
2.9164
  20
0.8086
  42
0
  0
VERTEX
  8
Net
  10
2.9195
  20
0.8081
  42
0
  0
VERTEX
  8
Net
  10
2.9225
  20
0.8086
  42
0
  0
VERTEX
  8
Net
  10
2.9252
  20
0.81
  42
0
  0
VERTEX
  8
Net
  10
2.9274
  20
0.8122
  42
0
  0
VERTEX
  8
Net
  10
2.9288
  20
0.8149
  42
0
  0
VERTEX
  8
Net
  10
2.9293
  20
0.8179
  42
0
  0
VERTEX
  8
Net
  10
2.9288
  20
0.821
  42
0
  0
VERTEX
  8
Net
  10
2.9274
  20
0.8237
  42
0
  0
VERTEX
  8
Net
  10
2.9252
  20
0.8259
  42
0
  0
VERTEX
  8
Net
  10
2.9225
  20
0.8273
  42
0
  0
VERTEX
  8
Net
  10
2.9195
  20
0.8278
  42
0
  0
VERTEX
  8
Net
  10
2.9164
  20
0.8273
  42
0
  0
VERTEX
  8
Net
  10
2.9137
  20
0.8259
  42
0
  0
VERTEX
  8
Net
  10
2.9115
  20
0.8237
  42
0
  0
VERTEX
  8
Net
  10
2.9101
  20
0.821
  42
0
  0
VERTEX
  8
Net
  10
2.9096
  20
0.8179
  42
0
  0
SEQEND
  0
POLYLINE
  8
Net
  6
CONTINUOUS
  66
1
  70
0
  40
0.0049
  41
0.0049
  0
VERTEX
  8
Net
  10
2.9072
  20
0.8179
  42
1
  0
VERTEX
  8
Net
  10
2.9121
  20
0.8179
  42
1
  0
VERTEX
  8
Net
  10
2.9072
  20
0.8179
  42
1
  0
SEQEND
  0
POLYLINE
  8
Net
  6
CONTINUOUS
  66
1
  70
0
  40
0.0098
  41
0.0098
  0
VERTEX
  8
Net
  10
3.0195
  20
0.8179
  42
0
  0
VERTEX
  8
Net
  10
2.9195
  20
0.8179
  42
0
  0
SEQEND
  0
POLYLINE
  8
Net
  6
CONTINUOUS
  66
1
  70
0
  40
0.0049
  41
0.0049
  0
VERTEX
  8
Net
  10
3.017
  20
0.8179
  42
1
  0
VERTEX
  8
Net
  10
3.0219
  20
0.8179
  42
1
  0
VERTEX
  8
Net
  10
3.017
  20
0.8179
  42
1
  0
SEQEND
  0
POLYLINE
  8
Net
  6
CONTINUOUS
  66
1
  70
0
  40
0.0049
  41
0.0049
  0
VERTEX
  8
Net
  10
2.917
  20
0.8179
  42
1
  0
VERTEX
  8
Net
  10
2.9219
  20
0.8179
  42
1
  0
VERTEX
  8
Net
  10
2.917
  20
0.8179
  42
1
  0
SEQEND
  0
POLYLINE
  8
Net
  6
CONTINUOUS
  66
1
  70
0
  40
0.0098
  41
0.0098
  0
VERTEX
  8
Net
  10
2.6628
  20
1.2179
  42
0
  0
VERTEX
  8
Net
  10
2.6878
  20
1.2179
  42
0
  0
SEQEND
  0
POLYLINE
  8
Net
  6
CONTINUOUS
  66
1
  70
0
  40
0.0049
  41
0.0049
  0
VERTEX
  8
Net
  10
2.6603
  20
1.2179
  42
1
  0
VERTEX
  8
Net
  10
2.6652
  20
1.2179
  42
1
  0
VERTEX
  8
Net
  10
2.6603
  20
1.2179
  42
1
  0
SEQEND
  0
POLYLINE
  8
Net
  6
CONTINUOUS
  66
1
  70
0
  40
0.0049
  41
0.0049
  0
VERTEX
  8
Net
  10
2.6854
  20
1.2179
  42
1
  0
VERTEX
  8
Net
  10
2.6903
  20
1.2179
  42
1
  0
VERTEX
  8
Net
  10
2.6854
  20
1.2179
  42
1
  0
SEQEND
  0
POLYLINE
  8
Net
  6
CONTINUOUS
  66
1
  70
0
  40
0.0098
  41
0.0098
  0
VERTEX
  8
Net
  10
2.6628
  20
1.4179
  42
0
  0
VERTEX
  8
Net
  10
2.7253
  20
1.4179
  42
0
  0
SEQEND
  0
POLYLINE
  8
Net
  6
CONTINUOUS
  66
1
  70
0
  40
0.0049
  41
0.0049
  0
VERTEX
  8
Net
  10
2.6603
  20
1.4179
  42
1
  0
VERTEX
  8
Net
  10
2.6652
  20
1.4179
  42
1
  0
VERTEX
  8
Net
  10
2.6603
  20
1.4179
  42
1
  0
SEQEND
  0
POLYLINE
  8
Net
  6
CONTINUOUS
  66
1
  70
0
  40
0.0049
  41
0.0049
  0
VERTEX
  8
Net
  10
2.7228
  20
1.4179
  42
1
  0
VERTEX
  8
Net
  10
2.7277
  20
1.4179
  42
1
  0
VERTEX
  8
Net
  10
2.7228
  20
1.4179
  42
1
  0
SEQEND
  0
POLYLINE
  8
Net
  6
CONTINUOUS
  66
1
  70
0
  40
0.0098
  41
0.0098
  0
VERTEX
  8
Net
  10
2.7253
  20
1.4179
  42
0
  0
VERTEX
  8
Net
  10
2.7253
  20
1.5179
  42
0
  0
SEQEND
  0
POLYLINE
  8
Net
  6
CONTINUOUS
  66
1
  70
0
  40
0.0049
  41
0.0049
  0
VERTEX
  8
Net
  10
2.7228
  20
1.4179
  42
1
  0
VERTEX
  8
Net
  10
2.7277
  20
1.4179
  42
1
  0
VERTEX
  8
Net
  10
2.7228
  20
1.4179
  42
1
  0
SEQEND
  0
POLYLINE
  8
Net
  6
CONTINUOUS
  66
1
  70
0
  40
0.0049
  41
0.0049
  0
VERTEX
  8
Net
  10
2.7228
  20
1.5179
  42
1
  0
VERTEX
  8
Net
  10
2.7277
  20
1.5179
  42
1
  0
VERTEX
  8
Net
  10
2.7228
  20
1.5179
  42
1
  0
SEQEND
  0
POLYLINE
  8
Net
  6
CONTINUOUS
  66
1
  70
0
  40
0.0098
  41
0.0098
  0
VERTEX
  8
Net
  10
2.7253
  20
1.5179
  42
0
  0
VERTEX
  8
Net
  10
2.6628
  20
1.5179
  42
0
  0
SEQEND
  0
POLYLINE
  8
Net
  6
CONTINUOUS
  66
1
  70
0
  40
0.0049
  41
0.0049
  0
VERTEX
  8
Net
  10
2.7228
  20
1.5179
  42
1
  0
VERTEX
  8
Net
  10
2.7277
  20
1.5179
  42
1
  0
VERTEX
  8
Net
  10
2.7228
  20
1.5179
  42
1
  0
SEQEND
  0
POLYLINE
  8
Net
  6
CONTINUOUS
  66
1
  70
0
  40
0.0049
  41
0.0049
  0
VERTEX
  8
Net
  10
2.6603
  20
1.5179
  42
1
  0
VERTEX
  8
Net
  10
2.6652
  20
1.5179
  42
1
  0
VERTEX
  8
Net
  10
2.6603
  20
1.5179
  42
1
  0
SEQEND
  0
POLYLINE
  8
Net
  6
CONTINUOUS
  66
1
  70
0
  40
0.0098
  41
0.0098
  0
VERTEX
  8
Net
  10
2.7154
  20
1.5179
  42
0
  0
VERTEX
  8
Net
  10
2.7159
  20
1.5149
  42
0
  0
VERTEX
  8
Net
  10
2.7173
  20
1.5122
  42
0
  0
VERTEX
  8
Net
  10
2.7195
  20
1.51
  42
0
  0
VERTEX
  8
Net
  10
2.7222
  20
1.5086
  42
0
  0
VERTEX
  8
Net
  10
2.7253
  20
1.5081
  42
0
  0
VERTEX
  8
Net
  10
2.7283
  20
1.5086
  42
0
  0
VERTEX
  8
Net
  10
2.7311
  20
1.51
  42
0
  0
VERTEX
  8
Net
  10
2.7332
  20
1.5122
  42
0
  0
VERTEX
  8
Net
  10
2.7346
  20
1.5149
  42
0
  0
VERTEX
  8
Net
  10
2.7351
  20
1.5179
  42
0
  0
VERTEX
  8
Net
  10
2.7346
  20
1.521
  42
0
  0
VERTEX
  8
Net
  10
2.7332
  20
1.5237
  42
0
  0
VERTEX
  8
Net
  10
2.7311
  20
1.5259
  42
0
  0
VERTEX
  8
Net
  10
2.7283
  20
1.5273
  42
0
  0
VERTEX
  8
Net
  10
2.7253
  20
1.5278
  42
0
  0
VERTEX
  8
Net
  10
2.7222
  20
1.5273
  42
0
  0
VERTEX
  8
Net
  10
2.7195
  20
1.5259
  42
0
  0
VERTEX
  8
Net
  10
2.7173
  20
1.5237
  42
0
  0
VERTEX
  8
Net
  10
2.7159
  20
1.521
  42
0
  0
VERTEX
  8
Net
  10
2.7154
  20
1.5179
  42
0
  0
SEQEND
  0
POLYLINE
  8
Net
  6
CONTINUOUS
  66
1
  70
0
  40
0.0049
  41
0.0049
  0
VERTEX
  8
Net
  10
2.713
  20
1.5179
  42
1
  0
VERTEX
  8
Net
  10
2.7179
  20
1.5179
  42
1
  0
VERTEX
  8
Net
  10
2.713
  20
1.5179
  42
1
  0
SEQEND
  0
POLYLINE
  8
Net
  6
CONTINUOUS
  66
1
  70
0
  40
0.0098
  41
0.0098
  0
VERTEX
  8
Net
  10
3.2503
  20
1.5179
  42
0
  0
VERTEX
  8
Net
  10
2.7253
  20
1.5179
  42
0
  0
SEQEND
  0
POLYLINE
  8
Net
  6
CONTINUOUS
  66
1
  70
0
  40
0.0049
  41
0.0049
  0
VERTEX
  8
Net
  10
3.2479
  20
1.5179
  42
1
  0
VERTEX
  8
Net
  10
3.2528
  20
1.5179
  42
1
  0
VERTEX
  8
Net
  10
3.2479
  20
1.5179
  42
1
  0
SEQEND
  0
POLYLINE
  8
Net
  6
CONTINUOUS
  66
1
  70
0
  40
0.0049
  41
0.0049
  0
VERTEX
  8
Net
  10
2.7228
  20
1.5179
  42
1
  0
VERTEX
  8
Net
  10
2.7277
  20
1.5179
  42
1
  0
VERTEX
  8
Net
  10
2.7228
  20
1.5179
  42
1
  0
SEQEND
  0
POLYLINE
  8
Net
  6
CONTINUOUS
  66
1
  70
0
  40
0.0098
  41
0.0098
  0
VERTEX
  8
Net
  10
3.1405
  20
1.5179
  42
0
  0
VERTEX
  8
Net
  10
3.141
  20
1.5149
  42
0
  0
VERTEX
  8
Net
  10
3.1424
  20
1.5122
  42
0
  0
VERTEX
  8
Net
  10
3.1445
  20
1.51
  42
0
  0
VERTEX
  8
Net
  10
3.1473
  20
1.5086
  42
0
  0
VERTEX
  8
Net
  10
3.1503
  20
1.5081
  42
0
  0
VERTEX
  8
Net
  10
3.1534
  20
1.5086
  42
0
  0
VERTEX
  8
Net
  10
3.1561
  20
1.51
  42
0
  0
VERTEX
  8
Net
  10
3.1583
  20
1.5122
  42
0
  0
VERTEX
  8
Net
  10
3.1597
  20
1.5149
  42
0
  0
VERTEX
  8
Net
  10
3.1602
  20
1.5179
  42
0
  0
VERTEX
  8
Net
  10
3.1597
  20
1.521
  42
0
  0
VERTEX
  8
Net
  10
3.1583
  20
1.5237
  42
0
  0
VERTEX
  8
Net
  10
3.1561
  20
1.5259
  42
0
  0
VERTEX
  8
Net
  10
3.1534
  20
1.5273
  42
0
  0
VERTEX
  8
Net
  10
3.1503
  20
1.5278
  42
0
  0
VERTEX
  8
Net
  10
3.1473
  20
1.5273
  42
0
  0
VERTEX
  8
Net
  10
3.1445
  20
1.5259
  42
0
  0
VERTEX
  8
Net
  10
3.1424
  20
1.5237
  42
0
  0
VERTEX
  8
Net
  10
3.141
  20
1.521
  42
0
  0
VERTEX
  8
Net
  10
3.1405
  20
1.5179
  42
0
  0
SEQEND
  0
POLYLINE
  8
Net
  6
CONTINUOUS
  66
1
  70
0
  40
0.0049
  41
0.0049
  0
VERTEX
  8
Net
  10
3.138
  20
1.5179
  42
1
  0
VERTEX
  8
Net
  10
3.1429
  20
1.5179
  42
1
  0
VERTEX
  8
Net
  10
3.138
  20
1.5179
  42
1
  0
SEQEND
  0
POLYLINE
  8
Net
  6
CONTINUOUS
  66
1
  70
0
  40
0.0098
  41
0.0098
  0
VERTEX
  8
Net
  10
3.0878
  20
1.2179
  42
0
  0
VERTEX
  8
Net
  10
3.1503
  20
1.2179
  42
0
  0
SEQEND
  0
POLYLINE
  8
Net
  6
CONTINUOUS
  66
1
  70
0
  40
0.0049
  41
0.0049
  0
VERTEX
  8
Net
  10
3.0854
  20
1.2179
  42
1
  0
VERTEX
  8
Net
  10
3.0903
  20
1.2179
  42
1
  0
VERTEX
  8
Net
  10
3.0854
  20
1.2179
  42
1
  0
SEQEND
  0
POLYLINE
  8
Net
  6
CONTINUOUS
  66
1
  70
0
  40
0.0049
  41
0.0049
  0
VERTEX
  8
Net
  10
3.1479
  20
1.2179
  42
1
  0
VERTEX
  8
Net
  10
3.1528
  20
1.2179
  42
1
  0
VERTEX
  8
Net
  10
3.1479
  20
1.2179
  42
1
  0
SEQEND
  0
POLYLINE
  8
Net
  6
CONTINUOUS
  66
1
  70
0
  40
0.0098
  41
0.0098
  0
VERTEX
  8
Net
  10
3.1503
  20
1.2179
  42
0
  0
VERTEX
  8
Net
  10
3.1503
  20
1.5179
  42
0
  0
SEQEND
  0
POLYLINE
  8
Net
  6
CONTINUOUS
  66
1
  70
0
  40
0.0049
  41
0.0049
  0
VERTEX
  8
Net
  10
3.1479
  20
1.2179
  42
1
  0
VERTEX
  8
Net
  10
3.1528
  20
1.2179
  42
1
  0
VERTEX
  8
Net
  10
3.1479
  20
1.2179
  42
1
  0
SEQEND
  0
POLYLINE
  8
Net
  6
CONTINUOUS
  66
1
  70
0
  40
0.0049
  41
0.0049
  0
VERTEX
  8
Net
  10
3.1479
  20
1.5179
  42
1
  0
VERTEX
  8
Net
  10
3.1528
  20
1.5179
  42
1
  0
VERTEX
  8
Net
  10
3.1479
  20
1.5179
  42
1
  0
SEQEND
  0
POLYLINE
  8
Net
  6
CONTINUOUS
  66
1
  70
0
  40
0.0098
  41
0.0098
  0
VERTEX
  8
Net
  10
3.6503
  20
1.5179
  42
0
  0
VERTEX
  8
Net
  10
4.0442
  20
1.5179
  42
0
  0
SEQEND
  0
POLYLINE
  8
Net
  6
CONTINUOUS
  66
1
  70
0
  40
0.0049
  41
0.0049
  0
VERTEX
  8
Net
  10
3.6479
  20
1.5179
  42
1
  0
VERTEX
  8
Net
  10
3.6528
  20
1.5179
  42
1
  0
VERTEX
  8
Net
  10
3.6479
  20
1.5179
  42
1
  0
SEQEND
  0
POLYLINE
  8
Net
  6
CONTINUOUS
  66
1
  70
0
  40
0.0049
  41
0.0049
  0
VERTEX
  8
Net
  10
4.0417
  20
1.5179
  42
1
  0
VERTEX
  8
Net
  10
4.0466
  20
1.5179
  42
1
  0
VERTEX
  8
Net
  10
4.0417
  20
1.5179
  42
1
  0
SEQEND
  0
POLYLINE
  8
Net
  6
CONTINUOUS
  66
1
  70
0
  40
0.0098
  41
0.0098
  0
VERTEX
  8
Net
  10
4.0442
  20
1.5179
  42
0
  0
VERTEX
  8
Net
  10
4.0442
  20
1.5304
  42
0
  0
SEQEND
  0
POLYLINE
  8
Net
  6
CONTINUOUS
  66
1
  70
0
  40
0.0049
  41
0.0049
  0
VERTEX
  8
Net
  10
4.0417
  20
1.5179
  42
1
  0
VERTEX
  8
Net
  10
4.0466
  20
1.5179
  42
1
  0
VERTEX
  8
Net
  10
4.0417
  20
1.5179
  42
1
  0
SEQEND
  0
POLYLINE
  8
Net
  6
CONTINUOUS
  66
1
  70
0
  40
0.0049
  41
0.0049
  0
VERTEX
  8
Net
  10
4.0417
  20
1.5304
  42
1
  0
VERTEX
  8
Net
  10
4.0466
  20
1.5304
  42
1
  0
VERTEX
  8
Net
  10
4.0417
  20
1.5304
  42
1
  0
SEQEND
  0
POLYLINE
  8
Net
  6
CONTINUOUS
  66
1
  70
0
  40
0.0098
  41
0.0098
  0
VERTEX
  8
Net
  10
4.0343
  20
1.5181
  42
0
  0
VERTEX
  8
Net
  10
4.0348
  20
1.5151
  42
0
  0
VERTEX
  8
Net
  10
4.0362
  20
1.5124
  42
0
  0
VERTEX
  8
Net
  10
4.0384
  20
1.5102
  42
0
  0
VERTEX
  8
Net
  10
4.0411
  20
1.5088
  42
0
  0
VERTEX
  8
Net
  10
4.0442
  20
1.5083
  42
0
  0
VERTEX
  8
Net
  10
4.0472
  20
1.5088
  42
0
  0
VERTEX
  8
Net
  10
4.0499
  20
1.5102
  42
0
  0
VERTEX
  8
Net
  10
4.0521
  20
1.5124
  42
0
  0
VERTEX
  8
Net
  10
4.0535
  20
1.5151
  42
0
  0
VERTEX
  8
Net
  10
4.054
  20
1.5181
  42
0
  0
VERTEX
  8
Net
  10
4.0535
  20
1.5212
  42
0
  0
VERTEX
  8
Net
  10
4.0521
  20
1.5239
  42
0
  0
VERTEX
  8
Net
  10
4.0499
  20
1.5261
  42
0
  0
VERTEX
  8
Net
  10
4.0472
  20
1.5275
  42
0
  0
VERTEX
  8
Net
  10
4.0442
  20
1.528
  42
0
  0
VERTEX
  8
Net
  10
4.0411
  20
1.5275
  42
0
  0
VERTEX
  8
Net
  10
4.0384
  20
1.5261
  42
0
  0
VERTEX
  8
Net
  10
4.0362
  20
1.5239
  42
0
  0
VERTEX
  8
Net
  10
4.0348
  20
1.5212
  42
0
  0
VERTEX
  8
Net
  10
4.0343
  20
1.5181
  42
0
  0
SEQEND
  0
POLYLINE
  8
Net
  6
CONTINUOUS
  66
1
  70
0
  40
0.0049
  41
0.0049
  0
VERTEX
  8
Net
  10
4.0319
  20
1.5181
  42
1
  0
VERTEX
  8
Net
  10
4.0368
  20
1.5181
  42
1
  0
VERTEX
  8
Net
  10
4.0319
  20
1.5181
  42
1
  0
SEQEND
  0
POLYLINE
  8
Net
  6
CONTINUOUS
  66
1
  70
0
  40
0.0098
  41
0.0098
  0
VERTEX
  8
Net
  10
4.4255
  20
1.5181
  42
0
  0
VERTEX
  8
Net
  10
4.0442
  20
1.5181
  42
0
  0
SEQEND
  0
POLYLINE
  8
Net
  6
CONTINUOUS
  66
1
  70
0
  40
0.0049
  41
0.0049
  0
VERTEX
  8
Net
  10
4.423
  20
1.5181
  42
1
  0
VERTEX
  8
Net
  10
4.4279
  20
1.5181
  42
1
  0
VERTEX
  8
Net
  10
4.423
  20
1.5181
  42
1
  0
SEQEND
  0
POLYLINE
  8
Net
  6
CONTINUOUS
  66
1
  70
0
  40
0.0049
  41
0.0049
  0
VERTEX
  8
Net
  10
4.0417
  20
1.5181
  42
1
  0
VERTEX
  8
Net
  10
4.0466
  20
1.5181
  42
1
  0
VERTEX
  8
Net
  10
4.0417
  20
1.5181
  42
1
  0
SEQEND
  0
POLYLINE
  8
Net
  6
CONTINUOUS
  66
1
  70
0
  40
0.0098
  41
0.0098
  0
VERTEX
  8
Net
  10
4.4156
  20
1.5181
  42
0
  0
VERTEX
  8
Net
  10
4.4161
  20
1.5151
  42
0
  0
VERTEX
  8
Net
  10
4.4175
  20
1.5124
  42
0
  0
VERTEX
  8
Net
  10
4.4197
  20
1.5102
  42
0
  0
VERTEX
  8
Net
  10
4.4224
  20
1.5088
  42
0
  0
VERTEX
  8
Net
  10
4.4255
  20
1.5083
  42
0
  0
VERTEX
  8
Net
  10
4.4285
  20
1.5088
  42
0
  0
VERTEX
  8
Net
  10
4.4312
  20
1.5102
  42
0
  0
VERTEX
  8
Net
  10
4.4334
  20
1.5124
  42
0
  0
VERTEX
  8
Net
  10
4.4348
  20
1.5151
  42
0
  0
VERTEX
  8
Net
  10
4.4353
  20
1.5181
  42
0
  0
VERTEX
  8
Net
  10
4.4348
  20
1.5212
  42
0
  0
VERTEX
  8
Net
  10
4.4334
  20
1.5239
  42
0
  0
VERTEX
  8
Net
  10
4.4312
  20
1.5261
  42
0
  0
VERTEX
  8
Net
  10
4.4285
  20
1.5275
  42
0
  0
VERTEX
  8
Net
  10
4.4255
  20
1.528
  42
0
  0
VERTEX
  8
Net
  10
4.4224
  20
1.5275
  42
0
  0
VERTEX
  8
Net
  10
4.4197
  20
1.5261
  42
0
  0
VERTEX
  8
Net
  10
4.4175
  20
1.5239
  42
0
  0
VERTEX
  8
Net
  10
4.4161
  20
1.5212
  42
0
  0
VERTEX
  8
Net
  10
4.4156
  20
1.5181
  42
0
  0
SEQEND
  0
POLYLINE
  8
Net
  6
CONTINUOUS
  66
1
  70
0
  40
0.0049
  41
0.0049
  0
VERTEX
  8
Net
  10
4.4132
  20
1.5181
  42
1
  0
VERTEX
  8
Net
  10
4.4181
  20
1.5181
  42
1
  0
VERTEX
  8
Net
  10
4.4132
  20
1.5181
  42
1
  0
SEQEND
  0
POLYLINE
  8
Net
  6
CONTINUOUS
  66
1
  70
0
  40
0.0098
  41
0.0098
  0
VERTEX
  8
Net
  10
4.8255
  20
1.5181
  42
0
  0
VERTEX
  8
Net
  10
4.4255
  20
1.5181
  42
0
  0
SEQEND
  0
POLYLINE
  8
Net
  6
CONTINUOUS
  66
1
  70
0
  40
0.0049
  41
0.0049
  0
VERTEX
  8
Net
  10
4.823
  20
1.5181
  42
1
  0
VERTEX
  8
Net
  10
4.8279
  20
1.5181
  42
1
  0
VERTEX
  8
Net
  10
4.823
  20
1.5181
  42
1
  0
SEQEND
  0
POLYLINE
  8
Net
  6
CONTINUOUS
  66
1
  70
0
  40
0.0049
  41
0.0049
  0
VERTEX
  8
Net
  10
4.423
  20
1.5181
  42
1
  0
VERTEX
  8
Net
  10
4.4279
  20
1.5181
  42
1
  0
VERTEX
  8
Net
  10
4.423
  20
1.5181
  42
1
  0
SEQEND
  0
POLYLINE
  8
Net
  6
CONTINUOUS
  66
1
  70
0
  40
0.0098
  41
0.0098
  0
VERTEX
  8
Net
  10
4.4255
  20
1.5181
  42
0
  0
VERTEX
  8
Net
  10
4.4255
  20
1.5181
  42
0
  0
SEQEND
  0
POLYLINE
  8
Net
  6
CONTINUOUS
  66
1
  70
0
  40
0.0049
  41
0.0049
  0
VERTEX
  8
Net
  10
4.423
  20
1.5181
  42
1
  0
VERTEX
  8
Net
  10
4.4279
  20
1.5181
  42
1
  0
VERTEX
  8
Net
  10
4.423
  20
1.5181
  42
1
  0
SEQEND
  0
POLYLINE
  8
Net
  6
CONTINUOUS
  66
1
  70
0
  40
0.0098
  41
0.0098
  0
VERTEX
  8
Net
  10
4.4255
  20
1.5181
  42
0
  0
VERTEX
  8
Net
  10
4.4255
  20
1.5181
  42
0
  0
SEQEND
  0
POLYLINE
  8
Net
  6
CONTINUOUS
  66
1
  70
0
  40
0.0049
  41
0.0049
  0
VERTEX
  8
Net
  10
4.423
  20
1.5181
  42
1
  0
VERTEX
  8
Net
  10
4.4279
  20
1.5181
  42
1
  0
VERTEX
  8
Net
  10
4.423
  20
1.5181
  42
1
  0
SEQEND
  0
POLYLINE
  8
Net
  6
CONTINUOUS
  66
1
  70
0
  40
0.0098
  41
0.0098
  0
VERTEX
  8
Net
  10
3.6968
  20
1.5179
  42
0
  0
VERTEX
  8
Net
  10
3.6973
  20
1.5149
  42
0
  0
VERTEX
  8
Net
  10
3.6987
  20
1.5122
  42
0
  0
VERTEX
  8
Net
  10
3.7008
  20
1.51
  42
0
  0
VERTEX
  8
Net
  10
3.7036
  20
1.5086
  42
0
  0
VERTEX
  8
Net
  10
3.7066
  20
1.5081
  42
0
  0
VERTEX
  8
Net
  10
3.7097
  20
1.5086
  42
0
  0
VERTEX
  8
Net
  10
3.7124
  20
1.51
  42
0
  0
VERTEX
  8
Net
  10
3.7146
  20
1.5122
  42
0
  0
VERTEX
  8
Net
  10
3.716
  20
1.5149
  42
0
  0
VERTEX
  8
Net
  10
3.7165
  20
1.5179
  42
0
  0
VERTEX
  8
Net
  10
3.716
  20
1.521
  42
0
  0
VERTEX
  8
Net
  10
3.7146
  20
1.5237
  42
0
  0
VERTEX
  8
Net
  10
3.7124
  20
1.5259
  42
0
  0
VERTEX
  8
Net
  10
3.7097
  20
1.5273
  42
0
  0
VERTEX
  8
Net
  10
3.7066
  20
1.5278
  42
0
  0
VERTEX
  8
Net
  10
3.7036
  20
1.5273
  42
0
  0
VERTEX
  8
Net
  10
3.7008
  20
1.5259
  42
0
  0
VERTEX
  8
Net
  10
3.6987
  20
1.5237
  42
0
  0
VERTEX
  8
Net
  10
3.6973
  20
1.521
  42
0
  0
VERTEX
  8
Net
  10
3.6968
  20
1.5179
  42
0
  0
SEQEND
  0
POLYLINE
  8
Net
  6
CONTINUOUS
  66
1
  70
0
  40
0.0049
  41
0.0049
  0
VERTEX
  8
Net
  10
3.6943
  20
1.5179
  42
1
  0
VERTEX
  8
Net
  10
3.6992
  20
1.5179
  42
1
  0
VERTEX
  8
Net
  10
3.6943
  20
1.5179
  42
1
  0
SEQEND
  0
POLYLINE
  8
Net
  6
CONTINUOUS
  66
1
  70
0
  40
0.0098
  41
0.0098
  0
VERTEX
  8
Net
  10
2.6628
  20
1.0179
  42
0
  0
VERTEX
  8
Net
  10
3.7066
  20
1.0179
  42
0
  0
SEQEND
  0
POLYLINE
  8
Net
  6
CONTINUOUS
  66
1
  70
0
  40
0.0049
  41
0.0049
  0
VERTEX
  8
Net
  10
2.6603
  20
1.0179
  42
1
  0
VERTEX
  8
Net
  10
2.6652
  20
1.0179
  42
1
  0
VERTEX
  8
Net
  10
2.6603
  20
1.0179
  42
1
  0
SEQEND
  0
POLYLINE
  8
Net
  6
CONTINUOUS
  66
1
  70
0
  40
0.0049
  41
0.0049
  0
VERTEX
  8
Net
  10
3.7042
  20
1.0179
  42
1
  0
VERTEX
  8
Net
  10
3.7091
  20
1.0179
  42
1
  0
VERTEX
  8
Net
  10
3.7042
  20
1.0179
  42
1
  0
SEQEND
  0
POLYLINE
  8
Net
  6
CONTINUOUS
  66
1
  70
0
  40
0.0098
  41
0.0098
  0
VERTEX
  8
Net
  10
3.7066
  20
1.0179
  42
0
  0
VERTEX
  8
Net
  10
3.7066
  20
1.5179
  42
0
  0
SEQEND
  0
POLYLINE
  8
Net
  6
CONTINUOUS
  66
1
  70
0
  40
0.0049
  41
0.0049
  0
VERTEX
  8
Net
  10
3.7042
  20
1.0179
  42
1
  0
VERTEX
  8
Net
  10
3.7091
  20
1.0179
  42
1
  0
VERTEX
  8
Net
  10
3.7042
  20
1.0179
  42
1
  0
SEQEND
  0
POLYLINE
  8
Net
  6
CONTINUOUS
  66
1
  70
0
  40
0.0049
  41
0.0049
  0
VERTEX
  8
Net
  10
3.7042
  20
1.5179
  42
1
  0
VERTEX
  8
Net
  10
3.7091
  20
1.5179
  42
1
  0
VERTEX
  8
Net
  10
3.7042
  20
1.5179
  42
1
  0
SEQEND
  0
POLYLINE
  8
Net
  6
CONTINUOUS
  66
1
  70
0
  40
0.0098
  41
0.0098
  0
VERTEX
  8
Net
  10
3.8155
  20
1.5179
  42
0
  0
VERTEX
  8
Net
  10
3.816
  20
1.5149
  42
0
  0
VERTEX
  8
Net
  10
3.8174
  20
1.5122
  42
0
  0
VERTEX
  8
Net
  10
3.8196
  20
1.51
  42
0
  0
VERTEX
  8
Net
  10
3.8223
  20
1.5086
  42
0
  0
VERTEX
  8
Net
  10
3.8254
  20
1.5081
  42
0
  0
VERTEX
  8
Net
  10
3.8284
  20
1.5086
  42
0
  0
VERTEX
  8
Net
  10
3.8312
  20
1.51
  42
0
  0
VERTEX
  8
Net
  10
3.8334
  20
1.5122
  42
0
  0
VERTEX
  8
Net
  10
3.8348
  20
1.5149
  42
0
  0
VERTEX
  8
Net
  10
3.8352
  20
1.5179
  42
0
  0
VERTEX
  8
Net
  10
3.8348
  20
1.521
  42
0
  0
VERTEX
  8
Net
  10
3.8334
  20
1.5237
  42
0
  0
VERTEX
  8
Net
  10
3.8312
  20
1.5259
  42
0
  0
VERTEX
  8
Net
  10
3.8284
  20
1.5273
  42
0
  0
VERTEX
  8
Net
  10
3.8254
  20
1.5278
  42
0
  0
VERTEX
  8
Net
  10
3.8223
  20
1.5273
  42
0
  0
VERTEX
  8
Net
  10
3.8196
  20
1.5259
  42
0
  0
VERTEX
  8
Net
  10
3.8174
  20
1.5237
  42
0
  0
VERTEX
  8
Net
  10
3.816
  20
1.521
  42
0
  0
VERTEX
  8
Net
  10
3.8155
  20
1.5179
  42
0
  0
SEQEND
  0
POLYLINE
  8
Net
  6
CONTINUOUS
  66
1
  70
0
  40
0.0049
  41
0.0049
  0
VERTEX
  8
Net
  10
3.8131
  20
1.5179
  42
1
  0
VERTEX
  8
Net
  10
3.818
  20
1.5179
  42
1
  0
VERTEX
  8
Net
  10
3.8131
  20
1.5179
  42
1
  0
SEQEND
  0
POLYLINE
  8
Net
  6
CONTINUOUS
  66
1
  70
0
  40
0.0098
  41
0.0098
  0
VERTEX
  8
Net
  10
3.6195
  20
0.8181
  42
0
  0
VERTEX
  8
Net
  10
3.8254
  20
0.8181
  42
0
  0
SEQEND
  0
POLYLINE
  8
Net
  6
CONTINUOUS
  66
1
  70
0
  40
0.0049
  41
0.0049
  0
VERTEX
  8
Net
  10
3.617
  20
0.8181
  42
1
  0
VERTEX
  8
Net
  10
3.6219
  20
0.8181
  42
1
  0
VERTEX
  8
Net
  10
3.617
  20
0.8181
  42
1
  0
SEQEND
  0
POLYLINE
  8
Net
  6
CONTINUOUS
  66
1
  70
0
  40
0.0049
  41
0.0049
  0
VERTEX
  8
Net
  10
3.8229
  20
0.8181
  42
1
  0
VERTEX
  8
Net
  10
3.8279
  20
0.8181
  42
1
  0
VERTEX
  8
Net
  10
3.8229
  20
0.8181
  42
1
  0
SEQEND
  0
POLYLINE
  8
Net
  6
CONTINUOUS
  66
1
  70
0
  40
0.0098
  41
0.0098
  0
VERTEX
  8
Net
  10
3.8254
  20
0.8181
  42
0
  0
VERTEX
  8
Net
  10
3.8254
  20
1.5179
  42
0
  0
SEQEND
  0
POLYLINE
  8
Net
  6
CONTINUOUS
  66
1
  70
0
  40
0.0049
  41
0.0049
  0
VERTEX
  8
Net
  10
3.8229
  20
0.8181
  42
1
  0
VERTEX
  8
Net
  10
3.8279
  20
0.8181
  42
1
  0
VERTEX
  8
Net
  10
3.8229
  20
0.8181
  42
1
  0
SEQEND
  0
POLYLINE
  8
Net
  6
CONTINUOUS
  66
1
  70
0
  40
0.0049
  41
0.0049
  0
VERTEX
  8
Net
  10
3.8229
  20
1.5179
  42
1
  0
VERTEX
  8
Net
  10
3.8279
  20
1.5179
  42
1
  0
VERTEX
  8
Net
  10
3.8229
  20
1.5179
  42
1
  0
SEQEND
  0
POLYLINE
  8
Net
  6
CONTINUOUS
  66
1
  70
0
  40
0.0098
  41
0.0098
  0
VERTEX
  8
Net
  10
4.8156
  20
1.5181
  42
0
  0
VERTEX
  8
Net
  10
4.8161
  20
1.5151
  42
0
  0
VERTEX
  8
Net
  10
4.8175
  20
1.5124
  42
0
  0
VERTEX
  8
Net
  10
4.8197
  20
1.5102
  42
0
  0
VERTEX
  8
Net
  10
4.8224
  20
1.5088
  42
0
  0
VERTEX
  8
Net
  10
4.8255
  20
1.5083
  42
0
  0
VERTEX
  8
Net
  10
4.8285
  20
1.5088
  42
0
  0
VERTEX
  8
Net
  10
4.8312
  20
1.5102
  42
0
  0
VERTEX
  8
Net
  10
4.8334
  20
1.5124
  42
0
  0
VERTEX
  8
Net
  10
4.8348
  20
1.5151
  42
0
  0
VERTEX
  8
Net
  10
4.8353
  20
1.5181
  42
0
  0
VERTEX
  8
Net
  10
4.8348
  20
1.5212
  42
0
  0
VERTEX
  8
Net
  10
4.8334
  20
1.5239
  42
0
  0
VERTEX
  8
Net
  10
4.8312
  20
1.5261
  42
0
  0
VERTEX
  8
Net
  10
4.8285
  20
1.5275
  42
0
  0
VERTEX
  8
Net
  10
4.8255
  20
1.528
  42
0
  0
VERTEX
  8
Net
  10
4.8224
  20
1.5275
  42
0
  0
VERTEX
  8
Net
  10
4.8197
  20
1.5261
  42
0
  0
VERTEX
  8
Net
  10
4.8175
  20
1.5239
  42
0
  0
VERTEX
  8
Net
  10
4.8161
  20
1.5212
  42
0
  0
VERTEX
  8
Net
  10
4.8156
  20
1.5181
  42
0
  0
SEQEND
  0
POLYLINE
  8
Net
  6
CONTINUOUS
  66
1
  70
0
  40
0.0049
  41
0.0049
  0
VERTEX
  8
Net
  10
4.8132
  20
1.5181
  42
1
  0
VERTEX
  8
Net
  10
4.8181
  20
1.5181
  42
1
  0
VERTEX
  8
Net
  10
4.8132
  20
1.5181
  42
1
  0
SEQEND
  0
POLYLINE
  8
Net
  6
CONTINUOUS
  66
1
  70
0
  40
0.0098
  41
0.0098
  0
VERTEX
  8
Net
  10
4.9818
  20
1.5179
  42
0
  0
VERTEX
  8
Net
  10
4.8255
  20
1.5179
  42
0
  0
SEQEND
  0
POLYLINE
  8
Net
  6
CONTINUOUS
  66
1
  70
0
  40
0.0049
  41
0.0049
  0
VERTEX
  8
Net
  10
4.9793
  20
1.5179
  42
1
  0
VERTEX
  8
Net
  10
4.9842
  20
1.5179
  42
1
  0
VERTEX
  8
Net
  10
4.9793
  20
1.5179
  42
1
  0
SEQEND
  0
POLYLINE
  8
Net
  6
CONTINUOUS
  66
1
  70
0
  40
0.0049
  41
0.0049
  0
VERTEX
  8
Net
  10
4.823
  20
1.5179
  42
1
  0
VERTEX
  8
Net
  10
4.8279
  20
1.5179
  42
1
  0
VERTEX
  8
Net
  10
4.823
  20
1.5179
  42
1
  0
SEQEND
  0
POLYLINE
  8
Net
  6
CONTINUOUS
  66
1
  70
0
  40
0.0098
  41
0.0098
  0
VERTEX
  8
Net
  10
4.8255
  20
1.5179
  42
0
  0
VERTEX
  8
Net
  10
4.8255
  20
1.5181
  42
0
  0
SEQEND
  0
POLYLINE
  8
Net
  6
CONTINUOUS
  66
1
  70
0
  40
0.0049
  41
0.0049
  0
VERTEX
  8
Net
  10
4.823
  20
1.5179
  42
1
  0
VERTEX
  8
Net
  10
4.8279
  20
1.5179
  42
1
  0
VERTEX
  8
Net
  10
4.823
  20
1.5179
  42
1
  0
SEQEND
  0
POLYLINE
  8
Net
  6
CONTINUOUS
  66
1
  70
0
  40
0.0049
  41
0.0049
  0
VERTEX
  8
Net
  10
4.823
  20
1.5181
  42
1
  0
VERTEX
  8
Net
  10
4.8279
  20
1.5181
  42
1
  0
VERTEX
  8
Net
  10
4.823
  20
1.5181
  42
1
  0
SEQEND
  0
TEXT
  8
Pin
  10
0.0445
  20
1.4003
  40
0.0292
  41
0.7
  1
2
  50
90.0
  72
0
  73
3
  7
STANDARD
  71
0
  11
0.0445
  21
1.4003
  0
POLYLINE
  8
Pin
  6
CONTINUOUS
  66
1
  70
0
  40
0.0098
  41
0.0098
  0
VERTEX
  8
Pin
  10
0.0937
  20
1.4429
  42
0
  0
VERTEX
  8
Pin
  10
0.0937
  20
1.2929
  42
0
  0
SEQEND
  0
POLYLINE
  8
Pin
  6
CONTINUOUS
  66
1
  70
0
  40
0.0049
  41
0.0049
  0
VERTEX
  8
Pin
  10
0.0913
  20
1.4429
  42
1
  0
VERTEX
  8
Pin
  10
0.0962
  20
1.4429
  42
1
  0
VERTEX
  8
Pin
  10
0.0913
  20
1.4429
  42
1
  0
SEQEND
  0
POLYLINE
  8
Pin
  6
CONTINUOUS
  66
1
  70
0
  40
0.0049
  41
0.0049
  0
VERTEX
  8
Pin
  10
0.0913
  20
1.2929
  42
1
  0
VERTEX
  8
Pin
  10
0.0962
  20
1.2929
  42
1
  0
VERTEX
  8
Pin
  10
0.0913
  20
1.2929
  42
1
  0
SEQEND
  0
TEXT
  8
Pin
  10
0.0445
  20
1.5692
  40
0.0292
  41
0.7
  1
1
  50
90.0
  72
0
  73
3
  7
STANDARD
  71
0
  11
0.0445
  21
1.5692
  0
POLYLINE
  8
Pin
  6
CONTINUOUS
  66
1
  70
0
  40
0.0098
  41
0.0098
  0
VERTEX
  8
Pin
  10
0.0937
  20
1.5429
  42
0
  0
VERTEX
  8
Pin
  10
0.0937
  20
1.6929
  42
0
  0
SEQEND
  0
POLYLINE
  8
Pin
  6
CONTINUOUS
  66
1
  70
0
  40
0.0049
  41
0.0049
  0
VERTEX
  8
Pin
  10
0.0913
  20
1.5429
  42
1
  0
VERTEX
  8
Pin
  10
0.0962
  20
1.5429
  42
1
  0
VERTEX
  8
Pin
  10
0.0913
  20
1.5429
  42
1
  0
SEQEND
  0
POLYLINE
  8
Pin
  6
CONTINUOUS
  66
1
  70
0
  40
0.0049
  41
0.0049
  0
VERTEX
  8
Pin
  10
0.0913
  20
1.6929
  42
1
  0
VERTEX
  8
Pin
  10
0.0962
  20
1.6929
  42
1
  0
VERTEX
  8
Pin
  10
0.0913
  20
1.6929
  42
1
  0
SEQEND
  0
TEXT
  8
Pin
  10
0.4196
  20
1.4003
  40
0.0292
  41
0.7
  1
2
  50
90.0
  72
0
  73
3
  7
STANDARD
  71
0
  11
0.4196
  21
1.4003
  0
POLYLINE
  8
Pin
  6
CONTINUOUS
  66
1
  70
0
  40
0.0098
  41
0.0098
  0
VERTEX
  8
Pin
  10
0.4688
  20
1.4429
  42
0
  0
VERTEX
  8
Pin
  10
0.4688
  20
1.2929
  42
0
  0
SEQEND
  0
POLYLINE
  8
Pin
  6
CONTINUOUS
  66
1
  70
0
  40
0.0049
  41
0.0049
  0
VERTEX
  8
Pin
  10
0.4663
  20
1.4429
  42
1
  0
VERTEX
  8
Pin
  10
0.4712
  20
1.4429
  42
1
  0
VERTEX
  8
Pin
  10
0.4663
  20
1.4429
  42
1
  0
SEQEND
  0
POLYLINE
  8
Pin
  6
CONTINUOUS
  66
1
  70
0
  40
0.0049
  41
0.0049
  0
VERTEX
  8
Pin
  10
0.4663
  20
1.2929
  42
1
  0
VERTEX
  8
Pin
  10
0.4712
  20
1.2929
  42
1
  0
VERTEX
  8
Pin
  10
0.4663
  20
1.2929
  42
1
  0
SEQEND
  0
TEXT
  8
Pin
  10
0.4196
  20
1.5692
  40
0.0292
  41
0.7
  1
1
  50
90.0
  72
0
  73
3
  7
STANDARD
  71
0
  11
0.4196
  21
1.5692
  0
POLYLINE
  8
Pin
  6
CONTINUOUS
  66
1
  70
0
  40
0.0098
  41
0.0098
  0
VERTEX
  8
Pin
  10
0.4688
  20
1.5429
  42
0
  0
VERTEX
  8
Pin
  10
0.4688
  20
1.6929
  42
0
  0
SEQEND
  0
POLYLINE
  8
Pin
  6
CONTINUOUS
  66
1
  70
0
  40
0.0049
  41
0.0049
  0
VERTEX
  8
Pin
  10
0.4663
  20
1.5429
  42
1
  0
VERTEX
  8
Pin
  10
0.4712
  20
1.5429
  42
1
  0
VERTEX
  8
Pin
  10
0.4663
  20
1.5429
  42
1
  0
SEQEND
  0
POLYLINE
  8
Pin
  6
CONTINUOUS
  66
1
  70
0
  40
0.0049
  41
0.0049
  0
VERTEX
  8
Pin
  10
0.4663
  20
1.6929
  42
1
  0
VERTEX
  8
Pin
  10
0.4712
  20
1.6929
  42
1
  0
VERTEX
  8
Pin
  10
0.4663
  20
1.6929
  42
1
  0
SEQEND
  0
TEXT
  8
Pin
  10
0.8009
  20
1.4003
  40
0.0292
  41
0.7
  1
2
  50
90.0
  72
0
  73
3
  7
STANDARD
  71
0
  11
0.8009
  21
1.4003
  0
POLYLINE
  8
Pin
  6
CONTINUOUS
  66
1
  70
0
  40
0.0098
  41
0.0098
  0
VERTEX
  8
Pin
  10
0.8501
  20
1.4429
  42
0
  0
VERTEX
  8
Pin
  10
0.8501
  20
1.2929
  42
0
  0
SEQEND
  0
POLYLINE
  8
Pin
  6
CONTINUOUS
  66
1
  70
0
  40
0.0049
  41
0.0049
  0
VERTEX
  8
Pin
  10
0.8476
  20
1.4429
  42
1
  0
VERTEX
  8
Pin
  10
0.8525
  20
1.4429
  42
1
  0
VERTEX
  8
Pin
  10
0.8476
  20
1.4429
  42
1
  0
SEQEND
  0
POLYLINE
  8
Pin
  6
CONTINUOUS
  66
1
  70
0
  40
0.0049
  41
0.0049
  0
VERTEX
  8
Pin
  10
0.8476
  20
1.2929
  42
1
  0
VERTEX
  8
Pin
  10
0.8525
  20
1.2929
  42
1
  0
VERTEX
  8
Pin
  10
0.8476
  20
1.2929
  42
1
  0
SEQEND
  0
TEXT
  8
Pin
  10
0.8009
  20
1.5692
  40
0.0292
  41
0.7
  1
1
  50
90.0
  72
0
  73
3
  7
STANDARD
  71
0
  11
0.8009
  21
1.5692
  0
POLYLINE
  8
Pin
  6
CONTINUOUS
  66
1
  70
0
  40
0.0098
  41
0.0098
  0
VERTEX
  8
Pin
  10
0.8501
  20
1.5429
  42
0
  0
VERTEX
  8
Pin
  10
0.8501
  20
1.6929
  42
0
  0
SEQEND
  0
POLYLINE
  8
Pin
  6
CONTINUOUS
  66
1
  70
0
  40
0.0049
  41
0.0049
  0
VERTEX
  8
Pin
  10
0.8476
  20
1.5429
  42
1
  0
VERTEX
  8
Pin
  10
0.8525
  20
1.5429
  42
1
  0
VERTEX
  8
Pin
  10
0.8476
  20
1.5429
  42
1
  0
SEQEND
  0
POLYLINE
  8
Pin
  6
CONTINUOUS
  66
1
  70
0
  40
0.0049
  41
0.0049
  0
VERTEX
  8
Pin
  10
0.8476
  20
1.6929
  42
1
  0
VERTEX
  8
Pin
  10
0.8525
  20
1.6929
  42
1
  0
VERTEX
  8
Pin
  10
0.8476
  20
1.6929
  42
1
  0
SEQEND
  0
TEXT
  8
Pin
  10
1.1947
  20
1.4003
  40
0.0292
  41
0.7
  1
2
  50
90.0
  72
0
  73
3
  7
STANDARD
  71
0
  11
1.1947
  21
1.4003
  0
POLYLINE
  8
Pin
  6
CONTINUOUS
  66
1
  70
0
  40
0.0098
  41
0.0098
  0
VERTEX
  8
Pin
  10
1.2439
  20
1.4429
  42
0
  0
VERTEX
  8
Pin
  10
1.2439
  20
1.2929
  42
0
  0
SEQEND
  0
POLYLINE
  8
Pin
  6
CONTINUOUS
  66
1
  70
0
  40
0.0049
  41
0.0049
  0
VERTEX
  8
Pin
  10
1.2414
  20
1.4429
  42
1
  0
VERTEX
  8
Pin
  10
1.2463
  20
1.4429
  42
1
  0
VERTEX
  8
Pin
  10
1.2414
  20
1.4429
  42
1
  0
SEQEND
  0
POLYLINE
  8
Pin
  6
CONTINUOUS
  66
1
  70
0
  40
0.0049
  41
0.0049
  0
VERTEX
  8
Pin
  10
1.2414
  20
1.2929
  42
1
  0
VERTEX
  8
Pin
  10
1.2463
  20
1.2929
  42
1
  0
VERTEX
  8
Pin
  10
1.2414
  20
1.2929
  42
1
  0
SEQEND
  0
TEXT
  8
Pin
  10
1.1947
  20
1.5692
  40
0.0292
  41
0.7
  1
1
  50
90.0
  72
0
  73
3
  7
STANDARD
  71
0
  11
1.1947
  21
1.5692
  0
POLYLINE
  8
Pin
  6
CONTINUOUS
  66
1
  70
0
  40
0.0098
  41
0.0098
  0
VERTEX
  8
Pin
  10
1.2439
  20
1.5429
  42
0
  0
VERTEX
  8
Pin
  10
1.2439
  20
1.6929
  42
0
  0
SEQEND
  0
POLYLINE
  8
Pin
  6
CONTINUOUS
  66
1
  70
0
  40
0.0049
  41
0.0049
  0
VERTEX
  8
Pin
  10
1.2414
  20
1.5429
  42
1
  0
VERTEX
  8
Pin
  10
1.2463
  20
1.5429
  42
1
  0
VERTEX
  8
Pin
  10
1.2414
  20
1.5429
  42
1
  0
SEQEND
  0
POLYLINE
  8
Pin
  6
CONTINUOUS
  66
1
  70
0
  40
0.0049
  41
0.0049
  0
VERTEX
  8
Pin
  10
1.2414
  20
1.6929
  42
1
  0
VERTEX
  8
Pin
  10
1.2463
  20
1.6929
  42
1
  0
VERTEX
  8
Pin
  10
1.2414
  20
1.6929
  42
1
  0
SEQEND
  0
TEXT
  8
Pin
  10
0.9634
  20
0.8002
  40
0.0292
  41
0.7
  1
2
  50
90.0
  72
0
  73
3
  7
STANDARD
  71
0
  11
0.9634
  21
0.8002
  0
POLYLINE
  8
Pin
  6
CONTINUOUS
  66
1
  70
0
  40
0.0098
  41
0.0098
  0
VERTEX
  8
Pin
  10
1.0126
  20
0.8429
  42
0
  0
VERTEX
  8
Pin
  10
1.0126
  20
0.6929
  42
0
  0
SEQEND
  0
POLYLINE
  8
Pin
  6
CONTINUOUS
  66
1
  70
0
  40
0.0049
  41
0.0049
  0
VERTEX
  8
Pin
  10
1.0101
  20
0.8429
  42
1
  0
VERTEX
  8
Pin
  10
1.0151
  20
0.8429
  42
1
  0
VERTEX
  8
Pin
  10
1.0101
  20
0.8429
  42
1
  0
SEQEND
  0
POLYLINE
  8
Pin
  6
CONTINUOUS
  66
1
  70
0
  40
0.0049
  41
0.0049
  0
VERTEX
  8
Pin
  10
1.0101
  20
0.6929
  42
1
  0
VERTEX
  8
Pin
  10
1.0151
  20
0.6929
  42
1
  0
VERTEX
  8
Pin
  10
1.0101
  20
0.6929
  42
1
  0
SEQEND
  0
TEXT
  8
Pin
  10
0.9634
  20
0.9691
  40
0.0292
  41
0.7
  1
1
  50
90.0
  72
0
  73
3
  7
STANDARD
  71
0
  11
0.9634
  21
0.9691
  0
POLYLINE
  8
Pin
  6
CONTINUOUS
  66
1
  70
0
  40
0.0098
  41
0.0098
  0
VERTEX
  8
Pin
  10
1.0126
  20
0.9429
  42
0
  0
VERTEX
  8
Pin
  10
1.0126
  20
1.0929
  42
0
  0
SEQEND
  0
POLYLINE
  8
Pin
  6
CONTINUOUS
  66
1
  70
0
  40
0.0049
  41
0.0049
  0
VERTEX
  8
Pin
  10
1.0101
  20
0.9429
  42
1
  0
VERTEX
  8
Pin
  10
1.0151
  20
0.9429
  42
1
  0
VERTEX
  8
Pin
  10
1.0101
  20
0.9429
  42
1
  0
SEQEND
  0
POLYLINE
  8
Pin
  6
CONTINUOUS
  66
1
  70
0
  40
0.0049
  41
0.0049
  0
VERTEX
  8
Pin
  10
1.0101
  20
1.0929
  42
1
  0
VERTEX
  8
Pin
  10
1.0151
  20
1.0929
  42
1
  0
VERTEX
  8
Pin
  10
1.0101
  20
1.0929
  42
1
  0
SEQEND
  0
TEXT
  8
Pin
  10
2.8702
  20
0.4315
  40
0.0292
  41
0.7
  1
2
  50
90.0
  72
0
  73
3
  7
STANDARD
  71
0
  11
2.8702
  21
0.4315
  0
POLYLINE
  8
Pin
  6
CONTINUOUS
  66
1
  70
0
  40
0.0098
  41
0.0098
  0
VERTEX
  8
Pin
  10
2.9195
  20
0.4741
  42
0
  0
VERTEX
  8
Pin
  10
2.9195
  20
0.3241
  42
0
  0
SEQEND
  0
POLYLINE
  8
Pin
  6
CONTINUOUS
  66
1
  70
0
  40
0.0049
  41
0.0049
  0
VERTEX
  8
Pin
  10
2.917
  20
0.4741
  42
1
  0
VERTEX
  8
Pin
  10
2.9219
  20
0.4741
  42
1
  0
VERTEX
  8
Pin
  10
2.917
  20
0.4741
  42
1
  0
SEQEND
  0
POLYLINE
  8
Pin
  6
CONTINUOUS
  66
1
  70
0
  40
0.0049
  41
0.0049
  0
VERTEX
  8
Pin
  10
2.917
  20
0.3241
  42
1
  0
VERTEX
  8
Pin
  10
2.9219
  20
0.3241
  42
1
  0
VERTEX
  8
Pin
  10
2.917
  20
0.3241
  42
1
  0
SEQEND
  0
TEXT
  8
Pin
  10
2.8702
  20
0.6004
  40
0.0292
  41
0.7
  1
1
  50
90.0
  72
0
  73
3
  7
STANDARD
  71
0
  11
2.8702
  21
0.6004
  0
POLYLINE
  8
Pin
  6
CONTINUOUS
  66
1
  70
0
  40
0.0098
  41
0.0098
  0
VERTEX
  8
Pin
  10
2.9195
  20
0.5741
  42
0
  0
VERTEX
  8
Pin
  10
2.9195
  20
0.7241
  42
0
  0
SEQEND
  0
POLYLINE
  8
Pin
  6
CONTINUOUS
  66
1
  70
0
  40
0.0049
  41
0.0049
  0
VERTEX
  8
Pin
  10
2.917
  20
0.5741
  42
1
  0
VERTEX
  8
Pin
  10
2.9219
  20
0.5741
  42
1
  0
VERTEX
  8
Pin
  10
2.917
  20
0.5741
  42
1
  0
SEQEND
  0
POLYLINE
  8
Pin
  6
CONTINUOUS
  66
1
  70
0
  40
0.0049
  41
0.0049
  0
VERTEX
  8
Pin
  10
2.917
  20
0.7241
  42
1
  0
VERTEX
  8
Pin
  10
2.9219
  20
0.7241
  42
1
  0
VERTEX
  8
Pin
  10
2.917
  20
0.7241
  42
1
  0
SEQEND
  0
TEXT
  8
Pin
  10
2.9641
  20
1.2671
  40
0.0292
  41
0.7
  1
2
  50
0.0
  72
0
  73
3
  7
STANDARD
  71
0
  11
2.9641
  21
1.2671
  0
POLYLINE
  8
Pin
  6
CONTINUOUS
  66
1
  70
0
  40
0.0098
  41
0.0098
  0
VERTEX
  8
Pin
  10
2.9378
  20
1.2179
  42
0
  0
VERTEX
  8
Pin
  10
3.0878
  20
1.2179
  42
0
  0
SEQEND
  0
POLYLINE
  8
Pin
  6
CONTINUOUS
  66
1
  70
0
  40
0.0049
  41
0.0049
  0
VERTEX
  8
Pin
  10
2.9354
  20
1.2179
  42
1
  0
VERTEX
  8
Pin
  10
2.9403
  20
1.2179
  42
1
  0
VERTEX
  8
Pin
  10
2.9354
  20
1.2179
  42
1
  0
SEQEND
  0
POLYLINE
  8
Pin
  6
CONTINUOUS
  66
1
  70
0
  40
0.0049
  41
0.0049
  0
VERTEX
  8
Pin
  10
3.0854
  20
1.2179
  42
1
  0
VERTEX
  8
Pin
  10
3.0903
  20
1.2179
  42
1
  0
VERTEX
  8
Pin
  10
3.0854
  20
1.2179
  42
1
  0
SEQEND
  0
TEXT
  8
Pin
  10
2.7902
  20
1.2671
  40
0.0292
  41
0.7
  1
1
  50
0.0
  72
0
  73
3
  7
STANDARD
  71
0
  11
2.7902
  21
1.2671
  0
POLYLINE
  8
Pin
  6
CONTINUOUS
  66
1
  70
0
  40
0.0098
  41
0.0098
  0
VERTEX
  8
Pin
  10
2.8378
  20
1.2179
  42
0
  0
VERTEX
  8
Pin
  10
2.6878
  20
1.2179
  42
0
  0
SEQEND
  0
POLYLINE
  8
Pin
  6
CONTINUOUS
  66
1
  70
0
  40
0.0049
  41
0.0049
  0
VERTEX
  8
Pin
  10
2.8354
  20
1.2179
  42
1
  0
VERTEX
  8
Pin
  10
2.8403
  20
1.2179
  42
1
  0
VERTEX
  8
Pin
  10
2.8354
  20
1.2179
  42
1
  0
SEQEND
  0
POLYLINE
  8
Pin
  6
CONTINUOUS
  66
1
  70
0
  40
0.0049
  41
0.0049
  0
VERTEX
  8
Pin
  10
2.6854
  20
1.2179
  42
1
  0
VERTEX
  8
Pin
  10
2.6903
  20
1.2179
  42
1
  0
VERTEX
  8
Pin
  10
2.6854
  20
1.2179
  42
1
  0
SEQEND
  0
TEXT
  8
Pin
  10
3.995
  20
1.2377
  40
0.0292
  41
0.7
  1
2
  50
90.0
  72
0
  73
3
  7
STANDARD
  71
0
  11
3.995
  21
1.2377
  0
POLYLINE
  8
Pin
  6
CONTINUOUS
  66
1
  70
0
  40
0.0098
  41
0.0098
  0
VERTEX
  8
Pin
  10
4.0442
  20
1.2804
  42
0
  0
VERTEX
  8
Pin
  10
4.0442
  20
1.1304
  42
0
  0
SEQEND
  0
POLYLINE
  8
Pin
  6
CONTINUOUS
  66
1
  70
0
  40
0.0049
  41
0.0049
  0
VERTEX
  8
Pin
  10
4.0417
  20
1.2804
  42
1
  0
VERTEX
  8
Pin
  10
4.0466
  20
1.2804
  42
1
  0
VERTEX
  8
Pin
  10
4.0417
  20
1.2804
  42
1
  0
SEQEND
  0
POLYLINE
  8
Pin
  6
CONTINUOUS
  66
1
  70
0
  40
0.0049
  41
0.0049
  0
VERTEX
  8
Pin
  10
4.0417
  20
1.1304
  42
1
  0
VERTEX
  8
Pin
  10
4.0466
  20
1.1304
  42
1
  0
VERTEX
  8
Pin
  10
4.0417
  20
1.1304
  42
1
  0
SEQEND
  0
TEXT
  8
Pin
  10
3.995
  20
1.4066
  40
0.0292
  41
0.7
  1
1
  50
90.0
  72
0
  73
3
  7
STANDARD
  71
0
  11
3.995
  21
1.4066
  0
POLYLINE
  8
Pin
  6
CONTINUOUS
  66
1
  70
0
  40
0.0098
  41
0.0098
  0
VERTEX
  8
Pin
  10
4.0442
  20
1.3804
  42
0
  0
VERTEX
  8
Pin
  10
4.0442
  20
1.5304
  42
0
  0
SEQEND
  0
POLYLINE
  8
Pin
  6
CONTINUOUS
  66
1
  70
0
  40
0.0049
  41
0.0049
  0
VERTEX
  8
Pin
  10
4.0417
  20
1.3804
  42
1
  0
VERTEX
  8
Pin
  10
4.0466
  20
1.3804
  42
1
  0
VERTEX
  8
Pin
  10
4.0417
  20
1.3804
  42
1
  0
SEQEND
  0
POLYLINE
  8
Pin
  6
CONTINUOUS
  66
1
  70
0
  40
0.0049
  41
0.0049
  0
VERTEX
  8
Pin
  10
4.0417
  20
1.5304
  42
1
  0
VERTEX
  8
Pin
  10
4.0466
  20
1.5304
  42
1
  0
VERTEX
  8
Pin
  10
4.0417
  20
1.5304
  42
1
  0
SEQEND
  0
TEXT
  8
Pin
  10
4.3762
  20
1.2255
  40
0.0292
  41
0.7
  1
2
  50
90.0
  72
0
  73
3
  7
STANDARD
  71
0
  11
4.3762
  21
1.2255
  0
POLYLINE
  8
Pin
  6
CONTINUOUS
  66
1
  70
0
  40
0.0098
  41
0.0098
  0
VERTEX
  8
Pin
  10
4.4255
  20
1.2681
  42
0
  0
VERTEX
  8
Pin
  10
4.4255
  20
1.1181
  42
0
  0
SEQEND
  0
POLYLINE
  8
Pin
  6
CONTINUOUS
  66
1
  70
0
  40
0.0049
  41
0.0049
  0
VERTEX
  8
Pin
  10
4.423
  20
1.2681
  42
1
  0
VERTEX
  8
Pin
  10
4.4279
  20
1.2681
  42
1
  0
VERTEX
  8
Pin
  10
4.423
  20
1.2681
  42
1
  0
SEQEND
  0
POLYLINE
  8
Pin
  6
CONTINUOUS
  66
1
  70
0
  40
0.0049
  41
0.0049
  0
VERTEX
  8
Pin
  10
4.423
  20
1.1181
  42
1
  0
VERTEX
  8
Pin
  10
4.4279
  20
1.1181
  42
1
  0
VERTEX
  8
Pin
  10
4.423
  20
1.1181
  42
1
  0
SEQEND
  0
TEXT
  8
Pin
  10
4.3762
  20
1.3944
  40
0.0292
  41
0.7
  1
1
  50
90.0
  72
0
  73
3
  7
STANDARD
  71
0
  11
4.3762
  21
1.3944
  0
POLYLINE
  8
Pin
  6
CONTINUOUS
  66
1
  70
0
  40
0.0098
  41
0.0098
  0
VERTEX
  8
Pin
  10
4.4255
  20
1.3681
  42
0
  0
VERTEX
  8
Pin
  10
4.4255
  20
1.5181
  42
0
  0
SEQEND
  0
POLYLINE
  8
Pin
  6
CONTINUOUS
  66
1
  70
0
  40
0.0049
  41
0.0049
  0
VERTEX
  8
Pin
  10
4.423
  20
1.3681
  42
1
  0
VERTEX
  8
Pin
  10
4.4279
  20
1.3681
  42
1
  0
VERTEX
  8
Pin
  10
4.423
  20
1.3681
  42
1
  0
SEQEND
  0
POLYLINE
  8
Pin
  6
CONTINUOUS
  66
1
  70
0
  40
0.0049
  41
0.0049
  0
VERTEX
  8
Pin
  10
4.423
  20
1.5181
  42
1
  0
VERTEX
  8
Pin
  10
4.4279
  20
1.5181
  42
1
  0
VERTEX
  8
Pin
  10
4.423
  20
1.5181
  42
1
  0
SEQEND
  0
TEXT
  8
Pin
  10
4.7762
  20
1.2255
  40
0.0292
  41
0.7
  1
2
  50
90.0
  72
0
  73
3
  7
STANDARD
  71
0
  11
4.7762
  21
1.2255
  0
POLYLINE
  8
Pin
  6
CONTINUOUS
  66
1
  70
0
  40
0.0098
  41
0.0098
  0
VERTEX
  8
Pin
  10
4.8255
  20
1.2681
  42
0
  0
VERTEX
  8
Pin
  10
4.8255
  20
1.1181
  42
0
  0
SEQEND
  0
POLYLINE
  8
Pin
  6
CONTINUOUS
  66
1
  70
0
  40
0.0049
  41
0.0049
  0
VERTEX
  8
Pin
  10
4.823
  20
1.2681
  42
1
  0
VERTEX
  8
Pin
  10
4.8279
  20
1.2681
  42
1
  0
VERTEX
  8
Pin
  10
4.823
  20
1.2681
  42
1
  0
SEQEND
  0
POLYLINE
  8
Pin
  6
CONTINUOUS
  66
1
  70
0
  40
0.0049
  41
0.0049
  0
VERTEX
  8
Pin
  10
4.823
  20
1.1181
  42
1
  0
VERTEX
  8
Pin
  10
4.8279
  20
1.1181
  42
1
  0
VERTEX
  8
Pin
  10
4.823
  20
1.1181
  42
1
  0
SEQEND
  0
TEXT
  8
Pin
  10
4.7762
  20
1.3944
  40
0.0292
  41
0.7
  1
1
  50
90.0
  72
0
  73
3
  7
STANDARD
  71
0
  11
4.7762
  21
1.3944
  0
POLYLINE
  8
Pin
  6
CONTINUOUS
  66
1
  70
0
  40
0.0098
  41
0.0098
  0
VERTEX
  8
Pin
  10
4.8255
  20
1.3681
  42
0
  0
VERTEX
  8
Pin
  10
4.8255
  20
1.5181
  42
0
  0
SEQEND
  0
POLYLINE
  8
Pin
  6
CONTINUOUS
  66
1
  70
0
  40
0.0049
  41
0.0049
  0
VERTEX
  8
Pin
  10
4.823
  20
1.3681
  42
1
  0
VERTEX
  8
Pin
  10
4.8279
  20
1.3681
  42
1
  0
VERTEX
  8
Pin
  10
4.823
  20
1.3681
  42
1
  0
SEQEND
  0
POLYLINE
  8
Pin
  6
CONTINUOUS
  66
1
  70
0
  40
0.0049
  41
0.0049
  0
VERTEX
  8
Pin
  10
4.823
  20
1.5181
  42
1
  0
VERTEX
  8
Pin
  10
4.8279
  20
1.5181
  42
1
  0
VERTEX
  8
Pin
  10
4.823
  20
1.5181
  42
1
  0
SEQEND
  0
TEXT
  8
Pin
  10
3.2528
  20
1.5672
  40
0.0292
  41
0.7
  1
1
  50
0.0
  72
0
  73
3
  7
STANDARD
  71
0
  11
3.2528
  21
1.5672
  0
POLYLINE
  8
Pin
  6
CONTINUOUS
  66
1
  70
0
  40
0.0098
  41
0.0098
  0
VERTEX
  8
Pin
  10
3.3003
  20
1.5179
  42
0
  0
VERTEX
  8
Pin
  10
3.2503
  20
1.5179
  42
0
  0
SEQEND
  0
POLYLINE
  8
Pin
  6
CONTINUOUS
  66
1
  70
0
  40
0.0049
  41
0.0049
  0
VERTEX
  8
Pin
  10
3.2979
  20
1.5179
  42
1
  0
VERTEX
  8
Pin
  10
3.3028
  20
1.5179
  42
1
  0
VERTEX
  8
Pin
  10
3.2979
  20
1.5179
  42
1
  0
SEQEND
  0
POLYLINE
  8
Pin
  6
CONTINUOUS
  66
1
  70
0
  40
0.0049
  41
0.0049
  0
VERTEX
  8
Pin
  10
3.2479
  20
1.5179
  42
1
  0
VERTEX
  8
Pin
  10
3.2528
  20
1.5179
  42
1
  0
VERTEX
  8
Pin
  10
3.2479
  20
1.5179
  42
1
  0
SEQEND
  0
TEXT
  8
Pin
  10
3.6266
  20
1.5672
  40
0.0292
  41
0.7
  1
2
  50
0.0
  72
0
  73
3
  7
STANDARD
  71
0
  11
3.6266
  21
1.5672
  0
POLYLINE
  8
Pin
  6
CONTINUOUS
  66
1
  70
0
  40
0.0098
  41
0.0098
  0
VERTEX
  8
Pin
  10
3.6003
  20
1.5179
  42
0
  0
VERTEX
  8
Pin
  10
3.6503
  20
1.5179
  42
0
  0
SEQEND
  0
POLYLINE
  8
Pin
  6
CONTINUOUS
  66
1
  70
0
  40
0.0049
  41
0.0049
  0
VERTEX
  8
Pin
  10
3.5979
  20
1.5179
  42
1
  0
VERTEX
  8
Pin
  10
3.6028
  20
1.5179
  42
1
  0
VERTEX
  8
Pin
  10
3.5979
  20
1.5179
  42
1
  0
SEQEND
  0
POLYLINE
  8
Pin
  6
CONTINUOUS
  66
1
  70
0
  40
0.0049
  41
0.0049
  0
VERTEX
  8
Pin
  10
3.6479
  20
1.5179
  42
1
  0
VERTEX
  8
Pin
  10
3.6528
  20
1.5179
  42
1
  0
VERTEX
  8
Pin
  10
3.6479
  20
1.5179
  42
1
  0
SEQEND
  0
TEXT
  8
Pin
  10
0.0508
  20
0.8754
  40
0.0292
  41
0.7
  1
1
  50
90.0
  72
0
  73
3
  7
STANDARD
  71
0
  11
0.0508
  21
0.8754
  0
POLYLINE
  8
Pin
  6
CONTINUOUS
  66
1
  70
0
  40
0.0098
  41
0.0098
  0
VERTEX
  8
Pin
  10
0.1
  20
0.8491
  42
0
  0
VERTEX
  8
Pin
  10
0.1
  20
0.9991
  42
0
  0
SEQEND
  0
POLYLINE
  8
Pin
  6
CONTINUOUS
  66
1
  70
0
  40
0.0049
  41
0.0049
  0
VERTEX
  8
Pin
  10
0.0975
  20
0.8491
  42
1
  0
VERTEX
  8
Pin
  10
0.1025
  20
0.8491
  42
1
  0
VERTEX
  8
Pin
  10
0.0975
  20
0.8491
  42
1
  0
SEQEND
  0
POLYLINE
  8
Pin
  6
CONTINUOUS
  66
1
  70
0
  40
0.0049
  41
0.0049
  0
VERTEX
  8
Pin
  10
0.0975
  20
0.9991
  42
1
  0
VERTEX
  8
Pin
  10
0.1025
  20
0.9991
  42
1
  0
VERTEX
  8
Pin
  10
0.0975
  20
0.9991
  42
1
  0
SEQEND
  0
TEXT
  8
Pin
  10
0.9634
  20
0.5316
  40
0.0292
  41
0.7
  1
1
  50
90.0
  72
0
  73
3
  7
STANDARD
  71
0
  11
0.9634
  21
0.5316
  0
POLYLINE
  8
Pin
  6
CONTINUOUS
  66
1
  70
0
  40
0.0098
  41
0.0098
  0
VERTEX
  8
Pin
  10
1.0126
  20
0.5053
  42
0
  0
VERTEX
  8
Pin
  10
1.0126
  20
0.6553
  42
0
  0
SEQEND
  0
POLYLINE
  8
Pin
  6
CONTINUOUS
  66
1
  70
0
  40
0.0049
  41
0.0049
  0
VERTEX
  8
Pin
  10
1.0101
  20
0.5053
  42
1
  0
VERTEX
  8
Pin
  10
1.0151
  20
0.5053
  42
1
  0
VERTEX
  8
Pin
  10
1.0101
  20
0.5053
  42
1
  0
SEQEND
  0
POLYLINE
  8
Pin
  6
CONTINUOUS
  66
1
  70
0
  40
0.0049
  41
0.0049
  0
VERTEX
  8
Pin
  10
1.0101
  20
0.6553
  42
1
  0
VERTEX
  8
Pin
  10
1.0151
  20
0.6553
  42
1
  0
VERTEX
  8
Pin
  10
1.0101
  20
0.6553
  42
1
  0
SEQEND
  0
TEXT
  8
Pin
  10
1.4572
  20
0.2128
  40
0.0292
  41
0.7
  1
1
  50
90.0
  72
0
  73
3
  7
STANDARD
  71
0
  11
1.4572
  21
0.2128
  0
POLYLINE
  8
Pin
  6
CONTINUOUS
  66
1
  70
0
  40
0.0098
  41
0.0098
  0
VERTEX
  8
Pin
  10
1.5064
  20
0.1866
  42
0
  0
VERTEX
  8
Pin
  10
1.5064
  20
0.3366
  42
0
  0
SEQEND
  0
POLYLINE
  8
Pin
  6
CONTINUOUS
  66
1
  70
0
  40
0.0049
  41
0.0049
  0
VERTEX
  8
Pin
  10
1.5039
  20
0.1866
  42
1
  0
VERTEX
  8
Pin
  10
1.5089
  20
0.1866
  42
1
  0
VERTEX
  8
Pin
  10
1.5039
  20
0.1866
  42
1
  0
SEQEND
  0
POLYLINE
  8
Pin
  6
CONTINUOUS
  66
1
  70
0
  40
0.0049
  41
0.0049
  0
VERTEX
  8
Pin
  10
1.5039
  20
0.3366
  42
1
  0
VERTEX
  8
Pin
  10
1.5089
  20
0.3366
  42
1
  0
VERTEX
  8
Pin
  10
1.5039
  20
0.3366
  42
1
  0
SEQEND
  0
TEXT
  8
Pin
  10
2.8698
  20
0.1253
  40
0.0292
  41
0.7
  1
1
  50
90.0
  72
0
  73
3
  7
STANDARD
  71
0
  11
2.8698
  21
0.1253
  0
POLYLINE
  8
Pin
  6
CONTINUOUS
  66
1
  70
0
  40
0.0098
  41
0.0098
  0
VERTEX
  8
Pin
  10
2.919
  20
0.0991
  42
0
  0
VERTEX
  8
Pin
  10
2.919
  20
0.2491
  42
0
  0
SEQEND
  0
POLYLINE
  8
Pin
  6
CONTINUOUS
  66
1
  70
0
  40
0.0049
  41
0.0049
  0
VERTEX
  8
Pin
  10
2.9166
  20
0.0991
  42
1
  0
VERTEX
  8
Pin
  10
2.9215
  20
0.0991
  42
1
  0
VERTEX
  8
Pin
  10
2.9166
  20
0.0991
  42
1
  0
SEQEND
  0
POLYLINE
  8
Pin
  6
CONTINUOUS
  66
1
  70
0
  40
0.0049
  41
0.0049
  0
VERTEX
  8
Pin
  10
2.9166
  20
0.2491
  42
1
  0
VERTEX
  8
Pin
  10
2.9215
  20
0.2491
  42
1
  0
VERTEX
  8
Pin
  10
2.9166
  20
0.2491
  42
1
  0
SEQEND
  0
TEXT
  8
Pin
  10
4.3762
  20
0.6066
  40
0.0292
  41
0.7
  1
1
  50
90.0
  72
0
  73
3
  7
STANDARD
  71
0
  11
4.3762
  21
0.6066
  0
POLYLINE
  8
Pin
  6
CONTINUOUS
  66
1
  70
0
  40
0.0098
  41
0.0098
  0
VERTEX
  8
Pin
  10
4.4255
  20
0.5804
  42
0
  0
VERTEX
  8
Pin
  10
4.4255
  20
0.7304
  42
0
  0
SEQEND
  0
POLYLINE
  8
Pin
  6
CONTINUOUS
  66
1
  70
0
  40
0.0049
  41
0.0049
  0
VERTEX
  8
Pin
  10
4.423
  20
0.5804
  42
1
  0
VERTEX
  8
Pin
  10
4.4279
  20
0.5804
  42
1
  0
VERTEX
  8
Pin
  10
4.423
  20
0.5804
  42
1
  0
SEQEND
  0
POLYLINE
  8
Pin
  6
CONTINUOUS
  66
1
  70
0
  40
0.0049
  41
0.0049
  0
VERTEX
  8
Pin
  10
4.423
  20
0.7304
  42
1
  0
VERTEX
  8
Pin
  10
4.4279
  20
0.7304
  42
1
  0
VERTEX
  8
Pin
  10
4.423
  20
0.7304
  42
1
  0
SEQEND
  0
TEXT
  8
Pin
  10
5.0842
  20
1.5672
  40
0.0292
  41
0.7
  1
1
  50
0.0
  72
0
  73
3
  7
STANDARD
  71
0
  11
5.0842
  21
1.5672
  0
POLYLINE
  8
Pin
  6
CONTINUOUS
  66
1
  70
0
  40
0.0098
  41
0.0098
  0
VERTEX
  8
Pin
  10
5.1318
  20
1.5179
  42
0
  0
VERTEX
  8
Pin
  10
4.9818
  20
1.5179
  42
0
  0
SEQEND
  0
POLYLINE
  8
Pin
  6
CONTINUOUS
  66
1
  70
0
  40
0.0049
  41
0.0049
  0
VERTEX
  8
Pin
  10
5.1293
  20
1.5179
  42
1
  0
VERTEX
  8
Pin
  10
5.1342
  20
1.5179
  42
1
  0
VERTEX
  8
Pin
  10
5.1293
  20
1.5179
  42
1
  0
SEQEND
  0
POLYLINE
  8
Pin
  6
CONTINUOUS
  66
1
  70
0
  40
0.0049
  41
0.0049
  0
VERTEX
  8
Pin
  10
4.9793
  20
1.5179
  42
1
  0
VERTEX
  8
Pin
  10
4.9842
  20
1.5179
  42
1
  0
VERTEX
  8
Pin
  10
4.9793
  20
1.5179
  42
1
  0
SEQEND
  0
TEXT
  8
Pin
  10
0.0508
  20
2.0941
  40
0.0292
  41
0.7
  1
1
  50
90.0
  72
0
  73
3
  7
STANDARD
  71
0
  11
0.0508
  21
2.0941
  0
POLYLINE
  8
Pin
  6
CONTINUOUS
  66
1
  70
0
  40
0.0098
  41
0.0098
  0
VERTEX
  8
Pin
  10
0.1
  20
2.1367
  42
0
  0
VERTEX
  8
Pin
  10
0.1
  20
1.9867
  42
0
  0
SEQEND
  0
POLYLINE
  8
Pin
  6
CONTINUOUS
  66
1
  70
0
  40
0.0049
  41
0.0049
  0
VERTEX
  8
Pin
  10
0.0975
  20
2.1367
  42
1
  0
VERTEX
  8
Pin
  10
0.1025
  20
2.1367
  42
1
  0
VERTEX
  8
Pin
  10
0.0975
  20
2.1367
  42
1
  0
SEQEND
  0
POLYLINE
  8
Pin
  6
CONTINUOUS
  66
1
  70
0
  40
0.0049
  41
0.0049
  0
VERTEX
  8
Pin
  10
0.0975
  20
1.9867
  42
1
  0
VERTEX
  8
Pin
  10
0.1025
  20
1.9867
  42
1
  0
VERTEX
  8
Pin
  10
0.0975
  20
1.9867
  42
1
  0
SEQEND
  0
TEXT
  8
Pin
  10
3.4957
  20
0.8674
  40
0.0292
  41
0.7
  1
2
  50
0.0
  72
0
  73
3
  7
STANDARD
  71
0
  11
3.4957
  21
0.8674
  0
POLYLINE
  8
Pin
  6
CONTINUOUS
  66
1
  70
0
  40
0.0098
  41
0.0098
  0
VERTEX
  8
Pin
  10
3.4695
  20
0.8181
  42
0
  0
VERTEX
  8
Pin
  10
3.6195
  20
0.8181
  42
0
  0
SEQEND
  0
POLYLINE
  8
Pin
  6
CONTINUOUS
  66
1
  70
0
  40
0.0049
  41
0.0049
  0
VERTEX
  8
Pin
  10
3.467
  20
0.8181
  42
1
  0
VERTEX
  8
Pin
  10
3.4719
  20
0.8181
  42
1
  0
VERTEX
  8
Pin
  10
3.467
  20
0.8181
  42
1
  0
SEQEND
  0
POLYLINE
  8
Pin
  6
CONTINUOUS
  66
1
  70
0
  40
0.0049
  41
0.0049
  0
VERTEX
  8
Pin
  10
3.617
  20
0.8181
  42
1
  0
VERTEX
  8
Pin
  10
3.6219
  20
0.8181
  42
1
  0
VERTEX
  8
Pin
  10
3.617
  20
0.8181
  42
1
  0
SEQEND
  0
TEXT
  8
Pin
  10
3.1219
  20
0.8674
  40
0.0292
  41
0.7
  1
1
  50
0.0
  72
0
  73
3
  7
STANDARD
  71
0
  11
3.1219
  21
0.8674
  0
POLYLINE
  8
Pin
  6
CONTINUOUS
  66
1
  70
0
  40
0.0098
  41
0.0098
  0
VERTEX
  8
Pin
  10
3.1695
  20
0.8181
  42
0
  0
VERTEX
  8
Pin
  10
3.0195
  20
0.8181
  42
0
  0
SEQEND
  0
POLYLINE
  8
Pin
  6
CONTINUOUS
  66
1
  70
0
  40
0.0049
  41
0.0049
  0
VERTEX
  8
Pin
  10
3.167
  20
0.8181
  42
1
  0
VERTEX
  8
Pin
  10
3.1719
  20
0.8181
  42
1
  0
VERTEX
  8
Pin
  10
3.167
  20
0.8181
  42
1
  0
SEQEND
  0
POLYLINE
  8
Pin
  6
CONTINUOUS
  66
1
  70
0
  40
0.0049
  41
0.0049
  0
VERTEX
  8
Pin
  10
3.017
  20
0.8181
  42
1
  0
VERTEX
  8
Pin
  10
3.0219
  20
0.8181
  42
1
  0
VERTEX
  8
Pin
  10
3.017
  20
0.8181
  42
1
  0
SEQEND
  0
TEXT
  8
Pin
  10
2.4209
  20
1.5398
  40
0.0365
  41
0.7
  1
SW
  50
0.0
  72
0
  73
3
  7
STANDARD
  71
0
  11
2.4209
  21
1.5398
  0
TEXT
  8
Pin
  10
2.539
  20
1.5672
  40
0.0292
  41
0.7
  1
1
  50
0.0
  72
0
  73
3
  7
STANDARD
  71
0
  11
2.539
  21
1.5672
  0
POLYLINE
  8
Pin
  6
CONTINUOUS
  66
1
  70
0
  40
0.0098
  41
0.0098
  0
VERTEX
  8
Pin
  10
2.5128
  20
1.5179
  42
0
  0
VERTEX
  8
Pin
  10
2.6628
  20
1.5179
  42
0
  0
SEQEND
  0
POLYLINE
  8
Pin
  6
CONTINUOUS
  66
1
  70
0
  40
0.0049
  41
0.0049
  0
VERTEX
  8
Pin
  10
2.5103
  20
1.5179
  42
1
  0
VERTEX
  8
Pin
  10
2.5152
  20
1.5179
  42
1
  0
VERTEX
  8
Pin
  10
2.5103
  20
1.5179
  42
1
  0
SEQEND
  0
POLYLINE
  8
Pin
  6
CONTINUOUS
  66
1
  70
0
  40
0.0049
  41
0.0049
  0
VERTEX
  8
Pin
  10
2.6603
  20
1.5179
  42
1
  0
VERTEX
  8
Pin
  10
2.6652
  20
1.5179
  42
1
  0
VERTEX
  8
Pin
  10
2.6603
  20
1.5179
  42
1
  0
SEQEND
  0
TEXT
  8
Pin
  10
2.4209
  20
1.4398
  40
0.0365
  41
0.7
  1
SW
  50
0.0
  72
0
  73
3
  7
STANDARD
  71
0
  11
2.4209
  21
1.4398
  0
TEXT
  8
Pin
  10
2.539
  20
1.4672
  40
0.0292
  41
0.7
  1
2
  50
0.0
  72
0
  73
3
  7
STANDARD
  71
0
  11
2.539
  21
1.4672
  0
POLYLINE
  8
Pin
  6
CONTINUOUS
  66
1
  70
0
  40
0.0098
  41
0.0098
  0
VERTEX
  8
Pin
  10
2.5128
  20
1.4179
  42
0
  0
VERTEX
  8
Pin
  10
2.6628
  20
1.4179
  42
0
  0
SEQEND
  0
POLYLINE
  8
Pin
  6
CONTINUOUS
  66
1
  70
0
  40
0.0049
  41
0.0049
  0
VERTEX
  8
Pin
  10
2.5103
  20
1.4179
  42
1
  0
VERTEX
  8
Pin
  10
2.5152
  20
1.4179
  42
1
  0
VERTEX
  8
Pin
  10
2.5103
  20
1.4179
  42
1
  0
SEQEND
  0
POLYLINE
  8
Pin
  6
CONTINUOUS
  66
1
  70
0
  40
0.0049
  41
0.0049
  0
VERTEX
  8
Pin
  10
2.6603
  20
1.4179
  42
1
  0
VERTEX
  8
Pin
  10
2.6652
  20
1.4179
  42
1
  0
VERTEX
  8
Pin
  10
2.6603
  20
1.4179
  42
1
  0
SEQEND
  0
TEXT
  8
Pin
  10
2.3597
  20
1.2398
  40
0.0365
  41
0.7
  1
CBOOT
  50
0.0
  72
0
  73
3
  7
STANDARD
  71
0
  11
2.3597
  21
1.2398
  0
TEXT
  8
Pin
  10
2.539
  20
1.2672
  40
0.0292
  41
0.7
  1
3
  50
0.0
  72
0
  73
3
  7
STANDARD
  71
0
  11
2.539
  21
1.2672
  0
POLYLINE
  8
Pin
  6
CONTINUOUS
  66
1
  70
0
  40
0.0098
  41
0.0098
  0
VERTEX
  8
Pin
  10
2.5128
  20
1.2179
  42
0
  0
VERTEX
  8
Pin
  10
2.6628
  20
1.2179
  42
0
  0
SEQEND
  0
POLYLINE
  8
Pin
  6
CONTINUOUS
  66
1
  70
0
  40
0.0049
  41
0.0049
  0
VERTEX
  8
Pin
  10
2.5103
  20
1.2179
  42
1
  0
VERTEX
  8
Pin
  10
2.5152
  20
1.2179
  42
1
  0
VERTEX
  8
Pin
  10
2.5103
  20
1.2179
  42
1
  0
SEQEND
  0
POLYLINE
  8
Pin
  6
CONTINUOUS
  66
1
  70
0
  40
0.0049
  41
0.0049
  0
VERTEX
  8
Pin
  10
2.6603
  20
1.2179
  42
1
  0
VERTEX
  8
Pin
  10
2.6652
  20
1.2179
  42
1
  0
VERTEX
  8
Pin
  10
2.6603
  20
1.2179
  42
1
  0
SEQEND
  0
TEXT
  8
Pin
  10
1.7521
  20
1.1398
  40
0.0365
  41
0.7
  1
VCC
  50
0.0
  72
0
  73
3
  7
STANDARD
  71
0
  11
1.7521
  21
1.1398
  0
TEXT
  8
Pin
  10
1.6652
  20
1.1672
  40
0.0292
  41
0.7
  1
4
  50
0.0
  72
0
  73
3
  7
STANDARD
  71
0
  11
1.6652
  21
1.1672
  0
POLYLINE
  8
Pin
  6
CONTINUOUS
  66
1
  70
0
  40
0.0098
  41
0.0098
  0
VERTEX
  8
Pin
  10
1.7128
  20
1.1179
  42
0
  0
VERTEX
  8
Pin
  10
1.5628
  20
1.1179
  42
0
  0
SEQEND
  0
POLYLINE
  8
Pin
  6
CONTINUOUS
  66
1
  70
0
  40
0.0049
  41
0.0049
  0
VERTEX
  8
Pin
  10
1.7103
  20
1.1179
  42
1
  0
VERTEX
  8
Pin
  10
1.7152
  20
1.1179
  42
1
  0
VERTEX
  8
Pin
  10
1.7103
  20
1.1179
  42
1
  0
SEQEND
  0
POLYLINE
  8
Pin
  6
CONTINUOUS
  66
1
  70
0
  40
0.0049
  41
0.0049
  0
VERTEX
  8
Pin
  10
1.5603
  20
1.1179
  42
1
  0
VERTEX
  8
Pin
  10
1.5652
  20
1.1179
  42
1
  0
VERTEX
  8
Pin
  10
1.5603
  20
1.1179
  42
1
  0
SEQEND
  0
TEXT
  8
Pin
  10
2.3979
  20
0.8398
  40
0.0365
  41
0.7
  1
BIAS
  50
0.0
  72
0
  73
3
  7
STANDARD
  71
0
  11
2.3979
  21
0.8398
  0
TEXT
  8
Pin
  10
2.539
  20
0.8672
  40
0.0292
  41
0.7
  1
5
  50
0.0
  72
0
  73
3
  7
STANDARD
  71
0
  11
2.539
  21
0.8672
  0
POLYLINE
  8
Pin
  6
CONTINUOUS
  66
1
  70
0
  40
0.0098
  41
0.0098
  0
VERTEX
  8
Pin
  10
2.5128
  20
0.8179
  42
0
  0
VERTEX
  8
Pin
  10
2.6628
  20
0.8179
  42
0
  0
SEQEND
  0
POLYLINE
  8
Pin
  6
CONTINUOUS
  66
1
  70
0
  40
0.0049
  41
0.0049
  0
VERTEX
  8
Pin
  10
2.5103
  20
0.8179
  42
1
  0
VERTEX
  8
Pin
  10
2.5152
  20
0.8179
  42
1
  0
VERTEX
  8
Pin
  10
2.5103
  20
0.8179
  42
1
  0
SEQEND
  0
POLYLINE
  8
Pin
  6
CONTINUOUS
  66
1
  70
0
  40
0.0049
  41
0.0049
  0
VERTEX
  8
Pin
  10
2.6603
  20
0.8179
  42
1
  0
VERTEX
  8
Pin
  10
2.6652
  20
0.8179
  42
1
  0
VERTEX
  8
Pin
  10
2.6603
  20
0.8179
  42
1
  0
SEQEND
  0
TEXT
  8
Pin
  10
1.7521
  20
1.0398
  40
0.0365
  41
0.7
  1
SYNC
  50
0.0
  72
0
  73
3
  7
STANDARD
  71
0
  11
1.7521
  21
1.0398
  0
TEXT
  8
Pin
  10
1.6652
  20
1.0672
  40
0.0292
  41
0.7
  1
6
  50
0.0
  72
0
  73
3
  7
STANDARD
  71
0
  11
1.6652
  21
1.0672
  0
POLYLINE
  8
Pin
  6
CONTINUOUS
  66
1
  70
0
  40
0.0098
  41
0.0098
  0
VERTEX
  8
Pin
  10
1.7128
  20
1.0179
  42
0
  0
VERTEX
  8
Pin
  10
1.5628
  20
1.0179
  42
0
  0
SEQEND
  0
POLYLINE
  8
Pin
  6
CONTINUOUS
  66
1
  70
0
  40
0.0049
  41
0.0049
  0
VERTEX
  8
Pin
  10
1.7103
  20
1.0179
  42
1
  0
VERTEX
  8
Pin
  10
1.7152
  20
1.0179
  42
1
  0
VERTEX
  8
Pin
  10
1.7103
  20
1.0179
  42
1
  0
SEQEND
  0
POLYLINE
  8
Pin
  6
CONTINUOUS
  66
1
  70
0
  40
0.0049
  41
0.0049
  0
VERTEX
  8
Pin
  10
1.5603
  20
1.0179
  42
1
  0
VERTEX
  8
Pin
  10
1.5652
  20
1.0179
  42
1
  0
VERTEX
  8
Pin
  10
1.5603
  20
1.0179
  42
1
  0
SEQEND
  0
TEXT
  8
Pin
  10
1.7521
  20
0.9398
  40
0.0365
  41
0.7
  1
FPWM
  50
0.0
  72
0
  73
3
  7
STANDARD
  71
0
  11
1.7521
  21
0.9398
  0
TEXT
  8
Pin
  10
1.6652
  20
0.9672
  40
0.0292
  41
0.7
  1
7
  50
0.0
  72
0
  73
3
  7
STANDARD
  71
0
  11
1.6652
  21
0.9672
  0
POLYLINE
  8
Pin
  6
CONTINUOUS
  66
1
  70
0
  40
0.0098
  41
0.0098
  0
VERTEX
  8
Pin
  10
1.7128
  20
0.9179
  42
0
  0
VERTEX
  8
Pin
  10
1.5628
  20
0.9179
  42
0
  0
SEQEND
  0
POLYLINE
  8
Pin
  6
CONTINUOUS
  66
1
  70
0
  40
0.0049
  41
0.0049
  0
VERTEX
  8
Pin
  10
1.7103
  20
0.9179
  42
1
  0
VERTEX
  8
Pin
  10
1.7152
  20
0.9179
  42
1
  0
VERTEX
  8
Pin
  10
1.7103
  20
0.9179
  42
1
  0
SEQEND
  0
POLYLINE
  8
Pin
  6
CONTINUOUS
  66
1
  70
0
  40
0.0049
  41
0.0049
  0
VERTEX
  8
Pin
  10
1.5603
  20
0.9179
  42
1
  0
VERTEX
  8
Pin
  10
1.5652
  20
0.9179
  42
1
  0
VERTEX
  8
Pin
  10
1.5603
  20
0.9179
  42
1
  0
SEQEND
  0
TEXT
  8
Pin
  10
1.7521
  20
1.2398
  40
0.0365
  41
0.7
  1
%%oRESET
  50
0.0
  72
0
  73
3
  7
STANDARD
  71
0
  11
1.7521
  21
1.2398
  0
TEXT
  8
Pin
  10
1.6652
  20
1.2672
  40
0.0292
  41
0.7
  1
8
  50
0.0
  72
0
  73
3
  7
STANDARD
  71
0
  11
1.6652
  21
1.2672
  0
POLYLINE
  8
Pin
  6
CONTINUOUS
  66
1
  70
0
  40
0.0098
  41
0.0098
  0
VERTEX
  8
Pin
  10
1.7128
  20
1.2179
  42
0
  0
VERTEX
  8
Pin
  10
1.5628
  20
1.2179
  42
0
  0
SEQEND
  0
POLYLINE
  8
Pin
  6
CONTINUOUS
  66
1
  70
0
  40
0.0049
  41
0.0049
  0
VERTEX
  8
Pin
  10
1.7103
  20
1.2179
  42
1
  0
VERTEX
  8
Pin
  10
1.7152
  20
1.2179
  42
1
  0
VERTEX
  8
Pin
  10
1.7103
  20
1.2179
  42
1
  0
SEQEND
  0
POLYLINE
  8
Pin
  6
CONTINUOUS
  66
1
  70
0
  40
0.0049
  41
0.0049
  0
VERTEX
  8
Pin
  10
1.5603
  20
1.2179
  42
1
  0
VERTEX
  8
Pin
  10
1.5652
  20
1.2179
  42
1
  0
VERTEX
  8
Pin
  10
1.5603
  20
1.2179
  42
1
  0
SEQEND
  0
POLYLINE
  8
Pin
  6
CONTINUOUS
  66
1
  70
0
  40
0.0098
  41
0.0098
  0
VERTEX
  8
Pin
  10
1.547
  20
1.2337
  42
0
  0
VERTEX
  8
Pin
  10
1.5785
  20
1.2337
  42
0
  0
VERTEX
  8
Pin
  10
1.5785
  20
1.2022
  42
0
  0
VERTEX
  8
Pin
  10
1.547
  20
1.2022
  42
0
  0
VERTEX
  8
Pin
  10
1.547
  20
1.2337
  42
0
  0
SEQEND
  0
TEXT
  8
Pin
  10
2.434
  20
1.0398
  40
0.0365
  41
0.7
  1
FB
  50
0.0
  72
0
  73
3
  7
STANDARD
  71
0
  11
2.434
  21
1.0398
  0
TEXT
  8
Pin
  10
2.539
  20
1.0672
  40
0.0292
  41
0.7
  1
9
  50
0.0
  72
0
  73
3
  7
STANDARD
  71
0
  11
2.539
  21
1.0672
  0
POLYLINE
  8
Pin
  6
CONTINUOUS
  66
1
  70
0
  40
0.0098
  41
0.0098
  0
VERTEX
  8
Pin
  10
2.5128
  20
1.0179
  42
0
  0
VERTEX
  8
Pin
  10
2.6628
  20
1.0179
  42
0
  0
SEQEND
  0
POLYLINE
  8
Pin
  6
CONTINUOUS
  66
1
  70
0
  40
0.0049
  41
0.0049
  0
VERTEX
  8
Pin
  10
2.5103
  20
1.0179
  42
1
  0
VERTEX
  8
Pin
  10
2.5152
  20
1.0179
  42
1
  0
VERTEX
  8
Pin
  10
2.5103
  20
1.0179
  42
1
  0
SEQEND
  0
POLYLINE
  8
Pin
  6
CONTINUOUS
  66
1
  70
0
  40
0.0049
  41
0.0049
  0
VERTEX
  8
Pin
  10
2.6603
  20
1.0179
  42
1
  0
VERTEX
  8
Pin
  10
2.6652
  20
1.0179
  42
1
  0
VERTEX
  8
Pin
  10
2.6603
  20
1.0179
  42
1
  0
SEQEND
  0
TEXT
  8
Pin
  10
1.7521
  20
0.8398
  40
0.0365
  41
0.7
  1
AGND
  50
0.0
  72
0
  73
3
  7
STANDARD
  71
0
  11
1.7521
  21
0.8398
  0
TEXT
  8
Pin
  10
1.657
  20
0.8672
  40
0.0292
  41
0.7
  1
10
  50
0.0
  72
0
  73
3
  7
STANDARD
  71
0
  11
1.657
  21
0.8672
  0
POLYLINE
  8
Pin
  6
CONTINUOUS
  66
1
  70
0
  40
0.0098
  41
0.0098
  0
VERTEX
  8
Pin
  10
1.7128
  20
0.8179
  42
0
  0
VERTEX
  8
Pin
  10
1.5628
  20
0.8179
  42
0
  0
SEQEND
  0
POLYLINE
  8
Pin
  6
CONTINUOUS
  66
1
  70
0
  40
0.0049
  41
0.0049
  0
VERTEX
  8
Pin
  10
1.7103
  20
0.8179
  42
1
  0
VERTEX
  8
Pin
  10
1.7152
  20
0.8179
  42
1
  0
VERTEX
  8
Pin
  10
1.7103
  20
0.8179
  42
1
  0
SEQEND
  0
POLYLINE
  8
Pin
  6
CONTINUOUS
  66
1
  70
0
  40
0.0049
  41
0.0049
  0
VERTEX
  8
Pin
  10
1.5603
  20
0.8179
  42
1
  0
VERTEX
  8
Pin
  10
1.5652
  20
0.8179
  42
1
  0
VERTEX
  8
Pin
  10
1.5603
  20
0.8179
  42
1
  0
SEQEND
  0
TEXT
  8
Pin
  10
1.7521
  20
1.3398
  40
0.0365
  41
0.7
  1
EN
  50
0.0
  72
0
  73
3
  7
STANDARD
  71
0
  11
1.7521
  21
1.3398
  0
TEXT
  8
Pin
  10
1.657
  20
1.3672
  40
0.0292
  41
0.7
  1
11
  50
0.0
  72
0
  73
3
  7
STANDARD
  71
0
  11
1.657
  21
1.3672
  0
POLYLINE
  8
Pin
  6
CONTINUOUS
  66
1
  70
0
  40
0.0098
  41
0.0098
  0
VERTEX
  8
Pin
  10
1.7128
  20
1.3179
  42
0
  0
VERTEX
  8
Pin
  10
1.5628
  20
1.3179
  42
0
  0
SEQEND
  0
POLYLINE
  8
Pin
  6
CONTINUOUS
  66
1
  70
0
  40
0.0049
  41
0.0049
  0
VERTEX
  8
Pin
  10
1.7103
  20
1.3179
  42
1
  0
VERTEX
  8
Pin
  10
1.7152
  20
1.3179
  42
1
  0
VERTEX
  8
Pin
  10
1.7103
  20
1.3179
  42
1
  0
SEQEND
  0
POLYLINE
  8
Pin
  6
CONTINUOUS
  66
1
  70
0
  40
0.0049
  41
0.0049
  0
VERTEX
  8
Pin
  10
1.5603
  20
1.3179
  42
1
  0
VERTEX
  8
Pin
  10
1.5652
  20
1.3179
  42
1
  0
VERTEX
  8
Pin
  10
1.5603
  20
1.3179
  42
1
  0
SEQEND
  0
TEXT
  8
Pin
  10
1.7521
  20
1.4398
  40
0.0365
  41
0.7
  1
VIN
  50
0.0
  72
0
  73
3
  7
STANDARD
  71
0
  11
1.7521
  21
1.4398
  0
TEXT
  8
Pin
  10
1.657
  20
1.4672
  40
0.0292
  41
0.7
  1
12
  50
0.0
  72
0
  73
3
  7
STANDARD
  71
0
  11
1.657
  21
1.4672
  0
POLYLINE
  8
Pin
  6
CONTINUOUS
  66
1
  70
0
  40
0.0098
  41
0.0098
  0
VERTEX
  8
Pin
  10
1.7128
  20
1.4179
  42
0
  0
VERTEX
  8
Pin
  10
1.5628
  20
1.4179
  42
0
  0
SEQEND
  0
POLYLINE
  8
Pin
  6
CONTINUOUS
  66
1
  70
0
  40
0.0049
  41
0.0049
  0
VERTEX
  8
Pin
  10
1.7103
  20
1.4179
  42
1
  0
VERTEX
  8
Pin
  10
1.7152
  20
1.4179
  42
1
  0
VERTEX
  8
Pin
  10
1.7103
  20
1.4179
  42
1
  0
SEQEND
  0
POLYLINE
  8
Pin
  6
CONTINUOUS
  66
1
  70
0
  40
0.0049
  41
0.0049
  0
VERTEX
  8
Pin
  10
1.5603
  20
1.4179
  42
1
  0
VERTEX
  8
Pin
  10
1.5652
  20
1.4179
  42
1
  0
VERTEX
  8
Pin
  10
1.5603
  20
1.4179
  42
1
  0
SEQEND
  0
TEXT
  8
Pin
  10
1.7521
  20
1.5398
  40
0.0365
  41
0.7
  1
VIN
  50
0.0
  72
0
  73
3
  7
STANDARD
  71
0
  11
1.7521
  21
1.5398
  0
TEXT
  8
Pin
  10
1.657
  20
1.5672
  40
0.0292
  41
0.7
  1
13
  50
0.0
  72
0
  73
3
  7
STANDARD
  71
0
  11
1.657
  21
1.5672
  0
POLYLINE
  8
Pin
  6
CONTINUOUS
  66
1
  70
0
  40
0.0098
  41
0.0098
  0
VERTEX
  8
Pin
  10
1.7128
  20
1.5179
  42
0
  0
VERTEX
  8
Pin
  10
1.5628
  20
1.5179
  42
0
  0
SEQEND
  0
POLYLINE
  8
Pin
  6
CONTINUOUS
  66
1
  70
0
  40
0.0049
  41
0.0049
  0
VERTEX
  8
Pin
  10
1.7103
  20
1.5179
  42
1
  0
VERTEX
  8
Pin
  10
1.7152
  20
1.5179
  42
1
  0
VERTEX
  8
Pin
  10
1.7103
  20
1.5179
  42
1
  0
SEQEND
  0
POLYLINE
  8
Pin
  6
CONTINUOUS
  66
1
  70
0
  40
0.0049
  41
0.0049
  0
VERTEX
  8
Pin
  10
1.5603
  20
1.5179
  42
1
  0
VERTEX
  8
Pin
  10
1.5652
  20
1.5179
  42
1
  0
VERTEX
  8
Pin
  10
1.5603
  20
1.5179
  42
1
  0
SEQEND
  0
TEXT
  8
Pin
  10
2.4275
  20
0.6398
  40
0.0365
  41
0.7
  1
NC
  50
0.0
  72
0
  73
3
  7
STANDARD
  71
0
  11
2.4275
  21
0.6398
  0
TEXT
  8
Pin
  10
2.539
  20
0.6672
  40
0.0292
  41
0.7
  1
14
  50
0.0
  72
0
  73
3
  7
STANDARD
  71
0
  11
2.539
  21
0.6672
  0
POLYLINE
  8
Pin
  6
CONTINUOUS
  66
1
  70
0
  40
0.0098
  41
0.0098
  0
VERTEX
  8
Pin
  10
2.5128
  20
0.6179
  42
0
  0
VERTEX
  8
Pin
  10
2.6628
  20
0.6179
  42
0
  0
SEQEND
  0
POLYLINE
  8
Pin
  6
CONTINUOUS
  66
1
  70
0
  40
0.0049
  41
0.0049
  0
VERTEX
  8
Pin
  10
2.5103
  20
0.6179
  42
1
  0
VERTEX
  8
Pin
  10
2.5152
  20
0.6179
  42
1
  0
VERTEX
  8
Pin
  10
2.5103
  20
0.6179
  42
1
  0
SEQEND
  0
POLYLINE
  8
Pin
  6
CONTINUOUS
  66
1
  70
0
  40
0.0049
  41
0.0049
  0
VERTEX
  8
Pin
  10
2.6603
  20
0.6179
  42
1
  0
VERTEX
  8
Pin
  10
2.6652
  20
0.6179
  42
1
  0
VERTEX
  8
Pin
  10
2.6603
  20
0.6179
  42
1
  0
SEQEND
  0
POLYLINE
  8
Pin
  6
CONTINUOUS
  66
1
  70
0
  40
0.0098
  41
0.0098
  0
VERTEX
  8
Pin
  10
2.647
  20
0.6337
  42
0
  0
VERTEX
  8
Pin
  10
2.6785
  20
0.6337
  42
0
  0
VERTEX
  8
Pin
  10
2.6785
  20
0.6022
  42
0
  0
VERTEX
  8
Pin
  10
2.647
  20
0.6022
  42
0
  0
VERTEX
  8
Pin
  10
2.647
  20
0.6337
  42
0
  0
SEQEND
  0
TEXT
  8
Pin
  10
1.7521
  20
0.7398
  40
0.0365
  41
0.7
  1
PGND
  50
0.0
  72
0
  73
3
  7
STANDARD
  71
0
  11
1.7521
  21
0.7398
  0
TEXT
  8
Pin
  10
1.657
  20
0.7672
  40
0.0292
  41
0.7
  1
15
  50
0.0
  72
0
  73
3
  7
STANDARD
  71
0
  11
1.657
  21
0.7672
  0
POLYLINE
  8
Pin
  6
CONTINUOUS
  66
1
  70
0
  40
0.0098
  41
0.0098
  0
VERTEX
  8
Pin
  10
1.7128
  20
0.7179
  42
0
  0
VERTEX
  8
Pin
  10
1.5628
  20
0.7179
  42
0
  0
SEQEND
  0
POLYLINE
  8
Pin
  6
CONTINUOUS
  66
1
  70
0
  40
0.0049
  41
0.0049
  0
VERTEX
  8
Pin
  10
1.7103
  20
0.7179
  42
1
  0
VERTEX
  8
Pin
  10
1.7152
  20
0.7179
  42
1
  0
VERTEX
  8
Pin
  10
1.7103
  20
0.7179
  42
1
  0
SEQEND
  0
POLYLINE
  8
Pin
  6
CONTINUOUS
  66
1
  70
0
  40
0.0049
  41
0.0049
  0
VERTEX
  8
Pin
  10
1.5603
  20
0.7179
  42
1
  0
VERTEX
  8
Pin
  10
1.5652
  20
0.7179
  42
1
  0
VERTEX
  8
Pin
  10
1.5603
  20
0.7179
  42
1
  0
SEQEND
  0
TEXT
  8
Pin
  10
1.7521
  20
0.6398
  40
0.0365
  41
0.7
  1
PGND
  50
0.0
  72
0
  73
3
  7
STANDARD
  71
0
  11
1.7521
  21
0.6398
  0
TEXT
  8
Pin
  10
1.657
  20
0.6672
  40
0.0292
  41
0.7
  1
16
  50
0.0
  72
0
  73
3
  7
STANDARD
  71
0
  11
1.657
  21
0.6672
  0
POLYLINE
  8
Pin
  6
CONTINUOUS
  66
1
  70
0
  40
0.0098
  41
0.0098
  0
VERTEX
  8
Pin
  10
1.7128
  20
0.6179
  42
0
  0
VERTEX
  8
Pin
  10
1.5628
  20
0.6179
  42
0
  0
SEQEND
  0
POLYLINE
  8
Pin
  6
CONTINUOUS
  66
1
  70
0
  40
0.0049
  41
0.0049
  0
VERTEX
  8
Pin
  10
1.7103
  20
0.6179
  42
1
  0
VERTEX
  8
Pin
  10
1.7152
  20
0.6179
  42
1
  0
VERTEX
  8
Pin
  10
1.7103
  20
0.6179
  42
1
  0
SEQEND
  0
POLYLINE
  8
Pin
  6
CONTINUOUS
  66
1
  70
0
  40
0.0049
  41
0.0049
  0
VERTEX
  8
Pin
  10
1.5603
  20
0.6179
  42
1
  0
VERTEX
  8
Pin
  10
1.5652
  20
0.6179
  42
1
  0
VERTEX
  8
Pin
  10
1.5603
  20
0.6179
  42
1
  0
SEQEND
  0
TEXT
  8
Pin
  10
2.0909
  20
0.5573
  40
0.0365
  41
0.7
  1
EP
  50
90.0
  72
0
  73
3
  7
STANDARD
  71
0
  11
2.0909
  21
0.5573
  0
TEXT
  8
Pin
  10
2.0636
  20
0.4589
  40
0.0292
  41
0.7
  1
17
  50
90.0
  72
0
  73
3
  7
STANDARD
  71
0
  11
2.0636
  21
0.4589
  0
POLYLINE
  8
Pin
  6
CONTINUOUS
  66
1
  70
0
  40
0.0098
  41
0.0098
  0
VERTEX
  8
Pin
  10
2.1128
  20
0.5179
  42
0
  0
VERTEX
  8
Pin
  10
2.1128
  20
0.3679
  42
0
  0
SEQEND
  0
POLYLINE
  8
Pin
  6
CONTINUOUS
  66
1
  70
0
  40
0.0049
  41
0.0049
  0
VERTEX
  8
Pin
  10
2.1103
  20
0.5179
  42
1
  0
VERTEX
  8
Pin
  10
2.1152
  20
0.5179
  42
1
  0
VERTEX
  8
Pin
  10
2.1103
  20
0.5179
  42
1
  0
SEQEND
  0
POLYLINE
  8
Pin
  6
CONTINUOUS
  66
1
  70
0
  40
0.0049
  41
0.0049
  0
VERTEX
  8
Pin
  10
2.1103
  20
0.3679
  42
1
  0
VERTEX
  8
Pin
  10
2.1152
  20
0.3679
  42
1
  0
VERTEX
  8
Pin
  10
2.1103
  20
0.3679
  42
1
  0
SEQEND
  0
POLYLINE
  8
Titles
  6
CONTINUOUS
  66
1
  70
0
  40
0.0131
  41
0.0131
  0
VERTEX
  8
Titles
  10
7.8905
  20
-3.0536
  42
0
  0
VERTEX
  8
Titles
  10
-3.6025
  20
-3.0536
  42
0
  0
VERTEX
  8
Titles
  10
-3.6025
  20
5.0144
  42
0
  0
VERTEX
  8
Titles
  10
7.8905
  20
5.0144
  42
0
  0
VERTEX
  8
Titles
  10
7.8905
  20
-3.0536
  42
0
  0
SEQEND
  0
ENDSEC
  0
EOF
