  0
SECTION
  2
HEADER
  9
$ACADVER
  1
AC1009
  9
$ANGDIR
  70
0
  9
$CECOLOR
  62
256
  9
$CELTYPE
  6
BYLAYER
  9
$EXTMIN
  10
0.0
  20
0.0
  9
$EXTMAX
  10
4.5128
  20
4.361
  9
$FILLMODE
  70
1
  9
$MIRRTEXT
  70
0
  0
ENDSEC
  0
SECTION
  2
TABLES
  0
TABLE
  2
LAYER
  70
7
  0
LAYER
  2
Shapes
  70
64
  62
252
  6
CONTINUOUS
  0
LAYER
  2
Element
  70
64
  62
253
  6
CONTINUOUS
  0
LAYER
  2
Bus
  70
64
  62
180
  6
CONTINUOUS
  0
LAYER
  2
Net
  70
64
  62
50
  6
CONTINUOUS
  0
LAYER
  2
Pin
  70
64
  62
50
  6
CONTINUOUS
  0
LAYER
  2
Tables
  70
64
  62
253
  6
CONTINUOUS
  0
LAYER
  2
Titles
  70
64
  62
253
  6
CONTINUOUS
  0
ENDTAB
  0
ENDSEC
  0
SECTION
  2
ENTITIES
  0
POLYLINE
  8
Element
  6
CONTINUOUS
  66
1
  70
0
  40
0.0098
  41
0.0098
  0
VERTEX
  8
Element
  10
1.4625
  20
1.9867
  42
0
  0
VERTEX
  8
Element
  10
1.4625
  20
2.1867
  42
0
  0
VERTEX
  8
Element
  10
1.3125
  20
2.0867
  42
0
  0
VERTEX
  8
Element
  10
1.3125
  20
2.0867
  42
0
  0
SEQEND
  0
POLYLINE
  8
Element
  6
CONTINUOUS
  66
1
  70
0
  40
0.0049
  41
0.0049
  0
VERTEX
  8
Element
  10
1.4601
  20
1.9867
  42
1
  0
VERTEX
  8
Element
  10
1.465
  20
1.9867
  42
1
  0
VERTEX
  8
Element
  10
1.4601
  20
1.9867
  42
1
  0
SEQEND
  0
POLYLINE
  8
Element
  6
CONTINUOUS
  66
1
  70
0
  40
0.0049
  41
0.0049
  0
VERTEX
  8
Element
  10
1.3101
  20
2.0867
  42
1
  0
VERTEX
  8
Element
  10
1.315
  20
2.0867
  42
1
  0
VERTEX
  8
Element
  10
1.3101
  20
2.0867
  42
1
  0
SEQEND
  0
POLYLINE
  8
Element
  6
CONTINUOUS
  66
1
  70
0
  40
0.0098
  41
0.0098
  0
VERTEX
  8
Element
  10
1.3125
  20
2.1867
  42
0
  0
VERTEX
  8
Element
  10
1.3125
  20
1.9867
  42
0
  0
SEQEND
  0
POLYLINE
  8
Element
  6
CONTINUOUS
  66
1
  70
0
  40
0.0049
  41
0.0049
  0
VERTEX
  8
Element
  10
1.3101
  20
2.1867
  42
1
  0
VERTEX
  8
Element
  10
1.315
  20
2.1867
  42
1
  0
VERTEX
  8
Element
  10
1.3101
  20
2.1867
  42
1
  0
SEQEND
  0
POLYLINE
  8
Element
  6
CONTINUOUS
  66
1
  70
0
  40
0.0049
  41
0.0049
  0
VERTEX
  8
Element
  10
1.3101
  20
1.9867
  42
1
  0
VERTEX
  8
Element
  10
1.315
  20
1.9867
  42
1
  0
VERTEX
  8
Element
  10
1.3101
  20
1.9867
  42
1
  0
SEQEND
  0
POLYLINE
  8
Element
  6
CONTINUOUS
  66
1
  70
0
  40
0.0098
  41
0.0098
  0
VERTEX
  8
Element
  10
3.6503
  20
2.018
  42
0
  0
VERTEX
  8
Element
  10
3.6503
  20
2.218
  42
0
  0
VERTEX
  8
Element
  10
3.5003
  20
2.118
  42
0
  0
VERTEX
  8
Element
  10
3.5003
  20
2.118
  42
0
  0
SEQEND
  0
POLYLINE
  8
Element
  6
CONTINUOUS
  66
1
  70
0
  40
0.0049
  41
0.0049
  0
VERTEX
  8
Element
  10
3.6478
  20
2.018
  42
1
  0
VERTEX
  8
Element
  10
3.6527
  20
2.018
  42
1
  0
VERTEX
  8
Element
  10
3.6478
  20
2.018
  42
1
  0
SEQEND
  0
POLYLINE
  8
Element
  6
CONTINUOUS
  66
1
  70
0
  40
0.0049
  41
0.0049
  0
VERTEX
  8
Element
  10
3.4978
  20
2.118
  42
1
  0
VERTEX
  8
Element
  10
3.5027
  20
2.118
  42
1
  0
VERTEX
  8
Element
  10
3.4978
  20
2.118
  42
1
  0
SEQEND
  0
POLYLINE
  8
Element
  6
CONTINUOUS
  66
1
  70
0
  40
0.0098
  41
0.0098
  0
VERTEX
  8
Element
  10
3.5003
  20
2.218
  42
0
  0
VERTEX
  8
Element
  10
3.5003
  20
2.018
  42
0
  0
SEQEND
  0
POLYLINE
  8
Element
  6
CONTINUOUS
  66
1
  70
0
  40
0.0049
  41
0.0049
  0
VERTEX
  8
Element
  10
3.4978
  20
2.218
  42
1
  0
VERTEX
  8
Element
  10
3.5027
  20
2.218
  42
1
  0
VERTEX
  8
Element
  10
3.4978
  20
2.218
  42
1
  0
SEQEND
  0
POLYLINE
  8
Element
  6
CONTINUOUS
  66
1
  70
0
  40
0.0049
  41
0.0049
  0
VERTEX
  8
Element
  10
3.4978
  20
2.018
  42
1
  0
VERTEX
  8
Element
  10
3.5027
  20
2.018
  42
1
  0
VERTEX
  8
Element
  10
3.4978
  20
2.018
  42
1
  0
SEQEND
  0
POLYLINE
  8
Element
  6
CONTINUOUS
  66
1
  70
0
  40
0.0098
  41
0.0098
  0
VERTEX
  8
Element
  10
1.2875
  20
1.5679
  42
0
  0
VERTEX
  8
Element
  10
1.2875
  20
1.3679
  42
0
  0
VERTEX
  8
Element
  10
1.4375
  20
1.4679
  42
0
  0
VERTEX
  8
Element
  10
1.4375
  20
1.4679
  42
0
  0
SEQEND
  0
POLYLINE
  8
Element
  6
CONTINUOUS
  66
1
  70
0
  40
0.0049
  41
0.0049
  0
VERTEX
  8
Element
  10
1.285
  20
1.5679
  42
1
  0
VERTEX
  8
Element
  10
1.2899
  20
1.5679
  42
1
  0
VERTEX
  8
Element
  10
1.285
  20
1.5679
  42
1
  0
SEQEND
  0
POLYLINE
  8
Element
  6
CONTINUOUS
  66
1
  70
0
  40
0.0049
  41
0.0049
  0
VERTEX
  8
Element
  10
1.435
  20
1.4679
  42
1
  0
VERTEX
  8
Element
  10
1.4399
  20
1.4679
  42
1
  0
VERTEX
  8
Element
  10
1.435
  20
1.4679
  42
1
  0
SEQEND
  0
POLYLINE
  8
Element
  6
CONTINUOUS
  66
1
  70
0
  40
0.0098
  41
0.0098
  0
VERTEX
  8
Element
  10
1.4375
  20
1.5679
  42
0
  0
VERTEX
  8
Element
  10
1.4375
  20
1.3679
  42
0
  0
SEQEND
  0
POLYLINE
  8
Element
  6
CONTINUOUS
  66
1
  70
0
  40
0.0049
  41
0.0049
  0
VERTEX
  8
Element
  10
1.435
  20
1.5679
  42
1
  0
VERTEX
  8
Element
  10
1.4399
  20
1.5679
  42
1
  0
VERTEX
  8
Element
  10
1.435
  20
1.5679
  42
1
  0
SEQEND
  0
POLYLINE
  8
Element
  6
CONTINUOUS
  66
1
  70
0
  40
0.0049
  41
0.0049
  0
VERTEX
  8
Element
  10
1.435
  20
1.3679
  42
1
  0
VERTEX
  8
Element
  10
1.4399
  20
1.3679
  42
1
  0
VERTEX
  8
Element
  10
1.435
  20
1.3679
  42
1
  0
SEQEND
  0
POLYLINE
  8
Element
  6
CONTINUOUS
  66
1
  70
0
  40
0.0098
  41
0.0098
  0
VERTEX
  8
Element
  10
1.4875
  20
1.5179
  42
0
  0
VERTEX
  8
Element
  10
1.5875
  20
1.6179
  42
0
  0
VERTEX
  8
Element
  10
1.4875
  20
1.5179
  42
0
  0
SEQEND
  0
POLYLINE
  8
Element
  6
CONTINUOUS
  66
1
  70
0
  40
0.0049
  41
0.0049
  0
VERTEX
  8
Element
  10
1.485
  20
1.5179
  42
1
  0
VERTEX
  8
Element
  10
1.4899
  20
1.5179
  42
1
  0
VERTEX
  8
Element
  10
1.485
  20
1.5179
  42
1
  0
SEQEND
  0
POLYLINE
  8
Element
  6
CONTINUOUS
  66
1
  70
0
  40
0.0098
  41
0.0098
  0
VERTEX
  8
Element
  10
1.5375
  20
1.5179
  42
0
  0
VERTEX
  8
Element
  10
1.6375
  20
1.6179
  42
0
  0
VERTEX
  8
Element
  10
1.5375
  20
1.5179
  42
0
  0
SEQEND
  0
POLYLINE
  8
Element
  6
CONTINUOUS
  66
1
  70
0
  40
0.0049
  41
0.0049
  0
VERTEX
  8
Element
  10
1.535
  20
1.5179
  42
1
  0
VERTEX
  8
Element
  10
1.5399
  20
1.5179
  42
1
  0
VERTEX
  8
Element
  10
1.535
  20
1.5179
  42
1
  0
SEQEND
  0
POLYLINE
  8
Element
  6
CONTINUOUS
  66
1
  70
0
  40
0.0098
  41
0.0098
  0
VERTEX
  8
Element
  10
3.444
  20
1.6054
  42
0
  0
VERTEX
  8
Element
  10
3.444
  20
1.4054
  42
0
  0
VERTEX
  8
Element
  10
3.594
  20
1.5054
  42
0
  0
VERTEX
  8
Element
  10
3.594
  20
1.5054
  42
0
  0
SEQEND
  0
POLYLINE
  8
Element
  6
CONTINUOUS
  66
1
  70
0
  40
0.0049
  41
0.0049
  0
VERTEX
  8
Element
  10
3.4415
  20
1.6054
  42
1
  0
VERTEX
  8
Element
  10
3.4464
  20
1.6054
  42
1
  0
VERTEX
  8
Element
  10
3.4415
  20
1.6054
  42
1
  0
SEQEND
  0
POLYLINE
  8
Element
  6
CONTINUOUS
  66
1
  70
0
  40
0.0049
  41
0.0049
  0
VERTEX
  8
Element
  10
3.5915
  20
1.5054
  42
1
  0
VERTEX
  8
Element
  10
3.5964
  20
1.5054
  42
1
  0
VERTEX
  8
Element
  10
3.5915
  20
1.5054
  42
1
  0
SEQEND
  0
POLYLINE
  8
Element
  6
CONTINUOUS
  66
1
  70
0
  40
0.0098
  41
0.0098
  0
VERTEX
  8
Element
  10
3.594
  20
1.6054
  42
0
  0
VERTEX
  8
Element
  10
3.594
  20
1.4054
  42
0
  0
SEQEND
  0
POLYLINE
  8
Element
  6
CONTINUOUS
  66
1
  70
0
  40
0.0049
  41
0.0049
  0
VERTEX
  8
Element
  10
3.5915
  20
1.6054
  42
1
  0
VERTEX
  8
Element
  10
3.5964
  20
1.6054
  42
1
  0
VERTEX
  8
Element
  10
3.5915
  20
1.6054
  42
1
  0
SEQEND
  0
POLYLINE
  8
Element
  6
CONTINUOUS
  66
1
  70
0
  40
0.0049
  41
0.0049
  0
VERTEX
  8
Element
  10
3.5915
  20
1.4054
  42
1
  0
VERTEX
  8
Element
  10
3.5964
  20
1.4054
  42
1
  0
VERTEX
  8
Element
  10
3.5915
  20
1.4054
  42
1
  0
SEQEND
  0
POLYLINE
  8
Element
  6
CONTINUOUS
  66
1
  70
0
  40
0.0098
  41
0.0098
  0
VERTEX
  8
Element
  10
3.644
  20
1.5554
  42
0
  0
VERTEX
  8
Element
  10
3.744
  20
1.6554
  42
0
  0
VERTEX
  8
Element
  10
3.644
  20
1.5554
  42
0
  0
SEQEND
  0
POLYLINE
  8
Element
  6
CONTINUOUS
  66
1
  70
0
  40
0.0049
  41
0.0049
  0
VERTEX
  8
Element
  10
3.6415
  20
1.5554
  42
1
  0
VERTEX
  8
Element
  10
3.6464
  20
1.5554
  42
1
  0
VERTEX
  8
Element
  10
3.6415
  20
1.5554
  42
1
  0
SEQEND
  0
POLYLINE
  8
Element
  6
CONTINUOUS
  66
1
  70
0
  40
0.0098
  41
0.0098
  0
VERTEX
  8
Element
  10
3.694
  20
1.5554
  42
0
  0
VERTEX
  8
Element
  10
3.794
  20
1.6554
  42
0
  0
VERTEX
  8
Element
  10
3.694
  20
1.5554
  42
0
  0
SEQEND
  0
POLYLINE
  8
Element
  6
CONTINUOUS
  66
1
  70
0
  40
0.0049
  41
0.0049
  0
VERTEX
  8
Element
  10
3.6915
  20
1.5554
  42
1
  0
VERTEX
  8
Element
  10
3.6964
  20
1.5554
  42
1
  0
VERTEX
  8
Element
  10
3.6915
  20
1.5554
  42
1
  0
SEQEND
  0
POLYLINE
  8
Element
  6
CONTINUOUS
  66
1
  70
0
  40
0.0098
  41
0.0098
  0
VERTEX
  8
Element
  10
0.5375
  20
1.0116
  42
0
  0
VERTEX
  8
Element
  10
0.5745
  20
1.0116
  42
0
  0
SEQEND
  0
POLYLINE
  8
Element
  6
CONTINUOUS
  66
1
  70
0
  40
0.0049
  41
0.0049
  0
VERTEX
  8
Element
  10
0.535
  20
1.0116
  42
1
  0
VERTEX
  8
Element
  10
0.5399
  20
1.0116
  42
1
  0
VERTEX
  8
Element
  10
0.535
  20
1.0116
  42
1
  0
SEQEND
  0
POLYLINE
  8
Element
  6
CONTINUOUS
  66
1
  70
0
  40
0.0049
  41
0.0049
  0
VERTEX
  8
Element
  10
0.572
  20
1.0116
  42
1
  0
VERTEX
  8
Element
  10
0.5769
  20
1.0116
  42
1
  0
VERTEX
  8
Element
  10
0.572
  20
1.0116
  42
1
  0
SEQEND
  0
POLYLINE
  8
Element
  6
CONTINUOUS
  66
1
  70
0
  40
0.0098
  41
0.0098
  0
VERTEX
  8
Element
  10
0.6995
  20
1.0116
  42
0
  0
VERTEX
  8
Element
  10
0.7375
  20
1.0116
  42
0
  0
SEQEND
  0
POLYLINE
  8
Element
  6
CONTINUOUS
  66
1
  70
0
  40
0.0049
  41
0.0049
  0
VERTEX
  8
Element
  10
0.697
  20
1.0116
  42
1
  0
VERTEX
  8
Element
  10
0.7019
  20
1.0116
  42
1
  0
VERTEX
  8
Element
  10
0.697
  20
1.0116
  42
1
  0
SEQEND
  0
POLYLINE
  8
Element
  6
CONTINUOUS
  66
1
  70
0
  40
0.0049
  41
0.0049
  0
VERTEX
  8
Element
  10
0.735
  20
1.0116
  42
1
  0
VERTEX
  8
Element
  10
0.7399
  20
1.0116
  42
1
  0
VERTEX
  8
Element
  10
0.735
  20
1.0116
  42
1
  0
SEQEND
  0
POLYLINE
  8
Element
  6
CONTINUOUS
  66
1
  70
0
  40
0.0098
  41
0.0098
  0
VERTEX
  8
Element
  10
0.6995
  20
0.9366
  42
0
  0
VERTEX
  8
Element
  10
0.6995
  20
1.0866
  42
0
  0
SEQEND
  0
POLYLINE
  8
Element
  6
CONTINUOUS
  66
1
  70
0
  40
0.0049
  41
0.0049
  0
VERTEX
  8
Element
  10
0.697
  20
0.9366
  42
1
  0
VERTEX
  8
Element
  10
0.7019
  20
0.9366
  42
1
  0
VERTEX
  8
Element
  10
0.697
  20
0.9366
  42
1
  0
SEQEND
  0
POLYLINE
  8
Element
  6
CONTINUOUS
  66
1
  70
0
  40
0.0049
  41
0.0049
  0
VERTEX
  8
Element
  10
0.697
  20
1.0866
  42
1
  0
VERTEX
  8
Element
  10
0.7019
  20
1.0866
  42
1
  0
VERTEX
  8
Element
  10
0.697
  20
1.0866
  42
1
  0
SEQEND
  0
POLYLINE
  8
Element
  6
CONTINUOUS
  66
1
  70
0
  40
0.0098
  41
0.0098
  0
VERTEX
  8
Element
  10
0.6995
  20
1.0116
  42
0
  0
VERTEX
  8
Element
  10
0.5745
  20
1.0866
  42
0
  0
VERTEX
  8
Element
  10
0.5745
  20
0.9366
  42
0
  0
VERTEX
  8
Element
  10
0.6995
  20
1.0116
  42
0
  0
SEQEND
  0
POLYLINE
  8
Element
  6
CONTINUOUS
  66
1
  70
0
  40
0.0049
  41
0.0049
  0
VERTEX
  8
Element
  10
0.697
  20
1.0116
  42
1
  0
VERTEX
  8
Element
  10
0.7019
  20
1.0116
  42
1
  0
VERTEX
  8
Element
  10
0.697
  20
1.0116
  42
1
  0
SEQEND
  0
POLYLINE
  8
Element
  6
CONTINUOUS
  66
1
  70
0
  40
0.0098
  41
0.0098
  0
VERTEX
  8
Element
  10
2.7689
  20
1.0304
  42
0
  0
VERTEX
  8
Element
  10
2.8059
  20
1.0304
  42
0
  0
SEQEND
  0
POLYLINE
  8
Element
  6
CONTINUOUS
  66
1
  70
0
  40
0.0049
  41
0.0049
  0
VERTEX
  8
Element
  10
2.7665
  20
1.0304
  42
1
  0
VERTEX
  8
Element
  10
2.7714
  20
1.0304
  42
1
  0
VERTEX
  8
Element
  10
2.7665
  20
1.0304
  42
1
  0
SEQEND
  0
POLYLINE
  8
Element
  6
CONTINUOUS
  66
1
  70
0
  40
0.0049
  41
0.0049
  0
VERTEX
  8
Element
  10
2.8035
  20
1.0304
  42
1
  0
VERTEX
  8
Element
  10
2.8084
  20
1.0304
  42
1
  0
VERTEX
  8
Element
  10
2.8035
  20
1.0304
  42
1
  0
SEQEND
  0
POLYLINE
  8
Element
  6
CONTINUOUS
  66
1
  70
0
  40
0.0098
  41
0.0098
  0
VERTEX
  8
Element
  10
2.9309
  20
1.0304
  42
0
  0
VERTEX
  8
Element
  10
2.9689
  20
1.0304
  42
0
  0
SEQEND
  0
POLYLINE
  8
Element
  6
CONTINUOUS
  66
1
  70
0
  40
0.0049
  41
0.0049
  0
VERTEX
  8
Element
  10
2.9285
  20
1.0304
  42
1
  0
VERTEX
  8
Element
  10
2.9334
  20
1.0304
  42
1
  0
VERTEX
  8
Element
  10
2.9285
  20
1.0304
  42
1
  0
SEQEND
  0
POLYLINE
  8
Element
  6
CONTINUOUS
  66
1
  70
0
  40
0.0049
  41
0.0049
  0
VERTEX
  8
Element
  10
2.9665
  20
1.0304
  42
1
  0
VERTEX
  8
Element
  10
2.9714
  20
1.0304
  42
1
  0
VERTEX
  8
Element
  10
2.9665
  20
1.0304
  42
1
  0
SEQEND
  0
POLYLINE
  8
Element
  6
CONTINUOUS
  66
1
  70
0
  40
0.0098
  41
0.0098
  0
VERTEX
  8
Element
  10
2.9309
  20
0.9554
  42
0
  0
VERTEX
  8
Element
  10
2.9309
  20
1.1054
  42
0
  0
SEQEND
  0
POLYLINE
  8
Element
  6
CONTINUOUS
  66
1
  70
0
  40
0.0049
  41
0.0049
  0
VERTEX
  8
Element
  10
2.9285
  20
0.9554
  42
1
  0
VERTEX
  8
Element
  10
2.9334
  20
0.9554
  42
1
  0
VERTEX
  8
Element
  10
2.9285
  20
0.9554
  42
1
  0
SEQEND
  0
POLYLINE
  8
Element
  6
CONTINUOUS
  66
1
  70
0
  40
0.0049
  41
0.0049
  0
VERTEX
  8
Element
  10
2.9285
  20
1.1054
  42
1
  0
VERTEX
  8
Element
  10
2.9334
  20
1.1054
  42
1
  0
VERTEX
  8
Element
  10
2.9285
  20
1.1054
  42
1
  0
SEQEND
  0
POLYLINE
  8
Element
  6
CONTINUOUS
  66
1
  70
0
  40
0.0098
  41
0.0098
  0
VERTEX
  8
Element
  10
2.9309
  20
1.0304
  42
0
  0
VERTEX
  8
Element
  10
2.8059
  20
1.1054
  42
0
  0
VERTEX
  8
Element
  10
2.8059
  20
0.9554
  42
0
  0
VERTEX
  8
Element
  10
2.9309
  20
1.0304
  42
0
  0
SEQEND
  0
POLYLINE
  8
Element
  6
CONTINUOUS
  66
1
  70
0
  40
0.0049
  41
0.0049
  0
VERTEX
  8
Element
  10
2.9285
  20
1.0304
  42
1
  0
VERTEX
  8
Element
  10
2.9334
  20
1.0304
  42
1
  0
VERTEX
  8
Element
  10
2.9285
  20
1.0304
  42
1
  0
SEQEND
  0
POLYLINE
  8
Element
  6
CONTINUOUS
  66
1
  70
0
  40
0.01
  41
0.01
  0
VERTEX
  8
Element
  10
1.461
  20
2.3368
  42
0
  0
VERTEX
  8
Element
  10
1.461
  20
2.4118
  42
0
  0
SEQEND
  0
POLYLINE
  8
Element
  6
CONTINUOUS
  66
1
  70
0
  40
0.005
  41
0.005
  0
VERTEX
  8
Element
  10
1.4585
  20
2.3368
  42
1
  0
VERTEX
  8
Element
  10
1.4635
  20
2.3368
  42
1
  0
VERTEX
  8
Element
  10
1.4585
  20
2.3368
  42
1
  0
SEQEND
  0
POLYLINE
  8
Element
  6
CONTINUOUS
  66
1
  70
0
  40
0.005
  41
0.005
  0
VERTEX
  8
Element
  10
1.4585
  20
2.4118
  42
1
  0
VERTEX
  8
Element
  10
1.4635
  20
2.4118
  42
1
  0
VERTEX
  8
Element
  10
1.4585
  20
2.4118
  42
1
  0
SEQEND
  0
POLYLINE
  8
Element
  6
CONTINUOUS
  66
1
  70
0
  40
0.01
  41
0.01
  0
VERTEX
  8
Element
  10
1.461
  20
2.6368
  42
0
  0
VERTEX
  8
Element
  10
1.311
  20
2.6368
  42
0
  0
SEQEND
  0
POLYLINE
  8
Element
  6
CONTINUOUS
  66
1
  70
0
  40
0.005
  41
0.005
  0
VERTEX
  8
Element
  10
1.4585
  20
2.6368
  42
1
  0
VERTEX
  8
Element
  10
1.4635
  20
2.6368
  42
1
  0
VERTEX
  8
Element
  10
1.4585
  20
2.6368
  42
1
  0
SEQEND
  0
POLYLINE
  8
Element
  6
CONTINUOUS
  66
1
  70
0
  40
0.005
  41
0.005
  0
VERTEX
  8
Element
  10
1.3085
  20
2.6368
  42
1
  0
VERTEX
  8
Element
  10
1.3135
  20
2.6368
  42
1
  0
VERTEX
  8
Element
  10
1.3085
  20
2.6368
  42
1
  0
SEQEND
  0
POLYLINE
  8
Element
  6
CONTINUOUS
  66
1
  70
0
  40
0.01
  41
0.01
  0
VERTEX
  8
Element
  10
1.311
  20
2.6368
  42
0
  0
VERTEX
  8
Element
  10
1.311
  20
2.5618
  42
0
  0
SEQEND
  0
POLYLINE
  8
Element
  6
CONTINUOUS
  66
1
  70
0
  40
0.005
  41
0.005
  0
VERTEX
  8
Element
  10
1.3085
  20
2.6368
  42
1
  0
VERTEX
  8
Element
  10
1.3135
  20
2.6368
  42
1
  0
VERTEX
  8
Element
  10
1.3085
  20
2.6368
  42
1
  0
SEQEND
  0
POLYLINE
  8
Element
  6
CONTINUOUS
  66
1
  70
0
  40
0.005
  41
0.005
  0
VERTEX
  8
Element
  10
1.3085
  20
2.5618
  42
1
  0
VERTEX
  8
Element
  10
1.3135
  20
2.5618
  42
1
  0
VERTEX
  8
Element
  10
1.3085
  20
2.5618
  42
1
  0
SEQEND
  0
POLYLINE
  8
Element
  6
CONTINUOUS
  66
1
  70
0
  40
0.01
  41
0.01
  0
VERTEX
  8
Element
  10
1.311
  20
2.3368
  42
0
  0
VERTEX
  8
Element
  10
1.461
  20
2.3368
  42
0
  0
SEQEND
  0
POLYLINE
  8
Element
  6
CONTINUOUS
  66
1
  70
0
  40
0.005
  41
0.005
  0
VERTEX
  8
Element
  10
1.3085
  20
2.3368
  42
1
  0
VERTEX
  8
Element
  10
1.3135
  20
2.3368
  42
1
  0
VERTEX
  8
Element
  10
1.3085
  20
2.3368
  42
1
  0
SEQEND
  0
POLYLINE
  8
Element
  6
CONTINUOUS
  66
1
  70
0
  40
0.005
  41
0.005
  0
VERTEX
  8
Element
  10
1.4585
  20
2.3368
  42
1
  0
VERTEX
  8
Element
  10
1.4635
  20
2.3368
  42
1
  0
VERTEX
  8
Element
  10
1.4585
  20
2.3368
  42
1
  0
SEQEND
  0
POLYLINE
  8
Element
  6
CONTINUOUS
  66
1
  70
0
  40
0.01
  41
0.01
  0
VERTEX
  8
Element
  10
1.486
  20
2.4868
  42
0
  0
VERTEX
  8
Element
  10
1.461
  20
2.4868
  42
0
  0
SEQEND
  0
POLYLINE
  8
Element
  6
CONTINUOUS
  66
1
  70
0
  40
0.005
  41
0.005
  0
VERTEX
  8
Element
  10
1.4835
  20
2.4868
  42
1
  0
VERTEX
  8
Element
  10
1.4885
  20
2.4868
  42
1
  0
VERTEX
  8
Element
  10
1.4835
  20
2.4868
  42
1
  0
SEQEND
  0
POLYLINE
  8
Element
  6
CONTINUOUS
  66
1
  70
0
  40
0.005
  41
0.005
  0
VERTEX
  8
Element
  10
1.4585
  20
2.4868
  42
1
  0
VERTEX
  8
Element
  10
1.4635
  20
2.4868
  42
1
  0
VERTEX
  8
Element
  10
1.4585
  20
2.4868
  42
1
  0
SEQEND
  0
POLYLINE
  8
Element
  6
CONTINUOUS
  66
1
  70
0
  40
0.01
  41
0.01
  0
VERTEX
  8
Element
  10
1.461
  20
2.4868
  42
0
  0
VERTEX
  8
Element
  10
1.461
  20
2.6368
  42
0
  0
SEQEND
  0
POLYLINE
  8
Element
  6
CONTINUOUS
  66
1
  70
0
  40
0.005
  41
0.005
  0
VERTEX
  8
Element
  10
1.4585
  20
2.4868
  42
1
  0
VERTEX
  8
Element
  10
1.4635
  20
2.4868
  42
1
  0
VERTEX
  8
Element
  10
1.4585
  20
2.4868
  42
1
  0
SEQEND
  0
POLYLINE
  8
Element
  6
CONTINUOUS
  66
1
  70
0
  40
0.005
  41
0.005
  0
VERTEX
  8
Element
  10
1.4585
  20
2.6368
  42
1
  0
VERTEX
  8
Element
  10
1.4635
  20
2.6368
  42
1
  0
VERTEX
  8
Element
  10
1.4585
  20
2.6368
  42
1
  0
SEQEND
  0
POLYLINE
  8
Element
  6
CONTINUOUS
  66
1
  70
0
  40
0.01
  41
0.01
  0
VERTEX
  8
Element
  10
1.286
  20
2.4868
  42
0
  0
VERTEX
  8
Element
  10
1.311
  20
2.4868
  42
0
  0
SEQEND
  0
POLYLINE
  8
Element
  6
CONTINUOUS
  66
1
  70
0
  40
0.005
  41
0.005
  0
VERTEX
  8
Element
  10
1.2835
  20
2.4868
  42
1
  0
VERTEX
  8
Element
  10
1.2885
  20
2.4868
  42
1
  0
VERTEX
  8
Element
  10
1.2835
  20
2.4868
  42
1
  0
SEQEND
  0
POLYLINE
  8
Element
  6
CONTINUOUS
  66
1
  70
0
  40
0.005
  41
0.005
  0
VERTEX
  8
Element
  10
1.3085
  20
2.4868
  42
1
  0
VERTEX
  8
Element
  10
1.3135
  20
2.4868
  42
1
  0
VERTEX
  8
Element
  10
1.3085
  20
2.4868
  42
1
  0
SEQEND
  0
POLYLINE
  8
Element
  6
CONTINUOUS
  66
1
  70
0
  40
0.01
  41
0.01
  0
VERTEX
  8
Element
  10
1.311
  20
2.4868
  42
0
  0
VERTEX
  8
Element
  10
1.311
  20
2.3368
  42
0
  0
SEQEND
  0
POLYLINE
  8
Element
  6
CONTINUOUS
  66
1
  70
0
  40
0.005
  41
0.005
  0
VERTEX
  8
Element
  10
1.3085
  20
2.4868
  42
1
  0
VERTEX
  8
Element
  10
1.3135
  20
2.4868
  42
1
  0
VERTEX
  8
Element
  10
1.3085
  20
2.4868
  42
1
  0
SEQEND
  0
POLYLINE
  8
Element
  6
CONTINUOUS
  66
1
  70
0
  40
0.005
  41
0.005
  0
VERTEX
  8
Element
  10
1.3085
  20
2.3368
  42
1
  0
VERTEX
  8
Element
  10
1.3135
  20
2.3368
  42
1
  0
VERTEX
  8
Element
  10
1.3085
  20
2.3368
  42
1
  0
SEQEND
  0
POLYLINE
  8
Element
  6
CONTINUOUS
  66
1
  70
0
  40
0.01
  41
0.01
  0
VERTEX
  8
Element
  10
1.461
  20
2.4118
  42
0
  0
VERTEX
  8
Element
  10
1.311
  20
2.5618
  42
0
  0
SEQEND
  0
POLYLINE
  8
Element
  6
CONTINUOUS
  66
1
  70
0
  40
0.005
  41
0.005
  0
VERTEX
  8
Element
  10
1.4585
  20
2.4118
  42
1
  0
VERTEX
  8
Element
  10
1.4635
  20
2.4118
  42
1
  0
VERTEX
  8
Element
  10
1.4585
  20
2.4118
  42
1
  0
SEQEND
  0
POLYLINE
  8
Element
  6
CONTINUOUS
  66
1
  70
0
  40
0.005
  41
0.005
  0
VERTEX
  8
Element
  10
1.3085
  20
2.5618
  42
1
  0
VERTEX
  8
Element
  10
1.3135
  20
2.5618
  42
1
  0
VERTEX
  8
Element
  10
1.3085
  20
2.5618
  42
1
  0
SEQEND
  0
POLYLINE
  8
Element
  6
CONTINUOUS
  66
1
  70
0
  40
0.01
  41
0.01
  0
VERTEX
  8
Element
  10
1.461
  20
2.4118
  42
0
  0
VERTEX
  8
Element
  10
1.461
  20
2.4868
  42
0
  0
SEQEND
  0
POLYLINE
  8
Element
  6
CONTINUOUS
  66
1
  70
0
  40
0.005
  41
0.005
  0
VERTEX
  8
Element
  10
1.4585
  20
2.4118
  42
1
  0
VERTEX
  8
Element
  10
1.4635
  20
2.4118
  42
1
  0
VERTEX
  8
Element
  10
1.4585
  20
2.4118
  42
1
  0
SEQEND
  0
POLYLINE
  8
Element
  6
CONTINUOUS
  66
1
  70
0
  40
0.005
  41
0.005
  0
VERTEX
  8
Element
  10
1.4585
  20
2.4868
  42
1
  0
VERTEX
  8
Element
  10
1.4635
  20
2.4868
  42
1
  0
VERTEX
  8
Element
  10
1.4585
  20
2.4868
  42
1
  0
SEQEND
  0
POLYLINE
  8
Element
  6
CONTINUOUS
  66
1
  70
0
  40
0.01
  41
0.01
  0
VERTEX
  8
Element
  10
1.311
  20
2.5618
  42
0
  0
VERTEX
  8
Element
  10
1.311
  20
2.4868
  42
0
  0
SEQEND
  0
POLYLINE
  8
Element
  6
CONTINUOUS
  66
1
  70
0
  40
0.005
  41
0.005
  0
VERTEX
  8
Element
  10
1.3085
  20
2.5618
  42
1
  0
VERTEX
  8
Element
  10
1.3135
  20
2.5618
  42
1
  0
VERTEX
  8
Element
  10
1.3085
  20
2.5618
  42
1
  0
SEQEND
  0
POLYLINE
  8
Element
  6
CONTINUOUS
  66
1
  70
0
  40
0.005
  41
0.005
  0
VERTEX
  8
Element
  10
1.3085
  20
2.4868
  42
1
  0
VERTEX
  8
Element
  10
1.3135
  20
2.4868
  42
1
  0
VERTEX
  8
Element
  10
1.3085
  20
2.4868
  42
1
  0
SEQEND
  0
POLYLINE
  8
Element
  6
CONTINUOUS
  66
1
  70
0
  40
0.0098
  41
0.0098
  0
VERTEX
  8
Element
  10
1.6688
  20
3.6057
  42
0
  0
VERTEX
  8
Element
  10
1.6188
  20
3.6057
  42
0
  0
SEQEND
  0
POLYLINE
  8
Element
  6
CONTINUOUS
  66
1
  70
0
  40
0.0049
  41
0.0049
  0
VERTEX
  8
Element
  10
1.6664
  20
3.6057
  42
1
  0
VERTEX
  8
Element
  10
1.6713
  20
3.6057
  42
1
  0
VERTEX
  8
Element
  10
1.6664
  20
3.6057
  42
1
  0
SEQEND
  0
POLYLINE
  8
Element
  6
CONTINUOUS
  66
1
  70
0
  40
0.0049
  41
0.0049
  0
VERTEX
  8
Element
  10
1.6164
  20
3.6057
  42
1
  0
VERTEX
  8
Element
  10
1.6213
  20
3.6057
  42
1
  0
VERTEX
  8
Element
  10
1.6164
  20
3.6057
  42
1
  0
SEQEND
  0
POLYLINE
  8
Element
  6
CONTINUOUS
  66
1
  70
0
  40
0.0098
  41
0.0098
  0
VERTEX
  8
Element
  10
1.7688
  20
3.6057
  42
0
  0
VERTEX
  8
Element
  10
1.8188
  20
3.6057
  42
0
  0
SEQEND
  0
POLYLINE
  8
Element
  6
CONTINUOUS
  66
1
  70
0
  40
0.0049
  41
0.0049
  0
VERTEX
  8
Element
  10
1.7664
  20
3.6057
  42
1
  0
VERTEX
  8
Element
  10
1.7713
  20
3.6057
  42
1
  0
VERTEX
  8
Element
  10
1.7664
  20
3.6057
  42
1
  0
SEQEND
  0
POLYLINE
  8
Element
  6
CONTINUOUS
  66
1
  70
0
  40
0.0049
  41
0.0049
  0
VERTEX
  8
Element
  10
1.8164
  20
3.6057
  42
1
  0
VERTEX
  8
Element
  10
1.8213
  20
3.6057
  42
1
  0
VERTEX
  8
Element
  10
1.8164
  20
3.6057
  42
1
  0
SEQEND
  0
POLYLINE
  8
Element
  6
CONTINUOUS
  66
1
  70
0
  40
0.01
  41
0.01
  0
VERTEX
  8
Element
  10
1.7188
  20
3.4439
  42
0
  0
VERTEX
  8
Element
  10
1.7688
  20
3.6307
  42
0
  0
SEQEND
  0
POLYLINE
  8
Element
  6
CONTINUOUS
  66
1
  70
0
  40
0.005
  41
0.005
  0
VERTEX
  8
Element
  10
1.7163
  20
3.4439
  42
1
  0
VERTEX
  8
Element
  10
1.7213
  20
3.4439
  42
1
  0
VERTEX
  8
Element
  10
1.7163
  20
3.4439
  42
1
  0
SEQEND
  0
POLYLINE
  8
Element
  6
CONTINUOUS
  66
1
  70
0
  40
0.005
  41
0.005
  0
VERTEX
  8
Element
  10
1.7663
  20
3.6307
  42
1
  0
VERTEX
  8
Element
  10
1.7713
  20
3.6307
  42
1
  0
VERTEX
  8
Element
  10
1.7663
  20
3.6307
  42
1
  0
SEQEND
  0
POLYLINE
  8
Element
  6
CONTINUOUS
  66
1
  70
0
  40
0.016
  41
0.016
  0
VERTEX
  8
Element
  10
1.7138
  20
3.4439
  42
0
  0
VERTEX
  8
Element
  10
1.7141
  20
3.4424
  42
0
  0
VERTEX
  8
Element
  10
1.7148
  20
3.441
  42
0
  0
VERTEX
  8
Element
  10
1.7159
  20
3.4399
  42
0
  0
VERTEX
  8
Element
  10
1.7173
  20
3.4392
  42
0
  0
VERTEX
  8
Element
  10
1.7188
  20
3.4389
  42
0
  0
VERTEX
  8
Element
  10
1.7204
  20
3.4392
  42
0
  0
VERTEX
  8
Element
  10
1.7218
  20
3.4399
  42
0
  0
VERTEX
  8
Element
  10
1.7229
  20
3.441
  42
0
  0
VERTEX
  8
Element
  10
1.7236
  20
3.4424
  42
0
  0
VERTEX
  8
Element
  10
1.7238
  20
3.4439
  42
0
  0
VERTEX
  8
Element
  10
1.7236
  20
3.4455
  42
0
  0
VERTEX
  8
Element
  10
1.7229
  20
3.4469
  42
0
  0
VERTEX
  8
Element
  10
1.7218
  20
3.448
  42
0
  0
VERTEX
  8
Element
  10
1.7204
  20
3.4487
  42
0
  0
VERTEX
  8
Element
  10
1.7188
  20
3.4489
  42
0
  0
VERTEX
  8
Element
  10
1.7173
  20
3.4487
  42
0
  0
VERTEX
  8
Element
  10
1.7159
  20
3.448
  42
0
  0
VERTEX
  8
Element
  10
1.7148
  20
3.4469
  42
0
  0
VERTEX
  8
Element
  10
1.7141
  20
3.4455
  42
0
  0
VERTEX
  8
Element
  10
1.7138
  20
3.4439
  42
0
  0
SEQEND
  0
POLYLINE
  8
Element
  6
CONTINUOUS
  66
1
  70
0
  40
0.008
  41
0.008
  0
VERTEX
  8
Element
  10
1.7098
  20
3.4439
  42
1
  0
VERTEX
  8
Element
  10
1.7178
  20
3.4439
  42
1
  0
VERTEX
  8
Element
  10
1.7098
  20
3.4439
  42
1
  0
SEQEND
  0
POLYLINE
  8
Element
  6
CONTINUOUS
  66
1
  70
0
  40
0.01
  41
0.01
  0
VERTEX
  8
Element
  10
1.7188
  20
3.4439
  42
0
  0
VERTEX
  8
Element
  10
1.7188
  20
3.3939
  42
0
  0
SEQEND
  0
POLYLINE
  8
Element
  6
CONTINUOUS
  66
1
  70
0
  40
0.005
  41
0.005
  0
VERTEX
  8
Element
  10
1.7163
  20
3.4439
  42
1
  0
VERTEX
  8
Element
  10
1.7213
  20
3.4439
  42
1
  0
VERTEX
  8
Element
  10
1.7163
  20
3.4439
  42
1
  0
SEQEND
  0
POLYLINE
  8
Element
  6
CONTINUOUS
  66
1
  70
0
  40
0.005
  41
0.005
  0
VERTEX
  8
Element
  10
1.7163
  20
3.3939
  42
1
  0
VERTEX
  8
Element
  10
1.7213
  20
3.3939
  42
1
  0
VERTEX
  8
Element
  10
1.7163
  20
3.3939
  42
1
  0
SEQEND
  0
POLYLINE
  8
Element
  6
CONTINUOUS
  66
1
  70
0
  40
0.01
  41
0.01
  0
VERTEX
  8
Element
  10
3.6299
  20
2.3805
  42
0
  0
VERTEX
  8
Element
  10
3.6299
  20
2.4555
  42
0
  0
SEQEND
  0
POLYLINE
  8
Element
  6
CONTINUOUS
  66
1
  70
0
  40
0.005
  41
0.005
  0
VERTEX
  8
Element
  10
3.6274
  20
2.3805
  42
1
  0
VERTEX
  8
Element
  10
3.6324
  20
2.3805
  42
1
  0
VERTEX
  8
Element
  10
3.6274
  20
2.3805
  42
1
  0
SEQEND
  0
POLYLINE
  8
Element
  6
CONTINUOUS
  66
1
  70
0
  40
0.005
  41
0.005
  0
VERTEX
  8
Element
  10
3.6274
  20
2.4555
  42
1
  0
VERTEX
  8
Element
  10
3.6324
  20
2.4555
  42
1
  0
VERTEX
  8
Element
  10
3.6274
  20
2.4555
  42
1
  0
SEQEND
  0
POLYLINE
  8
Element
  6
CONTINUOUS
  66
1
  70
0
  40
0.01
  41
0.01
  0
VERTEX
  8
Element
  10
3.6299
  20
2.6805
  42
0
  0
VERTEX
  8
Element
  10
3.4799
  20
2.6805
  42
0
  0
SEQEND
  0
POLYLINE
  8
Element
  6
CONTINUOUS
  66
1
  70
0
  40
0.005
  41
0.005
  0
VERTEX
  8
Element
  10
3.6274
  20
2.6805
  42
1
  0
VERTEX
  8
Element
  10
3.6324
  20
2.6805
  42
1
  0
VERTEX
  8
Element
  10
3.6274
  20
2.6805
  42
1
  0
SEQEND
  0
POLYLINE
  8
Element
  6
CONTINUOUS
  66
1
  70
0
  40
0.005
  41
0.005
  0
VERTEX
  8
Element
  10
3.4774
  20
2.6805
  42
1
  0
VERTEX
  8
Element
  10
3.4824
  20
2.6805
  42
1
  0
VERTEX
  8
Element
  10
3.4774
  20
2.6805
  42
1
  0
SEQEND
  0
POLYLINE
  8
Element
  6
CONTINUOUS
  66
1
  70
0
  40
0.01
  41
0.01
  0
VERTEX
  8
Element
  10
3.4799
  20
2.6805
  42
0
  0
VERTEX
  8
Element
  10
3.4799
  20
2.6055
  42
0
  0
SEQEND
  0
POLYLINE
  8
Element
  6
CONTINUOUS
  66
1
  70
0
  40
0.005
  41
0.005
  0
VERTEX
  8
Element
  10
3.4774
  20
2.6805
  42
1
  0
VERTEX
  8
Element
  10
3.4824
  20
2.6805
  42
1
  0
VERTEX
  8
Element
  10
3.4774
  20
2.6805
  42
1
  0
SEQEND
  0
POLYLINE
  8
Element
  6
CONTINUOUS
  66
1
  70
0
  40
0.005
  41
0.005
  0
VERTEX
  8
Element
  10
3.4774
  20
2.6055
  42
1
  0
VERTEX
  8
Element
  10
3.4824
  20
2.6055
  42
1
  0
VERTEX
  8
Element
  10
3.4774
  20
2.6055
  42
1
  0
SEQEND
  0
POLYLINE
  8
Element
  6
CONTINUOUS
  66
1
  70
0
  40
0.01
  41
0.01
  0
VERTEX
  8
Element
  10
3.4799
  20
2.3805
  42
0
  0
VERTEX
  8
Element
  10
3.6299
  20
2.3805
  42
0
  0
SEQEND
  0
POLYLINE
  8
Element
  6
CONTINUOUS
  66
1
  70
0
  40
0.005
  41
0.005
  0
VERTEX
  8
Element
  10
3.4774
  20
2.3805
  42
1
  0
VERTEX
  8
Element
  10
3.4824
  20
2.3805
  42
1
  0
VERTEX
  8
Element
  10
3.4774
  20
2.3805
  42
1
  0
SEQEND
  0
POLYLINE
  8
Element
  6
CONTINUOUS
  66
1
  70
0
  40
0.005
  41
0.005
  0
VERTEX
  8
Element
  10
3.6274
  20
2.3805
  42
1
  0
VERTEX
  8
Element
  10
3.6324
  20
2.3805
  42
1
  0
VERTEX
  8
Element
  10
3.6274
  20
2.3805
  42
1
  0
SEQEND
  0
POLYLINE
  8
Element
  6
CONTINUOUS
  66
1
  70
0
  40
0.01
  41
0.01
  0
VERTEX
  8
Element
  10
3.6549
  20
2.5305
  42
0
  0
VERTEX
  8
Element
  10
3.6299
  20
2.5305
  42
0
  0
SEQEND
  0
POLYLINE
  8
Element
  6
CONTINUOUS
  66
1
  70
0
  40
0.005
  41
0.005
  0
VERTEX
  8
Element
  10
3.6524
  20
2.5305
  42
1
  0
VERTEX
  8
Element
  10
3.6574
  20
2.5305
  42
1
  0
VERTEX
  8
Element
  10
3.6524
  20
2.5305
  42
1
  0
SEQEND
  0
POLYLINE
  8
Element
  6
CONTINUOUS
  66
1
  70
0
  40
0.005
  41
0.005
  0
VERTEX
  8
Element
  10
3.6274
  20
2.5305
  42
1
  0
VERTEX
  8
Element
  10
3.6324
  20
2.5305
  42
1
  0
VERTEX
  8
Element
  10
3.6274
  20
2.5305
  42
1
  0
SEQEND
  0
POLYLINE
  8
Element
  6
CONTINUOUS
  66
1
  70
0
  40
0.01
  41
0.01
  0
VERTEX
  8
Element
  10
3.6299
  20
2.5305
  42
0
  0
VERTEX
  8
Element
  10
3.6299
  20
2.6805
  42
0
  0
SEQEND
  0
POLYLINE
  8
Element
  6
CONTINUOUS
  66
1
  70
0
  40
0.005
  41
0.005
  0
VERTEX
  8
Element
  10
3.6274
  20
2.5305
  42
1
  0
VERTEX
  8
Element
  10
3.6324
  20
2.5305
  42
1
  0
VERTEX
  8
Element
  10
3.6274
  20
2.5305
  42
1
  0
SEQEND
  0
POLYLINE
  8
Element
  6
CONTINUOUS
  66
1
  70
0
  40
0.005
  41
0.005
  0
VERTEX
  8
Element
  10
3.6274
  20
2.6805
  42
1
  0
VERTEX
  8
Element
  10
3.6324
  20
2.6805
  42
1
  0
VERTEX
  8
Element
  10
3.6274
  20
2.6805
  42
1
  0
SEQEND
  0
POLYLINE
  8
Element
  6
CONTINUOUS
  66
1
  70
0
  40
0.01
  41
0.01
  0
VERTEX
  8
Element
  10
3.4549
  20
2.5305
  42
0
  0
VERTEX
  8
Element
  10
3.4799
  20
2.5305
  42
0
  0
SEQEND
  0
POLYLINE
  8
Element
  6
CONTINUOUS
  66
1
  70
0
  40
0.005
  41
0.005
  0
VERTEX
  8
Element
  10
3.4524
  20
2.5305
  42
1
  0
VERTEX
  8
Element
  10
3.4574
  20
2.5305
  42
1
  0
VERTEX
  8
Element
  10
3.4524
  20
2.5305
  42
1
  0
SEQEND
  0
POLYLINE
  8
Element
  6
CONTINUOUS
  66
1
  70
0
  40
0.005
  41
0.005
  0
VERTEX
  8
Element
  10
3.4774
  20
2.5305
  42
1
  0
VERTEX
  8
Element
  10
3.4824
  20
2.5305
  42
1
  0
VERTEX
  8
Element
  10
3.4774
  20
2.5305
  42
1
  0
SEQEND
  0
POLYLINE
  8
Element
  6
CONTINUOUS
  66
1
  70
0
  40
0.01
  41
0.01
  0
VERTEX
  8
Element
  10
3.4799
  20
2.5305
  42
0
  0
VERTEX
  8
Element
  10
3.4799
  20
2.3805
  42
0
  0
SEQEND
  0
POLYLINE
  8
Element
  6
CONTINUOUS
  66
1
  70
0
  40
0.005
  41
0.005
  0
VERTEX
  8
Element
  10
3.4774
  20
2.5305
  42
1
  0
VERTEX
  8
Element
  10
3.4824
  20
2.5305
  42
1
  0
VERTEX
  8
Element
  10
3.4774
  20
2.5305
  42
1
  0
SEQEND
  0
POLYLINE
  8
Element
  6
CONTINUOUS
  66
1
  70
0
  40
0.005
  41
0.005
  0
VERTEX
  8
Element
  10
3.4774
  20
2.3805
  42
1
  0
VERTEX
  8
Element
  10
3.4824
  20
2.3805
  42
1
  0
VERTEX
  8
Element
  10
3.4774
  20
2.3805
  42
1
  0
SEQEND
  0
POLYLINE
  8
Element
  6
CONTINUOUS
  66
1
  70
0
  40
0.01
  41
0.01
  0
VERTEX
  8
Element
  10
3.6299
  20
2.4555
  42
0
  0
VERTEX
  8
Element
  10
3.4799
  20
2.6055
  42
0
  0
SEQEND
  0
POLYLINE
  8
Element
  6
CONTINUOUS
  66
1
  70
0
  40
0.005
  41
0.005
  0
VERTEX
  8
Element
  10
3.6274
  20
2.4555
  42
1
  0
VERTEX
  8
Element
  10
3.6324
  20
2.4555
  42
1
  0
VERTEX
  8
Element
  10
3.6274
  20
2.4555
  42
1
  0
SEQEND
  0
POLYLINE
  8
Element
  6
CONTINUOUS
  66
1
  70
0
  40
0.005
  41
0.005
  0
VERTEX
  8
Element
  10
3.4774
  20
2.6055
  42
1
  0
VERTEX
  8
Element
  10
3.4824
  20
2.6055
  42
1
  0
VERTEX
  8
Element
  10
3.4774
  20
2.6055
  42
1
  0
SEQEND
  0
POLYLINE
  8
Element
  6
CONTINUOUS
  66
1
  70
0
  40
0.01
  41
0.01
  0
VERTEX
  8
Element
  10
3.6299
  20
2.4555
  42
0
  0
VERTEX
  8
Element
  10
3.6299
  20
2.5305
  42
0
  0
SEQEND
  0
POLYLINE
  8
Element
  6
CONTINUOUS
  66
1
  70
0
  40
0.005
  41
0.005
  0
VERTEX
  8
Element
  10
3.6274
  20
2.4555
  42
1
  0
VERTEX
  8
Element
  10
3.6324
  20
2.4555
  42
1
  0
VERTEX
  8
Element
  10
3.6274
  20
2.4555
  42
1
  0
SEQEND
  0
POLYLINE
  8
Element
  6
CONTINUOUS
  66
1
  70
0
  40
0.005
  41
0.005
  0
VERTEX
  8
Element
  10
3.6274
  20
2.5305
  42
1
  0
VERTEX
  8
Element
  10
3.6324
  20
2.5305
  42
1
  0
VERTEX
  8
Element
  10
3.6274
  20
2.5305
  42
1
  0
SEQEND
  0
POLYLINE
  8
Element
  6
CONTINUOUS
  66
1
  70
0
  40
0.01
  41
0.01
  0
VERTEX
  8
Element
  10
3.4799
  20
2.6055
  42
0
  0
VERTEX
  8
Element
  10
3.4799
  20
2.5305
  42
0
  0
SEQEND
  0
POLYLINE
  8
Element
  6
CONTINUOUS
  66
1
  70
0
  40
0.005
  41
0.005
  0
VERTEX
  8
Element
  10
3.4774
  20
2.6055
  42
1
  0
VERTEX
  8
Element
  10
3.4824
  20
2.6055
  42
1
  0
VERTEX
  8
Element
  10
3.4774
  20
2.6055
  42
1
  0
SEQEND
  0
POLYLINE
  8
Element
  6
CONTINUOUS
  66
1
  70
0
  40
0.005
  41
0.005
  0
VERTEX
  8
Element
  10
3.4774
  20
2.5305
  42
1
  0
VERTEX
  8
Element
  10
3.4824
  20
2.5305
  42
1
  0
VERTEX
  8
Element
  10
3.4774
  20
2.5305
  42
1
  0
SEQEND
  0
POLYLINE
  8
Element
  6
CONTINUOUS
  66
1
  70
0
  40
0.0098
  41
0.0098
  0
VERTEX
  8
Element
  10
3.3378
  20
3.5932
  42
0
  0
VERTEX
  8
Element
  10
3.2878
  20
3.5932
  42
0
  0
SEQEND
  0
POLYLINE
  8
Element
  6
CONTINUOUS
  66
1
  70
0
  40
0.0049
  41
0.0049
  0
VERTEX
  8
Element
  10
3.3353
  20
3.5932
  42
1
  0
VERTEX
  8
Element
  10
3.3402
  20
3.5932
  42
1
  0
VERTEX
  8
Element
  10
3.3353
  20
3.5932
  42
1
  0
SEQEND
  0
POLYLINE
  8
Element
  6
CONTINUOUS
  66
1
  70
0
  40
0.0049
  41
0.0049
  0
VERTEX
  8
Element
  10
3.2853
  20
3.5932
  42
1
  0
VERTEX
  8
Element
  10
3.2902
  20
3.5932
  42
1
  0
VERTEX
  8
Element
  10
3.2853
  20
3.5932
  42
1
  0
SEQEND
  0
POLYLINE
  8
Element
  6
CONTINUOUS
  66
1
  70
0
  40
0.0098
  41
0.0098
  0
VERTEX
  8
Element
  10
3.4378
  20
3.5932
  42
0
  0
VERTEX
  8
Element
  10
3.4878
  20
3.5932
  42
0
  0
SEQEND
  0
POLYLINE
  8
Element
  6
CONTINUOUS
  66
1
  70
0
  40
0.0049
  41
0.0049
  0
VERTEX
  8
Element
  10
3.4353
  20
3.5932
  42
1
  0
VERTEX
  8
Element
  10
3.4402
  20
3.5932
  42
1
  0
VERTEX
  8
Element
  10
3.4353
  20
3.5932
  42
1
  0
SEQEND
  0
POLYLINE
  8
Element
  6
CONTINUOUS
  66
1
  70
0
  40
0.0049
  41
0.0049
  0
VERTEX
  8
Element
  10
3.4853
  20
3.5932
  42
1
  0
VERTEX
  8
Element
  10
3.4902
  20
3.5932
  42
1
  0
VERTEX
  8
Element
  10
3.4853
  20
3.5932
  42
1
  0
SEQEND
  0
POLYLINE
  8
Element
  6
CONTINUOUS
  66
1
  70
0
  40
0.01
  41
0.01
  0
VERTEX
  8
Element
  10
3.3878
  20
3.4314
  42
0
  0
VERTEX
  8
Element
  10
3.4378
  20
3.6182
  42
0
  0
SEQEND
  0
POLYLINE
  8
Element
  6
CONTINUOUS
  66
1
  70
0
  40
0.005
  41
0.005
  0
VERTEX
  8
Element
  10
3.3853
  20
3.4314
  42
1
  0
VERTEX
  8
Element
  10
3.3903
  20
3.4314
  42
1
  0
VERTEX
  8
Element
  10
3.3853
  20
3.4314
  42
1
  0
SEQEND
  0
POLYLINE
  8
Element
  6
CONTINUOUS
  66
1
  70
0
  40
0.005
  41
0.005
  0
VERTEX
  8
Element
  10
3.4353
  20
3.6182
  42
1
  0
VERTEX
  8
Element
  10
3.4403
  20
3.6182
  42
1
  0
VERTEX
  8
Element
  10
3.4353
  20
3.6182
  42
1
  0
SEQEND
  0
POLYLINE
  8
Element
  6
CONTINUOUS
  66
1
  70
0
  40
0.016
  41
0.016
  0
VERTEX
  8
Element
  10
3.3828
  20
3.4314
  42
0
  0
VERTEX
  8
Element
  10
3.383
  20
3.4299
  42
0
  0
VERTEX
  8
Element
  10
3.3837
  20
3.4285
  42
0
  0
VERTEX
  8
Element
  10
3.3848
  20
3.4274
  42
0
  0
VERTEX
  8
Element
  10
3.3862
  20
3.4267
  42
0
  0
VERTEX
  8
Element
  10
3.3878
  20
3.4264
  42
0
  0
VERTEX
  8
Element
  10
3.3893
  20
3.4267
  42
0
  0
VERTEX
  8
Element
  10
3.3907
  20
3.4274
  42
0
  0
VERTEX
  8
Element
  10
3.3918
  20
3.4285
  42
0
  0
VERTEX
  8
Element
  10
3.3925
  20
3.4299
  42
0
  0
VERTEX
  8
Element
  10
3.3928
  20
3.4314
  42
0
  0
VERTEX
  8
Element
  10
3.3925
  20
3.433
  42
0
  0
VERTEX
  8
Element
  10
3.3918
  20
3.4344
  42
0
  0
VERTEX
  8
Element
  10
3.3907
  20
3.4355
  42
0
  0
VERTEX
  8
Element
  10
3.3893
  20
3.4362
  42
0
  0
VERTEX
  8
Element
  10
3.3878
  20
3.4364
  42
0
  0
VERTEX
  8
Element
  10
3.3862
  20
3.4362
  42
0
  0
VERTEX
  8
Element
  10
3.3848
  20
3.4355
  42
0
  0
VERTEX
  8
Element
  10
3.3837
  20
3.4344
  42
0
  0
VERTEX
  8
Element
  10
3.383
  20
3.433
  42
0
  0
VERTEX
  8
Element
  10
3.3828
  20
3.4314
  42
0
  0
SEQEND
  0
POLYLINE
  8
Element
  6
CONTINUOUS
  66
1
  70
0
  40
0.008
  41
0.008
  0
VERTEX
  8
Element
  10
3.3788
  20
3.4314
  42
1
  0
VERTEX
  8
Element
  10
3.3868
  20
3.4314
  42
1
  0
VERTEX
  8
Element
  10
3.3788
  20
3.4314
  42
1
  0
SEQEND
  0
POLYLINE
  8
Element
  6
CONTINUOUS
  66
1
  70
0
  40
0.01
  41
0.01
  0
VERTEX
  8
Element
  10
3.3878
  20
3.4314
  42
0
  0
VERTEX
  8
Element
  10
3.3878
  20
3.3814
  42
0
  0
SEQEND
  0
POLYLINE
  8
Element
  6
CONTINUOUS
  66
1
  70
0
  40
0.005
  41
0.005
  0
VERTEX
  8
Element
  10
3.3853
  20
3.4314
  42
1
  0
VERTEX
  8
Element
  10
3.3903
  20
3.4314
  42
1
  0
VERTEX
  8
Element
  10
3.3853
  20
3.4314
  42
1
  0
SEQEND
  0
POLYLINE
  8
Element
  6
CONTINUOUS
  66
1
  70
0
  40
0.005
  41
0.005
  0
VERTEX
  8
Element
  10
3.3853
  20
3.3814
  42
1
  0
VERTEX
  8
Element
  10
3.3903
  20
3.3814
  42
1
  0
VERTEX
  8
Element
  10
3.3853
  20
3.3814
  42
1
  0
SEQEND
  0
POLYLINE
  8
Element
  6
CONTINUOUS
  66
1
  70
0
  40
0.0098
  41
0.0098
  0
VERTEX
  8
Element
  10
1.6563
  20
0.0991
  42
0
  0
VERTEX
  8
Element
  10
1.8063
  20
0.0991
  42
0
  0
SEQEND
  0
POLYLINE
  8
Element
  6
CONTINUOUS
  66
1
  70
0
  40
0.0049
  41
0.0049
  0
VERTEX
  8
Element
  10
1.6538
  20
0.0991
  42
1
  0
VERTEX
  8
Element
  10
1.6588
  20
0.0991
  42
1
  0
VERTEX
  8
Element
  10
1.6538
  20
0.0991
  42
1
  0
SEQEND
  0
POLYLINE
  8
Element
  6
CONTINUOUS
  66
1
  70
0
  40
0.0049
  41
0.0049
  0
VERTEX
  8
Element
  10
1.8038
  20
0.0991
  42
1
  0
VERTEX
  8
Element
  10
1.8088
  20
0.0991
  42
1
  0
VERTEX
  8
Element
  10
1.8038
  20
0.0991
  42
1
  0
SEQEND
  0
POLYLINE
  8
Element
  6
CONTINUOUS
  66
1
  70
0
  40
0.0098
  41
0.0098
  0
VERTEX
  8
Element
  10
1.6813
  20
0.0591
  42
0
  0
VERTEX
  8
Element
  10
1.7813
  20
0.0591
  42
0
  0
SEQEND
  0
POLYLINE
  8
Element
  6
CONTINUOUS
  66
1
  70
0
  40
0.0049
  41
0.0049
  0
VERTEX
  8
Element
  10
1.6788
  20
0.0591
  42
1
  0
VERTEX
  8
Element
  10
1.6838
  20
0.0591
  42
1
  0
VERTEX
  8
Element
  10
1.6788
  20
0.0591
  42
1
  0
SEQEND
  0
POLYLINE
  8
Element
  6
CONTINUOUS
  66
1
  70
0
  40
0.0049
  41
0.0049
  0
VERTEX
  8
Element
  10
1.7788
  20
0.0591
  42
1
  0
VERTEX
  8
Element
  10
1.7838
  20
0.0591
  42
1
  0
VERTEX
  8
Element
  10
1.7788
  20
0.0591
  42
1
  0
SEQEND
  0
POLYLINE
  8
Element
  6
CONTINUOUS
  66
1
  70
0
  40
0.0098
  41
0.0098
  0
VERTEX
  8
Element
  10
1.7113
  20
0.0191
  42
0
  0
VERTEX
  8
Element
  10
1.7513
  20
0.0191
  42
0
  0
SEQEND
  0
POLYLINE
  8
Element
  6
CONTINUOUS
  66
1
  70
0
  40
0.0049
  41
0.0049
  0
VERTEX
  8
Element
  10
1.7088
  20
0.0191
  42
1
  0
VERTEX
  8
Element
  10
1.7138
  20
0.0191
  42
1
  0
VERTEX
  8
Element
  10
1.7088
  20
0.0191
  42
1
  0
SEQEND
  0
POLYLINE
  8
Element
  6
CONTINUOUS
  66
1
  70
0
  40
0.0049
  41
0.0049
  0
VERTEX
  8
Element
  10
1.7488
  20
0.0191
  42
1
  0
VERTEX
  8
Element
  10
1.7538
  20
0.0191
  42
1
  0
VERTEX
  8
Element
  10
1.7488
  20
0.0191
  42
1
  0
SEQEND
  0
POLYLINE
  8
Element
  6
CONTINUOUS
  66
1
  70
0
  40
0.0098
  41
0.0098
  0
VERTEX
  8
Element
  10
3.819
  20
0.0991
  42
0
  0
VERTEX
  8
Element
  10
3.969
  20
0.0991
  42
0
  0
SEQEND
  0
POLYLINE
  8
Element
  6
CONTINUOUS
  66
1
  70
0
  40
0.0049
  41
0.0049
  0
VERTEX
  8
Element
  10
3.8166
  20
0.0991
  42
1
  0
VERTEX
  8
Element
  10
3.8215
  20
0.0991
  42
1
  0
VERTEX
  8
Element
  10
3.8166
  20
0.0991
  42
1
  0
SEQEND
  0
POLYLINE
  8
Element
  6
CONTINUOUS
  66
1
  70
0
  40
0.0049
  41
0.0049
  0
VERTEX
  8
Element
  10
3.9666
  20
0.0991
  42
1
  0
VERTEX
  8
Element
  10
3.9715
  20
0.0991
  42
1
  0
VERTEX
  8
Element
  10
3.9666
  20
0.0991
  42
1
  0
SEQEND
  0
POLYLINE
  8
Element
  6
CONTINUOUS
  66
1
  70
0
  40
0.0098
  41
0.0098
  0
VERTEX
  8
Element
  10
3.844
  20
0.0591
  42
0
  0
VERTEX
  8
Element
  10
3.944
  20
0.0591
  42
0
  0
SEQEND
  0
POLYLINE
  8
Element
  6
CONTINUOUS
  66
1
  70
0
  40
0.0049
  41
0.0049
  0
VERTEX
  8
Element
  10
3.8416
  20
0.0591
  42
1
  0
VERTEX
  8
Element
  10
3.8465
  20
0.0591
  42
1
  0
VERTEX
  8
Element
  10
3.8416
  20
0.0591
  42
1
  0
SEQEND
  0
POLYLINE
  8
Element
  6
CONTINUOUS
  66
1
  70
0
  40
0.0049
  41
0.0049
  0
VERTEX
  8
Element
  10
3.9416
  20
0.0591
  42
1
  0
VERTEX
  8
Element
  10
3.9465
  20
0.0591
  42
1
  0
VERTEX
  8
Element
  10
3.9416
  20
0.0591
  42
1
  0
SEQEND
  0
POLYLINE
  8
Element
  6
CONTINUOUS
  66
1
  70
0
  40
0.0098
  41
0.0098
  0
VERTEX
  8
Element
  10
3.874
  20
0.0191
  42
0
  0
VERTEX
  8
Element
  10
3.914
  20
0.0191
  42
0
  0
SEQEND
  0
POLYLINE
  8
Element
  6
CONTINUOUS
  66
1
  70
0
  40
0.0049
  41
0.0049
  0
VERTEX
  8
Element
  10
3.8716
  20
0.0191
  42
1
  0
VERTEX
  8
Element
  10
3.8765
  20
0.0191
  42
1
  0
VERTEX
  8
Element
  10
3.8716
  20
0.0191
  42
1
  0
SEQEND
  0
POLYLINE
  8
Element
  6
CONTINUOUS
  66
1
  70
0
  40
0.0049
  41
0.0049
  0
VERTEX
  8
Element
  10
3.9116
  20
0.0191
  42
1
  0
VERTEX
  8
Element
  10
3.9165
  20
0.0191
  42
1
  0
VERTEX
  8
Element
  10
3.9116
  20
0.0191
  42
1
  0
SEQEND
  0
POLYLINE
  8
Element
  6
CONTINUOUS
  66
1
  70
0
  40
0.0098
  41
0.0098
  0
VERTEX
  8
Element
  10
3.3315
  20
4.262
  42
0
  0
VERTEX
  8
Element
  10
3.1815
  20
4.262
  42
0
  0
SEQEND
  0
POLYLINE
  8
Element
  6
CONTINUOUS
  66
1
  70
0
  40
0.0049
  41
0.0049
  0
VERTEX
  8
Element
  10
3.329
  20
4.262
  42
1
  0
VERTEX
  8
Element
  10
3.3339
  20
4.262
  42
1
  0
VERTEX
  8
Element
  10
3.329
  20
4.262
  42
1
  0
SEQEND
  0
POLYLINE
  8
Element
  6
CONTINUOUS
  66
1
  70
0
  40
0.0049
  41
0.0049
  0
VERTEX
  8
Element
  10
3.179
  20
4.262
  42
1
  0
VERTEX
  8
Element
  10
3.1839
  20
4.262
  42
1
  0
VERTEX
  8
Element
  10
3.179
  20
4.262
  42
1
  0
SEQEND
  0
POLYLINE
  8
Element
  6
CONTINUOUS
  66
1
  70
0
  40
0.0098
  41
0.0098
  0
VERTEX
  8
Element
  10
3.3065
  20
4.302
  42
0
  0
VERTEX
  8
Element
  10
3.2065
  20
4.302
  42
0
  0
SEQEND
  0
POLYLINE
  8
Element
  6
CONTINUOUS
  66
1
  70
0
  40
0.0049
  41
0.0049
  0
VERTEX
  8
Element
  10
3.304
  20
4.302
  42
1
  0
VERTEX
  8
Element
  10
3.3089
  20
4.302
  42
1
  0
VERTEX
  8
Element
  10
3.304
  20
4.302
  42
1
  0
SEQEND
  0
POLYLINE
  8
Element
  6
CONTINUOUS
  66
1
  70
0
  40
0.0049
  41
0.0049
  0
VERTEX
  8
Element
  10
3.204
  20
4.302
  42
1
  0
VERTEX
  8
Element
  10
3.2089
  20
4.302
  42
1
  0
VERTEX
  8
Element
  10
3.204
  20
4.302
  42
1
  0
SEQEND
  0
POLYLINE
  8
Element
  6
CONTINUOUS
  66
1
  70
0
  40
0.0098
  41
0.0098
  0
VERTEX
  8
Element
  10
3.2765
  20
4.342
  42
0
  0
VERTEX
  8
Element
  10
3.2365
  20
4.342
  42
0
  0
SEQEND
  0
POLYLINE
  8
Element
  6
CONTINUOUS
  66
1
  70
0
  40
0.0049
  41
0.0049
  0
VERTEX
  8
Element
  10
3.274
  20
4.342
  42
1
  0
VERTEX
  8
Element
  10
3.2789
  20
4.342
  42
1
  0
VERTEX
  8
Element
  10
3.274
  20
4.342
  42
1
  0
SEQEND
  0
POLYLINE
  8
Element
  6
CONTINUOUS
  66
1
  70
0
  40
0.0049
  41
0.0049
  0
VERTEX
  8
Element
  10
3.234
  20
4.342
  42
1
  0
VERTEX
  8
Element
  10
3.2389
  20
4.342
  42
1
  0
VERTEX
  8
Element
  10
3.234
  20
4.342
  42
1
  0
SEQEND
  0
POLYLINE
  8
Element
  6
CONTINUOUS
  66
1
  70
0
  40
0.0098
  41
0.0098
  0
VERTEX
  8
Element
  10
4.5128
  20
3.0493
  42
0
  0
VERTEX
  8
Element
  10
4.3128
  20
3.0493
  42
0
  0
SEQEND
  0
POLYLINE
  8
Element
  6
CONTINUOUS
  66
1
  70
0
  40
0.0049
  41
0.0049
  0
VERTEX
  8
Element
  10
4.5104
  20
3.0493
  42
1
  0
VERTEX
  8
Element
  10
4.5153
  20
3.0493
  42
1
  0
VERTEX
  8
Element
  10
4.5104
  20
3.0493
  42
1
  0
SEQEND
  0
POLYLINE
  8
Element
  6
CONTINUOUS
  66
1
  70
0
  40
0.0049
  41
0.0049
  0
VERTEX
  8
Element
  10
4.3104
  20
3.0493
  42
1
  0
VERTEX
  8
Element
  10
4.3153
  20
3.0493
  42
1
  0
VERTEX
  8
Element
  10
4.3104
  20
3.0493
  42
1
  0
SEQEND
  0
POLYLINE
  8
Element
  6
CONTINUOUS
  66
1
  70
0
  40
0.0098
  41
0.0098
  0
VERTEX
  8
Element
  10
1.0312
  20
2.8306
  42
0
  0
VERTEX
  8
Element
  10
1.2312
  20
2.8306
  42
0
  0
SEQEND
  0
POLYLINE
  8
Element
  6
CONTINUOUS
  66
1
  70
0
  40
0.0049
  41
0.0049
  0
VERTEX
  8
Element
  10
1.0288
  20
2.8306
  42
1
  0
VERTEX
  8
Element
  10
1.0337
  20
2.8306
  42
1
  0
VERTEX
  8
Element
  10
1.0288
  20
2.8306
  42
1
  0
SEQEND
  0
POLYLINE
  8
Element
  6
CONTINUOUS
  66
1
  70
0
  40
0.0049
  41
0.0049
  0
VERTEX
  8
Element
  10
1.2288
  20
2.8306
  42
1
  0
VERTEX
  8
Element
  10
1.2337
  20
2.8306
  42
1
  0
VERTEX
  8
Element
  10
1.2288
  20
2.8306
  42
1
  0
SEQEND
  0
POLYLINE
  8
Element
  6
CONTINUOUS
  66
1
  70
0
  40
0.0098
  41
0.0098
  0
VERTEX
  8
Element
  10
3.2002
  20
2.8493
  42
0
  0
VERTEX
  8
Element
  10
3.4002
  20
2.8493
  42
0
  0
SEQEND
  0
POLYLINE
  8
Element
  6
CONTINUOUS
  66
1
  70
0
  40
0.0049
  41
0.0049
  0
VERTEX
  8
Element
  10
3.1978
  20
2.8493
  42
1
  0
VERTEX
  8
Element
  10
3.2027
  20
2.8493
  42
1
  0
VERTEX
  8
Element
  10
3.1978
  20
2.8493
  42
1
  0
SEQEND
  0
POLYLINE
  8
Element
  6
CONTINUOUS
  66
1
  70
0
  40
0.0049
  41
0.0049
  0
VERTEX
  8
Element
  10
3.3978
  20
2.8493
  42
1
  0
VERTEX
  8
Element
  10
3.4027
  20
2.8493
  42
1
  0
VERTEX
  8
Element
  10
3.3978
  20
2.8493
  42
1
  0
SEQEND
  0
POLYLINE
  8
Element
  6
CONTINUOUS
  66
1
  70
0
  40
0.0098
  41
0.0098
  0
VERTEX
  8
Element
  10
0.1499
  20
1.0866
  42
0
  0
VERTEX
  8
Element
  10
0.0
  20
1.0866
  42
0
  0
VERTEX
  8
Element
  10
0.0
  20
0.9366
  42
0
  0
VERTEX
  8
Element
  10
0.1499
  20
0.9366
  42
0
  0
VERTEX
  8
Element
  10
0.1499
  20
1.0866
  42
0
  0
SEQEND
  0
POLYLINE
  8
Element
  6
CONTINUOUS
  66
1
  70
0
  40
0.0098
  41
0.0098
  0
VERTEX
  8
Element
  10
2.4251
  20
1.1054
  42
0
  0
VERTEX
  8
Element
  10
2.2752
  20
1.1054
  42
0
  0
VERTEX
  8
Element
  10
2.2752
  20
0.9554
  42
0
  0
VERTEX
  8
Element
  10
2.4251
  20
0.9554
  42
0
  0
VERTEX
  8
Element
  10
2.4251
  20
1.1054
  42
0
  0
SEQEND
  0
POLYLINE
  8
Element
  6
CONTINUOUS
  66
1
  70
0
  40
0.0098
  41
0.0098
  0
VERTEX
  8
Element
  10
1.1812
  20
1.8992
  42
0
  0
VERTEX
  8
Element
  10
1.1312
  20
1.9242
  42
0
  0
SEQEND
  0
POLYLINE
  8
Element
  6
CONTINUOUS
  66
1
  70
0
  40
0.0049
  41
0.0049
  0
VERTEX
  8
Element
  10
1.1788
  20
1.8992
  42
1
  0
VERTEX
  8
Element
  10
1.1837
  20
1.8992
  42
1
  0
VERTEX
  8
Element
  10
1.1788
  20
1.8992
  42
1
  0
SEQEND
  0
POLYLINE
  8
Element
  6
CONTINUOUS
  66
1
  70
0
  40
0.0049
  41
0.0049
  0
VERTEX
  8
Element
  10
1.1288
  20
1.9242
  42
1
  0
VERTEX
  8
Element
  10
1.1337
  20
1.9242
  42
1
  0
VERTEX
  8
Element
  10
1.1288
  20
1.9242
  42
1
  0
SEQEND
  0
POLYLINE
  8
Element
  6
CONTINUOUS
  66
1
  70
0
  40
0.0098
  41
0.0098
  0
VERTEX
  8
Element
  10
1.0812
  20
1.8492
  42
0
  0
VERTEX
  8
Element
  10
1.1812
  20
1.8992
  42
0
  0
SEQEND
  0
POLYLINE
  8
Element
  6
CONTINUOUS
  66
1
  70
0
  40
0.0049
  41
0.0049
  0
VERTEX
  8
Element
  10
1.0788
  20
1.8492
  42
1
  0
VERTEX
  8
Element
  10
1.0837
  20
1.8492
  42
1
  0
VERTEX
  8
Element
  10
1.0788
  20
1.8492
  42
1
  0
SEQEND
  0
POLYLINE
  8
Element
  6
CONTINUOUS
  66
1
  70
0
  40
0.0049
  41
0.0049
  0
VERTEX
  8
Element
  10
1.1788
  20
1.8992
  42
1
  0
VERTEX
  8
Element
  10
1.1837
  20
1.8992
  42
1
  0
VERTEX
  8
Element
  10
1.1788
  20
1.8992
  42
1
  0
SEQEND
  0
POLYLINE
  8
Element
  6
CONTINUOUS
  66
1
  70
0
  40
0.0098
  41
0.0098
  0
VERTEX
  8
Element
  10
1.1812
  20
1.7992
  42
0
  0
VERTEX
  8
Element
  10
1.0812
  20
1.8492
  42
0
  0
SEQEND
  0
POLYLINE
  8
Element
  6
CONTINUOUS
  66
1
  70
0
  40
0.0049
  41
0.0049
  0
VERTEX
  8
Element
  10
1.1788
  20
1.7992
  42
1
  0
VERTEX
  8
Element
  10
1.1837
  20
1.7992
  42
1
  0
VERTEX
  8
Element
  10
1.1788
  20
1.7992
  42
1
  0
SEQEND
  0
POLYLINE
  8
Element
  6
CONTINUOUS
  66
1
  70
0
  40
0.0049
  41
0.0049
  0
VERTEX
  8
Element
  10
1.0788
  20
1.8492
  42
1
  0
VERTEX
  8
Element
  10
1.0837
  20
1.8492
  42
1
  0
VERTEX
  8
Element
  10
1.0788
  20
1.8492
  42
1
  0
SEQEND
  0
POLYLINE
  8
Element
  6
CONTINUOUS
  66
1
  70
0
  40
0.0098
  41
0.0098
  0
VERTEX
  8
Element
  10
1.0812
  20
1.7492
  42
0
  0
VERTEX
  8
Element
  10
1.1812
  20
1.7992
  42
0
  0
SEQEND
  0
POLYLINE
  8
Element
  6
CONTINUOUS
  66
1
  70
0
  40
0.0049
  41
0.0049
  0
VERTEX
  8
Element
  10
1.0788
  20
1.7492
  42
1
  0
VERTEX
  8
Element
  10
1.0837
  20
1.7492
  42
1
  0
VERTEX
  8
Element
  10
1.0788
  20
1.7492
  42
1
  0
SEQEND
  0
POLYLINE
  8
Element
  6
CONTINUOUS
  66
1
  70
0
  40
0.0049
  41
0.0049
  0
VERTEX
  8
Element
  10
1.1788
  20
1.7992
  42
1
  0
VERTEX
  8
Element
  10
1.1837
  20
1.7992
  42
1
  0
VERTEX
  8
Element
  10
1.1788
  20
1.7992
  42
1
  0
SEQEND
  0
POLYLINE
  8
Element
  6
CONTINUOUS
  66
1
  70
0
  40
0.0098
  41
0.0098
  0
VERTEX
  8
Element
  10
1.1812
  20
1.6992
  42
0
  0
VERTEX
  8
Element
  10
1.0812
  20
1.7492
  42
0
  0
SEQEND
  0
POLYLINE
  8
Element
  6
CONTINUOUS
  66
1
  70
0
  40
0.0049
  41
0.0049
  0
VERTEX
  8
Element
  10
1.1788
  20
1.6992
  42
1
  0
VERTEX
  8
Element
  10
1.1837
  20
1.6992
  42
1
  0
VERTEX
  8
Element
  10
1.1788
  20
1.6992
  42
1
  0
SEQEND
  0
POLYLINE
  8
Element
  6
CONTINUOUS
  66
1
  70
0
  40
0.0049
  41
0.0049
  0
VERTEX
  8
Element
  10
1.0788
  20
1.7492
  42
1
  0
VERTEX
  8
Element
  10
1.0837
  20
1.7492
  42
1
  0
VERTEX
  8
Element
  10
1.0788
  20
1.7492
  42
1
  0
SEQEND
  0
POLYLINE
  8
Element
  6
CONTINUOUS
  66
1
  70
0
  40
0.0098
  41
0.0098
  0
VERTEX
  8
Element
  10
1.0812
  20
1.6492
  42
0
  0
VERTEX
  8
Element
  10
1.1812
  20
1.6992
  42
0
  0
SEQEND
  0
POLYLINE
  8
Element
  6
CONTINUOUS
  66
1
  70
0
  40
0.0049
  41
0.0049
  0
VERTEX
  8
Element
  10
1.0788
  20
1.6492
  42
1
  0
VERTEX
  8
Element
  10
1.0837
  20
1.6492
  42
1
  0
VERTEX
  8
Element
  10
1.0788
  20
1.6492
  42
1
  0
SEQEND
  0
POLYLINE
  8
Element
  6
CONTINUOUS
  66
1
  70
0
  40
0.0049
  41
0.0049
  0
VERTEX
  8
Element
  10
1.1788
  20
1.6992
  42
1
  0
VERTEX
  8
Element
  10
1.1837
  20
1.6992
  42
1
  0
VERTEX
  8
Element
  10
1.1788
  20
1.6992
  42
1
  0
SEQEND
  0
POLYLINE
  8
Element
  6
CONTINUOUS
  66
1
  70
0
  40
0.0098
  41
0.0098
  0
VERTEX
  8
Element
  10
1.1312
  20
1.6242
  42
0
  0
VERTEX
  8
Element
  10
1.0812
  20
1.6492
  42
0
  0
SEQEND
  0
POLYLINE
  8
Element
  6
CONTINUOUS
  66
1
  70
0
  40
0.0049
  41
0.0049
  0
VERTEX
  8
Element
  10
1.1288
  20
1.6242
  42
1
  0
VERTEX
  8
Element
  10
1.1337
  20
1.6242
  42
1
  0
VERTEX
  8
Element
  10
1.1288
  20
1.6242
  42
1
  0
SEQEND
  0
POLYLINE
  8
Element
  6
CONTINUOUS
  66
1
  70
0
  40
0.0049
  41
0.0049
  0
VERTEX
  8
Element
  10
1.0788
  20
1.6492
  42
1
  0
VERTEX
  8
Element
  10
1.0837
  20
1.6492
  42
1
  0
VERTEX
  8
Element
  10
1.0788
  20
1.6492
  42
1
  0
SEQEND
  0
POLYLINE
  8
Element
  6
CONTINUOUS
  66
1
  70
0
  40
0.0098
  41
0.0098
  0
VERTEX
  8
Element
  10
3.3377
  20
1.9368
  42
0
  0
VERTEX
  8
Element
  10
3.2877
  20
1.9618
  42
0
  0
SEQEND
  0
POLYLINE
  8
Element
  6
CONTINUOUS
  66
1
  70
0
  40
0.0049
  41
0.0049
  0
VERTEX
  8
Element
  10
3.3353
  20
1.9368
  42
1
  0
VERTEX
  8
Element
  10
3.3402
  20
1.9368
  42
1
  0
VERTEX
  8
Element
  10
3.3353
  20
1.9368
  42
1
  0
SEQEND
  0
POLYLINE
  8
Element
  6
CONTINUOUS
  66
1
  70
0
  40
0.0049
  41
0.0049
  0
VERTEX
  8
Element
  10
3.2853
  20
1.9618
  42
1
  0
VERTEX
  8
Element
  10
3.2902
  20
1.9618
  42
1
  0
VERTEX
  8
Element
  10
3.2853
  20
1.9618
  42
1
  0
SEQEND
  0
POLYLINE
  8
Element
  6
CONTINUOUS
  66
1
  70
0
  40
0.0098
  41
0.0098
  0
VERTEX
  8
Element
  10
3.2377
  20
1.8868
  42
0
  0
VERTEX
  8
Element
  10
3.3377
  20
1.9368
  42
0
  0
SEQEND
  0
POLYLINE
  8
Element
  6
CONTINUOUS
  66
1
  70
0
  40
0.0049
  41
0.0049
  0
VERTEX
  8
Element
  10
3.2353
  20
1.8868
  42
1
  0
VERTEX
  8
Element
  10
3.2402
  20
1.8868
  42
1
  0
VERTEX
  8
Element
  10
3.2353
  20
1.8868
  42
1
  0
SEQEND
  0
POLYLINE
  8
Element
  6
CONTINUOUS
  66
1
  70
0
  40
0.0049
  41
0.0049
  0
VERTEX
  8
Element
  10
3.3353
  20
1.9368
  42
1
  0
VERTEX
  8
Element
  10
3.3402
  20
1.9368
  42
1
  0
VERTEX
  8
Element
  10
3.3353
  20
1.9368
  42
1
  0
SEQEND
  0
POLYLINE
  8
Element
  6
CONTINUOUS
  66
1
  70
0
  40
0.0098
  41
0.0098
  0
VERTEX
  8
Element
  10
3.3377
  20
1.8368
  42
0
  0
VERTEX
  8
Element
  10
3.2377
  20
1.8868
  42
0
  0
SEQEND
  0
POLYLINE
  8
Element
  6
CONTINUOUS
  66
1
  70
0
  40
0.0049
  41
0.0049
  0
VERTEX
  8
Element
  10
3.3353
  20
1.8368
  42
1
  0
VERTEX
  8
Element
  10
3.3402
  20
1.8368
  42
1
  0
VERTEX
  8
Element
  10
3.3353
  20
1.8368
  42
1
  0
SEQEND
  0
POLYLINE
  8
Element
  6
CONTINUOUS
  66
1
  70
0
  40
0.0049
  41
0.0049
  0
VERTEX
  8
Element
  10
3.2353
  20
1.8868
  42
1
  0
VERTEX
  8
Element
  10
3.2402
  20
1.8868
  42
1
  0
VERTEX
  8
Element
  10
3.2353
  20
1.8868
  42
1
  0
SEQEND
  0
POLYLINE
  8
Element
  6
CONTINUOUS
  66
1
  70
0
  40
0.0098
  41
0.0098
  0
VERTEX
  8
Element
  10
3.2377
  20
1.7868
  42
0
  0
VERTEX
  8
Element
  10
3.3377
  20
1.8368
  42
0
  0
SEQEND
  0
POLYLINE
  8
Element
  6
CONTINUOUS
  66
1
  70
0
  40
0.0049
  41
0.0049
  0
VERTEX
  8
Element
  10
3.2353
  20
1.7868
  42
1
  0
VERTEX
  8
Element
  10
3.2402
  20
1.7868
  42
1
  0
VERTEX
  8
Element
  10
3.2353
  20
1.7868
  42
1
  0
SEQEND
  0
POLYLINE
  8
Element
  6
CONTINUOUS
  66
1
  70
0
  40
0.0049
  41
0.0049
  0
VERTEX
  8
Element
  10
3.3353
  20
1.8368
  42
1
  0
VERTEX
  8
Element
  10
3.3402
  20
1.8368
  42
1
  0
VERTEX
  8
Element
  10
3.3353
  20
1.8368
  42
1
  0
SEQEND
  0
POLYLINE
  8
Element
  6
CONTINUOUS
  66
1
  70
0
  40
0.0098
  41
0.0098
  0
VERTEX
  8
Element
  10
3.3377
  20
1.7368
  42
0
  0
VERTEX
  8
Element
  10
3.2377
  20
1.7868
  42
0
  0
SEQEND
  0
POLYLINE
  8
Element
  6
CONTINUOUS
  66
1
  70
0
  40
0.0049
  41
0.0049
  0
VERTEX
  8
Element
  10
3.3353
  20
1.7368
  42
1
  0
VERTEX
  8
Element
  10
3.3402
  20
1.7368
  42
1
  0
VERTEX
  8
Element
  10
3.3353
  20
1.7368
  42
1
  0
SEQEND
  0
POLYLINE
  8
Element
  6
CONTINUOUS
  66
1
  70
0
  40
0.0049
  41
0.0049
  0
VERTEX
  8
Element
  10
3.2353
  20
1.7868
  42
1
  0
VERTEX
  8
Element
  10
3.2402
  20
1.7868
  42
1
  0
VERTEX
  8
Element
  10
3.2353
  20
1.7868
  42
1
  0
SEQEND
  0
POLYLINE
  8
Element
  6
CONTINUOUS
  66
1
  70
0
  40
0.0098
  41
0.0098
  0
VERTEX
  8
Element
  10
3.2377
  20
1.6868
  42
0
  0
VERTEX
  8
Element
  10
3.3377
  20
1.7368
  42
0
  0
SEQEND
  0
POLYLINE
  8
Element
  6
CONTINUOUS
  66
1
  70
0
  40
0.0049
  41
0.0049
  0
VERTEX
  8
Element
  10
3.2353
  20
1.6868
  42
1
  0
VERTEX
  8
Element
  10
3.2402
  20
1.6868
  42
1
  0
VERTEX
  8
Element
  10
3.2353
  20
1.6868
  42
1
  0
SEQEND
  0
POLYLINE
  8
Element
  6
CONTINUOUS
  66
1
  70
0
  40
0.0049
  41
0.0049
  0
VERTEX
  8
Element
  10
3.3353
  20
1.7368
  42
1
  0
VERTEX
  8
Element
  10
3.3402
  20
1.7368
  42
1
  0
VERTEX
  8
Element
  10
3.3353
  20
1.7368
  42
1
  0
SEQEND
  0
POLYLINE
  8
Element
  6
CONTINUOUS
  66
1
  70
0
  40
0.0098
  41
0.0098
  0
VERTEX
  8
Element
  10
3.2877
  20
1.6618
  42
0
  0
VERTEX
  8
Element
  10
3.2377
  20
1.6868
  42
0
  0
SEQEND
  0
POLYLINE
  8
Element
  6
CONTINUOUS
  66
1
  70
0
  40
0.0049
  41
0.0049
  0
VERTEX
  8
Element
  10
3.2853
  20
1.6618
  42
1
  0
VERTEX
  8
Element
  10
3.2902
  20
1.6618
  42
1
  0
VERTEX
  8
Element
  10
3.2853
  20
1.6618
  42
1
  0
SEQEND
  0
POLYLINE
  8
Element
  6
CONTINUOUS
  66
1
  70
0
  40
0.0049
  41
0.0049
  0
VERTEX
  8
Element
  10
3.2353
  20
1.6868
  42
1
  0
VERTEX
  8
Element
  10
3.2402
  20
1.6868
  42
1
  0
VERTEX
  8
Element
  10
3.2353
  20
1.6868
  42
1
  0
SEQEND
  0
POLYLINE
  8
Element
  6
CONTINUOUS
  66
1
  70
0
  40
0.0098
  41
0.0098
  0
VERTEX
  8
Element
  10
1.075
  20
0.8366
  42
0
  0
VERTEX
  8
Element
  10
1.025
  20
0.8616
  42
0
  0
SEQEND
  0
POLYLINE
  8
Element
  6
CONTINUOUS
  66
1
  70
0
  40
0.0049
  41
0.0049
  0
VERTEX
  8
Element
  10
1.0725
  20
0.8366
  42
1
  0
VERTEX
  8
Element
  10
1.0774
  20
0.8366
  42
1
  0
VERTEX
  8
Element
  10
1.0725
  20
0.8366
  42
1
  0
SEQEND
  0
POLYLINE
  8
Element
  6
CONTINUOUS
  66
1
  70
0
  40
0.0049
  41
0.0049
  0
VERTEX
  8
Element
  10
1.0225
  20
0.8616
  42
1
  0
VERTEX
  8
Element
  10
1.0274
  20
0.8616
  42
1
  0
VERTEX
  8
Element
  10
1.0225
  20
0.8616
  42
1
  0
SEQEND
  0
POLYLINE
  8
Element
  6
CONTINUOUS
  66
1
  70
0
  40
0.0098
  41
0.0098
  0
VERTEX
  8
Element
  10
0.975
  20
0.7866
  42
0
  0
VERTEX
  8
Element
  10
1.075
  20
0.8366
  42
0
  0
SEQEND
  0
POLYLINE
  8
Element
  6
CONTINUOUS
  66
1
  70
0
  40
0.0049
  41
0.0049
  0
VERTEX
  8
Element
  10
0.9725
  20
0.7866
  42
1
  0
VERTEX
  8
Element
  10
0.9774
  20
0.7866
  42
1
  0
VERTEX
  8
Element
  10
0.9725
  20
0.7866
  42
1
  0
SEQEND
  0
POLYLINE
  8
Element
  6
CONTINUOUS
  66
1
  70
0
  40
0.0049
  41
0.0049
  0
VERTEX
  8
Element
  10
1.0725
  20
0.8366
  42
1
  0
VERTEX
  8
Element
  10
1.0774
  20
0.8366
  42
1
  0
VERTEX
  8
Element
  10
1.0725
  20
0.8366
  42
1
  0
SEQEND
  0
POLYLINE
  8
Element
  6
CONTINUOUS
  66
1
  70
0
  40
0.0098
  41
0.0098
  0
VERTEX
  8
Element
  10
1.075
  20
0.7366
  42
0
  0
VERTEX
  8
Element
  10
0.975
  20
0.7866
  42
0
  0
SEQEND
  0
POLYLINE
  8
Element
  6
CONTINUOUS
  66
1
  70
0
  40
0.0049
  41
0.0049
  0
VERTEX
  8
Element
  10
1.0725
  20
0.7366
  42
1
  0
VERTEX
  8
Element
  10
1.0774
  20
0.7366
  42
1
  0
VERTEX
  8
Element
  10
1.0725
  20
0.7366
  42
1
  0
SEQEND
  0
POLYLINE
  8
Element
  6
CONTINUOUS
  66
1
  70
0
  40
0.0049
  41
0.0049
  0
VERTEX
  8
Element
  10
0.9725
  20
0.7866
  42
1
  0
VERTEX
  8
Element
  10
0.9774
  20
0.7866
  42
1
  0
VERTEX
  8
Element
  10
0.9725
  20
0.7866
  42
1
  0
SEQEND
  0
POLYLINE
  8
Element
  6
CONTINUOUS
  66
1
  70
0
  40
0.0098
  41
0.0098
  0
VERTEX
  8
Element
  10
0.975
  20
0.6866
  42
0
  0
VERTEX
  8
Element
  10
1.075
  20
0.7366
  42
0
  0
SEQEND
  0
POLYLINE
  8
Element
  6
CONTINUOUS
  66
1
  70
0
  40
0.0049
  41
0.0049
  0
VERTEX
  8
Element
  10
0.9725
  20
0.6866
  42
1
  0
VERTEX
  8
Element
  10
0.9774
  20
0.6866
  42
1
  0
VERTEX
  8
Element
  10
0.9725
  20
0.6866
  42
1
  0
SEQEND
  0
POLYLINE
  8
Element
  6
CONTINUOUS
  66
1
  70
0
  40
0.0049
  41
0.0049
  0
VERTEX
  8
Element
  10
1.0725
  20
0.7366
  42
1
  0
VERTEX
  8
Element
  10
1.0774
  20
0.7366
  42
1
  0
VERTEX
  8
Element
  10
1.0725
  20
0.7366
  42
1
  0
SEQEND
  0
POLYLINE
  8
Element
  6
CONTINUOUS
  66
1
  70
0
  40
0.0098
  41
0.0098
  0
VERTEX
  8
Element
  10
1.075
  20
0.6366
  42
0
  0
VERTEX
  8
Element
  10
0.975
  20
0.6866
  42
0
  0
SEQEND
  0
POLYLINE
  8
Element
  6
CONTINUOUS
  66
1
  70
0
  40
0.0049
  41
0.0049
  0
VERTEX
  8
Element
  10
1.0725
  20
0.6366
  42
1
  0
VERTEX
  8
Element
  10
1.0774
  20
0.6366
  42
1
  0
VERTEX
  8
Element
  10
1.0725
  20
0.6366
  42
1
  0
SEQEND
  0
POLYLINE
  8
Element
  6
CONTINUOUS
  66
1
  70
0
  40
0.0049
  41
0.0049
  0
VERTEX
  8
Element
  10
0.9725
  20
0.6866
  42
1
  0
VERTEX
  8
Element
  10
0.9774
  20
0.6866
  42
1
  0
VERTEX
  8
Element
  10
0.9725
  20
0.6866
  42
1
  0
SEQEND
  0
POLYLINE
  8
Element
  6
CONTINUOUS
  66
1
  70
0
  40
0.0098
  41
0.0098
  0
VERTEX
  8
Element
  10
0.975
  20
0.5866
  42
0
  0
VERTEX
  8
Element
  10
1.075
  20
0.6366
  42
0
  0
SEQEND
  0
POLYLINE
  8
Element
  6
CONTINUOUS
  66
1
  70
0
  40
0.0049
  41
0.0049
  0
VERTEX
  8
Element
  10
0.9725
  20
0.5866
  42
1
  0
VERTEX
  8
Element
  10
0.9774
  20
0.5866
  42
1
  0
VERTEX
  8
Element
  10
0.9725
  20
0.5866
  42
1
  0
SEQEND
  0
POLYLINE
  8
Element
  6
CONTINUOUS
  66
1
  70
0
  40
0.0049
  41
0.0049
  0
VERTEX
  8
Element
  10
1.0725
  20
0.6366
  42
1
  0
VERTEX
  8
Element
  10
1.0774
  20
0.6366
  42
1
  0
VERTEX
  8
Element
  10
1.0725
  20
0.6366
  42
1
  0
SEQEND
  0
POLYLINE
  8
Element
  6
CONTINUOUS
  66
1
  70
0
  40
0.0098
  41
0.0098
  0
VERTEX
  8
Element
  10
1.025
  20
0.5616
  42
0
  0
VERTEX
  8
Element
  10
0.975
  20
0.5866
  42
0
  0
SEQEND
  0
POLYLINE
  8
Element
  6
CONTINUOUS
  66
1
  70
0
  40
0.0049
  41
0.0049
  0
VERTEX
  8
Element
  10
1.0225
  20
0.5616
  42
1
  0
VERTEX
  8
Element
  10
1.0274
  20
0.5616
  42
1
  0
VERTEX
  8
Element
  10
1.0225
  20
0.5616
  42
1
  0
SEQEND
  0
POLYLINE
  8
Element
  6
CONTINUOUS
  66
1
  70
0
  40
0.0049
  41
0.0049
  0
VERTEX
  8
Element
  10
0.9725
  20
0.5866
  42
1
  0
VERTEX
  8
Element
  10
0.9774
  20
0.5866
  42
1
  0
VERTEX
  8
Element
  10
0.9725
  20
0.5866
  42
1
  0
SEQEND
  0
POLYLINE
  8
Element
  6
CONTINUOUS
  66
1
  70
0
  40
0.0098
  41
0.0098
  0
VERTEX
  8
Element
  10
3.2877
  20
0.8491
  42
0
  0
VERTEX
  8
Element
  10
3.2377
  20
0.8741
  42
0
  0
SEQEND
  0
POLYLINE
  8
Element
  6
CONTINUOUS
  66
1
  70
0
  40
0.0049
  41
0.0049
  0
VERTEX
  8
Element
  10
3.2852
  20
0.8491
  42
1
  0
VERTEX
  8
Element
  10
3.2902
  20
0.8491
  42
1
  0
VERTEX
  8
Element
  10
3.2852
  20
0.8491
  42
1
  0
SEQEND
  0
POLYLINE
  8
Element
  6
CONTINUOUS
  66
1
  70
0
  40
0.0049
  41
0.0049
  0
VERTEX
  8
Element
  10
3.2352
  20
0.8741
  42
1
  0
VERTEX
  8
Element
  10
3.2402
  20
0.8741
  42
1
  0
VERTEX
  8
Element
  10
3.2352
  20
0.8741
  42
1
  0
SEQEND
  0
POLYLINE
  8
Element
  6
CONTINUOUS
  66
1
  70
0
  40
0.0098
  41
0.0098
  0
VERTEX
  8
Element
  10
3.1877
  20
0.7991
  42
0
  0
VERTEX
  8
Element
  10
3.2877
  20
0.8491
  42
0
  0
SEQEND
  0
POLYLINE
  8
Element
  6
CONTINUOUS
  66
1
  70
0
  40
0.0049
  41
0.0049
  0
VERTEX
  8
Element
  10
3.1852
  20
0.7991
  42
1
  0
VERTEX
  8
Element
  10
3.1902
  20
0.7991
  42
1
  0
VERTEX
  8
Element
  10
3.1852
  20
0.7991
  42
1
  0
SEQEND
  0
POLYLINE
  8
Element
  6
CONTINUOUS
  66
1
  70
0
  40
0.0049
  41
0.0049
  0
VERTEX
  8
Element
  10
3.2852
  20
0.8491
  42
1
  0
VERTEX
  8
Element
  10
3.2902
  20
0.8491
  42
1
  0
VERTEX
  8
Element
  10
3.2852
  20
0.8491
  42
1
  0
SEQEND
  0
POLYLINE
  8
Element
  6
CONTINUOUS
  66
1
  70
0
  40
0.0098
  41
0.0098
  0
VERTEX
  8
Element
  10
3.2877
  20
0.7491
  42
0
  0
VERTEX
  8
Element
  10
3.1877
  20
0.7991
  42
0
  0
SEQEND
  0
POLYLINE
  8
Element
  6
CONTINUOUS
  66
1
  70
0
  40
0.0049
  41
0.0049
  0
VERTEX
  8
Element
  10
3.2852
  20
0.7491
  42
1
  0
VERTEX
  8
Element
  10
3.2902
  20
0.7491
  42
1
  0
VERTEX
  8
Element
  10
3.2852
  20
0.7491
  42
1
  0
SEQEND
  0
POLYLINE
  8
Element
  6
CONTINUOUS
  66
1
  70
0
  40
0.0049
  41
0.0049
  0
VERTEX
  8
Element
  10
3.1852
  20
0.7991
  42
1
  0
VERTEX
  8
Element
  10
3.1902
  20
0.7991
  42
1
  0
VERTEX
  8
Element
  10
3.1852
  20
0.7991
  42
1
  0
SEQEND
  0
POLYLINE
  8
Element
  6
CONTINUOUS
  66
1
  70
0
  40
0.0098
  41
0.0098
  0
VERTEX
  8
Element
  10
3.1877
  20
0.6991
  42
0
  0
VERTEX
  8
Element
  10
3.2877
  20
0.7491
  42
0
  0
SEQEND
  0
POLYLINE
  8
Element
  6
CONTINUOUS
  66
1
  70
0
  40
0.0049
  41
0.0049
  0
VERTEX
  8
Element
  10
3.1852
  20
0.6991
  42
1
  0
VERTEX
  8
Element
  10
3.1902
  20
0.6991
  42
1
  0
VERTEX
  8
Element
  10
3.1852
  20
0.6991
  42
1
  0
SEQEND
  0
POLYLINE
  8
Element
  6
CONTINUOUS
  66
1
  70
0
  40
0.0049
  41
0.0049
  0
VERTEX
  8
Element
  10
3.2852
  20
0.7491
  42
1
  0
VERTEX
  8
Element
  10
3.2902
  20
0.7491
  42
1
  0
VERTEX
  8
Element
  10
3.2852
  20
0.7491
  42
1
  0
SEQEND
  0
POLYLINE
  8
Element
  6
CONTINUOUS
  66
1
  70
0
  40
0.0098
  41
0.0098
  0
VERTEX
  8
Element
  10
3.2877
  20
0.6491
  42
0
  0
VERTEX
  8
Element
  10
3.1877
  20
0.6991
  42
0
  0
SEQEND
  0
POLYLINE
  8
Element
  6
CONTINUOUS
  66
1
  70
0
  40
0.0049
  41
0.0049
  0
VERTEX
  8
Element
  10
3.2852
  20
0.6491
  42
1
  0
VERTEX
  8
Element
  10
3.2902
  20
0.6491
  42
1
  0
VERTEX
  8
Element
  10
3.2852
  20
0.6491
  42
1
  0
SEQEND
  0
POLYLINE
  8
Element
  6
CONTINUOUS
  66
1
  70
0
  40
0.0049
  41
0.0049
  0
VERTEX
  8
Element
  10
3.1852
  20
0.6991
  42
1
  0
VERTEX
  8
Element
  10
3.1902
  20
0.6991
  42
1
  0
VERTEX
  8
Element
  10
3.1852
  20
0.6991
  42
1
  0
SEQEND
  0
POLYLINE
  8
Element
  6
CONTINUOUS
  66
1
  70
0
  40
0.0098
  41
0.0098
  0
VERTEX
  8
Element
  10
3.1877
  20
0.5991
  42
0
  0
VERTEX
  8
Element
  10
3.2877
  20
0.6491
  42
0
  0
SEQEND
  0
POLYLINE
  8
Element
  6
CONTINUOUS
  66
1
  70
0
  40
0.0049
  41
0.0049
  0
VERTEX
  8
Element
  10
3.1852
  20
0.5991
  42
1
  0
VERTEX
  8
Element
  10
3.1902
  20
0.5991
  42
1
  0
VERTEX
  8
Element
  10
3.1852
  20
0.5991
  42
1
  0
SEQEND
  0
POLYLINE
  8
Element
  6
CONTINUOUS
  66
1
  70
0
  40
0.0049
  41
0.0049
  0
VERTEX
  8
Element
  10
3.2852
  20
0.6491
  42
1
  0
VERTEX
  8
Element
  10
3.2902
  20
0.6491
  42
1
  0
VERTEX
  8
Element
  10
3.2852
  20
0.6491
  42
1
  0
SEQEND
  0
POLYLINE
  8
Element
  6
CONTINUOUS
  66
1
  70
0
  40
0.0098
  41
0.0098
  0
VERTEX
  8
Element
  10
3.2377
  20
0.5741
  42
0
  0
VERTEX
  8
Element
  10
3.1877
  20
0.5991
  42
0
  0
SEQEND
  0
POLYLINE
  8
Element
  6
CONTINUOUS
  66
1
  70
0
  40
0.0049
  41
0.0049
  0
VERTEX
  8
Element
  10
3.2352
  20
0.5741
  42
1
  0
VERTEX
  8
Element
  10
3.2402
  20
0.5741
  42
1
  0
VERTEX
  8
Element
  10
3.2352
  20
0.5741
  42
1
  0
SEQEND
  0
POLYLINE
  8
Element
  6
CONTINUOUS
  66
1
  70
0
  40
0.0049
  41
0.0049
  0
VERTEX
  8
Element
  10
3.1852
  20
0.5991
  42
1
  0
VERTEX
  8
Element
  10
3.1902
  20
0.5991
  42
1
  0
VERTEX
  8
Element
  10
3.1852
  20
0.5991
  42
1
  0
SEQEND
  0
POLYLINE
  8
Element
  6
CONTINUOUS
  66
1
  70
0
  40
0.0098
  41
0.0098
  0
VERTEX
  8
Element
  10
1.225
  20
1.0116
  42
0
  0
VERTEX
  8
Element
  10
1.2323
  20
0.9653
  42
0
  0
VERTEX
  8
Element
  10
1.2536
  20
0.9235
  42
0
  0
VERTEX
  8
Element
  10
1.2868
  20
0.8903
  42
0
  0
VERTEX
  8
Element
  10
1.3286
  20
0.869
  42
0
  0
VERTEX
  8
Element
  10
1.375
  20
0.8616
  42
0
  0
VERTEX
  8
Element
  10
1.4213
  20
0.869
  42
0
  0
VERTEX
  8
Element
  10
1.4632
  20
0.8903
  42
0
  0
VERTEX
  8
Element
  10
1.4963
  20
0.9235
  42
0
  0
VERTEX
  8
Element
  10
1.5177
  20
0.9653
  42
0
  0
VERTEX
  8
Element
  10
1.525
  20
1.0116
  42
0
  0
VERTEX
  8
Element
  10
1.5177
  20
1.058
  42
0
  0
VERTEX
  8
Element
  10
1.4963
  20
1.0998
  42
0
  0
VERTEX
  8
Element
  10
1.4632
  20
1.133
  42
0
  0
VERTEX
  8
Element
  10
1.4213
  20
1.1543
  42
0
  0
VERTEX
  8
Element
  10
1.375
  20
1.1616
  42
0
  0
VERTEX
  8
Element
  10
1.3286
  20
1.1543
  42
0
  0
VERTEX
  8
Element
  10
1.2868
  20
1.133
  42
0
  0
VERTEX
  8
Element
  10
1.2536
  20
1.0998
  42
0
  0
VERTEX
  8
Element
  10
1.2323
  20
1.058
  42
0
  0
VERTEX
  8
Element
  10
1.225
  20
1.0116
  42
0
  0
SEQEND
  0
POLYLINE
  8
Element
  6
CONTINUOUS
  66
1
  70
0
  40
0.0049
  41
0.0049
  0
VERTEX
  8
Element
  10
1.2225
  20
1.0116
  42
1
  0
VERTEX
  8
Element
  10
1.2275
  20
1.0116
  42
1
  0
VERTEX
  8
Element
  10
1.2225
  20
1.0116
  42
1
  0
SEQEND
  0
POLYLINE
  8
Element
  6
CONTINUOUS
  66
1
  70
0
  40
0.0098
  41
0.0098
  0
VERTEX
  8
Element
  10
1.375
  20
1.0616
  42
0
  0
VERTEX
  8
Element
  10
1.375
  20
0.9616
  42
0
  0
SEQEND
  0
POLYLINE
  8
Element
  6
CONTINUOUS
  66
1
  70
0
  40
0.0049
  41
0.0049
  0
VERTEX
  8
Element
  10
1.3725
  20
1.0616
  42
1
  0
VERTEX
  8
Element
  10
1.3775
  20
1.0616
  42
1
  0
VERTEX
  8
Element
  10
1.3725
  20
1.0616
  42
1
  0
SEQEND
  0
POLYLINE
  8
Element
  6
CONTINUOUS
  66
1
  70
0
  40
0.0049
  41
0.0049
  0
VERTEX
  8
Element
  10
1.3725
  20
0.9616
  42
1
  0
VERTEX
  8
Element
  10
1.3775
  20
0.9616
  42
1
  0
VERTEX
  8
Element
  10
1.3725
  20
0.9616
  42
1
  0
SEQEND
  0
POLYLINE
  8
Element
  6
CONTINUOUS
  66
1
  70
0
  40
0.0098
  41
0.0098
  0
VERTEX
  8
Element
  10
1.275
  20
1.0116
  42
0
  0
VERTEX
  8
Element
  10
1.375
  20
1.0116
  42
0
  0
SEQEND
  0
POLYLINE
  8
Element
  6
CONTINUOUS
  66
1
  70
0
  40
0.0049
  41
0.0049
  0
VERTEX
  8
Element
  10
1.2725
  20
1.0116
  42
1
  0
VERTEX
  8
Element
  10
1.2775
  20
1.0116
  42
1
  0
VERTEX
  8
Element
  10
1.2725
  20
1.0116
  42
1
  0
SEQEND
  0
POLYLINE
  8
Element
  6
CONTINUOUS
  66
1
  70
0
  40
0.0049
  41
0.0049
  0
VERTEX
  8
Element
  10
1.3725
  20
1.0116
  42
1
  0
VERTEX
  8
Element
  10
1.3775
  20
1.0116
  42
1
  0
VERTEX
  8
Element
  10
1.3725
  20
1.0116
  42
1
  0
SEQEND
  0
POLYLINE
  8
Element
  6
CONTINUOUS
  66
1
  70
0
  40
0.0098
  41
0.0098
  0
VERTEX
  8
Element
  10
1.375
  20
1.0616
  42
0
  0
VERTEX
  8
Element
  10
1.425
  20
1.1116
  42
0
  0
SEQEND
  0
POLYLINE
  8
Element
  6
CONTINUOUS
  66
1
  70
0
  40
0.0049
  41
0.0049
  0
VERTEX
  8
Element
  10
1.3725
  20
1.0616
  42
1
  0
VERTEX
  8
Element
  10
1.3775
  20
1.0616
  42
1
  0
VERTEX
  8
Element
  10
1.3725
  20
1.0616
  42
1
  0
SEQEND
  0
POLYLINE
  8
Element
  6
CONTINUOUS
  66
1
  70
0
  40
0.0049
  41
0.0049
  0
VERTEX
  8
Element
  10
1.4225
  20
1.1116
  42
1
  0
VERTEX
  8
Element
  10
1.4275
  20
1.1116
  42
1
  0
VERTEX
  8
Element
  10
1.4225
  20
1.1116
  42
1
  0
SEQEND
  0
POLYLINE
  8
Element
  6
CONTINUOUS
  66
1
  70
0
  40
0.0098
  41
0.0098
  0
VERTEX
  8
Element
  10
1.375
  20
0.9616
  42
0
  0
VERTEX
  8
Element
  10
1.425
  20
0.9116
  42
0
  0
VERTEX
  8
Element
  10
1.375
  20
0.9616
  42
0
  0
SEQEND
  0
POLYLINE
  8
Element
  6
CONTINUOUS
  66
1
  70
0
  40
0.0049
  41
0.0049
  0
VERTEX
  8
Element
  10
1.3725
  20
0.9616
  42
1
  0
VERTEX
  8
Element
  10
1.3775
  20
0.9616
  42
1
  0
VERTEX
  8
Element
  10
1.3725
  20
0.9616
  42
1
  0
SEQEND
  0
POLYLINE
  8
Element
  6
CONTINUOUS
  66
1
  70
0
  40
0.0098
  41
0.0098
  0
VERTEX
  8
Element
  10
3.4002
  20
1.0304
  42
0
  0
VERTEX
  8
Element
  10
3.4076
  20
0.984
  42
0
  0
VERTEX
  8
Element
  10
3.4289
  20
0.9422
  42
0
  0
VERTEX
  8
Element
  10
3.4621
  20
0.909
  42
0
  0
VERTEX
  8
Element
  10
3.5039
  20
0.8877
  42
0
  0
VERTEX
  8
Element
  10
3.5502
  20
0.8804
  42
0
  0
VERTEX
  8
Element
  10
3.5966
  20
0.8877
  42
0
  0
VERTEX
  8
Element
  10
3.6384
  20
0.909
  42
0
  0
VERTEX
  8
Element
  10
3.6716
  20
0.9422
  42
0
  0
VERTEX
  8
Element
  10
3.6929
  20
0.984
  42
0
  0
VERTEX
  8
Element
  10
3.7002
  20
1.0304
  42
0
  0
VERTEX
  8
Element
  10
3.6929
  20
1.0767
  42
0
  0
VERTEX
  8
Element
  10
3.6716
  20
1.1186
  42
0
  0
VERTEX
  8
Element
  10
3.6384
  20
1.1517
  42
0
  0
VERTEX
  8
Element
  10
3.5966
  20
1.173
  42
0
  0
VERTEX
  8
Element
  10
3.5502
  20
1.1804
  42
0
  0
VERTEX
  8
Element
  10
3.5039
  20
1.173
  42
0
  0
VERTEX
  8
Element
  10
3.4621
  20
1.1517
  42
0
  0
VERTEX
  8
Element
  10
3.4289
  20
1.1186
  42
0
  0
VERTEX
  8
Element
  10
3.4076
  20
1.0767
  42
0
  0
VERTEX
  8
Element
  10
3.4002
  20
1.0304
  42
0
  0
SEQEND
  0
POLYLINE
  8
Element
  6
CONTINUOUS
  66
1
  70
0
  40
0.0049
  41
0.0049
  0
VERTEX
  8
Element
  10
3.3978
  20
1.0304
  42
1
  0
VERTEX
  8
Element
  10
3.4027
  20
1.0304
  42
1
  0
VERTEX
  8
Element
  10
3.3978
  20
1.0304
  42
1
  0
SEQEND
  0
POLYLINE
  8
Element
  6
CONTINUOUS
  66
1
  70
0
  40
0.0098
  41
0.0098
  0
VERTEX
  8
Element
  10
3.5502
  20
1.0804
  42
0
  0
VERTEX
  8
Element
  10
3.5502
  20
0.9804
  42
0
  0
SEQEND
  0
POLYLINE
  8
Element
  6
CONTINUOUS
  66
1
  70
0
  40
0.0049
  41
0.0049
  0
VERTEX
  8
Element
  10
3.5478
  20
1.0804
  42
1
  0
VERTEX
  8
Element
  10
3.5527
  20
1.0804
  42
1
  0
VERTEX
  8
Element
  10
3.5478
  20
1.0804
  42
1
  0
SEQEND
  0
POLYLINE
  8
Element
  6
CONTINUOUS
  66
1
  70
0
  40
0.0049
  41
0.0049
  0
VERTEX
  8
Element
  10
3.5478
  20
0.9804
  42
1
  0
VERTEX
  8
Element
  10
3.5527
  20
0.9804
  42
1
  0
VERTEX
  8
Element
  10
3.5478
  20
0.9804
  42
1
  0
SEQEND
  0
POLYLINE
  8
Element
  6
CONTINUOUS
  66
1
  70
0
  40
0.0098
  41
0.0098
  0
VERTEX
  8
Element
  10
3.4502
  20
1.0304
  42
0
  0
VERTEX
  8
Element
  10
3.5502
  20
1.0304
  42
0
  0
SEQEND
  0
POLYLINE
  8
Element
  6
CONTINUOUS
  66
1
  70
0
  40
0.0049
  41
0.0049
  0
VERTEX
  8
Element
  10
3.4478
  20
1.0304
  42
1
  0
VERTEX
  8
Element
  10
3.4527
  20
1.0304
  42
1
  0
VERTEX
  8
Element
  10
3.4478
  20
1.0304
  42
1
  0
SEQEND
  0
POLYLINE
  8
Element
  6
CONTINUOUS
  66
1
  70
0
  40
0.0049
  41
0.0049
  0
VERTEX
  8
Element
  10
3.5478
  20
1.0304
  42
1
  0
VERTEX
  8
Element
  10
3.5527
  20
1.0304
  42
1
  0
VERTEX
  8
Element
  10
3.5478
  20
1.0304
  42
1
  0
SEQEND
  0
POLYLINE
  8
Element
  6
CONTINUOUS
  66
1
  70
0
  40
0.0098
  41
0.0098
  0
VERTEX
  8
Element
  10
3.5502
  20
1.0804
  42
0
  0
VERTEX
  8
Element
  10
3.6002
  20
1.1304
  42
0
  0
SEQEND
  0
POLYLINE
  8
Element
  6
CONTINUOUS
  66
1
  70
0
  40
0.0049
  41
0.0049
  0
VERTEX
  8
Element
  10
3.5478
  20
1.0804
  42
1
  0
VERTEX
  8
Element
  10
3.5527
  20
1.0804
  42
1
  0
VERTEX
  8
Element
  10
3.5478
  20
1.0804
  42
1
  0
SEQEND
  0
POLYLINE
  8
Element
  6
CONTINUOUS
  66
1
  70
0
  40
0.0049
  41
0.0049
  0
VERTEX
  8
Element
  10
3.5978
  20
1.1304
  42
1
  0
VERTEX
  8
Element
  10
3.6027
  20
1.1304
  42
1
  0
VERTEX
  8
Element
  10
3.5978
  20
1.1304
  42
1
  0
SEQEND
  0
POLYLINE
  8
Element
  6
CONTINUOUS
  66
1
  70
0
  40
0.0098
  41
0.0098
  0
VERTEX
  8
Element
  10
3.5502
  20
0.9804
  42
0
  0
VERTEX
  8
Element
  10
3.6002
  20
0.9304
  42
0
  0
VERTEX
  8
Element
  10
3.5502
  20
0.9804
  42
0
  0
SEQEND
  0
POLYLINE
  8
Element
  6
CONTINUOUS
  66
1
  70
0
  40
0.0049
  41
0.0049
  0
VERTEX
  8
Element
  10
3.5478
  20
0.9804
  42
1
  0
VERTEX
  8
Element
  10
3.5527
  20
0.9804
  42
1
  0
VERTEX
  8
Element
  10
3.5478
  20
0.9804
  42
1
  0
SEQEND
  0
POLYLINE
  8
Element
  6
CONTINUOUS
  66
1
  70
0
  40
0.0098
  41
0.0098
  0
VERTEX
  8
Element
  10
2.2063
  20
4.337
  42
0
  0
VERTEX
  8
Element
  10
2.2063
  20
3.937
  42
0
  0
SEQEND
  0
POLYLINE
  8
Element
  6
CONTINUOUS
  66
1
  70
0
  40
0.0049
  41
0.0049
  0
VERTEX
  8
Element
  10
2.2039
  20
4.337
  42
1
  0
VERTEX
  8
Element
  10
2.2088
  20
4.337
  42
1
  0
VERTEX
  8
Element
  10
2.2039
  20
4.337
  42
1
  0
SEQEND
  0
POLYLINE
  8
Element
  6
CONTINUOUS
  66
1
  70
0
  40
0.0049
  41
0.0049
  0
VERTEX
  8
Element
  10
2.2039
  20
3.937
  42
1
  0
VERTEX
  8
Element
  10
2.2088
  20
3.937
  42
1
  0
VERTEX
  8
Element
  10
2.2039
  20
3.937
  42
1
  0
SEQEND
  0
POLYLINE
  8
Element
  6
CONTINUOUS
  66
1
  70
0
  40
0.0098
  41
0.0098
  0
VERTEX
  8
Element
  10
2.2063
  20
3.937
  42
0
  0
VERTEX
  8
Element
  10
2.7063
  20
3.937
  42
0
  0
SEQEND
  0
POLYLINE
  8
Element
  6
CONTINUOUS
  66
1
  70
0
  40
0.0049
  41
0.0049
  0
VERTEX
  8
Element
  10
2.2039
  20
3.937
  42
1
  0
VERTEX
  8
Element
  10
2.2088
  20
3.937
  42
1
  0
VERTEX
  8
Element
  10
2.2039
  20
3.937
  42
1
  0
SEQEND
  0
POLYLINE
  8
Element
  6
CONTINUOUS
  66
1
  70
0
  40
0.0049
  41
0.0049
  0
VERTEX
  8
Element
  10
2.7039
  20
3.937
  42
1
  0
VERTEX
  8
Element
  10
2.7088
  20
3.937
  42
1
  0
VERTEX
  8
Element
  10
2.7039
  20
3.937
  42
1
  0
SEQEND
  0
POLYLINE
  8
Element
  6
CONTINUOUS
  66
1
  70
0
  40
0.0098
  41
0.0098
  0
VERTEX
  8
Element
  10
2.7063
  20
3.937
  42
0
  0
VERTEX
  8
Element
  10
2.7063
  20
4.337
  42
0
  0
SEQEND
  0
POLYLINE
  8
Element
  6
CONTINUOUS
  66
1
  70
0
  40
0.0049
  41
0.0049
  0
VERTEX
  8
Element
  10
2.7039
  20
3.937
  42
1
  0
VERTEX
  8
Element
  10
2.7088
  20
3.937
  42
1
  0
VERTEX
  8
Element
  10
2.7039
  20
3.937
  42
1
  0
SEQEND
  0
POLYLINE
  8
Element
  6
CONTINUOUS
  66
1
  70
0
  40
0.0049
  41
0.0049
  0
VERTEX
  8
Element
  10
2.7039
  20
4.337
  42
1
  0
VERTEX
  8
Element
  10
2.7088
  20
4.337
  42
1
  0
VERTEX
  8
Element
  10
2.7039
  20
4.337
  42
1
  0
SEQEND
  0
POLYLINE
  8
Element
  6
CONTINUOUS
  66
1
  70
0
  40
0.0098
  41
0.0098
  0
VERTEX
  8
Element
  10
2.7063
  20
4.337
  42
0
  0
VERTEX
  8
Element
  10
2.2063
  20
4.337
  42
0
  0
SEQEND
  0
POLYLINE
  8
Element
  6
CONTINUOUS
  66
1
  70
0
  40
0.0049
  41
0.0049
  0
VERTEX
  8
Element
  10
2.7039
  20
4.337
  42
1
  0
VERTEX
  8
Element
  10
2.7088
  20
4.337
  42
1
  0
VERTEX
  8
Element
  10
2.7039
  20
4.337
  42
1
  0
SEQEND
  0
POLYLINE
  8
Element
  6
CONTINUOUS
  66
1
  70
0
  40
0.0049
  41
0.0049
  0
VERTEX
  8
Element
  10
2.2039
  20
4.337
  42
1
  0
VERTEX
  8
Element
  10
2.2088
  20
4.337
  42
1
  0
VERTEX
  8
Element
  10
2.2039
  20
4.337
  42
1
  0
SEQEND
  0
TEXT
  8
Element
  10
1.3875
  20
2.1867
  40
0.0583
  41
0.7
  1
D1
  50
0.0
  72
1
  73
1
  7
STANDARD
  71
0
  11
1.3875
  21
2.1867
  0
TEXT
  8
Element
  10
1.3875
  20
1.9867
  40
0.0583
  41
0.7
  1

  50
0.0
  72
1
  73
3
  7
STANDARD
  71
0
  11
1.3875
  21
1.9867
  0
TEXT
  8
Element
  10
3.5753
  20
2.218
  40
0.0583
  41
0.7
  1
D2
  50
0.0
  72
1
  73
1
  7
STANDARD
  71
0
  11
3.5753
  21
2.218
  0
TEXT
  8
Element
  10
3.5753
  20
2.018
  40
0.0583
  41
0.7
  1

  50
0.0
  72
1
  73
3
  7
STANDARD
  71
0
  11
3.5753
  21
2.018
  0
TEXT
  8
Element
  10
1.4625
  20
1.6179
  40
0.0583
  41
0.7
  1
D3
  50
0.0
  72
1
  73
1
  7
STANDARD
  71
0
  11
1.4625
  21
1.6179
  0
TEXT
  8
Element
  10
1.4625
  20
1.3679
  40
0.0583
  41
0.7
  1
Blue
  50
0.0
  72
1
  73
3
  7
STANDARD
  71
0
  11
1.4625
  21
1.3679
  0
TEXT
  8
Element
  10
3.619
  20
1.6554
  40
0.0583
  41
0.7
  1
D4
  50
0.0
  72
1
  73
1
  7
STANDARD
  71
0
  11
3.619
  21
1.6554
  0
TEXT
  8
Element
  10
3.619
  20
1.4054
  40
0.0583
  41
0.7
  1
Blue
  50
0.0
  72
1
  73
3
  7
STANDARD
  71
0
  11
3.619
  21
1.4054
  0
TEXT
  8
Element
  10
0.6375
  20
1.0866
  40
0.0583
  41
0.7
  1
D5
  50
0.0
  72
1
  73
1
  7
STANDARD
  71
0
  11
0.6375
  21
1.0866
  0
TEXT
  8
Element
  10
0.6375
  20
0.9366
  40
0.0583
  41
0.7
  1

  50
0.0
  72
1
  73
3
  7
STANDARD
  71
0
  11
0.6375
  21
0.9366
  0
TEXT
  8
Element
  10
2.8689
  20
1.1054
  40
0.0583
  41
0.7
  1
D6
  50
0.0
  72
1
  73
1
  7
STANDARD
  71
0
  11
2.8689
  21
1.1054
  0
TEXT
  8
Element
  10
2.8689
  20
0.9554
  40
0.0583
  41
0.7
  1

  50
0.0
  72
1
  73
3
  7
STANDARD
  71
0
  11
2.8689
  21
0.9554
  0
TEXT
  8
Element
  10
1.3858
  20
2.6368
  40
0.0583
  41
0.7
  1
K1.1
  50
0.0
  72
1
  73
1
  7
STANDARD
  71
0
  11
1.3858
  21
2.6368
  0
TEXT
  8
Element
  10
1.3858
  20
2.3368
  40
0.0583
  41
0.7
  1

  50
0.0
  72
1
  73
3
  7
STANDARD
  71
0
  11
1.3858
  21
2.3368
  0
TEXT
  8
Element
  10
1.7188
  20
3.6307
  40
0.0583
  41
0.7
  1
K1.2
  50
0.0
  72
1
  73
1
  7
STANDARD
  71
0
  11
1.7188
  21
3.6307
  0
TEXT
  8
Element
  10
1.7188
  20
3.3939
  40
0.0583
  41
0.7
  1

  50
0.0
  72
1
  73
3
  7
STANDARD
  71
0
  11
1.7188
  21
3.3939
  0
TEXT
  8
Element
  10
3.5547
  20
2.6805
  40
0.0583
  41
0.7
  1
K2.1
  50
0.0
  72
1
  73
1
  7
STANDARD
  71
0
  11
3.5547
  21
2.6805
  0
TEXT
  8
Element
  10
3.5547
  20
2.3805
  40
0.0583
  41
0.7
  1

  50
0.0
  72
1
  73
3
  7
STANDARD
  71
0
  11
3.5547
  21
2.3805
  0
TEXT
  8
Element
  10
3.3878
  20
3.6182
  40
0.0583
  41
0.7
  1
K2.2
  50
0.0
  72
1
  73
1
  7
STANDARD
  71
0
  11
3.3878
  21
3.6182
  0
TEXT
  8
Element
  10
3.3878
  20
3.3814
  40
0.0583
  41
0.7
  1

  50
0.0
  72
1
  73
3
  7
STANDARD
  71
0
  11
3.3878
  21
3.3814
  0
TEXT
  8
Element
  10
1.6563
  20
0.0591
  40
0.0583
  41
0.7
  1
GND
  50
90.0
  72
1
  73
1
  7
STANDARD
  71
0
  11
1.6563
  21
0.0591
  0
TEXT
  8
Element
  10
3.819
  20
0.0591
  40
0.0583
  41
0.7
  1
GND
  50
90.0
  72
1
  73
1
  7
STANDARD
  71
0
  11
3.819
  21
0.0591
  0
TEXT
  8
Element
  10
3.2565
  20
4.361
  40
0.0583
  41
0.7
  1
GND
  50
0.0
  72
1
  73
1
  7
STANDARD
  71
0
  11
3.2565
  21
4.361
  0
TEXT
  8
Element
  10
4.3128
  20
3.0493
  40
0.0583
  41
0.7
  1
+12V
  50
90.0
  72
1
  73
1
  7
STANDARD
  71
0
  11
4.3128
  21
3.0493
  0
TEXT
  8
Element
  10
1.1312
  20
2.8896
  40
0.0583
  41
0.7
  1
+12V
  50
0.0
  72
1
  73
1
  7
STANDARD
  71
0
  11
1.1312
  21
2.8896
  0
TEXT
  8
Element
  10
3.3002
  20
2.9084
  40
0.0583
  41
0.7
  1
+12V
  50
0.0
  72
1
  73
1
  7
STANDARD
  71
0
  11
3.3002
  21
2.9084
  0
TEXT
  8
Element
  10
0.0
  20
1.0116
  40
0.0583
  41
0.7
  1
PORT1
  50
90.0
  72
1
  73
1
  7
STANDARD
  71
0
  11
0.0
  21
1.0116
  0
TEXT
  8
Element
  10
2.2752
  20
1.0304
  40
0.0583
  41
0.7
  1
PORT1
  50
90.0
  72
1
  73
1
  7
STANDARD
  71
0
  11
2.2752
  21
1.0304
  0
TEXT
  8
Element
  10
1.0722
  20
1.7742
  40
0.0583
  41
0.7
  1
R2
  50
90.0
  72
1
  73
1
  7
STANDARD
  71
0
  11
1.0722
  21
1.7742
  0
TEXT
  8
Element
  10
1.1903
  20
1.7742
  40
0.0583
  41
0.7
  1
1K
  50
90.0
  72
1
  73
3
  7
STANDARD
  71
0
  11
1.1903
  21
1.7742
  0
TEXT
  8
Element
  10
3.2287
  20
1.8118
  40
0.0583
  41
0.7
  1
R3
  50
90.0
  72
1
  73
1
  7
STANDARD
  71
0
  11
3.2287
  21
1.8118
  0
TEXT
  8
Element
  10
3.3468
  20
1.8118
  40
0.0583
  41
0.7
  1
1K 
  50
90.0
  72
1
  73
3
  7
STANDARD
  71
0
  11
3.3468
  21
1.8118
  0
TEXT
  8
Element
  10
0.9659
  20
0.7116
  40
0.0583
  41
0.7
  1
R4
  50
90.0
  72
1
  73
1
  7
STANDARD
  71
0
  11
0.9659
  21
0.7116
  0
TEXT
  8
Element
  10
1.084
  20
0.7116
  40
0.0583
  41
0.7
  1
1K
  50
90.0
  72
1
  73
3
  7
STANDARD
  71
0
  11
1.084
  21
0.7116
  0
TEXT
  8
Element
  10
3.1787
  20
0.7241
  40
0.0583
  41
0.7
  1
R5
  50
90.0
  72
1
  73
1
  7
STANDARD
  71
0
  11
3.1787
  21
0.7241
  0
TEXT
  8
Element
  10
3.2968
  20
0.7241
  40
0.0583
  41
0.7
  1
1K
  50
90.0
  72
1
  73
3
  7
STANDARD
  71
0
  11
3.2968
  21
0.7241
  0
TEXT
  8
Element
  10
1.375
  20
1.1616
  40
0.0583
  41
0.7
  1
T1
  50
0.0
  72
1
  73
1
  7
STANDARD
  71
0
  11
1.375
  21
1.1616
  0
TEXT
  8
Element
  10
1.375
  20
0.8616
  40
0.0583
  41
0.7
  1

  50
0.0
  72
1
  73
3
  7
STANDARD
  71
0
  11
1.375
  21
0.8616
  0
TEXT
  8
Element
  10
3.5502
  20
1.1804
  40
0.0583
  41
0.7
  1
T2
  50
0.0
  72
1
  73
1
  7
STANDARD
  71
0
  11
3.5502
  21
1.1804
  0
TEXT
  8
Element
  10
3.5502
  20
0.8804
  40
0.0583
  41
0.7
  1

  50
0.0
  72
1
  73
3
  7
STANDARD
  71
0
  11
3.5502
  21
0.8804
  0
TEXT
  8
Element
  10
2.4563
  20
4.337
  40
0.0583
  41
0.7
  1
U4
  50
0.0
  72
1
  73
1
  7
STANDARD
  71
0
  11
2.4563
  21
4.337
  0
TEXT
  8
Element
  10
2.4563
  20
3.937
  40
0.0583
  41
0.7
  1

  50
0.0
  72
1
  73
3
  7
STANDARD
  71
0
  11
2.4563
  21
3.937
  0
POLYLINE
  8
Net
  6
CONTINUOUS
  66
1
  70
0
  40
0.0098
  41
0.0098
  0
VERTEX
  8
Net
  10
1.525
  20
0.9116
  42
0
  0
VERTEX
  8
Net
  10
1.7313
  20
0.9116
  42
0
  0
SEQEND
  0
POLYLINE
  8
Net
  6
CONTINUOUS
  66
1
  70
0
  40
0.0049
  41
0.0049
  0
VERTEX
  8
Net
  10
1.5225
  20
0.9116
  42
1
  0
VERTEX
  8
Net
  10
1.5275
  20
0.9116
  42
1
  0
VERTEX
  8
Net
  10
1.5225
  20
0.9116
  42
1
  0
SEQEND
  0
POLYLINE
  8
Net
  6
CONTINUOUS
  66
1
  70
0
  40
0.0049
  41
0.0049
  0
VERTEX
  8
Net
  10
1.7288
  20
0.9116
  42
1
  0
VERTEX
  8
Net
  10
1.7338
  20
0.9116
  42
1
  0
VERTEX
  8
Net
  10
1.7288
  20
0.9116
  42
1
  0
SEQEND
  0
POLYLINE
  8
Net
  6
CONTINUOUS
  66
1
  70
0
  40
0.0098
  41
0.0098
  0
VERTEX
  8
Net
  10
1.7313
  20
0.9116
  42
0
  0
VERTEX
  8
Net
  10
1.7313
  20
0.2491
  42
0
  0
SEQEND
  0
POLYLINE
  8
Net
  6
CONTINUOUS
  66
1
  70
0
  40
0.0049
  41
0.0049
  0
VERTEX
  8
Net
  10
1.7288
  20
0.9116
  42
1
  0
VERTEX
  8
Net
  10
1.7338
  20
0.9116
  42
1
  0
VERTEX
  8
Net
  10
1.7288
  20
0.9116
  42
1
  0
SEQEND
  0
POLYLINE
  8
Net
  6
CONTINUOUS
  66
1
  70
0
  40
0.0049
  41
0.0049
  0
VERTEX
  8
Net
  10
1.7288
  20
0.2491
  42
1
  0
VERTEX
  8
Net
  10
1.7338
  20
0.2491
  42
1
  0
VERTEX
  8
Net
  10
1.7288
  20
0.2491
  42
1
  0
SEQEND
  0
POLYLINE
  8
Net
  6
CONTINUOUS
  66
1
  70
0
  40
0.0098
  41
0.0098
  0
VERTEX
  8
Net
  10
3.7002
  20
0.9304
  42
0
  0
VERTEX
  8
Net
  10
3.894
  20
0.9304
  42
0
  0
SEQEND
  0
POLYLINE
  8
Net
  6
CONTINUOUS
  66
1
  70
0
  40
0.0049
  41
0.0049
  0
VERTEX
  8
Net
  10
3.6978
  20
0.9304
  42
1
  0
VERTEX
  8
Net
  10
3.7027
  20
0.9304
  42
1
  0
VERTEX
  8
Net
  10
3.6978
  20
0.9304
  42
1
  0
SEQEND
  0
POLYLINE
  8
Net
  6
CONTINUOUS
  66
1
  70
0
  40
0.0049
  41
0.0049
  0
VERTEX
  8
Net
  10
3.8916
  20
0.9304
  42
1
  0
VERTEX
  8
Net
  10
3.8965
  20
0.9304
  42
1
  0
VERTEX
  8
Net
  10
3.8916
  20
0.9304
  42
1
  0
SEQEND
  0
POLYLINE
  8
Net
  6
CONTINUOUS
  66
1
  70
0
  40
0.0098
  41
0.0098
  0
VERTEX
  8
Net
  10
3.894
  20
0.9304
  42
0
  0
VERTEX
  8
Net
  10
3.894
  20
0.2491
  42
0
  0
SEQEND
  0
POLYLINE
  8
Net
  6
CONTINUOUS
  66
1
  70
0
  40
0.0049
  41
0.0049
  0
VERTEX
  8
Net
  10
3.8916
  20
0.9304
  42
1
  0
VERTEX
  8
Net
  10
3.8965
  20
0.9304
  42
1
  0
VERTEX
  8
Net
  10
3.8916
  20
0.9304
  42
1
  0
SEQEND
  0
POLYLINE
  8
Net
  6
CONTINUOUS
  66
1
  70
0
  40
0.0049
  41
0.0049
  0
VERTEX
  8
Net
  10
3.8916
  20
0.2491
  42
1
  0
VERTEX
  8
Net
  10
3.8965
  20
0.2491
  42
1
  0
VERTEX
  8
Net
  10
3.8916
  20
0.2491
  42
1
  0
SEQEND
  0
POLYLINE
  8
Net
  6
CONTINUOUS
  66
1
  70
0
  40
0.0098
  41
0.0098
  0
VERTEX
  8
Net
  10
3.8842
  20
0.3616
  42
0
  0
VERTEX
  8
Net
  10
3.8847
  20
0.3585
  42
0
  0
VERTEX
  8
Net
  10
3.8861
  20
0.3558
  42
0
  0
VERTEX
  8
Net
  10
3.8882
  20
0.3536
  42
0
  0
VERTEX
  8
Net
  10
3.891
  20
0.3522
  42
0
  0
VERTEX
  8
Net
  10
3.894
  20
0.3517
  42
0
  0
VERTEX
  8
Net
  10
3.8971
  20
0.3522
  42
0
  0
VERTEX
  8
Net
  10
3.8998
  20
0.3536
  42
0
  0
VERTEX
  8
Net
  10
3.902
  20
0.3558
  42
0
  0
VERTEX
  8
Net
  10
3.9034
  20
0.3585
  42
0
  0
VERTEX
  8
Net
  10
3.9039
  20
0.3616
  42
0
  0
VERTEX
  8
Net
  10
3.9034
  20
0.3646
  42
0
  0
VERTEX
  8
Net
  10
3.902
  20
0.3674
  42
0
  0
VERTEX
  8
Net
  10
3.8998
  20
0.3695
  42
0
  0
VERTEX
  8
Net
  10
3.8971
  20
0.3709
  42
0
  0
VERTEX
  8
Net
  10
3.894
  20
0.3714
  42
0
  0
VERTEX
  8
Net
  10
3.891
  20
0.3709
  42
0
  0
VERTEX
  8
Net
  10
3.8882
  20
0.3695
  42
0
  0
VERTEX
  8
Net
  10
3.8861
  20
0.3674
  42
0
  0
VERTEX
  8
Net
  10
3.8847
  20
0.3646
  42
0
  0
VERTEX
  8
Net
  10
3.8842
  20
0.3616
  42
0
  0
SEQEND
  0
POLYLINE
  8
Net
  6
CONTINUOUS
  66
1
  70
0
  40
0.0049
  41
0.0049
  0
VERTEX
  8
Net
  10
3.8817
  20
0.3616
  42
1
  0
VERTEX
  8
Net
  10
3.8866
  20
0.3616
  42
1
  0
VERTEX
  8
Net
  10
3.8817
  20
0.3616
  42
1
  0
SEQEND
  0
POLYLINE
  8
Net
  6
CONTINUOUS
  66
1
  70
0
  40
0.0098
  41
0.0098
  0
VERTEX
  8
Net
  10
3.2377
  20
0.4241
  42
0
  0
VERTEX
  8
Net
  10
3.2377
  20
0.3616
  42
0
  0
SEQEND
  0
POLYLINE
  8
Net
  6
CONTINUOUS
  66
1
  70
0
  40
0.0049
  41
0.0049
  0
VERTEX
  8
Net
  10
3.2352
  20
0.4241
  42
1
  0
VERTEX
  8
Net
  10
3.2402
  20
0.4241
  42
1
  0
VERTEX
  8
Net
  10
3.2352
  20
0.4241
  42
1
  0
SEQEND
  0
POLYLINE
  8
Net
  6
CONTINUOUS
  66
1
  70
0
  40
0.0049
  41
0.0049
  0
VERTEX
  8
Net
  10
3.2352
  20
0.3616
  42
1
  0
VERTEX
  8
Net
  10
3.2402
  20
0.3616
  42
1
  0
VERTEX
  8
Net
  10
3.2352
  20
0.3616
  42
1
  0
SEQEND
  0
POLYLINE
  8
Net
  6
CONTINUOUS
  66
1
  70
0
  40
0.0098
  41
0.0098
  0
VERTEX
  8
Net
  10
3.2377
  20
0.3616
  42
0
  0
VERTEX
  8
Net
  10
3.894
  20
0.3616
  42
0
  0
SEQEND
  0
POLYLINE
  8
Net
  6
CONTINUOUS
  66
1
  70
0
  40
0.0049
  41
0.0049
  0
VERTEX
  8
Net
  10
3.2352
  20
0.3616
  42
1
  0
VERTEX
  8
Net
  10
3.2402
  20
0.3616
  42
1
  0
VERTEX
  8
Net
  10
3.2352
  20
0.3616
  42
1
  0
SEQEND
  0
POLYLINE
  8
Net
  6
CONTINUOUS
  66
1
  70
0
  40
0.0049
  41
0.0049
  0
VERTEX
  8
Net
  10
3.8916
  20
0.3616
  42
1
  0
VERTEX
  8
Net
  10
3.8965
  20
0.3616
  42
1
  0
VERTEX
  8
Net
  10
3.8916
  20
0.3616
  42
1
  0
SEQEND
  0
POLYLINE
  8
Net
  6
CONTINUOUS
  66
1
  70
0
  40
0.0098
  41
0.0098
  0
VERTEX
  8
Net
  10
1.7215
  20
0.3428
  42
0
  0
VERTEX
  8
Net
  10
1.7219
  20
0.3398
  42
0
  0
VERTEX
  8
Net
  10
1.7233
  20
0.337
  42
0
  0
VERTEX
  8
Net
  10
1.7255
  20
0.3349
  42
0
  0
VERTEX
  8
Net
  10
1.7283
  20
0.3335
  42
0
  0
VERTEX
  8
Net
  10
1.7313
  20
0.333
  42
0
  0
VERTEX
  8
Net
  10
1.7343
  20
0.3335
  42
0
  0
VERTEX
  8
Net
  10
1.7371
  20
0.3349
  42
0
  0
VERTEX
  8
Net
  10
1.7393
  20
0.337
  42
0
  0
VERTEX
  8
Net
  10
1.7407
  20
0.3398
  42
0
  0
VERTEX
  8
Net
  10
1.7411
  20
0.3428
  42
0
  0
VERTEX
  8
Net
  10
1.7407
  20
0.3459
  42
0
  0
VERTEX
  8
Net
  10
1.7393
  20
0.3486
  42
0
  0
VERTEX
  8
Net
  10
1.7371
  20
0.3508
  42
0
  0
VERTEX
  8
Net
  10
1.7343
  20
0.3522
  42
0
  0
VERTEX
  8
Net
  10
1.7313
  20
0.3527
  42
0
  0
VERTEX
  8
Net
  10
1.7283
  20
0.3522
  42
0
  0
VERTEX
  8
Net
  10
1.7255
  20
0.3508
  42
0
  0
VERTEX
  8
Net
  10
1.7233
  20
0.3486
  42
0
  0
VERTEX
  8
Net
  10
1.7219
  20
0.3459
  42
0
  0
VERTEX
  8
Net
  10
1.7215
  20
0.3428
  42
0
  0
SEQEND
  0
POLYLINE
  8
Net
  6
CONTINUOUS
  66
1
  70
0
  40
0.0049
  41
0.0049
  0
VERTEX
  8
Net
  10
1.719
  20
0.3428
  42
1
  0
VERTEX
  8
Net
  10
1.7239
  20
0.3428
  42
1
  0
VERTEX
  8
Net
  10
1.719
  20
0.3428
  42
1
  0
SEQEND
  0
POLYLINE
  8
Net
  6
CONTINUOUS
  66
1
  70
0
  40
0.0098
  41
0.0098
  0
VERTEX
  8
Net
  10
1.025
  20
0.4116
  42
0
  0
VERTEX
  8
Net
  10
1.025
  20
0.3428
  42
0
  0
SEQEND
  0
POLYLINE
  8
Net
  6
CONTINUOUS
  66
1
  70
0
  40
0.0049
  41
0.0049
  0
VERTEX
  8
Net
  10
1.0225
  20
0.4116
  42
1
  0
VERTEX
  8
Net
  10
1.0274
  20
0.4116
  42
1
  0
VERTEX
  8
Net
  10
1.0225
  20
0.4116
  42
1
  0
SEQEND
  0
POLYLINE
  8
Net
  6
CONTINUOUS
  66
1
  70
0
  40
0.0049
  41
0.0049
  0
VERTEX
  8
Net
  10
1.0225
  20
0.3428
  42
1
  0
VERTEX
  8
Net
  10
1.0274
  20
0.3428
  42
1
  0
VERTEX
  8
Net
  10
1.0225
  20
0.3428
  42
1
  0
SEQEND
  0
POLYLINE
  8
Net
  6
CONTINUOUS
  66
1
  70
0
  40
0.0098
  41
0.0098
  0
VERTEX
  8
Net
  10
1.025
  20
0.3428
  42
0
  0
VERTEX
  8
Net
  10
1.7313
  20
0.3428
  42
0
  0
SEQEND
  0
POLYLINE
  8
Net
  6
CONTINUOUS
  66
1
  70
0
  40
0.0049
  41
0.0049
  0
VERTEX
  8
Net
  10
1.0225
  20
0.3428
  42
1
  0
VERTEX
  8
Net
  10
1.0274
  20
0.3428
  42
1
  0
VERTEX
  8
Net
  10
1.0225
  20
0.3428
  42
1
  0
SEQEND
  0
POLYLINE
  8
Net
  6
CONTINUOUS
  66
1
  70
0
  40
0.0049
  41
0.0049
  0
VERTEX
  8
Net
  10
1.7288
  20
0.3428
  42
1
  0
VERTEX
  8
Net
  10
1.7338
  20
0.3428
  42
1
  0
VERTEX
  8
Net
  10
1.7288
  20
0.3428
  42
1
  0
SEQEND
  0
POLYLINE
  8
Net
  6
CONTINUOUS
  66
1
  70
0
  40
0.0098
  41
0.0098
  0
VERTEX
  8
Net
  10
2.8063
  20
4.037
  42
0
  0
VERTEX
  8
Net
  10
2.9377
  20
4.037
  42
0
  0
SEQEND
  0
POLYLINE
  8
Net
  6
CONTINUOUS
  66
1
  70
0
  40
0.0049
  41
0.0049
  0
VERTEX
  8
Net
  10
2.8039
  20
4.037
  42
1
  0
VERTEX
  8
Net
  10
2.8088
  20
4.037
  42
1
  0
VERTEX
  8
Net
  10
2.8039
  20
4.037
  42
1
  0
SEQEND
  0
POLYLINE
  8
Net
  6
CONTINUOUS
  66
1
  70
0
  40
0.0049
  41
0.0049
  0
VERTEX
  8
Net
  10
2.9352
  20
4.037
  42
1
  0
VERTEX
  8
Net
  10
2.9401
  20
4.037
  42
1
  0
VERTEX
  8
Net
  10
2.9352
  20
4.037
  42
1
  0
SEQEND
  0
POLYLINE
  8
Net
  6
CONTINUOUS
  66
1
  70
0
  40
0.0098
  41
0.0098
  0
VERTEX
  8
Net
  10
2.9377
  20
4.037
  42
0
  0
VERTEX
  8
Net
  10
2.9377
  20
4.137
  42
0
  0
SEQEND
  0
POLYLINE
  8
Net
  6
CONTINUOUS
  66
1
  70
0
  40
0.0049
  41
0.0049
  0
VERTEX
  8
Net
  10
2.9352
  20
4.037
  42
1
  0
VERTEX
  8
Net
  10
2.9401
  20
4.037
  42
1
  0
VERTEX
  8
Net
  10
2.9352
  20
4.037
  42
1
  0
SEQEND
  0
POLYLINE
  8
Net
  6
CONTINUOUS
  66
1
  70
0
  40
0.0049
  41
0.0049
  0
VERTEX
  8
Net
  10
2.9352
  20
4.137
  42
1
  0
VERTEX
  8
Net
  10
2.9401
  20
4.137
  42
1
  0
VERTEX
  8
Net
  10
2.9352
  20
4.137
  42
1
  0
SEQEND
  0
POLYLINE
  8
Net
  6
CONTINUOUS
  66
1
  70
0
  40
0.0098
  41
0.0098
  0
VERTEX
  8
Net
  10
2.9377
  20
4.137
  42
0
  0
VERTEX
  8
Net
  10
2.8063
  20
4.137
  42
0
  0
SEQEND
  0
POLYLINE
  8
Net
  6
CONTINUOUS
  66
1
  70
0
  40
0.0049
  41
0.0049
  0
VERTEX
  8
Net
  10
2.9352
  20
4.137
  42
1
  0
VERTEX
  8
Net
  10
2.9401
  20
4.137
  42
1
  0
VERTEX
  8
Net
  10
2.9352
  20
4.137
  42
1
  0
SEQEND
  0
POLYLINE
  8
Net
  6
CONTINUOUS
  66
1
  70
0
  40
0.0049
  41
0.0049
  0
VERTEX
  8
Net
  10
2.8039
  20
4.137
  42
1
  0
VERTEX
  8
Net
  10
2.8088
  20
4.137
  42
1
  0
VERTEX
  8
Net
  10
2.8039
  20
4.137
  42
1
  0
SEQEND
  0
POLYLINE
  8
Net
  6
CONTINUOUS
  66
1
  70
0
  40
0.0098
  41
0.0098
  0
VERTEX
  8
Net
  10
2.9278
  20
4.137
  42
0
  0
VERTEX
  8
Net
  10
2.9283
  20
4.1339
  42
0
  0
VERTEX
  8
Net
  10
2.9297
  20
4.1312
  42
0
  0
VERTEX
  8
Net
  10
2.9319
  20
4.129
  42
0
  0
VERTEX
  8
Net
  10
2.9346
  20
4.1276
  42
0
  0
VERTEX
  8
Net
  10
2.9377
  20
4.1271
  42
0
  0
VERTEX
  8
Net
  10
2.9407
  20
4.1276
  42
0
  0
VERTEX
  8
Net
  10
2.9435
  20
4.129
  42
0
  0
VERTEX
  8
Net
  10
2.9456
  20
4.1312
  42
0
  0
VERTEX
  8
Net
  10
2.947
  20
4.1339
  42
0
  0
VERTEX
  8
Net
  10
2.9475
  20
4.137
  42
0
  0
VERTEX
  8
Net
  10
2.947
  20
4.14
  42
0
  0
VERTEX
  8
Net
  10
2.9456
  20
4.1428
  42
0
  0
VERTEX
  8
Net
  10
2.9435
  20
4.1449
  42
0
  0
VERTEX
  8
Net
  10
2.9407
  20
4.1463
  42
0
  0
VERTEX
  8
Net
  10
2.9377
  20
4.1468
  42
0
  0
VERTEX
  8
Net
  10
2.9346
  20
4.1463
  42
0
  0
VERTEX
  8
Net
  10
2.9319
  20
4.1449
  42
0
  0
VERTEX
  8
Net
  10
2.9297
  20
4.1428
  42
0
  0
VERTEX
  8
Net
  10
2.9283
  20
4.14
  42
0
  0
VERTEX
  8
Net
  10
2.9278
  20
4.137
  42
0
  0
SEQEND
  0
POLYLINE
  8
Net
  6
CONTINUOUS
  66
1
  70
0
  40
0.0049
  41
0.0049
  0
VERTEX
  8
Net
  10
2.9254
  20
4.137
  42
1
  0
VERTEX
  8
Net
  10
2.9303
  20
4.137
  42
1
  0
VERTEX
  8
Net
  10
2.9254
  20
4.137
  42
1
  0
SEQEND
  0
POLYLINE
  8
Net
  6
CONTINUOUS
  66
1
  70
0
  40
0.0098
  41
0.0098
  0
VERTEX
  8
Net
  10
2.8063
  20
4.237
  42
0
  0
VERTEX
  8
Net
  10
2.9377
  20
4.237
  42
0
  0
SEQEND
  0
POLYLINE
  8
Net
  6
CONTINUOUS
  66
1
  70
0
  40
0.0049
  41
0.0049
  0
VERTEX
  8
Net
  10
2.8039
  20
4.237
  42
1
  0
VERTEX
  8
Net
  10
2.8088
  20
4.237
  42
1
  0
VERTEX
  8
Net
  10
2.8039
  20
4.237
  42
1
  0
SEQEND
  0
POLYLINE
  8
Net
  6
CONTINUOUS
  66
1
  70
0
  40
0.0049
  41
0.0049
  0
VERTEX
  8
Net
  10
2.9352
  20
4.237
  42
1
  0
VERTEX
  8
Net
  10
2.9401
  20
4.237
  42
1
  0
VERTEX
  8
Net
  10
2.9352
  20
4.237
  42
1
  0
SEQEND
  0
POLYLINE
  8
Net
  6
CONTINUOUS
  66
1
  70
0
  40
0.0098
  41
0.0098
  0
VERTEX
  8
Net
  10
2.9377
  20
4.237
  42
0
  0
VERTEX
  8
Net
  10
2.9377
  20
4.137
  42
0
  0
SEQEND
  0
POLYLINE
  8
Net
  6
CONTINUOUS
  66
1
  70
0
  40
0.0049
  41
0.0049
  0
VERTEX
  8
Net
  10
2.9352
  20
4.237
  42
1
  0
VERTEX
  8
Net
  10
2.9401
  20
4.237
  42
1
  0
VERTEX
  8
Net
  10
2.9352
  20
4.237
  42
1
  0
SEQEND
  0
POLYLINE
  8
Net
  6
CONTINUOUS
  66
1
  70
0
  40
0.0049
  41
0.0049
  0
VERTEX
  8
Net
  10
2.9352
  20
4.137
  42
1
  0
VERTEX
  8
Net
  10
2.9401
  20
4.137
  42
1
  0
VERTEX
  8
Net
  10
2.9352
  20
4.137
  42
1
  0
SEQEND
  0
POLYLINE
  8
Net
  6
CONTINUOUS
  66
1
  70
0
  40
0.0098
  41
0.0098
  0
VERTEX
  8
Net
  10
2.9278
  20
4.037
  42
0
  0
VERTEX
  8
Net
  10
2.9283
  20
4.0339
  42
0
  0
VERTEX
  8
Net
  10
2.9297
  20
4.0312
  42
0
  0
VERTEX
  8
Net
  10
2.9319
  20
4.029
  42
0
  0
VERTEX
  8
Net
  10
2.9346
  20
4.0276
  42
0
  0
VERTEX
  8
Net
  10
2.9377
  20
4.0271
  42
0
  0
VERTEX
  8
Net
  10
2.9407
  20
4.0276
  42
0
  0
VERTEX
  8
Net
  10
2.9435
  20
4.029
  42
0
  0
VERTEX
  8
Net
  10
2.9456
  20
4.0312
  42
0
  0
VERTEX
  8
Net
  10
2.947
  20
4.0339
  42
0
  0
VERTEX
  8
Net
  10
2.9475
  20
4.037
  42
0
  0
VERTEX
  8
Net
  10
2.947
  20
4.04
  42
0
  0
VERTEX
  8
Net
  10
2.9456
  20
4.0428
  42
0
  0
VERTEX
  8
Net
  10
2.9435
  20
4.0449
  42
0
  0
VERTEX
  8
Net
  10
2.9407
  20
4.0463
  42
0
  0
VERTEX
  8
Net
  10
2.9377
  20
4.0468
  42
0
  0
VERTEX
  8
Net
  10
2.9346
  20
4.0463
  42
0
  0
VERTEX
  8
Net
  10
2.9319
  20
4.0449
  42
0
  0
VERTEX
  8
Net
  10
2.9297
  20
4.0428
  42
0
  0
VERTEX
  8
Net
  10
2.9283
  20
4.04
  42
0
  0
VERTEX
  8
Net
  10
2.9278
  20
4.037
  42
0
  0
SEQEND
  0
POLYLINE
  8
Net
  6
CONTINUOUS
  66
1
  70
0
  40
0.0049
  41
0.0049
  0
VERTEX
  8
Net
  10
2.9254
  20
4.037
  42
1
  0
VERTEX
  8
Net
  10
2.9303
  20
4.037
  42
1
  0
VERTEX
  8
Net
  10
2.9254
  20
4.037
  42
1
  0
SEQEND
  0
POLYLINE
  8
Net
  6
CONTINUOUS
  66
1
  70
0
  40
0.0098
  41
0.0098
  0
VERTEX
  8
Net
  10
3.2565
  20
4.112
  42
0
  0
VERTEX
  8
Net
  10
3.2565
  20
4.037
  42
0
  0
SEQEND
  0
POLYLINE
  8
Net
  6
CONTINUOUS
  66
1
  70
0
  40
0.0049
  41
0.0049
  0
VERTEX
  8
Net
  10
3.254
  20
4.112
  42
1
  0
VERTEX
  8
Net
  10
3.2589
  20
4.112
  42
1
  0
VERTEX
  8
Net
  10
3.254
  20
4.112
  42
1
  0
SEQEND
  0
POLYLINE
  8
Net
  6
CONTINUOUS
  66
1
  70
0
  40
0.0049
  41
0.0049
  0
VERTEX
  8
Net
  10
3.254
  20
4.037
  42
1
  0
VERTEX
  8
Net
  10
3.2589
  20
4.037
  42
1
  0
VERTEX
  8
Net
  10
3.254
  20
4.037
  42
1
  0
SEQEND
  0
POLYLINE
  8
Net
  6
CONTINUOUS
  66
1
  70
0
  40
0.0098
  41
0.0098
  0
VERTEX
  8
Net
  10
3.2565
  20
4.037
  42
0
  0
VERTEX
  8
Net
  10
2.9377
  20
4.037
  42
0
  0
SEQEND
  0
POLYLINE
  8
Net
  6
CONTINUOUS
  66
1
  70
0
  40
0.0049
  41
0.0049
  0
VERTEX
  8
Net
  10
3.254
  20
4.037
  42
1
  0
VERTEX
  8
Net
  10
3.2589
  20
4.037
  42
1
  0
VERTEX
  8
Net
  10
3.254
  20
4.037
  42
1
  0
SEQEND
  0
POLYLINE
  8
Net
  6
CONTINUOUS
  66
1
  70
0
  40
0.0049
  41
0.0049
  0
VERTEX
  8
Net
  10
2.9352
  20
4.037
  42
1
  0
VERTEX
  8
Net
  10
2.9401
  20
4.037
  42
1
  0
VERTEX
  8
Net
  10
2.9352
  20
4.037
  42
1
  0
SEQEND
  0
POLYLINE
  8
Net
  6
CONTINUOUS
  66
1
  70
0
  40
0.0098
  41
0.0098
  0
VERTEX
  8
Net
  10
2.9377
  20
4.037
  42
0
  0
VERTEX
  8
Net
  10
2.9377
  20
4.037
  42
0
  0
SEQEND
  0
POLYLINE
  8
Net
  6
CONTINUOUS
  66
1
  70
0
  40
0.0049
  41
0.0049
  0
VERTEX
  8
Net
  10
2.9352
  20
4.037
  42
1
  0
VERTEX
  8
Net
  10
2.9401
  20
4.037
  42
1
  0
VERTEX
  8
Net
  10
2.9352
  20
4.037
  42
1
  0
SEQEND
  0
POLYLINE
  8
Net
  6
CONTINUOUS
  66
1
  70
0
  40
0.0098
  41
0.0098
  0
VERTEX
  8
Net
  10
1.134
  20
2.4868
  42
0
  0
VERTEX
  8
Net
  10
1.134
  20
2.4868
  42
0
  0
SEQEND
  0
POLYLINE
  8
Net
  6
CONTINUOUS
  66
1
  70
0
  40
0.0049
  41
0.0049
  0
VERTEX
  8
Net
  10
1.1315
  20
2.4868
  42
1
  0
VERTEX
  8
Net
  10
1.1364
  20
2.4868
  42
1
  0
VERTEX
  8
Net
  10
1.1315
  20
2.4868
  42
1
  0
SEQEND
  0
POLYLINE
  8
Net
  6
CONTINUOUS
  66
1
  70
0
  40
0.0098
  41
0.0098
  0
VERTEX
  8
Net
  10
1.1241
  20
2.4868
  42
0
  0
VERTEX
  8
Net
  10
1.1246
  20
2.4837
  42
0
  0
VERTEX
  8
Net
  10
1.126
  20
2.481
  42
0
  0
VERTEX
  8
Net
  10
1.1282
  20
2.4788
  42
0
  0
VERTEX
  8
Net
  10
1.1309
  20
2.4774
  42
0
  0
VERTEX
  8
Net
  10
1.134
  20
2.4769
  42
0
  0
VERTEX
  8
Net
  10
1.137
  20
2.4774
  42
0
  0
VERTEX
  8
Net
  10
1.1398
  20
2.4788
  42
0
  0
VERTEX
  8
Net
  10
1.1419
  20
2.481
  42
0
  0
VERTEX
  8
Net
  10
1.1433
  20
2.4837
  42
0
  0
VERTEX
  8
Net
  10
1.1438
  20
2.4868
  42
0
  0
VERTEX
  8
Net
  10
1.1433
  20
2.4898
  42
0
  0
VERTEX
  8
Net
  10
1.1419
  20
2.4926
  42
0
  0
VERTEX
  8
Net
  10
1.1398
  20
2.4948
  42
0
  0
VERTEX
  8
Net
  10
1.137
  20
2.4962
  42
0
  0
VERTEX
  8
Net
  10
1.134
  20
2.4966
  42
0
  0
VERTEX
  8
Net
  10
1.1309
  20
2.4962
  42
0
  0
VERTEX
  8
Net
  10
1.1282
  20
2.4948
  42
0
  0
VERTEX
  8
Net
  10
1.126
  20
2.4926
  42
0
  0
VERTEX
  8
Net
  10
1.1246
  20
2.4898
  42
0
  0
VERTEX
  8
Net
  10
1.1241
  20
2.4868
  42
0
  0
SEQEND
  0
POLYLINE
  8
Net
  6
CONTINUOUS
  66
1
  70
0
  40
0.0049
  41
0.0049
  0
VERTEX
  8
Net
  10
1.1217
  20
2.4868
  42
1
  0
VERTEX
  8
Net
  10
1.1266
  20
2.4868
  42
1
  0
VERTEX
  8
Net
  10
1.1217
  20
2.4868
  42
1
  0
SEQEND
  0
POLYLINE
  8
Net
  6
CONTINUOUS
  66
1
  70
0
  40
0.0098
  41
0.0098
  0
VERTEX
  8
Net
  10
1.134
  20
2.6806
  42
0
  0
VERTEX
  8
Net
  10
1.134
  20
2.4868
  42
0
  0
SEQEND
  0
POLYLINE
  8
Net
  6
CONTINUOUS
  66
1
  70
0
  40
0.0049
  41
0.0049
  0
VERTEX
  8
Net
  10
1.1315
  20
2.6806
  42
1
  0
VERTEX
  8
Net
  10
1.1364
  20
2.6806
  42
1
  0
VERTEX
  8
Net
  10
1.1315
  20
2.6806
  42
1
  0
SEQEND
  0
POLYLINE
  8
Net
  6
CONTINUOUS
  66
1
  70
0
  40
0.0049
  41
0.0049
  0
VERTEX
  8
Net
  10
1.1315
  20
2.4868
  42
1
  0
VERTEX
  8
Net
  10
1.1364
  20
2.4868
  42
1
  0
VERTEX
  8
Net
  10
1.1315
  20
2.4868
  42
1
  0
SEQEND
  0
POLYLINE
  8
Net
  6
CONTINUOUS
  66
1
  70
0
  40
0.0098
  41
0.0098
  0
VERTEX
  8
Net
  10
3.4003
  20
2.118
  42
0
  0
VERTEX
  8
Net
  10
3.294
  20
2.118
  42
0
  0
SEQEND
  0
POLYLINE
  8
Net
  6
CONTINUOUS
  66
1
  70
0
  40
0.0049
  41
0.0049
  0
VERTEX
  8
Net
  10
3.3978
  20
2.118
  42
1
  0
VERTEX
  8
Net
  10
3.4027
  20
2.118
  42
1
  0
VERTEX
  8
Net
  10
3.3978
  20
2.118
  42
1
  0
SEQEND
  0
POLYLINE
  8
Net
  6
CONTINUOUS
  66
1
  70
0
  40
0.0049
  41
0.0049
  0
VERTEX
  8
Net
  10
3.2915
  20
2.118
  42
1
  0
VERTEX
  8
Net
  10
3.2964
  20
2.118
  42
1
  0
VERTEX
  8
Net
  10
3.2915
  20
2.118
  42
1
  0
SEQEND
  0
POLYLINE
  8
Net
  6
CONTINUOUS
  66
1
  70
0
  40
0.0098
  41
0.0098
  0
VERTEX
  8
Net
  10
3.294
  20
2.118
  42
0
  0
VERTEX
  8
Net
  10
3.294
  20
2.5305
  42
0
  0
SEQEND
  0
POLYLINE
  8
Net
  6
CONTINUOUS
  66
1
  70
0
  40
0.0049
  41
0.0049
  0
VERTEX
  8
Net
  10
3.2915
  20
2.118
  42
1
  0
VERTEX
  8
Net
  10
3.2964
  20
2.118
  42
1
  0
VERTEX
  8
Net
  10
3.2915
  20
2.118
  42
1
  0
SEQEND
  0
POLYLINE
  8
Net
  6
CONTINUOUS
  66
1
  70
0
  40
0.0049
  41
0.0049
  0
VERTEX
  8
Net
  10
3.2915
  20
2.5305
  42
1
  0
VERTEX
  8
Net
  10
3.2964
  20
2.5305
  42
1
  0
VERTEX
  8
Net
  10
3.2915
  20
2.5305
  42
1
  0
SEQEND
  0
POLYLINE
  8
Net
  6
CONTINUOUS
  66
1
  70
0
  40
0.0098
  41
0.0098
  0
VERTEX
  8
Net
  10
3.294
  20
2.5305
  42
0
  0
VERTEX
  8
Net
  10
3.3029
  20
2.5305
  42
0
  0
SEQEND
  0
POLYLINE
  8
Net
  6
CONTINUOUS
  66
1
  70
0
  40
0.0049
  41
0.0049
  0
VERTEX
  8
Net
  10
3.2915
  20
2.5305
  42
1
  0
VERTEX
  8
Net
  10
3.2964
  20
2.5305
  42
1
  0
VERTEX
  8
Net
  10
3.2915
  20
2.5305
  42
1
  0
SEQEND
  0
POLYLINE
  8
Net
  6
CONTINUOUS
  66
1
  70
0
  40
0.0049
  41
0.0049
  0
VERTEX
  8
Net
  10
3.3005
  20
2.5305
  42
1
  0
VERTEX
  8
Net
  10
3.3054
  20
2.5305
  42
1
  0
VERTEX
  8
Net
  10
3.3005
  20
2.5305
  42
1
  0
SEQEND
  0
POLYLINE
  8
Net
  6
CONTINUOUS
  66
1
  70
0
  40
0.0098
  41
0.0098
  0
VERTEX
  8
Net
  10
3.2841
  20
2.1118
  42
0
  0
VERTEX
  8
Net
  10
3.2846
  20
2.1087
  42
0
  0
VERTEX
  8
Net
  10
3.286
  20
2.106
  42
0
  0
VERTEX
  8
Net
  10
3.2882
  20
2.1038
  42
0
  0
VERTEX
  8
Net
  10
3.2909
  20
2.1024
  42
0
  0
VERTEX
  8
Net
  10
3.294
  20
2.1019
  42
0
  0
VERTEX
  8
Net
  10
3.297
  20
2.1024
  42
0
  0
VERTEX
  8
Net
  10
3.2997
  20
2.1038
  42
0
  0
VERTEX
  8
Net
  10
3.3019
  20
2.106
  42
0
  0
VERTEX
  8
Net
  10
3.3033
  20
2.1087
  42
0
  0
VERTEX
  8
Net
  10
3.3038
  20
2.1118
  42
0
  0
VERTEX
  8
Net
  10
3.3033
  20
2.1148
  42
0
  0
VERTEX
  8
Net
  10
3.3019
  20
2.1175
  42
0
  0
VERTEX
  8
Net
  10
3.2997
  20
2.1197
  42
0
  0
VERTEX
  8
Net
  10
3.297
  20
2.1211
  42
0
  0
VERTEX
  8
Net
  10
3.294
  20
2.1216
  42
0
  0
VERTEX
  8
Net
  10
3.2909
  20
2.1211
  42
0
  0
VERTEX
  8
Net
  10
3.2882
  20
2.1197
  42
0
  0
VERTEX
  8
Net
  10
3.286
  20
2.1175
  42
0
  0
VERTEX
  8
Net
  10
3.2846
  20
2.1148
  42
0
  0
VERTEX
  8
Net
  10
3.2841
  20
2.1118
  42
0
  0
SEQEND
  0
POLYLINE
  8
Net
  6
CONTINUOUS
  66
1
  70
0
  40
0.0049
  41
0.0049
  0
VERTEX
  8
Net
  10
3.2817
  20
2.1118
  42
1
  0
VERTEX
  8
Net
  10
3.2866
  20
2.1118
  42
1
  0
VERTEX
  8
Net
  10
3.2817
  20
2.1118
  42
1
  0
SEQEND
  0
POLYLINE
  8
Net
  6
CONTINUOUS
  66
1
  70
0
  40
0.0098
  41
0.0098
  0
VERTEX
  8
Net
  10
3.294
  20
2.1118
  42
0
  0
VERTEX
  8
Net
  10
3.294
  20
2.1118
  42
0
  0
SEQEND
  0
POLYLINE
  8
Net
  6
CONTINUOUS
  66
1
  70
0
  40
0.0049
  41
0.0049
  0
VERTEX
  8
Net
  10
3.2915
  20
2.1118
  42
1
  0
VERTEX
  8
Net
  10
3.2964
  20
2.1118
  42
1
  0
VERTEX
  8
Net
  10
3.2915
  20
2.1118
  42
1
  0
SEQEND
  0
POLYLINE
  8
Net
  6
CONTINUOUS
  66
1
  70
0
  40
0.0098
  41
0.0098
  0
VERTEX
  8
Net
  10
3.294
  20
2.1118
  42
0
  0
VERTEX
  8
Net
  10
3.294
  20
2.1118
  42
0
  0
SEQEND
  0
POLYLINE
  8
Net
  6
CONTINUOUS
  66
1
  70
0
  40
0.0049
  41
0.0049
  0
VERTEX
  8
Net
  10
3.2915
  20
2.1118
  42
1
  0
VERTEX
  8
Net
  10
3.2964
  20
2.1118
  42
1
  0
VERTEX
  8
Net
  10
3.2915
  20
2.1118
  42
1
  0
SEQEND
  0
POLYLINE
  8
Net
  6
CONTINUOUS
  66
1
  70
0
  40
0.0098
  41
0.0098
  0
VERTEX
  8
Net
  10
3.2904
  20
2.5305
  42
0
  0
VERTEX
  8
Net
  10
3.2909
  20
2.5275
  42
0
  0
VERTEX
  8
Net
  10
3.2923
  20
2.5248
  42
0
  0
VERTEX
  8
Net
  10
3.2944
  20
2.5226
  42
0
  0
VERTEX
  8
Net
  10
3.2972
  20
2.5212
  42
0
  0
VERTEX
  8
Net
  10
3.3002
  20
2.5207
  42
0
  0
VERTEX
  8
Net
  10
3.3033
  20
2.5212
  42
0
  0
VERTEX
  8
Net
  10
3.306
  20
2.5226
  42
0
  0
VERTEX
  8
Net
  10
3.3082
  20
2.5248
  42
0
  0
VERTEX
  8
Net
  10
3.3096
  20
2.5275
  42
0
  0
VERTEX
  8
Net
  10
3.3101
  20
2.5305
  42
0
  0
VERTEX
  8
Net
  10
3.3096
  20
2.5336
  42
0
  0
VERTEX
  8
Net
  10
3.3082
  20
2.5363
  42
0
  0
VERTEX
  8
Net
  10
3.306
  20
2.5385
  42
0
  0
VERTEX
  8
Net
  10
3.3033
  20
2.5399
  42
0
  0
VERTEX
  8
Net
  10
3.3002
  20
2.5404
  42
0
  0
VERTEX
  8
Net
  10
3.2972
  20
2.5399
  42
0
  0
VERTEX
  8
Net
  10
3.2944
  20
2.5385
  42
0
  0
VERTEX
  8
Net
  10
3.2923
  20
2.5363
  42
0
  0
VERTEX
  8
Net
  10
3.2909
  20
2.5336
  42
0
  0
VERTEX
  8
Net
  10
3.2904
  20
2.5305
  42
0
  0
SEQEND
  0
POLYLINE
  8
Net
  6
CONTINUOUS
  66
1
  70
0
  40
0.0049
  41
0.0049
  0
VERTEX
  8
Net
  10
3.2879
  20
2.5305
  42
1
  0
VERTEX
  8
Net
  10
3.2928
  20
2.5305
  42
1
  0
VERTEX
  8
Net
  10
3.2879
  20
2.5305
  42
1
  0
SEQEND
  0
POLYLINE
  8
Net
  6
CONTINUOUS
  66
1
  70
0
  40
0.0098
  41
0.0098
  0
VERTEX
  8
Net
  10
3.3002
  20
2.6993
  42
0
  0
VERTEX
  8
Net
  10
3.3002
  20
2.5305
  42
0
  0
SEQEND
  0
POLYLINE
  8
Net
  6
CONTINUOUS
  66
1
  70
0
  40
0.0049
  41
0.0049
  0
VERTEX
  8
Net
  10
3.2978
  20
2.6993
  42
1
  0
VERTEX
  8
Net
  10
3.3027
  20
2.6993
  42
1
  0
VERTEX
  8
Net
  10
3.2978
  20
2.6993
  42
1
  0
SEQEND
  0
POLYLINE
  8
Net
  6
CONTINUOUS
  66
1
  70
0
  40
0.0049
  41
0.0049
  0
VERTEX
  8
Net
  10
3.2978
  20
2.5305
  42
1
  0
VERTEX
  8
Net
  10
3.3027
  20
2.5305
  42
1
  0
VERTEX
  8
Net
  10
3.2978
  20
2.5305
  42
1
  0
SEQEND
  0
POLYLINE
  8
Net
  6
CONTINUOUS
  66
1
  70
0
  40
0.0098
  41
0.0098
  0
VERTEX
  8
Net
  10
1.1312
  20
2.0742
  42
0
  0
VERTEX
  8
Net
  10
1.1312
  20
2.0867
  42
0
  0
SEQEND
  0
POLYLINE
  8
Net
  6
CONTINUOUS
  66
1
  70
0
  40
0.0049
  41
0.0049
  0
VERTEX
  8
Net
  10
1.1288
  20
2.0742
  42
1
  0
VERTEX
  8
Net
  10
1.1337
  20
2.0742
  42
1
  0
VERTEX
  8
Net
  10
1.1288
  20
2.0742
  42
1
  0
SEQEND
  0
POLYLINE
  8
Net
  6
CONTINUOUS
  66
1
  70
0
  40
0.0049
  41
0.0049
  0
VERTEX
  8
Net
  10
1.1288
  20
2.0867
  42
1
  0
VERTEX
  8
Net
  10
1.1337
  20
2.0867
  42
1
  0
VERTEX
  8
Net
  10
1.1288
  20
2.0867
  42
1
  0
SEQEND
  0
POLYLINE
  8
Net
  6
CONTINUOUS
  66
1
  70
0
  40
0.0098
  41
0.0098
  0
VERTEX
  8
Net
  10
1.1312
  20
2.0867
  42
0
  0
VERTEX
  8
Net
  10
1.2125
  20
2.0867
  42
0
  0
SEQEND
  0
POLYLINE
  8
Net
  6
CONTINUOUS
  66
1
  70
0
  40
0.0049
  41
0.0049
  0
VERTEX
  8
Net
  10
1.1288
  20
2.0867
  42
1
  0
VERTEX
  8
Net
  10
1.1337
  20
2.0867
  42
1
  0
VERTEX
  8
Net
  10
1.1288
  20
2.0867
  42
1
  0
SEQEND
  0
POLYLINE
  8
Net
  6
CONTINUOUS
  66
1
  70
0
  40
0.0049
  41
0.0049
  0
VERTEX
  8
Net
  10
1.2101
  20
2.0867
  42
1
  0
VERTEX
  8
Net
  10
1.215
  20
2.0867
  42
1
  0
VERTEX
  8
Net
  10
1.2101
  20
2.0867
  42
1
  0
SEQEND
  0
POLYLINE
  8
Net
  6
CONTINUOUS
  66
1
  70
0
  40
0.0098
  41
0.0098
  0
VERTEX
  8
Net
  10
1.1241
  20
2.0867
  42
0
  0
VERTEX
  8
Net
  10
1.1246
  20
2.0837
  42
0
  0
VERTEX
  8
Net
  10
1.126
  20
2.081
  42
0
  0
VERTEX
  8
Net
  10
1.1282
  20
2.0788
  42
0
  0
VERTEX
  8
Net
  10
1.1309
  20
2.0774
  42
0
  0
VERTEX
  8
Net
  10
1.134
  20
2.0769
  42
0
  0
VERTEX
  8
Net
  10
1.137
  20
2.0774
  42
0
  0
VERTEX
  8
Net
  10
1.1398
  20
2.0788
  42
0
  0
VERTEX
  8
Net
  10
1.1419
  20
2.081
  42
0
  0
VERTEX
  8
Net
  10
1.1433
  20
2.0837
  42
0
  0
VERTEX
  8
Net
  10
1.1438
  20
2.0867
  42
0
  0
VERTEX
  8
Net
  10
1.1433
  20
2.0898
  42
0
  0
VERTEX
  8
Net
  10
1.1419
  20
2.0925
  42
0
  0
VERTEX
  8
Net
  10
1.1398
  20
2.0947
  42
0
  0
VERTEX
  8
Net
  10
1.137
  20
2.0961
  42
0
  0
VERTEX
  8
Net
  10
1.134
  20
2.0966
  42
0
  0
VERTEX
  8
Net
  10
1.1309
  20
2.0961
  42
0
  0
VERTEX
  8
Net
  10
1.1282
  20
2.0947
  42
0
  0
VERTEX
  8
Net
  10
1.126
  20
2.0925
  42
0
  0
VERTEX
  8
Net
  10
1.1246
  20
2.0898
  42
0
  0
VERTEX
  8
Net
  10
1.1241
  20
2.0867
  42
0
  0
SEQEND
  0
POLYLINE
  8
Net
  6
CONTINUOUS
  66
1
  70
0
  40
0.0049
  41
0.0049
  0
VERTEX
  8
Net
  10
1.1217
  20
2.0867
  42
1
  0
VERTEX
  8
Net
  10
1.1266
  20
2.0867
  42
1
  0
VERTEX
  8
Net
  10
1.1217
  20
2.0867
  42
1
  0
SEQEND
  0
POLYLINE
  8
Net
  6
CONTINUOUS
  66
1
  70
0
  40
0.0098
  41
0.0098
  0
VERTEX
  8
Net
  10
1.1241
  20
2.4868
  42
0
  0
VERTEX
  8
Net
  10
1.1246
  20
2.4837
  42
0
  0
VERTEX
  8
Net
  10
1.126
  20
2.481
  42
0
  0
VERTEX
  8
Net
  10
1.1282
  20
2.4788
  42
0
  0
VERTEX
  8
Net
  10
1.1309
  20
2.4774
  42
0
  0
VERTEX
  8
Net
  10
1.134
  20
2.4769
  42
0
  0
VERTEX
  8
Net
  10
1.137
  20
2.4774
  42
0
  0
VERTEX
  8
Net
  10
1.1398
  20
2.4788
  42
0
  0
VERTEX
  8
Net
  10
1.1419
  20
2.481
  42
0
  0
VERTEX
  8
Net
  10
1.1433
  20
2.4837
  42
0
  0
VERTEX
  8
Net
  10
1.1438
  20
2.4868
  42
0
  0
VERTEX
  8
Net
  10
1.1433
  20
2.4898
  42
0
  0
VERTEX
  8
Net
  10
1.1419
  20
2.4926
  42
0
  0
VERTEX
  8
Net
  10
1.1398
  20
2.4948
  42
0
  0
VERTEX
  8
Net
  10
1.137
  20
2.4962
  42
0
  0
VERTEX
  8
Net
  10
1.134
  20
2.4966
  42
0
  0
VERTEX
  8
Net
  10
1.1309
  20
2.4962
  42
0
  0
VERTEX
  8
Net
  10
1.1282
  20
2.4948
  42
0
  0
VERTEX
  8
Net
  10
1.126
  20
2.4926
  42
0
  0
VERTEX
  8
Net
  10
1.1246
  20
2.4898
  42
0
  0
VERTEX
  8
Net
  10
1.1241
  20
2.4868
  42
0
  0
SEQEND
  0
POLYLINE
  8
Net
  6
CONTINUOUS
  66
1
  70
0
  40
0.0049
  41
0.0049
  0
VERTEX
  8
Net
  10
1.1217
  20
2.4868
  42
1
  0
VERTEX
  8
Net
  10
1.1266
  20
2.4868
  42
1
  0
VERTEX
  8
Net
  10
1.1217
  20
2.4868
  42
1
  0
SEQEND
  0
POLYLINE
  8
Net
  6
CONTINUOUS
  66
1
  70
0
  40
0.0098
  41
0.0098
  0
VERTEX
  8
Net
  10
1.134
  20
2.0867
  42
0
  0
VERTEX
  8
Net
  10
1.134
  20
2.4868
  42
0
  0
SEQEND
  0
POLYLINE
  8
Net
  6
CONTINUOUS
  66
1
  70
0
  40
0.0049
  41
0.0049
  0
VERTEX
  8
Net
  10
1.1315
  20
2.0867
  42
1
  0
VERTEX
  8
Net
  10
1.1364
  20
2.0867
  42
1
  0
VERTEX
  8
Net
  10
1.1315
  20
2.0867
  42
1
  0
SEQEND
  0
POLYLINE
  8
Net
  6
CONTINUOUS
  66
1
  70
0
  40
0.0049
  41
0.0049
  0
VERTEX
  8
Net
  10
1.1315
  20
2.4868
  42
1
  0
VERTEX
  8
Net
  10
1.1364
  20
2.4868
  42
1
  0
VERTEX
  8
Net
  10
1.1315
  20
2.4868
  42
1
  0
SEQEND
  0
POLYLINE
  8
Net
  6
CONTINUOUS
  66
1
  70
0
  40
0.0098
  41
0.0098
  0
VERTEX
  8
Net
  10
1.7188
  20
3.2557
  42
0
  0
VERTEX
  8
Net
  10
1.7188
  20
3.2432
  42
0
  0
SEQEND
  0
POLYLINE
  8
Net
  6
CONTINUOUS
  66
1
  70
0
  40
0.0049
  41
0.0049
  0
VERTEX
  8
Net
  10
1.7164
  20
3.2557
  42
1
  0
VERTEX
  8
Net
  10
1.7213
  20
3.2557
  42
1
  0
VERTEX
  8
Net
  10
1.7164
  20
3.2557
  42
1
  0
SEQEND
  0
POLYLINE
  8
Net
  6
CONTINUOUS
  66
1
  70
0
  40
0.0049
  41
0.0049
  0
VERTEX
  8
Net
  10
1.7164
  20
3.2432
  42
1
  0
VERTEX
  8
Net
  10
1.7213
  20
3.2432
  42
1
  0
VERTEX
  8
Net
  10
1.7164
  20
3.2432
  42
1
  0
SEQEND
  0
POLYLINE
  8
Net
  6
CONTINUOUS
  66
1
  70
0
  40
0.0098
  41
0.0098
  0
VERTEX
  8
Net
  10
1.7188
  20
3.2432
  42
0
  0
VERTEX
  8
Net
  10
3.3878
  20
3.2432
  42
0
  0
SEQEND
  0
POLYLINE
  8
Net
  6
CONTINUOUS
  66
1
  70
0
  40
0.0049
  41
0.0049
  0
VERTEX
  8
Net
  10
1.7164
  20
3.2432
  42
1
  0
VERTEX
  8
Net
  10
1.7213
  20
3.2432
  42
1
  0
VERTEX
  8
Net
  10
1.7164
  20
3.2432
  42
1
  0
SEQEND
  0
POLYLINE
  8
Net
  6
CONTINUOUS
  66
1
  70
0
  40
0.0049
  41
0.0049
  0
VERTEX
  8
Net
  10
3.3853
  20
3.2432
  42
1
  0
VERTEX
  8
Net
  10
3.3902
  20
3.2432
  42
1
  0
VERTEX
  8
Net
  10
3.3853
  20
3.2432
  42
1
  0
SEQEND
  0
POLYLINE
  8
Net
  6
CONTINUOUS
  66
1
  70
0
  40
0.0098
  41
0.0098
  0
VERTEX
  8
Net
  10
3.3779
  20
3.2432
  42
0
  0
VERTEX
  8
Net
  10
3.3784
  20
3.2401
  42
0
  0
VERTEX
  8
Net
  10
3.3798
  20
3.2374
  42
0
  0
VERTEX
  8
Net
  10
3.382
  20
3.2352
  42
0
  0
VERTEX
  8
Net
  10
3.3847
  20
3.2338
  42
0
  0
VERTEX
  8
Net
  10
3.3878
  20
3.2333
  42
0
  0
VERTEX
  8
Net
  10
3.3908
  20
3.2338
  42
0
  0
VERTEX
  8
Net
  10
3.3935
  20
3.2352
  42
0
  0
VERTEX
  8
Net
  10
3.3957
  20
3.2374
  42
0
  0
VERTEX
  8
Net
  10
3.3971
  20
3.2401
  42
0
  0
VERTEX
  8
Net
  10
3.3976
  20
3.2432
  42
0
  0
VERTEX
  8
Net
  10
3.3971
  20
3.2462
  42
0
  0
VERTEX
  8
Net
  10
3.3957
  20
3.2489
  42
0
  0
VERTEX
  8
Net
  10
3.3935
  20
3.2511
  42
0
  0
VERTEX
  8
Net
  10
3.3908
  20
3.2525
  42
0
  0
VERTEX
  8
Net
  10
3.3878
  20
3.253
  42
0
  0
VERTEX
  8
Net
  10
3.3847
  20
3.2525
  42
0
  0
VERTEX
  8
Net
  10
3.382
  20
3.2511
  42
0
  0
VERTEX
  8
Net
  10
3.3798
  20
3.2489
  42
0
  0
VERTEX
  8
Net
  10
3.3784
  20
3.2462
  42
0
  0
VERTEX
  8
Net
  10
3.3779
  20
3.2432
  42
0
  0
SEQEND
  0
POLYLINE
  8
Net
  6
CONTINUOUS
  66
1
  70
0
  40
0.0049
  41
0.0049
  0
VERTEX
  8
Net
  10
3.3754
  20
3.2432
  42
1
  0
VERTEX
  8
Net
  10
3.3804
  20
3.2432
  42
1
  0
VERTEX
  8
Net
  10
3.3754
  20
3.2432
  42
1
  0
SEQEND
  0
POLYLINE
  8
Net
  6
CONTINUOUS
  66
1
  70
0
  40
0.0098
  41
0.0098
  0
VERTEX
  8
Net
  10
4.4128
  20
3.1993
  42
0
  0
VERTEX
  8
Net
  10
4.4128
  20
3.2432
  42
0
  0
SEQEND
  0
POLYLINE
  8
Net
  6
CONTINUOUS
  66
1
  70
0
  40
0.0049
  41
0.0049
  0
VERTEX
  8
Net
  10
4.4104
  20
3.1993
  42
1
  0
VERTEX
  8
Net
  10
4.4153
  20
3.1993
  42
1
  0
VERTEX
  8
Net
  10
4.4104
  20
3.1993
  42
1
  0
SEQEND
  0
POLYLINE
  8
Net
  6
CONTINUOUS
  66
1
  70
0
  40
0.0049
  41
0.0049
  0
VERTEX
  8
Net
  10
4.4104
  20
3.2432
  42
1
  0
VERTEX
  8
Net
  10
4.4153
  20
3.2432
  42
1
  0
VERTEX
  8
Net
  10
4.4104
  20
3.2432
  42
1
  0
SEQEND
  0
POLYLINE
  8
Net
  6
CONTINUOUS
  66
1
  70
0
  40
0.0098
  41
0.0098
  0
VERTEX
  8
Net
  10
4.4128
  20
3.2432
  42
0
  0
VERTEX
  8
Net
  10
3.3878
  20
3.2432
  42
0
  0
SEQEND
  0
POLYLINE
  8
Net
  6
CONTINUOUS
  66
1
  70
0
  40
0.0049
  41
0.0049
  0
VERTEX
  8
Net
  10
4.4104
  20
3.2432
  42
1
  0
VERTEX
  8
Net
  10
4.4153
  20
3.2432
  42
1
  0
VERTEX
  8
Net
  10
4.4104
  20
3.2432
  42
1
  0
SEQEND
  0
POLYLINE
  8
Net
  6
CONTINUOUS
  66
1
  70
0
  40
0.0049
  41
0.0049
  0
VERTEX
  8
Net
  10
3.3853
  20
3.2432
  42
1
  0
VERTEX
  8
Net
  10
3.3902
  20
3.2432
  42
1
  0
VERTEX
  8
Net
  10
3.3853
  20
3.2432
  42
1
  0
SEQEND
  0
POLYLINE
  8
Net
  6
CONTINUOUS
  66
1
  70
0
  40
0.0098
  41
0.0098
  0
VERTEX
  8
Net
  10
3.3878
  20
3.2432
  42
0
  0
VERTEX
  8
Net
  10
3.3878
  20
3.2432
  42
0
  0
SEQEND
  0
POLYLINE
  8
Net
  6
CONTINUOUS
  66
1
  70
0
  40
0.0049
  41
0.0049
  0
VERTEX
  8
Net
  10
3.3853
  20
3.2432
  42
1
  0
VERTEX
  8
Net
  10
3.3902
  20
3.2432
  42
1
  0
VERTEX
  8
Net
  10
3.3853
  20
3.2432
  42
1
  0
SEQEND
  0
POLYLINE
  8
Net
  6
CONTINUOUS
  66
1
  70
0
  40
0.0098
  41
0.0098
  0
VERTEX
  8
Net
  10
3.3878
  20
3.2432
  42
0
  0
VERTEX
  8
Net
  10
3.3878
  20
3.2432
  42
0
  0
SEQEND
  0
POLYLINE
  8
Net
  6
CONTINUOUS
  66
1
  70
0
  40
0.0049
  41
0.0049
  0
VERTEX
  8
Net
  10
3.3853
  20
3.2432
  42
1
  0
VERTEX
  8
Net
  10
3.3902
  20
3.2432
  42
1
  0
VERTEX
  8
Net
  10
3.3853
  20
3.2432
  42
1
  0
SEQEND
  0
POLYLINE
  8
Net
  6
CONTINUOUS
  66
1
  70
0
  40
0.0098
  41
0.0098
  0
VERTEX
  8
Net
  10
1.1312
  20
1.4679
  42
0
  0
VERTEX
  8
Net
  10
1.1375
  20
1.4679
  42
0
  0
SEQEND
  0
POLYLINE
  8
Net
  6
CONTINUOUS
  66
1
  70
0
  40
0.0049
  41
0.0049
  0
VERTEX
  8
Net
  10
1.1288
  20
1.4679
  42
1
  0
VERTEX
  8
Net
  10
1.1337
  20
1.4679
  42
1
  0
VERTEX
  8
Net
  10
1.1288
  20
1.4679
  42
1
  0
SEQEND
  0
POLYLINE
  8
Net
  6
CONTINUOUS
  66
1
  70
0
  40
0.0049
  41
0.0049
  0
VERTEX
  8
Net
  10
1.135
  20
1.4679
  42
1
  0
VERTEX
  8
Net
  10
1.1399
  20
1.4679
  42
1
  0
VERTEX
  8
Net
  10
1.135
  20
1.4679
  42
1
  0
SEQEND
  0
POLYLINE
  8
Net
  6
CONTINUOUS
  66
1
  70
0
  40
0.0098
  41
0.0098
  0
VERTEX
  8
Net
  10
3.2877
  20
1.5054
  42
0
  0
VERTEX
  8
Net
  10
3.2877
  20
1.5118
  42
0
  0
SEQEND
  0
POLYLINE
  8
Net
  6
CONTINUOUS
  66
1
  70
0
  40
0.0049
  41
0.0049
  0
VERTEX
  8
Net
  10
3.2853
  20
1.5054
  42
1
  0
VERTEX
  8
Net
  10
3.2902
  20
1.5054
  42
1
  0
VERTEX
  8
Net
  10
3.2853
  20
1.5054
  42
1
  0
SEQEND
  0
POLYLINE
  8
Net
  6
CONTINUOUS
  66
1
  70
0
  40
0.0049
  41
0.0049
  0
VERTEX
  8
Net
  10
3.2853
  20
1.5118
  42
1
  0
VERTEX
  8
Net
  10
3.2902
  20
1.5118
  42
1
  0
VERTEX
  8
Net
  10
3.2853
  20
1.5118
  42
1
  0
SEQEND
  0
POLYLINE
  8
Net
  6
CONTINUOUS
  66
1
  70
0
  40
0.0098
  41
0.0098
  0
VERTEX
  8
Net
  10
1.6375
  20
2.4868
  42
0
  0
VERTEX
  8
Net
  10
1.7313
  20
2.4868
  42
0
  0
SEQEND
  0
POLYLINE
  8
Net
  6
CONTINUOUS
  66
1
  70
0
  40
0.0049
  41
0.0049
  0
VERTEX
  8
Net
  10
1.6351
  20
2.4868
  42
1
  0
VERTEX
  8
Net
  10
1.64
  20
2.4868
  42
1
  0
VERTEX
  8
Net
  10
1.6351
  20
2.4868
  42
1
  0
SEQEND
  0
POLYLINE
  8
Net
  6
CONTINUOUS
  66
1
  70
0
  40
0.0049
  41
0.0049
  0
VERTEX
  8
Net
  10
1.7288
  20
2.4868
  42
1
  0
VERTEX
  8
Net
  10
1.7338
  20
2.4868
  42
1
  0
VERTEX
  8
Net
  10
1.7288
  20
2.4868
  42
1
  0
SEQEND
  0
POLYLINE
  8
Net
  6
CONTINUOUS
  66
1
  70
0
  40
0.0098
  41
0.0098
  0
VERTEX
  8
Net
  10
1.7313
  20
2.4868
  42
0
  0
VERTEX
  8
Net
  10
1.7313
  20
1.4679
  42
0
  0
SEQEND
  0
POLYLINE
  8
Net
  6
CONTINUOUS
  66
1
  70
0
  40
0.0049
  41
0.0049
  0
VERTEX
  8
Net
  10
1.7288
  20
2.4868
  42
1
  0
VERTEX
  8
Net
  10
1.7338
  20
2.4868
  42
1
  0
VERTEX
  8
Net
  10
1.7288
  20
2.4868
  42
1
  0
SEQEND
  0
POLYLINE
  8
Net
  6
CONTINUOUS
  66
1
  70
0
  40
0.0049
  41
0.0049
  0
VERTEX
  8
Net
  10
1.7288
  20
1.4679
  42
1
  0
VERTEX
  8
Net
  10
1.7338
  20
1.4679
  42
1
  0
VERTEX
  8
Net
  10
1.7288
  20
1.4679
  42
1
  0
SEQEND
  0
POLYLINE
  8
Net
  6
CONTINUOUS
  66
1
  70
0
  40
0.0098
  41
0.0098
  0
VERTEX
  8
Net
  10
1.7313
  20
1.4679
  42
0
  0
VERTEX
  8
Net
  10
1.5875
  20
1.4679
  42
0
  0
SEQEND
  0
POLYLINE
  8
Net
  6
CONTINUOUS
  66
1
  70
0
  40
0.0049
  41
0.0049
  0
VERTEX
  8
Net
  10
1.7288
  20
1.4679
  42
1
  0
VERTEX
  8
Net
  10
1.7338
  20
1.4679
  42
1
  0
VERTEX
  8
Net
  10
1.7288
  20
1.4679
  42
1
  0
SEQEND
  0
POLYLINE
  8
Net
  6
CONTINUOUS
  66
1
  70
0
  40
0.0049
  41
0.0049
  0
VERTEX
  8
Net
  10
1.585
  20
1.4679
  42
1
  0
VERTEX
  8
Net
  10
1.5899
  20
1.4679
  42
1
  0
VERTEX
  8
Net
  10
1.585
  20
1.4679
  42
1
  0
SEQEND
  0
POLYLINE
  8
Net
  6
CONTINUOUS
  66
1
  70
0
  40
0.0098
  41
0.0098
  0
VERTEX
  8
Net
  10
1.7215
  20
2.0867
  42
0
  0
VERTEX
  8
Net
  10
1.7219
  20
2.0837
  42
0
  0
VERTEX
  8
Net
  10
1.7233
  20
2.081
  42
0
  0
VERTEX
  8
Net
  10
1.7255
  20
2.0788
  42
0
  0
VERTEX
  8
Net
  10
1.7283
  20
2.0774
  42
0
  0
VERTEX
  8
Net
  10
1.7313
  20
2.0769
  42
0
  0
VERTEX
  8
Net
  10
1.7343
  20
2.0774
  42
0
  0
VERTEX
  8
Net
  10
1.7371
  20
2.0788
  42
0
  0
VERTEX
  8
Net
  10
1.7393
  20
2.081
  42
0
  0
VERTEX
  8
Net
  10
1.7407
  20
2.0837
  42
0
  0
VERTEX
  8
Net
  10
1.7411
  20
2.0867
  42
0
  0
VERTEX
  8
Net
  10
1.7407
  20
2.0898
  42
0
  0
VERTEX
  8
Net
  10
1.7393
  20
2.0925
  42
0
  0
VERTEX
  8
Net
  10
1.7371
  20
2.0947
  42
0
  0
VERTEX
  8
Net
  10
1.7343
  20
2.0961
  42
0
  0
VERTEX
  8
Net
  10
1.7313
  20
2.0966
  42
0
  0
VERTEX
  8
Net
  10
1.7283
  20
2.0961
  42
0
  0
VERTEX
  8
Net
  10
1.7255
  20
2.0947
  42
0
  0
VERTEX
  8
Net
  10
1.7233
  20
2.0925
  42
0
  0
VERTEX
  8
Net
  10
1.7219
  20
2.0898
  42
0
  0
VERTEX
  8
Net
  10
1.7215
  20
2.0867
  42
0
  0
SEQEND
  0
POLYLINE
  8
Net
  6
CONTINUOUS
  66
1
  70
0
  40
0.0049
  41
0.0049
  0
VERTEX
  8
Net
  10
1.719
  20
2.0867
  42
1
  0
VERTEX
  8
Net
  10
1.7239
  20
2.0867
  42
1
  0
VERTEX
  8
Net
  10
1.719
  20
2.0867
  42
1
  0
SEQEND
  0
POLYLINE
  8
Net
  6
CONTINUOUS
  66
1
  70
0
  40
0.0098
  41
0.0098
  0
VERTEX
  8
Net
  10
1.5625
  20
2.0867
  42
0
  0
VERTEX
  8
Net
  10
1.7313
  20
2.0867
  42
0
  0
SEQEND
  0
POLYLINE
  8
Net
  6
CONTINUOUS
  66
1
  70
0
  40
0.0049
  41
0.0049
  0
VERTEX
  8
Net
  10
1.5601
  20
2.0867
  42
1
  0
VERTEX
  8
Net
  10
1.565
  20
2.0867
  42
1
  0
VERTEX
  8
Net
  10
1.5601
  20
2.0867
  42
1
  0
SEQEND
  0
POLYLINE
  8
Net
  6
CONTINUOUS
  66
1
  70
0
  40
0.0049
  41
0.0049
  0
VERTEX
  8
Net
  10
1.7288
  20
2.0867
  42
1
  0
VERTEX
  8
Net
  10
1.7338
  20
2.0867
  42
1
  0
VERTEX
  8
Net
  10
1.7288
  20
2.0867
  42
1
  0
SEQEND
  0
POLYLINE
  8
Net
  6
CONTINUOUS
  66
1
  70
0
  40
0.0098
  41
0.0098
  0
VERTEX
  8
Net
  10
1.7215
  20
1.4679
  42
0
  0
VERTEX
  8
Net
  10
1.7219
  20
1.4649
  42
0
  0
VERTEX
  8
Net
  10
1.7233
  20
1.4621
  42
0
  0
VERTEX
  8
Net
  10
1.7255
  20
1.46
  42
0
  0
VERTEX
  8
Net
  10
1.7283
  20
1.4586
  42
0
  0
VERTEX
  8
Net
  10
1.7313
  20
1.4581
  42
0
  0
VERTEX
  8
Net
  10
1.7343
  20
1.4586
  42
0
  0
VERTEX
  8
Net
  10
1.7371
  20
1.46
  42
0
  0
VERTEX
  8
Net
  10
1.7393
  20
1.4621
  42
0
  0
VERTEX
  8
Net
  10
1.7407
  20
1.4649
  42
0
  0
VERTEX
  8
Net
  10
1.7411
  20
1.4679
  42
0
  0
VERTEX
  8
Net
  10
1.7407
  20
1.471
  42
0
  0
VERTEX
  8
Net
  10
1.7393
  20
1.4737
  42
0
  0
VERTEX
  8
Net
  10
1.7371
  20
1.4759
  42
0
  0
VERTEX
  8
Net
  10
1.7343
  20
1.4773
  42
0
  0
VERTEX
  8
Net
  10
1.7313
  20
1.4778
  42
0
  0
VERTEX
  8
Net
  10
1.7283
  20
1.4773
  42
0
  0
VERTEX
  8
Net
  10
1.7255
  20
1.4759
  42
0
  0
VERTEX
  8
Net
  10
1.7233
  20
1.4737
  42
0
  0
VERTEX
  8
Net
  10
1.7219
  20
1.471
  42
0
  0
VERTEX
  8
Net
  10
1.7215
  20
1.4679
  42
0
  0
SEQEND
  0
POLYLINE
  8
Net
  6
CONTINUOUS
  66
1
  70
0
  40
0.0049
  41
0.0049
  0
VERTEX
  8
Net
  10
1.719
  20
1.4679
  42
1
  0
VERTEX
  8
Net
  10
1.7239
  20
1.4679
  42
1
  0
VERTEX
  8
Net
  10
1.719
  20
1.4679
  42
1
  0
SEQEND
  0
POLYLINE
  8
Net
  6
CONTINUOUS
  66
1
  70
0
  40
0.0098
  41
0.0098
  0
VERTEX
  8
Net
  10
1.525
  20
1.1116
  42
0
  0
VERTEX
  8
Net
  10
1.7313
  20
1.1116
  42
0
  0
SEQEND
  0
POLYLINE
  8
Net
  6
CONTINUOUS
  66
1
  70
0
  40
0.0049
  41
0.0049
  0
VERTEX
  8
Net
  10
1.5225
  20
1.1116
  42
1
  0
VERTEX
  8
Net
  10
1.5275
  20
1.1116
  42
1
  0
VERTEX
  8
Net
  10
1.5225
  20
1.1116
  42
1
  0
SEQEND
  0
POLYLINE
  8
Net
  6
CONTINUOUS
  66
1
  70
0
  40
0.0049
  41
0.0049
  0
VERTEX
  8
Net
  10
1.7288
  20
1.1116
  42
1
  0
VERTEX
  8
Net
  10
1.7338
  20
1.1116
  42
1
  0
VERTEX
  8
Net
  10
1.7288
  20
1.1116
  42
1
  0
SEQEND
  0
POLYLINE
  8
Net
  6
CONTINUOUS
  66
1
  70
0
  40
0.0098
  41
0.0098
  0
VERTEX
  8
Net
  10
1.7313
  20
1.1116
  42
0
  0
VERTEX
  8
Net
  10
1.7313
  20
1.4679
  42
0
  0
SEQEND
  0
POLYLINE
  8
Net
  6
CONTINUOUS
  66
1
  70
0
  40
0.0049
  41
0.0049
  0
VERTEX
  8
Net
  10
1.7288
  20
1.1116
  42
1
  0
VERTEX
  8
Net
  10
1.7338
  20
1.1116
  42
1
  0
VERTEX
  8
Net
  10
1.7288
  20
1.1116
  42
1
  0
SEQEND
  0
POLYLINE
  8
Net
  6
CONTINUOUS
  66
1
  70
0
  40
0.0049
  41
0.0049
  0
VERTEX
  8
Net
  10
1.7288
  20
1.4679
  42
1
  0
VERTEX
  8
Net
  10
1.7338
  20
1.4679
  42
1
  0
VERTEX
  8
Net
  10
1.7288
  20
1.4679
  42
1
  0
SEQEND
  0
POLYLINE
  8
Net
  6
CONTINUOUS
  66
1
  70
0
  40
0.0098
  41
0.0098
  0
VERTEX
  8
Net
  10
3.8065
  20
2.5305
  42
0
  0
VERTEX
  8
Net
  10
3.894
  20
2.5305
  42
0
  0
SEQEND
  0
POLYLINE
  8
Net
  6
CONTINUOUS
  66
1
  70
0
  40
0.0049
  41
0.0049
  0
VERTEX
  8
Net
  10
3.8041
  20
2.5305
  42
1
  0
VERTEX
  8
Net
  10
3.809
  20
2.5305
  42
1
  0
VERTEX
  8
Net
  10
3.8041
  20
2.5305
  42
1
  0
SEQEND
  0
POLYLINE
  8
Net
  6
CONTINUOUS
  66
1
  70
0
  40
0.0049
  41
0.0049
  0
VERTEX
  8
Net
  10
3.8916
  20
2.5305
  42
1
  0
VERTEX
  8
Net
  10
3.8965
  20
2.5305
  42
1
  0
VERTEX
  8
Net
  10
3.8916
  20
2.5305
  42
1
  0
SEQEND
  0
POLYLINE
  8
Net
  6
CONTINUOUS
  66
1
  70
0
  40
0.0098
  41
0.0098
  0
VERTEX
  8
Net
  10
3.894
  20
2.5305
  42
0
  0
VERTEX
  8
Net
  10
3.894
  20
1.5054
  42
0
  0
SEQEND
  0
POLYLINE
  8
Net
  6
CONTINUOUS
  66
1
  70
0
  40
0.0049
  41
0.0049
  0
VERTEX
  8
Net
  10
3.8916
  20
2.5305
  42
1
  0
VERTEX
  8
Net
  10
3.8965
  20
2.5305
  42
1
  0
VERTEX
  8
Net
  10
3.8916
  20
2.5305
  42
1
  0
SEQEND
  0
POLYLINE
  8
Net
  6
CONTINUOUS
  66
1
  70
0
  40
0.0049
  41
0.0049
  0
VERTEX
  8
Net
  10
3.8916
  20
1.5054
  42
1
  0
VERTEX
  8
Net
  10
3.8965
  20
1.5054
  42
1
  0
VERTEX
  8
Net
  10
3.8916
  20
1.5054
  42
1
  0
SEQEND
  0
POLYLINE
  8
Net
  6
CONTINUOUS
  66
1
  70
0
  40
0.0098
  41
0.0098
  0
VERTEX
  8
Net
  10
3.894
  20
1.5054
  42
0
  0
VERTEX
  8
Net
  10
3.744
  20
1.5054
  42
0
  0
SEQEND
  0
POLYLINE
  8
Net
  6
CONTINUOUS
  66
1
  70
0
  40
0.0049
  41
0.0049
  0
VERTEX
  8
Net
  10
3.8916
  20
1.5054
  42
1
  0
VERTEX
  8
Net
  10
3.8965
  20
1.5054
  42
1
  0
VERTEX
  8
Net
  10
3.8916
  20
1.5054
  42
1
  0
SEQEND
  0
POLYLINE
  8
Net
  6
CONTINUOUS
  66
1
  70
0
  40
0.0049
  41
0.0049
  0
VERTEX
  8
Net
  10
3.7415
  20
1.5054
  42
1
  0
VERTEX
  8
Net
  10
3.7464
  20
1.5054
  42
1
  0
VERTEX
  8
Net
  10
3.7415
  20
1.5054
  42
1
  0
SEQEND
  0
POLYLINE
  8
Net
  6
CONTINUOUS
  66
1
  70
0
  40
0.0098
  41
0.0098
  0
VERTEX
  8
Net
  10
3.8842
  20
2.118
  42
0
  0
VERTEX
  8
Net
  10
3.8847
  20
2.115
  42
0
  0
VERTEX
  8
Net
  10
3.8861
  20
2.1122
  42
0
  0
VERTEX
  8
Net
  10
3.8882
  20
2.11
  42
0
  0
VERTEX
  8
Net
  10
3.891
  20
2.1086
  42
0
  0
VERTEX
  8
Net
  10
3.894
  20
2.1082
  42
0
  0
VERTEX
  8
Net
  10
3.8971
  20
2.1086
  42
0
  0
VERTEX
  8
Net
  10
3.8998
  20
2.11
  42
0
  0
VERTEX
  8
Net
  10
3.902
  20
2.1122
  42
0
  0
VERTEX
  8
Net
  10
3.9034
  20
2.115
  42
0
  0
VERTEX
  8
Net
  10
3.9039
  20
2.118
  42
0
  0
VERTEX
  8
Net
  10
3.9034
  20
2.121
  42
0
  0
VERTEX
  8
Net
  10
3.902
  20
2.1238
  42
0
  0
VERTEX
  8
Net
  10
3.8998
  20
2.126
  42
0
  0
VERTEX
  8
Net
  10
3.8971
  20
2.1274
  42
0
  0
VERTEX
  8
Net
  10
3.894
  20
2.1278
  42
0
  0
VERTEX
  8
Net
  10
3.891
  20
2.1274
  42
0
  0
VERTEX
  8
Net
  10
3.8882
  20
2.126
  42
0
  0
VERTEX
  8
Net
  10
3.8861
  20
2.1238
  42
0
  0
VERTEX
  8
Net
  10
3.8847
  20
2.121
  42
0
  0
VERTEX
  8
Net
  10
3.8842
  20
2.118
  42
0
  0
SEQEND
  0
POLYLINE
  8
Net
  6
CONTINUOUS
  66
1
  70
0
  40
0.0049
  41
0.0049
  0
VERTEX
  8
Net
  10
3.8817
  20
2.118
  42
1
  0
VERTEX
  8
Net
  10
3.8866
  20
2.118
  42
1
  0
VERTEX
  8
Net
  10
3.8817
  20
2.118
  42
1
  0
SEQEND
  0
POLYLINE
  8
Net
  6
CONTINUOUS
  66
1
  70
0
  40
0.0098
  41
0.0098
  0
VERTEX
  8
Net
  10
3.7503
  20
2.118
  42
0
  0
VERTEX
  8
Net
  10
3.894
  20
2.118
  42
0
  0
SEQEND
  0
POLYLINE
  8
Net
  6
CONTINUOUS
  66
1
  70
0
  40
0.0049
  41
0.0049
  0
VERTEX
  8
Net
  10
3.7478
  20
2.118
  42
1
  0
VERTEX
  8
Net
  10
3.7527
  20
2.118
  42
1
  0
VERTEX
  8
Net
  10
3.7478
  20
2.118
  42
1
  0
SEQEND
  0
POLYLINE
  8
Net
  6
CONTINUOUS
  66
1
  70
0
  40
0.0049
  41
0.0049
  0
VERTEX
  8
Net
  10
3.8916
  20
2.118
  42
1
  0
VERTEX
  8
Net
  10
3.8965
  20
2.118
  42
1
  0
VERTEX
  8
Net
  10
3.8916
  20
2.118
  42
1
  0
SEQEND
  0
POLYLINE
  8
Net
  6
CONTINUOUS
  66
1
  70
0
  40
0.0098
  41
0.0098
  0
VERTEX
  8
Net
  10
3.8842
  20
1.5054
  42
0
  0
VERTEX
  8
Net
  10
3.8847
  20
1.5024
  42
0
  0
VERTEX
  8
Net
  10
3.8861
  20
1.4997
  42
0
  0
VERTEX
  8
Net
  10
3.8882
  20
1.4975
  42
0
  0
VERTEX
  8
Net
  10
3.891
  20
1.4961
  42
0
  0
VERTEX
  8
Net
  10
3.894
  20
1.4956
  42
0
  0
VERTEX
  8
Net
  10
3.8971
  20
1.4961
  42
0
  0
VERTEX
  8
Net
  10
3.8998
  20
1.4975
  42
0
  0
VERTEX
  8
Net
  10
3.902
  20
1.4997
  42
0
  0
VERTEX
  8
Net
  10
3.9034
  20
1.5024
  42
0
  0
VERTEX
  8
Net
  10
3.9039
  20
1.5054
  42
0
  0
VERTEX
  8
Net
  10
3.9034
  20
1.5085
  42
0
  0
VERTEX
  8
Net
  10
3.902
  20
1.5112
  42
0
  0
VERTEX
  8
Net
  10
3.8998
  20
1.5134
  42
0
  0
VERTEX
  8
Net
  10
3.8971
  20
1.5148
  42
0
  0
VERTEX
  8
Net
  10
3.894
  20
1.5153
  42
0
  0
VERTEX
  8
Net
  10
3.891
  20
1.5148
  42
0
  0
VERTEX
  8
Net
  10
3.8882
  20
1.5134
  42
0
  0
VERTEX
  8
Net
  10
3.8861
  20
1.5112
  42
0
  0
VERTEX
  8
Net
  10
3.8847
  20
1.5085
  42
0
  0
VERTEX
  8
Net
  10
3.8842
  20
1.5054
  42
0
  0
SEQEND
  0
POLYLINE
  8
Net
  6
CONTINUOUS
  66
1
  70
0
  40
0.0049
  41
0.0049
  0
VERTEX
  8
Net
  10
3.8817
  20
1.5054
  42
1
  0
VERTEX
  8
Net
  10
3.8866
  20
1.5054
  42
1
  0
VERTEX
  8
Net
  10
3.8817
  20
1.5054
  42
1
  0
SEQEND
  0
POLYLINE
  8
Net
  6
CONTINUOUS
  66
1
  70
0
  40
0.0098
  41
0.0098
  0
VERTEX
  8
Net
  10
3.7002
  20
1.1304
  42
0
  0
VERTEX
  8
Net
  10
3.894
  20
1.1304
  42
0
  0
SEQEND
  0
POLYLINE
  8
Net
  6
CONTINUOUS
  66
1
  70
0
  40
0.0049
  41
0.0049
  0
VERTEX
  8
Net
  10
3.6978
  20
1.1304
  42
1
  0
VERTEX
  8
Net
  10
3.7027
  20
1.1304
  42
1
  0
VERTEX
  8
Net
  10
3.6978
  20
1.1304
  42
1
  0
SEQEND
  0
POLYLINE
  8
Net
  6
CONTINUOUS
  66
1
  70
0
  40
0.0049
  41
0.0049
  0
VERTEX
  8
Net
  10
3.8916
  20
1.1304
  42
1
  0
VERTEX
  8
Net
  10
3.8965
  20
1.1304
  42
1
  0
VERTEX
  8
Net
  10
3.8916
  20
1.1304
  42
1
  0
SEQEND
  0
POLYLINE
  8
Net
  6
CONTINUOUS
  66
1
  70
0
  40
0.0098
  41
0.0098
  0
VERTEX
  8
Net
  10
3.894
  20
1.1304
  42
0
  0
VERTEX
  8
Net
  10
3.894
  20
1.5054
  42
0
  0
SEQEND
  0
POLYLINE
  8
Net
  6
CONTINUOUS
  66
1
  70
0
  40
0.0049
  41
0.0049
  0
VERTEX
  8
Net
  10
3.8916
  20
1.1304
  42
1
  0
VERTEX
  8
Net
  10
3.8965
  20
1.1304
  42
1
  0
VERTEX
  8
Net
  10
3.8916
  20
1.1304
  42
1
  0
SEQEND
  0
POLYLINE
  8
Net
  6
CONTINUOUS
  66
1
  70
0
  40
0.0049
  41
0.0049
  0
VERTEX
  8
Net
  10
3.8916
  20
1.5054
  42
1
  0
VERTEX
  8
Net
  10
3.8965
  20
1.5054
  42
1
  0
VERTEX
  8
Net
  10
3.8916
  20
1.5054
  42
1
  0
SEQEND
  0
POLYLINE
  8
Net
  6
CONTINUOUS
  66
1
  70
0
  40
0.0098
  41
0.0098
  0
VERTEX
  8
Net
  10
2.6189
  20
1.0304
  42
0
  0
VERTEX
  8
Net
  10
2.5751
  20
1.0304
  42
0
  0
SEQEND
  0
POLYLINE
  8
Net
  6
CONTINUOUS
  66
1
  70
0
  40
0.0049
  41
0.0049
  0
VERTEX
  8
Net
  10
2.6165
  20
1.0304
  42
1
  0
VERTEX
  8
Net
  10
2.6214
  20
1.0304
  42
1
  0
VERTEX
  8
Net
  10
2.6165
  20
1.0304
  42
1
  0
SEQEND
  0
POLYLINE
  8
Net
  6
CONTINUOUS
  66
1
  70
0
  40
0.0049
  41
0.0049
  0
VERTEX
  8
Net
  10
2.5727
  20
1.0304
  42
1
  0
VERTEX
  8
Net
  10
2.5776
  20
1.0304
  42
1
  0
VERTEX
  8
Net
  10
2.5727
  20
1.0304
  42
1
  0
SEQEND
  0
POLYLINE
  8
Net
  6
CONTINUOUS
  66
1
  70
0
  40
0.0098
  41
0.0098
  0
VERTEX
  8
Net
  10
0.2999
  20
1.0116
  42
0
  0
VERTEX
  8
Net
  10
0.3875
  20
1.0116
  42
0
  0
SEQEND
  0
POLYLINE
  8
Net
  6
CONTINUOUS
  66
1
  70
0
  40
0.0049
  41
0.0049
  0
VERTEX
  8
Net
  10
0.2974
  20
1.0116
  42
1
  0
VERTEX
  8
Net
  10
0.3024
  20
1.0116
  42
1
  0
VERTEX
  8
Net
  10
0.2974
  20
1.0116
  42
1
  0
SEQEND
  0
POLYLINE
  8
Net
  6
CONTINUOUS
  66
1
  70
0
  40
0.0049
  41
0.0049
  0
VERTEX
  8
Net
  10
0.385
  20
1.0116
  42
1
  0
VERTEX
  8
Net
  10
0.3899
  20
1.0116
  42
1
  0
VERTEX
  8
Net
  10
0.385
  20
1.0116
  42
1
  0
SEQEND
  0
POLYLINE
  8
Net
  6
CONTINUOUS
  66
1
  70
0
  40
0.0098
  41
0.0098
  0
VERTEX
  8
Net
  10
3.3502
  20
1.0241
  42
0
  0
VERTEX
  8
Net
  10
3.2377
  20
1.0241
  42
0
  0
SEQEND
  0
POLYLINE
  8
Net
  6
CONTINUOUS
  66
1
  70
0
  40
0.0049
  41
0.0049
  0
VERTEX
  8
Net
  10
3.3478
  20
1.0241
  42
1
  0
VERTEX
  8
Net
  10
3.3527
  20
1.0241
  42
1
  0
VERTEX
  8
Net
  10
3.3478
  20
1.0241
  42
1
  0
SEQEND
  0
POLYLINE
  8
Net
  6
CONTINUOUS
  66
1
  70
0
  40
0.0049
  41
0.0049
  0
VERTEX
  8
Net
  10
3.2352
  20
1.0241
  42
1
  0
VERTEX
  8
Net
  10
3.2402
  20
1.0241
  42
1
  0
VERTEX
  8
Net
  10
3.2352
  20
1.0241
  42
1
  0
SEQEND
  0
POLYLINE
  8
Net
  6
CONTINUOUS
  66
1
  70
0
  40
0.0098
  41
0.0098
  0
VERTEX
  8
Net
  10
3.2279
  20
1.0241
  42
0
  0
VERTEX
  8
Net
  10
3.2283
  20
1.0211
  42
0
  0
VERTEX
  8
Net
  10
3.2297
  20
1.0184
  42
0
  0
VERTEX
  8
Net
  10
3.2319
  20
1.0162
  42
0
  0
VERTEX
  8
Net
  10
3.2347
  20
1.0148
  42
0
  0
VERTEX
  8
Net
  10
3.2377
  20
1.0143
  42
0
  0
VERTEX
  8
Net
  10
3.2408
  20
1.0148
  42
0
  0
VERTEX
  8
Net
  10
3.2435
  20
1.0162
  42
0
  0
VERTEX
  8
Net
  10
3.2457
  20
1.0184
  42
0
  0
VERTEX
  8
Net
  10
3.2471
  20
1.0211
  42
0
  0
VERTEX
  8
Net
  10
3.2476
  20
1.0241
  42
0
  0
VERTEX
  8
Net
  10
3.2471
  20
1.0272
  42
0
  0
VERTEX
  8
Net
  10
3.2457
  20
1.0299
  42
0
  0
VERTEX
  8
Net
  10
3.2435
  20
1.0321
  42
0
  0
VERTEX
  8
Net
  10
3.2408
  20
1.0335
  42
0
  0
VERTEX
  8
Net
  10
3.2377
  20
1.034
  42
0
  0
VERTEX
  8
Net
  10
3.2347
  20
1.0335
  42
0
  0
VERTEX
  8
Net
  10
3.2319
  20
1.0321
  42
0
  0
VERTEX
  8
Net
  10
3.2297
  20
1.0299
  42
0
  0
VERTEX
  8
Net
  10
3.2283
  20
1.0272
  42
0
  0
VERTEX
  8
Net
  10
3.2279
  20
1.0241
  42
0
  0
SEQEND
  0
POLYLINE
  8
Net
  6
CONTINUOUS
  66
1
  70
0
  40
0.0049
  41
0.0049
  0
VERTEX
  8
Net
  10
3.2254
  20
1.0241
  42
1
  0
VERTEX
  8
Net
  10
3.2303
  20
1.0241
  42
1
  0
VERTEX
  8
Net
  10
3.2254
  20
1.0241
  42
1
  0
SEQEND
  0
POLYLINE
  8
Net
  6
CONTINUOUS
  66
1
  70
0
  40
0.0098
  41
0.0098
  0
VERTEX
  8
Net
  10
3.1189
  20
1.0304
  42
0
  0
VERTEX
  8
Net
  10
3.2377
  20
1.0304
  42
0
  0
SEQEND
  0
POLYLINE
  8
Net
  6
CONTINUOUS
  66
1
  70
0
  40
0.0049
  41
0.0049
  0
VERTEX
  8
Net
  10
3.1165
  20
1.0304
  42
1
  0
VERTEX
  8
Net
  10
3.1214
  20
1.0304
  42
1
  0
VERTEX
  8
Net
  10
3.1165
  20
1.0304
  42
1
  0
SEQEND
  0
POLYLINE
  8
Net
  6
CONTINUOUS
  66
1
  70
0
  40
0.0049
  41
0.0049
  0
VERTEX
  8
Net
  10
3.2352
  20
1.0304
  42
1
  0
VERTEX
  8
Net
  10
3.2402
  20
1.0304
  42
1
  0
VERTEX
  8
Net
  10
3.2352
  20
1.0304
  42
1
  0
SEQEND
  0
POLYLINE
  8
Net
  6
CONTINUOUS
  66
1
  70
0
  40
0.0098
  41
0.0098
  0
VERTEX
  8
Net
  10
3.2377
  20
1.0304
  42
0
  0
VERTEX
  8
Net
  10
3.2377
  20
1.0241
  42
0
  0
SEQEND
  0
POLYLINE
  8
Net
  6
CONTINUOUS
  66
1
  70
0
  40
0.0049
  41
0.0049
  0
VERTEX
  8
Net
  10
3.2352
  20
1.0304
  42
1
  0
VERTEX
  8
Net
  10
3.2402
  20
1.0304
  42
1
  0
VERTEX
  8
Net
  10
3.2352
  20
1.0304
  42
1
  0
SEQEND
  0
POLYLINE
  8
Net
  6
CONTINUOUS
  66
1
  70
0
  40
0.0049
  41
0.0049
  0
VERTEX
  8
Net
  10
3.2352
  20
1.0241
  42
1
  0
VERTEX
  8
Net
  10
3.2402
  20
1.0241
  42
1
  0
VERTEX
  8
Net
  10
3.2352
  20
1.0241
  42
1
  0
SEQEND
  0
POLYLINE
  8
Net
  6
CONTINUOUS
  66
1
  70
0
  40
0.0098
  41
0.0098
  0
VERTEX
  8
Net
  10
1.025
  20
1.0116
  42
0
  0
VERTEX
  8
Net
  10
1.175
  20
1.0116
  42
0
  0
SEQEND
  0
POLYLINE
  8
Net
  6
CONTINUOUS
  66
1
  70
0
  40
0.0049
  41
0.0049
  0
VERTEX
  8
Net
  10
1.0225
  20
1.0116
  42
1
  0
VERTEX
  8
Net
  10
1.0274
  20
1.0116
  42
1
  0
VERTEX
  8
Net
  10
1.0225
  20
1.0116
  42
1
  0
SEQEND
  0
POLYLINE
  8
Net
  6
CONTINUOUS
  66
1
  70
0
  40
0.0049
  41
0.0049
  0
VERTEX
  8
Net
  10
1.1725
  20
1.0116
  42
1
  0
VERTEX
  8
Net
  10
1.1775
  20
1.0116
  42
1
  0
VERTEX
  8
Net
  10
1.1725
  20
1.0116
  42
1
  0
SEQEND
  0
POLYLINE
  8
Net
  6
CONTINUOUS
  66
1
  70
0
  40
0.0098
  41
0.0098
  0
VERTEX
  8
Net
  10
1.0151
  20
1.0116
  42
0
  0
VERTEX
  8
Net
  10
1.0156
  20
1.0086
  42
0
  0
VERTEX
  8
Net
  10
1.017
  20
1.0058
  42
0
  0
VERTEX
  8
Net
  10
1.0192
  20
1.0037
  42
0
  0
VERTEX
  8
Net
  10
1.0219
  20
1.0023
  42
0
  0
VERTEX
  8
Net
  10
1.025
  20
1.0018
  42
0
  0
VERTEX
  8
Net
  10
1.028
  20
1.0023
  42
0
  0
VERTEX
  8
Net
  10
1.0308
  20
1.0037
  42
0
  0
VERTEX
  8
Net
  10
1.0329
  20
1.0058
  42
0
  0
VERTEX
  8
Net
  10
1.0343
  20
1.0086
  42
0
  0
VERTEX
  8
Net
  10
1.0348
  20
1.0116
  42
0
  0
VERTEX
  8
Net
  10
1.0343
  20
1.0147
  42
0
  0
VERTEX
  8
Net
  10
1.0329
  20
1.0174
  42
0
  0
VERTEX
  8
Net
  10
1.0308
  20
1.0196
  42
0
  0
VERTEX
  8
Net
  10
1.028
  20
1.021
  42
0
  0
VERTEX
  8
Net
  10
1.025
  20
1.0215
  42
0
  0
VERTEX
  8
Net
  10
1.0219
  20
1.021
  42
0
  0
VERTEX
  8
Net
  10
1.0192
  20
1.0196
  42
0
  0
VERTEX
  8
Net
  10
1.017
  20
1.0174
  42
0
  0
VERTEX
  8
Net
  10
1.0156
  20
1.0147
  42
0
  0
VERTEX
  8
Net
  10
1.0151
  20
1.0116
  42
0
  0
SEQEND
  0
POLYLINE
  8
Net
  6
CONTINUOUS
  66
1
  70
0
  40
0.0049
  41
0.0049
  0
VERTEX
  8
Net
  10
1.0127
  20
1.0116
  42
1
  0
VERTEX
  8
Net
  10
1.0176
  20
1.0116
  42
1
  0
VERTEX
  8
Net
  10
1.0127
  20
1.0116
  42
1
  0
SEQEND
  0
POLYLINE
  8
Net
  6
CONTINUOUS
  66
1
  70
0
  40
0.0098
  41
0.0098
  0
VERTEX
  8
Net
  10
0.8875
  20
1.0116
  42
0
  0
VERTEX
  8
Net
  10
1.025
  20
1.0116
  42
0
  0
SEQEND
  0
POLYLINE
  8
Net
  6
CONTINUOUS
  66
1
  70
0
  40
0.0049
  41
0.0049
  0
VERTEX
  8
Net
  10
0.885
  20
1.0116
  42
1
  0
VERTEX
  8
Net
  10
0.8899
  20
1.0116
  42
1
  0
VERTEX
  8
Net
  10
0.885
  20
1.0116
  42
1
  0
SEQEND
  0
POLYLINE
  8
Net
  6
CONTINUOUS
  66
1
  70
0
  40
0.0049
  41
0.0049
  0
VERTEX
  8
Net
  10
1.0225
  20
1.0116
  42
1
  0
VERTEX
  8
Net
  10
1.0274
  20
1.0116
  42
1
  0
VERTEX
  8
Net
  10
1.0225
  20
1.0116
  42
1
  0
SEQEND
  0
POLYLINE
  8
Net
  6
CONTINUOUS
  66
1
  70
0
  40
0.0098
  41
0.0098
  0
VERTEX
  8
Net
  10
1.025
  20
1.0116
  42
0
  0
VERTEX
  8
Net
  10
1.025
  20
1.0116
  42
0
  0
SEQEND
  0
POLYLINE
  8
Net
  6
CONTINUOUS
  66
1
  70
0
  40
0.0049
  41
0.0049
  0
VERTEX
  8
Net
  10
1.0225
  20
1.0116
  42
1
  0
VERTEX
  8
Net
  10
1.0274
  20
1.0116
  42
1
  0
VERTEX
  8
Net
  10
1.0225
  20
1.0116
  42
1
  0
SEQEND
  0
POLYLINE
  8
Net
  6
CONTINUOUS
  66
1
  70
0
  40
0.0098
  41
0.0098
  0
VERTEX
  8
Net
  10
1.025
  20
1.0116
  42
0
  0
VERTEX
  8
Net
  10
1.025
  20
1.0116
  42
0
  0
SEQEND
  0
POLYLINE
  8
Net
  6
CONTINUOUS
  66
1
  70
0
  40
0.0049
  41
0.0049
  0
VERTEX
  8
Net
  10
1.0225
  20
1.0116
  42
1
  0
VERTEX
  8
Net
  10
1.0274
  20
1.0116
  42
1
  0
VERTEX
  8
Net
  10
1.0225
  20
1.0116
  42
1
  0
SEQEND
  0
POLYLINE
  8
Net
  6
CONTINUOUS
  66
1
  70
0
  40
0.0098
  41
0.0098
  0
VERTEX
  8
Net
  10
2.1063
  20
4.037
  42
0
  0
VERTEX
  8
Net
  10
2.0376
  20
4.037
  42
0
  0
SEQEND
  0
POLYLINE
  8
Net
  6
CONTINUOUS
  66
1
  70
0
  40
0.0049
  41
0.0049
  0
VERTEX
  8
Net
  10
2.1039
  20
4.037
  42
1
  0
VERTEX
  8
Net
  10
2.1088
  20
4.037
  42
1
  0
VERTEX
  8
Net
  10
2.1039
  20
4.037
  42
1
  0
SEQEND
  0
POLYLINE
  8
Net
  6
CONTINUOUS
  66
1
  70
0
  40
0.0049
  41
0.0049
  0
VERTEX
  8
Net
  10
2.0351
  20
4.037
  42
1
  0
VERTEX
  8
Net
  10
2.04
  20
4.037
  42
1
  0
VERTEX
  8
Net
  10
2.0351
  20
4.037
  42
1
  0
SEQEND
  0
POLYLINE
  8
Net
  6
CONTINUOUS
  66
1
  70
0
  40
0.0098
  41
0.0098
  0
VERTEX
  8
Net
  10
2.0376
  20
4.037
  42
0
  0
VERTEX
  8
Net
  10
2.0376
  20
4.137
  42
0
  0
SEQEND
  0
POLYLINE
  8
Net
  6
CONTINUOUS
  66
1
  70
0
  40
0.0049
  41
0.0049
  0
VERTEX
  8
Net
  10
2.0351
  20
4.037
  42
1
  0
VERTEX
  8
Net
  10
2.04
  20
4.037
  42
1
  0
VERTEX
  8
Net
  10
2.0351
  20
4.037
  42
1
  0
SEQEND
  0
POLYLINE
  8
Net
  6
CONTINUOUS
  66
1
  70
0
  40
0.0049
  41
0.0049
  0
VERTEX
  8
Net
  10
2.0351
  20
4.137
  42
1
  0
VERTEX
  8
Net
  10
2.04
  20
4.137
  42
1
  0
VERTEX
  8
Net
  10
2.0351
  20
4.137
  42
1
  0
SEQEND
  0
POLYLINE
  8
Net
  6
CONTINUOUS
  66
1
  70
0
  40
0.0098
  41
0.0098
  0
VERTEX
  8
Net
  10
2.0376
  20
4.137
  42
0
  0
VERTEX
  8
Net
  10
2.1063
  20
4.137
  42
0
  0
SEQEND
  0
POLYLINE
  8
Net
  6
CONTINUOUS
  66
1
  70
0
  40
0.0049
  41
0.0049
  0
VERTEX
  8
Net
  10
2.0351
  20
4.137
  42
1
  0
VERTEX
  8
Net
  10
2.04
  20
4.137
  42
1
  0
VERTEX
  8
Net
  10
2.0351
  20
4.137
  42
1
  0
SEQEND
  0
POLYLINE
  8
Net
  6
CONTINUOUS
  66
1
  70
0
  40
0.0049
  41
0.0049
  0
VERTEX
  8
Net
  10
2.1039
  20
4.137
  42
1
  0
VERTEX
  8
Net
  10
2.1088
  20
4.137
  42
1
  0
VERTEX
  8
Net
  10
2.1039
  20
4.137
  42
1
  0
SEQEND
  0
POLYLINE
  8
Net
  6
CONTINUOUS
  66
1
  70
0
  40
0.0098
  41
0.0098
  0
VERTEX
  8
Net
  10
2.034
  20
4.137
  42
0
  0
VERTEX
  8
Net
  10
2.0345
  20
4.1339
  42
0
  0
VERTEX
  8
Net
  10
2.0359
  20
4.1312
  42
0
  0
VERTEX
  8
Net
  10
2.038
  20
4.129
  42
0
  0
VERTEX
  8
Net
  10
2.0408
  20
4.1276
  42
0
  0
VERTEX
  8
Net
  10
2.0438
  20
4.1271
  42
0
  0
VERTEX
  8
Net
  10
2.0469
  20
4.1276
  42
0
  0
VERTEX
  8
Net
  10
2.0496
  20
4.129
  42
0
  0
VERTEX
  8
Net
  10
2.0518
  20
4.1312
  42
0
  0
VERTEX
  8
Net
  10
2.0532
  20
4.1339
  42
0
  0
VERTEX
  8
Net
  10
2.0537
  20
4.137
  42
0
  0
VERTEX
  8
Net
  10
2.0532
  20
4.14
  42
0
  0
VERTEX
  8
Net
  10
2.0518
  20
4.1428
  42
0
  0
VERTEX
  8
Net
  10
2.0496
  20
4.1449
  42
0
  0
VERTEX
  8
Net
  10
2.0469
  20
4.1463
  42
0
  0
VERTEX
  8
Net
  10
2.0438
  20
4.1468
  42
0
  0
VERTEX
  8
Net
  10
2.0408
  20
4.1463
  42
0
  0
VERTEX
  8
Net
  10
2.038
  20
4.1449
  42
0
  0
VERTEX
  8
Net
  10
2.0359
  20
4.1428
  42
0
  0
VERTEX
  8
Net
  10
2.0345
  20
4.14
  42
0
  0
VERTEX
  8
Net
  10
2.034
  20
4.137
  42
0
  0
SEQEND
  0
POLYLINE
  8
Net
  6
CONTINUOUS
  66
1
  70
0
  40
0.0049
  41
0.0049
  0
VERTEX
  8
Net
  10
2.0315
  20
4.137
  42
1
  0
VERTEX
  8
Net
  10
2.0365
  20
4.137
  42
1
  0
VERTEX
  8
Net
  10
2.0315
  20
4.137
  42
1
  0
SEQEND
  0
POLYLINE
  8
Net
  6
CONTINUOUS
  66
1
  70
0
  40
0.0098
  41
0.0098
  0
VERTEX
  8
Net
  10
2.1063
  20
4.237
  42
0
  0
VERTEX
  8
Net
  10
2.0438
  20
4.237
  42
0
  0
SEQEND
  0
POLYLINE
  8
Net
  6
CONTINUOUS
  66
1
  70
0
  40
0.0049
  41
0.0049
  0
VERTEX
  8
Net
  10
2.1039
  20
4.237
  42
1
  0
VERTEX
  8
Net
  10
2.1088
  20
4.237
  42
1
  0
VERTEX
  8
Net
  10
2.1039
  20
4.237
  42
1
  0
SEQEND
  0
POLYLINE
  8
Net
  6
CONTINUOUS
  66
1
  70
0
  40
0.0049
  41
0.0049
  0
VERTEX
  8
Net
  10
2.0414
  20
4.237
  42
1
  0
VERTEX
  8
Net
  10
2.0463
  20
4.237
  42
1
  0
VERTEX
  8
Net
  10
2.0414
  20
4.237
  42
1
  0
SEQEND
  0
POLYLINE
  8
Net
  6
CONTINUOUS
  66
1
  70
0
  40
0.0098
  41
0.0098
  0
VERTEX
  8
Net
  10
2.0438
  20
4.237
  42
0
  0
VERTEX
  8
Net
  10
2.0438
  20
4.137
  42
0
  0
SEQEND
  0
POLYLINE
  8
Net
  6
CONTINUOUS
  66
1
  70
0
  40
0.0049
  41
0.0049
  0
VERTEX
  8
Net
  10
2.0414
  20
4.237
  42
1
  0
VERTEX
  8
Net
  10
2.0463
  20
4.237
  42
1
  0
VERTEX
  8
Net
  10
2.0414
  20
4.237
  42
1
  0
SEQEND
  0
POLYLINE
  8
Net
  6
CONTINUOUS
  66
1
  70
0
  40
0.0049
  41
0.0049
  0
VERTEX
  8
Net
  10
2.0414
  20
4.137
  42
1
  0
VERTEX
  8
Net
  10
2.0463
  20
4.137
  42
1
  0
VERTEX
  8
Net
  10
2.0414
  20
4.137
  42
1
  0
SEQEND
  0
POLYLINE
  8
Net
  6
CONTINUOUS
  66
1
  70
0
  40
0.0098
  41
0.0098
  0
VERTEX
  8
Net
  10
2.0277
  20
4.037
  42
0
  0
VERTEX
  8
Net
  10
2.0282
  20
4.0339
  42
0
  0
VERTEX
  8
Net
  10
2.0296
  20
4.0312
  42
0
  0
VERTEX
  8
Net
  10
2.0318
  20
4.029
  42
0
  0
VERTEX
  8
Net
  10
2.0345
  20
4.0276
  42
0
  0
VERTEX
  8
Net
  10
2.0376
  20
4.0271
  42
0
  0
VERTEX
  8
Net
  10
2.0406
  20
4.0276
  42
0
  0
VERTEX
  8
Net
  10
2.0434
  20
4.029
  42
0
  0
VERTEX
  8
Net
  10
2.0455
  20
4.0312
  42
0
  0
VERTEX
  8
Net
  10
2.0469
  20
4.0339
  42
0
  0
VERTEX
  8
Net
  10
2.0474
  20
4.037
  42
0
  0
VERTEX
  8
Net
  10
2.0469
  20
4.04
  42
0
  0
VERTEX
  8
Net
  10
2.0455
  20
4.0428
  42
0
  0
VERTEX
  8
Net
  10
2.0434
  20
4.0449
  42
0
  0
VERTEX
  8
Net
  10
2.0406
  20
4.0463
  42
0
  0
VERTEX
  8
Net
  10
2.0376
  20
4.0468
  42
0
  0
VERTEX
  8
Net
  10
2.0345
  20
4.0463
  42
0
  0
VERTEX
  8
Net
  10
2.0318
  20
4.0449
  42
0
  0
VERTEX
  8
Net
  10
2.0296
  20
4.0428
  42
0
  0
VERTEX
  8
Net
  10
2.0282
  20
4.04
  42
0
  0
VERTEX
  8
Net
  10
2.0277
  20
4.037
  42
0
  0
SEQEND
  0
POLYLINE
  8
Net
  6
CONTINUOUS
  66
1
  70
0
  40
0.0049
  41
0.0049
  0
VERTEX
  8
Net
  10
2.0253
  20
4.037
  42
1
  0
VERTEX
  8
Net
  10
2.0302
  20
4.037
  42
1
  0
VERTEX
  8
Net
  10
2.0253
  20
4.037
  42
1
  0
SEQEND
  0
POLYLINE
  8
Net
  6
CONTINUOUS
  66
1
  70
0
  40
0.0098
  41
0.0098
  0
VERTEX
  8
Net
  10
2.0376
  20
4.037
  42
0
  0
VERTEX
  8
Net
  10
1.3938
  20
4.037
  42
0
  0
SEQEND
  0
POLYLINE
  8
Net
  6
CONTINUOUS
  66
1
  70
0
  40
0.0049
  41
0.0049
  0
VERTEX
  8
Net
  10
2.0351
  20
4.037
  42
1
  0
VERTEX
  8
Net
  10
2.04
  20
4.037
  42
1
  0
VERTEX
  8
Net
  10
2.0351
  20
4.037
  42
1
  0
SEQEND
  0
POLYLINE
  8
Net
  6
CONTINUOUS
  66
1
  70
0
  40
0.0049
  41
0.0049
  0
VERTEX
  8
Net
  10
1.3913
  20
4.037
  42
1
  0
VERTEX
  8
Net
  10
1.3962
  20
4.037
  42
1
  0
VERTEX
  8
Net
  10
1.3913
  20
4.037
  42
1
  0
SEQEND
  0
POLYLINE
  8
Net
  6
CONTINUOUS
  66
1
  70
0
  40
0.0098
  41
0.0098
  0
VERTEX
  8
Net
  10
1.3938
  20
4.037
  42
0
  0
VERTEX
  8
Net
  10
1.3938
  20
3.6057
  42
0
  0
SEQEND
  0
POLYLINE
  8
Net
  6
CONTINUOUS
  66
1
  70
0
  40
0.0049
  41
0.0049
  0
VERTEX
  8
Net
  10
1.3913
  20
4.037
  42
1
  0
VERTEX
  8
Net
  10
1.3962
  20
4.037
  42
1
  0
VERTEX
  8
Net
  10
1.3913
  20
4.037
  42
1
  0
SEQEND
  0
POLYLINE
  8
Net
  6
CONTINUOUS
  66
1
  70
0
  40
0.0049
  41
0.0049
  0
VERTEX
  8
Net
  10
1.3913
  20
3.6057
  42
1
  0
VERTEX
  8
Net
  10
1.3962
  20
3.6057
  42
1
  0
VERTEX
  8
Net
  10
1.3913
  20
3.6057
  42
1
  0
SEQEND
  0
POLYLINE
  8
Net
  6
CONTINUOUS
  66
1
  70
0
  40
0.0098
  41
0.0098
  0
VERTEX
  8
Net
  10
1.3938
  20
3.6057
  42
0
  0
VERTEX
  8
Net
  10
1.4688
  20
3.6057
  42
0
  0
SEQEND
  0
POLYLINE
  8
Net
  6
CONTINUOUS
  66
1
  70
0
  40
0.0049
  41
0.0049
  0
VERTEX
  8
Net
  10
1.3913
  20
3.6057
  42
1
  0
VERTEX
  8
Net
  10
1.3962
  20
3.6057
  42
1
  0
VERTEX
  8
Net
  10
1.3913
  20
3.6057
  42
1
  0
SEQEND
  0
POLYLINE
  8
Net
  6
CONTINUOUS
  66
1
  70
0
  40
0.0049
  41
0.0049
  0
VERTEX
  8
Net
  10
1.4664
  20
3.6057
  42
1
  0
VERTEX
  8
Net
  10
1.4713
  20
3.6057
  42
1
  0
VERTEX
  8
Net
  10
1.4664
  20
3.6057
  42
1
  0
SEQEND
  0
POLYLINE
  8
Net
  6
CONTINUOUS
  66
1
  70
0
  40
0.0098
  41
0.0098
  0
VERTEX
  8
Net
  10
2.034
  20
4.037
  42
0
  0
VERTEX
  8
Net
  10
2.0345
  20
4.0339
  42
0
  0
VERTEX
  8
Net
  10
2.0359
  20
4.0312
  42
0
  0
VERTEX
  8
Net
  10
2.038
  20
4.029
  42
0
  0
VERTEX
  8
Net
  10
2.0408
  20
4.0276
  42
0
  0
VERTEX
  8
Net
  10
2.0438
  20
4.0271
  42
0
  0
VERTEX
  8
Net
  10
2.0469
  20
4.0276
  42
0
  0
VERTEX
  8
Net
  10
2.0496
  20
4.029
  42
0
  0
VERTEX
  8
Net
  10
2.0518
  20
4.0312
  42
0
  0
VERTEX
  8
Net
  10
2.0532
  20
4.0339
  42
0
  0
VERTEX
  8
Net
  10
2.0537
  20
4.037
  42
0
  0
VERTEX
  8
Net
  10
2.0532
  20
4.04
  42
0
  0
VERTEX
  8
Net
  10
2.0518
  20
4.0428
  42
0
  0
VERTEX
  8
Net
  10
2.0496
  20
4.0449
  42
0
  0
VERTEX
  8
Net
  10
2.0469
  20
4.0463
  42
0
  0
VERTEX
  8
Net
  10
2.0438
  20
4.0468
  42
0
  0
VERTEX
  8
Net
  10
2.0408
  20
4.0463
  42
0
  0
VERTEX
  8
Net
  10
2.038
  20
4.0449
  42
0
  0
VERTEX
  8
Net
  10
2.0359
  20
4.0428
  42
0
  0
VERTEX
  8
Net
  10
2.0345
  20
4.04
  42
0
  0
VERTEX
  8
Net
  10
2.034
  20
4.037
  42
0
  0
SEQEND
  0
POLYLINE
  8
Net
  6
CONTINUOUS
  66
1
  70
0
  40
0.0049
  41
0.0049
  0
VERTEX
  8
Net
  10
2.0315
  20
4.037
  42
1
  0
VERTEX
  8
Net
  10
2.0365
  20
4.037
  42
1
  0
VERTEX
  8
Net
  10
2.0315
  20
4.037
  42
1
  0
SEQEND
  0
POLYLINE
  8
Net
  6
CONTINUOUS
  66
1
  70
0
  40
0.0098
  41
0.0098
  0
VERTEX
  8
Net
  10
3.1378
  20
3.5932
  42
0
  0
VERTEX
  8
Net
  10
2.2064
  20
3.5932
  42
0
  0
SEQEND
  0
POLYLINE
  8
Net
  6
CONTINUOUS
  66
1
  70
0
  40
0.0049
  41
0.0049
  0
VERTEX
  8
Net
  10
3.1353
  20
3.5932
  42
1
  0
VERTEX
  8
Net
  10
3.1402
  20
3.5932
  42
1
  0
VERTEX
  8
Net
  10
3.1353
  20
3.5932
  42
1
  0
SEQEND
  0
POLYLINE
  8
Net
  6
CONTINUOUS
  66
1
  70
0
  40
0.0049
  41
0.0049
  0
VERTEX
  8
Net
  10
2.2039
  20
3.5932
  42
1
  0
VERTEX
  8
Net
  10
2.2088
  20
3.5932
  42
1
  0
VERTEX
  8
Net
  10
2.2039
  20
3.5932
  42
1
  0
SEQEND
  0
POLYLINE
  8
Net
  6
CONTINUOUS
  66
1
  70
0
  40
0.0098
  41
0.0098
  0
VERTEX
  8
Net
  10
2.2064
  20
3.5932
  42
0
  0
VERTEX
  8
Net
  10
2.2064
  20
3.8119
  42
0
  0
SEQEND
  0
POLYLINE
  8
Net
  6
CONTINUOUS
  66
1
  70
0
  40
0.0049
  41
0.0049
  0
VERTEX
  8
Net
  10
2.2039
  20
3.5932
  42
1
  0
VERTEX
  8
Net
  10
2.2088
  20
3.5932
  42
1
  0
VERTEX
  8
Net
  10
2.2039
  20
3.5932
  42
1
  0
SEQEND
  0
POLYLINE
  8
Net
  6
CONTINUOUS
  66
1
  70
0
  40
0.0049
  41
0.0049
  0
VERTEX
  8
Net
  10
2.2039
  20
3.8119
  42
1
  0
VERTEX
  8
Net
  10
2.2088
  20
3.8119
  42
1
  0
VERTEX
  8
Net
  10
2.2039
  20
3.8119
  42
1
  0
SEQEND
  0
POLYLINE
  8
Net
  6
CONTINUOUS
  66
1
  70
0
  40
0.0098
  41
0.0098
  0
VERTEX
  8
Net
  10
2.2064
  20
3.8119
  42
0
  0
VERTEX
  8
Net
  10
2.0438
  20
3.8119
  42
0
  0
SEQEND
  0
POLYLINE
  8
Net
  6
CONTINUOUS
  66
1
  70
0
  40
0.0049
  41
0.0049
  0
VERTEX
  8
Net
  10
2.2039
  20
3.8119
  42
1
  0
VERTEX
  8
Net
  10
2.2088
  20
3.8119
  42
1
  0
VERTEX
  8
Net
  10
2.2039
  20
3.8119
  42
1
  0
SEQEND
  0
POLYLINE
  8
Net
  6
CONTINUOUS
  66
1
  70
0
  40
0.0049
  41
0.0049
  0
VERTEX
  8
Net
  10
2.0414
  20
3.8119
  42
1
  0
VERTEX
  8
Net
  10
2.0463
  20
3.8119
  42
1
  0
VERTEX
  8
Net
  10
2.0414
  20
3.8119
  42
1
  0
SEQEND
  0
POLYLINE
  8
Net
  6
CONTINUOUS
  66
1
  70
0
  40
0.0098
  41
0.0098
  0
VERTEX
  8
Net
  10
2.0438
  20
3.8119
  42
0
  0
VERTEX
  8
Net
  10
2.0438
  20
4.037
  42
0
  0
SEQEND
  0
POLYLINE
  8
Net
  6
CONTINUOUS
  66
1
  70
0
  40
0.0049
  41
0.0049
  0
VERTEX
  8
Net
  10
2.0414
  20
3.8119
  42
1
  0
VERTEX
  8
Net
  10
2.0463
  20
3.8119
  42
1
  0
VERTEX
  8
Net
  10
2.0414
  20
3.8119
  42
1
  0
SEQEND
  0
POLYLINE
  8
Net
  6
CONTINUOUS
  66
1
  70
0
  40
0.0049
  41
0.0049
  0
VERTEX
  8
Net
  10
2.0414
  20
4.037
  42
1
  0
VERTEX
  8
Net
  10
2.0463
  20
4.037
  42
1
  0
VERTEX
  8
Net
  10
2.0414
  20
4.037
  42
1
  0
SEQEND
  0
TEXT
  8
Pin
  10
1.4888
  20
2.136
  40
0.0292
  41
0.7
  1
1
  50
0.0
  72
0
  73
3
  7
STANDARD
  71
0
  11
1.4888
  21
2.136
  0
POLYLINE
  8
Pin
  6
CONTINUOUS
  66
1
  70
0
  40
0.0098
  41
0.0098
  0
VERTEX
  8
Pin
  10
1.4625
  20
2.0867
  42
0
  0
VERTEX
  8
Pin
  10
1.5625
  20
2.0867
  42
0
  0
SEQEND
  0
POLYLINE
  8
Pin
  6
CONTINUOUS
  66
1
  70
0
  40
0.0049
  41
0.0049
  0
VERTEX
  8
Pin
  10
1.4601
  20
2.0867
  42
1
  0
VERTEX
  8
Pin
  10
1.465
  20
2.0867
  42
1
  0
VERTEX
  8
Pin
  10
1.4601
  20
2.0867
  42
1
  0
SEQEND
  0
POLYLINE
  8
Pin
  6
CONTINUOUS
  66
1
  70
0
  40
0.0049
  41
0.0049
  0
VERTEX
  8
Pin
  10
1.5601
  20
2.0867
  42
1
  0
VERTEX
  8
Pin
  10
1.565
  20
2.0867
  42
1
  0
VERTEX
  8
Pin
  10
1.5601
  20
2.0867
  42
1
  0
SEQEND
  0
TEXT
  8
Pin
  10
1.265
  20
2.136
  40
0.0292
  41
0.7
  1
2
  50
0.0
  72
0
  73
3
  7
STANDARD
  71
0
  11
1.265
  21
2.136
  0
POLYLINE
  8
Pin
  6
CONTINUOUS
  66
1
  70
0
  40
0.0098
  41
0.0098
  0
VERTEX
  8
Pin
  10
1.3125
  20
2.0867
  42
0
  0
VERTEX
  8
Pin
  10
1.2125
  20
2.0867
  42
0
  0
SEQEND
  0
POLYLINE
  8
Pin
  6
CONTINUOUS
  66
1
  70
0
  40
0.0049
  41
0.0049
  0
VERTEX
  8
Pin
  10
1.3101
  20
2.0867
  42
1
  0
VERTEX
  8
Pin
  10
1.315
  20
2.0867
  42
1
  0
VERTEX
  8
Pin
  10
1.3101
  20
2.0867
  42
1
  0
SEQEND
  0
POLYLINE
  8
Pin
  6
CONTINUOUS
  66
1
  70
0
  40
0.0049
  41
0.0049
  0
VERTEX
  8
Pin
  10
1.2101
  20
2.0867
  42
1
  0
VERTEX
  8
Pin
  10
1.215
  20
2.0867
  42
1
  0
VERTEX
  8
Pin
  10
1.2101
  20
2.0867
  42
1
  0
SEQEND
  0
TEXT
  8
Pin
  10
3.6765
  20
2.1672
  40
0.0292
  41
0.7
  1
1
  50
0.0
  72
0
  73
3
  7
STANDARD
  71
0
  11
3.6765
  21
2.1672
  0
POLYLINE
  8
Pin
  6
CONTINUOUS
  66
1
  70
0
  40
0.0098
  41
0.0098
  0
VERTEX
  8
Pin
  10
3.6503
  20
2.118
  42
0
  0
VERTEX
  8
Pin
  10
3.7503
  20
2.118
  42
0
  0
SEQEND
  0
POLYLINE
  8
Pin
  6
CONTINUOUS
  66
1
  70
0
  40
0.0049
  41
0.0049
  0
VERTEX
  8
Pin
  10
3.6478
  20
2.118
  42
1
  0
VERTEX
  8
Pin
  10
3.6527
  20
2.118
  42
1
  0
VERTEX
  8
Pin
  10
3.6478
  20
2.118
  42
1
  0
SEQEND
  0
POLYLINE
  8
Pin
  6
CONTINUOUS
  66
1
  70
0
  40
0.0049
  41
0.0049
  0
VERTEX
  8
Pin
  10
3.7478
  20
2.118
  42
1
  0
VERTEX
  8
Pin
  10
3.7527
  20
2.118
  42
1
  0
VERTEX
  8
Pin
  10
3.7478
  20
2.118
  42
1
  0
SEQEND
  0
TEXT
  8
Pin
  10
3.4527
  20
2.1672
  40
0.0292
  41
0.7
  1
2
  50
0.0
  72
0
  73
3
  7
STANDARD
  71
0
  11
3.4527
  21
2.1672
  0
POLYLINE
  8
Pin
  6
CONTINUOUS
  66
1
  70
0
  40
0.0098
  41
0.0098
  0
VERTEX
  8
Pin
  10
3.5003
  20
2.118
  42
0
  0
VERTEX
  8
Pin
  10
3.4003
  20
2.118
  42
0
  0
SEQEND
  0
POLYLINE
  8
Pin
  6
CONTINUOUS
  66
1
  70
0
  40
0.0049
  41
0.0049
  0
VERTEX
  8
Pin
  10
3.4978
  20
2.118
  42
1
  0
VERTEX
  8
Pin
  10
3.5027
  20
2.118
  42
1
  0
VERTEX
  8
Pin
  10
3.4978
  20
2.118
  42
1
  0
SEQEND
  0
POLYLINE
  8
Pin
  6
CONTINUOUS
  66
1
  70
0
  40
0.0049
  41
0.0049
  0
VERTEX
  8
Pin
  10
3.3978
  20
2.118
  42
1
  0
VERTEX
  8
Pin
  10
3.4027
  20
2.118
  42
1
  0
VERTEX
  8
Pin
  10
3.3978
  20
2.118
  42
1
  0
SEQEND
  0
TEXT
  8
Pin
  10
1.2399
  20
1.5171
  40
0.0292
  41
0.7
  1
1
  50
0.0
  72
0
  73
3
  7
STANDARD
  71
0
  11
1.2399
  21
1.5171
  0
POLYLINE
  8
Pin
  6
CONTINUOUS
  66
1
  70
0
  40
0.0098
  41
0.0098
  0
VERTEX
  8
Pin
  10
1.2875
  20
1.4679
  42
0
  0
VERTEX
  8
Pin
  10
1.1375
  20
1.4679
  42
0
  0
SEQEND
  0
POLYLINE
  8
Pin
  6
CONTINUOUS
  66
1
  70
0
  40
0.0049
  41
0.0049
  0
VERTEX
  8
Pin
  10
1.285
  20
1.4679
  42
1
  0
VERTEX
  8
Pin
  10
1.2899
  20
1.4679
  42
1
  0
VERTEX
  8
Pin
  10
1.285
  20
1.4679
  42
1
  0
SEQEND
  0
POLYLINE
  8
Pin
  6
CONTINUOUS
  66
1
  70
0
  40
0.0049
  41
0.0049
  0
VERTEX
  8
Pin
  10
1.135
  20
1.4679
  42
1
  0
VERTEX
  8
Pin
  10
1.1399
  20
1.4679
  42
1
  0
VERTEX
  8
Pin
  10
1.135
  20
1.4679
  42
1
  0
SEQEND
  0
TEXT
  8
Pin
  10
1.4637
  20
1.5171
  40
0.0292
  41
0.7
  1
2
  50
0.0
  72
0
  73
3
  7
STANDARD
  71
0
  11
1.4637
  21
1.5171
  0
POLYLINE
  8
Pin
  6
CONTINUOUS
  66
1
  70
0
  40
0.0098
  41
0.0098
  0
VERTEX
  8
Pin
  10
1.4375
  20
1.4679
  42
0
  0
VERTEX
  8
Pin
  10
1.5875
  20
1.4679
  42
0
  0
SEQEND
  0
POLYLINE
  8
Pin
  6
CONTINUOUS
  66
1
  70
0
  40
0.0049
  41
0.0049
  0
VERTEX
  8
Pin
  10
1.435
  20
1.4679
  42
1
  0
VERTEX
  8
Pin
  10
1.4399
  20
1.4679
  42
1
  0
VERTEX
  8
Pin
  10
1.435
  20
1.4679
  42
1
  0
SEQEND
  0
POLYLINE
  8
Pin
  6
CONTINUOUS
  66
1
  70
0
  40
0.0049
  41
0.0049
  0
VERTEX
  8
Pin
  10
1.585
  20
1.4679
  42
1
  0
VERTEX
  8
Pin
  10
1.5899
  20
1.4679
  42
1
  0
VERTEX
  8
Pin
  10
1.585
  20
1.4679
  42
1
  0
SEQEND
  0
TEXT
  8
Pin
  10
3.3964
  20
1.5546
  40
0.0292
  41
0.7
  1
1
  50
0.0
  72
0
  73
3
  7
STANDARD
  71
0
  11
3.3964
  21
1.5546
  0
POLYLINE
  8
Pin
  6
CONTINUOUS
  66
1
  70
0
  40
0.0098
  41
0.0098
  0
VERTEX
  8
Pin
  10
3.444
  20
1.5054
  42
0
  0
VERTEX
  8
Pin
  10
3.294
  20
1.5054
  42
0
  0
SEQEND
  0
POLYLINE
  8
Pin
  6
CONTINUOUS
  66
1
  70
0
  40
0.0049
  41
0.0049
  0
VERTEX
  8
Pin
  10
3.4415
  20
1.5054
  42
1
  0
VERTEX
  8
Pin
  10
3.4464
  20
1.5054
  42
1
  0
VERTEX
  8
Pin
  10
3.4415
  20
1.5054
  42
1
  0
SEQEND
  0
POLYLINE
  8
Pin
  6
CONTINUOUS
  66
1
  70
0
  40
0.0049
  41
0.0049
  0
VERTEX
  8
Pin
  10
3.2915
  20
1.5054
  42
1
  0
VERTEX
  8
Pin
  10
3.2964
  20
1.5054
  42
1
  0
VERTEX
  8
Pin
  10
3.2915
  20
1.5054
  42
1
  0
SEQEND
  0
TEXT
  8
Pin
  10
3.6202
  20
1.5546
  40
0.0292
  41
0.7
  1
2
  50
0.0
  72
0
  73
3
  7
STANDARD
  71
0
  11
3.6202
  21
1.5546
  0
POLYLINE
  8
Pin
  6
CONTINUOUS
  66
1
  70
0
  40
0.0098
  41
0.0098
  0
VERTEX
  8
Pin
  10
3.594
  20
1.5054
  42
0
  0
VERTEX
  8
Pin
  10
3.744
  20
1.5054
  42
0
  0
SEQEND
  0
POLYLINE
  8
Pin
  6
CONTINUOUS
  66
1
  70
0
  40
0.0049
  41
0.0049
  0
VERTEX
  8
Pin
  10
3.5915
  20
1.5054
  42
1
  0
VERTEX
  8
Pin
  10
3.5964
  20
1.5054
  42
1
  0
VERTEX
  8
Pin
  10
3.5915
  20
1.5054
  42
1
  0
SEQEND
  0
POLYLINE
  8
Pin
  6
CONTINUOUS
  66
1
  70
0
  40
0.0049
  41
0.0049
  0
VERTEX
  8
Pin
  10
3.7415
  20
1.5054
  42
1
  0
VERTEX
  8
Pin
  10
3.7464
  20
1.5054
  42
1
  0
VERTEX
  8
Pin
  10
3.7415
  20
1.5054
  42
1
  0
SEQEND
  0
TEXT
  8
Pin
  10
0.7637
  20
1.0608
  40
0.0292
  41
0.7
  1
1
  50
0.0
  72
0
  73
3
  7
STANDARD
  71
0
  11
0.7637
  21
1.0608
  0
POLYLINE
  8
Pin
  6
CONTINUOUS
  66
1
  70
0
  40
0.0098
  41
0.0098
  0
VERTEX
  8
Pin
  10
0.7375
  20
1.0116
  42
0
  0
VERTEX
  8
Pin
  10
0.8875
  20
1.0116
  42
0
  0
SEQEND
  0
POLYLINE
  8
Pin
  6
CONTINUOUS
  66
1
  70
0
  40
0.0049
  41
0.0049
  0
VERTEX
  8
Pin
  10
0.735
  20
1.0116
  42
1
  0
VERTEX
  8
Pin
  10
0.7399
  20
1.0116
  42
1
  0
VERTEX
  8
Pin
  10
0.735
  20
1.0116
  42
1
  0
SEQEND
  0
POLYLINE
  8
Pin
  6
CONTINUOUS
  66
1
  70
0
  40
0.0049
  41
0.0049
  0
VERTEX
  8
Pin
  10
0.885
  20
1.0116
  42
1
  0
VERTEX
  8
Pin
  10
0.8899
  20
1.0116
  42
1
  0
VERTEX
  8
Pin
  10
0.885
  20
1.0116
  42
1
  0
SEQEND
  0
TEXT
  8
Pin
  10
0.4899
  20
1.0608
  40
0.0292
  41
0.7
  1
2
  50
0.0
  72
0
  73
3
  7
STANDARD
  71
0
  11
0.4899
  21
1.0608
  0
POLYLINE
  8
Pin
  6
CONTINUOUS
  66
1
  70
0
  40
0.0098
  41
0.0098
  0
VERTEX
  8
Pin
  10
0.5375
  20
1.0116
  42
0
  0
VERTEX
  8
Pin
  10
0.3875
  20
1.0116
  42
0
  0
SEQEND
  0
POLYLINE
  8
Pin
  6
CONTINUOUS
  66
1
  70
0
  40
0.0049
  41
0.0049
  0
VERTEX
  8
Pin
  10
0.535
  20
1.0116
  42
1
  0
VERTEX
  8
Pin
  10
0.5399
  20
1.0116
  42
1
  0
VERTEX
  8
Pin
  10
0.535
  20
1.0116
  42
1
  0
SEQEND
  0
POLYLINE
  8
Pin
  6
CONTINUOUS
  66
1
  70
0
  40
0.0049
  41
0.0049
  0
VERTEX
  8
Pin
  10
0.385
  20
1.0116
  42
1
  0
VERTEX
  8
Pin
  10
0.3899
  20
1.0116
  42
1
  0
VERTEX
  8
Pin
  10
0.385
  20
1.0116
  42
1
  0
SEQEND
  0
TEXT
  8
Pin
  10
2.9952
  20
1.0796
  40
0.0292
  41
0.7
  1
1
  50
0.0
  72
0
  73
3
  7
STANDARD
  71
0
  11
2.9952
  21
1.0796
  0
POLYLINE
  8
Pin
  6
CONTINUOUS
  66
1
  70
0
  40
0.0098
  41
0.0098
  0
VERTEX
  8
Pin
  10
2.9689
  20
1.0304
  42
0
  0
VERTEX
  8
Pin
  10
3.1189
  20
1.0304
  42
0
  0
SEQEND
  0
POLYLINE
  8
Pin
  6
CONTINUOUS
  66
1
  70
0
  40
0.0049
  41
0.0049
  0
VERTEX
  8
Pin
  10
2.9665
  20
1.0304
  42
1
  0
VERTEX
  8
Pin
  10
2.9714
  20
1.0304
  42
1
  0
VERTEX
  8
Pin
  10
2.9665
  20
1.0304
  42
1
  0
SEQEND
  0
POLYLINE
  8
Pin
  6
CONTINUOUS
  66
1
  70
0
  40
0.0049
  41
0.0049
  0
VERTEX
  8
Pin
  10
3.1165
  20
1.0304
  42
1
  0
VERTEX
  8
Pin
  10
3.1214
  20
1.0304
  42
1
  0
VERTEX
  8
Pin
  10
3.1165
  20
1.0304
  42
1
  0
SEQEND
  0
TEXT
  8
Pin
  10
2.7214
  20
1.0796
  40
0.0292
  41
0.7
  1
2
  50
0.0
  72
0
  73
3
  7
STANDARD
  71
0
  11
2.7214
  21
1.0796
  0
POLYLINE
  8
Pin
  6
CONTINUOUS
  66
1
  70
0
  40
0.0098
  41
0.0098
  0
VERTEX
  8
Pin
  10
2.7689
  20
1.0304
  42
0
  0
VERTEX
  8
Pin
  10
2.6189
  20
1.0304
  42
0
  0
SEQEND
  0
POLYLINE
  8
Pin
  6
CONTINUOUS
  66
1
  70
0
  40
0.0049
  41
0.0049
  0
VERTEX
  8
Pin
  10
2.7665
  20
1.0304
  42
1
  0
VERTEX
  8
Pin
  10
2.7714
  20
1.0304
  42
1
  0
VERTEX
  8
Pin
  10
2.7665
  20
1.0304
  42
1
  0
SEQEND
  0
POLYLINE
  8
Pin
  6
CONTINUOUS
  66
1
  70
0
  40
0.0049
  41
0.0049
  0
VERTEX
  8
Pin
  10
2.6165
  20
1.0304
  42
1
  0
VERTEX
  8
Pin
  10
2.6214
  20
1.0304
  42
1
  0
VERTEX
  8
Pin
  10
2.6165
  20
1.0304
  42
1
  0
SEQEND
  0
TEXT
  8
Pin
  10
1.5138
  20
2.536
  40
0.0292
  41
0.7
  1
2
  50
0.0
  72
0
  73
3
  7
STANDARD
  71
0
  11
1.5138
  21
2.536
  0
POLYLINE
  8
Pin
  6
CONTINUOUS
  66
1
  70
0
  40
0.0098
  41
0.0098
  0
VERTEX
  8
Pin
  10
1.4875
  20
2.4868
  42
0
  0
VERTEX
  8
Pin
  10
1.6375
  20
2.4868
  42
0
  0
SEQEND
  0
POLYLINE
  8
Pin
  6
CONTINUOUS
  66
1
  70
0
  40
0.0049
  41
0.0049
  0
VERTEX
  8
Pin
  10
1.4851
  20
2.4868
  42
1
  0
VERTEX
  8
Pin
  10
1.49
  20
2.4868
  42
1
  0
VERTEX
  8
Pin
  10
1.4851
  20
2.4868
  42
1
  0
SEQEND
  0
POLYLINE
  8
Pin
  6
CONTINUOUS
  66
1
  70
0
  40
0.0049
  41
0.0049
  0
VERTEX
  8
Pin
  10
1.6351
  20
2.4868
  42
1
  0
VERTEX
  8
Pin
  10
1.64
  20
2.4868
  42
1
  0
VERTEX
  8
Pin
  10
1.6351
  20
2.4868
  42
1
  0
SEQEND
  0
TEXT
  8
Pin
  10
1.2364
  20
2.536
  40
0.0292
  41
0.7
  1
1
  50
0.0
  72
0
  73
3
  7
STANDARD
  71
0
  11
1.2364
  21
2.536
  0
POLYLINE
  8
Pin
  6
CONTINUOUS
  66
1
  70
0
  40
0.0098
  41
0.0098
  0
VERTEX
  8
Pin
  10
1.284
  20
2.4868
  42
0
  0
VERTEX
  8
Pin
  10
1.134
  20
2.4868
  42
0
  0
SEQEND
  0
POLYLINE
  8
Pin
  6
CONTINUOUS
  66
1
  70
0
  40
0.0049
  41
0.0049
  0
VERTEX
  8
Pin
  10
1.2815
  20
2.4868
  42
1
  0
VERTEX
  8
Pin
  10
1.2864
  20
2.4868
  42
1
  0
VERTEX
  8
Pin
  10
1.2815
  20
2.4868
  42
1
  0
SEQEND
  0
POLYLINE
  8
Pin
  6
CONTINUOUS
  66
1
  70
0
  40
0.0049
  41
0.0049
  0
VERTEX
  8
Pin
  10
1.1315
  20
2.4868
  42
1
  0
VERTEX
  8
Pin
  10
1.1364
  20
2.4868
  42
1
  0
VERTEX
  8
Pin
  10
1.1315
  20
2.4868
  42
1
  0
SEQEND
  0
TEXT
  8
Pin
  10
1.8451
  20
3.6549
  40
0.0292
  41
0.7
  1
O
  50
0.0
  72
0
  73
3
  7
STANDARD
  71
0
  11
1.8451
  21
3.6549
  0
POLYLINE
  8
Pin
  6
CONTINUOUS
  66
1
  70
0
  40
0.0098
  41
0.0098
  0
VERTEX
  8
Pin
  10
1.8188
  20
3.6057
  42
0
  0
VERTEX
  8
Pin
  10
1.9688
  20
3.6057
  42
0
  0
SEQEND
  0
POLYLINE
  8
Pin
  6
CONTINUOUS
  66
1
  70
0
  40
0.0049
  41
0.0049
  0
VERTEX
  8
Pin
  10
1.8164
  20
3.6057
  42
1
  0
VERTEX
  8
Pin
  10
1.8213
  20
3.6057
  42
1
  0
VERTEX
  8
Pin
  10
1.8164
  20
3.6057
  42
1
  0
SEQEND
  0
POLYLINE
  8
Pin
  6
CONTINUOUS
  66
1
  70
0
  40
0.0049
  41
0.0049
  0
VERTEX
  8
Pin
  10
1.9664
  20
3.6057
  42
1
  0
VERTEX
  8
Pin
  10
1.9713
  20
3.6057
  42
1
  0
VERTEX
  8
Pin
  10
1.9664
  20
3.6057
  42
1
  0
SEQEND
  0
POLYLINE
  8
Pin
  6
CONTINUOUS
  66
1
  70
0
  40
0.0098
  41
0.0098
  0
VERTEX
  8
Pin
  10
1.9531
  20
3.6214
  42
0
  0
VERTEX
  8
Pin
  10
1.9846
  20
3.6214
  42
0
  0
VERTEX
  8
Pin
  10
1.9846
  20
3.5899
  42
0
  0
VERTEX
  8
Pin
  10
1.9531
  20
3.5899
  42
0
  0
VERTEX
  8
Pin
  10
1.9531
  20
3.6214
  42
0
  0
SEQEND
  0
TEXT
  8
Pin
  10
1.5713
  20
3.6549
  40
0.0292
  41
0.7
  1
S
  50
0.0
  72
0
  73
3
  7
STANDARD
  71
0
  11
1.5713
  21
3.6549
  0
POLYLINE
  8
Pin
  6
CONTINUOUS
  66
1
  70
0
  40
0.0098
  41
0.0098
  0
VERTEX
  8
Pin
  10
1.6188
  20
3.6057
  42
0
  0
VERTEX
  8
Pin
  10
1.4688
  20
3.6057
  42
0
  0
SEQEND
  0
POLYLINE
  8
Pin
  6
CONTINUOUS
  66
1
  70
0
  40
0.0049
  41
0.0049
  0
VERTEX
  8
Pin
  10
1.6164
  20
3.6057
  42
1
  0
VERTEX
  8
Pin
  10
1.6213
  20
3.6057
  42
1
  0
VERTEX
  8
Pin
  10
1.6164
  20
3.6057
  42
1
  0
SEQEND
  0
POLYLINE
  8
Pin
  6
CONTINUOUS
  66
1
  70
0
  40
0.0049
  41
0.0049
  0
VERTEX
  8
Pin
  10
1.4664
  20
3.6057
  42
1
  0
VERTEX
  8
Pin
  10
1.4713
  20
3.6057
  42
1
  0
VERTEX
  8
Pin
  10
1.4664
  20
3.6057
  42
1
  0
SEQEND
  0
TEXT
  8
Pin
  10
1.6696
  20
3.363
  40
0.0292
  41
0.7
  1
P
  50
90.0
  72
0
  73
3
  7
STANDARD
  71
0
  11
1.6696
  21
3.363
  0
POLYLINE
  8
Pin
  6
CONTINUOUS
  66
1
  70
0
  40
0.0098
  41
0.0098
  0
VERTEX
  8
Pin
  10
1.7188
  20
3.4057
  42
0
  0
VERTEX
  8
Pin
  10
1.7188
  20
3.2557
  42
0
  0
SEQEND
  0
POLYLINE
  8
Pin
  6
CONTINUOUS
  66
1
  70
0
  40
0.0049
  41
0.0049
  0
VERTEX
  8
Pin
  10
1.7164
  20
3.4057
  42
1
  0
VERTEX
  8
Pin
  10
1.7213
  20
3.4057
  42
1
  0
VERTEX
  8
Pin
  10
1.7164
  20
3.4057
  42
1
  0
SEQEND
  0
POLYLINE
  8
Pin
  6
CONTINUOUS
  66
1
  70
0
  40
0.0049
  41
0.0049
  0
VERTEX
  8
Pin
  10
1.7164
  20
3.2557
  42
1
  0
VERTEX
  8
Pin
  10
1.7213
  20
3.2557
  42
1
  0
VERTEX
  8
Pin
  10
1.7164
  20
3.2557
  42
1
  0
SEQEND
  0
TEXT
  8
Pin
  10
3.6828
  20
2.5798
  40
0.0292
  41
0.7
  1
2
  50
0.0
  72
0
  73
3
  7
STANDARD
  71
0
  11
3.6828
  21
2.5798
  0
POLYLINE
  8
Pin
  6
CONTINUOUS
  66
1
  70
0
  40
0.0098
  41
0.0098
  0
VERTEX
  8
Pin
  10
3.6565
  20
2.5305
  42
0
  0
VERTEX
  8
Pin
  10
3.8065
  20
2.5305
  42
0
  0
SEQEND
  0
POLYLINE
  8
Pin
  6
CONTINUOUS
  66
1
  70
0
  40
0.0049
  41
0.0049
  0
VERTEX
  8
Pin
  10
3.6541
  20
2.5305
  42
1
  0
VERTEX
  8
Pin
  10
3.659
  20
2.5305
  42
1
  0
VERTEX
  8
Pin
  10
3.6541
  20
2.5305
  42
1
  0
SEQEND
  0
POLYLINE
  8
Pin
  6
CONTINUOUS
  66
1
  70
0
  40
0.0049
  41
0.0049
  0
VERTEX
  8
Pin
  10
3.8041
  20
2.5305
  42
1
  0
VERTEX
  8
Pin
  10
3.809
  20
2.5305
  42
1
  0
VERTEX
  8
Pin
  10
3.8041
  20
2.5305
  42
1
  0
SEQEND
  0
TEXT
  8
Pin
  10
3.4054
  20
2.5798
  40
0.0292
  41
0.7
  1
1
  50
0.0
  72
0
  73
3
  7
STANDARD
  71
0
  11
3.4054
  21
2.5798
  0
POLYLINE
  8
Pin
  6
CONTINUOUS
  66
1
  70
0
  40
0.0098
  41
0.0098
  0
VERTEX
  8
Pin
  10
3.4529
  20
2.5305
  42
0
  0
VERTEX
  8
Pin
  10
3.3029
  20
2.5305
  42
0
  0
SEQEND
  0
POLYLINE
  8
Pin
  6
CONTINUOUS
  66
1
  70
0
  40
0.0049
  41
0.0049
  0
VERTEX
  8
Pin
  10
3.4505
  20
2.5305
  42
1
  0
VERTEX
  8
Pin
  10
3.4554
  20
2.5305
  42
1
  0
VERTEX
  8
Pin
  10
3.4505
  20
2.5305
  42
1
  0
SEQEND
  0
POLYLINE
  8
Pin
  6
CONTINUOUS
  66
1
  70
0
  40
0.0049
  41
0.0049
  0
VERTEX
  8
Pin
  10
3.3005
  20
2.5305
  42
1
  0
VERTEX
  8
Pin
  10
3.3054
  20
2.5305
  42
1
  0
VERTEX
  8
Pin
  10
3.3005
  20
2.5305
  42
1
  0
SEQEND
  0
TEXT
  8
Pin
  10
3.514
  20
3.6424
  40
0.0292
  41
0.7
  1
O
  50
0.0
  72
0
  73
3
  7
STANDARD
  71
0
  11
3.514
  21
3.6424
  0
POLYLINE
  8
Pin
  6
CONTINUOUS
  66
1
  70
0
  40
0.0098
  41
0.0098
  0
VERTEX
  8
Pin
  10
3.4878
  20
3.5932
  42
0
  0
VERTEX
  8
Pin
  10
3.6378
  20
3.5932
  42
0
  0
SEQEND
  0
POLYLINE
  8
Pin
  6
CONTINUOUS
  66
1
  70
0
  40
0.0049
  41
0.0049
  0
VERTEX
  8
Pin
  10
3.4853
  20
3.5932
  42
1
  0
VERTEX
  8
Pin
  10
3.4902
  20
3.5932
  42
1
  0
VERTEX
  8
Pin
  10
3.4853
  20
3.5932
  42
1
  0
SEQEND
  0
POLYLINE
  8
Pin
  6
CONTINUOUS
  66
1
  70
0
  40
0.0049
  41
0.0049
  0
VERTEX
  8
Pin
  10
3.6353
  20
3.5932
  42
1
  0
VERTEX
  8
Pin
  10
3.6402
  20
3.5932
  42
1
  0
VERTEX
  8
Pin
  10
3.6353
  20
3.5932
  42
1
  0
SEQEND
  0
POLYLINE
  8
Pin
  6
CONTINUOUS
  66
1
  70
0
  40
0.0098
  41
0.0098
  0
VERTEX
  8
Pin
  10
3.622
  20
3.6089
  42
0
  0
VERTEX
  8
Pin
  10
3.6535
  20
3.6089
  42
0
  0
VERTEX
  8
Pin
  10
3.6535
  20
3.5774
  42
0
  0
VERTEX
  8
Pin
  10
3.622
  20
3.5774
  42
0
  0
VERTEX
  8
Pin
  10
3.622
  20
3.6089
  42
0
  0
SEQEND
  0
TEXT
  8
Pin
  10
3.2402
  20
3.6424
  40
0.0292
  41
0.7
  1
S
  50
0.0
  72
0
  73
3
  7
STANDARD
  71
0
  11
3.2402
  21
3.6424
  0
POLYLINE
  8
Pin
  6
CONTINUOUS
  66
1
  70
0
  40
0.0098
  41
0.0098
  0
VERTEX
  8
Pin
  10
3.2878
  20
3.5932
  42
0
  0
VERTEX
  8
Pin
  10
3.1378
  20
3.5932
  42
0
  0
SEQEND
  0
POLYLINE
  8
Pin
  6
CONTINUOUS
  66
1
  70
0
  40
0.0049
  41
0.0049
  0
VERTEX
  8
Pin
  10
3.2853
  20
3.5932
  42
1
  0
VERTEX
  8
Pin
  10
3.2902
  20
3.5932
  42
1
  0
VERTEX
  8
Pin
  10
3.2853
  20
3.5932
  42
1
  0
SEQEND
  0
POLYLINE
  8
Pin
  6
CONTINUOUS
  66
1
  70
0
  40
0.0049
  41
0.0049
  0
VERTEX
  8
Pin
  10
3.1353
  20
3.5932
  42
1
  0
VERTEX
  8
Pin
  10
3.1402
  20
3.5932
  42
1
  0
VERTEX
  8
Pin
  10
3.1353
  20
3.5932
  42
1
  0
SEQEND
  0
TEXT
  8
Pin
  10
3.3385
  20
3.3505
  40
0.0292
  41
0.7
  1
P
  50
90.0
  72
0
  73
3
  7
STANDARD
  71
0
  11
3.3385
  21
3.3505
  0
POLYLINE
  8
Pin
  6
CONTINUOUS
  66
1
  70
0
  40
0.0098
  41
0.0098
  0
VERTEX
  8
Pin
  10
3.3878
  20
3.3932
  42
0
  0
VERTEX
  8
Pin
  10
3.3878
  20
3.2432
  42
0
  0
SEQEND
  0
POLYLINE
  8
Pin
  6
CONTINUOUS
  66
1
  70
0
  40
0.0049
  41
0.0049
  0
VERTEX
  8
Pin
  10
3.3853
  20
3.3932
  42
1
  0
VERTEX
  8
Pin
  10
3.3902
  20
3.3932
  42
1
  0
VERTEX
  8
Pin
  10
3.3853
  20
3.3932
  42
1
  0
SEQEND
  0
POLYLINE
  8
Pin
  6
CONTINUOUS
  66
1
  70
0
  40
0.0049
  41
0.0049
  0
VERTEX
  8
Pin
  10
3.3853
  20
3.2432
  42
1
  0
VERTEX
  8
Pin
  10
3.3902
  20
3.2432
  42
1
  0
VERTEX
  8
Pin
  10
3.3853
  20
3.2432
  42
1
  0
SEQEND
  0
TEXT
  8
Pin
  10
1.6821
  20
0.1253
  40
0.0292
  41
0.7
  1
1
  50
90.0
  72
0
  73
3
  7
STANDARD
  71
0
  11
1.6821
  21
0.1253
  0
POLYLINE
  8
Pin
  6
CONTINUOUS
  66
1
  70
0
  40
0.0098
  41
0.0098
  0
VERTEX
  8
Pin
  10
1.7313
  20
0.0991
  42
0
  0
VERTEX
  8
Pin
  10
1.7313
  20
0.2491
  42
0
  0
SEQEND
  0
POLYLINE
  8
Pin
  6
CONTINUOUS
  66
1
  70
0
  40
0.0049
  41
0.0049
  0
VERTEX
  8
Pin
  10
1.7288
  20
0.0991
  42
1
  0
VERTEX
  8
Pin
  10
1.7338
  20
0.0991
  42
1
  0
VERTEX
  8
Pin
  10
1.7288
  20
0.0991
  42
1
  0
SEQEND
  0
POLYLINE
  8
Pin
  6
CONTINUOUS
  66
1
  70
0
  40
0.0049
  41
0.0049
  0
VERTEX
  8
Pin
  10
1.7288
  20
0.2491
  42
1
  0
VERTEX
  8
Pin
  10
1.7338
  20
0.2491
  42
1
  0
VERTEX
  8
Pin
  10
1.7288
  20
0.2491
  42
1
  0
SEQEND
  0
TEXT
  8
Pin
  10
3.8448
  20
0.1253
  40
0.0292
  41
0.7
  1
1
  50
90.0
  72
0
  73
3
  7
STANDARD
  71
0
  11
3.8448
  21
0.1253
  0
POLYLINE
  8
Pin
  6
CONTINUOUS
  66
1
  70
0
  40
0.0098
  41
0.0098
  0
VERTEX
  8
Pin
  10
3.894
  20
0.0991
  42
0
  0
VERTEX
  8
Pin
  10
3.894
  20
0.2491
  42
0
  0
SEQEND
  0
POLYLINE
  8
Pin
  6
CONTINUOUS
  66
1
  70
0
  40
0.0049
  41
0.0049
  0
VERTEX
  8
Pin
  10
3.8916
  20
0.0991
  42
1
  0
VERTEX
  8
Pin
  10
3.8965
  20
0.0991
  42
1
  0
VERTEX
  8
Pin
  10
3.8916
  20
0.0991
  42
1
  0
SEQEND
  0
POLYLINE
  8
Pin
  6
CONTINUOUS
  66
1
  70
0
  40
0.0049
  41
0.0049
  0
VERTEX
  8
Pin
  10
3.8916
  20
0.2491
  42
1
  0
VERTEX
  8
Pin
  10
3.8965
  20
0.2491
  42
1
  0
VERTEX
  8
Pin
  10
3.8916
  20
0.2491
  42
1
  0
SEQEND
  0
TEXT
  8
Pin
  10
3.2072
  20
4.2193
  40
0.0292
  41
0.7
  1
1
  50
90.0
  72
0
  73
3
  7
STANDARD
  71
0
  11
3.2072
  21
4.2193
  0
POLYLINE
  8
Pin
  6
CONTINUOUS
  66
1
  70
0
  40
0.0098
  41
0.0098
  0
VERTEX
  8
Pin
  10
3.2565
  20
4.262
  42
0
  0
VERTEX
  8
Pin
  10
3.2565
  20
4.112
  42
0
  0
SEQEND
  0
POLYLINE
  8
Pin
  6
CONTINUOUS
  66
1
  70
0
  40
0.0049
  41
0.0049
  0
VERTEX
  8
Pin
  10
3.254
  20
4.262
  42
1
  0
VERTEX
  8
Pin
  10
3.2589
  20
4.262
  42
1
  0
VERTEX
  8
Pin
  10
3.254
  20
4.262
  42
1
  0
SEQEND
  0
POLYLINE
  8
Pin
  6
CONTINUOUS
  66
1
  70
0
  40
0.0049
  41
0.0049
  0
VERTEX
  8
Pin
  10
3.254
  20
4.112
  42
1
  0
VERTEX
  8
Pin
  10
3.2589
  20
4.112
  42
1
  0
VERTEX
  8
Pin
  10
3.254
  20
4.112
  42
1
  0
SEQEND
  0
TEXT
  8
Pin
  10
4.3636
  20
3.0756
  40
0.0292
  41
0.7
  1
1
  50
90.0
  72
0
  73
3
  7
STANDARD
  71
0
  11
4.3636
  21
3.0756
  0
POLYLINE
  8
Pin
  6
CONTINUOUS
  66
1
  70
0
  40
0.0098
  41
0.0098
  0
VERTEX
  8
Pin
  10
4.4128
  20
3.0493
  42
0
  0
VERTEX
  8
Pin
  10
4.4128
  20
3.1993
  42
0
  0
SEQEND
  0
POLYLINE
  8
Pin
  6
CONTINUOUS
  66
1
  70
0
  40
0.0049
  41
0.0049
  0
VERTEX
  8
Pin
  10
4.4104
  20
3.0493
  42
1
  0
VERTEX
  8
Pin
  10
4.4153
  20
3.0493
  42
1
  0
VERTEX
  8
Pin
  10
4.4104
  20
3.0493
  42
1
  0
SEQEND
  0
POLYLINE
  8
Pin
  6
CONTINUOUS
  66
1
  70
0
  40
0.0049
  41
0.0049
  0
VERTEX
  8
Pin
  10
4.4104
  20
3.1993
  42
1
  0
VERTEX
  8
Pin
  10
4.4153
  20
3.1993
  42
1
  0
VERTEX
  8
Pin
  10
4.4104
  20
3.1993
  42
1
  0
SEQEND
  0
TEXT
  8
Pin
  10
1.082
  20
2.7879
  40
0.0292
  41
0.7
  1
1
  50
90.0
  72
0
  73
3
  7
STANDARD
  71
0
  11
1.082
  21
2.7879
  0
POLYLINE
  8
Pin
  6
CONTINUOUS
  66
1
  70
0
  40
0.0098
  41
0.0098
  0
VERTEX
  8
Pin
  10
1.1312
  20
2.8306
  42
0
  0
VERTEX
  8
Pin
  10
1.1312
  20
2.6806
  42
0
  0
SEQEND
  0
POLYLINE
  8
Pin
  6
CONTINUOUS
  66
1
  70
0
  40
0.0049
  41
0.0049
  0
VERTEX
  8
Pin
  10
1.1288
  20
2.8306
  42
1
  0
VERTEX
  8
Pin
  10
1.1337
  20
2.8306
  42
1
  0
VERTEX
  8
Pin
  10
1.1288
  20
2.8306
  42
1
  0
SEQEND
  0
POLYLINE
  8
Pin
  6
CONTINUOUS
  66
1
  70
0
  40
0.0049
  41
0.0049
  0
VERTEX
  8
Pin
  10
1.1288
  20
2.6806
  42
1
  0
VERTEX
  8
Pin
  10
1.1337
  20
2.6806
  42
1
  0
VERTEX
  8
Pin
  10
1.1288
  20
2.6806
  42
1
  0
SEQEND
  0
TEXT
  8
Pin
  10
3.251
  20
2.8067
  40
0.0292
  41
0.7
  1
1
  50
90.0
  72
0
  73
3
  7
STANDARD
  71
0
  11
3.251
  21
2.8067
  0
POLYLINE
  8
Pin
  6
CONTINUOUS
  66
1
  70
0
  40
0.0098
  41
0.0098
  0
VERTEX
  8
Pin
  10
3.3002
  20
2.8493
  42
0
  0
VERTEX
  8
Pin
  10
3.3002
  20
2.6993
  42
0
  0
SEQEND
  0
POLYLINE
  8
Pin
  6
CONTINUOUS
  66
1
  70
0
  40
0.0049
  41
0.0049
  0
VERTEX
  8
Pin
  10
3.2978
  20
2.8493
  42
1
  0
VERTEX
  8
Pin
  10
3.3027
  20
2.8493
  42
1
  0
VERTEX
  8
Pin
  10
3.2978
  20
2.8493
  42
1
  0
SEQEND
  0
POLYLINE
  8
Pin
  6
CONTINUOUS
  66
1
  70
0
  40
0.0049
  41
0.0049
  0
VERTEX
  8
Pin
  10
3.2978
  20
2.6993
  42
1
  0
VERTEX
  8
Pin
  10
3.3027
  20
2.6993
  42
1
  0
VERTEX
  8
Pin
  10
3.2978
  20
2.6993
  42
1
  0
SEQEND
  0
TEXT
  8
Pin
  10
0.0908
  20
1.0335
  40
0.0365
  41
0.7
  1
1
  50
0.0
  72
0
  73
3
  7
STANDARD
  71
0
  11
0.0908
  21
1.0335
  0
TEXT
  8
Pin
  10
0.1761
  20
1.0608
  40
0.0292
  41
0.7
  1
1
  50
0.0
  72
0
  73
3
  7
STANDARD
  71
0
  11
0.1761
  21
1.0608
  0
POLYLINE
  8
Pin
  6
CONTINUOUS
  66
1
  70
0
  40
0.0098
  41
0.0098
  0
VERTEX
  8
Pin
  10
0.1499
  20
1.0116
  42
0
  0
VERTEX
  8
Pin
  10
0.2999
  20
1.0116
  42
0
  0
SEQEND
  0
POLYLINE
  8
Pin
  6
CONTINUOUS
  66
1
  70
0
  40
0.0049
  41
0.0049
  0
VERTEX
  8
Pin
  10
0.1474
  20
1.0116
  42
1
  0
VERTEX
  8
Pin
  10
0.1524
  20
1.0116
  42
1
  0
VERTEX
  8
Pin
  10
0.1474
  20
1.0116
  42
1
  0
SEQEND
  0
POLYLINE
  8
Pin
  6
CONTINUOUS
  66
1
  70
0
  40
0.0049
  41
0.0049
  0
VERTEX
  8
Pin
  10
0.2974
  20
1.0116
  42
1
  0
VERTEX
  8
Pin
  10
0.3024
  20
1.0116
  42
1
  0
VERTEX
  8
Pin
  10
0.2974
  20
1.0116
  42
1
  0
SEQEND
  0
TEXT
  8
Pin
  10
2.3661
  20
1.0523
  40
0.0365
  41
0.7
  1
1
  50
0.0
  72
0
  73
3
  7
STANDARD
  71
0
  11
2.3661
  21
1.0523
  0
TEXT
  8
Pin
  10
2.4514
  20
1.0796
  40
0.0292
  41
0.7
  1
1
  50
0.0
  72
0
  73
3
  7
STANDARD
  71
0
  11
2.4514
  21
1.0796
  0
POLYLINE
  8
Pin
  6
CONTINUOUS
  66
1
  70
0
  40
0.0098
  41
0.0098
  0
VERTEX
  8
Pin
  10
2.4251
  20
1.0304
  42
0
  0
VERTEX
  8
Pin
  10
2.5751
  20
1.0304
  42
0
  0
SEQEND
  0
POLYLINE
  8
Pin
  6
CONTINUOUS
  66
1
  70
0
  40
0.0049
  41
0.0049
  0
VERTEX
  8
Pin
  10
2.4227
  20
1.0304
  42
1
  0
VERTEX
  8
Pin
  10
2.4276
  20
1.0304
  42
1
  0
VERTEX
  8
Pin
  10
2.4227
  20
1.0304
  42
1
  0
SEQEND
  0
POLYLINE
  8
Pin
  6
CONTINUOUS
  66
1
  70
0
  40
0.0049
  41
0.0049
  0
VERTEX
  8
Pin
  10
2.5727
  20
1.0304
  42
1
  0
VERTEX
  8
Pin
  10
2.5776
  20
1.0304
  42
1
  0
VERTEX
  8
Pin
  10
2.5727
  20
1.0304
  42
1
  0
SEQEND
  0
TEXT
  8
Pin
  10
1.082
  20
1.9505
  40
0.0292
  41
0.7
  1
2
  50
90.0
  72
0
  73
3
  7
STANDARD
  71
0
  11
1.082
  21
1.9505
  0
POLYLINE
  8
Pin
  6
CONTINUOUS
  66
1
  70
0
  40
0.0098
  41
0.0098
  0
VERTEX
  8
Pin
  10
1.1312
  20
1.9242
  42
0
  0
VERTEX
  8
Pin
  10
1.1312
  20
2.0742
  42
0
  0
SEQEND
  0
POLYLINE
  8
Pin
  6
CONTINUOUS
  66
1
  70
0
  40
0.0049
  41
0.0049
  0
VERTEX
  8
Pin
  10
1.1288
  20
1.9242
  42
1
  0
VERTEX
  8
Pin
  10
1.1337
  20
1.9242
  42
1
  0
VERTEX
  8
Pin
  10
1.1288
  20
1.9242
  42
1
  0
SEQEND
  0
POLYLINE
  8
Pin
  6
CONTINUOUS
  66
1
  70
0
  40
0.0049
  41
0.0049
  0
VERTEX
  8
Pin
  10
1.1288
  20
2.0742
  42
1
  0
VERTEX
  8
Pin
  10
1.1337
  20
2.0742
  42
1
  0
VERTEX
  8
Pin
  10
1.1288
  20
2.0742
  42
1
  0
SEQEND
  0
TEXT
  8
Pin
  10
1.082
  20
1.5816
  40
0.0292
  41
0.7
  1
1
  50
90.0
  72
0
  73
3
  7
STANDARD
  71
0
  11
1.082
  21
1.5816
  0
POLYLINE
  8
Pin
  6
CONTINUOUS
  66
1
  70
0
  40
0.0098
  41
0.0098
  0
VERTEX
  8
Pin
  10
1.1312
  20
1.6242
  42
0
  0
VERTEX
  8
Pin
  10
1.1312
  20
1.4742
  42
0
  0
SEQEND
  0
POLYLINE
  8
Pin
  6
CONTINUOUS
  66
1
  70
0
  40
0.0049
  41
0.0049
  0
VERTEX
  8
Pin
  10
1.1288
  20
1.6242
  42
1
  0
VERTEX
  8
Pin
  10
1.1337
  20
1.6242
  42
1
  0
VERTEX
  8
Pin
  10
1.1288
  20
1.6242
  42
1
  0
SEQEND
  0
POLYLINE
  8
Pin
  6
CONTINUOUS
  66
1
  70
0
  40
0.0049
  41
0.0049
  0
VERTEX
  8
Pin
  10
1.1288
  20
1.4742
  42
1
  0
VERTEX
  8
Pin
  10
1.1337
  20
1.4742
  42
1
  0
VERTEX
  8
Pin
  10
1.1288
  20
1.4742
  42
1
  0
SEQEND
  0
TEXT
  8
Pin
  10
3.2385
  20
1.988
  40
0.0292
  41
0.7
  1
2
  50
90.0
  72
0
  73
3
  7
STANDARD
  71
0
  11
3.2385
  21
1.988
  0
POLYLINE
  8
Pin
  6
CONTINUOUS
  66
1
  70
0
  40
0.0098
  41
0.0098
  0
VERTEX
  8
Pin
  10
3.2877
  20
1.9618
  42
0
  0
VERTEX
  8
Pin
  10
3.2877
  20
2.1118
  42
0
  0
SEQEND
  0
POLYLINE
  8
Pin
  6
CONTINUOUS
  66
1
  70
0
  40
0.0049
  41
0.0049
  0
VERTEX
  8
Pin
  10
3.2853
  20
1.9618
  42
1
  0
VERTEX
  8
Pin
  10
3.2902
  20
1.9618
  42
1
  0
VERTEX
  8
Pin
  10
3.2853
  20
1.9618
  42
1
  0
SEQEND
  0
POLYLINE
  8
Pin
  6
CONTINUOUS
  66
1
  70
0
  40
0.0049
  41
0.0049
  0
VERTEX
  8
Pin
  10
3.2853
  20
2.1118
  42
1
  0
VERTEX
  8
Pin
  10
3.2902
  20
2.1118
  42
1
  0
VERTEX
  8
Pin
  10
3.2853
  20
2.1118
  42
1
  0
SEQEND
  0
TEXT
  8
Pin
  10
3.2385
  20
1.6191
  40
0.0292
  41
0.7
  1
1
  50
90.0
  72
0
  73
3
  7
STANDARD
  71
0
  11
3.2385
  21
1.6191
  0
POLYLINE
  8
Pin
  6
CONTINUOUS
  66
1
  70
0
  40
0.0098
  41
0.0098
  0
VERTEX
  8
Pin
  10
3.2877
  20
1.6618
  42
0
  0
VERTEX
  8
Pin
  10
3.2877
  20
1.5118
  42
0
  0
SEQEND
  0
POLYLINE
  8
Pin
  6
CONTINUOUS
  66
1
  70
0
  40
0.0049
  41
0.0049
  0
VERTEX
  8
Pin
  10
3.2853
  20
1.6618
  42
1
  0
VERTEX
  8
Pin
  10
3.2902
  20
1.6618
  42
1
  0
VERTEX
  8
Pin
  10
3.2853
  20
1.6618
  42
1
  0
SEQEND
  0
POLYLINE
  8
Pin
  6
CONTINUOUS
  66
1
  70
0
  40
0.0049
  41
0.0049
  0
VERTEX
  8
Pin
  10
3.2853
  20
1.5118
  42
1
  0
VERTEX
  8
Pin
  10
3.2902
  20
1.5118
  42
1
  0
VERTEX
  8
Pin
  10
3.2853
  20
1.5118
  42
1
  0
SEQEND
  0
TEXT
  8
Pin
  10
0.9758
  20
0.8879
  40
0.0292
  41
0.7
  1
2
  50
90.0
  72
0
  73
3
  7
STANDARD
  71
0
  11
0.9758
  21
0.8879
  0
POLYLINE
  8
Pin
  6
CONTINUOUS
  66
1
  70
0
  40
0.0098
  41
0.0098
  0
VERTEX
  8
Pin
  10
1.025
  20
0.8616
  42
0
  0
VERTEX
  8
Pin
  10
1.025
  20
1.0116
  42
0
  0
SEQEND
  0
POLYLINE
  8
Pin
  6
CONTINUOUS
  66
1
  70
0
  40
0.0049
  41
0.0049
  0
VERTEX
  8
Pin
  10
1.0225
  20
0.8616
  42
1
  0
VERTEX
  8
Pin
  10
1.0274
  20
0.8616
  42
1
  0
VERTEX
  8
Pin
  10
1.0225
  20
0.8616
  42
1
  0
SEQEND
  0
POLYLINE
  8
Pin
  6
CONTINUOUS
  66
1
  70
0
  40
0.0049
  41
0.0049
  0
VERTEX
  8
Pin
  10
1.0225
  20
1.0116
  42
1
  0
VERTEX
  8
Pin
  10
1.0274
  20
1.0116
  42
1
  0
VERTEX
  8
Pin
  10
1.0225
  20
1.0116
  42
1
  0
SEQEND
  0
TEXT
  8
Pin
  10
0.9758
  20
0.519
  40
0.0292
  41
0.7
  1
1
  50
90.0
  72
0
  73
3
  7
STANDARD
  71
0
  11
0.9758
  21
0.519
  0
POLYLINE
  8
Pin
  6
CONTINUOUS
  66
1
  70
0
  40
0.0098
  41
0.0098
  0
VERTEX
  8
Pin
  10
1.025
  20
0.5616
  42
0
  0
VERTEX
  8
Pin
  10
1.025
  20
0.4116
  42
0
  0
SEQEND
  0
POLYLINE
  8
Pin
  6
CONTINUOUS
  66
1
  70
0
  40
0.0049
  41
0.0049
  0
VERTEX
  8
Pin
  10
1.0225
  20
0.5616
  42
1
  0
VERTEX
  8
Pin
  10
1.0274
  20
0.5616
  42
1
  0
VERTEX
  8
Pin
  10
1.0225
  20
0.5616
  42
1
  0
SEQEND
  0
POLYLINE
  8
Pin
  6
CONTINUOUS
  66
1
  70
0
  40
0.0049
  41
0.0049
  0
VERTEX
  8
Pin
  10
1.0225
  20
0.4116
  42
1
  0
VERTEX
  8
Pin
  10
1.0274
  20
0.4116
  42
1
  0
VERTEX
  8
Pin
  10
1.0225
  20
0.4116
  42
1
  0
SEQEND
  0
TEXT
  8
Pin
  10
3.1885
  20
0.9004
  40
0.0292
  41
0.7
  1
2
  50
90.0
  72
0
  73
3
  7
STANDARD
  71
0
  11
3.1885
  21
0.9004
  0
POLYLINE
  8
Pin
  6
CONTINUOUS
  66
1
  70
0
  40
0.0098
  41
0.0098
  0
VERTEX
  8
Pin
  10
3.2377
  20
0.8741
  42
0
  0
VERTEX
  8
Pin
  10
3.2377
  20
1.0241
  42
0
  0
SEQEND
  0
POLYLINE
  8
Pin
  6
CONTINUOUS
  66
1
  70
0
  40
0.0049
  41
0.0049
  0
VERTEX
  8
Pin
  10
3.2352
  20
0.8741
  42
1
  0
VERTEX
  8
Pin
  10
3.2402
  20
0.8741
  42
1
  0
VERTEX
  8
Pin
  10
3.2352
  20
0.8741
  42
1
  0
SEQEND
  0
POLYLINE
  8
Pin
  6
CONTINUOUS
  66
1
  70
0
  40
0.0049
  41
0.0049
  0
VERTEX
  8
Pin
  10
3.2352
  20
1.0241
  42
1
  0
VERTEX
  8
Pin
  10
3.2402
  20
1.0241
  42
1
  0
VERTEX
  8
Pin
  10
3.2352
  20
1.0241
  42
1
  0
SEQEND
  0
TEXT
  8
Pin
  10
3.1885
  20
0.5315
  40
0.0292
  41
0.7
  1
1
  50
90.0
  72
0
  73
3
  7
STANDARD
  71
0
  11
3.1885
  21
0.5315
  0
POLYLINE
  8
Pin
  6
CONTINUOUS
  66
1
  70
0
  40
0.0098
  41
0.0098
  0
VERTEX
  8
Pin
  10
3.2377
  20
0.5741
  42
0
  0
VERTEX
  8
Pin
  10
3.2377
  20
0.4241
  42
0
  0
SEQEND
  0
POLYLINE
  8
Pin
  6
CONTINUOUS
  66
1
  70
0
  40
0.0049
  41
0.0049
  0
VERTEX
  8
Pin
  10
3.2352
  20
0.5741
  42
1
  0
VERTEX
  8
Pin
  10
3.2402
  20
0.5741
  42
1
  0
VERTEX
  8
Pin
  10
3.2352
  20
0.5741
  42
1
  0
SEQEND
  0
POLYLINE
  8
Pin
  6
CONTINUOUS
  66
1
  70
0
  40
0.0049
  41
0.0049
  0
VERTEX
  8
Pin
  10
3.2352
  20
0.4241
  42
1
  0
VERTEX
  8
Pin
  10
3.2402
  20
0.4241
  42
1
  0
VERTEX
  8
Pin
  10
3.2352
  20
0.4241
  42
1
  0
SEQEND
  0
TEXT
  8
Pin
  10
1.2274
  20
1.0608
  40
0.0292
  41
0.7
  1
1
  50
0.0
  72
0
  73
3
  7
STANDARD
  71
0
  11
1.2274
  21
1.0608
  0
POLYLINE
  8
Pin
  6
CONTINUOUS
  66
1
  70
0
  40
0.0098
  41
0.0098
  0
VERTEX
  8
Pin
  10
1.275
  20
1.0116
  42
0
  0
VERTEX
  8
Pin
  10
1.175
  20
1.0116
  42
0
  0
SEQEND
  0
POLYLINE
  8
Pin
  6
CONTINUOUS
  66
1
  70
0
  40
0.0049
  41
0.0049
  0
VERTEX
  8
Pin
  10
1.2725
  20
1.0116
  42
1
  0
VERTEX
  8
Pin
  10
1.2775
  20
1.0116
  42
1
  0
VERTEX
  8
Pin
  10
1.2725
  20
1.0116
  42
1
  0
SEQEND
  0
POLYLINE
  8
Pin
  6
CONTINUOUS
  66
1
  70
0
  40
0.0049
  41
0.0049
  0
VERTEX
  8
Pin
  10
1.1725
  20
1.0116
  42
1
  0
VERTEX
  8
Pin
  10
1.1775
  20
1.0116
  42
1
  0
VERTEX
  8
Pin
  10
1.1725
  20
1.0116
  42
1
  0
SEQEND
  0
TEXT
  8
Pin
  10
1.4512
  20
0.9608
  40
0.0292
  41
0.7
  1
2
  50
0.0
  72
0
  73
3
  7
STANDARD
  71
0
  11
1.4512
  21
0.9608
  0
POLYLINE
  8
Pin
  6
CONTINUOUS
  66
1
  70
0
  40
0.0098
  41
0.0098
  0
VERTEX
  8
Pin
  10
1.425
  20
0.9116
  42
0
  0
VERTEX
  8
Pin
  10
1.525
  20
0.9116
  42
0
  0
SEQEND
  0
POLYLINE
  8
Pin
  6
CONTINUOUS
  66
1
  70
0
  40
0.0049
  41
0.0049
  0
VERTEX
  8
Pin
  10
1.4225
  20
0.9116
  42
1
  0
VERTEX
  8
Pin
  10
1.4275
  20
0.9116
  42
1
  0
VERTEX
  8
Pin
  10
1.4225
  20
0.9116
  42
1
  0
SEQEND
  0
POLYLINE
  8
Pin
  6
CONTINUOUS
  66
1
  70
0
  40
0.0049
  41
0.0049
  0
VERTEX
  8
Pin
  10
1.5225
  20
0.9116
  42
1
  0
VERTEX
  8
Pin
  10
1.5275
  20
0.9116
  42
1
  0
VERTEX
  8
Pin
  10
1.5225
  20
0.9116
  42
1
  0
SEQEND
  0
TEXT
  8
Pin
  10
1.4512
  20
1.1608
  40
0.0292
  41
0.7
  1
3
  50
0.0
  72
0
  73
3
  7
STANDARD
  71
0
  11
1.4512
  21
1.1608
  0
POLYLINE
  8
Pin
  6
CONTINUOUS
  66
1
  70
0
  40
0.0098
  41
0.0098
  0
VERTEX
  8
Pin
  10
1.425
  20
1.1116
  42
0
  0
VERTEX
  8
Pin
  10
1.525
  20
1.1116
  42
0
  0
SEQEND
  0
POLYLINE
  8
Pin
  6
CONTINUOUS
  66
1
  70
0
  40
0.0049
  41
0.0049
  0
VERTEX
  8
Pin
  10
1.4225
  20
1.1116
  42
1
  0
VERTEX
  8
Pin
  10
1.4275
  20
1.1116
  42
1
  0
VERTEX
  8
Pin
  10
1.4225
  20
1.1116
  42
1
  0
SEQEND
  0
POLYLINE
  8
Pin
  6
CONTINUOUS
  66
1
  70
0
  40
0.0049
  41
0.0049
  0
VERTEX
  8
Pin
  10
1.5225
  20
1.1116
  42
1
  0
VERTEX
  8
Pin
  10
1.5275
  20
1.1116
  42
1
  0
VERTEX
  8
Pin
  10
1.5225
  20
1.1116
  42
1
  0
SEQEND
  0
TEXT
  8
Pin
  10
3.4026
  20
1.0796
  40
0.0292
  41
0.7
  1
1
  50
0.0
  72
0
  73
3
  7
STANDARD
  71
0
  11
3.4026
  21
1.0796
  0
POLYLINE
  8
Pin
  6
CONTINUOUS
  66
1
  70
0
  40
0.0098
  41
0.0098
  0
VERTEX
  8
Pin
  10
3.4502
  20
1.0304
  42
0
  0
VERTEX
  8
Pin
  10
3.3502
  20
1.0304
  42
0
  0
SEQEND
  0
POLYLINE
  8
Pin
  6
CONTINUOUS
  66
1
  70
0
  40
0.0049
  41
0.0049
  0
VERTEX
  8
Pin
  10
3.4478
  20
1.0304
  42
1
  0
VERTEX
  8
Pin
  10
3.4527
  20
1.0304
  42
1
  0
VERTEX
  8
Pin
  10
3.4478
  20
1.0304
  42
1
  0
SEQEND
  0
POLYLINE
  8
Pin
  6
CONTINUOUS
  66
1
  70
0
  40
0.0049
  41
0.0049
  0
VERTEX
  8
Pin
  10
3.3478
  20
1.0304
  42
1
  0
VERTEX
  8
Pin
  10
3.3527
  20
1.0304
  42
1
  0
VERTEX
  8
Pin
  10
3.3478
  20
1.0304
  42
1
  0
SEQEND
  0
TEXT
  8
Pin
  10
3.6265
  20
0.9796
  40
0.0292
  41
0.7
  1
2
  50
0.0
  72
0
  73
3
  7
STANDARD
  71
0
  11
3.6265
  21
0.9796
  0
POLYLINE
  8
Pin
  6
CONTINUOUS
  66
1
  70
0
  40
0.0098
  41
0.0098
  0
VERTEX
  8
Pin
  10
3.6002
  20
0.9304
  42
0
  0
VERTEX
  8
Pin
  10
3.7002
  20
0.9304
  42
0
  0
SEQEND
  0
POLYLINE
  8
Pin
  6
CONTINUOUS
  66
1
  70
0
  40
0.0049
  41
0.0049
  0
VERTEX
  8
Pin
  10
3.5978
  20
0.9304
  42
1
  0
VERTEX
  8
Pin
  10
3.6027
  20
0.9304
  42
1
  0
VERTEX
  8
Pin
  10
3.5978
  20
0.9304
  42
1
  0
SEQEND
  0
POLYLINE
  8
Pin
  6
CONTINUOUS
  66
1
  70
0
  40
0.0049
  41
0.0049
  0
VERTEX
  8
Pin
  10
3.6978
  20
0.9304
  42
1
  0
VERTEX
  8
Pin
  10
3.7027
  20
0.9304
  42
1
  0
VERTEX
  8
Pin
  10
3.6978
  20
0.9304
  42
1
  0
SEQEND
  0
TEXT
  8
Pin
  10
3.6265
  20
1.1796
  40
0.0292
  41
0.7
  1
3
  50
0.0
  72
0
  73
3
  7
STANDARD
  71
0
  11
3.6265
  21
1.1796
  0
POLYLINE
  8
Pin
  6
CONTINUOUS
  66
1
  70
0
  40
0.0098
  41
0.0098
  0
VERTEX
  8
Pin
  10
3.6002
  20
1.1304
  42
0
  0
VERTEX
  8
Pin
  10
3.7002
  20
1.1304
  42
0
  0
SEQEND
  0
POLYLINE
  8
Pin
  6
CONTINUOUS
  66
1
  70
0
  40
0.0049
  41
0.0049
  0
VERTEX
  8
Pin
  10
3.5978
  20
1.1304
  42
1
  0
VERTEX
  8
Pin
  10
3.6027
  20
1.1304
  42
1
  0
VERTEX
  8
Pin
  10
3.5978
  20
1.1304
  42
1
  0
SEQEND
  0
POLYLINE
  8
Pin
  6
CONTINUOUS
  66
1
  70
0
  40
0.0049
  41
0.0049
  0
VERTEX
  8
Pin
  10
3.6978
  20
1.1304
  42
1
  0
VERTEX
  8
Pin
  10
3.7027
  20
1.1304
  42
1
  0
VERTEX
  8
Pin
  10
3.6978
  20
1.1304
  42
1
  0
SEQEND
  0
TEXT
  8
Pin
  10
2.2457
  20
4.2588
  40
0.0365
  41
0.7
  1
PWR
  50
0.0
  72
0
  73
3
  7
STANDARD
  71
0
  11
2.2457
  21
4.2588
  0
TEXT
  8
Pin
  10
2.1588
  20
4.2862
  40
0.0292
  41
0.7
  1
1
  50
0.0
  72
0
  73
3
  7
STANDARD
  71
0
  11
2.1588
  21
4.2862
  0
POLYLINE
  8
Pin
  6
CONTINUOUS
  66
1
  70
0
  40
0.0098
  41
0.0098
  0
VERTEX
  8
Pin
  10
2.2063
  20
4.237
  42
0
  0
VERTEX
  8
Pin
  10
2.1063
  20
4.237
  42
0
  0
SEQEND
  0
POLYLINE
  8
Pin
  6
CONTINUOUS
  66
1
  70
0
  40
0.0049
  41
0.0049
  0
VERTEX
  8
Pin
  10
2.2039
  20
4.237
  42
1
  0
VERTEX
  8
Pin
  10
2.2088
  20
4.237
  42
1
  0
VERTEX
  8
Pin
  10
2.2039
  20
4.237
  42
1
  0
SEQEND
  0
POLYLINE
  8
Pin
  6
CONTINUOUS
  66
1
  70
0
  40
0.0049
  41
0.0049
  0
VERTEX
  8
Pin
  10
2.1039
  20
4.237
  42
1
  0
VERTEX
  8
Pin
  10
2.1088
  20
4.237
  42
1
  0
VERTEX
  8
Pin
  10
2.1039
  20
4.237
  42
1
  0
SEQEND
  0
TEXT
  8
Pin
  10
2.2457
  20
4.1588
  40
0.0365
  41
0.7
  1
PWR
  50
0.0
  72
0
  73
3
  7
STANDARD
  71
0
  11
2.2457
  21
4.1588
  0
TEXT
  8
Pin
  10
2.1588
  20
4.1862
  40
0.0292
  41
0.7
  1
2
  50
0.0
  72
0
  73
3
  7
STANDARD
  71
0
  11
2.1588
  21
4.1862
  0
POLYLINE
  8
Pin
  6
CONTINUOUS
  66
1
  70
0
  40
0.0098
  41
0.0098
  0
VERTEX
  8
Pin
  10
2.2063
  20
4.137
  42
0
  0
VERTEX
  8
Pin
  10
2.1063
  20
4.137
  42
0
  0
SEQEND
  0
POLYLINE
  8
Pin
  6
CONTINUOUS
  66
1
  70
0
  40
0.0049
  41
0.0049
  0
VERTEX
  8
Pin
  10
2.2039
  20
4.137
  42
1
  0
VERTEX
  8
Pin
  10
2.2088
  20
4.137
  42
1
  0
VERTEX
  8
Pin
  10
2.2039
  20
4.137
  42
1
  0
SEQEND
  0
POLYLINE
  8
Pin
  6
CONTINUOUS
  66
1
  70
0
  40
0.0049
  41
0.0049
  0
VERTEX
  8
Pin
  10
2.1039
  20
4.137
  42
1
  0
VERTEX
  8
Pin
  10
2.1088
  20
4.137
  42
1
  0
VERTEX
  8
Pin
  10
2.1039
  20
4.137
  42
1
  0
SEQEND
  0
TEXT
  8
Pin
  10
2.2457
  20
4.0588
  40
0.0365
  41
0.7
  1
PWR
  50
0.0
  72
0
  73
3
  7
STANDARD
  71
0
  11
2.2457
  21
4.0588
  0
TEXT
  8
Pin
  10
2.1588
  20
4.0862
  40
0.0292
  41
0.7
  1
3
  50
0.0
  72
0
  73
3
  7
STANDARD
  71
0
  11
2.1588
  21
4.0862
  0
POLYLINE
  8
Pin
  6
CONTINUOUS
  66
1
  70
0
  40
0.0098
  41
0.0098
  0
VERTEX
  8
Pin
  10
2.2063
  20
4.037
  42
0
  0
VERTEX
  8
Pin
  10
2.1063
  20
4.037
  42
0
  0
SEQEND
  0
POLYLINE
  8
Pin
  6
CONTINUOUS
  66
1
  70
0
  40
0.0049
  41
0.0049
  0
VERTEX
  8
Pin
  10
2.2039
  20
4.037
  42
1
  0
VERTEX
  8
Pin
  10
2.2088
  20
4.037
  42
1
  0
VERTEX
  8
Pin
  10
2.2039
  20
4.037
  42
1
  0
SEQEND
  0
POLYLINE
  8
Pin
  6
CONTINUOUS
  66
1
  70
0
  40
0.0049
  41
0.0049
  0
VERTEX
  8
Pin
  10
2.1039
  20
4.037
  42
1
  0
VERTEX
  8
Pin
  10
2.1088
  20
4.037
  42
1
  0
VERTEX
  8
Pin
  10
2.1039
  20
4.037
  42
1
  0
SEQEND
  0
TEXT
  8
Pin
  10
2.5948
  20
4.2588
  40
0.0365
  41
0.7
  1
GND
  50
0.0
  72
0
  73
3
  7
STANDARD
  71
0
  11
2.5948
  21
4.2588
  0
TEXT
  8
Pin
  10
2.7326
  20
4.2862
  40
0.0292
  41
0.7
  1
4
  50
0.0
  72
0
  73
3
  7
STANDARD
  71
0
  11
2.7326
  21
4.2862
  0
POLYLINE
  8
Pin
  6
CONTINUOUS
  66
1
  70
0
  40
0.0098
  41
0.0098
  0
VERTEX
  8
Pin
  10
2.7063
  20
4.237
  42
0
  0
VERTEX
  8
Pin
  10
2.8063
  20
4.237
  42
0
  0
SEQEND
  0
POLYLINE
  8
Pin
  6
CONTINUOUS
  66
1
  70
0
  40
0.0049
  41
0.0049
  0
VERTEX
  8
Pin
  10
2.7039
  20
4.237
  42
1
  0
VERTEX
  8
Pin
  10
2.7088
  20
4.237
  42
1
  0
VERTEX
  8
Pin
  10
2.7039
  20
4.237
  42
1
  0
SEQEND
  0
POLYLINE
  8
Pin
  6
CONTINUOUS
  66
1
  70
0
  40
0.0049
  41
0.0049
  0
VERTEX
  8
Pin
  10
2.8039
  20
4.237
  42
1
  0
VERTEX
  8
Pin
  10
2.8088
  20
4.237
  42
1
  0
VERTEX
  8
Pin
  10
2.8039
  20
4.237
  42
1
  0
SEQEND
  0
TEXT
  8
Pin
  10
2.5948
  20
4.1588
  40
0.0365
  41
0.7
  1
GND
  50
0.0
  72
0
  73
3
  7
STANDARD
  71
0
  11
2.5948
  21
4.1588
  0
TEXT
  8
Pin
  10
2.7326
  20
4.1862
  40
0.0292
  41
0.7
  1
5
  50
0.0
  72
0
  73
3
  7
STANDARD
  71
0
  11
2.7326
  21
4.1862
  0
POLYLINE
  8
Pin
  6
CONTINUOUS
  66
1
  70
0
  40
0.0098
  41
0.0098
  0
VERTEX
  8
Pin
  10
2.7063
  20
4.137
  42
0
  0
VERTEX
  8
Pin
  10
2.8063
  20
4.137
  42
0
  0
SEQEND
  0
POLYLINE
  8
Pin
  6
CONTINUOUS
  66
1
  70
0
  40
0.0049
  41
0.0049
  0
VERTEX
  8
Pin
  10
2.7039
  20
4.137
  42
1
  0
VERTEX
  8
Pin
  10
2.7088
  20
4.137
  42
1
  0
VERTEX
  8
Pin
  10
2.7039
  20
4.137
  42
1
  0
SEQEND
  0
POLYLINE
  8
Pin
  6
CONTINUOUS
  66
1
  70
0
  40
0.0049
  41
0.0049
  0
VERTEX
  8
Pin
  10
2.8039
  20
4.137
  42
1
  0
VERTEX
  8
Pin
  10
2.8088
  20
4.137
  42
1
  0
VERTEX
  8
Pin
  10
2.8039
  20
4.137
  42
1
  0
SEQEND
  0
TEXT
  8
Pin
  10
2.5948
  20
4.0588
  40
0.0365
  41
0.7
  1
GND
  50
0.0
  72
0
  73
3
  7
STANDARD
  71
0
  11
2.5948
  21
4.0588
  0
TEXT
  8
Pin
  10
2.7326
  20
4.0862
  40
0.0292
  41
0.7
  1
6
  50
0.0
  72
0
  73
3
  7
STANDARD
  71
0
  11
2.7326
  21
4.0862
  0
POLYLINE
  8
Pin
  6
CONTINUOUS
  66
1
  70
0
  40
0.0098
  41
0.0098
  0
VERTEX
  8
Pin
  10
2.7063
  20
4.037
  42
0
  0
VERTEX
  8
Pin
  10
2.8063
  20
4.037
  42
0
  0
SEQEND
  0
POLYLINE
  8
Pin
  6
CONTINUOUS
  66
1
  70
0
  40
0.0049
  41
0.0049
  0
VERTEX
  8
Pin
  10
2.7039
  20
4.037
  42
1
  0
VERTEX
  8
Pin
  10
2.7088
  20
4.037
  42
1
  0
VERTEX
  8
Pin
  10
2.7039
  20
4.037
  42
1
  0
SEQEND
  0
POLYLINE
  8
Pin
  6
CONTINUOUS
  66
1
  70
0
  40
0.0049
  41
0.0049
  0
VERTEX
  8
Pin
  10
2.8039
  20
4.037
  42
1
  0
VERTEX
  8
Pin
  10
2.8088
  20
4.037
  42
1
  0
VERTEX
  8
Pin
  10
2.8039
  20
4.037
  42
1
  0
SEQEND
  0
POLYLINE
  8
Titles
  6
CONTINUOUS
  66
1
  70
0
  40
0.0131
  41
0.0131
  0
VERTEX
  8
Titles
  10
8.2404
  20
-1.8222
  42
0
  0
VERTEX
  8
Titles
  10
-3.2526
  20
-1.8222
  42
0
  0
VERTEX
  8
Titles
  10
-3.2526
  20
6.2458
  42
0
  0
VERTEX
  8
Titles
  10
8.2404
  20
6.2458
  42
0
  0
VERTEX
  8
Titles
  10
8.2404
  20
-1.8222
  42
0
  0
SEQEND
  0
ENDSEC
  0
EOF
