M48
INCH
T01C0.013
T02C0.0394
T03C0.0472
T04C0.057
T05C0.0571
T06C0.0646
T07C0.0709
T08C0.1181
T09C0.125
%
T01
X+008881Y+032887
X+008881Y+032562
X+008871Y+032237
X+007540Y+029610
X+008460Y+026800
X+008300Y+025530
X+008140Y+025150
X+006046Y+024924
X+005623Y+023537
X+004619Y+024088
X+007950Y+020250
X+007930Y+013440
X+006930Y+013440
X+008930Y+013440
X+004930Y+011940
X+004930Y+011440
X+004930Y+010940
X+004930Y+010440
X+004930Y+009940
X+004930Y+009440
X+004930Y+008940
X+004930Y+008440
X+014078Y+031263
X+014500Y+031870
X+014920Y+031870
X+015330Y+031870
X+015330Y+032280
X+015330Y+032680
X+015330Y+033070
X+014930Y+033070
X+014920Y+032690
X+014910Y+032280
X+014510Y+032290
X+014500Y+032690
X+014510Y+033060
X+013460Y+033130
X+013664Y+033812
X+016105Y+032995
T02
X+008763Y+008241G85X+007779Y+008241
X+010121Y+006667G85X+010121Y+007454
X+008664Y+005879G85X+007877Y+005879
T03
X+006391Y+015604
X+006391Y+016604
X+006391Y+017604
X+006391Y+018604
X+006391Y+019604
X+005391Y+019604
X+005391Y+018604
X+005391Y+017604
X+005391Y+016604
X+005391Y+015604
X+005377Y+025785
X+005377Y+026785
X+005377Y+027785
X+005377Y+028785
X+005377Y+029785
X+005377Y+030785
X+005377Y+031785
X+006377Y+031785
X+006377Y+030785
X+006377Y+029785
X+006377Y+028785
X+006377Y+027785
X+006377Y+026785
X+006377Y+025785
T04
X+013780Y+012040
X+015780Y+012040
X+012490Y+027580
X+010490Y+027580
T05
X+010928Y+016401
X+011728Y+014051
X+011728Y+018751
X+011728Y+020921
X+010928Y+023271
X+011728Y+025621
X+016528Y+025621
X+016528Y+020921
X+016528Y+018751
X+016528Y+014051
T06
X+011930Y+012040
X+010489Y+012040
X+008729Y+012040
X+007288Y+012040
T07
X+015505Y+007995
X+013851Y+007995
X+012198Y+007995
X+012198Y+010161
X+013851Y+010161
X+015505Y+010161
X+012237Y+034413
X+010584Y+034413
X+008930Y+034413
X+008930Y+036578
X+010584Y+036578
X+012237Y+036578
T08
X+008930Y+039452
X+012237Y+039452
X+012198Y+005121
X+015505Y+005121
T09
X+005111Y+005121
X+017710Y+005121
X+017316Y+039767
X+005505Y+039767
T00
M30
