G04 DipTrace 3.0.0.1*
G04 Top.gbr*
%MOIN*%
G04 #@! TF.FileFunction,Copper,L1,Top*
G04 #@! TF.Part,Single*
G04 #@! TA.AperFunction,Conductor*
%ADD13C,0.019685*%
%ADD14C,0.011811*%
%ADD15C,0.008*%
%ADD16C,0.023976*%
%ADD17C,0.031969*%
%ADD18C,0.007992*%
%ADD19C,0.012047*%
G04 #@! TA.AperFunction,CopperBalancing*
%ADD20C,0.025*%
%ADD21R,0.106299X0.062992*%
%ADD22R,0.03937X0.043307*%
%ADD23R,0.051181X0.059055*%
%ADD24R,0.043307X0.03937*%
%ADD25R,0.070866X0.062992*%
%ADD26R,0.086614X0.11811*%
%ADD27R,0.049213X0.043307*%
%ADD28R,0.059055X0.051181*%
G04 #@! TA.AperFunction,ComponentPad*
%ADD29C,0.098425*%
%ADD30R,0.07874X0.07874*%
%ADD31C,0.07874*%
%ADD32O,0.141732X0.086614*%
%ADD33R,0.062992X0.224409*%
%ADD34R,0.041339X0.011811*%
%ADD35R,0.11811X0.15748*%
G04 #@! TA.AperFunction,ComponentPad*
%ADD36C,0.137795*%
%ADD37C,0.1*%
%ADD38C,0.25*%
%ADD39R,0.177165X0.11811*%
%ADD40O,0.177165X0.11811*%
%ADD41O,0.11811X0.177165*%
%ADD42C,0.03937*%
%FSLAX26Y26*%
G04*
G70*
G90*
G75*
G01*
G04 Top*
%LPD*%
X973016Y3260016D2*
D13*
X1094016D1*
X1214016D1*
X1299016D1*
X1309016Y3250016D1*
X924016Y1513535D2*
D14*
X934134D1*
X922543Y1525126D1*
Y1460945D1*
X880614Y1419016D1*
X826213D1*
X826016Y1419213D1*
X820016Y2157213D2*
D15*
X832693D1*
X920016Y2244535D1*
X924016Y1513535D2*
D16*
X966276D1*
X1092819Y1640079D1*
X920016Y2244535D2*
X1010268D1*
X1092819Y2327087D1*
X1768819Y3363016D2*
D15*
Y3366638D1*
X1726677Y3408780D1*
X1631780D1*
X1618016Y3395016D1*
X1433567D1*
X1376701Y3338150D1*
X1080016Y3036016D2*
D17*
X1179016D1*
X1276016D1*
X1353378D1*
X1407780Y2981614D1*
D15*
Y3126299D1*
X1366441Y3381220D2*
Y3348409D1*
X1376701Y3338150D1*
X1080016Y3036016D2*
D17*
X909480D1*
X765063Y3180433D1*
X639669D1*
X637701Y3178465D1*
X537701Y2678465D2*
D15*
X533764D1*
X471756Y2616457D1*
Y2480630D1*
X515063Y2437323D1*
Y2051496D1*
X475693Y2012126D1*
Y1823740D1*
X539079Y1760354D1*
X1376701Y3312559D2*
X1346472D1*
X1346016Y3313016D1*
X1376701Y3312559D2*
X1448472D1*
X1492016Y3269016D1*
X1607016Y3286969D2*
X1530244D1*
X1491858Y3248583D1*
X1763819Y3241016D2*
Y3291142D1*
X1754945Y3300016D1*
X1689016Y3241016D2*
X1612244D1*
X1607016Y3235787D1*
Y3261378D2*
X1637378D1*
X1671016Y3295016D1*
X1683016D1*
X1688016Y3300016D1*
Y3357016D1*
X1694016Y3363016D1*
X1665016Y3175016D2*
D18*
X1660016D1*
X1624835Y3210197D1*
X1607016D1*
X826016Y1582016D2*
D15*
Y1494016D1*
X819016Y2334016D2*
Y2233016D1*
X820016Y2232016D1*
X826016Y1680441D2*
X914591D1*
X924016Y1671016D1*
X910732D1*
Y1798543D1*
X905811Y1803465D1*
D19*
X1101205D1*
X1172819Y1875079D1*
X886016Y2548016D2*
D15*
Y2499441D1*
X819016Y2432441D1*
X886016Y2548016D2*
Y2436016D1*
X920016Y2402016D1*
X886016Y2548016D2*
D19*
X1158748D1*
X1172819Y2562087D1*
X846016Y2680016D2*
D15*
Y2681016D1*
X869157D1*
X923417Y2626756D1*
Y2832417D1*
X924016Y2833016D1*
X821016Y2832213D2*
X923213D1*
X861520Y2056417D2*
Y1997362D1*
X892031Y1966850D1*
X913685D1*
X940260Y1940276D1*
Y1885157D1*
X943213Y1882205D1*
X795016Y2025016D2*
Y1989063D1*
X817228Y1966850D1*
X754016Y2961016D2*
X870819D1*
X924016Y2907819D1*
X537701Y2978465D2*
X482386D1*
X437307Y2933386D1*
Y2433386D1*
X461913Y2408780D1*
X537701Y2578465D2*
Y2500315D1*
X567228Y2470787D1*
Y2358583D1*
X562307Y2353661D1*
X637701Y2878465D2*
X682189D1*
X733567Y2827087D1*
Y1754843D1*
X639079Y1660354D1*
X604630Y2492441D2*
Y2025906D1*
X539079Y1960354D1*
X637701Y2578465D2*
Y1961732D1*
X639079Y1960354D1*
X637701Y2678465D2*
X644984D1*
X696165Y2627283D1*
Y1917441D1*
X639079Y1860354D1*
D20*
X888094Y3288701D3*
Y3256220D3*
X887110Y3223740D3*
X814016Y2515016D3*
X830016Y2553016D3*
X461913Y2408780D3*
X846016Y2680016D3*
X1451016Y3306016D3*
X1493016Y3307016D3*
X1533016D3*
X1450016Y3269016D3*
X1492016D3*
X1533016Y3268016D3*
X1451016Y3229016D3*
X1491016Y3228016D3*
X1533016D3*
X1450016Y3187016D3*
X1492016D3*
X1533016D3*
X1610535Y3299528D3*
X1346016Y3313016D3*
X795016Y2025016D3*
X754016Y2961016D3*
X493016Y1194016D3*
Y1144016D3*
Y1094016D3*
Y1044016D3*
Y994016D3*
Y944016D3*
Y894016D3*
Y844016D3*
X693016Y1344016D3*
X793016D3*
X893016D3*
X1407780Y3126299D3*
X1366441Y3381220D3*
X604630Y2492441D3*
X562307Y2353661D3*
X439995Y4065647D2*
X1530308D1*
X1600200D2*
X1847007D1*
X439946Y4040778D2*
X1517271D1*
X1613237D2*
X1846958D1*
X439898Y4015909D2*
X832651D1*
X953374D2*
X1163364D1*
X1284087D2*
X1519761D1*
X1610747D2*
X1846958D1*
X439898Y3991041D2*
X811460D1*
X974566D2*
X1142173D1*
X1305278D2*
X1543052D1*
X1587456D2*
X1846958D1*
X439849Y3966172D2*
X801597D1*
X984429D2*
X1132310D1*
X1315142D2*
X1846958D1*
X439849Y3941303D2*
X799204D1*
X986821D2*
X1129917D1*
X1317534D2*
X1846909D1*
X439800Y3916434D2*
X803794D1*
X982232D2*
X1134507D1*
X1312944D2*
X1846909D1*
X439800Y3891566D2*
X816538D1*
X969487D2*
X1147251D1*
X1300200D2*
X1846909D1*
X439751Y3866697D2*
X843735D1*
X942290D2*
X1174448D1*
X1273003D2*
X1846909D1*
X439751Y3841828D2*
X1846860D1*
X439702Y3816959D2*
X1846860D1*
X439653Y3792091D2*
X1846860D1*
X439653Y3767222D2*
X1846812D1*
X439605Y3742353D2*
X846372D1*
X939653D2*
X1011704D1*
X1105034D2*
X1177085D1*
X1270366D2*
X1846812D1*
X439605Y3717484D2*
X816099D1*
X969927D2*
X981480D1*
X1135259D2*
X1146812D1*
X1300640D2*
X1846812D1*
X439556Y3692615D2*
X801694D1*
X1315044D2*
X1846812D1*
X439556Y3667747D2*
X795640D1*
X1321099D2*
X1846763D1*
X439507Y3642878D2*
X796323D1*
X1320464D2*
X1846763D1*
X439507Y3618009D2*
X803843D1*
X1312944D2*
X1846763D1*
X439458Y3593140D2*
X820396D1*
X965630D2*
X985728D1*
X1131011D2*
X1151109D1*
X1296343D2*
X1846763D1*
X439458Y3568272D2*
X857603D1*
X928472D2*
X1022935D1*
X1093804D2*
X1188267D1*
X1259136D2*
X1846714D1*
X439409Y3543403D2*
X1846714D1*
X439360Y3518534D2*
X1846714D1*
X439360Y3493665D2*
X1846665D1*
X439312Y3468797D2*
X1846665D1*
X439312Y3443928D2*
X1846665D1*
X439263Y3419059D2*
X1354526D1*
X1378374D2*
X1412290D1*
X1762017D2*
X1846665D1*
X439263Y3394190D2*
X1327183D1*
X1823394D2*
X1846616D1*
X439214Y3369322D2*
X1326792D1*
X1823394D2*
X1846616D1*
X439214Y3344453D2*
X1327036D1*
X1428618D2*
X1557359D1*
X1823394D2*
X1846616D1*
X439165Y3319584D2*
X841441D1*
X935845D2*
X1327036D1*
X1426372D2*
X1557359D1*
X1823394D2*
X1846568D1*
X439116Y3294715D2*
X829575D1*
X1442583D2*
X1625083D1*
X1743609D2*
X1846568D1*
X439116Y3269846D2*
X829575D1*
X1443023D2*
X1557359D1*
X1743609D2*
X1846568D1*
X439068Y3244978D2*
X829575D1*
X1443023D2*
X1557359D1*
X1743609D2*
X1846568D1*
X439068Y3220109D2*
X584165D1*
X782720D2*
X829575D1*
X1439653D2*
X1557359D1*
X1743609D2*
X1846519D1*
X439019Y3195240D2*
X571519D1*
X812847D2*
X837974D1*
X937359D2*
X1272251D1*
X1426372D2*
X1548032D1*
X1743609D2*
X1846519D1*
X439019Y3170371D2*
X569859D1*
X837700D2*
X1548032D1*
X1713677D2*
X1846519D1*
X438970Y3145503D2*
X578159D1*
X862554D2*
X1371323D1*
X1444194D2*
X1538218D1*
X1725298D2*
X1846519D1*
X438970Y3120634D2*
X484605D1*
X690776D2*
X762290D1*
X887456D2*
X1366685D1*
X1448882D2*
X1520786D1*
X1729009D2*
X1846470D1*
X438921Y3095765D2*
X471665D1*
X703765D2*
X787144D1*
X912310D2*
X1347300D1*
X1468267D2*
X1517026D1*
X1729009D2*
X1846470D1*
X438872Y3070896D2*
X469761D1*
X705620D2*
X812046D1*
X1468267D2*
X1517026D1*
X1728960D2*
X1846470D1*
X438872Y3046028D2*
X477866D1*
X697515D2*
X836900D1*
X1468267D2*
X1517026D1*
X1712554D2*
X1846421D1*
X438823Y3021159D2*
X485044D1*
X590337D2*
X602744D1*
X672661D2*
X861753D1*
X1468267D2*
X1517026D1*
X1681890D2*
X1846421D1*
X438823Y2996290D2*
X454585D1*
X603618D2*
X734898D1*
X773150D2*
X891929D1*
X1468267D2*
X1517026D1*
X1676177D2*
X1846421D1*
X605669Y2971421D2*
X713950D1*
X906060D2*
X1347300D1*
X1468267D2*
X1517026D1*
X1676323D2*
X1846421D1*
X597808Y2946552D2*
X715318D1*
X982525D2*
X1347300D1*
X1468267D2*
X1517026D1*
X1676470D2*
X1846372D1*
X471245Y2921684D2*
X485484D1*
X689898D2*
X864536D1*
X982525D2*
X1347300D1*
X1468267D2*
X1517026D1*
X1676616D2*
X1846372D1*
X709478Y2896815D2*
X865513D1*
X982525D2*
X1347300D1*
X1468267D2*
X1517026D1*
X1676763D2*
X1846372D1*
X734331Y2871946D2*
X762485D1*
X982525D2*
X1347300D1*
X1468267D2*
X1517026D1*
X1676909D2*
X1846323D1*
X982525Y2847077D2*
X1347300D1*
X1468267D2*
X1519859D1*
X1675054D2*
X1846323D1*
X470318Y2822209D2*
X485972D1*
X982525D2*
X1004917D1*
X1093120D2*
X1204917D1*
X1293120D2*
X1541978D1*
X1651616D2*
X1846323D1*
X1117144Y2797340D2*
X1180894D1*
X1317144D2*
X1846323D1*
X766558Y2772471D2*
X890415D1*
X956401D2*
X971421D1*
X1126616D2*
X1171421D1*
X1326616D2*
X1846275D1*
X766558Y2747602D2*
X890415D1*
X956401D2*
X970737D1*
X1127300D2*
X1170737D1*
X1327300D2*
X1846275D1*
X470318Y2722734D2*
X486411D1*
X688970D2*
X700547D1*
X766558D2*
X890415D1*
X956401D2*
X978648D1*
X1119390D2*
X1178648D1*
X1319390D2*
X1846275D1*
X766558Y2697865D2*
X808872D1*
X956401D2*
X999253D1*
X1098784D2*
X1199253D1*
X1298784D2*
X1846275D1*
X766558Y2672996D2*
X805161D1*
X972075D2*
X1846226D1*
X766558Y2648127D2*
X821079D1*
X972075D2*
X1846226D1*
X766558Y2623259D2*
X874741D1*
X972075D2*
X1109165D1*
X1236480D2*
X1589146D1*
X1716509D2*
X1846226D1*
X766558Y2598390D2*
X874741D1*
X972075D2*
X1083140D1*
X1262505D2*
X1563120D1*
X1742485D2*
X1846177D1*
X766558Y2573521D2*
X837339D1*
X1271734D2*
X1553892D1*
X1751714D2*
X1846177D1*
X766558Y2548652D2*
X837339D1*
X1271392D2*
X1554282D1*
X1751372D2*
X1846177D1*
X766558Y2523783D2*
X837339D1*
X1261235D2*
X1564390D1*
X1741216D2*
X1846177D1*
X766558Y2498915D2*
X839878D1*
X918999D2*
X1113071D1*
X1232573D2*
X1593052D1*
X1712554D2*
X1846128D1*
X992339Y2474046D2*
X1846128D1*
X992339Y2449177D2*
X1846128D1*
X992339Y2424308D2*
X1846079D1*
X992339Y2399440D2*
X1846079D1*
X992339Y2374571D2*
X1011607D1*
X1174028D2*
X1846079D1*
X438091Y2349702D2*
X482066D1*
X1188921D2*
X1846079D1*
X438091Y2324833D2*
X482066D1*
X1192632D2*
X1846030D1*
X438042Y2299965D2*
X482066D1*
X548052D2*
X571616D1*
X1187212D2*
X1846030D1*
X438042Y2275096D2*
X482066D1*
X548052D2*
X571616D1*
X1169439D2*
X1846030D1*
X437993Y2250227D2*
X482066D1*
X548052D2*
X571616D1*
X1072857D2*
X1846030D1*
X437993Y2225358D2*
X482066D1*
X548052D2*
X571616D1*
X1048003D2*
X1845982D1*
X437944Y2200490D2*
X482066D1*
X548052D2*
X571616D1*
X992339D2*
X1845982D1*
X437944Y2175621D2*
X482066D1*
X548052D2*
X571616D1*
X992339D2*
X1845982D1*
X437896Y2150752D2*
X482066D1*
X548052D2*
X571616D1*
X878521D2*
X1104917D1*
X1240679D2*
X1584946D1*
X1720708D2*
X1845933D1*
X437847Y2125883D2*
X482066D1*
X548052D2*
X571616D1*
X878521D2*
X1081675D1*
X1263970D2*
X1561704D1*
X1743950D2*
X1845933D1*
X437847Y2101014D2*
X482066D1*
X548052D2*
X571616D1*
X766558D2*
X806919D1*
X916118D2*
X1073521D1*
X1272124D2*
X1553550D1*
X1752105D2*
X1845933D1*
X437798Y2076146D2*
X482066D1*
X548052D2*
X571616D1*
X766558D2*
X806919D1*
X916118D2*
X1074790D1*
X1270855D2*
X1554819D1*
X1750835D2*
X1845933D1*
X437798Y2051277D2*
X469224D1*
X548052D2*
X571616D1*
X916118D2*
X1086118D1*
X1259526D2*
X1566148D1*
X1739507D2*
X1845884D1*
X437749Y2026408D2*
X446246D1*
X535601D2*
X559507D1*
X916118D2*
X1119126D1*
X1226519D2*
X1599155D1*
X1706499D2*
X1845884D1*
X946636Y2001539D2*
X1845884D1*
X949468Y1976671D2*
X1845884D1*
X971001Y1951802D2*
X1845835D1*
X991900Y1926933D2*
X1096030D1*
X1249614D2*
X1576060D1*
X1729595D2*
X1845835D1*
X766558Y1902064D2*
X894517D1*
X991900D2*
X1078403D1*
X1267241D2*
X1558384D1*
X1747271D2*
X1845835D1*
X766558Y1877196D2*
X894517D1*
X991900D2*
X1072984D1*
X1272661D2*
X1553013D1*
X1752642D2*
X1845786D1*
X766558Y1852327D2*
X894517D1*
X991900D2*
X1076792D1*
X1268853D2*
X1556773D1*
X1748882D2*
X1845786D1*
X766558Y1827458D2*
X857114D1*
X1253911D2*
X1571714D1*
X1733892D2*
X1845786D1*
X437505Y1802589D2*
X451194D1*
X766558D2*
X857114D1*
X1148833D2*
X1845786D1*
X437505Y1777720D2*
X473032D1*
X766558D2*
X857114D1*
X1123589D2*
X1845737D1*
X437456Y1752852D2*
X471128D1*
X766509D2*
X851694D1*
X996294D2*
X1845737D1*
X437456Y1727983D2*
X479234D1*
X752349D2*
X772398D1*
X996294D2*
X1845737D1*
X437407Y1703114D2*
X486509D1*
X727446D2*
X772398D1*
X996294D2*
X1032798D1*
X1152837D2*
X1845689D1*
X437359Y1678245D2*
X473179D1*
X704985D2*
X772398D1*
X996294D2*
X1004319D1*
X1181304D2*
X1845689D1*
X437359Y1653377D2*
X471079D1*
X707085D2*
X772398D1*
X1191411D2*
X1845689D1*
X437310Y1628508D2*
X478941D1*
X699224D2*
X772398D1*
X1191704D2*
X1845689D1*
X437310Y1603639D2*
X486948D1*
X591216D2*
X603115D1*
X675054D2*
X772398D1*
X1182427D2*
X1845640D1*
X437261Y1578770D2*
X473325D1*
X604790D2*
X772398D1*
X1156255D2*
X1845640D1*
X437261Y1553902D2*
X471030D1*
X607134D2*
X772398D1*
X1063579D2*
X1845640D1*
X437212Y1529033D2*
X478648D1*
X599517D2*
X767515D1*
X1038677D2*
X1845640D1*
X437212Y1504164D2*
X502232D1*
X575933D2*
X767515D1*
X1013823D2*
X1845591D1*
X437163Y1479295D2*
X767515D1*
X996294D2*
X1845591D1*
X437114Y1454427D2*
X767515D1*
X996294D2*
X1093394D1*
X1252251D2*
X1573374D1*
X1732232D2*
X1845591D1*
X437114Y1429558D2*
X767515D1*
X996294D2*
X1077378D1*
X1268267D2*
X1557407D1*
X1748247D2*
X1845542D1*
X437066Y1404689D2*
X767515D1*
X914605D2*
X1072984D1*
X1272661D2*
X1552964D1*
X1752691D2*
X1845542D1*
X437066Y1379820D2*
X767515D1*
X884526D2*
X1077671D1*
X1267925D2*
X1557700D1*
X1747954D2*
X1845542D1*
X437017Y1354951D2*
X1094175D1*
X1251470D2*
X1574204D1*
X1731450D2*
X1845542D1*
X437017Y1330083D2*
X1845493D1*
X436968Y1305214D2*
X1845493D1*
X436968Y1280345D2*
X1845493D1*
X436919Y1255476D2*
X670835D1*
X786870D2*
X814927D1*
X930962D2*
X990903D1*
X1106939D2*
X1134995D1*
X1251030D2*
X1318931D1*
X1437114D2*
X1518931D1*
X1637114D2*
X1845444D1*
X436870Y1230608D2*
X655454D1*
X946294D2*
X975523D1*
X1266411D2*
X1303794D1*
X1452251D2*
X1503794D1*
X1652251D2*
X1845444D1*
X436870Y1205739D2*
X650669D1*
X951128D2*
X970737D1*
X1271196D2*
X1299058D1*
X1456987D2*
X1499058D1*
X1656987D2*
X1845444D1*
X436821Y1180870D2*
X654282D1*
X947515D2*
X974351D1*
X1267583D2*
X1302622D1*
X1453423D2*
X1502622D1*
X1653423D2*
X1845444D1*
X436821Y1156001D2*
X667808D1*
X789849D2*
X811900D1*
X933989D2*
X987876D1*
X1109966D2*
X1131968D1*
X1254058D2*
X1315952D1*
X1440044D2*
X1515952D1*
X1640044D2*
X1845396D1*
X436773Y1131133D2*
X705845D1*
X751812D2*
X849985D1*
X895903D2*
X1025962D1*
X1071880D2*
X1170054D1*
X1215972D2*
X1352280D1*
X1403716D2*
X1552280D1*
X1603716D2*
X1845396D1*
X436773Y1106264D2*
X1845396D1*
X436724Y1081395D2*
X1845396D1*
X436724Y1056526D2*
X1845347D1*
X436675Y1031657D2*
X1845347D1*
X436626Y1006789D2*
X1845347D1*
X436626Y981920D2*
X1845298D1*
X436577Y957051D2*
X1845298D1*
X436577Y932182D2*
X1845298D1*
X436528Y907314D2*
X709507D1*
X944634D2*
X1845298D1*
X436528Y882445D2*
X709507D1*
X944634D2*
X1170151D1*
X1269439D2*
X1335484D1*
X1434819D2*
X1500816D1*
X1600151D2*
X1845249D1*
X436480Y857576D2*
X709507D1*
X944634D2*
X1141587D1*
X1298003D2*
X1306968D1*
X1463335D2*
X1472289D1*
X1628667D2*
X1845249D1*
X436480Y832707D2*
X709507D1*
X944634D2*
X1127866D1*
X1642437D2*
X1845249D1*
X436431Y807839D2*
X709507D1*
X944634D2*
X1122251D1*
X1648003D2*
X1845249D1*
X436382Y782970D2*
X709507D1*
X944634D2*
X1123325D1*
X1646929D2*
X1845200D1*
X436382Y758101D2*
X709507D1*
X944634D2*
X1131382D1*
X1638921D2*
X1845200D1*
X436333Y733232D2*
X1148716D1*
X1290874D2*
X1314048D1*
X1456206D2*
X1479429D1*
X1621587D2*
X1845200D1*
X436333Y708364D2*
X1189194D1*
X1250347D2*
X1354575D1*
X1415728D2*
X1519907D1*
X1581060D2*
X1845151D1*
X436284Y683495D2*
X1845151D1*
X436284Y658626D2*
X1845151D1*
X436235Y633757D2*
X476450D1*
X545806D2*
X1736265D1*
X1805669D2*
X1845151D1*
X594048Y608888D2*
X1688023D1*
X616900Y584020D2*
X1160874D1*
X1278667D2*
X1491587D1*
X1609380D2*
X1665220D1*
X630327Y559151D2*
X1138950D1*
X1300640D2*
X1469663D1*
X1631353D2*
X1651743D1*
X637456Y534282D2*
X1128648D1*
X1310943D2*
X1459360D1*
X639409Y509413D2*
X652766D1*
X735601D2*
X1125962D1*
X1313628D2*
X1456675D1*
X636382Y484545D2*
X645479D1*
X742876D2*
X1130161D1*
X1309380D2*
X1460874D1*
X627984Y459676D2*
X652818D1*
X735601D2*
X1142466D1*
X1297124D2*
X1473179D1*
X1627837D2*
X1654087D1*
X1146874Y3318004D2*
X1293657D1*
Y3309947D1*
X1298370Y3310500D1*
X1328781Y3311242D1*
X1329539Y3318252D1*
X1329357Y3369171D1*
X1327929Y3375121D1*
X1327449Y3381220D1*
X1327929Y3387320D1*
X1329357Y3393270D1*
X1331699Y3398923D1*
X1334896Y3404139D1*
X1338869Y3408792D1*
X1343522Y3412766D1*
X1348739Y3415963D1*
X1354392Y3418304D1*
X1360341Y3419733D1*
X1366441Y3420213D1*
X1372541Y3419733D1*
X1378490Y3418304D1*
X1384143Y3415963D1*
X1389360Y3412766D1*
X1394013Y3408792D1*
X1398617Y3403195D1*
X1413764Y3418202D1*
X1419724Y3422185D1*
X1426449Y3424666D1*
X1433567Y3425508D1*
X1605393D1*
X1613857Y3433448D1*
X1620111Y3436951D1*
X1627009Y3438896D1*
X1631780Y3439272D1*
X1729070Y3439178D1*
X1736100Y3437779D1*
X1742609Y3434778D1*
X1748238Y3430341D1*
X1759529Y3419051D1*
X1820902Y3419035D1*
Y3306996D1*
X1736185D1*
X1736933Y3297035D1*
X1741099D1*
Y3184996D1*
X1711167D1*
X1711193Y3157195D1*
X1719951Y3149464D1*
X1723473Y3144328D1*
X1725699Y3138512D1*
X1726508Y3132016D1*
X1726426Y3069937D1*
X1725211Y3063829D1*
X1722604Y3058174D1*
X1718749Y3053283D1*
X1673594Y3016465D1*
X1674438Y2855091D1*
X1673259Y2848976D1*
X1670684Y2843305D1*
X1666851Y2838387D1*
X1642243Y2816075D1*
X1636907Y2812866D1*
X1630968Y2810990D1*
X1625574Y2810527D1*
X1563497Y2811643D1*
X1557410Y2812960D1*
X1551799Y2815661D1*
X1546832Y2819745D1*
X1524210Y2843971D1*
X1521300Y2849477D1*
X1519756Y2855511D1*
X1519524Y2871516D1*
X1519605Y3109094D1*
X1520820Y3115202D1*
X1523228Y3120528D1*
X1550541Y3159436D1*
X1550605Y3196094D1*
X1551820Y3202202D1*
X1554427Y3207858D1*
X1558283Y3212749D1*
X1559817Y3214166D1*
X1559854Y3293776D1*
X1626700D1*
X1638639Y3305761D1*
X1559854Y3305752D1*
Y3364492D1*
X1446190Y3364523D1*
X1423882Y3342208D1*
X1423862Y3319220D1*
X1427897Y3315525D1*
X1436391Y3304199D1*
X1439084Y3298584D1*
X1440392Y3292495D1*
X1440508Y3233016D1*
X1439776Y3226831D1*
X1437620Y3220989D1*
X1434161Y3215810D1*
X1429414Y3211458D1*
X1423836Y3207474D1*
X1423862Y3177799D1*
X1329539D1*
X1329237Y3183535D1*
X1291104Y3184983D1*
X1285162Y3186849D1*
X1279821Y3190050D1*
X1275369Y3194417D1*
X1269868Y3201873D1*
X1243657Y3202028D1*
X938156D1*
X930542Y3187001D1*
X926418Y3182334D1*
X921319Y3178759D1*
X915527Y3176472D1*
X909352Y3175601D1*
X867315Y3175676D1*
X861207Y3176891D1*
X855552Y3179498D1*
X850661Y3183354D1*
X837063Y3199409D1*
X834045Y3204856D1*
X832382Y3210858D1*
X832075Y3214882D1*
X832156Y3297669D1*
X833371Y3303777D1*
X835979Y3309433D1*
X845888Y3321998D1*
X853668Y3331055D1*
X858759Y3334641D1*
X864547Y3336939D1*
X870720Y3337823D1*
X908874Y3337749D1*
X914982Y3336534D1*
X920637Y3333927D1*
X925528Y3330071D1*
X928499Y3326531D1*
X934351Y3318171D1*
X1146874Y3318004D1*
X1226591Y3094004D2*
X1337941D1*
Y3078525D1*
X1349795Y3078492D1*
X1349791Y3120311D1*
X1369274D1*
X1368787Y3126299D1*
X1369267Y3132399D1*
X1370696Y3138348D1*
X1373037Y3144001D1*
X1376234Y3149218D1*
X1380208Y3153871D1*
X1384861Y3157845D1*
X1390077Y3161041D1*
X1395730Y3163383D1*
X1401680Y3164811D1*
X1407780Y3165291D1*
X1413879Y3164811D1*
X1419829Y3163383D1*
X1425482Y3161041D1*
X1430699Y3157845D1*
X1435351Y3153871D1*
X1439325Y3149218D1*
X1442522Y3144001D1*
X1444863Y3138348D1*
X1446292Y3132399D1*
X1446772Y3126299D1*
X1446304Y3120306D1*
X1465768Y3120311D1*
Y2842917D1*
X1349791D1*
Y2979490D1*
X1337935Y2991388D1*
X1337941Y2978027D1*
X1018091D1*
Y2993506D1*
X906148Y2993670D1*
X899564Y2994713D1*
X893225Y2996773D1*
X887286Y2999799D1*
X881894Y3003716D1*
X817573Y3067852D1*
X747449Y3137976D1*
X689624Y3137957D1*
X684272Y3131893D1*
X680579Y3128479D1*
X687783Y3121239D1*
X693858Y3112877D1*
X698550Y3103669D1*
X701743Y3093840D1*
X703360Y3083632D1*
Y3073297D1*
X701743Y3063089D1*
X698550Y3053260D1*
X693858Y3044052D1*
X687783Y3035690D1*
X680475Y3028383D1*
X672114Y3022308D1*
X662905Y3017616D1*
X653076Y3014422D1*
X642868Y3012805D1*
X632533D1*
X622326Y3014422D1*
X612496Y3017616D1*
X603288Y3022308D1*
X594927Y3028383D1*
X587715Y3035587D1*
X580579Y3028479D1*
X587783Y3021239D1*
X593858Y3012877D1*
X598550Y3003669D1*
X601743Y2993840D1*
X603360Y2983632D1*
Y2973297D1*
X601743Y2963089D1*
X598550Y2953260D1*
X593858Y2944052D1*
X587783Y2935690D1*
X580579Y2928479D1*
X587687Y2921342D1*
X594927Y2928547D1*
X603288Y2934621D1*
X612496Y2939313D1*
X622326Y2942507D1*
X632533Y2944124D1*
X642868D1*
X653076Y2942507D1*
X662905Y2939313D1*
X672114Y2934621D1*
X680475Y2928547D1*
X687783Y2921239D1*
X693858Y2912877D1*
X698203Y2904421D1*
X703750Y2900026D1*
X756753Y2846890D1*
X760736Y2840930D1*
X763217Y2834205D1*
X764059Y2827087D1*
Y2284069D1*
X767918Y2285870D1*
Y2382161D1*
X850193D1*
X845114Y2384295D1*
X767918D1*
Y2480586D1*
X824021D1*
X843340Y2499888D1*
X839839Y2499870D1*
Y2596161D1*
X877192D1*
X877240Y2629831D1*
X862392Y2644659D1*
X855118Y2642101D1*
X849075Y2641144D1*
X842956D1*
X836913Y2642101D1*
X831094Y2643992D1*
X825642Y2646769D1*
X820692Y2650366D1*
X816366Y2654692D1*
X812769Y2659642D1*
X809992Y2665094D1*
X808101Y2670913D1*
X807144Y2676956D1*
Y2683075D1*
X808101Y2689118D1*
X809992Y2694937D1*
X812769Y2700389D1*
X816366Y2705339D1*
X820692Y2709666D1*
X825642Y2713262D1*
X831094Y2716040D1*
X836913Y2717931D1*
X842956Y2718888D1*
X849075D1*
X855118Y2717931D1*
X860937Y2716040D1*
X866389Y2713262D1*
X869157Y2711508D1*
X876276Y2710665D1*
X883001Y2708184D1*
X888961Y2704202D1*
X892894Y2700402D1*
X892925Y2780906D1*
X877073Y2780933D1*
X877036Y2780130D1*
X764996D1*
Y2884295D1*
X867959D1*
X867996Y2920726D1*
X858157Y2930555D1*
X778290Y2930523D1*
X771718Y2926274D1*
X766065Y2923932D1*
X760115Y2922504D1*
X754016Y2922024D1*
X747916Y2922504D1*
X741967Y2923932D1*
X736314Y2926274D1*
X731097Y2929470D1*
X726444Y2933444D1*
X722470Y2938097D1*
X719274Y2943314D1*
X716932Y2948967D1*
X715504Y2954916D1*
X715024Y2961016D1*
X715504Y2967115D1*
X716932Y2973065D1*
X719274Y2978718D1*
X722470Y2983935D1*
X726444Y2988587D1*
X731097Y2992561D1*
X736314Y2995758D1*
X741967Y2998099D1*
X747916Y2999528D1*
X754016Y3000008D1*
X760115Y2999528D1*
X766065Y2998099D1*
X771718Y2995758D1*
X778278Y2991502D1*
X873211Y2991414D1*
X880242Y2990016D1*
X886751Y2987015D1*
X892380Y2982577D1*
X915064Y2959893D1*
X980035Y2959902D1*
Y2791104D1*
X983795Y2797983D1*
X990851Y2807693D1*
X999338Y2816181D1*
X1009049Y2823236D1*
X1019743Y2828685D1*
X1031159Y2832394D1*
X1043014Y2834272D1*
X1055017D1*
X1066872Y2832394D1*
X1078288Y2828685D1*
X1088983Y2823236D1*
X1098693Y2816181D1*
X1107181Y2807693D1*
X1114236Y2797983D1*
X1119685Y2787288D1*
X1123394Y2775872D1*
X1125272Y2764017D1*
Y2752014D1*
X1123394Y2740159D1*
X1119685Y2728743D1*
X1114236Y2718049D1*
X1107181Y2708338D1*
X1098693Y2699851D1*
X1088983Y2692795D1*
X1078288Y2687346D1*
X1066872Y2683637D1*
X1055017Y2681759D1*
X1043014D1*
X1031159Y2683637D1*
X1019743Y2687346D1*
X1009049Y2692795D1*
X999338Y2699851D1*
X990851Y2708338D1*
X983795Y2718049D1*
X978346Y2728743D1*
X974637Y2740159D1*
X972759Y2752014D1*
Y2764017D1*
X974637Y2775872D1*
X976070Y2780953D1*
X953912Y2780933D1*
X953909Y2674947D1*
X969595Y2674901D1*
Y2580499D1*
X1077959Y2580532D1*
X1080774Y2588798D1*
X1085746Y2598557D1*
X1092184Y2607418D1*
X1099929Y2615162D1*
X1108790Y2621600D1*
X1118549Y2626573D1*
X1128966Y2629957D1*
X1139783Y2631671D1*
X1182760Y2631886D1*
X1205854Y2631671D1*
X1216672Y2629957D1*
X1227089Y2626573D1*
X1236848Y2621600D1*
X1245709Y2615162D1*
X1253454Y2607418D1*
X1259892Y2598557D1*
X1264864Y2588798D1*
X1268249Y2578381D1*
X1269962Y2567563D1*
Y2556610D1*
X1268249Y2545792D1*
X1264864Y2535376D1*
X1259892Y2525617D1*
X1253454Y2516756D1*
X1245709Y2509011D1*
X1236848Y2502573D1*
X1227089Y2497601D1*
X1216672Y2494216D1*
X1205854Y2492503D1*
X1162878Y2492287D1*
X1139783Y2492503D1*
X1128966Y2494216D1*
X1118549Y2497601D1*
X1108790Y2502573D1*
X1099929Y2509011D1*
X1093332Y2515514D1*
X932234Y2515500D1*
X932193Y2499870D1*
X916519D1*
X916508Y2487518D1*
X989815Y2487563D1*
Y2283061D1*
X1000736Y2289423D1*
X1004361Y2293048D1*
X1000774Y2300376D1*
X997389Y2310792D1*
X995676Y2321610D1*
Y2332563D1*
X997389Y2343381D1*
X1000774Y2353798D1*
X1005746Y2363557D1*
X1012184Y2372418D1*
X1019929Y2380162D1*
X1028790Y2386600D1*
X1038549Y2391573D1*
X1048966Y2394957D1*
X1059783Y2396671D1*
X1102760Y2396886D1*
X1125854Y2396671D1*
X1136672Y2394957D1*
X1147089Y2391573D1*
X1156848Y2386600D1*
X1165709Y2380162D1*
X1173454Y2372418D1*
X1179892Y2363557D1*
X1184864Y2353798D1*
X1188249Y2343381D1*
X1189962Y2332563D1*
Y2321610D1*
X1188249Y2310792D1*
X1184864Y2300376D1*
X1179892Y2290617D1*
X1173454Y2281756D1*
X1165709Y2274011D1*
X1156848Y2267573D1*
X1147089Y2262601D1*
X1136672Y2259216D1*
X1125854Y2257503D1*
X1082878Y2257287D1*
X1077458D1*
X1035259Y2215275D1*
X1030374Y2211725D1*
X1024994Y2208984D1*
X1019251Y2207118D1*
X1013287Y2206174D1*
X989809Y2206055D1*
X989815Y2158988D1*
X877559D1*
X876036Y2146795D1*
Y2112469D1*
X913603Y2112437D1*
Y2022837D1*
X944114Y2022870D1*
Y1979559D1*
X963446Y1960079D1*
X967429Y1954119D1*
X969910Y1947394D1*
X970752Y1940276D1*
Y1930363D1*
X989390Y1930350D1*
Y1835948D1*
X1087403Y1835980D1*
X1083068Y1843391D1*
X1078877Y1853510D1*
X1076320Y1864160D1*
X1075461Y1875079D1*
X1076320Y1885998D1*
X1078877Y1896648D1*
X1083068Y1906767D1*
X1088791Y1916106D1*
X1095904Y1924434D1*
X1104233Y1931547D1*
X1113572Y1937270D1*
X1123691Y1941462D1*
X1134341Y1944019D1*
X1145281Y1944877D1*
X1205854Y1944663D1*
X1216672Y1942949D1*
X1227089Y1939565D1*
X1236848Y1934592D1*
X1245709Y1928154D1*
X1253454Y1920410D1*
X1259892Y1911549D1*
X1264864Y1901790D1*
X1268249Y1891373D1*
X1269962Y1880555D1*
Y1869602D1*
X1268249Y1858784D1*
X1264864Y1848368D1*
X1259892Y1838609D1*
X1253454Y1829748D1*
X1245709Y1822003D1*
X1236848Y1815565D1*
X1227089Y1810593D1*
X1216672Y1807208D1*
X1205854Y1805495D1*
X1162878Y1805279D1*
X1148999D1*
X1122322Y1778739D1*
X1115967Y1774493D1*
X1108795Y1771847D1*
X1101205Y1770949D1*
X952035D1*
X951988Y1756589D1*
X993815Y1756563D1*
Y1595518D1*
X1004356Y1606035D1*
X1000774Y1613368D1*
X997389Y1623784D1*
X995676Y1634602D1*
Y1645555D1*
X997389Y1656373D1*
X1000774Y1666790D1*
X1005746Y1676549D1*
X1012184Y1685410D1*
X1019929Y1693154D1*
X1028790Y1699592D1*
X1038549Y1704565D1*
X1048966Y1707949D1*
X1059783Y1709663D1*
X1102760Y1709878D1*
X1125854Y1709663D1*
X1136672Y1707949D1*
X1147089Y1704565D1*
X1156848Y1699592D1*
X1165709Y1693154D1*
X1173454Y1685410D1*
X1179892Y1676549D1*
X1184864Y1666790D1*
X1188249Y1656373D1*
X1189962Y1645555D1*
Y1634602D1*
X1188249Y1623784D1*
X1184864Y1613368D1*
X1179892Y1603609D1*
X1173454Y1594748D1*
X1165709Y1587003D1*
X1156848Y1580565D1*
X1147089Y1575593D1*
X1136672Y1572208D1*
X1125854Y1570495D1*
X1082878Y1570279D1*
X1077458D1*
X993815Y1486582D1*
Y1427988D1*
X935368D1*
X901655Y1394380D1*
X895322Y1390149D1*
X888177Y1387513D1*
X883146Y1386718D1*
X882036Y1383795D1*
Y1367130D1*
X769996D1*
Y1546098D1*
X774918Y1546370D1*
Y1630161D1*
X854263D1*
X852114Y1632295D1*
X774918D1*
Y1728586D1*
X854263D1*
X854217Y1756563D1*
X859637D1*
X859634Y1851610D1*
X896988D1*
X897036Y1910865D1*
X765146Y1910831D1*
X764899Y1984293D1*
X764524Y1989063D1*
Y2000733D1*
X764059Y1977087D1*
X763965Y1752450D1*
X762567Y1745420D1*
X759566Y1738910D1*
X755128Y1733281D1*
X701923Y1680076D1*
X704130Y1670657D1*
X704941Y1660354D1*
X704130Y1650051D1*
X701717Y1640002D1*
X697762Y1630454D1*
X692362Y1621641D1*
X685650Y1613783D1*
X677792Y1607071D1*
X668980Y1601671D1*
X659431Y1597716D1*
X649382Y1595303D1*
X639079Y1594492D1*
X628776Y1595303D1*
X618726Y1597716D1*
X609178Y1601671D1*
X600366Y1607071D1*
X592507Y1613783D1*
X589093Y1617476D1*
X581957Y1610368D1*
X589161Y1603128D1*
X595236Y1594767D1*
X599927Y1585559D1*
X603121Y1575730D1*
X604738Y1565522D1*
Y1555187D1*
X603121Y1544979D1*
X599927Y1535150D1*
X595236Y1525941D1*
X589161Y1517580D1*
X581853Y1510272D1*
X573492Y1504198D1*
X564283Y1499506D1*
X554454Y1496312D1*
X544246Y1494695D1*
X533911D1*
X523704Y1496312D1*
X513874Y1499506D1*
X504666Y1504198D1*
X496305Y1510272D1*
X488997Y1517580D1*
X482922Y1525941D1*
X478230Y1535150D1*
X475036Y1544979D1*
X473420Y1555187D1*
Y1565522D1*
X475036Y1575730D1*
X478230Y1585559D1*
X482922Y1594767D1*
X488997Y1603128D1*
X496201Y1610340D1*
X488997Y1617580D1*
X482922Y1625941D1*
X478230Y1635150D1*
X475036Y1644979D1*
X473420Y1655187D1*
Y1665522D1*
X475036Y1675730D1*
X478230Y1685559D1*
X482922Y1694767D1*
X488997Y1703128D1*
X496201Y1710340D1*
X488997Y1717580D1*
X482922Y1725941D1*
X478230Y1735150D1*
X475036Y1744979D1*
X473420Y1755187D1*
Y1765522D1*
X475036Y1775730D1*
X476259Y1780065D1*
X452506Y1803937D1*
X448524Y1809897D1*
X446043Y1816622D1*
X445201Y1823740D1*
X445295Y2014518D1*
X446693Y2021549D1*
X449694Y2028058D1*
X454132Y2033687D1*
X484550Y2064105D1*
X484571Y2377033D1*
X479615Y2374037D1*
X473963Y2371696D1*
X468013Y2370267D1*
X461913Y2369787D1*
X455814Y2370267D1*
X449864Y2371696D1*
X444211Y2374037D1*
X438994Y2377234D1*
X435650Y2379998D1*
X433720Y611354D1*
X445385Y619405D1*
X454005Y624233D1*
X462977Y628369D1*
X472245Y631788D1*
X481754Y634470D1*
X491443Y636397D1*
X501254Y637558D1*
X511126Y637946D1*
X520998Y637558D1*
X530809Y636397D1*
X540498Y634470D1*
X550007Y631788D1*
X559275Y628369D1*
X568247Y624233D1*
X576867Y619405D1*
X585081Y613917D1*
X592840Y607800D1*
X600094Y601094D1*
X606800Y593840D1*
X612917Y586081D1*
X618405Y577867D1*
X623233Y569247D1*
X627369Y560275D1*
X630788Y551007D1*
X633470Y541498D1*
X635397Y531809D1*
X636558Y521998D1*
X636946Y512126D1*
X636558Y502254D1*
X635397Y492443D1*
X633470Y482754D1*
X630788Y473245D1*
X627369Y463977D1*
X623233Y455005D1*
X618405Y446385D1*
X611507Y436383D1*
X1169218Y435996D1*
X1160446Y442647D1*
X1150308Y452785D1*
X1141880Y464385D1*
X1135371Y477160D1*
X1130941Y490796D1*
X1128698Y504957D1*
Y519295D1*
X1130941Y533456D1*
X1135371Y547092D1*
X1141880Y559867D1*
X1150308Y571467D1*
X1160446Y581605D1*
X1172046Y590033D1*
X1184821Y596542D1*
X1198457Y600973D1*
X1212618Y603216D1*
X1226956D1*
X1241118Y600973D1*
X1254754Y596542D1*
X1267529Y590033D1*
X1279128Y581605D1*
X1289267Y571467D1*
X1297694Y559867D1*
X1304204Y547092D1*
X1308634Y533456D1*
X1310877Y519295D1*
Y504957D1*
X1308634Y490796D1*
X1304204Y477160D1*
X1297694Y464385D1*
X1289267Y452785D1*
X1279128Y442647D1*
X1270069Y435916D1*
X1500272Y435766D1*
X1491155Y442647D1*
X1481017Y452785D1*
X1472589Y464385D1*
X1466080Y477160D1*
X1461649Y490796D1*
X1459406Y504957D1*
Y519295D1*
X1461649Y533456D1*
X1466080Y547092D1*
X1472589Y559867D1*
X1481017Y571467D1*
X1491155Y581605D1*
X1502755Y590033D1*
X1515530Y596542D1*
X1529166Y600973D1*
X1543327Y603216D1*
X1557665D1*
X1571826Y600973D1*
X1585462Y596542D1*
X1598237Y590033D1*
X1609837Y581605D1*
X1619975Y571467D1*
X1628403Y559867D1*
X1634912Y547092D1*
X1639343Y533456D1*
X1641586Y519295D1*
Y504957D1*
X1639343Y490796D1*
X1634912Y477160D1*
X1628403Y464385D1*
X1619975Y452785D1*
X1609837Y442647D1*
X1600451Y435698D1*
X1671073Y435647D1*
X1663689Y446385D1*
X1658862Y455005D1*
X1654726Y463977D1*
X1651306Y473245D1*
X1648625Y482754D1*
X1646697Y492443D1*
X1645536Y502254D1*
X1645148Y512126D1*
X1645536Y521998D1*
X1646697Y531809D1*
X1648625Y541498D1*
X1651306Y551007D1*
X1654726Y560275D1*
X1658862Y569247D1*
X1663689Y577867D1*
X1669178Y586081D1*
X1675294Y593840D1*
X1682000Y601094D1*
X1689255Y607800D1*
X1697013Y613917D1*
X1705228Y619405D1*
X1713847Y624233D1*
X1722819Y628369D1*
X1732088Y631788D1*
X1741596Y634470D1*
X1751286Y636397D1*
X1761097Y637558D1*
X1770969Y637946D1*
X1780840Y637558D1*
X1790651Y636397D1*
X1800341Y634470D1*
X1809849Y631788D1*
X1819118Y628369D1*
X1828090Y624233D1*
X1836709Y619405D1*
X1847621Y611790D1*
X1849509Y4090551D1*
X437502Y4090502D1*
X436290Y2975513D1*
X462583Y3001651D1*
X468543Y3005633D1*
X475268Y3008114D1*
X477625Y3008583D1*
X481544Y3012877D1*
X487619Y3021239D1*
X494823Y3028451D1*
X487619Y3035690D1*
X481544Y3044052D1*
X476852Y3053260D1*
X473658Y3063089D1*
X472042Y3073297D1*
Y3083632D1*
X473658Y3093840D1*
X476852Y3103669D1*
X481544Y3112877D1*
X487619Y3121239D1*
X494927Y3128547D1*
X503288Y3134621D1*
X512496Y3139313D1*
X522326Y3142507D1*
X532533Y3144124D1*
X542868D1*
X553076Y3142507D1*
X562905Y3139313D1*
X572114Y3134621D1*
X580475Y3128547D1*
X587687Y3121342D1*
X594823Y3128451D1*
X587619Y3135690D1*
X581544Y3144052D1*
X576852Y3153260D1*
X573658Y3163089D1*
X572042Y3173297D1*
Y3183632D1*
X573658Y3193840D1*
X576852Y3203669D1*
X581544Y3212877D1*
X587619Y3221239D1*
X594927Y3228547D1*
X603288Y3234621D1*
X612496Y3239313D1*
X622326Y3242507D1*
X632533Y3244124D1*
X642868D1*
X653076Y3242507D1*
X662905Y3239313D1*
X672114Y3234621D1*
X680475Y3228547D1*
X686233Y3222915D1*
X768396Y3222779D1*
X774979Y3221736D1*
X781318Y3219676D1*
X787257Y3216650D1*
X792649Y3212732D1*
X856970Y3148597D1*
X927094Y3078473D1*
X1018123Y3078492D1*
X1018091Y3094004D1*
X1226591D1*
X1268487Y1198076D2*
X1266629Y1186343D1*
X1262958Y1175045D1*
X1257565Y1164460D1*
X1250582Y1154849D1*
X1242182Y1146449D1*
X1232571Y1139467D1*
X1221987Y1134074D1*
X1210689Y1130403D1*
X1198955Y1128544D1*
X1187076D1*
X1175343Y1130403D1*
X1164045Y1134074D1*
X1153460Y1139467D1*
X1143849Y1146449D1*
X1135449Y1154849D1*
X1128467Y1164460D1*
X1123074Y1175045D1*
X1120921Y1180622D1*
X1116375Y1169647D1*
X1110168Y1159518D1*
X1102453Y1150484D1*
X1093419Y1142769D1*
X1083290Y1136562D1*
X1072315Y1132016D1*
X1060764Y1129243D1*
X1048921Y1128311D1*
X1037078Y1129243D1*
X1025527Y1132016D1*
X1014552Y1136562D1*
X1004423Y1142769D1*
X995390Y1150484D1*
X987675Y1159518D1*
X981468Y1169647D1*
X976922Y1180622D1*
X974149Y1192173D1*
X973217Y1204016D1*
X974149Y1215859D1*
X976922Y1227410D1*
X981468Y1238385D1*
X987675Y1248514D1*
X995390Y1257547D1*
X1004423Y1265262D1*
X1014552Y1271469D1*
X1025527Y1276015D1*
X1037078Y1278788D1*
X1048921Y1279720D1*
X1060764Y1278788D1*
X1072315Y1276015D1*
X1083290Y1271469D1*
X1093419Y1265262D1*
X1102453Y1257547D1*
X1110168Y1248514D1*
X1116375Y1238385D1*
X1120965Y1227253D1*
X1125562Y1238385D1*
X1131769Y1248514D1*
X1139484Y1257547D1*
X1148518Y1265262D1*
X1158647Y1271469D1*
X1169622Y1276015D1*
X1181173Y1278788D1*
X1193016Y1279720D1*
X1204859Y1278788D1*
X1216410Y1276015D1*
X1227385Y1271469D1*
X1237514Y1265262D1*
X1246547Y1257547D1*
X1254262Y1248514D1*
X1260469Y1238385D1*
X1265015Y1227410D1*
X1267788Y1215859D1*
X1268720Y1204016D1*
X1268487Y1198076D1*
X948408D2*
X946550Y1186343D1*
X942879Y1175045D1*
X937486Y1164460D1*
X930503Y1154849D1*
X922103Y1146449D1*
X912493Y1139467D1*
X901908Y1134074D1*
X890610Y1130403D1*
X878877Y1128544D1*
X866997D1*
X855264Y1130403D1*
X843966Y1134074D1*
X833381Y1139467D1*
X823771Y1146449D1*
X815371Y1154849D1*
X808388Y1164460D1*
X802995Y1175045D1*
X800842Y1180622D1*
X796296Y1169647D1*
X790089Y1159518D1*
X782374Y1150484D1*
X773341Y1142769D1*
X763212Y1136562D1*
X752237Y1132016D1*
X740685Y1129243D1*
X728843Y1128311D1*
X717000Y1129243D1*
X705448Y1132016D1*
X694473Y1136562D1*
X684344Y1142769D1*
X675311Y1150484D1*
X667596Y1159518D1*
X661389Y1169647D1*
X656843Y1180622D1*
X654070Y1192173D1*
X653138Y1204016D1*
X654070Y1215859D1*
X656843Y1227410D1*
X661389Y1238385D1*
X667596Y1248514D1*
X675311Y1257547D1*
X684344Y1265262D1*
X694473Y1271469D1*
X705448Y1276015D1*
X717000Y1278788D1*
X728843Y1279720D1*
X740685Y1278788D1*
X752237Y1276015D1*
X763212Y1271469D1*
X773341Y1265262D1*
X782374Y1257547D1*
X790089Y1248514D1*
X796296Y1238385D1*
X800886Y1227253D1*
X805484Y1238385D1*
X811691Y1248514D1*
X819406Y1257547D1*
X828439Y1265262D1*
X838568Y1271469D1*
X849543Y1276015D1*
X861094Y1278788D1*
X872937Y1279720D1*
X884780Y1278788D1*
X896331Y1276015D1*
X907306Y1271469D1*
X917435Y1265262D1*
X926468Y1257547D1*
X934183Y1248514D1*
X940390Y1238385D1*
X944936Y1227410D1*
X947710Y1215859D1*
X948642Y1204016D1*
X948408Y1198076D1*
X532527Y2025850D2*
X539079Y2026217D1*
X549382Y2025406D1*
X558790Y2023174D1*
X574107Y2038505D1*
X574138Y2316482D1*
X568407Y2315149D1*
X562307Y2314669D1*
X556207Y2315149D1*
X550258Y2316578D1*
X545550Y2318484D1*
X545461Y2049104D1*
X544063Y2042073D1*
X541062Y2035564D1*
X536624Y2029935D1*
X532585Y2025895D1*
X809483Y2105130D2*
X764043D1*
X764059Y2048717D1*
X769692Y2054666D1*
X774642Y2058262D1*
X780094Y2061040D1*
X785913Y2062931D1*
X791956Y2063888D1*
X798075D1*
X804118Y2062931D1*
X809432Y2061226D1*
X809437Y2105147D1*
X1645592Y792043D2*
X1643250Y777259D1*
X1638625Y763023D1*
X1631829Y749687D1*
X1623031Y737577D1*
X1612447Y726993D1*
X1600337Y718194D1*
X1587000Y711399D1*
X1572764Y706773D1*
X1557980Y704432D1*
X1543012D1*
X1528228Y706773D1*
X1513992Y711399D1*
X1500655Y718194D1*
X1488545Y726993D1*
X1477961Y737577D1*
X1469163Y749687D1*
X1467862Y752010D1*
X1462314Y743459D1*
X1452592Y732077D1*
X1441210Y722356D1*
X1428448Y714535D1*
X1414619Y708807D1*
X1400064Y705312D1*
X1385142Y704138D1*
X1370219Y705312D1*
X1355665Y708807D1*
X1341836Y714535D1*
X1329073Y722356D1*
X1317691Y732077D1*
X1307970Y743459D1*
X1302508Y752010D1*
X1296959Y743459D1*
X1287238Y732077D1*
X1275856Y722356D1*
X1263093Y714535D1*
X1249264Y708807D1*
X1234710Y705312D1*
X1219787Y704138D1*
X1204865Y705312D1*
X1190310Y708807D1*
X1176481Y714535D1*
X1163719Y722356D1*
X1152337Y732077D1*
X1142615Y743459D1*
X1134794Y756222D1*
X1129066Y770051D1*
X1125572Y784605D1*
X1124398Y799528D1*
X1125572Y814450D1*
X1129066Y829005D1*
X1134794Y842834D1*
X1142615Y855596D1*
X1152337Y866978D1*
X1163719Y876699D1*
X1176481Y884520D1*
X1190310Y890249D1*
X1204865Y893743D1*
X1219787Y894917D1*
X1234710Y893743D1*
X1249264Y890249D1*
X1263093Y884520D1*
X1275856Y876699D1*
X1287238Y866978D1*
X1296959Y855596D1*
X1302421Y847046D1*
X1307970Y855596D1*
X1317691Y866978D1*
X1329073Y876699D1*
X1341836Y884520D1*
X1355665Y890249D1*
X1370219Y893743D1*
X1385142Y894917D1*
X1400064Y893743D1*
X1414619Y890249D1*
X1428448Y884520D1*
X1441210Y876699D1*
X1452592Y866978D1*
X1462314Y855596D1*
X1467776Y847046D1*
X1473324Y855596D1*
X1483045Y866978D1*
X1494427Y876699D1*
X1507190Y884520D1*
X1521019Y890249D1*
X1535574Y893743D1*
X1550496Y894917D1*
X1565418Y893743D1*
X1579973Y890249D1*
X1593802Y884520D1*
X1606565Y876699D1*
X1617947Y866978D1*
X1627668Y855596D1*
X1635489Y842834D1*
X1641217Y829005D1*
X1644711Y814450D1*
X1645886Y799528D1*
X1645592Y792043D1*
X1454272Y1198014D2*
X1452394Y1186159D1*
X1448685Y1174743D1*
X1443236Y1164049D1*
X1436181Y1154338D1*
X1427693Y1145851D1*
X1417983Y1138795D1*
X1407288Y1133346D1*
X1395872Y1129637D1*
X1384017Y1127759D1*
X1372014D1*
X1360159Y1129637D1*
X1348743Y1133346D1*
X1338049Y1138795D1*
X1328338Y1145851D1*
X1319851Y1154338D1*
X1312795Y1164049D1*
X1307346Y1174743D1*
X1303637Y1186159D1*
X1301759Y1198014D1*
Y1210017D1*
X1303637Y1221872D1*
X1307346Y1233288D1*
X1312795Y1243983D1*
X1319851Y1253693D1*
X1328338Y1262181D1*
X1338049Y1269236D1*
X1348743Y1274685D1*
X1360159Y1278394D1*
X1372014Y1280272D1*
X1384017D1*
X1395872Y1278394D1*
X1407288Y1274685D1*
X1417983Y1269236D1*
X1427693Y1262181D1*
X1436181Y1253693D1*
X1443236Y1243983D1*
X1448685Y1233288D1*
X1452394Y1221872D1*
X1454272Y1210017D1*
Y1198014D1*
X1654272D2*
X1652394Y1186159D1*
X1648685Y1174743D1*
X1643236Y1164049D1*
X1636181Y1154338D1*
X1627693Y1145851D1*
X1617983Y1138795D1*
X1607288Y1133346D1*
X1595872Y1129637D1*
X1584017Y1127759D1*
X1572014D1*
X1560159Y1129637D1*
X1548743Y1133346D1*
X1538049Y1138795D1*
X1528338Y1145851D1*
X1519851Y1154338D1*
X1512795Y1164049D1*
X1507346Y1174743D1*
X1503637Y1186159D1*
X1501759Y1198014D1*
Y1210017D1*
X1503637Y1221872D1*
X1507346Y1233288D1*
X1512795Y1243983D1*
X1519851Y1253693D1*
X1528338Y1262181D1*
X1538049Y1269236D1*
X1548743Y1274685D1*
X1560159Y1278394D1*
X1572014Y1280272D1*
X1584017D1*
X1595872Y1278394D1*
X1607288Y1274685D1*
X1617983Y1269236D1*
X1627693Y1262181D1*
X1636181Y1253693D1*
X1643236Y1243983D1*
X1648685Y1233288D1*
X1652394Y1221872D1*
X1654272Y1210017D1*
Y1198014D1*
X1325272Y2752014D2*
X1323394Y2740159D1*
X1319685Y2728743D1*
X1314236Y2718049D1*
X1307181Y2708338D1*
X1298693Y2699851D1*
X1288983Y2692795D1*
X1278288Y2687346D1*
X1266872Y2683637D1*
X1255017Y2681759D1*
X1243014D1*
X1231159Y2683637D1*
X1219743Y2687346D1*
X1209049Y2692795D1*
X1199338Y2699851D1*
X1190851Y2708338D1*
X1183795Y2718049D1*
X1178346Y2728743D1*
X1174637Y2740159D1*
X1172759Y2752014D1*
Y2764017D1*
X1174637Y2775872D1*
X1178346Y2787288D1*
X1183795Y2797983D1*
X1190851Y2807693D1*
X1199338Y2816181D1*
X1209049Y2823236D1*
X1219743Y2828685D1*
X1231159Y2832394D1*
X1243014Y2834272D1*
X1255017D1*
X1266872Y2832394D1*
X1278288Y2828685D1*
X1288983Y2823236D1*
X1298693Y2816181D1*
X1307181Y2807693D1*
X1314236Y2797983D1*
X1319685Y2787288D1*
X1323394Y2775872D1*
X1325272Y2764017D1*
Y2752014D1*
X494823Y2928479D2*
X487619Y2935690D1*
X485455Y2938435D1*
X467798Y2920754D1*
X467872Y2655696D1*
X473984Y2661807D1*
X472042Y2673297D1*
Y2683632D1*
X473658Y2693840D1*
X476852Y2703669D1*
X481544Y2712877D1*
X487619Y2721239D1*
X494823Y2728451D1*
X487619Y2735690D1*
X481544Y2744052D1*
X476852Y2753260D1*
X473658Y2763089D1*
X472042Y2773297D1*
Y2783632D1*
X473658Y2793840D1*
X476852Y2803669D1*
X481544Y2812877D1*
X487619Y2821239D1*
X494823Y2828451D1*
X487619Y2835690D1*
X481544Y2844052D1*
X476852Y2853260D1*
X473658Y2863089D1*
X472042Y2873297D1*
Y2883632D1*
X473658Y2893840D1*
X476852Y2903669D1*
X481544Y2912877D1*
X487619Y2921239D1*
X494823Y2928451D1*
X703073Y2670870D2*
X702031Y2664536D1*
X703075Y2667343D1*
X702752Y2688768D1*
X703073Y2686059D1*
X703075Y2770419D1*
X701743Y2763089D1*
X698550Y2753260D1*
X693858Y2744052D1*
X687783Y2735690D1*
X680579Y2728479D1*
X687783Y2721239D1*
X693858Y2712877D1*
X698550Y2703669D1*
X701743Y2693840D1*
X702752Y2688768D1*
X975650Y3610277D2*
X970188Y3601727D1*
X960466Y3590345D1*
X949084Y3580623D1*
X936322Y3572802D1*
X922493Y3567074D1*
X907938Y3563580D1*
X893016Y3562406D1*
X878094Y3563580D1*
X863539Y3567074D1*
X849710Y3572802D1*
X836947Y3580623D1*
X825565Y3590345D1*
X815844Y3601727D1*
X808023Y3614489D1*
X802295Y3628318D1*
X798800Y3642873D1*
X797626Y3657795D1*
X798800Y3672718D1*
X802295Y3687272D1*
X808023Y3701101D1*
X815844Y3713864D1*
X825565Y3725246D1*
X836947Y3734967D1*
X849710Y3742788D1*
X863539Y3748516D1*
X878094Y3752011D1*
X893016Y3753185D1*
X907938Y3752011D1*
X922493Y3748516D1*
X936322Y3742788D1*
X949084Y3734967D1*
X960466Y3725246D1*
X970188Y3713864D1*
X975650Y3705313D1*
X981198Y3713864D1*
X990919Y3725246D1*
X1002301Y3734967D1*
X1015064Y3742788D1*
X1028893Y3748516D1*
X1043448Y3752011D1*
X1058370Y3753185D1*
X1073292Y3752011D1*
X1087847Y3748516D1*
X1101676Y3742788D1*
X1114439Y3734967D1*
X1125821Y3725246D1*
X1135542Y3713864D1*
X1141004Y3705313D1*
X1146552Y3713864D1*
X1156274Y3725246D1*
X1167656Y3734967D1*
X1180418Y3742788D1*
X1194247Y3748516D1*
X1208802Y3752011D1*
X1223724Y3753185D1*
X1238647Y3752011D1*
X1253201Y3748516D1*
X1267030Y3742788D1*
X1279793Y3734967D1*
X1291175Y3725246D1*
X1300896Y3713864D1*
X1308717Y3701101D1*
X1314445Y3687272D1*
X1317940Y3672718D1*
X1319114Y3657795D1*
X1317940Y3642873D1*
X1314445Y3628318D1*
X1308717Y3614489D1*
X1300896Y3601727D1*
X1291175Y3590345D1*
X1279793Y3580623D1*
X1267030Y3572802D1*
X1253201Y3567074D1*
X1238647Y3563580D1*
X1223724Y3562406D1*
X1208802Y3563580D1*
X1194247Y3567074D1*
X1180418Y3572802D1*
X1167656Y3580623D1*
X1156274Y3590345D1*
X1146552Y3601727D1*
X1141090Y3610277D1*
X1135542Y3601727D1*
X1125821Y3590345D1*
X1114439Y3580623D1*
X1101676Y3572802D1*
X1087847Y3567074D1*
X1073292Y3563580D1*
X1058370Y3562406D1*
X1043448Y3563580D1*
X1028893Y3567074D1*
X1015064Y3572802D1*
X1002301Y3580623D1*
X990919Y3590345D1*
X981198Y3601727D1*
X975736Y3610277D1*
X984105Y3938028D2*
X981863Y3923867D1*
X977432Y3910231D1*
X970923Y3897455D1*
X962495Y3885856D1*
X952357Y3875717D1*
X940757Y3867290D1*
X927982Y3860781D1*
X914346Y3856350D1*
X900185Y3854107D1*
X885847D1*
X871686Y3856350D1*
X858049Y3860781D1*
X845274Y3867290D1*
X833675Y3875717D1*
X823536Y3885856D1*
X815109Y3897455D1*
X808600Y3910231D1*
X804169Y3923867D1*
X801926Y3938028D1*
Y3952366D1*
X804169Y3966527D1*
X808600Y3980163D1*
X815109Y3992938D1*
X823536Y4004538D1*
X833675Y4014676D1*
X845274Y4023104D1*
X858049Y4029613D1*
X871686Y4034044D1*
X885847Y4036287D1*
X900185D1*
X914346Y4034044D1*
X927982Y4029613D1*
X940757Y4023104D1*
X952357Y4014676D1*
X962495Y4004538D1*
X970923Y3992938D1*
X977432Y3980163D1*
X981863Y3966527D1*
X984105Y3952366D1*
Y3938028D1*
X1314814D2*
X1312571Y3923867D1*
X1308141Y3910231D1*
X1301631Y3897455D1*
X1293204Y3885856D1*
X1283065Y3875717D1*
X1271466Y3867290D1*
X1258691Y3860781D1*
X1245055Y3856350D1*
X1230893Y3854107D1*
X1216555D1*
X1202394Y3856350D1*
X1188758Y3860781D1*
X1175983Y3867290D1*
X1164383Y3875717D1*
X1154245Y3885856D1*
X1145817Y3897455D1*
X1139308Y3910231D1*
X1134878Y3923867D1*
X1132635Y3938028D1*
Y3952366D1*
X1134878Y3966527D1*
X1139308Y3980163D1*
X1145817Y3992938D1*
X1154245Y4004538D1*
X1164383Y4014676D1*
X1175983Y4023104D1*
X1188758Y4029613D1*
X1202394Y4034044D1*
X1216555Y4036287D1*
X1230893D1*
X1245055Y4034044D1*
X1258691Y4029613D1*
X1271466Y4023104D1*
X1283065Y4014676D1*
X1293204Y4004538D1*
X1301631Y3992938D1*
X1308141Y3980163D1*
X1312571Y3966527D1*
X1314814Y3952366D1*
Y3938028D1*
X1145281Y2022288D2*
X1134341Y2023147D1*
X1123691Y2025704D1*
X1113572Y2029895D1*
X1104233Y2035618D1*
X1095904Y2042731D1*
X1088791Y2051060D1*
X1083068Y2060398D1*
X1078877Y2070517D1*
X1076320Y2081168D1*
X1075461Y2092087D1*
X1076320Y2103006D1*
X1078877Y2113656D1*
X1083068Y2123775D1*
X1088791Y2133114D1*
X1095904Y2141442D1*
X1104233Y2148555D1*
X1113572Y2154278D1*
X1123691Y2158470D1*
X1134341Y2161026D1*
X1145281Y2161885D1*
X1205854Y2161671D1*
X1216672Y2159957D1*
X1227089Y2156573D1*
X1236848Y2151600D1*
X1245709Y2145162D1*
X1253454Y2137418D1*
X1259892Y2128557D1*
X1264864Y2118798D1*
X1268249Y2108381D1*
X1269962Y2097563D1*
Y2086610D1*
X1268249Y2075792D1*
X1264864Y2065376D1*
X1259892Y2055617D1*
X1253454Y2046756D1*
X1245709Y2039011D1*
X1236848Y2032573D1*
X1227089Y2027601D1*
X1216672Y2024216D1*
X1205854Y2022503D1*
X1162878Y2022287D1*
X1145260Y2022336D1*
X1625281Y2492288D2*
X1614341Y2493147D1*
X1603691Y2495704D1*
X1593572Y2499895D1*
X1584233Y2505618D1*
X1575904Y2512731D1*
X1568791Y2521060D1*
X1563068Y2530398D1*
X1558877Y2540517D1*
X1556320Y2551168D1*
X1555461Y2562087D1*
X1556320Y2573006D1*
X1558877Y2583656D1*
X1563068Y2593775D1*
X1568791Y2603114D1*
X1575904Y2611442D1*
X1584233Y2618555D1*
X1593572Y2624278D1*
X1603691Y2628470D1*
X1614341Y2631026D1*
X1625281Y2631885D1*
X1685854Y2631671D1*
X1696672Y2629957D1*
X1707089Y2626573D1*
X1716848Y2621600D1*
X1725709Y2615162D1*
X1733454Y2607418D1*
X1739892Y2598557D1*
X1744864Y2588798D1*
X1748249Y2578381D1*
X1749962Y2567563D1*
Y2556610D1*
X1748249Y2545792D1*
X1744864Y2535376D1*
X1739892Y2525617D1*
X1733454Y2516756D1*
X1725709Y2509011D1*
X1716848Y2502573D1*
X1707089Y2497601D1*
X1696672Y2494216D1*
X1685854Y2492503D1*
X1642878Y2492287D1*
X1625260Y2492336D1*
X1625281Y2022288D2*
X1614341Y2023147D1*
X1603691Y2025704D1*
X1593572Y2029895D1*
X1584233Y2035618D1*
X1575904Y2042731D1*
X1568791Y2051060D1*
X1563068Y2060398D1*
X1558877Y2070517D1*
X1556320Y2081168D1*
X1555461Y2092087D1*
X1556320Y2103006D1*
X1558877Y2113656D1*
X1563068Y2123775D1*
X1568791Y2133114D1*
X1575904Y2141442D1*
X1584233Y2148555D1*
X1593572Y2154278D1*
X1603691Y2158470D1*
X1614341Y2161026D1*
X1625281Y2161885D1*
X1685854Y2161671D1*
X1696672Y2159957D1*
X1707089Y2156573D1*
X1716848Y2151600D1*
X1725709Y2145162D1*
X1733454Y2137418D1*
X1739892Y2128557D1*
X1744864Y2118798D1*
X1748249Y2108381D1*
X1749962Y2097563D1*
Y2086610D1*
X1748249Y2075792D1*
X1744864Y2065376D1*
X1739892Y2055617D1*
X1733454Y2046756D1*
X1725709Y2039011D1*
X1716848Y2032573D1*
X1707089Y2027601D1*
X1696672Y2024216D1*
X1685854Y2022503D1*
X1642878Y2022287D1*
X1625260Y2022336D1*
X1145281Y1335280D2*
X1134341Y1336139D1*
X1123691Y1338696D1*
X1113572Y1342887D1*
X1104233Y1348610D1*
X1095904Y1355723D1*
X1088791Y1364052D1*
X1083068Y1373391D1*
X1078877Y1383510D1*
X1076320Y1394160D1*
X1075461Y1405079D1*
X1076320Y1415998D1*
X1078877Y1426648D1*
X1083068Y1436767D1*
X1088791Y1446106D1*
X1095904Y1454434D1*
X1104233Y1461547D1*
X1113572Y1467270D1*
X1123691Y1471462D1*
X1134341Y1474019D1*
X1145281Y1474877D1*
X1205854Y1474663D1*
X1216672Y1472949D1*
X1227089Y1469565D1*
X1236848Y1464592D1*
X1245709Y1458154D1*
X1253454Y1450410D1*
X1259892Y1441549D1*
X1264864Y1431790D1*
X1268249Y1421373D1*
X1269962Y1410555D1*
Y1399602D1*
X1268249Y1388784D1*
X1264864Y1378368D1*
X1259892Y1368609D1*
X1253454Y1359748D1*
X1245709Y1352003D1*
X1236848Y1345565D1*
X1227089Y1340593D1*
X1216672Y1337208D1*
X1205854Y1335495D1*
X1162878Y1335279D1*
X1145260Y1335328D1*
X1625281Y1805280D2*
X1614341Y1806139D1*
X1603691Y1808696D1*
X1593572Y1812887D1*
X1584233Y1818610D1*
X1575904Y1825723D1*
X1568791Y1834052D1*
X1563068Y1843391D1*
X1558877Y1853510D1*
X1556320Y1864160D1*
X1555461Y1875079D1*
X1556320Y1885998D1*
X1558877Y1896648D1*
X1563068Y1906767D1*
X1568791Y1916106D1*
X1575904Y1924434D1*
X1584233Y1931547D1*
X1593572Y1937270D1*
X1603691Y1941462D1*
X1614341Y1944019D1*
X1625281Y1944877D1*
X1685854Y1944663D1*
X1696672Y1942949D1*
X1707089Y1939565D1*
X1716848Y1934592D1*
X1725709Y1928154D1*
X1733454Y1920410D1*
X1739892Y1911549D1*
X1744864Y1901790D1*
X1748249Y1891373D1*
X1749962Y1880555D1*
Y1869602D1*
X1748249Y1858784D1*
X1744864Y1848368D1*
X1739892Y1838609D1*
X1733454Y1829748D1*
X1725709Y1822003D1*
X1716848Y1815565D1*
X1707089Y1810593D1*
X1696672Y1807208D1*
X1685854Y1805495D1*
X1642878Y1805279D1*
X1625260Y1805328D1*
X1625281Y1335280D2*
X1614341Y1336139D1*
X1603691Y1338696D1*
X1593572Y1342887D1*
X1584233Y1348610D1*
X1575904Y1355723D1*
X1568791Y1364052D1*
X1563068Y1373391D1*
X1558877Y1383510D1*
X1556320Y1394160D1*
X1555461Y1405079D1*
X1556320Y1415998D1*
X1558877Y1426648D1*
X1563068Y1436767D1*
X1568791Y1446106D1*
X1575904Y1454434D1*
X1584233Y1461547D1*
X1593572Y1467270D1*
X1603691Y1471462D1*
X1614341Y1474019D1*
X1625281Y1474877D1*
X1685854Y1474663D1*
X1696672Y1472949D1*
X1707089Y1469565D1*
X1716848Y1464592D1*
X1725709Y1458154D1*
X1733454Y1450410D1*
X1739892Y1441549D1*
X1744864Y1431790D1*
X1748249Y1421373D1*
X1749962Y1410555D1*
Y1399602D1*
X1748249Y1388784D1*
X1744864Y1378368D1*
X1739892Y1368609D1*
X1733454Y1359748D1*
X1725709Y1352003D1*
X1716848Y1345565D1*
X1707089Y1340593D1*
X1696672Y1337208D1*
X1685854Y1335495D1*
X1642878Y1335279D1*
X1625260Y1335328D1*
X724496Y909681D2*
X942146D1*
Y738586D1*
X711996D1*
Y909681D1*
X724496D1*
X740232Y480944D2*
X739098Y473787D1*
X736859Y466896D1*
X733569Y460439D1*
X729310Y454577D1*
X724187Y449454D1*
X718324Y445194D1*
X711868Y441905D1*
X704977Y439666D1*
X697820Y438532D1*
X690574D1*
X683417Y439666D1*
X676526Y441905D1*
X670069Y445194D1*
X664207Y449454D1*
X659083Y454577D1*
X654824Y460439D1*
X651535Y466896D1*
X649296Y473787D1*
X648162Y480944D1*
Y488190D1*
X649296Y495347D1*
X651535Y502238D1*
X654824Y508694D1*
X659083Y514557D1*
X664207Y519680D1*
X670069Y523939D1*
X676526Y527229D1*
X683417Y529468D1*
X690574Y530602D1*
X697820D1*
X704977Y529468D1*
X711868Y527229D1*
X718324Y523939D1*
X724187Y519680D1*
X729310Y514557D1*
X733569Y508694D1*
X736859Y502238D1*
X739098Y495347D1*
X740232Y488190D1*
Y480944D1*
X1611295Y4029172D2*
X1610161Y4022015D1*
X1607922Y4015124D1*
X1604632Y4008668D1*
X1600373Y4002806D1*
X1595250Y3997682D1*
X1589387Y3993423D1*
X1582931Y3990133D1*
X1576040Y3987894D1*
X1568883Y3986760D1*
X1561637D1*
X1554480Y3987894D1*
X1547589Y3990133D1*
X1541132Y3993423D1*
X1535270Y3997682D1*
X1530146Y4002806D1*
X1525887Y4008668D1*
X1522598Y4015124D1*
X1520359Y4022015D1*
X1519225Y4029172D1*
Y4036418D1*
X1520359Y4043575D1*
X1522598Y4050467D1*
X1525887Y4056923D1*
X1530146Y4062785D1*
X1535270Y4067909D1*
X1541132Y4072168D1*
X1547589Y4075457D1*
X1554480Y4077697D1*
X1561637Y4078830D1*
X1568883D1*
X1576040Y4077697D1*
X1582931Y4075457D1*
X1589387Y4072168D1*
X1595250Y4067909D1*
X1600373Y4062785D1*
X1604632Y4056923D1*
X1607922Y4050467D1*
X1610161Y4043575D1*
X1611295Y4036418D1*
Y4029172D1*
X1300041Y3261647D2*
X1398995D1*
X1300041Y3236778D2*
X1327022D1*
X1297555Y3231232D2*
X1329587D1*
X1329539Y3242594D1*
X1401560D1*
X1401516Y3280135D1*
X1352818Y3280161D1*
X1346547Y3274358D1*
X1342934Y3272861D1*
X1340320Y3272520D1*
X1303759Y3271627D1*
X1297508Y3266260D1*
X1297516Y3231228D1*
X1591997Y3156647D2*
X1616343D1*
X1581255Y3131778D2*
X1616343D1*
X1563726Y3106909D2*
X1684995D1*
X1561041Y3082041D2*
X1684995D1*
X1561041Y3057172D2*
X1659361D1*
X1561041Y3032303D2*
X1632017D1*
X1561041Y3007434D2*
X1632163D1*
X1561041Y2982566D2*
X1632310D1*
X1561041Y2957697D2*
X1632407D1*
X1561041Y2932828D2*
X1632554D1*
X1561041Y2907959D2*
X1632701D1*
X1561041Y2883091D2*
X1632846D1*
X1566558Y2858222D2*
X1628257D1*
X1686633Y3126870D2*
X1618839D1*
Y3173110D1*
X1604177Y3177799D1*
X1589480D1*
X1589362Y3149060D1*
X1588154Y3145341D1*
X1558521Y3103062D1*
X1558516Y2863979D1*
X1571467Y2850417D1*
X1621260Y2849597D1*
X1635492Y2862524D1*
X1634659Y3030899D1*
X1635845Y3034626D1*
X1638126Y3037803D1*
X1687486Y3077946D1*
X1687516Y3126146D1*
X873592Y3273970D2*
X1009608D1*
X873592Y3249101D2*
X1009217D1*
X873592Y3224232D2*
X903064D1*
X1012161Y3279154D2*
X918619Y3279307D1*
X914900Y3280516D1*
X911736Y3282815D1*
X900299Y3298820D1*
X877272Y3298839D1*
X871051Y3291133D1*
X871067Y3219453D1*
X881894Y3214587D1*
X900888D1*
X911283Y3235780D1*
X913986Y3238606D1*
X917429Y3240459D1*
X921559Y3241161D1*
X1011618Y3241356D1*
X1012209Y3279193D1*
D21*
X1214016Y3260016D3*
Y3149780D3*
X1094016Y3260016D3*
Y3149780D3*
X973016Y3260016D3*
Y3149780D3*
D22*
X1309016Y3250016D3*
Y3183087D3*
D23*
X1689016Y3241016D3*
X1763819D3*
D24*
X1688016Y3300016D3*
X1754945D3*
D22*
X1665016Y3175016D3*
Y3108087D3*
D25*
X1276016Y3036016D3*
Y2925780D3*
X1179016Y3036016D3*
Y2925780D3*
X1080016Y3036016D3*
Y2925780D3*
D26*
X924016Y1671016D3*
Y1513535D3*
X920016Y2402016D3*
Y2244535D3*
D27*
X826016Y1582016D3*
Y1680441D3*
X819016Y2334016D3*
Y2432441D3*
D23*
X892031Y1966850D3*
X817228D3*
D28*
X924016Y2833016D3*
Y2907819D3*
D29*
X1193016Y1204016D3*
X1048921D3*
X872937D3*
X728843D3*
D30*
X639079Y1560354D3*
D31*
Y1660354D3*
Y1760354D3*
Y1860354D3*
Y1960354D3*
X539079D3*
Y1860354D3*
Y1760354D3*
Y1660354D3*
Y1560354D3*
D32*
X1092819Y1640079D3*
D33*
X1592819Y2981614D3*
X1407780D3*
D23*
X1694016Y3363016D3*
X1768819D3*
D28*
X826016Y1494016D3*
Y1419213D3*
X820016Y2232016D3*
Y2157213D3*
D23*
X936323Y2056417D3*
X861520D3*
D28*
X821016Y2907016D3*
Y2832213D3*
D22*
X905811Y1803465D3*
X868409Y1882205D3*
X943213D3*
X886016Y2548016D3*
X848614Y2626756D3*
X923417D3*
D34*
X1607016Y3159016D3*
Y3184606D3*
Y3210197D3*
Y3235787D3*
Y3261378D3*
Y3286969D3*
Y3312559D3*
Y3338150D3*
X1376701D3*
Y3312559D3*
Y3286969D3*
Y3261378D3*
Y3235787D3*
Y3210197D3*
Y3184606D3*
Y3159016D3*
D35*
X1491858Y3248583D3*
D36*
X1550496Y799528D3*
D32*
X1092819Y2327087D3*
D37*
X1378016Y1204016D3*
X1578016D3*
X1249016Y2758016D3*
X1049016D3*
D33*
X1589055Y2986016D3*
D38*
X550496Y3976693D3*
X1731598D3*
D30*
X537701Y3178465D3*
D31*
Y3078465D3*
Y2978465D3*
Y2878465D3*
Y2778465D3*
Y2678465D3*
Y2578465D3*
X637701D3*
Y2678465D3*
Y2778465D3*
Y2878465D3*
Y2978465D3*
Y3078465D3*
Y3178465D3*
D36*
X893016Y3657795D3*
X1058370D3*
X1223724D3*
X893016Y3441260D3*
X1058370D3*
X1223724D3*
D32*
X1172819Y2092087D3*
Y2562087D3*
X1652819D3*
Y2092087D3*
X1172819Y1405079D3*
Y1875079D3*
X1652819D3*
Y1405079D3*
D39*
X827071Y824134D3*
D40*
Y587913D3*
D41*
X1012110Y706024D3*
D36*
X1385142Y799528D3*
X1219787D3*
X1550496Y1016063D3*
X1385142D3*
X1219787D3*
D42*
X694197Y484567D3*
X1565260Y4032795D3*
M02*
