G04 DipTrace 3.0.0.1*
G04 TopPaste.gbr*
%MOIN*%
G04 #@! TF.FileFunction,Paste,Top*
G04 #@! TF.Part,Single*
%ADD54C,0.031339*%
%ADD68R,0.110079X0.149449*%
%ADD70R,0.033307X0.00378*%
%ADD72R,0.054961X0.216378*%
%ADD82R,0.051024X0.04315*%
%ADD84R,0.041181X0.035276*%
%ADD86R,0.078583X0.110079*%
%ADD88R,0.062835X0.054961*%
%ADD90R,0.035276X0.031339*%
%ADD92R,0.04315X0.051024*%
%ADD94R,0.031339X0.035276*%
%ADD96R,0.098268X0.054961*%
%FSLAX26Y26*%
G04*
G70*
G90*
G75*
G01*
G04 TopPaste*
%LPD*%
D96*
X1214016Y3260016D3*
Y3149780D3*
X1094016Y3260016D3*
Y3149780D3*
X973016Y3260016D3*
Y3149780D3*
D94*
X1309016Y3250016D3*
Y3183087D3*
D92*
X1689016Y3241016D3*
X1763819D3*
D90*
X1688016Y3300016D3*
X1754945D3*
D94*
X1665016Y3175016D3*
Y3108087D3*
D88*
X1276016Y3036016D3*
Y2925780D3*
X1179016Y3036016D3*
Y2925780D3*
X1080016Y3036016D3*
Y2925780D3*
D86*
X924016Y1671016D3*
Y1513535D3*
X920016Y2402016D3*
Y2244535D3*
D84*
X826016Y1582016D3*
Y1680441D3*
X819016Y2334016D3*
Y2432441D3*
D92*
X892031Y1966850D3*
X817228D3*
D82*
X924016Y2833016D3*
Y2907819D3*
D72*
X1592819Y2981614D3*
X1407780D3*
D92*
X1694016Y3363016D3*
X1768819D3*
D82*
X826016Y1494016D3*
Y1419213D3*
X820016Y2232016D3*
Y2157213D3*
D92*
X936323Y2056417D3*
X861520D3*
D82*
X821016Y2907016D3*
Y2832213D3*
D94*
X905811Y1803465D3*
X868409Y1882205D3*
X943213D3*
X886016Y2548016D3*
X848614Y2626756D3*
X923417D3*
D70*
X1607016Y3159016D3*
Y3184606D3*
Y3210197D3*
Y3235787D3*
Y3261378D3*
Y3286969D3*
Y3312559D3*
Y3338150D3*
X1376701D3*
Y3312559D3*
Y3286969D3*
Y3261378D3*
Y3235787D3*
Y3210197D3*
Y3184606D3*
Y3159016D3*
D68*
X1491858Y3248583D3*
D72*
X1589055Y2986016D3*
D54*
X694197Y484567D3*
X1565260Y4032795D3*
M02*
