G04 DipTrace 3.0.0.1*
G04 TopSilk.gbr*
%MOIN*%
G04 #@! TF.FileFunction,Legend,Top*
G04 #@! TF.Part,Single*
%ADD10C,0.01*%
G04 #@! TA.AperFunction,Conductor*
%ADD95C,0.003088*%
%ADD96C,0.009264*%
%ADD97C,0.00772*%
%FSLAX26Y26*%
G04*
G70*
G90*
G75*
G01*
G04 TopSilk*
%LPD*%
X1164799Y3209228D2*
D10*
X1263232D1*
X1164799Y3216677D2*
X1263232D1*
X1164799D2*
Y3193118D1*
X1263232Y3216677D2*
Y3193118D1*
X1044799Y3209228D2*
X1143232D1*
X1044799Y3216677D2*
X1143232D1*
X1044799D2*
Y3193118D1*
X1143232Y3216677D2*
Y3193118D1*
X923799Y3209228D2*
X1022232D1*
X923799Y3216677D2*
X1022232D1*
X923799D2*
Y3193118D1*
X1022232Y3216677D2*
Y3193118D1*
X1647656Y3215445D2*
Y3266587D1*
X1244551Y2985228D2*
X1307480D1*
X1244551Y2992677D2*
X1307480D1*
X1244551D2*
Y2969118D1*
X1307480Y2992677D2*
Y2969118D1*
X1147551Y2985228D2*
X1210480D1*
X1147551Y2992677D2*
X1210480D1*
X1147551D2*
Y2969118D1*
X1210480Y2992677D2*
Y2969118D1*
X1048551Y2985228D2*
X1111480D1*
X1048551Y2992677D2*
X1111480D1*
X1048551D2*
Y2969118D1*
X1111480Y2992677D2*
Y2969118D1*
X967323Y1434795D2*
X880709D1*
X963323Y2165795D2*
X876709D1*
X798457Y1715874D2*
X849636D1*
X791457Y2467874D2*
X842636D1*
X929412Y1992421D2*
Y1941280D1*
X949587Y2795635D2*
X898445D1*
X1268016Y1129016D2*
Y1279016D1*
X643016D1*
Y1129016D1*
X1268016D1*
X968016Y1154021D2*
Y1254011D1*
X589079Y2159173D2*
X407976D1*
Y2156780D2*
Y1361535D1*
X770181D1*
Y2156780D1*
Y2159173D2*
X589079D1*
X1500299Y2853661D2*
X1362504D1*
X1500299D2*
X1638094D1*
X1500299Y3109567D2*
X1362504D1*
X1500299D2*
X1638094D1*
Y2853661D1*
X1362504D2*
Y3109567D1*
X838882Y1913701D2*
Y1771969D1*
X972740D1*
Y1913701D1*
X838882D1*
X819087Y2658252D2*
Y2516520D1*
X952945D1*
Y2658252D1*
X819087D1*
X1404359Y3248583D2*
Y3348583D1*
X1579358Y3248583D2*
Y3348583D1*
X1404359D1*
Y3248583D2*
Y3148583D1*
X1579358Y3248583D2*
Y3173583D1*
X1404359Y3148583D2*
X1554366D1*
X1579358Y3173583D2*
X1554366Y3148583D1*
X1318016Y1274016D2*
X1638016D1*
X1318016Y1134016D2*
X1638016D1*
X1318016Y1274016D2*
Y1134016D1*
X1638016Y1274016D2*
Y1134016D1*
X1309016Y2688016D2*
X989016D1*
X1309016Y2828016D2*
X989016D1*
X1309016Y2688016D2*
Y2828016D1*
X989016Y2688016D2*
Y2828016D1*
X410535Y3429646D2*
X764866D1*
Y2327283D1*
X410535D1*
Y3429646D1*
G36*
X704047Y2998000D2*
X759181D1*
Y2761874D1*
X704047D1*
Y2998000D1*
G37*
X408961Y3430236D2*
D10*
X763291D1*
Y2327874D1*
X408961D1*
Y3430236D1*
G36*
X413883Y1880453D2*
X465063D1*
Y1644193D1*
X413883D1*
Y1880453D1*
G37*
X589079Y2158189D2*
D10*
X407976D1*
Y2155797D2*
Y1360551D1*
X770181D1*
Y2155797D1*
Y2158189D2*
X589079D1*
X1267829Y2562062D2*
X1292837D1*
Y2352112D1*
X1242820D1*
Y2327087D1*
Y2302062D1*
X1342856D2*
Y2352112D1*
X1292837D1*
X1242820Y2302062D2*
X1292837D1*
Y2092112D1*
Y2302062D2*
X1342856D1*
X1292837Y2092112D2*
X1267829D1*
X1242820Y2302062D2*
X1342856Y2352112D1*
X1367776Y2327087D2*
X1627833D1*
X1652843Y2352112D1*
Y2474117D2*
Y2352112D1*
Y2302062D2*
Y2179081D1*
Y2352112D2*
X1665837Y2364072D1*
X1177850Y2327087D2*
X1217811D1*
X1267829Y1875054D2*
X1292837D1*
Y1665104D1*
X1242820D1*
Y1640079D1*
Y1615054D1*
X1342856D2*
Y1665104D1*
X1292837D1*
X1242820Y1615054D2*
X1292837D1*
Y1405104D1*
Y1615054D2*
X1342856D1*
X1292837Y1405104D2*
X1267829D1*
X1242820Y1615054D2*
X1342856Y1665104D1*
X1367776Y1640079D2*
X1627833D1*
X1652843Y1665104D1*
Y1787109D2*
Y1665104D1*
Y1615054D2*
Y1492073D1*
Y1665104D2*
X1665837Y1677064D1*
X1177850Y1640079D2*
X1217811D1*
X1215703Y3106725D2*
D95*
X1214753Y3108626D1*
X1212829Y3110549D1*
X1210928Y3111500D1*
X1207103D1*
X1205180Y3110549D1*
X1203279Y3108626D1*
X1202306Y3106725D1*
X1201355Y3103851D1*
Y3099053D1*
X1202306Y3096201D1*
X1203279Y3094278D1*
X1205180Y3092377D1*
X1207103Y3091404D1*
X1210928D1*
X1212829Y3092377D1*
X1214753Y3094278D1*
X1215703Y3096201D1*
X1221879Y3107653D2*
X1223802Y3108626D1*
X1226676Y3111478D1*
Y3091404D1*
X1091403Y3106725D2*
X1090453Y3108626D1*
X1088529Y3110549D1*
X1086628Y3111500D1*
X1082803D1*
X1080880Y3110549D1*
X1078979Y3108626D1*
X1078006Y3106725D1*
X1077055Y3103851D1*
Y3099053D1*
X1078006Y3096201D1*
X1078979Y3094278D1*
X1080880Y3092377D1*
X1082803Y3091404D1*
X1086628D1*
X1088529Y3092377D1*
X1090453Y3094278D1*
X1091403Y3096201D1*
X1098552Y3106703D2*
Y3107653D1*
X1099502Y3109577D1*
X1100453Y3110527D1*
X1102376Y3111478D1*
X1106201D1*
X1108102Y3110527D1*
X1109053Y3109577D1*
X1110026Y3107653D1*
Y3105752D1*
X1109053Y3103829D1*
X1107152Y3100977D1*
X1097579Y3091404D1*
X1110976D1*
X970403Y3106725D2*
X969453Y3108626D1*
X967529Y3110549D1*
X965628Y3111500D1*
X961803D1*
X959880Y3110549D1*
X957979Y3108626D1*
X957006Y3106725D1*
X956055Y3103851D1*
Y3099053D1*
X957006Y3096201D1*
X957979Y3094278D1*
X959880Y3092377D1*
X961803Y3091404D1*
X965628D1*
X967529Y3092377D1*
X969453Y3094278D1*
X970403Y3096201D1*
X978502Y3111478D2*
X989004D1*
X983278Y3103829D1*
X986152D1*
X988053Y3102878D1*
X989004Y3101927D1*
X989976Y3099053D1*
Y3097152D1*
X989004Y3094278D1*
X987102Y3092355D1*
X984228Y3091404D1*
X981354D1*
X978502Y3092355D1*
X977552Y3093327D1*
X976579Y3095229D1*
X1305928Y3149874D2*
X1304977Y3151776D1*
X1303054Y3153699D1*
X1301153Y3154650D1*
X1297328D1*
X1295405Y3153699D1*
X1293503Y3151776D1*
X1292531Y3149874D1*
X1291580Y3147000D1*
Y3142203D1*
X1292531Y3139351D1*
X1293503Y3137428D1*
X1295405Y3135526D1*
X1297328Y3134554D1*
X1301153D1*
X1303054Y3135526D1*
X1304977Y3137428D1*
X1305928Y3139351D1*
X1321676Y3134554D2*
Y3154627D1*
X1312104Y3141252D1*
X1326452D1*
X1273414Y2882725D2*
X1272464Y2884626D1*
X1270540Y2886549D1*
X1268639Y2887500D1*
X1264814D1*
X1262891Y2886549D1*
X1260990Y2884626D1*
X1260017Y2882725D1*
X1259066Y2879851D1*
Y2875053D1*
X1260017Y2872201D1*
X1260990Y2870278D1*
X1262891Y2868377D1*
X1264814Y2867404D1*
X1268639D1*
X1270540Y2868377D1*
X1272464Y2870278D1*
X1273414Y2872201D1*
X1284365Y2887478D2*
X1281513Y2886527D1*
X1280541Y2884626D1*
Y2882703D1*
X1281513Y2880801D1*
X1283415Y2879829D1*
X1287239Y2878878D1*
X1290113Y2877927D1*
X1292015Y2876004D1*
X1292965Y2874103D1*
Y2871229D1*
X1292015Y2869327D1*
X1291064Y2868355D1*
X1288190Y2867404D1*
X1284365D1*
X1281513Y2868355D1*
X1280541Y2869327D1*
X1279590Y2871229D1*
Y2874103D1*
X1280541Y2876004D1*
X1282464Y2877927D1*
X1285316Y2878878D1*
X1289141Y2879829D1*
X1291064Y2880801D1*
X1292015Y2882703D1*
Y2884626D1*
X1291064Y2886527D1*
X1288190Y2887478D1*
X1284365D1*
X1176879Y2882725D2*
X1175928Y2884626D1*
X1174005Y2886549D1*
X1172103Y2887500D1*
X1168279D1*
X1166355Y2886549D1*
X1164454Y2884626D1*
X1163481Y2882725D1*
X1162531Y2879851D1*
Y2875053D1*
X1163481Y2872201D1*
X1164454Y2870278D1*
X1166355Y2868377D1*
X1168279Y2867404D1*
X1172103D1*
X1174005Y2868377D1*
X1175928Y2870278D1*
X1176879Y2872201D1*
X1195501Y2880801D2*
X1194528Y2877927D1*
X1192627Y2876004D1*
X1189753Y2875053D1*
X1188802D1*
X1185928Y2876004D1*
X1184027Y2877927D1*
X1183054Y2880801D1*
Y2881752D1*
X1184027Y2884626D1*
X1185928Y2886527D1*
X1188802Y2887478D1*
X1189753D1*
X1192627Y2886527D1*
X1194528Y2884626D1*
X1195501Y2880801D1*
Y2876004D1*
X1194528Y2871229D1*
X1192627Y2868355D1*
X1189753Y2867404D1*
X1187852D1*
X1184978Y2868355D1*
X1184027Y2870278D1*
X1071917Y2882725D2*
X1070966Y2884626D1*
X1069043Y2886549D1*
X1067141Y2887500D1*
X1063317D1*
X1061393Y2886549D1*
X1059492Y2884626D1*
X1058519Y2882725D1*
X1057569Y2879851D1*
Y2875053D1*
X1058519Y2872201D1*
X1059492Y2870278D1*
X1061393Y2868377D1*
X1063317Y2867404D1*
X1067141D1*
X1069043Y2868377D1*
X1070966Y2870278D1*
X1071917Y2872201D1*
X1078092Y2883653D2*
X1080016Y2884626D1*
X1082890Y2887478D1*
Y2867404D1*
X1094813Y2887478D2*
X1091939Y2886527D1*
X1090016Y2883653D1*
X1089065Y2878878D1*
Y2876004D1*
X1090016Y2871229D1*
X1091939Y2868355D1*
X1094813Y2867404D1*
X1096715D1*
X1099589Y2868355D1*
X1101490Y2871229D1*
X1102463Y2876004D1*
Y2878878D1*
X1101490Y2883653D1*
X1099589Y2886527D1*
X1096715Y2887478D1*
X1094813D1*
X1101490Y2883653D2*
X1090016Y2871229D1*
X911831Y1428012D2*
Y1407916D1*
X918529D1*
X921403Y1408889D1*
X923327Y1410790D1*
X924277Y1412713D1*
X925228Y1415565D1*
Y1420362D1*
X924277Y1423237D1*
X923327Y1425138D1*
X921403Y1427061D1*
X918529Y1428012D1*
X911831D1*
X931404Y1424165D2*
X933327Y1425138D1*
X936201Y1427990D1*
Y1407916D1*
X903531Y2159012D2*
Y2138916D1*
X910229D1*
X913103Y2139889D1*
X915027Y2141790D1*
X915977Y2143713D1*
X916928Y2146565D1*
Y2151362D1*
X915977Y2154237D1*
X915027Y2156138D1*
X913103Y2158061D1*
X910229Y2159012D1*
X903531D1*
X924076Y2154214D2*
Y2155165D1*
X925027Y2157088D1*
X925978Y2158039D1*
X927901Y2158990D1*
X931726D1*
X933627Y2158039D1*
X934578Y2157088D1*
X935550Y2155165D1*
Y2153264D1*
X934578Y2151340D1*
X932676Y2148488D1*
X923104Y2138916D1*
X936501D1*
X808054Y1553579D2*
Y1533483D1*
X814753D1*
X817627Y1534455D1*
X819550Y1536357D1*
X820501Y1538280D1*
X821452Y1541132D1*
Y1545929D1*
X820501Y1548803D1*
X819550Y1550705D1*
X817627Y1552628D1*
X814753Y1553579D1*
X808054D1*
X829551Y1553557D2*
X840052D1*
X834326Y1545907D1*
X837200D1*
X839101Y1544957D1*
X840052Y1544006D1*
X841025Y1541132D1*
Y1539231D1*
X840052Y1536357D1*
X838151Y1534433D1*
X835277Y1533483D1*
X832403D1*
X829551Y1534433D1*
X828600Y1535406D1*
X827627Y1537307D1*
X800579Y2305579D2*
Y2285483D1*
X807278D1*
X810152Y2286455D1*
X812075Y2288357D1*
X813026Y2290280D1*
X813976Y2293132D1*
Y2297929D1*
X813026Y2300803D1*
X812075Y2302705D1*
X810152Y2304628D1*
X807278Y2305579D1*
X800579D1*
X829725Y2285483D2*
Y2305557D1*
X820152Y2292181D1*
X834500D1*
X844040Y1930539D2*
Y1910443D1*
X850738D1*
X853612Y1911416D1*
X855536Y1913317D1*
X856486Y1915241D1*
X857437Y1918093D1*
Y1922890D1*
X856486Y1925764D1*
X855536Y1927665D1*
X853612Y1929589D1*
X850738Y1930539D1*
X844040D1*
X875087Y1930517D2*
X865536D1*
X864586Y1921917D1*
X865536Y1922868D1*
X868410Y1923841D1*
X871262D1*
X874136Y1922868D1*
X876059Y1920967D1*
X877010Y1918093D1*
Y1916191D1*
X876059Y1913317D1*
X874136Y1911394D1*
X871262Y1910443D1*
X868410D1*
X865536Y1911394D1*
X864586Y1912367D1*
X863613Y1914268D1*
X908017Y2788852D2*
Y2768756D1*
X914716D1*
X917590Y2769728D1*
X919513Y2771630D1*
X920464Y2773553D1*
X921414Y2776405D1*
Y2781202D1*
X920464Y2784076D1*
X919513Y2785978D1*
X917590Y2787901D1*
X914716Y2788852D1*
X908017D1*
X939064Y2785978D2*
X938113Y2787879D1*
X935239Y2788830D1*
X933338D1*
X930464Y2787879D1*
X928541Y2785005D1*
X927590Y2780230D1*
Y2775454D1*
X928541Y2771630D1*
X930464Y2769706D1*
X933338Y2768756D1*
X934289D1*
X937141Y2769706D1*
X939064Y2771630D1*
X940015Y2774504D1*
Y2775454D1*
X939064Y2778328D1*
X937141Y2780230D1*
X934289Y2781180D1*
X933338D1*
X930464Y2780230D1*
X928541Y2778328D1*
X927590Y2775454D1*
X572605Y1354752D2*
Y1340404D1*
X573555Y1337530D1*
X575479Y1335629D1*
X578353Y1334656D1*
X580254D1*
X583128Y1335629D1*
X585051Y1337530D1*
X586002Y1340404D1*
Y1354752D1*
X596953Y1354730D2*
X594101Y1353779D1*
X593128Y1351878D1*
Y1349955D1*
X594101Y1348053D1*
X596002Y1347081D1*
X599827Y1346130D1*
X602701Y1345179D1*
X604602Y1343256D1*
X605553Y1341355D1*
Y1338481D1*
X604602Y1336579D1*
X603652Y1335607D1*
X600778Y1334656D1*
X596953D1*
X594101Y1335607D1*
X593128Y1336579D1*
X592178Y1338481D1*
Y1341355D1*
X593128Y1343256D1*
X595052Y1345179D1*
X597904Y1346130D1*
X601728Y1347081D1*
X603652Y1348053D1*
X604602Y1349955D1*
Y1351878D1*
X603652Y1353779D1*
X600778Y1354730D1*
X596953D1*
X1489076Y2846878D2*
Y2826782D1*
X1500550D1*
X1506725Y2843031D2*
X1508649Y2844004D1*
X1511523Y2846856D1*
Y2826782D1*
X809531Y1377266D2*
X818131D1*
X821005Y1378239D1*
X821977Y1379189D1*
X822928Y1381091D1*
Y1383014D1*
X821977Y1384915D1*
X821005Y1385888D1*
X818131Y1386839D1*
X809531D1*
Y1366743D1*
X816229Y1377266D2*
X822928Y1366743D1*
X830076Y1382041D2*
Y1382992D1*
X831027Y1384915D1*
X831978Y1385866D1*
X833901Y1386816D1*
X837726D1*
X839627Y1385866D1*
X840578Y1384915D1*
X841550Y1382992D1*
Y1381091D1*
X840578Y1379167D1*
X838676Y1376315D1*
X829104Y1366743D1*
X842501D1*
X803531Y2115266D2*
X812131D1*
X815005Y2116239D1*
X815977Y2117189D1*
X816928Y2119091D1*
Y2121014D1*
X815977Y2122915D1*
X815005Y2123888D1*
X812131Y2124839D1*
X803531D1*
Y2104743D1*
X810229Y2115266D2*
X816928Y2104743D1*
X825027Y2124816D2*
X835528D1*
X829802Y2117167D1*
X832676D1*
X834578Y2116217D1*
X835528Y2115266D1*
X836501Y2112392D1*
Y2110491D1*
X835528Y2107617D1*
X833627Y2105693D1*
X830753Y2104743D1*
X827879D1*
X825027Y2105693D1*
X824076Y2106666D1*
X823104Y2108567D1*
X881961Y2010534D2*
X890561D1*
X893435Y2011506D1*
X894407Y2012457D1*
X895358Y2014358D1*
Y2016282D1*
X894407Y2018183D1*
X893435Y2019156D1*
X890561Y2020106D1*
X881961D1*
Y2000010D1*
X888659Y2010534D2*
X895358Y2000010D1*
X911106D2*
Y2020084D1*
X901534Y2006709D1*
X915882D1*
X804531Y2790266D2*
X813131D1*
X816005Y2791239D1*
X816977Y2792189D1*
X817928Y2794091D1*
Y2796014D1*
X816977Y2797915D1*
X816005Y2798888D1*
X813131Y2799839D1*
X804531D1*
Y2779743D1*
X811229Y2790266D2*
X817928Y2779743D1*
X835578Y2799816D2*
X826027D1*
X825076Y2791217D1*
X826027Y2792167D1*
X828901Y2793140D1*
X831753D1*
X834627Y2792167D1*
X836550Y2790266D1*
X837501Y2787392D1*
Y2785491D1*
X836550Y2782617D1*
X834627Y2780693D1*
X831753Y2779743D1*
X828901D1*
X826027Y2780693D1*
X825076Y2781666D1*
X824104Y2783567D1*
X900324Y1765185D2*
Y1745089D1*
X893626Y1765185D2*
X907023D1*
X913199Y1761338D2*
X915122Y1762311D1*
X917996Y1765163D1*
Y1745089D1*
X876229Y2509736D2*
Y2489640D1*
X869531Y2509736D2*
X882928D1*
X890076Y2504939D2*
Y2505889D1*
X891027Y2507813D1*
X891978Y2508763D1*
X893901Y2509714D1*
X897726D1*
X899627Y2508763D1*
X900578Y2507813D1*
X901550Y2505889D1*
Y2503988D1*
X900578Y2502065D1*
X898676Y2499213D1*
X889104Y2489640D1*
X902501D1*
X1479673Y3141799D2*
Y3127451D1*
X1480624Y3124577D1*
X1482547Y3122676D1*
X1485421Y3121703D1*
X1487322D1*
X1490196Y3122676D1*
X1492120Y3124577D1*
X1493070Y3127451D1*
Y3141799D1*
X1499246Y3137952D2*
X1501169Y3138925D1*
X1504043Y3141777D1*
Y3121703D1*
X1461531Y1127232D2*
Y1112884D1*
X1462481Y1110010D1*
X1464405Y1108109D1*
X1467279Y1107136D1*
X1469180D1*
X1472054Y1108109D1*
X1473977Y1110010D1*
X1474928Y1112884D1*
Y1127232D1*
X1492578Y1127210D2*
X1483027D1*
X1482076Y1118610D1*
X1483027Y1119561D1*
X1485901Y1120534D1*
X1488753D1*
X1491627Y1119561D1*
X1493550Y1117660D1*
X1494501Y1114786D1*
Y1112884D1*
X1493550Y1110010D1*
X1491627Y1108087D1*
X1488753Y1107136D1*
X1485901D1*
X1483027Y1108087D1*
X1482076Y1109060D1*
X1481104Y1110961D1*
X1133017Y2681232D2*
Y2666884D1*
X1133968Y2664010D1*
X1135891Y2662109D1*
X1138765Y2661136D1*
X1140666D1*
X1143540Y2662109D1*
X1145464Y2664010D1*
X1146414Y2666884D1*
Y2681232D1*
X1164064Y2678358D2*
X1163113Y2680260D1*
X1160239Y2681210D1*
X1158338D1*
X1155464Y2680260D1*
X1153541Y2677386D1*
X1152590Y2672610D1*
Y2667835D1*
X1153541Y2664010D1*
X1155464Y2662087D1*
X1158338Y2661136D1*
X1159289D1*
X1162141Y2662087D1*
X1164064Y2664010D1*
X1165015Y2666884D1*
Y2667835D1*
X1164064Y2670709D1*
X1162141Y2672610D1*
X1159289Y2673561D1*
X1158338D1*
X1155464Y2672610D1*
X1153541Y2670709D1*
X1152590Y2667835D1*
X571216Y2320500D2*
Y2306152D1*
X572166Y2303278D1*
X574090Y2301377D1*
X576964Y2300404D1*
X578865D1*
X581739Y2301377D1*
X583662Y2303278D1*
X584613Y2306152D1*
Y2320500D1*
X594613Y2300404D2*
X604186Y2320478D1*
X590789D1*
X1809016Y3364203D2*
X1817616D1*
X1820490Y3365176D1*
X1821463Y3366126D1*
X1822414Y3368028D1*
Y3369951D1*
X1821463Y3371852D1*
X1820490Y3372825D1*
X1817616Y3373776D1*
X1809016D1*
Y3353680D1*
X1815715Y3364203D2*
X1822414Y3353680D1*
X1828589Y3369929D2*
X1830513Y3370902D1*
X1833387Y3373753D1*
Y3353680D1*
X1816191Y3300111D2*
X1815240Y3302012D1*
X1813317Y3303935D1*
X1811416Y3304886D1*
X1807591D1*
X1805668Y3303935D1*
X1803767Y3302012D1*
X1802794Y3300111D1*
X1801843Y3297237D1*
Y3292439D1*
X1802794Y3289587D1*
X1803767Y3287664D1*
X1805668Y3285763D1*
X1807591Y3284790D1*
X1811416D1*
X1813317Y3285763D1*
X1815240Y3287664D1*
X1816191Y3289587D1*
X1833841Y3302012D2*
X1832890Y3303913D1*
X1830016Y3304864D1*
X1828115D1*
X1825241Y3303913D1*
X1823317Y3301039D1*
X1822367Y3296264D1*
Y3291488D1*
X1823317Y3287664D1*
X1825241Y3285740D1*
X1828115Y3284790D1*
X1829065D1*
X1831917Y3285740D1*
X1833841Y3287664D1*
X1834791Y3290538D1*
Y3291488D1*
X1833841Y3294362D1*
X1831917Y3296264D1*
X1829065Y3297214D1*
X1828115D1*
X1825241Y3296264D1*
X1823317Y3294362D1*
X1822367Y3291488D1*
X1815364Y3248000D2*
X1814414Y3249902D1*
X1812490Y3251825D1*
X1810589Y3252776D1*
X1806764D1*
X1804841Y3251825D1*
X1802940Y3249902D1*
X1801967Y3248000D1*
X1801016Y3245126D1*
Y3240329D1*
X1801967Y3237477D1*
X1802940Y3235554D1*
X1804841Y3233652D1*
X1806764Y3232680D1*
X1810589D1*
X1812490Y3233652D1*
X1814414Y3235554D1*
X1815364Y3237477D1*
X1833014Y3252753D2*
X1823463D1*
X1822513Y3244154D1*
X1823463Y3245104D1*
X1826337Y3246077D1*
X1829189D1*
X1832063Y3245104D1*
X1833987Y3243203D1*
X1834937Y3240329D1*
Y3238428D1*
X1833987Y3235554D1*
X1832063Y3233630D1*
X1829189Y3232680D1*
X1826337D1*
X1823463Y3233630D1*
X1822513Y3234603D1*
X1821540Y3236504D1*
X1664484Y3062879D2*
X1662583Y3061928D1*
X1660659Y3060005D1*
X1659709Y3058104D1*
Y3054279D1*
X1660659Y3052356D1*
X1662583Y3050454D1*
X1664484Y3049482D1*
X1667358Y3048531D1*
X1672155D1*
X1675007Y3049482D1*
X1676931Y3050454D1*
X1678832Y3052356D1*
X1679805Y3054279D1*
Y3058104D1*
X1678832Y3060005D1*
X1676931Y3061928D1*
X1675007Y3062879D1*
X1679805Y3072879D2*
X1659731Y3082452D1*
Y3069055D1*
X1384826Y3458539D2*
D96*
Y3484405D1*
X1381974Y3492961D1*
X1379056Y3495879D1*
X1373352Y3498731D1*
X1364730D1*
X1359026Y3495879D1*
X1356108Y3492961D1*
X1353256Y3484405D1*
Y3458539D1*
X1413544D1*
X1373352Y3531584D2*
X1376204Y3525880D1*
X1381974Y3520110D1*
X1390596Y3517258D1*
X1396300D1*
X1404922Y3520110D1*
X1410626Y3525880D1*
X1413544Y3531584D1*
Y3540206D1*
X1410626Y3545976D1*
X1404922Y3551680D1*
X1396300Y3554598D1*
X1390596D1*
X1381974Y3551680D1*
X1376204Y3545976D1*
X1373352Y3540206D1*
Y3531584D1*
Y3573125D2*
X1413544Y3584599D1*
X1373352Y3596073D1*
X1413544Y3607547D1*
X1373352Y3619021D1*
X1390596Y3637548D2*
Y3671970D1*
X1384826D1*
X1379056Y3669118D1*
X1376204Y3666266D1*
X1373352Y3660496D1*
Y3651874D1*
X1376204Y3646170D1*
X1381974Y3640400D1*
X1390596Y3637548D1*
X1396300D1*
X1404922Y3640400D1*
X1410626Y3646170D1*
X1413544Y3651874D1*
Y3660496D1*
X1410626Y3666266D1*
X1404922Y3671970D1*
X1373352Y3690497D2*
X1413544D1*
X1390596D2*
X1381974Y3693415D1*
X1376204Y3699119D1*
X1373352Y3704889D1*
Y3713511D1*
X1353256Y3790359D2*
X1413544D1*
Y3816225D1*
X1410626Y3824847D1*
X1407774Y3827699D1*
X1402070Y3830551D1*
X1393448D1*
X1387678Y3827699D1*
X1384826Y3824847D1*
X1381974Y3816225D1*
X1379056Y3824847D1*
X1376204Y3827699D1*
X1370500Y3830551D1*
X1364730D1*
X1359026Y3827699D1*
X1356108Y3824847D1*
X1353256Y3816225D1*
Y3790359D1*
X1381974D2*
Y3816225D1*
X1373352Y3863404D2*
X1376204Y3857700D1*
X1381974Y3851930D1*
X1390596Y3849078D1*
X1396300D1*
X1404922Y3851930D1*
X1410626Y3857700D1*
X1413544Y3863404D1*
Y3872026D1*
X1410626Y3877796D1*
X1404922Y3883500D1*
X1396300Y3886418D1*
X1390596D1*
X1381974Y3883500D1*
X1376204Y3877796D1*
X1373352Y3872026D1*
Y3863404D1*
Y3939367D2*
X1413544D1*
X1381974D2*
X1376204Y3933664D1*
X1373352Y3927893D1*
Y3919338D1*
X1376204Y3913568D1*
X1381974Y3907864D1*
X1390596Y3904946D1*
X1396300D1*
X1404922Y3907864D1*
X1410626Y3913568D1*
X1413544Y3919338D1*
Y3927893D1*
X1410626Y3933664D1*
X1404922Y3939367D1*
X1373352Y3957895D2*
X1413544D1*
X1390596D2*
X1381974Y3960813D1*
X1376204Y3966517D1*
X1373352Y3972287D1*
Y3980909D1*
X1353256Y4033858D2*
X1413544D1*
X1381974D2*
X1376204Y4028154D1*
X1373352Y4022384D1*
Y4013762D1*
X1376204Y4008058D1*
X1381974Y4002288D1*
X1390596Y3999436D1*
X1396300D1*
X1404922Y4002288D1*
X1410626Y4008058D1*
X1413544Y4013762D1*
Y4022384D1*
X1410626Y4028154D1*
X1404922Y4033858D1*
X1445256Y3460539D2*
X1505544Y3483487D1*
X1445256Y3506435D1*
X1456796Y3524962D2*
X1453878Y3530732D1*
X1445322Y3539354D1*
X1505544D1*
X1499774Y3560733D2*
X1502692Y3557881D1*
X1505544Y3560733D1*
X1502692Y3563651D1*
X1499774Y3560733D1*
X1459648Y3585096D2*
X1456796D1*
X1451026Y3587948D1*
X1448174Y3590800D1*
X1445322Y3596570D1*
Y3608044D1*
X1448174Y3613748D1*
X1451026Y3616600D1*
X1456796Y3619518D1*
X1462500D1*
X1468270Y3616600D1*
X1476826Y3610896D1*
X1505544Y3582178D1*
Y3622370D1*
X1568173Y3456767D2*
D97*
Y3478322D1*
X1565796Y3485452D1*
X1563364Y3487883D1*
X1558611Y3490260D1*
X1551426D1*
X1546673Y3487883D1*
X1544241Y3485452D1*
X1541864Y3478322D1*
Y3456767D1*
X1592104D1*
X1558611Y3505699D2*
X1592104D1*
X1572981D2*
X1565796Y3508131D1*
X1560988Y3512884D1*
X1558611Y3517693D1*
Y3524878D1*
X1541864Y3540317D2*
X1544241Y3542694D1*
X1541864Y3545125D1*
X1539432Y3542694D1*
X1541864Y3540317D1*
X1558611Y3542694D2*
X1592104D1*
X1558611Y3560565D2*
X1592104D1*
X1568173D2*
X1560988Y3567750D1*
X1558611Y3572558D1*
Y3579688D1*
X1560988Y3584496D1*
X1568173Y3586873D1*
X1592104D1*
X1541864Y3609497D2*
X1582543D1*
X1589672Y3611874D1*
X1592104Y3616682D1*
Y3621435D1*
X1558611Y3602312D2*
Y3619059D1*
Y3636875D2*
X1592104D1*
X1572981D2*
X1565796Y3639307D1*
X1560987Y3644060D1*
X1558611Y3648868D1*
Y3656053D1*
X1541864Y3671493D2*
X1592104D1*
X1565796D2*
X1560987Y3676301D1*
X1558611Y3681054D1*
Y3688239D1*
X1560987Y3692992D1*
X1565796Y3697801D1*
X1572981Y3700177D1*
X1577734D1*
X1584919Y3697801D1*
X1589672Y3692992D1*
X1592104Y3688239D1*
Y3681054D1*
X1589672Y3676301D1*
X1584919Y3671493D1*
X1558611Y3727555D2*
X1560987Y3722802D1*
X1565796Y3717993D1*
X1572981Y3715617D1*
X1577734D1*
X1584919Y3717993D1*
X1589672Y3722802D1*
X1592104Y3727555D1*
Y3734740D1*
X1589672Y3739548D1*
X1584919Y3744302D1*
X1577734Y3746733D1*
X1572981D1*
X1565796Y3744302D1*
X1560987Y3739548D1*
X1558611Y3734740D1*
Y3727555D1*
X1541864Y3769358D2*
X1582543D1*
X1589672Y3771734D1*
X1592104Y3776543D1*
Y3781296D1*
X1558611Y3762173D2*
Y3778919D1*
X1587296Y3799112D2*
X1589728Y3796735D1*
X1592104Y3799112D1*
X1589728Y3801544D1*
X1587296Y3799112D1*
X1565796Y3845723D2*
X1560987Y3840915D1*
X1558611Y3836106D1*
Y3828976D1*
X1560987Y3824168D1*
X1565796Y3819415D1*
X1572981Y3816983D1*
X1577734D1*
X1584919Y3819415D1*
X1589672Y3824168D1*
X1592104Y3828976D1*
Y3836106D1*
X1589672Y3840915D1*
X1584919Y3845723D1*
X1558611Y3873100D2*
X1560987Y3868347D1*
X1565796Y3863539D1*
X1572981Y3861162D1*
X1577734D1*
X1584919Y3863539D1*
X1589672Y3868347D1*
X1592104Y3873100D1*
Y3880286D1*
X1589672Y3885094D1*
X1584919Y3889847D1*
X1577734Y3892279D1*
X1572981D1*
X1565796Y3889847D1*
X1560987Y3885094D1*
X1558611Y3880286D1*
Y3873100D1*
Y3907718D2*
X1592104D1*
X1568173D2*
X1560987Y3914903D1*
X1558611Y3919712D1*
Y3926842D1*
X1560987Y3931650D1*
X1568173Y3934027D1*
X1592104D1*
X1568173D2*
X1560987Y3941212D1*
X1558611Y3946020D1*
Y3953150D1*
X1560987Y3957958D1*
X1568173Y3960390D1*
X1592104D1*
X448195Y3510118D2*
D96*
Y3449830D1*
X488387Y3510118D2*
Y3449830D1*
X448195Y3481400D2*
X488387D1*
X506914Y3490022D2*
Y3461304D1*
X509766Y3452748D1*
X515536Y3449830D1*
X524158D1*
X529862Y3452748D1*
X538484Y3461304D1*
Y3490022D2*
Y3449830D1*
X557011Y3510118D2*
Y3449830D1*
Y3481400D2*
X562781Y3487170D1*
X568485Y3490022D1*
X577107D1*
X582811Y3487170D1*
X588581Y3481400D1*
X591433Y3472778D1*
Y3467074D1*
X588581Y3458452D1*
X582811Y3452748D1*
X577107Y3449830D1*
X568485D1*
X562781Y3452748D1*
X557011Y3458452D1*
X429195Y2231548D2*
X455061D1*
X463617Y2234400D1*
X466535Y2237318D1*
X469387Y2243022D1*
Y2251644D1*
X466535Y2257348D1*
X463617Y2260266D1*
X455061Y2263118D1*
X429195D1*
Y2202830D1*
X487914Y2243022D2*
Y2202830D1*
Y2225778D2*
X490832Y2234400D1*
X496536Y2240170D1*
X502306Y2243022D1*
X510928D1*
X529455Y2263118D2*
X532307Y2260266D1*
X535225Y2263118D1*
X532307Y2266036D1*
X529455Y2263118D1*
X532307Y2243022D2*
Y2202830D1*
X553752Y2243022D2*
Y2202830D1*
Y2231548D2*
X562374Y2240170D1*
X568145Y2243022D1*
X576700D1*
X582470Y2240170D1*
X585322Y2231548D1*
Y2202830D1*
X612472Y2263118D2*
Y2214304D1*
X615323Y2205748D1*
X621094Y2202830D1*
X626797D1*
X603849Y2243022D2*
X623945D1*
X645324Y2225778D2*
X679746D1*
Y2231548D1*
X676894Y2237318D1*
X674043Y2240170D1*
X668272Y2243022D1*
X659650D1*
X653947Y2240170D1*
X648176Y2234400D1*
X645324Y2225778D1*
Y2220074D1*
X648176Y2211452D1*
X653947Y2205748D1*
X659650Y2202830D1*
X668272D1*
X674043Y2205748D1*
X679746Y2211452D1*
X698273Y2243022D2*
Y2202830D1*
Y2225778D2*
X701192Y2234400D1*
X706896Y2240170D1*
X712666Y2243022D1*
X721288D1*
X691171Y3816869D2*
X694023Y3811099D1*
X699793Y3805395D1*
X705497Y3802477D1*
X714119Y3799625D1*
X728511D1*
X737066Y3802477D1*
X742837Y3805395D1*
X748540Y3811099D1*
X751459Y3816869D1*
Y3828343D1*
X748540Y3834047D1*
X742837Y3839817D1*
X737067Y3842669D1*
X728511Y3845521D1*
X714119D1*
X705497Y3842669D1*
X699793Y3839817D1*
X694023Y3834047D1*
X691171Y3828343D1*
Y3816869D1*
X711267Y3864048D2*
X739985D1*
X748540Y3866900D1*
X751459Y3872670D1*
Y3881292D1*
X748540Y3886996D1*
X739985Y3895618D1*
X711267D2*
X751459D1*
X691171Y3922767D2*
X739985D1*
X748540Y3925619D1*
X751459Y3931389D1*
Y3937093D1*
X711267Y3914145D2*
Y3934241D1*
Y3955620D2*
X771555D1*
X719889D2*
X714185Y3961390D1*
X711267Y3967094D1*
Y3975716D1*
X714185Y3981486D1*
X719889Y3987190D1*
X728511Y3990108D1*
X734281D1*
X742837Y3987190D1*
X748607Y3981486D1*
X751459Y3975716D1*
Y3967094D1*
X748607Y3961390D1*
X742837Y3955620D1*
X711267Y4008635D2*
X739985D1*
X748540Y4011487D1*
X751459Y4017258D1*
Y4025880D1*
X748540Y4031583D1*
X739985Y4040205D1*
X711267D2*
X751459D1*
X691171Y4067355D2*
X739985D1*
X748540Y4070206D1*
X751459Y4075977D1*
Y4081680D1*
X711267Y4058733D2*
Y4078829D1*
X1664778Y716018D2*
X1725066D1*
X1684874Y734545D2*
X1725066D1*
X1696348D2*
X1687726Y743167D1*
X1684874Y748937D1*
Y757493D1*
X1687726Y763263D1*
X1696348Y766115D1*
X1725066D1*
X1684874Y784642D2*
X1745162D1*
X1693496D2*
X1687793Y790412D1*
X1684874Y796116D1*
Y804738D1*
X1687793Y810508D1*
X1693496Y816212D1*
X1702118Y819130D1*
X1707889D1*
X1716444Y816212D1*
X1722214Y810508D1*
X1725066Y804738D1*
Y796116D1*
X1722214Y790412D1*
X1716444Y784642D1*
X1684874Y837657D2*
X1713592D1*
X1722148Y840509D1*
X1725066Y846279D1*
Y854901D1*
X1722148Y860605D1*
X1713592Y869227D1*
X1684874D2*
X1725066D1*
X1664778Y896376D2*
X1713592D1*
X1722148Y899228D1*
X1725066Y904998D1*
Y910702D1*
X1684874Y887754D2*
Y907850D1*
X539778Y731018D2*
X600066D1*
X559874Y749545D2*
X600066D1*
X571348D2*
X562726Y758167D1*
X559874Y763937D1*
Y772493D1*
X562726Y778263D1*
X571348Y781115D1*
X600066D1*
X559874Y799642D2*
X620162D1*
X568496D2*
X562793Y805412D1*
X559874Y811116D1*
Y819738D1*
X562793Y825508D1*
X568496Y831212D1*
X577118Y834130D1*
X582889D1*
X591444Y831212D1*
X597214Y825508D1*
X600066Y819738D1*
Y811116D1*
X597214Y805412D1*
X591444Y799642D1*
X559874Y852657D2*
X588592D1*
X597148Y855509D1*
X600066Y861279D1*
Y869901D1*
X597148Y875605D1*
X588592Y884227D1*
X559874D2*
X600066D1*
X539778Y911376D2*
X588592D1*
X597148Y914228D1*
X600066Y919998D1*
Y925702D1*
X559874Y902754D2*
Y922850D1*
X709195Y1103578D2*
X714965Y1106496D1*
X723587Y1115052D1*
Y1054830D1*
X776536Y1115052D2*
X747884D1*
X745032Y1089252D1*
X747884Y1092104D1*
X756506Y1095022D1*
X765062D1*
X773684Y1092104D1*
X779454Y1086400D1*
X782306Y1077778D1*
Y1072074D1*
X779454Y1063452D1*
X773684Y1057682D1*
X765062Y1054830D1*
X756506D1*
X747884Y1057682D1*
X745032Y1060600D1*
X742114Y1066304D1*
X846795Y1054830D2*
X823781Y1115118D1*
X800833Y1054830D1*
X809455Y1074926D2*
X838173D1*
X969539Y1054830D2*
Y1115118D1*
X946591Y1054830D1*
X923644Y1115118D1*
Y1054830D1*
X1022488Y1095022D2*
Y1054830D1*
Y1086400D2*
X1016785Y1092170D1*
X1011014Y1095022D1*
X1002459D1*
X996689Y1092170D1*
X990985Y1086400D1*
X988066Y1077778D1*
Y1072074D1*
X990985Y1063452D1*
X996689Y1057748D1*
X1002459Y1054830D1*
X1011014D1*
X1016785Y1057748D1*
X1022488Y1063452D1*
X1041015Y1095022D2*
X1072585Y1054830D1*
Y1095022D2*
X1041015Y1054830D1*
X1482313Y2851644D2*
D95*
Y2831548D1*
X1493787D1*
X1499963Y2847798D2*
X1501886Y2848770D1*
X1504760Y2851622D1*
Y2831548D1*
M02*
